%TF.GenerationSoftware,KiCad,Pcbnew,(5.1.10)-1*%
%TF.CreationDate,2022-02-04T20:39:48+09:00*%
%TF.ProjectId,Power,506f7765-722e-46b6-9963-61645f706362,rev?*%
%TF.SameCoordinates,Original*%
%TF.FileFunction,Legend,Top*%
%TF.FilePolarity,Positive*%
%FSLAX46Y46*%
G04 Gerber Fmt 4.6, Leading zero omitted, Abs format (unit mm)*
G04 Created by KiCad (PCBNEW (5.1.10)-1) date 2022-02-04 20:39:48*
%MOMM*%
%LPD*%
G01*
G04 APERTURE LIST*
%ADD10C,0.120000*%
%ADD11C,0.127000*%
%ADD12C,0.150000*%
G04 APERTURE END LIST*
D10*
%TO.C,J5*%
X28100004Y-500000D02*
X28100004Y1000000D01*
X29204169Y-500000D02*
X28100004Y-500000D01*
X29204169Y-3500000D02*
X29204169Y-500000D01*
X28100004Y-3500000D02*
X29204169Y-3500000D01*
X28100004Y-5000000D02*
X28100004Y-3500000D01*
X33400000Y1000000D02*
X28100000Y1000000D01*
X33400000Y-5000000D02*
X33400000Y1000000D01*
X28100000Y-5000000D02*
X33400000Y-5000000D01*
%TO.C,C15*%
X32400000Y15150000D02*
X25100000Y15150000D01*
X32400000Y10850000D02*
X32400000Y15150000D01*
X32400000Y10850000D02*
X25100000Y10850000D01*
%TO.C,C17*%
X17650000Y2850000D02*
X17650000Y10150000D01*
X13350000Y2850000D02*
X17650000Y2850000D01*
X13350000Y2850000D02*
X13350000Y10150000D01*
%TO.C,C7*%
X-6359420Y-3090000D02*
X-6640580Y-3090000D01*
X-6359420Y-4110000D02*
X-6640580Y-4110000D01*
%TO.C,C10*%
X-9640580Y-4110000D02*
X-9359420Y-4110000D01*
X-9640580Y-3090000D02*
X-9359420Y-3090000D01*
%TO.C,C14*%
X21940580Y4990000D02*
X21659420Y4990000D01*
X21940580Y6010000D02*
X21659420Y6010000D01*
%TO.C,C16*%
X3740580Y4990000D02*
X3459420Y4990000D01*
X3740580Y6010000D02*
X3459420Y6010000D01*
%TO.C,C18*%
X21940580Y4510000D02*
X21659420Y4510000D01*
X21940580Y3490000D02*
X21659420Y3490000D01*
%TO.C,C19*%
X3740580Y3490000D02*
X3459420Y3490000D01*
X3740580Y4510000D02*
X3459420Y4510000D01*
%TO.C,D2*%
X4565000Y25185000D02*
X4565000Y22900000D01*
X6035000Y25185000D02*
X4565000Y25185000D01*
X6035000Y22900000D02*
X6035000Y25185000D01*
%TO.C,D3*%
X565000Y25185000D02*
X565000Y22900000D01*
X2035000Y25185000D02*
X565000Y25185000D01*
X2035000Y22900000D02*
X2035000Y25185000D01*
%TO.C,D4*%
X-1965000Y22900000D02*
X-1965000Y25185000D01*
X-1965000Y25185000D02*
X-3435000Y25185000D01*
X-3435000Y25185000D02*
X-3435000Y22900000D01*
%TO.C,D5*%
X-20875000Y-6950000D02*
X-21125000Y-6950000D01*
X-21125000Y-6950000D02*
X-21125000Y-6700000D01*
X-21125000Y-6700000D02*
X-20875000Y-6700000D01*
X-20875000Y-6700000D02*
X-20875000Y-6950000D01*
X-20875000Y-7325000D02*
X-20875000Y-7575000D01*
X-20875000Y-7575000D02*
X-20625000Y-7575000D01*
X-20625000Y-7575000D02*
X-20625000Y-7325000D01*
X-20625000Y-7325000D02*
X-20875000Y-7325000D01*
X-21125000Y-7575000D02*
X-21125000Y-7325000D01*
X-21125000Y-7325000D02*
X-21375000Y-7325000D01*
X-21375000Y-7325000D02*
X-21375000Y-7575000D01*
X-21375000Y-7575000D02*
X-21125000Y-7575000D01*
%TO.C,D6*%
X-24515000Y-10485000D02*
X-24515000Y-8200000D01*
X-25985000Y-10485000D02*
X-24515000Y-10485000D01*
X-25985000Y-8200000D02*
X-25985000Y-10485000D01*
%TO.C,D7*%
X-31235000Y-8200000D02*
X-31235000Y-10485000D01*
X-31235000Y-10485000D02*
X-29765000Y-10485000D01*
X-29765000Y-10485000D02*
X-29765000Y-8200000D01*
%TO.C,J1*%
X29050000Y22870000D02*
X23550000Y22870000D01*
X23550000Y22870000D02*
X23550000Y16870000D01*
X23550000Y16870000D02*
X29050000Y16870000D01*
X29050000Y16870000D02*
X29050000Y22870000D01*
X25550000Y22870000D02*
X25550000Y21870000D01*
X25550000Y21870000D02*
X23550000Y21870000D01*
X29050000Y21870000D02*
X27050000Y21870000D01*
X27050000Y21870000D02*
X27050000Y22870000D01*
X25550000Y21870000D02*
X27050000Y21870000D01*
X22550000Y21120000D02*
X22050000Y21120000D01*
X22550000Y21120000D02*
X23050000Y21120000D01*
X22550000Y21120000D02*
X22550000Y21620000D01*
X22550000Y21120000D02*
X22550000Y20620000D01*
%TO.C,J2*%
X-28600000Y22750000D02*
X-28600000Y17450000D01*
X-20600000Y22750000D02*
X-28600000Y22750000D01*
X-20600000Y17450000D02*
X-20600000Y22750000D01*
X-27350000Y18554169D02*
X-27350000Y17450004D01*
X-21850000Y18554169D02*
X-27350000Y18554169D01*
X-27350000Y17450004D02*
X-28600000Y17450004D01*
X-20600000Y17450004D02*
X-21850000Y17450004D01*
X-21850000Y17450004D02*
X-21850000Y18554169D01*
%TO.C,J3*%
X16040000Y-18090000D02*
X16040000Y-18680000D01*
X16040000Y-18680000D02*
X14060000Y-18680000D01*
X14060000Y-18680000D02*
X14060000Y-18330000D01*
X14060000Y-18330000D02*
X13290000Y-18330000D01*
X13290000Y-18330000D02*
X13290000Y-20380000D01*
X13290000Y-22200000D02*
X13290000Y-22500000D01*
X13290000Y-22500000D02*
X14090000Y-22500000D01*
X14090000Y-22500000D02*
X14090000Y-23800000D01*
X14090000Y-23800000D02*
X21910000Y-23800000D01*
X21910000Y-23800000D02*
X21910000Y-22500000D01*
X21910000Y-22500000D02*
X22710000Y-22500000D01*
X22710000Y-22500000D02*
X22710000Y-22200000D01*
X22710000Y-20380000D02*
X22710000Y-18330000D01*
X22710000Y-18330000D02*
X21940000Y-18330000D01*
X21940000Y-18330000D02*
X21940000Y-18680000D01*
X21940000Y-18680000D02*
X19960000Y-18680000D01*
%TO.C,J6*%
X9850000Y-5000000D02*
X15150000Y-5000000D01*
X15150000Y-5000000D02*
X15150000Y1000000D01*
X15150000Y1000000D02*
X9850000Y1000000D01*
X9850004Y-5000000D02*
X9850004Y-3500000D01*
X9850004Y-3500000D02*
X10954169Y-3500000D01*
X10954169Y-3500000D02*
X10954169Y-500000D01*
X10954169Y-500000D02*
X9850004Y-500000D01*
X9850004Y-500000D02*
X9850004Y1000000D01*
%TO.C,R1*%
X16637258Y19522500D02*
X16162742Y19522500D01*
X16637258Y18477500D02*
X16162742Y18477500D01*
%TO.C,R2*%
X4565000Y20550000D02*
X4565000Y18265000D01*
X4565000Y18265000D02*
X6035000Y18265000D01*
X6035000Y18265000D02*
X6035000Y20550000D01*
%TO.C,R3*%
X1822500Y19462742D02*
X1822500Y19937258D01*
X777500Y19462742D02*
X777500Y19937258D01*
%TO.C,R4*%
X-3222500Y19462742D02*
X-3222500Y19937258D01*
X-2177500Y19462742D02*
X-2177500Y19937258D01*
%TO.C,R8*%
X24272500Y-9987258D02*
X24272500Y-9512742D01*
X23227500Y-9987258D02*
X23227500Y-9512742D01*
%TO.C,R9*%
X3522500Y-9987258D02*
X3522500Y-9512742D01*
X2477500Y-9987258D02*
X2477500Y-9512742D01*
%TO.C,R10*%
X3977500Y-9987258D02*
X3977500Y-9512742D01*
X5022500Y-9987258D02*
X5022500Y-9512742D01*
%TO.C,R11*%
X-25772500Y-5762742D02*
X-25772500Y-6237258D01*
X-24727500Y-5762742D02*
X-24727500Y-6237258D01*
%TO.C,R12*%
X-29977500Y-5762742D02*
X-29977500Y-6237258D01*
X-31022500Y-5762742D02*
X-31022500Y-6237258D01*
%TO.C,R13*%
X25772500Y-9987258D02*
X25772500Y-9512742D01*
X24727500Y-9987258D02*
X24727500Y-9512742D01*
%TO.C,R14*%
X6522500Y-8512742D02*
X6522500Y-8987258D01*
X5477500Y-8512742D02*
X5477500Y-8987258D01*
%TO.C,R15*%
X28772500Y-8512742D02*
X28772500Y-8987258D01*
X27727500Y-8512742D02*
X27727500Y-8987258D01*
%TO.C,R16*%
X8022500Y-8512742D02*
X8022500Y-8987258D01*
X6977500Y-8512742D02*
X6977500Y-8987258D01*
%TO.C,R17*%
X-14772500Y-8512742D02*
X-14772500Y-8987258D01*
X-13727500Y-8512742D02*
X-13727500Y-8987258D01*
%TO.C,R18*%
X-15477500Y-9362742D02*
X-15477500Y-9837258D01*
X-16522500Y-9362742D02*
X-16522500Y-9837258D01*
%TO.C,R19*%
X-17227500Y-10162742D02*
X-17227500Y-10637258D01*
X-18272500Y-10162742D02*
X-18272500Y-10637258D01*
%TO.C,R20*%
X27272500Y-8512742D02*
X27272500Y-8987258D01*
X26227500Y-8512742D02*
X26227500Y-8987258D01*
%TO.C,SW2*%
X-11600000Y-7650000D02*
X-4400000Y-7650000D01*
X-4400000Y-7650000D02*
X-4400000Y-14850000D01*
X-4400000Y-14850000D02*
X-11600000Y-14850000D01*
X-11600000Y-14850000D02*
X-11600000Y-7650000D01*
X-5000000Y-11250000D02*
G75*
G03*
X-5000000Y-11250000I-600000J0D01*
G01*
D11*
%TO.C,SW3*%
G36*
X5900000Y-14467500D02*
G01*
X5900000Y-15367500D01*
X6800000Y-14467500D01*
X5900000Y-14467500D01*
G37*
X5900000Y-14467500D02*
X5900000Y-15367500D01*
X6800000Y-14467500D01*
X5900000Y-14467500D01*
G36*
X5900000Y-19132500D02*
G01*
X6800000Y-19132500D01*
X5900000Y-18232500D01*
X5900000Y-19132500D01*
G37*
X5900000Y-19132500D02*
X6800000Y-19132500D01*
X5900000Y-18232500D01*
X5900000Y-19132500D01*
G36*
X8800000Y-19132500D02*
G01*
X8800000Y-18232500D01*
X7900000Y-19132500D01*
X8800000Y-19132500D01*
G37*
X8800000Y-19132500D02*
X8800000Y-18232500D01*
X7900000Y-19132500D01*
X8800000Y-19132500D01*
G36*
X8800000Y-14467500D02*
G01*
X7900000Y-14467500D01*
X8800000Y-15367500D01*
X8800000Y-14467500D01*
G37*
X8800000Y-14467500D02*
X7900000Y-14467500D01*
X8800000Y-15367500D01*
X8800000Y-14467500D01*
X5900000Y-14467500D02*
X8800000Y-14467500D01*
X5900000Y-19132500D02*
X5900000Y-14467500D01*
X8800000Y-19132500D02*
X5900000Y-19132500D01*
X8800000Y-14467500D02*
X8800000Y-19132500D01*
X6500000Y-17132500D02*
X6500000Y-16467500D01*
X8300000Y-16467500D02*
X8300000Y-17132500D01*
X8300000Y-17132500D02*
G75*
G02*
X6500000Y-17132500I-900000J0D01*
G01*
X6500000Y-16467500D02*
G75*
G02*
X8300000Y-16467500I900000J0D01*
G01*
%TO.C,SW4*%
X4500000Y-16467500D02*
X4500000Y-17132500D01*
X2700000Y-17132500D02*
X2700000Y-16467500D01*
X5000000Y-14467500D02*
X5000000Y-19132500D01*
X5000000Y-19132500D02*
X2100000Y-19132500D01*
X2100000Y-19132500D02*
X2100000Y-14467500D01*
X2100000Y-14467500D02*
X5000000Y-14467500D01*
G36*
X5000000Y-14467500D02*
G01*
X4100000Y-14467500D01*
X5000000Y-15367500D01*
X5000000Y-14467500D01*
G37*
X5000000Y-14467500D02*
X4100000Y-14467500D01*
X5000000Y-15367500D01*
X5000000Y-14467500D01*
G36*
X5000000Y-19132500D02*
G01*
X5000000Y-18232500D01*
X4100000Y-19132500D01*
X5000000Y-19132500D01*
G37*
X5000000Y-19132500D02*
X5000000Y-18232500D01*
X4100000Y-19132500D01*
X5000000Y-19132500D01*
G36*
X2100000Y-19132500D02*
G01*
X3000000Y-19132500D01*
X2100000Y-18232500D01*
X2100000Y-19132500D01*
G37*
X2100000Y-19132500D02*
X3000000Y-19132500D01*
X2100000Y-18232500D01*
X2100000Y-19132500D01*
G36*
X2100000Y-14467500D02*
G01*
X2100000Y-15367500D01*
X3000000Y-14467500D01*
X2100000Y-14467500D01*
G37*
X2100000Y-14467500D02*
X2100000Y-15367500D01*
X3000000Y-14467500D01*
X2100000Y-14467500D01*
X2700000Y-16467500D02*
G75*
G02*
X4500000Y-16467500I900000J0D01*
G01*
X4500000Y-17132500D02*
G75*
G02*
X2700000Y-17132500I-900000J0D01*
G01*
%TO.C,SW5*%
G36*
X-1700000Y-14417500D02*
G01*
X-1700000Y-15317500D01*
X-800000Y-14417500D01*
X-1700000Y-14417500D01*
G37*
X-1700000Y-14417500D02*
X-1700000Y-15317500D01*
X-800000Y-14417500D01*
X-1700000Y-14417500D01*
G36*
X-1700000Y-19082500D02*
G01*
X-800000Y-19082500D01*
X-1700000Y-18182500D01*
X-1700000Y-19082500D01*
G37*
X-1700000Y-19082500D02*
X-800000Y-19082500D01*
X-1700000Y-18182500D01*
X-1700000Y-19082500D01*
G36*
X1200000Y-19082500D02*
G01*
X1200000Y-18182500D01*
X300000Y-19082500D01*
X1200000Y-19082500D01*
G37*
X1200000Y-19082500D02*
X1200000Y-18182500D01*
X300000Y-19082500D01*
X1200000Y-19082500D01*
G36*
X1200000Y-14417500D02*
G01*
X300000Y-14417500D01*
X1200000Y-15317500D01*
X1200000Y-14417500D01*
G37*
X1200000Y-14417500D02*
X300000Y-14417500D01*
X1200000Y-15317500D01*
X1200000Y-14417500D01*
X-1700000Y-14417500D02*
X1200000Y-14417500D01*
X-1700000Y-19082500D02*
X-1700000Y-14417500D01*
X1200000Y-19082500D02*
X-1700000Y-19082500D01*
X1200000Y-14417500D02*
X1200000Y-19082500D01*
X-1100000Y-17082500D02*
X-1100000Y-16417500D01*
X700000Y-16417500D02*
X700000Y-17082500D01*
X700000Y-17082500D02*
G75*
G02*
X-1100000Y-17082500I-900000J0D01*
G01*
X-1100000Y-16417500D02*
G75*
G02*
X700000Y-16417500I900000J0D01*
G01*
D10*
%TO.C,U2*%
X-5760000Y14560000D02*
X-5760000Y13300000D01*
X-5760000Y7740000D02*
X-5760000Y9000000D01*
X-2000000Y14560000D02*
X-5760000Y14560000D01*
X250000Y7740000D02*
X-5760000Y7740000D01*
%TO.C,U3*%
X22150000Y-3530000D02*
G75*
G03*
X22150000Y-3530000I-450000J0D01*
G01*
%TO.C,U4*%
X3900000Y-3530000D02*
G75*
G03*
X3900000Y-3530000I-450000J0D01*
G01*
%TO.C,J4*%
X-31650000Y-21166666D02*
X-31650000Y-24966670D01*
X-19950000Y-21166666D02*
X-31650000Y-21166666D01*
X-19950000Y-24966670D02*
X-19950000Y-21166666D01*
%TO.C,J5*%
D12*
X30516666Y2447619D02*
X30516666Y1733333D01*
X30469047Y1590476D01*
X30373809Y1495238D01*
X30230952Y1447619D01*
X30135714Y1447619D01*
X31469047Y2447619D02*
X30992857Y2447619D01*
X30945238Y1971428D01*
X30992857Y2019047D01*
X31088095Y2066666D01*
X31326190Y2066666D01*
X31421428Y2019047D01*
X31469047Y1971428D01*
X31516666Y1876190D01*
X31516666Y1638095D01*
X31469047Y1542857D01*
X31421428Y1495238D01*
X31326190Y1447619D01*
X31088095Y1447619D01*
X30992857Y1495238D01*
X30945238Y1542857D01*
%TO.C,SW1*%
X22016666Y24245238D02*
X22159523Y24197619D01*
X22397619Y24197619D01*
X22492857Y24245238D01*
X22540476Y24292857D01*
X22588095Y24388095D01*
X22588095Y24483333D01*
X22540476Y24578571D01*
X22492857Y24626190D01*
X22397619Y24673809D01*
X22207142Y24721428D01*
X22111904Y24769047D01*
X22064285Y24816666D01*
X22016666Y24911904D01*
X22016666Y25007142D01*
X22064285Y25102380D01*
X22111904Y25150000D01*
X22207142Y25197619D01*
X22445238Y25197619D01*
X22588095Y25150000D01*
X22921428Y25197619D02*
X23159523Y24197619D01*
X23350000Y24911904D01*
X23540476Y24197619D01*
X23778571Y25197619D01*
X24683333Y24197619D02*
X24111904Y24197619D01*
X24397619Y24197619D02*
X24397619Y25197619D01*
X24302380Y25054761D01*
X24207142Y24959523D01*
X24111904Y24911904D01*
%TO.C,Q1*%
X19754761Y14602380D02*
X19659523Y14650000D01*
X19564285Y14745238D01*
X19421428Y14888095D01*
X19326190Y14935714D01*
X19230952Y14935714D01*
X19278571Y14697619D02*
X19183333Y14745238D01*
X19088095Y14840476D01*
X19040476Y15030952D01*
X19040476Y15364285D01*
X19088095Y15554761D01*
X19183333Y15650000D01*
X19278571Y15697619D01*
X19469047Y15697619D01*
X19564285Y15650000D01*
X19659523Y15554761D01*
X19707142Y15364285D01*
X19707142Y15030952D01*
X19659523Y14840476D01*
X19564285Y14745238D01*
X19469047Y14697619D01*
X19278571Y14697619D01*
X20659523Y14697619D02*
X20088095Y14697619D01*
X20373809Y14697619D02*
X20373809Y15697619D01*
X20278571Y15554761D01*
X20183333Y15459523D01*
X20088095Y15411904D01*
%TO.C,C15*%
X28107142Y15542857D02*
X28059523Y15495238D01*
X27916666Y15447619D01*
X27821428Y15447619D01*
X27678571Y15495238D01*
X27583333Y15590476D01*
X27535714Y15685714D01*
X27488095Y15876190D01*
X27488095Y16019047D01*
X27535714Y16209523D01*
X27583333Y16304761D01*
X27678571Y16400000D01*
X27821428Y16447619D01*
X27916666Y16447619D01*
X28059523Y16400000D01*
X28107142Y16352380D01*
X29059523Y15447619D02*
X28488095Y15447619D01*
X28773809Y15447619D02*
X28773809Y16447619D01*
X28678571Y16304761D01*
X28583333Y16209523D01*
X28488095Y16161904D01*
X29964285Y16447619D02*
X29488095Y16447619D01*
X29440476Y15971428D01*
X29488095Y16019047D01*
X29583333Y16066666D01*
X29821428Y16066666D01*
X29916666Y16019047D01*
X29964285Y15971428D01*
X30011904Y15876190D01*
X30011904Y15638095D01*
X29964285Y15542857D01*
X29916666Y15495238D01*
X29821428Y15447619D01*
X29583333Y15447619D01*
X29488095Y15495238D01*
X29440476Y15542857D01*
%TO.C,C17*%
X19082139Y5857142D02*
X19129758Y5809523D01*
X19177377Y5666666D01*
X19177377Y5571428D01*
X19129758Y5428571D01*
X19034520Y5333333D01*
X18939282Y5285714D01*
X18748806Y5238095D01*
X18605949Y5238095D01*
X18415473Y5285714D01*
X18320235Y5333333D01*
X18224997Y5428571D01*
X18177377Y5571428D01*
X18177377Y5666666D01*
X18224997Y5809523D01*
X18272616Y5857142D01*
X19177377Y6809523D02*
X19177377Y6238095D01*
X19177377Y6523809D02*
X18177377Y6523809D01*
X18320235Y6428571D01*
X18415473Y6333333D01*
X18463092Y6238095D01*
X18177377Y7142857D02*
X18177377Y7809523D01*
X19177377Y7380952D01*
%TO.C,C7*%
X-6666666Y-5387142D02*
X-6714285Y-5434761D01*
X-6857142Y-5482380D01*
X-6952380Y-5482380D01*
X-7095238Y-5434761D01*
X-7190476Y-5339523D01*
X-7238095Y-5244285D01*
X-7285714Y-5053809D01*
X-7285714Y-4910952D01*
X-7238095Y-4720476D01*
X-7190476Y-4625238D01*
X-7095238Y-4530000D01*
X-6952380Y-4482380D01*
X-6857142Y-4482380D01*
X-6714285Y-4530000D01*
X-6666666Y-4577619D01*
X-6333333Y-4482380D02*
X-5666666Y-4482380D01*
X-6095238Y-5482380D01*
%TO.C,C10*%
X-10142857Y-2527142D02*
X-10190476Y-2574761D01*
X-10333333Y-2622380D01*
X-10428571Y-2622380D01*
X-10571428Y-2574761D01*
X-10666666Y-2479523D01*
X-10714285Y-2384285D01*
X-10761904Y-2193809D01*
X-10761904Y-2050952D01*
X-10714285Y-1860476D01*
X-10666666Y-1765238D01*
X-10571428Y-1670000D01*
X-10428571Y-1622380D01*
X-10333333Y-1622380D01*
X-10190476Y-1670000D01*
X-10142857Y-1717619D01*
X-9190476Y-2622380D02*
X-9761904Y-2622380D01*
X-9476190Y-2622380D02*
X-9476190Y-1622380D01*
X-9571428Y-1765238D01*
X-9666666Y-1860476D01*
X-9761904Y-1908095D01*
X-8571428Y-1622380D02*
X-8476190Y-1622380D01*
X-8380952Y-1670000D01*
X-8333333Y-1717619D01*
X-8285714Y-1812857D01*
X-8238095Y-2003333D01*
X-8238095Y-2241428D01*
X-8285714Y-2431904D01*
X-8333333Y-2527142D01*
X-8380952Y-2574761D01*
X-8476190Y-2622380D01*
X-8571428Y-2622380D01*
X-8666666Y-2574761D01*
X-8714285Y-2527142D01*
X-8761904Y-2431904D01*
X-8809523Y-2241428D01*
X-8809523Y-2003333D01*
X-8761904Y-1812857D01*
X-8714285Y-1717619D01*
X-8666666Y-1670000D01*
X-8571428Y-1622380D01*
%TO.C,C14*%
X21157142Y6542857D02*
X21109523Y6495238D01*
X20966666Y6447619D01*
X20871428Y6447619D01*
X20728571Y6495238D01*
X20633333Y6590476D01*
X20585714Y6685714D01*
X20538095Y6876190D01*
X20538095Y7019047D01*
X20585714Y7209523D01*
X20633333Y7304761D01*
X20728571Y7400000D01*
X20871428Y7447619D01*
X20966666Y7447619D01*
X21109523Y7400000D01*
X21157142Y7352380D01*
X22109523Y6447619D02*
X21538095Y6447619D01*
X21823809Y6447619D02*
X21823809Y7447619D01*
X21728571Y7304761D01*
X21633333Y7209523D01*
X21538095Y7161904D01*
X22966666Y7114285D02*
X22966666Y6447619D01*
X22728571Y7495238D02*
X22490476Y6780952D01*
X23109523Y6780952D01*
%TO.C,C16*%
X2957142Y3712857D02*
X2909523Y3665238D01*
X2766666Y3617619D01*
X2671428Y3617619D01*
X2528571Y3665238D01*
X2433333Y3760476D01*
X2385714Y3855714D01*
X2338095Y4046190D01*
X2338095Y4189047D01*
X2385714Y4379523D01*
X2433333Y4474761D01*
X2528571Y4570000D01*
X2671428Y4617619D01*
X2766666Y4617619D01*
X2909523Y4570000D01*
X2957142Y4522380D01*
X3909523Y3617619D02*
X3338095Y3617619D01*
X3623809Y3617619D02*
X3623809Y4617619D01*
X3528571Y4474761D01*
X3433333Y4379523D01*
X3338095Y4331904D01*
X4766666Y4617619D02*
X4576190Y4617619D01*
X4480952Y4570000D01*
X4433333Y4522380D01*
X4338095Y4379523D01*
X4290476Y4189047D01*
X4290476Y3808095D01*
X4338095Y3712857D01*
X4385714Y3665238D01*
X4480952Y3617619D01*
X4671428Y3617619D01*
X4766666Y3665238D01*
X4814285Y3712857D01*
X4861904Y3808095D01*
X4861904Y4046190D01*
X4814285Y4141428D01*
X4766666Y4189047D01*
X4671428Y4236666D01*
X4480952Y4236666D01*
X4385714Y4189047D01*
X4338095Y4141428D01*
X4290476Y4046190D01*
%TO.C,C18*%
X21157142Y2212857D02*
X21109523Y2165238D01*
X20966666Y2117619D01*
X20871428Y2117619D01*
X20728571Y2165238D01*
X20633333Y2260476D01*
X20585714Y2355714D01*
X20538095Y2546190D01*
X20538095Y2689047D01*
X20585714Y2879523D01*
X20633333Y2974761D01*
X20728571Y3070000D01*
X20871428Y3117619D01*
X20966666Y3117619D01*
X21109523Y3070000D01*
X21157142Y3022380D01*
X22109523Y2117619D02*
X21538095Y2117619D01*
X21823809Y2117619D02*
X21823809Y3117619D01*
X21728571Y2974761D01*
X21633333Y2879523D01*
X21538095Y2831904D01*
X22680952Y2689047D02*
X22585714Y2736666D01*
X22538095Y2784285D01*
X22490476Y2879523D01*
X22490476Y2927142D01*
X22538095Y3022380D01*
X22585714Y3070000D01*
X22680952Y3117619D01*
X22871428Y3117619D01*
X22966666Y3070000D01*
X23014285Y3022380D01*
X23061904Y2927142D01*
X23061904Y2879523D01*
X23014285Y2784285D01*
X22966666Y2736666D01*
X22871428Y2689047D01*
X22680952Y2689047D01*
X22585714Y2641428D01*
X22538095Y2593809D01*
X22490476Y2498571D01*
X22490476Y2308095D01*
X22538095Y2212857D01*
X22585714Y2165238D01*
X22680952Y2117619D01*
X22871428Y2117619D01*
X22966666Y2165238D01*
X23014285Y2212857D01*
X23061904Y2308095D01*
X23061904Y2498571D01*
X23014285Y2593809D01*
X22966666Y2641428D01*
X22871428Y2689047D01*
%TO.C,C19*%
X2957142Y2212857D02*
X2909523Y2165238D01*
X2766666Y2117619D01*
X2671428Y2117619D01*
X2528571Y2165238D01*
X2433333Y2260476D01*
X2385714Y2355714D01*
X2338095Y2546190D01*
X2338095Y2689047D01*
X2385714Y2879523D01*
X2433333Y2974761D01*
X2528571Y3070000D01*
X2671428Y3117619D01*
X2766666Y3117619D01*
X2909523Y3070000D01*
X2957142Y3022380D01*
X3909523Y2117619D02*
X3338095Y2117619D01*
X3623809Y2117619D02*
X3623809Y3117619D01*
X3528571Y2974761D01*
X3433333Y2879523D01*
X3338095Y2831904D01*
X4385714Y2117619D02*
X4576190Y2117619D01*
X4671428Y2165238D01*
X4719047Y2212857D01*
X4814285Y2355714D01*
X4861904Y2546190D01*
X4861904Y2927142D01*
X4814285Y3022380D01*
X4766666Y3070000D01*
X4671428Y3117619D01*
X4480952Y3117619D01*
X4385714Y3070000D01*
X4338095Y3022380D01*
X4290476Y2927142D01*
X4290476Y2689047D01*
X4338095Y2593809D01*
X4385714Y2546190D01*
X4480952Y2498571D01*
X4671428Y2498571D01*
X4766666Y2546190D01*
X4814285Y2593809D01*
X4861904Y2689047D01*
%TO.C,D2*%
X7182380Y22961904D02*
X6182380Y22961904D01*
X6182380Y23200000D01*
X6230000Y23342857D01*
X6325238Y23438095D01*
X6420476Y23485714D01*
X6610952Y23533333D01*
X6753809Y23533333D01*
X6944285Y23485714D01*
X7039523Y23438095D01*
X7134761Y23342857D01*
X7182380Y23200000D01*
X7182380Y22961904D01*
X6277619Y23914285D02*
X6230000Y23961904D01*
X6182380Y24057142D01*
X6182380Y24295238D01*
X6230000Y24390476D01*
X6277619Y24438095D01*
X6372857Y24485714D01*
X6468095Y24485714D01*
X6610952Y24438095D01*
X7182380Y23866666D01*
X7182380Y24485714D01*
%TO.C,D3*%
X3182380Y22961904D02*
X2182380Y22961904D01*
X2182380Y23200000D01*
X2230000Y23342857D01*
X2325238Y23438095D01*
X2420476Y23485714D01*
X2610952Y23533333D01*
X2753809Y23533333D01*
X2944285Y23485714D01*
X3039523Y23438095D01*
X3134761Y23342857D01*
X3182380Y23200000D01*
X3182380Y22961904D01*
X2182380Y23866666D02*
X2182380Y24485714D01*
X2563333Y24152380D01*
X2563333Y24295238D01*
X2610952Y24390476D01*
X2658571Y24438095D01*
X2753809Y24485714D01*
X2991904Y24485714D01*
X3087142Y24438095D01*
X3134761Y24390476D01*
X3182380Y24295238D01*
X3182380Y24009523D01*
X3134761Y23914285D01*
X3087142Y23866666D01*
%TO.C,D4*%
X-817619Y22961904D02*
X-1817619Y22961904D01*
X-1817619Y23200000D01*
X-1770000Y23342857D01*
X-1674761Y23438095D01*
X-1579523Y23485714D01*
X-1389047Y23533333D01*
X-1246190Y23533333D01*
X-1055714Y23485714D01*
X-960476Y23438095D01*
X-865238Y23342857D01*
X-817619Y23200000D01*
X-817619Y22961904D01*
X-1484285Y24390476D02*
X-817619Y24390476D01*
X-1865238Y24152380D02*
X-1150952Y23914285D01*
X-1150952Y24533333D01*
%TO.C,D5*%
X-21738095Y-6027380D02*
X-21738095Y-5027380D01*
X-21500000Y-5027380D01*
X-21357142Y-5075000D01*
X-21261904Y-5170238D01*
X-21214285Y-5265476D01*
X-21166666Y-5455952D01*
X-21166666Y-5598809D01*
X-21214285Y-5789285D01*
X-21261904Y-5884523D01*
X-21357142Y-5979761D01*
X-21500000Y-6027380D01*
X-21738095Y-6027380D01*
X-20261904Y-5027380D02*
X-20738095Y-5027380D01*
X-20785714Y-5503571D01*
X-20738095Y-5455952D01*
X-20642857Y-5408333D01*
X-20404761Y-5408333D01*
X-20309523Y-5455952D01*
X-20261904Y-5503571D01*
X-20214285Y-5598809D01*
X-20214285Y-5836904D01*
X-20261904Y-5932142D01*
X-20309523Y-5979761D01*
X-20404761Y-6027380D01*
X-20642857Y-6027380D01*
X-20738095Y-5979761D01*
X-20785714Y-5932142D01*
%TO.C,D6*%
X-26227619Y-9738095D02*
X-27227619Y-9738095D01*
X-27227619Y-9500000D01*
X-27180000Y-9357142D01*
X-27084761Y-9261904D01*
X-26989523Y-9214285D01*
X-26799047Y-9166666D01*
X-26656190Y-9166666D01*
X-26465714Y-9214285D01*
X-26370476Y-9261904D01*
X-26275238Y-9357142D01*
X-26227619Y-9500000D01*
X-26227619Y-9738095D01*
X-27227619Y-8309523D02*
X-27227619Y-8500000D01*
X-27180000Y-8595238D01*
X-27132380Y-8642857D01*
X-26989523Y-8738095D01*
X-26799047Y-8785714D01*
X-26418095Y-8785714D01*
X-26322857Y-8738095D01*
X-26275238Y-8690476D01*
X-26227619Y-8595238D01*
X-26227619Y-8404761D01*
X-26275238Y-8309523D01*
X-26322857Y-8261904D01*
X-26418095Y-8214285D01*
X-26656190Y-8214285D01*
X-26751428Y-8261904D01*
X-26799047Y-8309523D01*
X-26846666Y-8404761D01*
X-26846666Y-8595238D01*
X-26799047Y-8690476D01*
X-26751428Y-8738095D01*
X-26656190Y-8785714D01*
%TO.C,D7*%
X-31477619Y-9738095D02*
X-32477619Y-9738095D01*
X-32477619Y-9500000D01*
X-32430000Y-9357142D01*
X-32334761Y-9261904D01*
X-32239523Y-9214285D01*
X-32049047Y-9166666D01*
X-31906190Y-9166666D01*
X-31715714Y-9214285D01*
X-31620476Y-9261904D01*
X-31525238Y-9357142D01*
X-31477619Y-9500000D01*
X-31477619Y-9738095D01*
X-32477619Y-8833333D02*
X-32477619Y-8166666D01*
X-31477619Y-8595238D01*
%TO.C,J1*%
X25966666Y24347619D02*
X25966666Y23633333D01*
X25919047Y23490476D01*
X25823809Y23395238D01*
X25680952Y23347619D01*
X25585714Y23347619D01*
X26966666Y23347619D02*
X26395238Y23347619D01*
X26680952Y23347619D02*
X26680952Y24347619D01*
X26585714Y24204761D01*
X26490476Y24109523D01*
X26395238Y24061904D01*
%TO.C,J2*%
X-24933333Y24180947D02*
X-24933333Y23466661D01*
X-24980952Y23323804D01*
X-25076190Y23228566D01*
X-25219047Y23180947D01*
X-25314285Y23180947D01*
X-24504761Y24085708D02*
X-24457142Y24133328D01*
X-24361904Y24180947D01*
X-24123809Y24180947D01*
X-24028571Y24133328D01*
X-23980952Y24085708D01*
X-23933333Y23990470D01*
X-23933333Y23895232D01*
X-23980952Y23752375D01*
X-24552380Y23180947D01*
X-23933333Y23180947D01*
%TO.C,J3*%
X17666666Y-16342380D02*
X17666666Y-17056666D01*
X17619047Y-17199523D01*
X17523809Y-17294761D01*
X17380952Y-17342380D01*
X17285714Y-17342380D01*
X18047619Y-16342380D02*
X18666666Y-16342380D01*
X18333333Y-16723333D01*
X18476190Y-16723333D01*
X18571428Y-16770952D01*
X18619047Y-16818571D01*
X18666666Y-16913809D01*
X18666666Y-17151904D01*
X18619047Y-17247142D01*
X18571428Y-17294761D01*
X18476190Y-17342380D01*
X18190476Y-17342380D01*
X18095238Y-17294761D01*
X18047619Y-17247142D01*
%TO.C,J6*%
X12266666Y2447619D02*
X12266666Y1733333D01*
X12219047Y1590476D01*
X12123809Y1495238D01*
X11980952Y1447619D01*
X11885714Y1447619D01*
X13171428Y2447619D02*
X12980952Y2447619D01*
X12885714Y2400000D01*
X12838095Y2352380D01*
X12742857Y2209523D01*
X12695238Y2019047D01*
X12695238Y1638095D01*
X12742857Y1542857D01*
X12790476Y1495238D01*
X12885714Y1447619D01*
X13076190Y1447619D01*
X13171428Y1495238D01*
X13219047Y1542857D01*
X13266666Y1638095D01*
X13266666Y1876190D01*
X13219047Y1971428D01*
X13171428Y2019047D01*
X13076190Y2066666D01*
X12885714Y2066666D01*
X12790476Y2019047D01*
X12742857Y1971428D01*
X12695238Y1876190D01*
%TO.C,R1*%
X13683333Y18447619D02*
X13350000Y18923809D01*
X13111904Y18447619D02*
X13111904Y19447619D01*
X13492857Y19447619D01*
X13588095Y19400000D01*
X13635714Y19352380D01*
X13683333Y19257142D01*
X13683333Y19114285D01*
X13635714Y19019047D01*
X13588095Y18971428D01*
X13492857Y18923809D01*
X13111904Y18923809D01*
X14635714Y18447619D02*
X14064285Y18447619D01*
X14350000Y18447619D02*
X14350000Y19447619D01*
X14254761Y19304761D01*
X14159523Y19209523D01*
X14064285Y19161904D01*
%TO.C,R2*%
X4322380Y19583333D02*
X3846190Y19250000D01*
X4322380Y19011904D02*
X3322380Y19011904D01*
X3322380Y19392857D01*
X3370000Y19488095D01*
X3417619Y19535714D01*
X3512857Y19583333D01*
X3655714Y19583333D01*
X3750952Y19535714D01*
X3798571Y19488095D01*
X3846190Y19392857D01*
X3846190Y19011904D01*
X3417619Y19964285D02*
X3370000Y20011904D01*
X3322380Y20107142D01*
X3322380Y20345238D01*
X3370000Y20440476D01*
X3417619Y20488095D01*
X3512857Y20535714D01*
X3608095Y20535714D01*
X3750952Y20488095D01*
X4322380Y19916666D01*
X4322380Y20535714D01*
%TO.C,R3*%
X322380Y19533333D02*
X-153809Y19200000D01*
X322380Y18961904D02*
X-677619Y18961904D01*
X-677619Y19342857D01*
X-630000Y19438095D01*
X-582380Y19485714D01*
X-487142Y19533333D01*
X-344285Y19533333D01*
X-249047Y19485714D01*
X-201428Y19438095D01*
X-153809Y19342857D01*
X-153809Y18961904D01*
X-677619Y19866666D02*
X-677619Y20485714D01*
X-296666Y20152380D01*
X-296666Y20295238D01*
X-249047Y20390476D01*
X-201428Y20438095D01*
X-106190Y20485714D01*
X131904Y20485714D01*
X227142Y20438095D01*
X274761Y20390476D01*
X322380Y20295238D01*
X322380Y20009523D01*
X274761Y19914285D01*
X227142Y19866666D01*
%TO.C,R4*%
X-3677619Y19533333D02*
X-4153809Y19200000D01*
X-3677619Y18961904D02*
X-4677619Y18961904D01*
X-4677619Y19342857D01*
X-4630000Y19438095D01*
X-4582380Y19485714D01*
X-4487142Y19533333D01*
X-4344285Y19533333D01*
X-4249047Y19485714D01*
X-4201428Y19438095D01*
X-4153809Y19342857D01*
X-4153809Y18961904D01*
X-4344285Y20390476D02*
X-3677619Y20390476D01*
X-4725238Y20152380D02*
X-4010952Y19914285D01*
X-4010952Y20533333D01*
%TO.C,R8*%
X22772380Y-9916666D02*
X22296190Y-10250000D01*
X22772380Y-10488095D02*
X21772380Y-10488095D01*
X21772380Y-10107142D01*
X21820000Y-10011904D01*
X21867619Y-9964285D01*
X21962857Y-9916666D01*
X22105714Y-9916666D01*
X22200952Y-9964285D01*
X22248571Y-10011904D01*
X22296190Y-10107142D01*
X22296190Y-10488095D01*
X22200952Y-9345238D02*
X22153333Y-9440476D01*
X22105714Y-9488095D01*
X22010476Y-9535714D01*
X21962857Y-9535714D01*
X21867619Y-9488095D01*
X21820000Y-9440476D01*
X21772380Y-9345238D01*
X21772380Y-9154761D01*
X21820000Y-9059523D01*
X21867619Y-9011904D01*
X21962857Y-8964285D01*
X22010476Y-8964285D01*
X22105714Y-9011904D01*
X22153333Y-9059523D01*
X22200952Y-9154761D01*
X22200952Y-9345238D01*
X22248571Y-9440476D01*
X22296190Y-9488095D01*
X22391428Y-9535714D01*
X22581904Y-9535714D01*
X22677142Y-9488095D01*
X22724761Y-9440476D01*
X22772380Y-9345238D01*
X22772380Y-9154761D01*
X22724761Y-9059523D01*
X22677142Y-9011904D01*
X22581904Y-8964285D01*
X22391428Y-8964285D01*
X22296190Y-9011904D01*
X22248571Y-9059523D01*
X22200952Y-9154761D01*
%TO.C,R9*%
X2022380Y-9916666D02*
X1546190Y-10250000D01*
X2022380Y-10488095D02*
X1022380Y-10488095D01*
X1022380Y-10107142D01*
X1070000Y-10011904D01*
X1117619Y-9964285D01*
X1212857Y-9916666D01*
X1355714Y-9916666D01*
X1450952Y-9964285D01*
X1498571Y-10011904D01*
X1546190Y-10107142D01*
X1546190Y-10488095D01*
X2022380Y-9440476D02*
X2022380Y-9250000D01*
X1974761Y-9154761D01*
X1927142Y-9107142D01*
X1784285Y-9011904D01*
X1593809Y-8964285D01*
X1212857Y-8964285D01*
X1117619Y-9011904D01*
X1070000Y-9059523D01*
X1022380Y-9154761D01*
X1022380Y-9345238D01*
X1070000Y-9440476D01*
X1117619Y-9488095D01*
X1212857Y-9535714D01*
X1450952Y-9535714D01*
X1546190Y-9488095D01*
X1593809Y-9440476D01*
X1641428Y-9345238D01*
X1641428Y-9154761D01*
X1593809Y-9059523D01*
X1546190Y-9011904D01*
X1450952Y-8964285D01*
%TO.C,R10*%
X5052380Y-13242857D02*
X4576190Y-13576190D01*
X5052380Y-13814285D02*
X4052380Y-13814285D01*
X4052380Y-13433333D01*
X4100000Y-13338095D01*
X4147619Y-13290476D01*
X4242857Y-13242857D01*
X4385714Y-13242857D01*
X4480952Y-13290476D01*
X4528571Y-13338095D01*
X4576190Y-13433333D01*
X4576190Y-13814285D01*
X5052380Y-12290476D02*
X5052380Y-12861904D01*
X5052380Y-12576190D02*
X4052380Y-12576190D01*
X4195238Y-12671428D01*
X4290476Y-12766666D01*
X4338095Y-12861904D01*
X4052380Y-11671428D02*
X4052380Y-11576190D01*
X4100000Y-11480952D01*
X4147619Y-11433333D01*
X4242857Y-11385714D01*
X4433333Y-11338095D01*
X4671428Y-11338095D01*
X4861904Y-11385714D01*
X4957142Y-11433333D01*
X5004761Y-11480952D01*
X5052380Y-11576190D01*
X5052380Y-11671428D01*
X5004761Y-11766666D01*
X4957142Y-11814285D01*
X4861904Y-11861904D01*
X4671428Y-11909523D01*
X4433333Y-11909523D01*
X4242857Y-11861904D01*
X4147619Y-11814285D01*
X4100000Y-11766666D01*
X4052380Y-11671428D01*
%TO.C,R11*%
X-26197619Y-6642857D02*
X-26673809Y-6976190D01*
X-26197619Y-7214285D02*
X-27197619Y-7214285D01*
X-27197619Y-6833333D01*
X-27150000Y-6738095D01*
X-27102380Y-6690476D01*
X-27007142Y-6642857D01*
X-26864285Y-6642857D01*
X-26769047Y-6690476D01*
X-26721428Y-6738095D01*
X-26673809Y-6833333D01*
X-26673809Y-7214285D01*
X-26197619Y-5690476D02*
X-26197619Y-6261904D01*
X-26197619Y-5976190D02*
X-27197619Y-5976190D01*
X-27054761Y-6071428D01*
X-26959523Y-6166666D01*
X-26911904Y-6261904D01*
X-26197619Y-4738095D02*
X-26197619Y-5309523D01*
X-26197619Y-5023809D02*
X-27197619Y-5023809D01*
X-27054761Y-5119047D01*
X-26959523Y-5214285D01*
X-26911904Y-5309523D01*
%TO.C,R12*%
X-31447619Y-6642857D02*
X-31923809Y-6976190D01*
X-31447619Y-7214285D02*
X-32447619Y-7214285D01*
X-32447619Y-6833333D01*
X-32400000Y-6738095D01*
X-32352380Y-6690476D01*
X-32257142Y-6642857D01*
X-32114285Y-6642857D01*
X-32019047Y-6690476D01*
X-31971428Y-6738095D01*
X-31923809Y-6833333D01*
X-31923809Y-7214285D01*
X-31447619Y-5690476D02*
X-31447619Y-6261904D01*
X-31447619Y-5976190D02*
X-32447619Y-5976190D01*
X-32304761Y-6071428D01*
X-32209523Y-6166666D01*
X-32161904Y-6261904D01*
X-32352380Y-5309523D02*
X-32400000Y-5261904D01*
X-32447619Y-5166666D01*
X-32447619Y-4928571D01*
X-32400000Y-4833333D01*
X-32352380Y-4785714D01*
X-32257142Y-4738095D01*
X-32161904Y-4738095D01*
X-32019047Y-4785714D01*
X-31447619Y-5357142D01*
X-31447619Y-4738095D01*
%TO.C,R13*%
X25802380Y-13492857D02*
X25326190Y-13826190D01*
X25802380Y-14064285D02*
X24802380Y-14064285D01*
X24802380Y-13683333D01*
X24850000Y-13588095D01*
X24897619Y-13540476D01*
X24992857Y-13492857D01*
X25135714Y-13492857D01*
X25230952Y-13540476D01*
X25278571Y-13588095D01*
X25326190Y-13683333D01*
X25326190Y-14064285D01*
X25802380Y-12540476D02*
X25802380Y-13111904D01*
X25802380Y-12826190D02*
X24802380Y-12826190D01*
X24945238Y-12921428D01*
X25040476Y-13016666D01*
X25088095Y-13111904D01*
X24802380Y-12207142D02*
X24802380Y-11588095D01*
X25183333Y-11921428D01*
X25183333Y-11778571D01*
X25230952Y-11683333D01*
X25278571Y-11635714D01*
X25373809Y-11588095D01*
X25611904Y-11588095D01*
X25707142Y-11635714D01*
X25754761Y-11683333D01*
X25802380Y-11778571D01*
X25802380Y-12064285D01*
X25754761Y-12159523D01*
X25707142Y-12207142D01*
%TO.C,R14*%
X6552380Y-12242857D02*
X6076190Y-12576190D01*
X6552380Y-12814285D02*
X5552380Y-12814285D01*
X5552380Y-12433333D01*
X5600000Y-12338095D01*
X5647619Y-12290476D01*
X5742857Y-12242857D01*
X5885714Y-12242857D01*
X5980952Y-12290476D01*
X6028571Y-12338095D01*
X6076190Y-12433333D01*
X6076190Y-12814285D01*
X6552380Y-11290476D02*
X6552380Y-11861904D01*
X6552380Y-11576190D02*
X5552380Y-11576190D01*
X5695238Y-11671428D01*
X5790476Y-11766666D01*
X5838095Y-11861904D01*
X5885714Y-10433333D02*
X6552380Y-10433333D01*
X5504761Y-10671428D02*
X6219047Y-10909523D01*
X6219047Y-10290476D01*
%TO.C,R15*%
X30132380Y-9392857D02*
X29656190Y-9726190D01*
X30132380Y-9964285D02*
X29132380Y-9964285D01*
X29132380Y-9583333D01*
X29180000Y-9488095D01*
X29227619Y-9440476D01*
X29322857Y-9392857D01*
X29465714Y-9392857D01*
X29560952Y-9440476D01*
X29608571Y-9488095D01*
X29656190Y-9583333D01*
X29656190Y-9964285D01*
X30132380Y-8440476D02*
X30132380Y-9011904D01*
X30132380Y-8726190D02*
X29132380Y-8726190D01*
X29275238Y-8821428D01*
X29370476Y-8916666D01*
X29418095Y-9011904D01*
X29132380Y-7535714D02*
X29132380Y-8011904D01*
X29608571Y-8059523D01*
X29560952Y-8011904D01*
X29513333Y-7916666D01*
X29513333Y-7678571D01*
X29560952Y-7583333D01*
X29608571Y-7535714D01*
X29703809Y-7488095D01*
X29941904Y-7488095D01*
X30037142Y-7535714D01*
X30084761Y-7583333D01*
X30132380Y-7678571D01*
X30132380Y-7916666D01*
X30084761Y-8011904D01*
X30037142Y-8059523D01*
%TO.C,R16*%
X9382380Y-9392857D02*
X8906190Y-9726190D01*
X9382380Y-9964285D02*
X8382380Y-9964285D01*
X8382380Y-9583333D01*
X8430000Y-9488095D01*
X8477619Y-9440476D01*
X8572857Y-9392857D01*
X8715714Y-9392857D01*
X8810952Y-9440476D01*
X8858571Y-9488095D01*
X8906190Y-9583333D01*
X8906190Y-9964285D01*
X9382380Y-8440476D02*
X9382380Y-9011904D01*
X9382380Y-8726190D02*
X8382380Y-8726190D01*
X8525238Y-8821428D01*
X8620476Y-8916666D01*
X8668095Y-9011904D01*
X8382380Y-7583333D02*
X8382380Y-7773809D01*
X8430000Y-7869047D01*
X8477619Y-7916666D01*
X8620476Y-8011904D01*
X8810952Y-8059523D01*
X9191904Y-8059523D01*
X9287142Y-8011904D01*
X9334761Y-7964285D01*
X9382380Y-7869047D01*
X9382380Y-7678571D01*
X9334761Y-7583333D01*
X9287142Y-7535714D01*
X9191904Y-7488095D01*
X8953809Y-7488095D01*
X8858571Y-7535714D01*
X8810952Y-7583333D01*
X8763333Y-7678571D01*
X8763333Y-7869047D01*
X8810952Y-7964285D01*
X8858571Y-8011904D01*
X8953809Y-8059523D01*
%TO.C,R17*%
X-13697619Y-6242857D02*
X-14173809Y-6576190D01*
X-13697619Y-6814285D02*
X-14697619Y-6814285D01*
X-14697619Y-6433333D01*
X-14650000Y-6338095D01*
X-14602380Y-6290476D01*
X-14507142Y-6242857D01*
X-14364285Y-6242857D01*
X-14269047Y-6290476D01*
X-14221428Y-6338095D01*
X-14173809Y-6433333D01*
X-14173809Y-6814285D01*
X-13697619Y-5290476D02*
X-13697619Y-5861904D01*
X-13697619Y-5576190D02*
X-14697619Y-5576190D01*
X-14554761Y-5671428D01*
X-14459523Y-5766666D01*
X-14411904Y-5861904D01*
X-14697619Y-4957142D02*
X-14697619Y-4290476D01*
X-13697619Y-4719047D01*
%TO.C,R18*%
X-15447619Y-7242857D02*
X-15923809Y-7576190D01*
X-15447619Y-7814285D02*
X-16447619Y-7814285D01*
X-16447619Y-7433333D01*
X-16400000Y-7338095D01*
X-16352380Y-7290476D01*
X-16257142Y-7242857D01*
X-16114285Y-7242857D01*
X-16019047Y-7290476D01*
X-15971428Y-7338095D01*
X-15923809Y-7433333D01*
X-15923809Y-7814285D01*
X-15447619Y-6290476D02*
X-15447619Y-6861904D01*
X-15447619Y-6576190D02*
X-16447619Y-6576190D01*
X-16304761Y-6671428D01*
X-16209523Y-6766666D01*
X-16161904Y-6861904D01*
X-16019047Y-5719047D02*
X-16066666Y-5814285D01*
X-16114285Y-5861904D01*
X-16209523Y-5909523D01*
X-16257142Y-5909523D01*
X-16352380Y-5861904D01*
X-16400000Y-5814285D01*
X-16447619Y-5719047D01*
X-16447619Y-5528571D01*
X-16400000Y-5433333D01*
X-16352380Y-5385714D01*
X-16257142Y-5338095D01*
X-16209523Y-5338095D01*
X-16114285Y-5385714D01*
X-16066666Y-5433333D01*
X-16019047Y-5528571D01*
X-16019047Y-5719047D01*
X-15971428Y-5814285D01*
X-15923809Y-5861904D01*
X-15828571Y-5909523D01*
X-15638095Y-5909523D01*
X-15542857Y-5861904D01*
X-15495238Y-5814285D01*
X-15447619Y-5719047D01*
X-15447619Y-5528571D01*
X-15495238Y-5433333D01*
X-15542857Y-5385714D01*
X-15638095Y-5338095D01*
X-15828571Y-5338095D01*
X-15923809Y-5385714D01*
X-15971428Y-5433333D01*
X-16019047Y-5528571D01*
%TO.C,R19*%
X-17197619Y-7992857D02*
X-17673809Y-8326190D01*
X-17197619Y-8564285D02*
X-18197619Y-8564285D01*
X-18197619Y-8183333D01*
X-18150000Y-8088095D01*
X-18102380Y-8040476D01*
X-18007142Y-7992857D01*
X-17864285Y-7992857D01*
X-17769047Y-8040476D01*
X-17721428Y-8088095D01*
X-17673809Y-8183333D01*
X-17673809Y-8564285D01*
X-17197619Y-7040476D02*
X-17197619Y-7611904D01*
X-17197619Y-7326190D02*
X-18197619Y-7326190D01*
X-18054761Y-7421428D01*
X-17959523Y-7516666D01*
X-17911904Y-7611904D01*
X-17197619Y-6564285D02*
X-17197619Y-6373809D01*
X-17245238Y-6278571D01*
X-17292857Y-6230952D01*
X-17435714Y-6135714D01*
X-17626190Y-6088095D01*
X-18007142Y-6088095D01*
X-18102380Y-6135714D01*
X-18150000Y-6183333D01*
X-18197619Y-6278571D01*
X-18197619Y-6469047D01*
X-18150000Y-6564285D01*
X-18102380Y-6611904D01*
X-18007142Y-6659523D01*
X-17769047Y-6659523D01*
X-17673809Y-6611904D01*
X-17626190Y-6564285D01*
X-17578571Y-6469047D01*
X-17578571Y-6278571D01*
X-17626190Y-6183333D01*
X-17673809Y-6135714D01*
X-17769047Y-6088095D01*
%TO.C,R20*%
X27302380Y-12492857D02*
X26826190Y-12826190D01*
X27302380Y-13064285D02*
X26302380Y-13064285D01*
X26302380Y-12683333D01*
X26350000Y-12588095D01*
X26397619Y-12540476D01*
X26492857Y-12492857D01*
X26635714Y-12492857D01*
X26730952Y-12540476D01*
X26778571Y-12588095D01*
X26826190Y-12683333D01*
X26826190Y-13064285D01*
X26397619Y-12111904D02*
X26350000Y-12064285D01*
X26302380Y-11969047D01*
X26302380Y-11730952D01*
X26350000Y-11635714D01*
X26397619Y-11588095D01*
X26492857Y-11540476D01*
X26588095Y-11540476D01*
X26730952Y-11588095D01*
X27302380Y-12159523D01*
X27302380Y-11540476D01*
X26302380Y-10921428D02*
X26302380Y-10826190D01*
X26350000Y-10730952D01*
X26397619Y-10683333D01*
X26492857Y-10635714D01*
X26683333Y-10588095D01*
X26921428Y-10588095D01*
X27111904Y-10635714D01*
X27207142Y-10683333D01*
X27254761Y-10730952D01*
X27302380Y-10826190D01*
X27302380Y-10921428D01*
X27254761Y-11016666D01*
X27207142Y-11064285D01*
X27111904Y-11111904D01*
X26921428Y-11159523D01*
X26683333Y-11159523D01*
X26492857Y-11111904D01*
X26397619Y-11064285D01*
X26350000Y-11016666D01*
X26302380Y-10921428D01*
%TO.C,SW2*%
X-3245238Y-12583333D02*
X-3197619Y-12440476D01*
X-3197619Y-12202380D01*
X-3245238Y-12107142D01*
X-3292857Y-12059523D01*
X-3388095Y-12011904D01*
X-3483333Y-12011904D01*
X-3578571Y-12059523D01*
X-3626190Y-12107142D01*
X-3673809Y-12202380D01*
X-3721428Y-12392857D01*
X-3769047Y-12488095D01*
X-3816666Y-12535714D01*
X-3911904Y-12583333D01*
X-4007142Y-12583333D01*
X-4102380Y-12535714D01*
X-4150000Y-12488095D01*
X-4197619Y-12392857D01*
X-4197619Y-12154761D01*
X-4150000Y-12011904D01*
X-4197619Y-11678571D02*
X-3197619Y-11440476D01*
X-3911904Y-11250000D01*
X-3197619Y-11059523D01*
X-4197619Y-10821428D01*
X-4102380Y-10488095D02*
X-4150000Y-10440476D01*
X-4197619Y-10345238D01*
X-4197619Y-10107142D01*
X-4150000Y-10011904D01*
X-4102380Y-9964285D01*
X-4007142Y-9916666D01*
X-3911904Y-9916666D01*
X-3769047Y-9964285D01*
X-3197619Y-10535714D01*
X-3197619Y-9916666D01*
%TO.C,SW3*%
D10*
X9460949Y-17440000D02*
X9483806Y-17371428D01*
X9483806Y-17257142D01*
X9460949Y-17211428D01*
X9438092Y-17188571D01*
X9392378Y-17165714D01*
X9346664Y-17165714D01*
X9300949Y-17188571D01*
X9278092Y-17211428D01*
X9255235Y-17257142D01*
X9232378Y-17348571D01*
X9209521Y-17394285D01*
X9186664Y-17417142D01*
X9140949Y-17440000D01*
X9095235Y-17440000D01*
X9049521Y-17417142D01*
X9026664Y-17394285D01*
X9003806Y-17348571D01*
X9003806Y-17234285D01*
X9026664Y-17165714D01*
X9003806Y-17005714D02*
X9483806Y-16891428D01*
X9140949Y-16800000D01*
X9483806Y-16708571D01*
X9003806Y-16594285D01*
X9003806Y-16457142D02*
X9003806Y-16160000D01*
X9186664Y-16320000D01*
X9186664Y-16251428D01*
X9209521Y-16205714D01*
X9232378Y-16182857D01*
X9278092Y-16160000D01*
X9392378Y-16160000D01*
X9438092Y-16182857D01*
X9460949Y-16205714D01*
X9483806Y-16251428D01*
X9483806Y-16388571D01*
X9460949Y-16434285D01*
X9438092Y-16457142D01*
D12*
%TO.C,SW4*%
D10*
X5660949Y-17440000D02*
X5683806Y-17371428D01*
X5683806Y-17257142D01*
X5660949Y-17211428D01*
X5638092Y-17188571D01*
X5592378Y-17165714D01*
X5546664Y-17165714D01*
X5500949Y-17188571D01*
X5478092Y-17211428D01*
X5455235Y-17257142D01*
X5432378Y-17348571D01*
X5409521Y-17394285D01*
X5386664Y-17417142D01*
X5340949Y-17440000D01*
X5295235Y-17440000D01*
X5249521Y-17417142D01*
X5226664Y-17394285D01*
X5203806Y-17348571D01*
X5203806Y-17234285D01*
X5226664Y-17165714D01*
X5203806Y-17005714D02*
X5683806Y-16891428D01*
X5340949Y-16800000D01*
X5683806Y-16708571D01*
X5203806Y-16594285D01*
X5363806Y-16205714D02*
X5683806Y-16205714D01*
X5180949Y-16320000D02*
X5523806Y-16434285D01*
X5523806Y-16137142D01*
D12*
%TO.C,SW5*%
D10*
X1860949Y-17390000D02*
X1883806Y-17321428D01*
X1883806Y-17207142D01*
X1860949Y-17161428D01*
X1838092Y-17138571D01*
X1792378Y-17115714D01*
X1746664Y-17115714D01*
X1700949Y-17138571D01*
X1678092Y-17161428D01*
X1655235Y-17207142D01*
X1632378Y-17298571D01*
X1609521Y-17344285D01*
X1586664Y-17367142D01*
X1540949Y-17390000D01*
X1495235Y-17390000D01*
X1449521Y-17367142D01*
X1426664Y-17344285D01*
X1403806Y-17298571D01*
X1403806Y-17184285D01*
X1426664Y-17115714D01*
X1403806Y-16955714D02*
X1883806Y-16841428D01*
X1540949Y-16750000D01*
X1883806Y-16658571D01*
X1403806Y-16544285D01*
X1403806Y-16132857D02*
X1403806Y-16361428D01*
X1632378Y-16384285D01*
X1609521Y-16361428D01*
X1586664Y-16315714D01*
X1586664Y-16201428D01*
X1609521Y-16155714D01*
X1632378Y-16132857D01*
X1678092Y-16110000D01*
X1792378Y-16110000D01*
X1838092Y-16132857D01*
X1860949Y-16155714D01*
X1883806Y-16201428D01*
X1883806Y-16315714D01*
X1860949Y-16361428D01*
X1838092Y-16384285D01*
D12*
%TO.C,U2*%
X-4611904Y7197619D02*
X-4611904Y6388095D01*
X-4564285Y6292857D01*
X-4516666Y6245238D01*
X-4421428Y6197619D01*
X-4230952Y6197619D01*
X-4135714Y6245238D01*
X-4088095Y6292857D01*
X-4040476Y6388095D01*
X-4040476Y7197619D01*
X-3611904Y7102380D02*
X-3564285Y7150000D01*
X-3469047Y7197619D01*
X-3230952Y7197619D01*
X-3135714Y7150000D01*
X-3088095Y7102380D01*
X-3040476Y7007142D01*
X-3040476Y6911904D01*
X-3088095Y6769047D01*
X-3659523Y6197619D01*
X-3040476Y6197619D01*
%TO.C,U3*%
X26552380Y-2761904D02*
X27361904Y-2761904D01*
X27457142Y-2714285D01*
X27504761Y-2666666D01*
X27552380Y-2571428D01*
X27552380Y-2380952D01*
X27504761Y-2285714D01*
X27457142Y-2238095D01*
X27361904Y-2190476D01*
X26552380Y-2190476D01*
X26552380Y-1809523D02*
X26552380Y-1190476D01*
X26933333Y-1523809D01*
X26933333Y-1380952D01*
X26980952Y-1285714D01*
X27028571Y-1238095D01*
X27123809Y-1190476D01*
X27361904Y-1190476D01*
X27457142Y-1238095D01*
X27504761Y-1285714D01*
X27552380Y-1380952D01*
X27552380Y-1666666D01*
X27504761Y-1761904D01*
X27457142Y-1809523D01*
%TO.C,U4*%
X8302380Y-2761904D02*
X9111904Y-2761904D01*
X9207142Y-2714285D01*
X9254761Y-2666666D01*
X9302380Y-2571428D01*
X9302380Y-2380952D01*
X9254761Y-2285714D01*
X9207142Y-2238095D01*
X9111904Y-2190476D01*
X8302380Y-2190476D01*
X8635714Y-1285714D02*
X9302380Y-1285714D01*
X8254761Y-1523809D02*
X8969047Y-1761904D01*
X8969047Y-1142857D01*
%TO.C,J4*%
X-26133333Y-18719044D02*
X-26133333Y-19433330D01*
X-26180952Y-19576187D01*
X-26276190Y-19671425D01*
X-26419047Y-19719044D01*
X-26514285Y-19719044D01*
X-25228571Y-19052378D02*
X-25228571Y-19719044D01*
X-25466666Y-18671425D02*
X-25704761Y-19385711D01*
X-25085714Y-19385711D01*
%TD*%
M02*
