%TF.GenerationSoftware,KiCad,Pcbnew,(5.1.10)-1*%
%TF.CreationDate,2022-02-04T20:39:48+09:00*%
%TF.ProjectId,Power,506f7765-722e-46b6-9963-61645f706362,rev?*%
%TF.SameCoordinates,Original*%
%TF.FileFunction,Soldermask,Top*%
%TF.FilePolarity,Negative*%
%FSLAX46Y46*%
G04 Gerber Fmt 4.6, Leading zero omitted, Abs format (unit mm)*
G04 Created by KiCad (PCBNEW (5.1.10)-1) date 2022-02-04 20:39:48*
%MOMM*%
%LPD*%
G01*
G04 APERTURE LIST*
%ADD10C,1.200000*%
%ADD11R,1.000000X0.800000*%
%ADD12C,1.000000*%
%ADD13R,0.700000X1.500000*%
%ADD14R,0.580000X1.730000*%
%ADD15R,0.760000X1.500000*%
%ADD16R,1.933000X3.030000*%
%ADD17R,2.000000X3.000000*%
%ADD18R,3.000000X2.000000*%
%ADD19R,0.850000X0.500000*%
%ADD20C,1.650000*%
%ADD21R,2.000000X1.300000*%
%ADD22R,0.400000X1.000000*%
%ADD23R,1.000000X3.000000*%
%ADD24R,0.650000X1.050000*%
%ADD25R,2.000000X3.800000*%
%ADD26R,2.000000X1.500000*%
%ADD27R,3.550000X2.460000*%
%ADD28R,0.290000X0.970000*%
%ADD29R,0.300000X1.000000*%
%ADD30R,1.650000X1.300000*%
G04 APERTURE END LIST*
D10*
%TO.C,J5*%
X30750000Y-3250000D03*
X30750000Y-750000D03*
%TD*%
D11*
%TO.C,SW1*%
X22550000Y23100000D03*
X22550000Y26100000D03*
X14250000Y26100000D03*
X14250000Y23100000D03*
D12*
X19900000Y24600000D03*
X16900000Y24600000D03*
D13*
X20650000Y22850000D03*
X17650000Y22850000D03*
X16150000Y22850000D03*
%TD*%
D14*
%TO.C,Q1*%
X14900000Y16692500D03*
D15*
X16400000Y16807500D03*
D14*
X17900000Y16692500D03*
D16*
X16400000Y14542500D03*
%TD*%
D17*
%TO.C,C15*%
X32250000Y13000000D03*
X25250000Y13000000D03*
%TD*%
D18*
%TO.C,C17*%
X15500000Y3000000D03*
X15500000Y10000000D03*
%TD*%
%TO.C,C7*%
G36*
G01*
X-6825000Y-3350000D02*
X-6825000Y-3850000D01*
G75*
G02*
X-7050000Y-4075000I-225000J0D01*
G01*
X-7500000Y-4075000D01*
G75*
G02*
X-7725000Y-3850000I0J225000D01*
G01*
X-7725000Y-3350000D01*
G75*
G02*
X-7500000Y-3125000I225000J0D01*
G01*
X-7050000Y-3125000D01*
G75*
G02*
X-6825000Y-3350000I0J-225000D01*
G01*
G37*
G36*
G01*
X-5275000Y-3350000D02*
X-5275000Y-3850000D01*
G75*
G02*
X-5500000Y-4075000I-225000J0D01*
G01*
X-5950000Y-4075000D01*
G75*
G02*
X-6175000Y-3850000I0J225000D01*
G01*
X-6175000Y-3350000D01*
G75*
G02*
X-5950000Y-3125000I225000J0D01*
G01*
X-5500000Y-3125000D01*
G75*
G02*
X-5275000Y-3350000I0J-225000D01*
G01*
G37*
%TD*%
%TO.C,C10*%
G36*
G01*
X-9175000Y-3850000D02*
X-9175000Y-3350000D01*
G75*
G02*
X-8950000Y-3125000I225000J0D01*
G01*
X-8500000Y-3125000D01*
G75*
G02*
X-8275000Y-3350000I0J-225000D01*
G01*
X-8275000Y-3850000D01*
G75*
G02*
X-8500000Y-4075000I-225000J0D01*
G01*
X-8950000Y-4075000D01*
G75*
G02*
X-9175000Y-3850000I0J225000D01*
G01*
G37*
G36*
G01*
X-10725000Y-3850000D02*
X-10725000Y-3350000D01*
G75*
G02*
X-10500000Y-3125000I225000J0D01*
G01*
X-10050000Y-3125000D01*
G75*
G02*
X-9825000Y-3350000I0J-225000D01*
G01*
X-9825000Y-3850000D01*
G75*
G02*
X-10050000Y-4075000I-225000J0D01*
G01*
X-10500000Y-4075000D01*
G75*
G02*
X-10725000Y-3850000I0J225000D01*
G01*
G37*
%TD*%
%TO.C,C14*%
G36*
G01*
X23025000Y5750000D02*
X23025000Y5250000D01*
G75*
G02*
X22800000Y5025000I-225000J0D01*
G01*
X22350000Y5025000D01*
G75*
G02*
X22125000Y5250000I0J225000D01*
G01*
X22125000Y5750000D01*
G75*
G02*
X22350000Y5975000I225000J0D01*
G01*
X22800000Y5975000D01*
G75*
G02*
X23025000Y5750000I0J-225000D01*
G01*
G37*
G36*
G01*
X21475000Y5750000D02*
X21475000Y5250000D01*
G75*
G02*
X21250000Y5025000I-225000J0D01*
G01*
X20800000Y5025000D01*
G75*
G02*
X20575000Y5250000I0J225000D01*
G01*
X20575000Y5750000D01*
G75*
G02*
X20800000Y5975000I225000J0D01*
G01*
X21250000Y5975000D01*
G75*
G02*
X21475000Y5750000I0J-225000D01*
G01*
G37*
%TD*%
%TO.C,C16*%
G36*
G01*
X4825000Y5750000D02*
X4825000Y5250000D01*
G75*
G02*
X4600000Y5025000I-225000J0D01*
G01*
X4150000Y5025000D01*
G75*
G02*
X3925000Y5250000I0J225000D01*
G01*
X3925000Y5750000D01*
G75*
G02*
X4150000Y5975000I225000J0D01*
G01*
X4600000Y5975000D01*
G75*
G02*
X4825000Y5750000I0J-225000D01*
G01*
G37*
G36*
G01*
X3275000Y5750000D02*
X3275000Y5250000D01*
G75*
G02*
X3050000Y5025000I-225000J0D01*
G01*
X2600000Y5025000D01*
G75*
G02*
X2375000Y5250000I0J225000D01*
G01*
X2375000Y5750000D01*
G75*
G02*
X2600000Y5975000I225000J0D01*
G01*
X3050000Y5975000D01*
G75*
G02*
X3275000Y5750000I0J-225000D01*
G01*
G37*
%TD*%
%TO.C,C18*%
G36*
G01*
X21475000Y4250000D02*
X21475000Y3750000D01*
G75*
G02*
X21250000Y3525000I-225000J0D01*
G01*
X20800000Y3525000D01*
G75*
G02*
X20575000Y3750000I0J225000D01*
G01*
X20575000Y4250000D01*
G75*
G02*
X20800000Y4475000I225000J0D01*
G01*
X21250000Y4475000D01*
G75*
G02*
X21475000Y4250000I0J-225000D01*
G01*
G37*
G36*
G01*
X23025000Y4250000D02*
X23025000Y3750000D01*
G75*
G02*
X22800000Y3525000I-225000J0D01*
G01*
X22350000Y3525000D01*
G75*
G02*
X22125000Y3750000I0J225000D01*
G01*
X22125000Y4250000D01*
G75*
G02*
X22350000Y4475000I225000J0D01*
G01*
X22800000Y4475000D01*
G75*
G02*
X23025000Y4250000I0J-225000D01*
G01*
G37*
%TD*%
%TO.C,C19*%
G36*
G01*
X4825000Y4250000D02*
X4825000Y3750000D01*
G75*
G02*
X4600000Y3525000I-225000J0D01*
G01*
X4150000Y3525000D01*
G75*
G02*
X3925000Y3750000I0J225000D01*
G01*
X3925000Y4250000D01*
G75*
G02*
X4150000Y4475000I225000J0D01*
G01*
X4600000Y4475000D01*
G75*
G02*
X4825000Y4250000I0J-225000D01*
G01*
G37*
G36*
G01*
X3275000Y4250000D02*
X3275000Y3750000D01*
G75*
G02*
X3050000Y3525000I-225000J0D01*
G01*
X2600000Y3525000D01*
G75*
G02*
X2375000Y3750000I0J225000D01*
G01*
X2375000Y4250000D01*
G75*
G02*
X2600000Y4475000I225000J0D01*
G01*
X3050000Y4475000D01*
G75*
G02*
X3275000Y4250000I0J-225000D01*
G01*
G37*
%TD*%
%TO.C,D2*%
G36*
G01*
X5043750Y23350000D02*
X5556250Y23350000D01*
G75*
G02*
X5775000Y23131250I0J-218750D01*
G01*
X5775000Y22693750D01*
G75*
G02*
X5556250Y22475000I-218750J0D01*
G01*
X5043750Y22475000D01*
G75*
G02*
X4825000Y22693750I0J218750D01*
G01*
X4825000Y23131250D01*
G75*
G02*
X5043750Y23350000I218750J0D01*
G01*
G37*
G36*
G01*
X5043750Y24925000D02*
X5556250Y24925000D01*
G75*
G02*
X5775000Y24706250I0J-218750D01*
G01*
X5775000Y24268750D01*
G75*
G02*
X5556250Y24050000I-218750J0D01*
G01*
X5043750Y24050000D01*
G75*
G02*
X4825000Y24268750I0J218750D01*
G01*
X4825000Y24706250D01*
G75*
G02*
X5043750Y24925000I218750J0D01*
G01*
G37*
%TD*%
%TO.C,D3*%
G36*
G01*
X1043750Y23350000D02*
X1556250Y23350000D01*
G75*
G02*
X1775000Y23131250I0J-218750D01*
G01*
X1775000Y22693750D01*
G75*
G02*
X1556250Y22475000I-218750J0D01*
G01*
X1043750Y22475000D01*
G75*
G02*
X825000Y22693750I0J218750D01*
G01*
X825000Y23131250D01*
G75*
G02*
X1043750Y23350000I218750J0D01*
G01*
G37*
G36*
G01*
X1043750Y24925000D02*
X1556250Y24925000D01*
G75*
G02*
X1775000Y24706250I0J-218750D01*
G01*
X1775000Y24268750D01*
G75*
G02*
X1556250Y24050000I-218750J0D01*
G01*
X1043750Y24050000D01*
G75*
G02*
X825000Y24268750I0J218750D01*
G01*
X825000Y24706250D01*
G75*
G02*
X1043750Y24925000I218750J0D01*
G01*
G37*
%TD*%
%TO.C,D4*%
G36*
G01*
X-2956250Y24925000D02*
X-2443750Y24925000D01*
G75*
G02*
X-2225000Y24706250I0J-218750D01*
G01*
X-2225000Y24268750D01*
G75*
G02*
X-2443750Y24050000I-218750J0D01*
G01*
X-2956250Y24050000D01*
G75*
G02*
X-3175000Y24268750I0J218750D01*
G01*
X-3175000Y24706250D01*
G75*
G02*
X-2956250Y24925000I218750J0D01*
G01*
G37*
G36*
G01*
X-2956250Y23350000D02*
X-2443750Y23350000D01*
G75*
G02*
X-2225000Y23131250I0J-218750D01*
G01*
X-2225000Y22693750D01*
G75*
G02*
X-2443750Y22475000I-218750J0D01*
G01*
X-2956250Y22475000D01*
G75*
G02*
X-3175000Y22693750I0J218750D01*
G01*
X-3175000Y23131250D01*
G75*
G02*
X-2956250Y23350000I218750J0D01*
G01*
G37*
%TD*%
D19*
%TO.C,D5*%
X-21875000Y-6700000D03*
X-20125000Y-6700000D03*
X-20125000Y-7700000D03*
X-21875000Y-7700000D03*
%TD*%
%TO.C,D6*%
G36*
G01*
X-24993750Y-8650000D02*
X-25506250Y-8650000D01*
G75*
G02*
X-25725000Y-8431250I0J218750D01*
G01*
X-25725000Y-7993750D01*
G75*
G02*
X-25506250Y-7775000I218750J0D01*
G01*
X-24993750Y-7775000D01*
G75*
G02*
X-24775000Y-7993750I0J-218750D01*
G01*
X-24775000Y-8431250D01*
G75*
G02*
X-24993750Y-8650000I-218750J0D01*
G01*
G37*
G36*
G01*
X-24993750Y-10225000D02*
X-25506250Y-10225000D01*
G75*
G02*
X-25725000Y-10006250I0J218750D01*
G01*
X-25725000Y-9568750D01*
G75*
G02*
X-25506250Y-9350000I218750J0D01*
G01*
X-24993750Y-9350000D01*
G75*
G02*
X-24775000Y-9568750I0J-218750D01*
G01*
X-24775000Y-10006250D01*
G75*
G02*
X-24993750Y-10225000I-218750J0D01*
G01*
G37*
%TD*%
%TO.C,D7*%
G36*
G01*
X-30243750Y-10225000D02*
X-30756250Y-10225000D01*
G75*
G02*
X-30975000Y-10006250I0J218750D01*
G01*
X-30975000Y-9568750D01*
G75*
G02*
X-30756250Y-9350000I218750J0D01*
G01*
X-30243750Y-9350000D01*
G75*
G02*
X-30025000Y-9568750I0J-218750D01*
G01*
X-30025000Y-10006250D01*
G75*
G02*
X-30243750Y-10225000I-218750J0D01*
G01*
G37*
G36*
G01*
X-30243750Y-8650000D02*
X-30756250Y-8650000D01*
G75*
G02*
X-30975000Y-8431250I0J218750D01*
G01*
X-30975000Y-7993750D01*
G75*
G02*
X-30756250Y-7775000I218750J0D01*
G01*
X-30243750Y-7775000D01*
G75*
G02*
X-30025000Y-7993750I0J-218750D01*
G01*
X-30025000Y-8431250D01*
G75*
G02*
X-30243750Y-8650000I-218750J0D01*
G01*
G37*
%TD*%
D20*
%TO.C,J1*%
X25050000Y19800000D03*
X27550000Y19800000D03*
%TD*%
D10*
%TO.C,J2*%
X-22100000Y20100000D03*
X-24600000Y20100000D03*
X-27100000Y20100000D03*
%TD*%
D21*
%TO.C,J3*%
X13700000Y-21290000D03*
X22300000Y-21290000D03*
D22*
X16500000Y-18590000D03*
X17500000Y-18590000D03*
X18500000Y-18590000D03*
X19500000Y-18590000D03*
%TD*%
D10*
%TO.C,J6*%
X12500000Y-750000D03*
X12500000Y-3250000D03*
%TD*%
%TO.C,R1*%
G36*
G01*
X15975000Y19275000D02*
X15975000Y18725000D01*
G75*
G02*
X15775000Y18525000I-200000J0D01*
G01*
X15375000Y18525000D01*
G75*
G02*
X15175000Y18725000I0J200000D01*
G01*
X15175000Y19275000D01*
G75*
G02*
X15375000Y19475000I200000J0D01*
G01*
X15775000Y19475000D01*
G75*
G02*
X15975000Y19275000I0J-200000D01*
G01*
G37*
G36*
G01*
X17625000Y19275000D02*
X17625000Y18725000D01*
G75*
G02*
X17425000Y18525000I-200000J0D01*
G01*
X17025000Y18525000D01*
G75*
G02*
X16825000Y18725000I0J200000D01*
G01*
X16825000Y19275000D01*
G75*
G02*
X17025000Y19475000I200000J0D01*
G01*
X17425000Y19475000D01*
G75*
G02*
X17625000Y19275000I0J-200000D01*
G01*
G37*
%TD*%
%TO.C,R2*%
G36*
G01*
X5556250Y18525000D02*
X5043750Y18525000D01*
G75*
G02*
X4825000Y18743750I0J218750D01*
G01*
X4825000Y19181250D01*
G75*
G02*
X5043750Y19400000I218750J0D01*
G01*
X5556250Y19400000D01*
G75*
G02*
X5775000Y19181250I0J-218750D01*
G01*
X5775000Y18743750D01*
G75*
G02*
X5556250Y18525000I-218750J0D01*
G01*
G37*
G36*
G01*
X5556250Y20100000D02*
X5043750Y20100000D01*
G75*
G02*
X4825000Y20318750I0J218750D01*
G01*
X4825000Y20756250D01*
G75*
G02*
X5043750Y20975000I218750J0D01*
G01*
X5556250Y20975000D01*
G75*
G02*
X5775000Y20756250I0J-218750D01*
G01*
X5775000Y20318750D01*
G75*
G02*
X5556250Y20100000I-218750J0D01*
G01*
G37*
%TD*%
%TO.C,R3*%
G36*
G01*
X1575000Y20125000D02*
X1025000Y20125000D01*
G75*
G02*
X825000Y20325000I0J200000D01*
G01*
X825000Y20725000D01*
G75*
G02*
X1025000Y20925000I200000J0D01*
G01*
X1575000Y20925000D01*
G75*
G02*
X1775000Y20725000I0J-200000D01*
G01*
X1775000Y20325000D01*
G75*
G02*
X1575000Y20125000I-200000J0D01*
G01*
G37*
G36*
G01*
X1575000Y18475000D02*
X1025000Y18475000D01*
G75*
G02*
X825000Y18675000I0J200000D01*
G01*
X825000Y19075000D01*
G75*
G02*
X1025000Y19275000I200000J0D01*
G01*
X1575000Y19275000D01*
G75*
G02*
X1775000Y19075000I0J-200000D01*
G01*
X1775000Y18675000D01*
G75*
G02*
X1575000Y18475000I-200000J0D01*
G01*
G37*
%TD*%
%TO.C,R4*%
G36*
G01*
X-2425000Y18475000D02*
X-2975000Y18475000D01*
G75*
G02*
X-3175000Y18675000I0J200000D01*
G01*
X-3175000Y19075000D01*
G75*
G02*
X-2975000Y19275000I200000J0D01*
G01*
X-2425000Y19275000D01*
G75*
G02*
X-2225000Y19075000I0J-200000D01*
G01*
X-2225000Y18675000D01*
G75*
G02*
X-2425000Y18475000I-200000J0D01*
G01*
G37*
G36*
G01*
X-2425000Y20125000D02*
X-2975000Y20125000D01*
G75*
G02*
X-3175000Y20325000I0J200000D01*
G01*
X-3175000Y20725000D01*
G75*
G02*
X-2975000Y20925000I200000J0D01*
G01*
X-2425000Y20925000D01*
G75*
G02*
X-2225000Y20725000I0J-200000D01*
G01*
X-2225000Y20325000D01*
G75*
G02*
X-2425000Y20125000I-200000J0D01*
G01*
G37*
%TD*%
%TO.C,R8*%
G36*
G01*
X24025000Y-9325000D02*
X23475000Y-9325000D01*
G75*
G02*
X23275000Y-9125000I0J200000D01*
G01*
X23275000Y-8725000D01*
G75*
G02*
X23475000Y-8525000I200000J0D01*
G01*
X24025000Y-8525000D01*
G75*
G02*
X24225000Y-8725000I0J-200000D01*
G01*
X24225000Y-9125000D01*
G75*
G02*
X24025000Y-9325000I-200000J0D01*
G01*
G37*
G36*
G01*
X24025000Y-10975000D02*
X23475000Y-10975000D01*
G75*
G02*
X23275000Y-10775000I0J200000D01*
G01*
X23275000Y-10375000D01*
G75*
G02*
X23475000Y-10175000I200000J0D01*
G01*
X24025000Y-10175000D01*
G75*
G02*
X24225000Y-10375000I0J-200000D01*
G01*
X24225000Y-10775000D01*
G75*
G02*
X24025000Y-10975000I-200000J0D01*
G01*
G37*
%TD*%
%TO.C,R9*%
G36*
G01*
X3275000Y-9325000D02*
X2725000Y-9325000D01*
G75*
G02*
X2525000Y-9125000I0J200000D01*
G01*
X2525000Y-8725000D01*
G75*
G02*
X2725000Y-8525000I200000J0D01*
G01*
X3275000Y-8525000D01*
G75*
G02*
X3475000Y-8725000I0J-200000D01*
G01*
X3475000Y-9125000D01*
G75*
G02*
X3275000Y-9325000I-200000J0D01*
G01*
G37*
G36*
G01*
X3275000Y-10975000D02*
X2725000Y-10975000D01*
G75*
G02*
X2525000Y-10775000I0J200000D01*
G01*
X2525000Y-10375000D01*
G75*
G02*
X2725000Y-10175000I200000J0D01*
G01*
X3275000Y-10175000D01*
G75*
G02*
X3475000Y-10375000I0J-200000D01*
G01*
X3475000Y-10775000D01*
G75*
G02*
X3275000Y-10975000I-200000J0D01*
G01*
G37*
%TD*%
%TO.C,R10*%
G36*
G01*
X4775000Y-10975000D02*
X4225000Y-10975000D01*
G75*
G02*
X4025000Y-10775000I0J200000D01*
G01*
X4025000Y-10375000D01*
G75*
G02*
X4225000Y-10175000I200000J0D01*
G01*
X4775000Y-10175000D01*
G75*
G02*
X4975000Y-10375000I0J-200000D01*
G01*
X4975000Y-10775000D01*
G75*
G02*
X4775000Y-10975000I-200000J0D01*
G01*
G37*
G36*
G01*
X4775000Y-9325000D02*
X4225000Y-9325000D01*
G75*
G02*
X4025000Y-9125000I0J200000D01*
G01*
X4025000Y-8725000D01*
G75*
G02*
X4225000Y-8525000I200000J0D01*
G01*
X4775000Y-8525000D01*
G75*
G02*
X4975000Y-8725000I0J-200000D01*
G01*
X4975000Y-9125000D01*
G75*
G02*
X4775000Y-9325000I-200000J0D01*
G01*
G37*
%TD*%
%TO.C,R11*%
G36*
G01*
X-25525000Y-6425000D02*
X-24975000Y-6425000D01*
G75*
G02*
X-24775000Y-6625000I0J-200000D01*
G01*
X-24775000Y-7025000D01*
G75*
G02*
X-24975000Y-7225000I-200000J0D01*
G01*
X-25525000Y-7225000D01*
G75*
G02*
X-25725000Y-7025000I0J200000D01*
G01*
X-25725000Y-6625000D01*
G75*
G02*
X-25525000Y-6425000I200000J0D01*
G01*
G37*
G36*
G01*
X-25525000Y-4775000D02*
X-24975000Y-4775000D01*
G75*
G02*
X-24775000Y-4975000I0J-200000D01*
G01*
X-24775000Y-5375000D01*
G75*
G02*
X-24975000Y-5575000I-200000J0D01*
G01*
X-25525000Y-5575000D01*
G75*
G02*
X-25725000Y-5375000I0J200000D01*
G01*
X-25725000Y-4975000D01*
G75*
G02*
X-25525000Y-4775000I200000J0D01*
G01*
G37*
%TD*%
%TO.C,R12*%
G36*
G01*
X-30775000Y-4775000D02*
X-30225000Y-4775000D01*
G75*
G02*
X-30025000Y-4975000I0J-200000D01*
G01*
X-30025000Y-5375000D01*
G75*
G02*
X-30225000Y-5575000I-200000J0D01*
G01*
X-30775000Y-5575000D01*
G75*
G02*
X-30975000Y-5375000I0J200000D01*
G01*
X-30975000Y-4975000D01*
G75*
G02*
X-30775000Y-4775000I200000J0D01*
G01*
G37*
G36*
G01*
X-30775000Y-6425000D02*
X-30225000Y-6425000D01*
G75*
G02*
X-30025000Y-6625000I0J-200000D01*
G01*
X-30025000Y-7025000D01*
G75*
G02*
X-30225000Y-7225000I-200000J0D01*
G01*
X-30775000Y-7225000D01*
G75*
G02*
X-30975000Y-7025000I0J200000D01*
G01*
X-30975000Y-6625000D01*
G75*
G02*
X-30775000Y-6425000I200000J0D01*
G01*
G37*
%TD*%
%TO.C,R13*%
G36*
G01*
X25525000Y-9325000D02*
X24975000Y-9325000D01*
G75*
G02*
X24775000Y-9125000I0J200000D01*
G01*
X24775000Y-8725000D01*
G75*
G02*
X24975000Y-8525000I200000J0D01*
G01*
X25525000Y-8525000D01*
G75*
G02*
X25725000Y-8725000I0J-200000D01*
G01*
X25725000Y-9125000D01*
G75*
G02*
X25525000Y-9325000I-200000J0D01*
G01*
G37*
G36*
G01*
X25525000Y-10975000D02*
X24975000Y-10975000D01*
G75*
G02*
X24775000Y-10775000I0J200000D01*
G01*
X24775000Y-10375000D01*
G75*
G02*
X24975000Y-10175000I200000J0D01*
G01*
X25525000Y-10175000D01*
G75*
G02*
X25725000Y-10375000I0J-200000D01*
G01*
X25725000Y-10775000D01*
G75*
G02*
X25525000Y-10975000I-200000J0D01*
G01*
G37*
%TD*%
%TO.C,R14*%
G36*
G01*
X5725000Y-7525000D02*
X6275000Y-7525000D01*
G75*
G02*
X6475000Y-7725000I0J-200000D01*
G01*
X6475000Y-8125000D01*
G75*
G02*
X6275000Y-8325000I-200000J0D01*
G01*
X5725000Y-8325000D01*
G75*
G02*
X5525000Y-8125000I0J200000D01*
G01*
X5525000Y-7725000D01*
G75*
G02*
X5725000Y-7525000I200000J0D01*
G01*
G37*
G36*
G01*
X5725000Y-9175000D02*
X6275000Y-9175000D01*
G75*
G02*
X6475000Y-9375000I0J-200000D01*
G01*
X6475000Y-9775000D01*
G75*
G02*
X6275000Y-9975000I-200000J0D01*
G01*
X5725000Y-9975000D01*
G75*
G02*
X5525000Y-9775000I0J200000D01*
G01*
X5525000Y-9375000D01*
G75*
G02*
X5725000Y-9175000I200000J0D01*
G01*
G37*
%TD*%
%TO.C,R15*%
G36*
G01*
X27975000Y-7525000D02*
X28525000Y-7525000D01*
G75*
G02*
X28725000Y-7725000I0J-200000D01*
G01*
X28725000Y-8125000D01*
G75*
G02*
X28525000Y-8325000I-200000J0D01*
G01*
X27975000Y-8325000D01*
G75*
G02*
X27775000Y-8125000I0J200000D01*
G01*
X27775000Y-7725000D01*
G75*
G02*
X27975000Y-7525000I200000J0D01*
G01*
G37*
G36*
G01*
X27975000Y-9175000D02*
X28525000Y-9175000D01*
G75*
G02*
X28725000Y-9375000I0J-200000D01*
G01*
X28725000Y-9775000D01*
G75*
G02*
X28525000Y-9975000I-200000J0D01*
G01*
X27975000Y-9975000D01*
G75*
G02*
X27775000Y-9775000I0J200000D01*
G01*
X27775000Y-9375000D01*
G75*
G02*
X27975000Y-9175000I200000J0D01*
G01*
G37*
%TD*%
%TO.C,R16*%
G36*
G01*
X7225000Y-7525000D02*
X7775000Y-7525000D01*
G75*
G02*
X7975000Y-7725000I0J-200000D01*
G01*
X7975000Y-8125000D01*
G75*
G02*
X7775000Y-8325000I-200000J0D01*
G01*
X7225000Y-8325000D01*
G75*
G02*
X7025000Y-8125000I0J200000D01*
G01*
X7025000Y-7725000D01*
G75*
G02*
X7225000Y-7525000I200000J0D01*
G01*
G37*
G36*
G01*
X7225000Y-9175000D02*
X7775000Y-9175000D01*
G75*
G02*
X7975000Y-9375000I0J-200000D01*
G01*
X7975000Y-9775000D01*
G75*
G02*
X7775000Y-9975000I-200000J0D01*
G01*
X7225000Y-9975000D01*
G75*
G02*
X7025000Y-9775000I0J200000D01*
G01*
X7025000Y-9375000D01*
G75*
G02*
X7225000Y-9175000I200000J0D01*
G01*
G37*
%TD*%
%TO.C,R17*%
G36*
G01*
X-14525000Y-9175000D02*
X-13975000Y-9175000D01*
G75*
G02*
X-13775000Y-9375000I0J-200000D01*
G01*
X-13775000Y-9775000D01*
G75*
G02*
X-13975000Y-9975000I-200000J0D01*
G01*
X-14525000Y-9975000D01*
G75*
G02*
X-14725000Y-9775000I0J200000D01*
G01*
X-14725000Y-9375000D01*
G75*
G02*
X-14525000Y-9175000I200000J0D01*
G01*
G37*
G36*
G01*
X-14525000Y-7525000D02*
X-13975000Y-7525000D01*
G75*
G02*
X-13775000Y-7725000I0J-200000D01*
G01*
X-13775000Y-8125000D01*
G75*
G02*
X-13975000Y-8325000I-200000J0D01*
G01*
X-14525000Y-8325000D01*
G75*
G02*
X-14725000Y-8125000I0J200000D01*
G01*
X-14725000Y-7725000D01*
G75*
G02*
X-14525000Y-7525000I200000J0D01*
G01*
G37*
%TD*%
%TO.C,R18*%
G36*
G01*
X-16275000Y-8375000D02*
X-15725000Y-8375000D01*
G75*
G02*
X-15525000Y-8575000I0J-200000D01*
G01*
X-15525000Y-8975000D01*
G75*
G02*
X-15725000Y-9175000I-200000J0D01*
G01*
X-16275000Y-9175000D01*
G75*
G02*
X-16475000Y-8975000I0J200000D01*
G01*
X-16475000Y-8575000D01*
G75*
G02*
X-16275000Y-8375000I200000J0D01*
G01*
G37*
G36*
G01*
X-16275000Y-10025000D02*
X-15725000Y-10025000D01*
G75*
G02*
X-15525000Y-10225000I0J-200000D01*
G01*
X-15525000Y-10625000D01*
G75*
G02*
X-15725000Y-10825000I-200000J0D01*
G01*
X-16275000Y-10825000D01*
G75*
G02*
X-16475000Y-10625000I0J200000D01*
G01*
X-16475000Y-10225000D01*
G75*
G02*
X-16275000Y-10025000I200000J0D01*
G01*
G37*
%TD*%
%TO.C,R19*%
G36*
G01*
X-18025000Y-9175000D02*
X-17475000Y-9175000D01*
G75*
G02*
X-17275000Y-9375000I0J-200000D01*
G01*
X-17275000Y-9775000D01*
G75*
G02*
X-17475000Y-9975000I-200000J0D01*
G01*
X-18025000Y-9975000D01*
G75*
G02*
X-18225000Y-9775000I0J200000D01*
G01*
X-18225000Y-9375000D01*
G75*
G02*
X-18025000Y-9175000I200000J0D01*
G01*
G37*
G36*
G01*
X-18025000Y-10825000D02*
X-17475000Y-10825000D01*
G75*
G02*
X-17275000Y-11025000I0J-200000D01*
G01*
X-17275000Y-11425000D01*
G75*
G02*
X-17475000Y-11625000I-200000J0D01*
G01*
X-18025000Y-11625000D01*
G75*
G02*
X-18225000Y-11425000I0J200000D01*
G01*
X-18225000Y-11025000D01*
G75*
G02*
X-18025000Y-10825000I200000J0D01*
G01*
G37*
%TD*%
%TO.C,R20*%
G36*
G01*
X26475000Y-7525000D02*
X27025000Y-7525000D01*
G75*
G02*
X27225000Y-7725000I0J-200000D01*
G01*
X27225000Y-8125000D01*
G75*
G02*
X27025000Y-8325000I-200000J0D01*
G01*
X26475000Y-8325000D01*
G75*
G02*
X26275000Y-8125000I0J200000D01*
G01*
X26275000Y-7725000D01*
G75*
G02*
X26475000Y-7525000I200000J0D01*
G01*
G37*
G36*
G01*
X26475000Y-9175000D02*
X27025000Y-9175000D01*
G75*
G02*
X27225000Y-9375000I0J-200000D01*
G01*
X27225000Y-9775000D01*
G75*
G02*
X27025000Y-9975000I-200000J0D01*
G01*
X26475000Y-9975000D01*
G75*
G02*
X26275000Y-9775000I0J200000D01*
G01*
X26275000Y-9375000D01*
G75*
G02*
X26475000Y-9175000I200000J0D01*
G01*
G37*
%TD*%
D23*
%TO.C,SW2*%
X-5460000Y-7500000D03*
X-10540000Y-15000000D03*
X-8000000Y-15000000D03*
X-10540000Y-7500000D03*
X-5460000Y-15000000D03*
X-8000000Y-7500000D03*
%TD*%
D24*
%TO.C,SW3*%
X8400000Y-15067500D03*
X8400000Y-18532500D03*
X6300000Y-15067500D03*
X6300000Y-18532500D03*
%TD*%
%TO.C,SW4*%
X2500000Y-18532500D03*
X2500000Y-15067500D03*
X4600000Y-18532500D03*
X4600000Y-15067500D03*
%TD*%
%TO.C,SW5*%
X800000Y-15017500D03*
X800000Y-18482500D03*
X-1300000Y-15017500D03*
X-1300000Y-18482500D03*
%TD*%
D25*
%TO.C,U2*%
X-7000000Y11150000D03*
D26*
X-700000Y11150000D03*
X-700000Y13450000D03*
X-700000Y8850000D03*
%TD*%
D27*
%TO.C,U3*%
X23500000Y-2000000D03*
D28*
X21225000Y860000D03*
X21875000Y860000D03*
X22525000Y860000D03*
X23175000Y860000D03*
X23825000Y860000D03*
X24475000Y860000D03*
X25125000Y860000D03*
X25775000Y860000D03*
X25775000Y-4860000D03*
X25125000Y-4860000D03*
X24475000Y-4860000D03*
X23825000Y-4860000D03*
X23175000Y-4860000D03*
X22525000Y-4860000D03*
X21875000Y-4860000D03*
X21225000Y-4860000D03*
%TD*%
D27*
%TO.C,U4*%
X5250000Y-2000000D03*
D28*
X2975000Y860000D03*
X3625000Y860000D03*
X4275000Y860000D03*
X4925000Y860000D03*
X5575000Y860000D03*
X6225000Y860000D03*
X6875000Y860000D03*
X7525000Y860000D03*
X7525000Y-4860000D03*
X6875000Y-4860000D03*
X6225000Y-4860000D03*
X5575000Y-4860000D03*
X4925000Y-4860000D03*
X4275000Y-4860000D03*
X3625000Y-4860000D03*
X2975000Y-4860000D03*
%TD*%
D29*
%TO.C,J4*%
X-28550000Y-20650000D03*
X-28050000Y-20650000D03*
X-27550000Y-20650000D03*
X-27050000Y-20650000D03*
X-26550000Y-20650000D03*
X-26050000Y-20650000D03*
X-25550000Y-20650000D03*
X-25050000Y-20650000D03*
X-24550000Y-20650000D03*
X-24050000Y-20650000D03*
X-23550000Y-20650000D03*
X-23050000Y-20650000D03*
D30*
X-30800000Y-24100000D03*
X-20800000Y-24100000D03*
%TD*%
M02*
