M48
; DRILL file {KiCad (5.1.10)-1} date 02/06/22 13:53:11
; FORMAT={-:-/ absolute / metric / decimal}
; #@! TF.CreationDate,2022-02-06T13:53:11+09:00
; #@! TF.GenerationSoftware,Kicad,Pcbnew,(5.1.10)-1
FMAT,2
METRIC
T1C0.300
T2C0.400
T3C0.600
T4C0.700
T5C0.710
%
G90
G05
T1
X-53.1Y24.4
X-39.5Y-45.7
X-38.6Y39.4
X-35.75Y38.25
X-34.9Y41.15
X-32.2Y4.7
X-31.4Y41.7
X-30.25Y41.25
X-29.4Y44.55
X-27.4Y-14.5
X-25.8Y-35.3
X-25.7Y44.7
X-25.6Y-8.8
X-25.5Y-43.5
X-25.0Y46.25
X-23.9Y45.9
X-23.9Y-9.4
X-23.7Y-20.4
X-23.6Y5.6
X-23.25Y48.4
X-22.5Y-38.25
X-22.4Y-4.8
X-21.8Y40.7
X-21.6Y-35.7
X-20.0Y-4.8
X-20.0Y-38.25
X-19.2Y43.2
X-19.2Y8.5
X-19.2Y-12.1
X-19.2Y-35.4
X-19.1Y10.6
X-18.75Y49.5
X-17.4Y11.2
X-17.0Y-12.3
X-17.0Y-35.4
X-16.9Y-43.5
X-16.6Y-20.4
X-16.4Y8.4
X-16.4Y-31.7
X-16.1Y10.0
X-15.7Y-45.9
X-15.3Y11.2
X-15.0Y-40.0
X-13.6Y6.2
X-12.9Y43.6
X-12.75Y-40.0
X-12.75Y-41.5
X-12.7Y-32.0
X-12.6Y-27.9
X-12.6Y-35.2
X-12.5Y50.75
X-12.5Y-24.2
X-11.7Y-19.4
X-11.6Y-39.3
X-11.25Y-41.5
X-11.2Y8.8
X-10.9Y5.3
X-10.8Y-2.2
X-9.95Y52.8
X-9.6Y-24.9
X-9.3Y43.6
X-9.2Y8.9
X-8.4Y-38.6
X-7.9Y68.6
X-7.8Y-45.9
X-6.4Y-16.9
X-5.6Y-1.4
X-5.375Y52.375
X-5.2Y39.8
X-5.2Y-20.5
X-4.7Y-7.2
X-4.5Y51.6
X-3.4Y0.8
X-3.0Y-32.2
X-2.9Y53.6
X-2.9Y2.6
X-2.8Y-0.2
X-2.6Y-18.0
X-2.5Y49.5
X-2.25Y20.75
X-2.1Y-2.1
X-1.25Y20.75
X-1.2Y18.1
X-0.4Y-19.7
X-0.4Y-25.4
X-0.25Y20.75
X0.1Y52.2
X0.1Y49.7
X0.75Y20.75
X0.8Y3.1
X0.8Y-24.2
X0.8Y-24.2
X1.2Y-6.6
X1.75Y20.75
X1.8Y-16.8
X2.45Y16.0
X2.75Y20.75
X2.766Y1.004
X2.8Y-30.7
X2.8Y-32.4
X3.15Y53.55
X3.4Y46.6
X4.5Y49.25
X4.5Y-20.5
X4.7Y-10.6
X4.8Y-7.8
X5.0Y-24.6
X5.2Y9.6
X5.315Y-4.0
X5.7Y48.5
X5.75Y51.75
X5.9Y53.1
X6.1Y-6.5
X6.3Y40.9
X6.4Y-10.4
X6.7Y25.8
X6.75Y49.764
X7.3Y-2.4
X8.0Y68.6
X8.0Y-21.8
X8.4Y54.7
X9.6Y-30.7
X10.1Y52.7
X10.1Y44.7
X11.0Y-32.0
X11.6Y-24.8
X11.8Y52.0
X12.0Y-17.8
X12.3Y49.7
X13.2Y49.9
X13.8Y17.4
X14.75Y-8.0
X14.75Y-9.5
X14.9Y52.4
X15.0Y-6.018
X15.2Y15.9
X15.4Y53.3
X15.4Y-15.3
X15.5Y44.7
X15.75Y-10.5
X16.0Y-5.9
X16.0Y-34.75
X16.2Y11.1
X16.9Y50.85
X16.9Y-28.3
X17.0Y-23.9
X17.2Y-19.2
X17.5Y11.1
X17.5Y-12.5
X17.6Y-3.3
X17.8Y8.2
X18.1Y49.1
X18.6Y18.5
X18.9Y-16.2
X19.2Y17.9
X19.5Y-1.25
X19.8Y49.1
X20.4Y-5.5
X20.5Y-1.25
X20.7Y13.6
X20.8Y-9.0
X20.8Y-18.1
X21.15Y5.35
X22.094Y-30.607
X22.25Y6.1
X22.3Y-3.1
X22.6Y-29.9
X22.7Y0.2
X23.093Y5.247
X23.2Y48.8
X23.7Y-6.0
X23.8Y-16.0
X23.9Y6.1
X24.1Y-21.1
X24.9Y17.9
X24.9Y16.3
X24.9Y-20.1
X25.0Y5.25
X25.05Y6.6
X25.3Y-19.0
X26.5Y48.1
X26.5Y42.6
X26.8Y2.7
X27.3Y9.6
X27.6Y15.0
X27.6Y12.7
X27.8Y-8.7
X27.8Y-17.2
X28.2Y23.0
X28.6Y40.7
X29.0Y-6.1
X29.1Y-1.0
X29.4Y45.35
X29.4Y19.8
X29.485Y0.8
X31.6Y38.4
X31.7Y43.1
X35.15Y40.95
X38.6Y39.4
X39.6Y-45.7
X53.2Y24.3
T2
X-34.0Y43.5
X-33.6Y-8.0
X-29.3Y0.1
X-28.2Y47.05
X-27.5Y2.9
X-26.4Y13.1
X-25.4Y-31.75
X-25.25Y-30.0
X-22.285Y-10.65
X-22.1Y-1.1
X-22.1Y-37.0
X-21.25Y50.05
X-20.85Y-0.3
X-20.65Y8.5
X-19.6Y-1.4
X-18.8Y-9.35
X-15.1Y-27.3
X-14.7Y-32.9
X-14.104Y52.614
X-14.0Y10.25
X-14.0Y-34.6
X-13.25Y-37.0
X-10.875Y-3.625
X-10.5Y-22.0
X-10.5Y-6.75
X-9.25Y15.0
X-9.0Y-21.1
X-9.0Y-5.25
X-8.05Y54.05
X-7.75Y-12.5
X-7.7Y-19.6
X-5.85Y-0.05
X-5.2Y2.2
X-4.1Y4.2
X-3.4Y-17.15
X-3.0Y10.1
X-2.5Y4.6
X-2.35Y-13.3
X-2.325Y-3.625
X-1.823Y6.708
X-1.75Y-16.9
X-1.65Y55.15
X-1.2Y-7.6
X-1.114Y7.433
X-1.1Y11.55
X-0.55Y-11.85
X-0.5Y10.05
X-0.415Y8.148
X-0.025Y5.425
X0.151Y9.001
X1.0Y44.75
X1.0Y-11.75
X1.35Y54.75
X1.4Y9.1
X1.5Y-2.4
X1.55Y13.05
X1.55Y-8.0
X2.25Y8.35
X3.0Y-18.25
X3.25Y17.0
X3.3Y-8.1
X3.4Y-9.8
X3.75Y-17.5
X3.9Y0.9
X4.0Y-25.85
X4.0Y-28.25
X4.5Y-16.5
X5.75Y-27.0
X5.75Y-29.5
X6.3Y8.3
X6.35Y12.7
X7.0Y55.25
X7.6Y14.0
X7.8Y16.7
X9.0Y-15.75
X9.35Y-20.9
X10.1Y-14.3
X10.25Y-19.8
X10.994Y-13.244
X11.1Y-18.75
X13.45Y-28.35
X14.25Y54.5
X15.5Y-14.0
X16.5Y21.25
X16.9Y18.8
X17.5Y12.5
X18.75Y19.75
X22.35Y50.3
X25.3Y20.6
X26.0Y18.75
X28.25Y48.75
X33.7Y43.5
T3
X-29.5Y5.5
X-18.175Y6.975
X-11.1Y10.635
X5.5Y17.0
X18.8Y-41.5
X29.0Y18.0
T4
X-28.4Y1.4
X-25.9Y1.4
X-23.4Y1.4
T5
X-28.54Y-17.365
X-28.54Y-18.635
X-27.27Y-17.365
X-27.27Y-18.635
X-26.0Y-17.365
X-26.0Y-18.635
X-24.73Y-17.365
X-24.73Y-18.635
X-23.46Y-17.365
X-23.46Y-18.635
X-21.54Y-17.365
X-21.54Y-18.635
X-20.27Y-17.365
X-20.27Y-18.635
X-19.0Y-17.365
X-19.0Y-18.635
X-17.73Y-17.365
X-17.73Y-18.635
X-16.46Y-17.365
X-16.46Y-18.635
T0
M30
