G04 #@! TF.GenerationSoftware,KiCad,Pcbnew,(5.1.10)-1*
G04 #@! TF.CreationDate,2022-02-06T13:53:10+09:00*
G04 #@! TF.ProjectId,Main,4d61696e-2e6b-4696-9361-645f70636258,rev?*
G04 #@! TF.SameCoordinates,Original*
G04 #@! TF.FileFunction,Legend,Top*
G04 #@! TF.FilePolarity,Positive*
%FSLAX46Y46*%
G04 Gerber Fmt 4.6, Leading zero omitted, Abs format (unit mm)*
G04 Created by KiCad (PCBNEW (5.1.10)-1) date 2022-02-06 13:53:10*
%MOMM*%
%LPD*%
G01*
G04 APERTURE LIST*
%ADD10C,0.120000*%
%ADD11C,0.200000*%
%ADD12C,0.127000*%
%ADD13C,0.150000*%
%ADD14R,2.400000X2.000000*%
%ADD15R,1.750000X1.600000*%
%ADD16C,0.100000*%
%ADD17R,1.650000X1.300000*%
%ADD18R,0.300000X1.000000*%
%ADD19R,0.500000X0.530000*%
%ADD20R,0.600000X1.550000*%
%ADD21R,1.200000X1.800000*%
%ADD22R,1.060000X1.060000*%
%ADD23C,1.060000*%
%ADD24R,2.000000X1.300000*%
%ADD25R,0.400000X1.000000*%
%ADD26C,1.200000*%
%ADD27R,0.510000X0.400000*%
%ADD28R,1.050000X0.650000*%
%ADD29R,0.800000X0.900000*%
G04 APERTURE END LIST*
D10*
X15800000Y-100000D02*
G75*
G03*
X15800000Y-100000I-500000J0D01*
G01*
X-1717157Y2000000D02*
G75*
G03*
X-1717157Y2000000I-282843J0D01*
G01*
X23100000Y-16100000D02*
X23100000Y-20100000D01*
X19100000Y-16100000D02*
X23100000Y-16100000D01*
X19100000Y-19100000D02*
X19100000Y-16100000D01*
X20100000Y-20100000D02*
X19100000Y-19100000D01*
X23100000Y-20100000D02*
X20100000Y-20100000D01*
X8040000Y8110000D02*
X7090000Y8110000D01*
X7090000Y8110000D02*
X7090000Y7160000D01*
X16360000Y8110000D02*
X17310000Y8110000D01*
X17310000Y8110000D02*
X17310000Y7160000D01*
X8040000Y-2110000D02*
X7090000Y-2110000D01*
X7090000Y-2110000D02*
X7090000Y-1160000D01*
X16360000Y-2110000D02*
X17310000Y-2110000D01*
X17310000Y-2110000D02*
X17310000Y-1160000D01*
X17310000Y-1160000D02*
X18650000Y-1160000D01*
X8731692Y50938118D02*
X8801830Y51407422D01*
X7698170Y51092578D02*
X7768308Y51561882D01*
X1360000Y1610000D02*
X1610000Y1610000D01*
X1610000Y1610000D02*
X1610000Y1360000D01*
X-1360000Y-1610000D02*
X-1610000Y-1610000D01*
X-1610000Y-1610000D02*
X-1610000Y-1360000D01*
X1360000Y-1610000D02*
X1610000Y-1610000D01*
X1610000Y-1610000D02*
X1610000Y-1360000D01*
X-1360000Y1610000D02*
X-1610000Y1610000D01*
X20450000Y-37666670D02*
X20450000Y-33866666D01*
X20450000Y-33866666D02*
X8750000Y-33866666D01*
X8750000Y-33866666D02*
X8750000Y-37666670D01*
X14990000Y13109420D02*
X14990000Y13390580D01*
X16010000Y13109420D02*
X16010000Y13390580D01*
X6140580Y11510000D02*
X5859420Y11510000D01*
X6140580Y10490000D02*
X5859420Y10490000D01*
X5690000Y-4259420D02*
X5690000Y-4540580D01*
X6710000Y-4259420D02*
X6710000Y-4540580D01*
X17959420Y-4990000D02*
X18240580Y-4990000D01*
X17959420Y-6010000D02*
X18240580Y-6010000D01*
X21710000Y-3109420D02*
X21710000Y-3390580D01*
X20690000Y-3109420D02*
X20690000Y-3390580D01*
X19190000Y-3109420D02*
X19190000Y-3390580D01*
X20210000Y-3109420D02*
X20210000Y-3390580D01*
X20240000Y8609420D02*
X20240000Y8890580D01*
X21260000Y8609420D02*
X21260000Y8890580D01*
X22760000Y8609420D02*
X22760000Y8890580D01*
X21740000Y8609420D02*
X21740000Y8890580D01*
X-3510000Y-42359420D02*
X-3510000Y-42640580D01*
X-2490000Y-42359420D02*
X-2490000Y-42640580D01*
X27290000Y359420D02*
X27290000Y640580D01*
X28310000Y359420D02*
X28310000Y640580D01*
X3190000Y11890580D02*
X3190000Y11609420D01*
X4210000Y11890580D02*
X4210000Y11609420D01*
X5210000Y-5609420D02*
X5210000Y-5890580D01*
X4190000Y-5609420D02*
X4190000Y-5890580D01*
X-18140580Y-36490000D02*
X-17859420Y-36490000D01*
X-18140580Y-37510000D02*
X-17859420Y-37510000D01*
X-28140580Y-20490000D02*
X-27859420Y-20490000D01*
X-28140580Y-21510000D02*
X-27859420Y-21510000D01*
X-790000Y-4259420D02*
X-790000Y-4540580D01*
X-1810000Y-4259420D02*
X-1810000Y-4540580D01*
X22110000Y-40840580D02*
X22110000Y-40559420D01*
X21090000Y-40840580D02*
X21090000Y-40559420D01*
X-21140580Y-21510000D02*
X-20859420Y-21510000D01*
X-21140580Y-20490000D02*
X-20859420Y-20490000D01*
X-5210000Y-4259420D02*
X-5210000Y-4540580D01*
X-4190000Y-4259420D02*
X-4190000Y-4540580D01*
X-18140580Y-3310000D02*
X-17859420Y-3310000D01*
X-18140580Y-2290000D02*
X-17859420Y-2290000D01*
X1140000Y-4259420D02*
X1140000Y-4540580D01*
X2160000Y-4259420D02*
X2160000Y-4540580D01*
X-18990000Y6340580D02*
X-18990000Y6059420D01*
X-20010000Y6340580D02*
X-20010000Y6059420D01*
X-26140580Y-36490000D02*
X-25859420Y-36490000D01*
X-26140580Y-37510000D02*
X-25859420Y-37510000D01*
X-26985000Y9265000D02*
X-24700000Y9265000D01*
X-26985000Y10735000D02*
X-26985000Y9265000D01*
X-24700000Y10735000D02*
X-26985000Y10735000D01*
X23775000Y-16850000D02*
X23775000Y-18881250D01*
X24625000Y-16850000D02*
X23775000Y-16850000D01*
X24625000Y-18881250D02*
X24625000Y-16850000D01*
X22015000Y10265000D02*
X24300000Y10265000D01*
X22015000Y11735000D02*
X22015000Y10265000D01*
X24300000Y11735000D02*
X22015000Y11735000D01*
X24662779Y7490000D02*
X24337221Y7490000D01*
X24662779Y8510000D02*
X24337221Y8510000D01*
X-22162779Y-2290000D02*
X-21837221Y-2290000D01*
X-22162779Y-3310000D02*
X-21837221Y-3310000D01*
X-21490000Y6037221D02*
X-21490000Y6362779D01*
X-22510000Y6037221D02*
X-22510000Y6362779D01*
X-26000000Y14800000D02*
X-26000000Y16000000D01*
X-21000000Y14800000D02*
X-21000000Y16000000D01*
X-21000000Y14800000D02*
X-26000000Y14800000D01*
X27500000Y14800000D02*
X22500000Y14800000D01*
X27500000Y14800000D02*
X27500000Y16000000D01*
X22500000Y14800000D02*
X22500000Y16000000D01*
X-4000000Y44250000D02*
X-4000000Y43250000D01*
X-4000000Y43250000D02*
X4000000Y43250000D01*
X4000000Y43250000D02*
X4000000Y44250000D01*
X-12500000Y-41800000D02*
X-12500000Y-43000000D01*
X-20500000Y-41800000D02*
X-12500000Y-41800000D01*
X-20500000Y-41800000D02*
X-20500000Y-43000000D01*
D11*
X-29710000Y-18635000D02*
G75*
G03*
X-29710000Y-18635000I-100000J0D01*
G01*
X-29175000Y-19715000D02*
X-29175000Y-19515000D01*
X-29175000Y-16285000D02*
X-29175000Y-16485000D01*
X-22825000Y-19715000D02*
X-22825000Y-19515000D01*
X-22825000Y-16285000D02*
X-22825000Y-16485000D01*
X-29175000Y-19715000D02*
X-22825000Y-19715000D01*
X-29175000Y-16285000D02*
X-22825000Y-16285000D01*
D10*
X23000000Y-41800000D02*
X23000000Y-43000000D01*
X23000000Y-41800000D02*
X29000000Y-41800000D01*
X29000000Y-41800000D02*
X29000000Y-43000000D01*
X-1960000Y-32090000D02*
X-1960000Y-32680000D01*
X-1960000Y-32680000D02*
X-3940000Y-32680000D01*
X-3940000Y-32680000D02*
X-3940000Y-32330000D01*
X-3940000Y-32330000D02*
X-4710000Y-32330000D01*
X-4710000Y-32330000D02*
X-4710000Y-34380000D01*
X-4710000Y-36200000D02*
X-4710000Y-36500000D01*
X-4710000Y-36500000D02*
X-3910000Y-36500000D01*
X-3910000Y-36500000D02*
X-3910000Y-37800000D01*
X-3910000Y-37800000D02*
X3910000Y-37800000D01*
X3910000Y-37800000D02*
X3910000Y-36500000D01*
X3910000Y-36500000D02*
X4710000Y-36500000D01*
X4710000Y-36500000D02*
X4710000Y-36200000D01*
X4710000Y-34380000D02*
X4710000Y-32330000D01*
X4710000Y-32330000D02*
X3940000Y-32330000D01*
X3940000Y-32330000D02*
X3940000Y-32680000D01*
X3940000Y-32680000D02*
X1960000Y-32680000D01*
D11*
X-22175000Y-16285000D02*
X-15825000Y-16285000D01*
X-22175000Y-19715000D02*
X-15825000Y-19715000D01*
X-15825000Y-16285000D02*
X-15825000Y-16485000D01*
X-15825000Y-19715000D02*
X-15825000Y-19515000D01*
X-22175000Y-16285000D02*
X-22175000Y-16485000D01*
X-22175000Y-19715000D02*
X-22175000Y-19515000D01*
X-22710000Y-18635000D02*
G75*
G03*
X-22710000Y-18635000I-100000J0D01*
G01*
D10*
X-28650000Y4049996D02*
X-28650000Y2945831D01*
X-29900000Y4049996D02*
X-28650000Y4049996D01*
X-23150000Y4049996D02*
X-21900000Y4049996D01*
X-28650000Y2945831D02*
X-23150000Y2945831D01*
X-23150000Y2945831D02*
X-23150000Y4049996D01*
X-29900000Y4050000D02*
X-29900000Y-1250000D01*
X-29900000Y-1250000D02*
X-21900000Y-1250000D01*
X-21900000Y-1250000D02*
X-21900000Y4050000D01*
X-22000000Y-41800000D02*
X-22000000Y-43000000D01*
X-28000000Y-41800000D02*
X-22000000Y-41800000D01*
X-28000000Y-41800000D02*
X-28000000Y-43000000D01*
X18550000Y-18250000D02*
X17250000Y-18250000D01*
X16900000Y-16450000D02*
X18550000Y-16450000D01*
X-32200584Y41065649D02*
X-32513143Y41422682D01*
X-32986857Y40377318D02*
X-33299416Y40734351D01*
X-33350584Y40065649D02*
X-33663143Y40422682D01*
X-34136857Y39377318D02*
X-34449416Y39734351D01*
X-27053055Y43512706D02*
X-27316337Y43907482D01*
X-26183663Y44092518D02*
X-26446945Y44487294D01*
X-27933663Y42842518D02*
X-28196945Y43237294D01*
X-28803055Y42262706D02*
X-29066337Y42657482D01*
X-21114067Y47056431D02*
X-21323568Y47482195D01*
X-20176432Y47517805D02*
X-20385933Y47943569D01*
X-23114067Y46056431D02*
X-23323568Y46482195D01*
X-22176432Y46517805D02*
X-22385933Y46943569D01*
X-15168849Y49607746D02*
X-15320985Y50057213D01*
X-14179015Y49942787D02*
X-14331151Y50392254D01*
X-15943521Y49224235D02*
X-16095657Y49673702D01*
X-16933355Y48889194D02*
X-17085491Y49338661D01*
X-8466465Y50915773D02*
X-8558633Y51381252D01*
X-7441367Y51118748D02*
X-7533535Y51584227D01*
X-10466465Y50415773D02*
X-10558633Y50881252D01*
X-9441367Y50618748D02*
X-9533535Y51084227D01*
X-2006100Y51479518D02*
X-2036722Y51953045D01*
X-963278Y51546955D02*
X-993900Y52020482D01*
X-2713278Y51546955D02*
X-2743900Y52020482D01*
X-3756100Y51479518D02*
X-3786722Y51953045D01*
X-11237258Y-37522500D02*
X-10762742Y-37522500D01*
X-11237258Y-36477500D02*
X-10762742Y-36477500D01*
X2259827Y51486611D02*
X2283834Y51960519D01*
X1216166Y51539481D02*
X1240173Y52013389D01*
X2966166Y51539481D02*
X2990173Y52013389D01*
X4009827Y51486611D02*
X4033834Y51960519D01*
X9698170Y50592578D02*
X9768308Y51061882D01*
X10731692Y50438118D02*
X10801830Y50907422D01*
X14178916Y49693784D02*
X14331836Y50142984D01*
X15168164Y49357016D02*
X15321084Y49806216D01*
X16918164Y48607016D02*
X17071084Y49056216D01*
X15928916Y48943784D02*
X16081836Y49392984D01*
X-21262742Y10522500D02*
X-21737258Y10522500D01*
X-21262742Y9477500D02*
X-21737258Y9477500D01*
X-23262742Y10977500D02*
X-23737258Y10977500D01*
X-23262742Y12022500D02*
X-23737258Y12022500D01*
X17862742Y-7522500D02*
X18337258Y-7522500D01*
X17862742Y-6477500D02*
X18337258Y-6477500D01*
X7935060Y-8903867D02*
X8270593Y-8568334D01*
X7196133Y-8164940D02*
X7531666Y-7829407D01*
X26737258Y10477500D02*
X26262742Y10477500D01*
X26737258Y11522500D02*
X26262742Y11522500D01*
X20576464Y48118806D02*
X20786708Y48544203D01*
X21513292Y47655797D02*
X21723536Y48081194D01*
X22863292Y47005797D02*
X23073536Y47431194D01*
X21926464Y47468806D02*
X22136708Y47894203D01*
X27602204Y44412178D02*
X27866175Y44806493D01*
X26733825Y44993507D02*
X26997796Y45387822D01*
X27983825Y44143507D02*
X28247796Y44537822D01*
X28852204Y43562178D02*
X29116175Y43956493D01*
X33385945Y40101906D02*
X33699126Y40458393D01*
X32600874Y40791607D02*
X32914055Y41148094D01*
X33750874Y39816607D02*
X34064055Y40173094D01*
X34535945Y39126906D02*
X34849126Y39483393D01*
X25237258Y13022500D02*
X24762742Y13022500D01*
X25237258Y11977500D02*
X24762742Y11977500D01*
X14012742Y-16077500D02*
X14487258Y-16077500D01*
X14012742Y-17122500D02*
X14487258Y-17122500D01*
X14012742Y-18622500D02*
X14487258Y-18622500D01*
X14012742Y-17577500D02*
X14487258Y-17577500D01*
X-9660000Y8200000D02*
X-9660000Y4750000D01*
X-9660000Y8200000D02*
X-9660000Y10150000D01*
X-4540000Y8200000D02*
X-4540000Y6250000D01*
X-4540000Y8200000D02*
X-4540000Y10150000D01*
X-19940000Y-10000000D02*
X-19940000Y-8050000D01*
X-19940000Y-10000000D02*
X-19940000Y-11950000D01*
X-25060000Y-10000000D02*
X-25060000Y-8050000D01*
X-25060000Y-10000000D02*
X-25060000Y-13450000D01*
D12*
G36*
X-10332500Y-44000000D02*
G01*
X-9432500Y-44000000D01*
X-10332500Y-43100000D01*
X-10332500Y-44000000D01*
G37*
X-10332500Y-44000000D02*
X-9432500Y-44000000D01*
X-10332500Y-43100000D01*
X-10332500Y-44000000D01*
G36*
X-5667500Y-44000000D02*
G01*
X-5667500Y-43100000D01*
X-6567500Y-44000000D01*
X-5667500Y-44000000D01*
G37*
X-5667500Y-44000000D02*
X-5667500Y-43100000D01*
X-6567500Y-44000000D01*
X-5667500Y-44000000D01*
G36*
X-5667500Y-41100000D02*
G01*
X-6567500Y-41100000D01*
X-5667500Y-42000000D01*
X-5667500Y-41100000D01*
G37*
X-5667500Y-41100000D02*
X-6567500Y-41100000D01*
X-5667500Y-42000000D01*
X-5667500Y-41100000D01*
G36*
X-10332500Y-41100000D02*
G01*
X-10332500Y-42000000D01*
X-9432500Y-41100000D01*
X-10332500Y-41100000D01*
G37*
X-10332500Y-41100000D02*
X-10332500Y-42000000D01*
X-9432500Y-41100000D01*
X-10332500Y-41100000D01*
X-10332500Y-44000000D02*
X-10332500Y-41100000D01*
X-5667500Y-44000000D02*
X-10332500Y-44000000D01*
X-5667500Y-41100000D02*
X-5667500Y-44000000D01*
X-10332500Y-41100000D02*
X-5667500Y-41100000D01*
X-7667500Y-43400000D02*
X-8332500Y-43400000D01*
X-8332500Y-41600000D02*
X-7667500Y-41600000D01*
X-7667500Y-41600000D02*
G75*
G02*
X-7667500Y-43400000I0J-900000D01*
G01*
X-8332500Y-43400000D02*
G75*
G02*
X-8332500Y-41600000I0J900000D01*
G01*
D10*
X25000000Y-500000D02*
X26600000Y-500000D01*
X26600000Y-500000D02*
X26600000Y1500000D01*
X26600000Y1500000D02*
X25000000Y1500000D01*
X25000000Y1500000D02*
X25000000Y-500000D01*
X25966666Y-83331D02*
G75*
G03*
X25966666Y-83331I-166666J0D01*
G01*
D13*
X20219047Y-14028571D02*
X20361904Y-14076190D01*
X20409523Y-14123809D01*
X20457142Y-14219047D01*
X20457142Y-14361904D01*
X20409523Y-14457142D01*
X20361904Y-14504761D01*
X20266666Y-14552380D01*
X19885714Y-14552380D01*
X19885714Y-13552380D01*
X20219047Y-13552380D01*
X20314285Y-13600000D01*
X20361904Y-13647619D01*
X20409523Y-13742857D01*
X20409523Y-13838095D01*
X20361904Y-13933333D01*
X20314285Y-13980952D01*
X20219047Y-14028571D01*
X19885714Y-14028571D01*
X20790476Y-13552380D02*
X21457142Y-13552380D01*
X20790476Y-14552380D01*
X21457142Y-14552380D01*
X22361904Y-14552380D02*
X21790476Y-14552380D01*
X22076190Y-14552380D02*
X22076190Y-13552380D01*
X21980952Y-13695238D01*
X21885714Y-13790476D01*
X21790476Y-13838095D01*
X11438095Y-3852380D02*
X11438095Y-4661904D01*
X11485714Y-4757142D01*
X11533333Y-4804761D01*
X11628571Y-4852380D01*
X11819047Y-4852380D01*
X11914285Y-4804761D01*
X11961904Y-4757142D01*
X12009523Y-4661904D01*
X12009523Y-3852380D01*
X12438095Y-3947619D02*
X12485714Y-3900000D01*
X12580952Y-3852380D01*
X12819047Y-3852380D01*
X12914285Y-3900000D01*
X12961904Y-3947619D01*
X13009523Y-4042857D01*
X13009523Y-4138095D01*
X12961904Y-4280952D01*
X12390476Y-4852380D01*
X13009523Y-4852380D01*
X7188098Y50758704D02*
X6667868Y50499418D01*
X7103636Y50193553D02*
X6114620Y50341362D01*
X6170928Y50718130D01*
X6232101Y50805283D01*
X6286236Y50845341D01*
X6387466Y50878360D01*
X6528754Y50857244D01*
X6615908Y50796071D01*
X6655965Y50741936D01*
X6688984Y50640706D01*
X6632676Y50263938D01*
X7328869Y51700624D02*
X7244406Y51135472D01*
X7286638Y51418048D02*
X6297622Y51565858D01*
X6424833Y51450550D01*
X6504948Y51342281D01*
X6537967Y51241051D01*
X6466547Y52696162D02*
X6438393Y52507778D01*
X6471412Y52406547D01*
X6511469Y52352413D01*
X6638680Y52237105D01*
X6820025Y52161855D01*
X7196793Y52105546D01*
X7298024Y52138565D01*
X7352158Y52178623D01*
X7413331Y52265776D01*
X7441486Y52454160D01*
X7408467Y52555391D01*
X7368409Y52609525D01*
X7281256Y52670698D01*
X7045776Y52705891D01*
X6944545Y52672872D01*
X6890411Y52632815D01*
X6829238Y52545661D01*
X6801084Y52357277D01*
X6834102Y52256047D01*
X6874160Y52201912D01*
X6961313Y52140739D01*
X-761904Y3367619D02*
X-761904Y2558095D01*
X-714285Y2462857D01*
X-666666Y2415238D01*
X-571428Y2367619D01*
X-380952Y2367619D01*
X-285714Y2415238D01*
X-238095Y2462857D01*
X-190476Y2558095D01*
X-190476Y3367619D01*
X190476Y3367619D02*
X809523Y3367619D01*
X476190Y2986666D01*
X619047Y2986666D01*
X714285Y2939047D01*
X761904Y2891428D01*
X809523Y2796190D01*
X809523Y2558095D01*
X761904Y2462857D01*
X714285Y2415238D01*
X619047Y2367619D01*
X333333Y2367619D01*
X238095Y2415238D01*
X190476Y2462857D01*
X14266666Y-31419044D02*
X14266666Y-32133330D01*
X14219047Y-32276187D01*
X14123809Y-32371425D01*
X13980952Y-32419044D01*
X13885714Y-32419044D01*
X14885714Y-31847616D02*
X14790476Y-31799997D01*
X14742857Y-31752378D01*
X14695238Y-31657140D01*
X14695238Y-31609521D01*
X14742857Y-31514283D01*
X14790476Y-31466664D01*
X14885714Y-31419044D01*
X15076190Y-31419044D01*
X15171428Y-31466664D01*
X15219047Y-31514283D01*
X15266666Y-31609521D01*
X15266666Y-31657140D01*
X15219047Y-31752378D01*
X15171428Y-31799997D01*
X15076190Y-31847616D01*
X14885714Y-31847616D01*
X14790476Y-31895235D01*
X14742857Y-31942854D01*
X14695238Y-32038092D01*
X14695238Y-32228568D01*
X14742857Y-32323806D01*
X14790476Y-32371425D01*
X14885714Y-32419044D01*
X15076190Y-32419044D01*
X15171428Y-32371425D01*
X15219047Y-32323806D01*
X15266666Y-32228568D01*
X15266666Y-32038092D01*
X15219047Y-31942854D01*
X15171428Y-31895235D01*
X15076190Y-31847616D01*
X14427142Y13083333D02*
X14474761Y13035714D01*
X14522380Y12892857D01*
X14522380Y12797619D01*
X14474761Y12654761D01*
X14379523Y12559523D01*
X14284285Y12511904D01*
X14093809Y12464285D01*
X13950952Y12464285D01*
X13760476Y12511904D01*
X13665238Y12559523D01*
X13570000Y12654761D01*
X13522380Y12797619D01*
X13522380Y12892857D01*
X13570000Y13035714D01*
X13617619Y13083333D01*
X14522380Y14035714D02*
X14522380Y13464285D01*
X14522380Y13750000D02*
X13522380Y13750000D01*
X13665238Y13654761D01*
X13760476Y13559523D01*
X13808095Y13464285D01*
X5833333Y9212857D02*
X5785714Y9165238D01*
X5642857Y9117619D01*
X5547619Y9117619D01*
X5404761Y9165238D01*
X5309523Y9260476D01*
X5261904Y9355714D01*
X5214285Y9546190D01*
X5214285Y9689047D01*
X5261904Y9879523D01*
X5309523Y9974761D01*
X5404761Y10070000D01*
X5547619Y10117619D01*
X5642857Y10117619D01*
X5785714Y10070000D01*
X5833333Y10022380D01*
X6214285Y10022380D02*
X6261904Y10070000D01*
X6357142Y10117619D01*
X6595238Y10117619D01*
X6690476Y10070000D01*
X6738095Y10022380D01*
X6785714Y9927142D01*
X6785714Y9831904D01*
X6738095Y9689047D01*
X6166666Y9117619D01*
X6785714Y9117619D01*
X7987142Y-4566666D02*
X8034761Y-4614285D01*
X8082380Y-4757142D01*
X8082380Y-4852380D01*
X8034761Y-4995238D01*
X7939523Y-5090476D01*
X7844285Y-5138095D01*
X7653809Y-5185714D01*
X7510952Y-5185714D01*
X7320476Y-5138095D01*
X7225238Y-5090476D01*
X7130000Y-4995238D01*
X7082380Y-4852380D01*
X7082380Y-4757142D01*
X7130000Y-4614285D01*
X7177619Y-4566666D01*
X7082380Y-4233333D02*
X7082380Y-3614285D01*
X7463333Y-3947619D01*
X7463333Y-3804761D01*
X7510952Y-3709523D01*
X7558571Y-3661904D01*
X7653809Y-3614285D01*
X7891904Y-3614285D01*
X7987142Y-3661904D01*
X8034761Y-3709523D01*
X8082380Y-3804761D01*
X8082380Y-4090476D01*
X8034761Y-4185714D01*
X7987142Y-4233333D01*
X15533333Y-5857142D02*
X15485714Y-5904761D01*
X15342857Y-5952380D01*
X15247619Y-5952380D01*
X15104761Y-5904761D01*
X15009523Y-5809523D01*
X14961904Y-5714285D01*
X14914285Y-5523809D01*
X14914285Y-5380952D01*
X14961904Y-5190476D01*
X15009523Y-5095238D01*
X15104761Y-5000000D01*
X15247619Y-4952380D01*
X15342857Y-4952380D01*
X15485714Y-5000000D01*
X15533333Y-5047619D01*
X16390476Y-5285714D02*
X16390476Y-5952380D01*
X16152380Y-4904761D02*
X15914285Y-5619047D01*
X16533333Y-5619047D01*
X22987142Y-3416666D02*
X23034761Y-3464285D01*
X23082380Y-3607142D01*
X23082380Y-3702380D01*
X23034761Y-3845238D01*
X22939523Y-3940476D01*
X22844285Y-3988095D01*
X22653809Y-4035714D01*
X22510952Y-4035714D01*
X22320476Y-3988095D01*
X22225238Y-3940476D01*
X22130000Y-3845238D01*
X22082380Y-3702380D01*
X22082380Y-3607142D01*
X22130000Y-3464285D01*
X22177619Y-3416666D01*
X22082380Y-2511904D02*
X22082380Y-2988095D01*
X22558571Y-3035714D01*
X22510952Y-2988095D01*
X22463333Y-2892857D01*
X22463333Y-2654761D01*
X22510952Y-2559523D01*
X22558571Y-2511904D01*
X22653809Y-2464285D01*
X22891904Y-2464285D01*
X22987142Y-2511904D01*
X23034761Y-2559523D01*
X23082380Y-2654761D01*
X23082380Y-2892857D01*
X23034761Y-2988095D01*
X22987142Y-3035714D01*
X18857142Y-3416666D02*
X18904761Y-3464285D01*
X18952380Y-3607142D01*
X18952380Y-3702380D01*
X18904761Y-3845238D01*
X18809523Y-3940476D01*
X18714285Y-3988095D01*
X18523809Y-4035714D01*
X18380952Y-4035714D01*
X18190476Y-3988095D01*
X18095238Y-3940476D01*
X18000000Y-3845238D01*
X17952380Y-3702380D01*
X17952380Y-3607142D01*
X18000000Y-3464285D01*
X18047619Y-3416666D01*
X17952380Y-2559523D02*
X17952380Y-2750000D01*
X18000000Y-2845238D01*
X18047619Y-2892857D01*
X18190476Y-2988095D01*
X18380952Y-3035714D01*
X18761904Y-3035714D01*
X18857142Y-2988095D01*
X18904761Y-2940476D01*
X18952380Y-2845238D01*
X18952380Y-2654761D01*
X18904761Y-2559523D01*
X18857142Y-2511904D01*
X18761904Y-2464285D01*
X18523809Y-2464285D01*
X18428571Y-2511904D01*
X18380952Y-2559523D01*
X18333333Y-2654761D01*
X18333333Y-2845238D01*
X18380952Y-2940476D01*
X18428571Y-2988095D01*
X18523809Y-3035714D01*
X19677142Y8583333D02*
X19724761Y8535714D01*
X19772380Y8392857D01*
X19772380Y8297619D01*
X19724761Y8154761D01*
X19629523Y8059523D01*
X19534285Y8011904D01*
X19343809Y7964285D01*
X19200952Y7964285D01*
X19010476Y8011904D01*
X18915238Y8059523D01*
X18820000Y8154761D01*
X18772380Y8297619D01*
X18772380Y8392857D01*
X18820000Y8535714D01*
X18867619Y8583333D01*
X18772380Y8916666D02*
X18772380Y9583333D01*
X19772380Y9154761D01*
X22607142Y6333333D02*
X22654761Y6285714D01*
X22702380Y6142857D01*
X22702380Y6047619D01*
X22654761Y5904761D01*
X22559523Y5809523D01*
X22464285Y5761904D01*
X22273809Y5714285D01*
X22130952Y5714285D01*
X21940476Y5761904D01*
X21845238Y5809523D01*
X21750000Y5904761D01*
X21702380Y6047619D01*
X21702380Y6142857D01*
X21750000Y6285714D01*
X21797619Y6333333D01*
X22130952Y6904761D02*
X22083333Y6809523D01*
X22035714Y6761904D01*
X21940476Y6714285D01*
X21892857Y6714285D01*
X21797619Y6761904D01*
X21750000Y6809523D01*
X21702380Y6904761D01*
X21702380Y7095238D01*
X21750000Y7190476D01*
X21797619Y7238095D01*
X21892857Y7285714D01*
X21940476Y7285714D01*
X22035714Y7238095D01*
X22083333Y7190476D01*
X22130952Y7095238D01*
X22130952Y6904761D01*
X22178571Y6809523D01*
X22226190Y6761904D01*
X22321428Y6714285D01*
X22511904Y6714285D01*
X22607142Y6761904D01*
X22654761Y6809523D01*
X22702380Y6904761D01*
X22702380Y7095238D01*
X22654761Y7190476D01*
X22607142Y7238095D01*
X22511904Y7285714D01*
X22321428Y7285714D01*
X22226190Y7238095D01*
X22178571Y7190476D01*
X22130952Y7095238D01*
X-1212857Y-42666666D02*
X-1165238Y-42714285D01*
X-1117619Y-42857142D01*
X-1117619Y-42952380D01*
X-1165238Y-43095238D01*
X-1260476Y-43190476D01*
X-1355714Y-43238095D01*
X-1546190Y-43285714D01*
X-1689047Y-43285714D01*
X-1879523Y-43238095D01*
X-1974761Y-43190476D01*
X-2070000Y-43095238D01*
X-2117619Y-42952380D01*
X-2117619Y-42857142D01*
X-2070000Y-42714285D01*
X-2022380Y-42666666D01*
X-1117619Y-42190476D02*
X-1117619Y-42000000D01*
X-1165238Y-41904761D01*
X-1212857Y-41857142D01*
X-1355714Y-41761904D01*
X-1546190Y-41714285D01*
X-1927142Y-41714285D01*
X-2022380Y-41761904D01*
X-2070000Y-41809523D01*
X-2117619Y-41904761D01*
X-2117619Y-42095238D01*
X-2070000Y-42190476D01*
X-2022380Y-42238095D01*
X-1927142Y-42285714D01*
X-1689047Y-42285714D01*
X-1593809Y-42238095D01*
X-1546190Y-42190476D01*
X-1498571Y-42095238D01*
X-1498571Y-41904761D01*
X-1546190Y-41809523D01*
X-1593809Y-41761904D01*
X-1689047Y-41714285D01*
X26727142Y-142857D02*
X26774761Y-190476D01*
X26822380Y-333333D01*
X26822380Y-428571D01*
X26774761Y-571428D01*
X26679523Y-666666D01*
X26584285Y-714285D01*
X26393809Y-761904D01*
X26250952Y-761904D01*
X26060476Y-714285D01*
X25965238Y-666666D01*
X25870000Y-571428D01*
X25822380Y-428571D01*
X25822380Y-333333D01*
X25870000Y-190476D01*
X25917619Y-142857D01*
X26822380Y809523D02*
X26822380Y238095D01*
X26822380Y523809D02*
X25822380Y523809D01*
X25965238Y428571D01*
X26060476Y333333D01*
X26108095Y238095D01*
X25822380Y1428571D02*
X25822380Y1523809D01*
X25870000Y1619047D01*
X25917619Y1666666D01*
X26012857Y1714285D01*
X26203333Y1761904D01*
X26441428Y1761904D01*
X26631904Y1714285D01*
X26727142Y1666666D01*
X26774761Y1619047D01*
X26822380Y1523809D01*
X26822380Y1428571D01*
X26774761Y1333333D01*
X26727142Y1285714D01*
X26631904Y1238095D01*
X26441428Y1190476D01*
X26203333Y1190476D01*
X26012857Y1238095D01*
X25917619Y1285714D01*
X25870000Y1333333D01*
X25822380Y1428571D01*
X2357142Y11107142D02*
X2404761Y11059523D01*
X2452380Y10916666D01*
X2452380Y10821428D01*
X2404761Y10678571D01*
X2309523Y10583333D01*
X2214285Y10535714D01*
X2023809Y10488095D01*
X1880952Y10488095D01*
X1690476Y10535714D01*
X1595238Y10583333D01*
X1500000Y10678571D01*
X1452380Y10821428D01*
X1452380Y10916666D01*
X1500000Y11059523D01*
X1547619Y11107142D01*
X2452380Y12059523D02*
X2452380Y11488095D01*
X2452380Y11773809D02*
X1452380Y11773809D01*
X1595238Y11678571D01*
X1690476Y11583333D01*
X1738095Y11488095D01*
X2452380Y13011904D02*
X2452380Y12440476D01*
X2452380Y12726190D02*
X1452380Y12726190D01*
X1595238Y12630952D01*
X1690476Y12535714D01*
X1738095Y12440476D01*
X5107142Y-9142857D02*
X5154761Y-9190476D01*
X5202380Y-9333333D01*
X5202380Y-9428571D01*
X5154761Y-9571428D01*
X5059523Y-9666666D01*
X4964285Y-9714285D01*
X4773809Y-9761904D01*
X4630952Y-9761904D01*
X4440476Y-9714285D01*
X4345238Y-9666666D01*
X4250000Y-9571428D01*
X4202380Y-9428571D01*
X4202380Y-9333333D01*
X4250000Y-9190476D01*
X4297619Y-9142857D01*
X5202380Y-8190476D02*
X5202380Y-8761904D01*
X5202380Y-8476190D02*
X4202380Y-8476190D01*
X4345238Y-8571428D01*
X4440476Y-8666666D01*
X4488095Y-8761904D01*
X4297619Y-7809523D02*
X4250000Y-7761904D01*
X4202380Y-7666666D01*
X4202380Y-7428571D01*
X4250000Y-7333333D01*
X4297619Y-7285714D01*
X4392857Y-7238095D01*
X4488095Y-7238095D01*
X4630952Y-7285714D01*
X5202380Y-7857142D01*
X5202380Y-7238095D01*
X-18642857Y-35927142D02*
X-18690476Y-35974761D01*
X-18833333Y-36022380D01*
X-18928571Y-36022380D01*
X-19071428Y-35974761D01*
X-19166666Y-35879523D01*
X-19214285Y-35784285D01*
X-19261904Y-35593809D01*
X-19261904Y-35450952D01*
X-19214285Y-35260476D01*
X-19166666Y-35165238D01*
X-19071428Y-35070000D01*
X-18928571Y-35022380D01*
X-18833333Y-35022380D01*
X-18690476Y-35070000D01*
X-18642857Y-35117619D01*
X-17690476Y-36022380D02*
X-18261904Y-36022380D01*
X-17976190Y-36022380D02*
X-17976190Y-35022380D01*
X-18071428Y-35165238D01*
X-18166666Y-35260476D01*
X-18261904Y-35308095D01*
X-17357142Y-35022380D02*
X-16738095Y-35022380D01*
X-17071428Y-35403333D01*
X-16928571Y-35403333D01*
X-16833333Y-35450952D01*
X-16785714Y-35498571D01*
X-16738095Y-35593809D01*
X-16738095Y-35831904D01*
X-16785714Y-35927142D01*
X-16833333Y-35974761D01*
X-16928571Y-36022380D01*
X-17214285Y-36022380D01*
X-17309523Y-35974761D01*
X-17357142Y-35927142D01*
X-25392857Y-21357142D02*
X-25440476Y-21404761D01*
X-25583333Y-21452380D01*
X-25678571Y-21452380D01*
X-25821428Y-21404761D01*
X-25916666Y-21309523D01*
X-25964285Y-21214285D01*
X-26011904Y-21023809D01*
X-26011904Y-20880952D01*
X-25964285Y-20690476D01*
X-25916666Y-20595238D01*
X-25821428Y-20500000D01*
X-25678571Y-20452380D01*
X-25583333Y-20452380D01*
X-25440476Y-20500000D01*
X-25392857Y-20547619D01*
X-24440476Y-21452380D02*
X-25011904Y-21452380D01*
X-24726190Y-21452380D02*
X-24726190Y-20452380D01*
X-24821428Y-20595238D01*
X-24916666Y-20690476D01*
X-25011904Y-20738095D01*
X-23583333Y-20785714D02*
X-23583333Y-21452380D01*
X-23821428Y-20404761D02*
X-24059523Y-21119047D01*
X-23440476Y-21119047D01*
X487142Y-5042857D02*
X534761Y-5090476D01*
X582380Y-5233333D01*
X582380Y-5328571D01*
X534761Y-5471428D01*
X439523Y-5566666D01*
X344285Y-5614285D01*
X153809Y-5661904D01*
X10952Y-5661904D01*
X-179523Y-5614285D01*
X-274761Y-5566666D01*
X-370000Y-5471428D01*
X-417619Y-5328571D01*
X-417619Y-5233333D01*
X-370000Y-5090476D01*
X-322380Y-5042857D01*
X582380Y-4090476D02*
X582380Y-4661904D01*
X582380Y-4376190D02*
X-417619Y-4376190D01*
X-274761Y-4471428D01*
X-179523Y-4566666D01*
X-131904Y-4661904D01*
X-417619Y-3185714D02*
X-417619Y-3661904D01*
X58571Y-3709523D01*
X10952Y-3661904D01*
X-36666Y-3566666D01*
X-36666Y-3328571D01*
X10952Y-3233333D01*
X58571Y-3185714D01*
X153809Y-3138095D01*
X391904Y-3138095D01*
X487142Y-3185714D01*
X534761Y-3233333D01*
X582380Y-3328571D01*
X582380Y-3566666D01*
X534761Y-3661904D01*
X487142Y-3709523D01*
X20527142Y-41342857D02*
X20574761Y-41390476D01*
X20622380Y-41533333D01*
X20622380Y-41628571D01*
X20574761Y-41771428D01*
X20479523Y-41866666D01*
X20384285Y-41914285D01*
X20193809Y-41961904D01*
X20050952Y-41961904D01*
X19860476Y-41914285D01*
X19765238Y-41866666D01*
X19670000Y-41771428D01*
X19622380Y-41628571D01*
X19622380Y-41533333D01*
X19670000Y-41390476D01*
X19717619Y-41342857D01*
X20622380Y-40390476D02*
X20622380Y-40961904D01*
X20622380Y-40676190D02*
X19622380Y-40676190D01*
X19765238Y-40771428D01*
X19860476Y-40866666D01*
X19908095Y-40961904D01*
X19622380Y-39533333D02*
X19622380Y-39723809D01*
X19670000Y-39819047D01*
X19717619Y-39866666D01*
X19860476Y-39961904D01*
X20050952Y-40009523D01*
X20431904Y-40009523D01*
X20527142Y-39961904D01*
X20574761Y-39914285D01*
X20622380Y-39819047D01*
X20622380Y-39628571D01*
X20574761Y-39533333D01*
X20527142Y-39485714D01*
X20431904Y-39438095D01*
X20193809Y-39438095D01*
X20098571Y-39485714D01*
X20050952Y-39533333D01*
X20003333Y-39628571D01*
X20003333Y-39819047D01*
X20050952Y-39914285D01*
X20098571Y-39961904D01*
X20193809Y-40009523D01*
X-18642857Y-21357142D02*
X-18690476Y-21404761D01*
X-18833333Y-21452380D01*
X-18928571Y-21452380D01*
X-19071428Y-21404761D01*
X-19166666Y-21309523D01*
X-19214285Y-21214285D01*
X-19261904Y-21023809D01*
X-19261904Y-20880952D01*
X-19214285Y-20690476D01*
X-19166666Y-20595238D01*
X-19071428Y-20500000D01*
X-18928571Y-20452380D01*
X-18833333Y-20452380D01*
X-18690476Y-20500000D01*
X-18642857Y-20547619D01*
X-17690476Y-21452380D02*
X-18261904Y-21452380D01*
X-17976190Y-21452380D02*
X-17976190Y-20452380D01*
X-18071428Y-20595238D01*
X-18166666Y-20690476D01*
X-18261904Y-20738095D01*
X-17357142Y-20452380D02*
X-16690476Y-20452380D01*
X-17119047Y-21452380D01*
X-2912857Y-5042857D02*
X-2865238Y-5090476D01*
X-2817619Y-5233333D01*
X-2817619Y-5328571D01*
X-2865238Y-5471428D01*
X-2960476Y-5566666D01*
X-3055714Y-5614285D01*
X-3246190Y-5661904D01*
X-3389047Y-5661904D01*
X-3579523Y-5614285D01*
X-3674761Y-5566666D01*
X-3770000Y-5471428D01*
X-3817619Y-5328571D01*
X-3817619Y-5233333D01*
X-3770000Y-5090476D01*
X-3722380Y-5042857D01*
X-2817619Y-4090476D02*
X-2817619Y-4661904D01*
X-2817619Y-4376190D02*
X-3817619Y-4376190D01*
X-3674761Y-4471428D01*
X-3579523Y-4566666D01*
X-3531904Y-4661904D01*
X-3389047Y-3519047D02*
X-3436666Y-3614285D01*
X-3484285Y-3661904D01*
X-3579523Y-3709523D01*
X-3627142Y-3709523D01*
X-3722380Y-3661904D01*
X-3770000Y-3614285D01*
X-3817619Y-3519047D01*
X-3817619Y-3328571D01*
X-3770000Y-3233333D01*
X-3722380Y-3185714D01*
X-3627142Y-3138095D01*
X-3579523Y-3138095D01*
X-3484285Y-3185714D01*
X-3436666Y-3233333D01*
X-3389047Y-3328571D01*
X-3389047Y-3519047D01*
X-3341428Y-3614285D01*
X-3293809Y-3661904D01*
X-3198571Y-3709523D01*
X-3008095Y-3709523D01*
X-2912857Y-3661904D01*
X-2865238Y-3614285D01*
X-2817619Y-3519047D01*
X-2817619Y-3328571D01*
X-2865238Y-3233333D01*
X-2912857Y-3185714D01*
X-3008095Y-3138095D01*
X-3198571Y-3138095D01*
X-3293809Y-3185714D01*
X-3341428Y-3233333D01*
X-3389047Y-3328571D01*
X-18642857Y-4607142D02*
X-18690476Y-4654761D01*
X-18833333Y-4702380D01*
X-18928571Y-4702380D01*
X-19071428Y-4654761D01*
X-19166666Y-4559523D01*
X-19214285Y-4464285D01*
X-19261904Y-4273809D01*
X-19261904Y-4130952D01*
X-19214285Y-3940476D01*
X-19166666Y-3845238D01*
X-19071428Y-3750000D01*
X-18928571Y-3702380D01*
X-18833333Y-3702380D01*
X-18690476Y-3750000D01*
X-18642857Y-3797619D01*
X-17690476Y-4702380D02*
X-18261904Y-4702380D01*
X-17976190Y-4702380D02*
X-17976190Y-3702380D01*
X-18071428Y-3845238D01*
X-18166666Y-3940476D01*
X-18261904Y-3988095D01*
X-17214285Y-4702380D02*
X-17023809Y-4702380D01*
X-16928571Y-4654761D01*
X-16880952Y-4607142D01*
X-16785714Y-4464285D01*
X-16738095Y-4273809D01*
X-16738095Y-3892857D01*
X-16785714Y-3797619D01*
X-16833333Y-3750000D01*
X-16928571Y-3702380D01*
X-17119047Y-3702380D01*
X-17214285Y-3750000D01*
X-17261904Y-3797619D01*
X-17309523Y-3892857D01*
X-17309523Y-4130952D01*
X-17261904Y-4226190D01*
X-17214285Y-4273809D01*
X-17119047Y-4321428D01*
X-16928571Y-4321428D01*
X-16833333Y-4273809D01*
X-16785714Y-4226190D01*
X-16738095Y-4130952D01*
X3437142Y-5042857D02*
X3484761Y-5090476D01*
X3532380Y-5233333D01*
X3532380Y-5328571D01*
X3484761Y-5471428D01*
X3389523Y-5566666D01*
X3294285Y-5614285D01*
X3103809Y-5661904D01*
X2960952Y-5661904D01*
X2770476Y-5614285D01*
X2675238Y-5566666D01*
X2580000Y-5471428D01*
X2532380Y-5328571D01*
X2532380Y-5233333D01*
X2580000Y-5090476D01*
X2627619Y-5042857D01*
X2627619Y-4661904D02*
X2580000Y-4614285D01*
X2532380Y-4519047D01*
X2532380Y-4280952D01*
X2580000Y-4185714D01*
X2627619Y-4138095D01*
X2722857Y-4090476D01*
X2818095Y-4090476D01*
X2960952Y-4138095D01*
X3532380Y-4709523D01*
X3532380Y-4090476D01*
X2532380Y-3471428D02*
X2532380Y-3376190D01*
X2580000Y-3280952D01*
X2627619Y-3233333D01*
X2722857Y-3185714D01*
X2913333Y-3138095D01*
X3151428Y-3138095D01*
X3341904Y-3185714D01*
X3437142Y-3233333D01*
X3484761Y-3280952D01*
X3532380Y-3376190D01*
X3532380Y-3471428D01*
X3484761Y-3566666D01*
X3437142Y-3614285D01*
X3341904Y-3661904D01*
X3151428Y-3709523D01*
X2913333Y-3709523D01*
X2722857Y-3661904D01*
X2627619Y-3614285D01*
X2580000Y-3566666D01*
X2532380Y-3471428D01*
X-17712857Y5557142D02*
X-17665238Y5509523D01*
X-17617619Y5366666D01*
X-17617619Y5271428D01*
X-17665238Y5128571D01*
X-17760476Y5033333D01*
X-17855714Y4985714D01*
X-18046190Y4938095D01*
X-18189047Y4938095D01*
X-18379523Y4985714D01*
X-18474761Y5033333D01*
X-18570000Y5128571D01*
X-18617619Y5271428D01*
X-18617619Y5366666D01*
X-18570000Y5509523D01*
X-18522380Y5557142D01*
X-18522380Y5938095D02*
X-18570000Y5985714D01*
X-18617619Y6080952D01*
X-18617619Y6319047D01*
X-18570000Y6414285D01*
X-18522380Y6461904D01*
X-18427142Y6509523D01*
X-18331904Y6509523D01*
X-18189047Y6461904D01*
X-17617619Y5890476D01*
X-17617619Y6509523D01*
X-17617619Y7461904D02*
X-17617619Y6890476D01*
X-17617619Y7176190D02*
X-18617619Y7176190D01*
X-18474761Y7080952D01*
X-18379523Y6985714D01*
X-18331904Y6890476D01*
X-26642857Y-35927142D02*
X-26690476Y-35974761D01*
X-26833333Y-36022380D01*
X-26928571Y-36022380D01*
X-27071428Y-35974761D01*
X-27166666Y-35879523D01*
X-27214285Y-35784285D01*
X-27261904Y-35593809D01*
X-27261904Y-35450952D01*
X-27214285Y-35260476D01*
X-27166666Y-35165238D01*
X-27071428Y-35070000D01*
X-26928571Y-35022380D01*
X-26833333Y-35022380D01*
X-26690476Y-35070000D01*
X-26642857Y-35117619D01*
X-26261904Y-35117619D02*
X-26214285Y-35070000D01*
X-26119047Y-35022380D01*
X-25880952Y-35022380D01*
X-25785714Y-35070000D01*
X-25738095Y-35117619D01*
X-25690476Y-35212857D01*
X-25690476Y-35308095D01*
X-25738095Y-35450952D01*
X-26309523Y-36022380D01*
X-25690476Y-36022380D01*
X-25309523Y-35117619D02*
X-25261904Y-35070000D01*
X-25166666Y-35022380D01*
X-24928571Y-35022380D01*
X-24833333Y-35070000D01*
X-24785714Y-35117619D01*
X-24738095Y-35212857D01*
X-24738095Y-35308095D01*
X-24785714Y-35450952D01*
X-25357142Y-36022380D01*
X-24738095Y-36022380D01*
X-29964285Y9547619D02*
X-29964285Y10547619D01*
X-29726190Y10547619D01*
X-29583333Y10500000D01*
X-29488095Y10404761D01*
X-29440476Y10309523D01*
X-29392857Y10119047D01*
X-29392857Y9976190D01*
X-29440476Y9785714D01*
X-29488095Y9690476D01*
X-29583333Y9595238D01*
X-29726190Y9547619D01*
X-29964285Y9547619D01*
X-28440476Y9547619D02*
X-29011904Y9547619D01*
X-28726190Y9547619D02*
X-28726190Y10547619D01*
X-28821428Y10404761D01*
X-28916666Y10309523D01*
X-29011904Y10261904D01*
X-27821428Y10547619D02*
X-27726190Y10547619D01*
X-27630952Y10500000D01*
X-27583333Y10452380D01*
X-27535714Y10357142D01*
X-27488095Y10166666D01*
X-27488095Y9928571D01*
X-27535714Y9738095D01*
X-27583333Y9642857D01*
X-27630952Y9595238D01*
X-27726190Y9547619D01*
X-27821428Y9547619D01*
X-27916666Y9595238D01*
X-27964285Y9642857D01*
X-28011904Y9738095D01*
X-28059523Y9928571D01*
X-28059523Y10166666D01*
X-28011904Y10357142D01*
X-27964285Y10452380D01*
X-27916666Y10500000D01*
X-27821428Y10547619D01*
X24552380Y-16514285D02*
X23552380Y-16514285D01*
X23552380Y-16276190D01*
X23600000Y-16133333D01*
X23695238Y-16038095D01*
X23790476Y-15990476D01*
X23980952Y-15942857D01*
X24123809Y-15942857D01*
X24314285Y-15990476D01*
X24409523Y-16038095D01*
X24504761Y-16133333D01*
X24552380Y-16276190D01*
X24552380Y-16514285D01*
X24552380Y-14990476D02*
X24552380Y-15561904D01*
X24552380Y-15276190D02*
X23552380Y-15276190D01*
X23695238Y-15371428D01*
X23790476Y-15466666D01*
X23838095Y-15561904D01*
X24552380Y-14038095D02*
X24552380Y-14609523D01*
X24552380Y-14323809D02*
X23552380Y-14323809D01*
X23695238Y-14419047D01*
X23790476Y-14514285D01*
X23838095Y-14609523D01*
X19285714Y10547619D02*
X19285714Y11547619D01*
X19523809Y11547619D01*
X19666666Y11500000D01*
X19761904Y11404761D01*
X19809523Y11309523D01*
X19857142Y11119047D01*
X19857142Y10976190D01*
X19809523Y10785714D01*
X19761904Y10690476D01*
X19666666Y10595238D01*
X19523809Y10547619D01*
X19285714Y10547619D01*
X20809523Y10547619D02*
X20238095Y10547619D01*
X20523809Y10547619D02*
X20523809Y11547619D01*
X20428571Y11404761D01*
X20333333Y11309523D01*
X20238095Y11261904D01*
X21190476Y11452380D02*
X21238095Y11500000D01*
X21333333Y11547619D01*
X21571428Y11547619D01*
X21666666Y11500000D01*
X21714285Y11452380D01*
X21761904Y11357142D01*
X21761904Y11261904D01*
X21714285Y11119047D01*
X21142857Y10547619D01*
X21761904Y10547619D01*
X23666666Y6641428D02*
X23333333Y6641428D01*
X23333333Y6117619D02*
X23333333Y7117619D01*
X23809523Y7117619D01*
X24523809Y6641428D02*
X24666666Y6593809D01*
X24714285Y6546190D01*
X24761904Y6450952D01*
X24761904Y6308095D01*
X24714285Y6212857D01*
X24666666Y6165238D01*
X24571428Y6117619D01*
X24190476Y6117619D01*
X24190476Y7117619D01*
X24523809Y7117619D01*
X24619047Y7070000D01*
X24666666Y7022380D01*
X24714285Y6927142D01*
X24714285Y6831904D01*
X24666666Y6736666D01*
X24619047Y6689047D01*
X24523809Y6641428D01*
X24190476Y6641428D01*
X25714285Y6117619D02*
X25142857Y6117619D01*
X25428571Y6117619D02*
X25428571Y7117619D01*
X25333333Y6974761D01*
X25238095Y6879523D01*
X25142857Y6831904D01*
X-22833333Y-4178571D02*
X-23166666Y-4178571D01*
X-23166666Y-4702380D02*
X-23166666Y-3702380D01*
X-22690476Y-3702380D01*
X-21976190Y-4178571D02*
X-21833333Y-4226190D01*
X-21785714Y-4273809D01*
X-21738095Y-4369047D01*
X-21738095Y-4511904D01*
X-21785714Y-4607142D01*
X-21833333Y-4654761D01*
X-21928571Y-4702380D01*
X-22309523Y-4702380D01*
X-22309523Y-3702380D01*
X-21976190Y-3702380D01*
X-21880952Y-3750000D01*
X-21833333Y-3797619D01*
X-21785714Y-3892857D01*
X-21785714Y-3988095D01*
X-21833333Y-4083333D01*
X-21880952Y-4130952D01*
X-21976190Y-4178571D01*
X-22309523Y-4178571D01*
X-21357142Y-3797619D02*
X-21309523Y-3750000D01*
X-21214285Y-3702380D01*
X-20976190Y-3702380D01*
X-20880952Y-3750000D01*
X-20833333Y-3797619D01*
X-20785714Y-3892857D01*
X-20785714Y-3988095D01*
X-20833333Y-4130952D01*
X-21404761Y-4702380D01*
X-20785714Y-4702380D01*
X-23501428Y5366666D02*
X-23501428Y5033333D01*
X-22977619Y5033333D02*
X-23977619Y5033333D01*
X-23977619Y5509523D01*
X-23501428Y6223809D02*
X-23453809Y6366666D01*
X-23406190Y6414285D01*
X-23310952Y6461904D01*
X-23168095Y6461904D01*
X-23072857Y6414285D01*
X-23025238Y6366666D01*
X-22977619Y6271428D01*
X-22977619Y5890476D01*
X-23977619Y5890476D01*
X-23977619Y6223809D01*
X-23930000Y6319047D01*
X-23882380Y6366666D01*
X-23787142Y6414285D01*
X-23691904Y6414285D01*
X-23596666Y6366666D01*
X-23549047Y6319047D01*
X-23501428Y6223809D01*
X-23501428Y5890476D01*
X-23977619Y6795238D02*
X-23977619Y7414285D01*
X-23596666Y7080952D01*
X-23596666Y7223809D01*
X-23549047Y7319047D01*
X-23501428Y7366666D01*
X-23406190Y7414285D01*
X-23168095Y7414285D01*
X-23072857Y7366666D01*
X-23025238Y7319047D01*
X-22977619Y7223809D01*
X-22977619Y6938095D01*
X-23025238Y6842857D01*
X-23072857Y6795238D01*
X-23833333Y13547619D02*
X-23833333Y12833333D01*
X-23880952Y12690476D01*
X-23976190Y12595238D01*
X-24119047Y12547619D01*
X-24214285Y12547619D01*
X-22833333Y12547619D02*
X-23404761Y12547619D01*
X-23119047Y12547619D02*
X-23119047Y13547619D01*
X-23214285Y13404761D01*
X-23309523Y13309523D01*
X-23404761Y13261904D01*
X28166666Y15797619D02*
X28166666Y15083333D01*
X28119047Y14940476D01*
X28023809Y14845238D01*
X27880952Y14797619D01*
X27785714Y14797619D01*
X28595238Y15702380D02*
X28642857Y15750000D01*
X28738095Y15797619D01*
X28976190Y15797619D01*
X29071428Y15750000D01*
X29119047Y15702380D01*
X29166666Y15607142D01*
X29166666Y15511904D01*
X29119047Y15369047D01*
X28547619Y14797619D01*
X29166666Y14797619D01*
X-333333Y42047619D02*
X-333333Y41333333D01*
X-380952Y41190476D01*
X-476190Y41095238D01*
X-619047Y41047619D01*
X-714285Y41047619D01*
X47619Y42047619D02*
X666666Y42047619D01*
X333333Y41666666D01*
X476190Y41666666D01*
X571428Y41619047D01*
X619047Y41571428D01*
X666666Y41476190D01*
X666666Y41238095D01*
X619047Y41142857D01*
X571428Y41095238D01*
X476190Y41047619D01*
X190476Y41047619D01*
X95238Y41095238D01*
X47619Y41142857D01*
X-16833333Y-39452380D02*
X-16833333Y-40166666D01*
X-16880952Y-40309523D01*
X-16976190Y-40404761D01*
X-17119047Y-40452380D01*
X-17214285Y-40452380D01*
X-15928571Y-39785714D02*
X-15928571Y-40452380D01*
X-16166666Y-39404761D02*
X-16404761Y-40119047D01*
X-15785714Y-40119047D01*
X-25698333Y-14912380D02*
X-25698333Y-15626666D01*
X-25745952Y-15769523D01*
X-25841190Y-15864761D01*
X-25984047Y-15912380D01*
X-26079285Y-15912380D01*
X-24745952Y-14912380D02*
X-25222142Y-14912380D01*
X-25269761Y-15388571D01*
X-25222142Y-15340952D01*
X-25126904Y-15293333D01*
X-24888809Y-15293333D01*
X-24793571Y-15340952D01*
X-24745952Y-15388571D01*
X-24698333Y-15483809D01*
X-24698333Y-15721904D01*
X-24745952Y-15817142D01*
X-24793571Y-15864761D01*
X-24888809Y-15912380D01*
X-25126904Y-15912380D01*
X-25222142Y-15864761D01*
X-25269761Y-15817142D01*
X25616666Y-39452380D02*
X25616666Y-40166666D01*
X25569047Y-40309523D01*
X25473809Y-40404761D01*
X25330952Y-40452380D01*
X25235714Y-40452380D01*
X25997619Y-39452380D02*
X26664285Y-39452380D01*
X26235714Y-40452380D01*
X-333333Y-30342380D02*
X-333333Y-31056666D01*
X-380952Y-31199523D01*
X-476190Y-31294761D01*
X-619047Y-31342380D01*
X-714285Y-31342380D01*
X571428Y-30342380D02*
X380952Y-30342380D01*
X285714Y-30390000D01*
X238095Y-30437619D01*
X142857Y-30580476D01*
X95238Y-30770952D01*
X95238Y-31151904D01*
X142857Y-31247142D01*
X190476Y-31294761D01*
X285714Y-31342380D01*
X476190Y-31342380D01*
X571428Y-31294761D01*
X619047Y-31247142D01*
X666666Y-31151904D01*
X666666Y-30913809D01*
X619047Y-30818571D01*
X571428Y-30770952D01*
X476190Y-30723333D01*
X285714Y-30723333D01*
X190476Y-30770952D01*
X142857Y-30818571D01*
X95238Y-30913809D01*
X-18698333Y-14912380D02*
X-18698333Y-15626666D01*
X-18745952Y-15769523D01*
X-18841190Y-15864761D01*
X-18984047Y-15912380D01*
X-19079285Y-15912380D01*
X-18174523Y-15912380D02*
X-17984047Y-15912380D01*
X-17888809Y-15864761D01*
X-17841190Y-15817142D01*
X-17745952Y-15674285D01*
X-17698333Y-15483809D01*
X-17698333Y-15102857D01*
X-17745952Y-15007619D01*
X-17793571Y-14960000D01*
X-17888809Y-14912380D01*
X-18079285Y-14912380D01*
X-18174523Y-14960000D01*
X-18222142Y-15007619D01*
X-18269761Y-15102857D01*
X-18269761Y-15340952D01*
X-18222142Y-15436190D01*
X-18174523Y-15483809D01*
X-18079285Y-15531428D01*
X-17888809Y-15531428D01*
X-17793571Y-15483809D01*
X-17745952Y-15436190D01*
X-17698333Y-15340952D01*
X-31447619Y690476D02*
X-30733333Y690476D01*
X-30590476Y642857D01*
X-30495238Y547619D01*
X-30447619Y404761D01*
X-30447619Y309523D01*
X-30447619Y1690476D02*
X-30447619Y1119047D01*
X-30447619Y1404761D02*
X-31447619Y1404761D01*
X-31304761Y1309523D01*
X-31209523Y1214285D01*
X-31161904Y1119047D01*
X-31447619Y2309523D02*
X-31447619Y2404761D01*
X-31400000Y2500000D01*
X-31352380Y2547619D01*
X-31257142Y2595238D01*
X-31066666Y2642857D01*
X-30828571Y2642857D01*
X-30638095Y2595238D01*
X-30542857Y2547619D01*
X-30495238Y2500000D01*
X-30447619Y2404761D01*
X-30447619Y2309523D01*
X-30495238Y2214285D01*
X-30542857Y2166666D01*
X-30638095Y2119047D01*
X-30828571Y2071428D01*
X-31066666Y2071428D01*
X-31257142Y2119047D01*
X-31352380Y2166666D01*
X-31400000Y2214285D01*
X-31447619Y2309523D01*
X-25859523Y-39452380D02*
X-25859523Y-40166666D01*
X-25907142Y-40309523D01*
X-26002380Y-40404761D01*
X-26145238Y-40452380D01*
X-26240476Y-40452380D01*
X-24859523Y-40452380D02*
X-25430952Y-40452380D01*
X-25145238Y-40452380D02*
X-25145238Y-39452380D01*
X-25240476Y-39595238D01*
X-25335714Y-39690476D01*
X-25430952Y-39738095D01*
X-23907142Y-40452380D02*
X-24478571Y-40452380D01*
X-24192857Y-40452380D02*
X-24192857Y-39452380D01*
X-24288095Y-39595238D01*
X-24383333Y-39690476D01*
X-24478571Y-39738095D01*
X17328571Y-16197619D02*
X17233333Y-16150000D01*
X17138095Y-16054761D01*
X16995238Y-15911904D01*
X16900000Y-15864285D01*
X16804761Y-15864285D01*
X16852380Y-16102380D02*
X16757142Y-16054761D01*
X16661904Y-15959523D01*
X16614285Y-15769047D01*
X16614285Y-15435714D01*
X16661904Y-15245238D01*
X16757142Y-15150000D01*
X16852380Y-15102380D01*
X17042857Y-15102380D01*
X17138095Y-15150000D01*
X17233333Y-15245238D01*
X17280952Y-15435714D01*
X17280952Y-15769047D01*
X17233333Y-15959523D01*
X17138095Y-16054761D01*
X17042857Y-16102380D01*
X16852380Y-16102380D01*
X18233333Y-16102380D02*
X17661904Y-16102380D01*
X17947619Y-16102380D02*
X17947619Y-15102380D01*
X17852380Y-15245238D01*
X17757142Y-15340476D01*
X17661904Y-15388095D01*
X18852380Y-15102380D02*
X18947619Y-15102380D01*
X19042857Y-15150000D01*
X19090476Y-15197619D01*
X19138095Y-15292857D01*
X19185714Y-15483333D01*
X19185714Y-15721428D01*
X19138095Y-15911904D01*
X19090476Y-16007142D01*
X19042857Y-16054761D01*
X18947619Y-16102380D01*
X18852380Y-16102380D01*
X18757142Y-16054761D01*
X18709523Y-16007142D01*
X18661904Y-15911904D01*
X18614285Y-15721428D01*
X18614285Y-15483333D01*
X18661904Y-15292857D01*
X18709523Y-15197619D01*
X18757142Y-15150000D01*
X18852380Y-15102380D01*
X-32200159Y41577423D02*
X-32061430Y42141890D01*
X-32576553Y42007375D02*
X-31824138Y42666064D01*
X-31573209Y42379430D01*
X-31546306Y42276405D01*
X-31550769Y42209210D01*
X-31591061Y42110648D01*
X-31698549Y42016550D01*
X-31801574Y41989647D01*
X-31868769Y41994110D01*
X-31967331Y42034402D01*
X-32218260Y42321036D01*
X-31572836Y40860838D02*
X-31949230Y41290789D01*
X-31761033Y41075813D02*
X-31008618Y41734503D01*
X-31178838Y41712063D01*
X-31313229Y41720989D01*
X-31411791Y41761282D01*
X-35426112Y38785497D02*
X-35287383Y39349964D01*
X-35802506Y39215449D02*
X-35050091Y39874138D01*
X-34799162Y39587504D01*
X-34772259Y39484479D01*
X-34776722Y39417284D01*
X-34817014Y39318722D01*
X-34924502Y39224624D01*
X-35027527Y39197721D01*
X-35094722Y39202184D01*
X-35193284Y39242476D01*
X-35444213Y39529110D01*
X-34494427Y39094820D02*
X-34427231Y39090357D01*
X-34328670Y39050065D01*
X-34171839Y38870918D01*
X-34144936Y38767894D01*
X-34149399Y38700698D01*
X-34189691Y38602137D01*
X-34261350Y38539404D01*
X-34400204Y38481135D01*
X-35206549Y38534692D01*
X-34798789Y38068912D01*
X-26218834Y44637657D02*
X-26007613Y45179187D01*
X-26535888Y45113060D02*
X-25703934Y45667904D01*
X-25492564Y45350969D01*
X-25479339Y45245314D01*
X-25492535Y45179276D01*
X-25545347Y45086817D01*
X-25664198Y45007554D01*
X-25769853Y44994328D01*
X-25835891Y45007524D01*
X-25928350Y45060337D01*
X-26139719Y45377271D01*
X-25201932Y44915184D02*
X-24858456Y44400165D01*
X-25360339Y44466113D01*
X-25281076Y44347263D01*
X-25267850Y44241608D01*
X-25281046Y44175570D01*
X-25333859Y44083111D01*
X-25531943Y43951005D01*
X-25637598Y43937779D01*
X-25703636Y43950975D01*
X-25796095Y44003788D01*
X-25954622Y44241489D01*
X-25967848Y44347144D01*
X-25954652Y44413182D01*
X-30158528Y41844229D02*
X-29947307Y42385759D01*
X-30475582Y42319632D02*
X-29643628Y42874476D01*
X-29432258Y42557541D01*
X-29419033Y42451886D01*
X-29432229Y42385848D01*
X-29485041Y42293389D01*
X-29603892Y42214126D01*
X-29709547Y42200900D01*
X-29775585Y42214096D01*
X-29868044Y42266909D01*
X-30079413Y42583843D01*
X-29128311Y41501022D02*
X-29682947Y41131126D01*
X-28943482Y41910476D02*
X-29669840Y41712243D01*
X-29326365Y41197223D01*
X-19979486Y47949814D02*
X-19699389Y48459141D01*
X-20231775Y48462533D02*
X-19334517Y48904039D01*
X-19166324Y48562226D01*
X-19167003Y48455749D01*
X-19188705Y48391998D01*
X-19253134Y48307223D01*
X-19381314Y48244151D01*
X-19487791Y48244829D01*
X-19551542Y48266532D01*
X-19636317Y48330961D01*
X-19804510Y48672774D01*
X-18682770Y47579514D02*
X-18893011Y48006780D01*
X-19341301Y47839266D01*
X-19277551Y47817563D01*
X-19192776Y47753134D01*
X-19087655Y47539501D01*
X-19088334Y47433024D01*
X-19110036Y47369274D01*
X-19174465Y47284499D01*
X-19388098Y47179378D01*
X-19494576Y47180057D01*
X-19558326Y47201759D01*
X-19643101Y47266188D01*
X-19748221Y47479821D01*
X-19747543Y47586299D01*
X-19725841Y47650049D01*
X-24512565Y45818461D02*
X-24232468Y46327788D01*
X-24764854Y46331180D02*
X-23867596Y46772686D01*
X-23699403Y46430873D01*
X-23700082Y46324396D01*
X-23721784Y46260645D01*
X-23786213Y46175870D01*
X-23914393Y46112798D01*
X-24020870Y46113476D01*
X-24084621Y46135179D01*
X-24169396Y46199608D01*
X-24337589Y46541421D01*
X-23236873Y45490888D02*
X-23320970Y45661794D01*
X-23405745Y45726223D01*
X-23469495Y45747926D01*
X-23639723Y45770307D01*
X-23831654Y45728937D01*
X-24173466Y45560744D01*
X-24237895Y45475970D01*
X-24259598Y45412219D01*
X-24260276Y45305742D01*
X-24176180Y45134835D01*
X-24091405Y45070406D01*
X-24027655Y45048704D01*
X-23921177Y45048025D01*
X-23707544Y45153146D01*
X-23643115Y45237921D01*
X-23621413Y45301671D01*
X-23620734Y45408148D01*
X-23704831Y45579055D01*
X-23789605Y45643484D01*
X-23853356Y45665186D01*
X-23959833Y45665865D01*
X-13981935Y50512829D02*
X-13637753Y50981238D01*
X-14165142Y51054092D02*
X-13217932Y51374705D01*
X-13095794Y51013863D01*
X-13110364Y50908385D01*
X-13140202Y50848012D01*
X-13215146Y50772373D01*
X-13350461Y50726571D01*
X-13455939Y50741141D01*
X-13516312Y50770979D01*
X-13591952Y50845923D01*
X-13714090Y51206765D01*
X-12927854Y50517705D02*
X-12714112Y49886231D01*
X-13798727Y49971566D01*
X-18350952Y48835800D02*
X-18006770Y49304209D01*
X-18534159Y49377063D02*
X-17586949Y49697676D01*
X-17464811Y49336834D01*
X-17479381Y49231356D01*
X-17509219Y49170983D01*
X-17584163Y49095344D01*
X-17719478Y49049542D01*
X-17824956Y49064112D01*
X-17885329Y49093950D01*
X-17960969Y49168894D01*
X-18083107Y49529736D01*
X-17626481Y48477744D02*
X-17611911Y48583222D01*
X-17582073Y48643594D01*
X-17507130Y48719234D01*
X-17462024Y48734502D01*
X-17356547Y48719931D01*
X-17296174Y48690093D01*
X-17220534Y48615150D01*
X-17159465Y48434729D01*
X-17174036Y48329251D01*
X-17203874Y48268878D01*
X-17278817Y48193238D01*
X-17323922Y48177971D01*
X-17429400Y48192542D01*
X-17489772Y48222380D01*
X-17565412Y48297323D01*
X-17626481Y48477744D01*
X-17702121Y48552687D01*
X-17762494Y48582525D01*
X-17867972Y48597096D01*
X-18048393Y48536027D01*
X-18123336Y48460387D01*
X-18153174Y48400014D01*
X-18167744Y48294537D01*
X-18106675Y48114116D01*
X-18031035Y48039172D01*
X-17970663Y48009334D01*
X-17865185Y47994764D01*
X-17684764Y48055833D01*
X-17609821Y48131473D01*
X-17579983Y48191845D01*
X-17565412Y48297323D01*
X-7226137Y51575624D02*
X-6823761Y51995102D01*
X-7337128Y52136170D02*
X-6356173Y52330404D01*
X-6282179Y51956707D01*
X-6310393Y51854034D01*
X-6347856Y51798072D01*
X-6432031Y51732861D01*
X-6572167Y51705114D01*
X-6674841Y51733327D01*
X-6730802Y51770790D01*
X-6796013Y51854965D01*
X-6870007Y52228662D01*
X-7133645Y51108503D02*
X-7096648Y50921654D01*
X-7031437Y50837479D01*
X-6975476Y50800016D01*
X-6816841Y50734340D01*
X-6620743Y50724624D01*
X-6247046Y50798618D01*
X-6162871Y50863829D01*
X-6125408Y50919790D01*
X-6097194Y51022464D01*
X-6134191Y51209313D01*
X-6199402Y51293488D01*
X-6255363Y51330951D01*
X-6358037Y51359164D01*
X-6591597Y51312918D01*
X-6675773Y51247707D01*
X-6713235Y51191746D01*
X-6741449Y51089072D01*
X-6704452Y50902224D01*
X-6639241Y50818049D01*
X-6583280Y50780586D01*
X-6480606Y50752372D01*
X-11971396Y51014991D02*
X-11569019Y51434468D01*
X-12082387Y51575536D02*
X-11101432Y51769771D01*
X-11027438Y51396074D01*
X-11055651Y51293400D01*
X-11093114Y51237439D01*
X-11177289Y51172228D01*
X-11317426Y51144480D01*
X-11420099Y51172694D01*
X-11476061Y51210157D01*
X-11541271Y51294332D01*
X-11615265Y51668029D01*
X-11786411Y50080748D02*
X-11897402Y50641293D01*
X-11841906Y50361021D02*
X-10860951Y50555255D01*
X-11019586Y50620931D01*
X-11131509Y50695857D01*
X-11196720Y50780032D01*
X-10685215Y49667724D02*
X-10666717Y49574300D01*
X-10694930Y49471626D01*
X-10732393Y49415665D01*
X-10816568Y49350454D01*
X-10994168Y49266745D01*
X-11227728Y49220499D01*
X-11423826Y49230214D01*
X-11526500Y49258427D01*
X-11582461Y49295890D01*
X-11647672Y49380065D01*
X-11666170Y49473490D01*
X-11637957Y49576163D01*
X-11600494Y49632125D01*
X-11516319Y49697335D01*
X-11338720Y49781044D01*
X-11105159Y49827291D01*
X-10909061Y49817576D01*
X-10806387Y49789362D01*
X-10750426Y49751899D01*
X-10685215Y49667724D01*
X-1742923Y49612323D02*
X-1289235Y49975692D01*
X-1779798Y50182561D02*
X-781883Y50247093D01*
X-757299Y49866935D01*
X-798673Y49768822D01*
X-843120Y49718230D01*
X-935086Y49664564D01*
X-1077645Y49655345D01*
X-1175758Y49696719D01*
X-1226351Y49741166D01*
X-1280017Y49833132D01*
X-1304600Y50213291D01*
X-1681463Y48661928D02*
X-1718339Y49232165D01*
X-1699901Y48947046D02*
X-701985Y49011579D01*
X-850691Y49097399D01*
X-951876Y49186293D01*
X-1005542Y49278260D01*
X-1620004Y47711532D02*
X-1656879Y48281769D01*
X-1638442Y47996651D02*
X-640526Y48061183D01*
X-789231Y48147004D01*
X-890417Y48235897D01*
X-944083Y48327864D01*
X-5169942Y52270042D02*
X-4716254Y52633411D01*
X-5206817Y52840280D02*
X-4208902Y52904812D01*
X-4184318Y52524654D01*
X-4225692Y52426541D01*
X-4270139Y52375949D01*
X-4362105Y52322283D01*
X-4504664Y52313064D01*
X-4602777Y52354438D01*
X-4653370Y52398885D01*
X-4707036Y52490851D01*
X-4731619Y52871010D01*
X-5108482Y51319647D02*
X-5145358Y51889884D01*
X-5126920Y51604765D02*
X-4129004Y51669298D01*
X-4277710Y51755118D01*
X-4378895Y51844012D01*
X-4432561Y51935979D01*
X-4181022Y50997875D02*
X-4130430Y50953428D01*
X-4076764Y50861461D01*
X-4061399Y50623862D01*
X-4102773Y50525750D01*
X-4147220Y50475157D01*
X-4239186Y50421491D01*
X-4334226Y50415345D01*
X-4479858Y50453646D01*
X-5086971Y50987008D01*
X-5047023Y50369251D01*
X-11642857Y-36022380D02*
X-11976190Y-35546190D01*
X-12214285Y-36022380D02*
X-12214285Y-35022380D01*
X-11833333Y-35022380D01*
X-11738095Y-35070000D01*
X-11690476Y-35117619D01*
X-11642857Y-35212857D01*
X-11642857Y-35355714D01*
X-11690476Y-35450952D01*
X-11738095Y-35498571D01*
X-11833333Y-35546190D01*
X-12214285Y-35546190D01*
X-10690476Y-36022380D02*
X-11261904Y-36022380D01*
X-10976190Y-36022380D02*
X-10976190Y-35022380D01*
X-11071428Y-35165238D01*
X-11166666Y-35260476D01*
X-11261904Y-35308095D01*
X-10357142Y-35022380D02*
X-9738095Y-35022380D01*
X-10071428Y-35403333D01*
X-9928571Y-35403333D01*
X-9833333Y-35450952D01*
X-9785714Y-35498571D01*
X-9738095Y-35593809D01*
X-9738095Y-35831904D01*
X-9785714Y-35927142D01*
X-9833333Y-35974761D01*
X-9928571Y-36022380D01*
X-10214285Y-36022380D01*
X-10309523Y-35974761D01*
X-10357142Y-35927142D01*
X2169277Y48335078D02*
X1676832Y48026264D01*
X2140367Y47764382D02*
X1141647Y47814975D01*
X1160921Y48195439D01*
X1213297Y48288146D01*
X1263265Y48333295D01*
X1360790Y48376035D01*
X1503464Y48368807D01*
X1596171Y48316431D01*
X1641320Y48266463D01*
X1684060Y48168938D01*
X1664786Y47788473D01*
X2217461Y49286240D02*
X2188551Y48715543D01*
X2203006Y49000891D02*
X1204286Y49051484D01*
X1342142Y48949140D01*
X1432440Y48849206D01*
X1475180Y48751681D01*
X1595013Y50176013D02*
X2260826Y50142285D01*
X1202503Y49957497D02*
X1903828Y49683568D01*
X1935147Y50301823D01*
X5169277Y51085078D02*
X4676832Y50776264D01*
X5140367Y50514382D02*
X4141647Y50564975D01*
X4160921Y50945439D01*
X4213297Y51038146D01*
X4263265Y51083295D01*
X4360790Y51126035D01*
X4503464Y51118807D01*
X4596171Y51066431D01*
X4641320Y51016463D01*
X4684060Y50918938D01*
X4664786Y50538473D01*
X5217461Y52036240D02*
X5188551Y51465543D01*
X5203006Y51750891D02*
X4204286Y51801484D01*
X4342142Y51699140D01*
X4432440Y51599206D01*
X4475180Y51501681D01*
X4264516Y52990436D02*
X4240424Y52514855D01*
X4713596Y52443205D01*
X4668447Y52493172D01*
X4625707Y52590698D01*
X4637753Y52828488D01*
X4690129Y52921195D01*
X4740097Y52966344D01*
X4837622Y53009084D01*
X5075412Y52997038D01*
X5168119Y52944661D01*
X5213268Y52894694D01*
X5256008Y52797169D01*
X5243962Y52559378D01*
X5191585Y52466671D01*
X5141618Y52421523D01*
X11852391Y49797337D02*
X11332161Y49538051D01*
X11767929Y49232186D02*
X10778913Y49379995D01*
X10835221Y49756763D01*
X10896394Y49843916D01*
X10950529Y49883974D01*
X11051759Y49916993D01*
X11193047Y49895877D01*
X11280201Y49834704D01*
X11320258Y49780569D01*
X11353277Y49679339D01*
X11296969Y49302571D01*
X11993162Y50739257D02*
X11908699Y50174105D01*
X11950931Y50456681D02*
X10961915Y50604491D01*
X11089126Y50489183D01*
X11169241Y50380914D01*
X11202260Y50279684D01*
X11053416Y51216739D02*
X11151956Y51876083D01*
X12077624Y51304409D01*
X13617367Y49456492D02*
X13059160Y49294403D01*
X13433215Y48915550D02*
X12486566Y49237816D01*
X12609334Y49598444D01*
X12685104Y49673255D01*
X12745529Y49702988D01*
X12851032Y49717374D01*
X12986267Y49671336D01*
X13061078Y49595566D01*
X13090811Y49535141D01*
X13105197Y49429638D01*
X12982430Y49069010D01*
X13924286Y50358063D02*
X13740135Y49817121D01*
X13832211Y50087592D02*
X12885561Y50409858D01*
X12990105Y50273663D01*
X13049570Y50152814D01*
X13063957Y50047310D01*
X13567496Y51083157D02*
X13491725Y51008346D01*
X13431301Y50978614D01*
X13325798Y50964227D01*
X13280719Y50979573D01*
X13205908Y51055344D01*
X13176176Y51115768D01*
X13161789Y51221271D01*
X13223173Y51401585D01*
X13298944Y51476396D01*
X13359368Y51506129D01*
X13464871Y51520516D01*
X13509950Y51505170D01*
X13584761Y51429399D01*
X13614493Y51368975D01*
X13628880Y51263472D01*
X13567496Y51083157D01*
X13581882Y50977654D01*
X13611615Y50917230D01*
X13686426Y50841459D01*
X13866740Y50780075D01*
X13972243Y50794462D01*
X14032668Y50824194D01*
X14108438Y50899006D01*
X14169822Y51079320D01*
X14155436Y51184823D01*
X14125703Y51245247D01*
X14050892Y51321018D01*
X13870578Y51382402D01*
X13765075Y51368015D01*
X13704650Y51338283D01*
X13628880Y51263472D01*
X18221075Y47745652D02*
X17662868Y47583563D01*
X18036923Y47204710D02*
X17090274Y47526976D01*
X17213042Y47887604D01*
X17288812Y47962415D01*
X17349237Y47992148D01*
X17454740Y48006534D01*
X17589975Y47960496D01*
X17664786Y47884726D01*
X17694519Y47824301D01*
X17708905Y47718798D01*
X17586138Y47358170D01*
X18527994Y48647223D02*
X18343843Y48106281D01*
X18435919Y48376752D02*
X17489269Y48699018D01*
X17593813Y48562823D01*
X17653278Y48441974D01*
X17667665Y48336470D01*
X18681454Y49098008D02*
X18742838Y49278323D01*
X18728452Y49383826D01*
X18698719Y49444250D01*
X18594176Y49580445D01*
X18429207Y49686908D01*
X18068579Y49809676D01*
X17963076Y49795289D01*
X17902652Y49765556D01*
X17826881Y49690745D01*
X17765497Y49510431D01*
X17779884Y49404928D01*
X17809616Y49344504D01*
X17884427Y49268733D01*
X18109820Y49192003D01*
X18215323Y49206390D01*
X18275748Y49236122D01*
X18351518Y49310933D01*
X18412902Y49491248D01*
X18398515Y49596751D01*
X18368783Y49657175D01*
X18293972Y49732946D01*
X-19142857Y9547619D02*
X-19476190Y10023809D01*
X-19714285Y9547619D02*
X-19714285Y10547619D01*
X-19333333Y10547619D01*
X-19238095Y10500000D01*
X-19190476Y10452380D01*
X-19142857Y10357142D01*
X-19142857Y10214285D01*
X-19190476Y10119047D01*
X-19238095Y10071428D01*
X-19333333Y10023809D01*
X-19714285Y10023809D01*
X-18761904Y10452380D02*
X-18714285Y10500000D01*
X-18619047Y10547619D01*
X-18380952Y10547619D01*
X-18285714Y10500000D01*
X-18238095Y10452380D01*
X-18190476Y10357142D01*
X-18190476Y10261904D01*
X-18238095Y10119047D01*
X-18809523Y9547619D01*
X-18190476Y9547619D01*
X-17571428Y10547619D02*
X-17476190Y10547619D01*
X-17380952Y10500000D01*
X-17333333Y10452380D01*
X-17285714Y10357142D01*
X-17238095Y10166666D01*
X-17238095Y9928571D01*
X-17285714Y9738095D01*
X-17333333Y9642857D01*
X-17380952Y9595238D01*
X-17476190Y9547619D01*
X-17571428Y9547619D01*
X-17666666Y9595238D01*
X-17714285Y9642857D01*
X-17761904Y9738095D01*
X-17809523Y9928571D01*
X-17809523Y10166666D01*
X-17761904Y10357142D01*
X-17714285Y10452380D01*
X-17666666Y10500000D01*
X-17571428Y10547619D01*
X-21142857Y11047619D02*
X-21476190Y11523809D01*
X-21714285Y11047619D02*
X-21714285Y12047619D01*
X-21333333Y12047619D01*
X-21238095Y12000000D01*
X-21190476Y11952380D01*
X-21142857Y11857142D01*
X-21142857Y11714285D01*
X-21190476Y11619047D01*
X-21238095Y11571428D01*
X-21333333Y11523809D01*
X-21714285Y11523809D01*
X-20761904Y11952380D02*
X-20714285Y12000000D01*
X-20619047Y12047619D01*
X-20380952Y12047619D01*
X-20285714Y12000000D01*
X-20238095Y11952380D01*
X-20190476Y11857142D01*
X-20190476Y11761904D01*
X-20238095Y11619047D01*
X-20809523Y11047619D01*
X-20190476Y11047619D01*
X-19238095Y11047619D02*
X-19809523Y11047619D01*
X-19523809Y11047619D02*
X-19523809Y12047619D01*
X-19619047Y11904761D01*
X-19714285Y11809523D01*
X-19809523Y11761904D01*
X17457142Y-8752380D02*
X17123809Y-8276190D01*
X16885714Y-8752380D02*
X16885714Y-7752380D01*
X17266666Y-7752380D01*
X17361904Y-7800000D01*
X17409523Y-7847619D01*
X17457142Y-7942857D01*
X17457142Y-8085714D01*
X17409523Y-8180952D01*
X17361904Y-8228571D01*
X17266666Y-8276190D01*
X16885714Y-8276190D01*
X17838095Y-7847619D02*
X17885714Y-7800000D01*
X17980952Y-7752380D01*
X18219047Y-7752380D01*
X18314285Y-7800000D01*
X18361904Y-7847619D01*
X18409523Y-7942857D01*
X18409523Y-8038095D01*
X18361904Y-8180952D01*
X17790476Y-8752380D01*
X18409523Y-8752380D01*
X18790476Y-7847619D02*
X18838095Y-7800000D01*
X18933333Y-7752380D01*
X19171428Y-7752380D01*
X19266666Y-7800000D01*
X19314285Y-7847619D01*
X19361904Y-7942857D01*
X19361904Y-8038095D01*
X19314285Y-8180952D01*
X18742857Y-8752380D01*
X19361904Y-8752380D01*
X8615312Y-10274450D02*
X8042893Y-10173435D01*
X8211251Y-10678511D02*
X7504145Y-9971404D01*
X7773519Y-9702030D01*
X7874534Y-9668358D01*
X7941877Y-9668358D01*
X8042893Y-9702030D01*
X8143908Y-9803045D01*
X8177580Y-9904061D01*
X8177580Y-9971404D01*
X8143908Y-10072419D01*
X7874534Y-10341793D01*
X8244923Y-9365312D02*
X8244923Y-9297969D01*
X8278595Y-9196954D01*
X8446954Y-9028595D01*
X8547969Y-8994923D01*
X8615312Y-8994923D01*
X8716328Y-9028595D01*
X8783671Y-9095938D01*
X8851015Y-9230625D01*
X8851015Y-10038748D01*
X9288748Y-9601015D01*
X8817343Y-8658206D02*
X9255076Y-8220473D01*
X9288748Y-8725549D01*
X9389763Y-8624534D01*
X9490778Y-8590862D01*
X9558122Y-8590862D01*
X9659137Y-8624534D01*
X9827496Y-8792893D01*
X9861167Y-8893908D01*
X9861167Y-8961251D01*
X9827496Y-9062267D01*
X9625465Y-9264297D01*
X9524450Y-9297969D01*
X9457106Y-9297969D01*
X25857142Y9117619D02*
X25523809Y9593809D01*
X25285714Y9117619D02*
X25285714Y10117619D01*
X25666666Y10117619D01*
X25761904Y10070000D01*
X25809523Y10022380D01*
X25857142Y9927142D01*
X25857142Y9784285D01*
X25809523Y9689047D01*
X25761904Y9641428D01*
X25666666Y9593809D01*
X25285714Y9593809D01*
X26238095Y10022380D02*
X26285714Y10070000D01*
X26380952Y10117619D01*
X26619047Y10117619D01*
X26714285Y10070000D01*
X26761904Y10022380D01*
X26809523Y9927142D01*
X26809523Y9831904D01*
X26761904Y9689047D01*
X26190476Y9117619D01*
X26809523Y9117619D01*
X27666666Y9784285D02*
X27666666Y9117619D01*
X27428571Y10165238D02*
X27190476Y9450952D01*
X27809523Y9450952D01*
X19988745Y47956842D02*
X19414157Y47868999D01*
X19735562Y47444564D02*
X18839075Y47887635D01*
X19007864Y48229154D01*
X19092752Y48293435D01*
X19156540Y48315026D01*
X19263018Y48315519D01*
X19391088Y48252223D01*
X19455369Y48167336D01*
X19476960Y48103547D01*
X19477453Y47997069D01*
X19308664Y47655550D01*
X19346428Y48699234D02*
X19324836Y48763023D01*
X19324344Y48869501D01*
X19429837Y49082950D01*
X19514724Y49147231D01*
X19578513Y49168823D01*
X19684991Y49169315D01*
X19770371Y49127118D01*
X19877341Y49021132D01*
X20136436Y48255671D01*
X20410718Y48810638D01*
X19915105Y50064816D02*
X19704119Y49637918D01*
X20109919Y49384242D01*
X20088328Y49448030D01*
X20087835Y49554509D01*
X20193328Y49767958D01*
X20278215Y49832239D01*
X20342004Y49853830D01*
X20448482Y49854323D01*
X20661931Y49748830D01*
X20726212Y49663942D01*
X20747803Y49600154D01*
X20748296Y49493676D01*
X20642803Y49280227D01*
X20557916Y49215946D01*
X20494127Y49194354D01*
X23870721Y45973250D02*
X23296133Y45885407D01*
X23617538Y45460972D02*
X22721051Y45904043D01*
X22889840Y46245562D01*
X22974728Y46309843D01*
X23038516Y46331434D01*
X23144994Y46331927D01*
X23273064Y46268631D01*
X23337345Y46183744D01*
X23358936Y46119955D01*
X23359429Y46013477D01*
X23190640Y45671958D01*
X23228404Y46715642D02*
X23206812Y46779431D01*
X23206320Y46885909D01*
X23311813Y47099358D01*
X23396700Y47163639D01*
X23460489Y47185231D01*
X23566967Y47185723D01*
X23652347Y47143526D01*
X23759317Y47037540D01*
X24018412Y46272079D01*
X24292694Y46827046D01*
X23775983Y48038535D02*
X23691588Y47867775D01*
X23692081Y47761297D01*
X23713672Y47697508D01*
X23799544Y47548833D01*
X23949205Y47421749D01*
X24290724Y47252960D01*
X24397202Y47253452D01*
X24460990Y47275043D01*
X24545878Y47339324D01*
X24630272Y47510084D01*
X24629779Y47616562D01*
X24608188Y47680350D01*
X24543907Y47765238D01*
X24330458Y47870731D01*
X24223980Y47870238D01*
X24160191Y47848647D01*
X24075304Y47784366D01*
X23990910Y47613607D01*
X23991402Y47507128D01*
X24012993Y47443340D01*
X24077275Y47358453D01*
X26129994Y44909641D02*
X25548856Y44897549D01*
X25812111Y44434792D02*
X24981127Y44991088D01*
X25193049Y45307654D01*
X25285600Y45360305D01*
X25351661Y45373385D01*
X25457293Y45359975D01*
X25576005Y45280504D01*
X25628656Y45187953D01*
X25641736Y45121892D01*
X25628326Y45016261D01*
X25416404Y44699695D01*
X25590073Y45729521D02*
X25576993Y45795582D01*
X25590403Y45901214D01*
X25722854Y46099067D01*
X25815405Y46151718D01*
X25881466Y46164799D01*
X25987098Y46151389D01*
X26066239Y46098408D01*
X26158461Y45979367D01*
X26315426Y45186635D01*
X26659800Y45701054D01*
X26014247Y46534345D02*
X26385111Y47088335D01*
X26977683Y46175903D01*
X29768302Y42214138D02*
X29187164Y42202046D01*
X29450419Y41739289D02*
X28619435Y42295585D01*
X28831357Y42612151D01*
X28923908Y42664802D01*
X28989969Y42677882D01*
X29095601Y42664472D01*
X29214313Y42585001D01*
X29266964Y42492450D01*
X29280044Y42426389D01*
X29266634Y42320758D01*
X29054712Y42004192D01*
X29228381Y43034018D02*
X29215301Y43100079D01*
X29228711Y43205711D01*
X29361162Y43403564D01*
X29453713Y43456215D01*
X29519774Y43469296D01*
X29625406Y43455886D01*
X29704547Y43402905D01*
X29796769Y43283864D01*
X29953734Y42491132D01*
X30298108Y43005551D01*
X30141143Y43798283D02*
X30048592Y43745632D01*
X29982531Y43732551D01*
X29876899Y43745961D01*
X29837328Y43772451D01*
X29784677Y43865003D01*
X29771597Y43931064D01*
X29785007Y44036695D01*
X29890968Y44194978D01*
X29983519Y44247629D01*
X30049580Y44260710D01*
X30155211Y44247300D01*
X30194782Y44220809D01*
X30247433Y44128258D01*
X30260514Y44062197D01*
X30247104Y43956566D01*
X30141143Y43798283D01*
X30127733Y43692651D01*
X30140813Y43626590D01*
X30193464Y43534039D01*
X30351747Y43428078D01*
X30457379Y43414668D01*
X30523440Y43427749D01*
X30615991Y43480400D01*
X30721952Y43638682D01*
X30735362Y43744314D01*
X30722281Y43810375D01*
X30669630Y43902926D01*
X30511348Y44008887D01*
X30405716Y44022297D01*
X30339655Y44009217D01*
X30247104Y43956566D01*
X31991262Y40787274D02*
X31413517Y40851139D01*
X31614118Y40357980D02*
X30862854Y41017982D01*
X31114284Y41304178D01*
X31212915Y41344298D01*
X31280118Y41348644D01*
X31383096Y41321561D01*
X31490420Y41227275D01*
X31530540Y41128643D01*
X31534886Y41061440D01*
X31507803Y40958462D01*
X31256374Y40672267D01*
X31562976Y41670614D02*
X31558631Y41737817D01*
X31585713Y41840795D01*
X31742857Y42019667D01*
X31841488Y42059788D01*
X31908691Y42064133D01*
X32011669Y42037051D01*
X32083218Y41974193D01*
X32159113Y41844133D01*
X32211263Y41037695D01*
X32619835Y41502763D01*
X32934122Y41860508D02*
X33059836Y42003606D01*
X33086919Y42106584D01*
X33082573Y42173787D01*
X33038107Y42339622D01*
X32926438Y42501111D01*
X32640242Y42752540D01*
X32537265Y42779623D01*
X32470061Y42775277D01*
X32371430Y42735157D01*
X32245715Y42592059D01*
X32218632Y42489081D01*
X32222978Y42421878D01*
X32263098Y42323246D01*
X32441971Y42166103D01*
X32544948Y42139020D01*
X32612151Y42143366D01*
X32710783Y42183486D01*
X32836498Y42326584D01*
X32863581Y42429562D01*
X32859235Y42496765D01*
X32819115Y42595397D01*
X35415569Y37968472D02*
X34837824Y38032337D01*
X35038425Y37539178D02*
X34287161Y38199180D01*
X34538591Y38485376D01*
X34637222Y38525496D01*
X34704425Y38529842D01*
X34807403Y38502759D01*
X34914727Y38408473D01*
X34954847Y38309841D01*
X34959193Y38242638D01*
X34932110Y38139660D01*
X34680681Y37853465D01*
X34884306Y38878895D02*
X35292878Y39343963D01*
X35359073Y38842113D01*
X35453359Y38949436D01*
X35551991Y38989556D01*
X35619194Y38993902D01*
X35722172Y38966819D01*
X35901044Y38809676D01*
X35941165Y38711044D01*
X35945511Y38643841D01*
X35918428Y38540864D01*
X35729856Y38326217D01*
X35631224Y38286096D01*
X35564021Y38281750D01*
X35701451Y39809031D02*
X35764308Y39880580D01*
X35862940Y39920701D01*
X35930143Y39925047D01*
X36033120Y39897964D01*
X36207647Y39808024D01*
X36386519Y39650880D01*
X36498189Y39489391D01*
X36538309Y39390759D01*
X36542655Y39323556D01*
X36515572Y39220579D01*
X36452715Y39149030D01*
X36354083Y39108909D01*
X36286880Y39104564D01*
X36183902Y39131646D01*
X36009376Y39221587D01*
X35830503Y39378730D01*
X35718834Y39540219D01*
X35678714Y39638851D01*
X35674368Y39706054D01*
X35701451Y39809031D01*
X27107142Y12047619D02*
X26773809Y12523809D01*
X26535714Y12047619D02*
X26535714Y13047619D01*
X26916666Y13047619D01*
X27011904Y13000000D01*
X27059523Y12952380D01*
X27107142Y12857142D01*
X27107142Y12714285D01*
X27059523Y12619047D01*
X27011904Y12571428D01*
X26916666Y12523809D01*
X26535714Y12523809D01*
X27440476Y13047619D02*
X28059523Y13047619D01*
X27726190Y12666666D01*
X27869047Y12666666D01*
X27964285Y12619047D01*
X28011904Y12571428D01*
X28059523Y12476190D01*
X28059523Y12238095D01*
X28011904Y12142857D01*
X27964285Y12095238D01*
X27869047Y12047619D01*
X27583333Y12047619D01*
X27488095Y12095238D01*
X27440476Y12142857D01*
X29011904Y12047619D02*
X28440476Y12047619D01*
X28726190Y12047619D02*
X28726190Y13047619D01*
X28630952Y12904761D01*
X28535714Y12809523D01*
X28440476Y12761904D01*
X13607142Y-15622380D02*
X13273809Y-15146190D01*
X13035714Y-15622380D02*
X13035714Y-14622380D01*
X13416666Y-14622380D01*
X13511904Y-14670000D01*
X13559523Y-14717619D01*
X13607142Y-14812857D01*
X13607142Y-14955714D01*
X13559523Y-15050952D01*
X13511904Y-15098571D01*
X13416666Y-15146190D01*
X13035714Y-15146190D01*
X13940476Y-14622380D02*
X14559523Y-14622380D01*
X14226190Y-15003333D01*
X14369047Y-15003333D01*
X14464285Y-15050952D01*
X14511904Y-15098571D01*
X14559523Y-15193809D01*
X14559523Y-15431904D01*
X14511904Y-15527142D01*
X14464285Y-15574761D01*
X14369047Y-15622380D01*
X14083333Y-15622380D01*
X13988095Y-15574761D01*
X13940476Y-15527142D01*
X14940476Y-14717619D02*
X14988095Y-14670000D01*
X15083333Y-14622380D01*
X15321428Y-14622380D01*
X15416666Y-14670000D01*
X15464285Y-14717619D01*
X15511904Y-14812857D01*
X15511904Y-14908095D01*
X15464285Y-15050952D01*
X14892857Y-15622380D01*
X15511904Y-15622380D01*
X13607142Y-19952380D02*
X13273809Y-19476190D01*
X13035714Y-19952380D02*
X13035714Y-18952380D01*
X13416666Y-18952380D01*
X13511904Y-19000000D01*
X13559523Y-19047619D01*
X13607142Y-19142857D01*
X13607142Y-19285714D01*
X13559523Y-19380952D01*
X13511904Y-19428571D01*
X13416666Y-19476190D01*
X13035714Y-19476190D01*
X13940476Y-18952380D02*
X14559523Y-18952380D01*
X14226190Y-19333333D01*
X14369047Y-19333333D01*
X14464285Y-19380952D01*
X14511904Y-19428571D01*
X14559523Y-19523809D01*
X14559523Y-19761904D01*
X14511904Y-19857142D01*
X14464285Y-19904761D01*
X14369047Y-19952380D01*
X14083333Y-19952380D01*
X13988095Y-19904761D01*
X13940476Y-19857142D01*
X14892857Y-18952380D02*
X15511904Y-18952380D01*
X15178571Y-19333333D01*
X15321428Y-19333333D01*
X15416666Y-19380952D01*
X15464285Y-19428571D01*
X15511904Y-19523809D01*
X15511904Y-19761904D01*
X15464285Y-19857142D01*
X15416666Y-19904761D01*
X15321428Y-19952380D01*
X15035714Y-19952380D01*
X14940476Y-19904761D01*
X14892857Y-19857142D01*
X-10047619Y7509523D02*
X-10523809Y7176190D01*
X-10047619Y6938095D02*
X-11047619Y6938095D01*
X-11047619Y7319047D01*
X-11000000Y7414285D01*
X-10952380Y7461904D01*
X-10857142Y7509523D01*
X-10714285Y7509523D01*
X-10619047Y7461904D01*
X-10571428Y7414285D01*
X-10523809Y7319047D01*
X-10523809Y6938095D01*
X-10047619Y7938095D02*
X-11047619Y7938095D01*
X-10047619Y8509523D01*
X-11047619Y8509523D01*
X-10047619Y9509523D02*
X-10047619Y8938095D01*
X-10047619Y9223809D02*
X-11047619Y9223809D01*
X-10904761Y9128571D01*
X-10809523Y9033333D01*
X-10761904Y8938095D01*
X-25447619Y-10690476D02*
X-25923809Y-11023809D01*
X-25447619Y-11261904D02*
X-26447619Y-11261904D01*
X-26447619Y-10880952D01*
X-26400000Y-10785714D01*
X-26352380Y-10738095D01*
X-26257142Y-10690476D01*
X-26114285Y-10690476D01*
X-26019047Y-10738095D01*
X-25971428Y-10785714D01*
X-25923809Y-10880952D01*
X-25923809Y-11261904D01*
X-25447619Y-10261904D02*
X-26447619Y-10261904D01*
X-25447619Y-9690476D01*
X-26447619Y-9690476D01*
X-26352380Y-9261904D02*
X-26400000Y-9214285D01*
X-26447619Y-9119047D01*
X-26447619Y-8880952D01*
X-26400000Y-8785714D01*
X-26352380Y-8738095D01*
X-26257142Y-8690476D01*
X-26161904Y-8690476D01*
X-26019047Y-8738095D01*
X-25447619Y-9309523D01*
X-25447619Y-8690476D01*
D10*
X-8640000Y-40827621D02*
X-8571428Y-40850478D01*
X-8457142Y-40850478D01*
X-8411428Y-40827621D01*
X-8388571Y-40804764D01*
X-8365714Y-40759050D01*
X-8365714Y-40713336D01*
X-8388571Y-40667621D01*
X-8411428Y-40644764D01*
X-8457142Y-40621907D01*
X-8548571Y-40599050D01*
X-8594285Y-40576193D01*
X-8617142Y-40553336D01*
X-8640000Y-40507621D01*
X-8640000Y-40461907D01*
X-8617142Y-40416193D01*
X-8594285Y-40393336D01*
X-8548571Y-40370478D01*
X-8434285Y-40370478D01*
X-8365714Y-40393336D01*
X-8205714Y-40370478D02*
X-8091428Y-40850478D01*
X-8000000Y-40507621D01*
X-7908571Y-40850478D01*
X-7794285Y-40370478D01*
X-7360000Y-40850478D02*
X-7634285Y-40850478D01*
X-7497142Y-40850478D02*
X-7497142Y-40370478D01*
X-7542857Y-40439050D01*
X-7588571Y-40484764D01*
X-7634285Y-40507621D01*
D13*
X23452371Y-261904D02*
X24261895Y-261904D01*
X24357133Y-214285D01*
X24404752Y-166666D01*
X24452371Y-71428D01*
X24452371Y119047D01*
X24404752Y214285D01*
X24357133Y261904D01*
X24261895Y309523D01*
X23452371Y309523D01*
X24452371Y1309523D02*
X24452371Y738095D01*
X24452371Y1023809D02*
X23452371Y1023809D01*
X23595229Y928571D01*
X23690467Y833333D01*
X23738086Y738095D01*
%LPC*%
D14*
X21100000Y-20100000D03*
X21100000Y-16100000D03*
G36*
G01*
X18650000Y-675000D02*
X18650000Y-825000D01*
G75*
G02*
X18575000Y-900000I-75000J0D01*
G01*
X17175000Y-900000D01*
G75*
G02*
X17100000Y-825000I0J75000D01*
G01*
X17100000Y-675000D01*
G75*
G02*
X17175000Y-600000I75000J0D01*
G01*
X18575000Y-600000D01*
G75*
G02*
X18650000Y-675000I0J-75000D01*
G01*
G37*
G36*
G01*
X18650000Y-175000D02*
X18650000Y-325000D01*
G75*
G02*
X18575000Y-400000I-75000J0D01*
G01*
X17175000Y-400000D01*
G75*
G02*
X17100000Y-325000I0J75000D01*
G01*
X17100000Y-175000D01*
G75*
G02*
X17175000Y-100000I75000J0D01*
G01*
X18575000Y-100000D01*
G75*
G02*
X18650000Y-175000I0J-75000D01*
G01*
G37*
G36*
G01*
X18650000Y325000D02*
X18650000Y175000D01*
G75*
G02*
X18575000Y100000I-75000J0D01*
G01*
X17175000Y100000D01*
G75*
G02*
X17100000Y175000I0J75000D01*
G01*
X17100000Y325000D01*
G75*
G02*
X17175000Y400000I75000J0D01*
G01*
X18575000Y400000D01*
G75*
G02*
X18650000Y325000I0J-75000D01*
G01*
G37*
G36*
G01*
X18650000Y825000D02*
X18650000Y675000D01*
G75*
G02*
X18575000Y600000I-75000J0D01*
G01*
X17175000Y600000D01*
G75*
G02*
X17100000Y675000I0J75000D01*
G01*
X17100000Y825000D01*
G75*
G02*
X17175000Y900000I75000J0D01*
G01*
X18575000Y900000D01*
G75*
G02*
X18650000Y825000I0J-75000D01*
G01*
G37*
G36*
G01*
X18650000Y1325000D02*
X18650000Y1175000D01*
G75*
G02*
X18575000Y1100000I-75000J0D01*
G01*
X17175000Y1100000D01*
G75*
G02*
X17100000Y1175000I0J75000D01*
G01*
X17100000Y1325000D01*
G75*
G02*
X17175000Y1400000I75000J0D01*
G01*
X18575000Y1400000D01*
G75*
G02*
X18650000Y1325000I0J-75000D01*
G01*
G37*
G36*
G01*
X18650000Y1825000D02*
X18650000Y1675000D01*
G75*
G02*
X18575000Y1600000I-75000J0D01*
G01*
X17175000Y1600000D01*
G75*
G02*
X17100000Y1675000I0J75000D01*
G01*
X17100000Y1825000D01*
G75*
G02*
X17175000Y1900000I75000J0D01*
G01*
X18575000Y1900000D01*
G75*
G02*
X18650000Y1825000I0J-75000D01*
G01*
G37*
G36*
G01*
X18650000Y2325000D02*
X18650000Y2175000D01*
G75*
G02*
X18575000Y2100000I-75000J0D01*
G01*
X17175000Y2100000D01*
G75*
G02*
X17100000Y2175000I0J75000D01*
G01*
X17100000Y2325000D01*
G75*
G02*
X17175000Y2400000I75000J0D01*
G01*
X18575000Y2400000D01*
G75*
G02*
X18650000Y2325000I0J-75000D01*
G01*
G37*
G36*
G01*
X18650000Y2825000D02*
X18650000Y2675000D01*
G75*
G02*
X18575000Y2600000I-75000J0D01*
G01*
X17175000Y2600000D01*
G75*
G02*
X17100000Y2675000I0J75000D01*
G01*
X17100000Y2825000D01*
G75*
G02*
X17175000Y2900000I75000J0D01*
G01*
X18575000Y2900000D01*
G75*
G02*
X18650000Y2825000I0J-75000D01*
G01*
G37*
G36*
G01*
X18650000Y3325000D02*
X18650000Y3175000D01*
G75*
G02*
X18575000Y3100000I-75000J0D01*
G01*
X17175000Y3100000D01*
G75*
G02*
X17100000Y3175000I0J75000D01*
G01*
X17100000Y3325000D01*
G75*
G02*
X17175000Y3400000I75000J0D01*
G01*
X18575000Y3400000D01*
G75*
G02*
X18650000Y3325000I0J-75000D01*
G01*
G37*
G36*
G01*
X18650000Y3825000D02*
X18650000Y3675000D01*
G75*
G02*
X18575000Y3600000I-75000J0D01*
G01*
X17175000Y3600000D01*
G75*
G02*
X17100000Y3675000I0J75000D01*
G01*
X17100000Y3825000D01*
G75*
G02*
X17175000Y3900000I75000J0D01*
G01*
X18575000Y3900000D01*
G75*
G02*
X18650000Y3825000I0J-75000D01*
G01*
G37*
G36*
G01*
X18650000Y4325000D02*
X18650000Y4175000D01*
G75*
G02*
X18575000Y4100000I-75000J0D01*
G01*
X17175000Y4100000D01*
G75*
G02*
X17100000Y4175000I0J75000D01*
G01*
X17100000Y4325000D01*
G75*
G02*
X17175000Y4400000I75000J0D01*
G01*
X18575000Y4400000D01*
G75*
G02*
X18650000Y4325000I0J-75000D01*
G01*
G37*
G36*
G01*
X18650000Y4825000D02*
X18650000Y4675000D01*
G75*
G02*
X18575000Y4600000I-75000J0D01*
G01*
X17175000Y4600000D01*
G75*
G02*
X17100000Y4675000I0J75000D01*
G01*
X17100000Y4825000D01*
G75*
G02*
X17175000Y4900000I75000J0D01*
G01*
X18575000Y4900000D01*
G75*
G02*
X18650000Y4825000I0J-75000D01*
G01*
G37*
G36*
G01*
X18650000Y5325000D02*
X18650000Y5175000D01*
G75*
G02*
X18575000Y5100000I-75000J0D01*
G01*
X17175000Y5100000D01*
G75*
G02*
X17100000Y5175000I0J75000D01*
G01*
X17100000Y5325000D01*
G75*
G02*
X17175000Y5400000I75000J0D01*
G01*
X18575000Y5400000D01*
G75*
G02*
X18650000Y5325000I0J-75000D01*
G01*
G37*
G36*
G01*
X18650000Y5825000D02*
X18650000Y5675000D01*
G75*
G02*
X18575000Y5600000I-75000J0D01*
G01*
X17175000Y5600000D01*
G75*
G02*
X17100000Y5675000I0J75000D01*
G01*
X17100000Y5825000D01*
G75*
G02*
X17175000Y5900000I75000J0D01*
G01*
X18575000Y5900000D01*
G75*
G02*
X18650000Y5825000I0J-75000D01*
G01*
G37*
G36*
G01*
X18650000Y6325000D02*
X18650000Y6175000D01*
G75*
G02*
X18575000Y6100000I-75000J0D01*
G01*
X17175000Y6100000D01*
G75*
G02*
X17100000Y6175000I0J75000D01*
G01*
X17100000Y6325000D01*
G75*
G02*
X17175000Y6400000I75000J0D01*
G01*
X18575000Y6400000D01*
G75*
G02*
X18650000Y6325000I0J-75000D01*
G01*
G37*
G36*
G01*
X18650000Y6825000D02*
X18650000Y6675000D01*
G75*
G02*
X18575000Y6600000I-75000J0D01*
G01*
X17175000Y6600000D01*
G75*
G02*
X17100000Y6675000I0J75000D01*
G01*
X17100000Y6825000D01*
G75*
G02*
X17175000Y6900000I75000J0D01*
G01*
X18575000Y6900000D01*
G75*
G02*
X18650000Y6825000I0J-75000D01*
G01*
G37*
G36*
G01*
X16100000Y9375000D02*
X16100000Y7975000D01*
G75*
G02*
X16025000Y7900000I-75000J0D01*
G01*
X15875000Y7900000D01*
G75*
G02*
X15800000Y7975000I0J75000D01*
G01*
X15800000Y9375000D01*
G75*
G02*
X15875000Y9450000I75000J0D01*
G01*
X16025000Y9450000D01*
G75*
G02*
X16100000Y9375000I0J-75000D01*
G01*
G37*
G36*
G01*
X15600000Y9375000D02*
X15600000Y7975000D01*
G75*
G02*
X15525000Y7900000I-75000J0D01*
G01*
X15375000Y7900000D01*
G75*
G02*
X15300000Y7975000I0J75000D01*
G01*
X15300000Y9375000D01*
G75*
G02*
X15375000Y9450000I75000J0D01*
G01*
X15525000Y9450000D01*
G75*
G02*
X15600000Y9375000I0J-75000D01*
G01*
G37*
G36*
G01*
X15100000Y9375000D02*
X15100000Y7975000D01*
G75*
G02*
X15025000Y7900000I-75000J0D01*
G01*
X14875000Y7900000D01*
G75*
G02*
X14800000Y7975000I0J75000D01*
G01*
X14800000Y9375000D01*
G75*
G02*
X14875000Y9450000I75000J0D01*
G01*
X15025000Y9450000D01*
G75*
G02*
X15100000Y9375000I0J-75000D01*
G01*
G37*
G36*
G01*
X14600000Y9375000D02*
X14600000Y7975000D01*
G75*
G02*
X14525000Y7900000I-75000J0D01*
G01*
X14375000Y7900000D01*
G75*
G02*
X14300000Y7975000I0J75000D01*
G01*
X14300000Y9375000D01*
G75*
G02*
X14375000Y9450000I75000J0D01*
G01*
X14525000Y9450000D01*
G75*
G02*
X14600000Y9375000I0J-75000D01*
G01*
G37*
G36*
G01*
X14100000Y9375000D02*
X14100000Y7975000D01*
G75*
G02*
X14025000Y7900000I-75000J0D01*
G01*
X13875000Y7900000D01*
G75*
G02*
X13800000Y7975000I0J75000D01*
G01*
X13800000Y9375000D01*
G75*
G02*
X13875000Y9450000I75000J0D01*
G01*
X14025000Y9450000D01*
G75*
G02*
X14100000Y9375000I0J-75000D01*
G01*
G37*
G36*
G01*
X13600000Y9375000D02*
X13600000Y7975000D01*
G75*
G02*
X13525000Y7900000I-75000J0D01*
G01*
X13375000Y7900000D01*
G75*
G02*
X13300000Y7975000I0J75000D01*
G01*
X13300000Y9375000D01*
G75*
G02*
X13375000Y9450000I75000J0D01*
G01*
X13525000Y9450000D01*
G75*
G02*
X13600000Y9375000I0J-75000D01*
G01*
G37*
G36*
G01*
X13100000Y9375000D02*
X13100000Y7975000D01*
G75*
G02*
X13025000Y7900000I-75000J0D01*
G01*
X12875000Y7900000D01*
G75*
G02*
X12800000Y7975000I0J75000D01*
G01*
X12800000Y9375000D01*
G75*
G02*
X12875000Y9450000I75000J0D01*
G01*
X13025000Y9450000D01*
G75*
G02*
X13100000Y9375000I0J-75000D01*
G01*
G37*
G36*
G01*
X12600000Y9375000D02*
X12600000Y7975000D01*
G75*
G02*
X12525000Y7900000I-75000J0D01*
G01*
X12375000Y7900000D01*
G75*
G02*
X12300000Y7975000I0J75000D01*
G01*
X12300000Y9375000D01*
G75*
G02*
X12375000Y9450000I75000J0D01*
G01*
X12525000Y9450000D01*
G75*
G02*
X12600000Y9375000I0J-75000D01*
G01*
G37*
G36*
G01*
X12100000Y9375000D02*
X12100000Y7975000D01*
G75*
G02*
X12025000Y7900000I-75000J0D01*
G01*
X11875000Y7900000D01*
G75*
G02*
X11800000Y7975000I0J75000D01*
G01*
X11800000Y9375000D01*
G75*
G02*
X11875000Y9450000I75000J0D01*
G01*
X12025000Y9450000D01*
G75*
G02*
X12100000Y9375000I0J-75000D01*
G01*
G37*
G36*
G01*
X11600000Y9375000D02*
X11600000Y7975000D01*
G75*
G02*
X11525000Y7900000I-75000J0D01*
G01*
X11375000Y7900000D01*
G75*
G02*
X11300000Y7975000I0J75000D01*
G01*
X11300000Y9375000D01*
G75*
G02*
X11375000Y9450000I75000J0D01*
G01*
X11525000Y9450000D01*
G75*
G02*
X11600000Y9375000I0J-75000D01*
G01*
G37*
G36*
G01*
X11100000Y9375000D02*
X11100000Y7975000D01*
G75*
G02*
X11025000Y7900000I-75000J0D01*
G01*
X10875000Y7900000D01*
G75*
G02*
X10800000Y7975000I0J75000D01*
G01*
X10800000Y9375000D01*
G75*
G02*
X10875000Y9450000I75000J0D01*
G01*
X11025000Y9450000D01*
G75*
G02*
X11100000Y9375000I0J-75000D01*
G01*
G37*
G36*
G01*
X10600000Y9375000D02*
X10600000Y7975000D01*
G75*
G02*
X10525000Y7900000I-75000J0D01*
G01*
X10375000Y7900000D01*
G75*
G02*
X10300000Y7975000I0J75000D01*
G01*
X10300000Y9375000D01*
G75*
G02*
X10375000Y9450000I75000J0D01*
G01*
X10525000Y9450000D01*
G75*
G02*
X10600000Y9375000I0J-75000D01*
G01*
G37*
G36*
G01*
X10100000Y9375000D02*
X10100000Y7975000D01*
G75*
G02*
X10025000Y7900000I-75000J0D01*
G01*
X9875000Y7900000D01*
G75*
G02*
X9800000Y7975000I0J75000D01*
G01*
X9800000Y9375000D01*
G75*
G02*
X9875000Y9450000I75000J0D01*
G01*
X10025000Y9450000D01*
G75*
G02*
X10100000Y9375000I0J-75000D01*
G01*
G37*
G36*
G01*
X9600000Y9375000D02*
X9600000Y7975000D01*
G75*
G02*
X9525000Y7900000I-75000J0D01*
G01*
X9375000Y7900000D01*
G75*
G02*
X9300000Y7975000I0J75000D01*
G01*
X9300000Y9375000D01*
G75*
G02*
X9375000Y9450000I75000J0D01*
G01*
X9525000Y9450000D01*
G75*
G02*
X9600000Y9375000I0J-75000D01*
G01*
G37*
G36*
G01*
X9100000Y9375000D02*
X9100000Y7975000D01*
G75*
G02*
X9025000Y7900000I-75000J0D01*
G01*
X8875000Y7900000D01*
G75*
G02*
X8800000Y7975000I0J75000D01*
G01*
X8800000Y9375000D01*
G75*
G02*
X8875000Y9450000I75000J0D01*
G01*
X9025000Y9450000D01*
G75*
G02*
X9100000Y9375000I0J-75000D01*
G01*
G37*
G36*
G01*
X8600000Y9375000D02*
X8600000Y7975000D01*
G75*
G02*
X8525000Y7900000I-75000J0D01*
G01*
X8375000Y7900000D01*
G75*
G02*
X8300000Y7975000I0J75000D01*
G01*
X8300000Y9375000D01*
G75*
G02*
X8375000Y9450000I75000J0D01*
G01*
X8525000Y9450000D01*
G75*
G02*
X8600000Y9375000I0J-75000D01*
G01*
G37*
G36*
G01*
X7300000Y6825000D02*
X7300000Y6675000D01*
G75*
G02*
X7225000Y6600000I-75000J0D01*
G01*
X5825000Y6600000D01*
G75*
G02*
X5750000Y6675000I0J75000D01*
G01*
X5750000Y6825000D01*
G75*
G02*
X5825000Y6900000I75000J0D01*
G01*
X7225000Y6900000D01*
G75*
G02*
X7300000Y6825000I0J-75000D01*
G01*
G37*
G36*
G01*
X7300000Y6325000D02*
X7300000Y6175000D01*
G75*
G02*
X7225000Y6100000I-75000J0D01*
G01*
X5825000Y6100000D01*
G75*
G02*
X5750000Y6175000I0J75000D01*
G01*
X5750000Y6325000D01*
G75*
G02*
X5825000Y6400000I75000J0D01*
G01*
X7225000Y6400000D01*
G75*
G02*
X7300000Y6325000I0J-75000D01*
G01*
G37*
G36*
G01*
X7300000Y5825000D02*
X7300000Y5675000D01*
G75*
G02*
X7225000Y5600000I-75000J0D01*
G01*
X5825000Y5600000D01*
G75*
G02*
X5750000Y5675000I0J75000D01*
G01*
X5750000Y5825000D01*
G75*
G02*
X5825000Y5900000I75000J0D01*
G01*
X7225000Y5900000D01*
G75*
G02*
X7300000Y5825000I0J-75000D01*
G01*
G37*
G36*
G01*
X7300000Y5325000D02*
X7300000Y5175000D01*
G75*
G02*
X7225000Y5100000I-75000J0D01*
G01*
X5825000Y5100000D01*
G75*
G02*
X5750000Y5175000I0J75000D01*
G01*
X5750000Y5325000D01*
G75*
G02*
X5825000Y5400000I75000J0D01*
G01*
X7225000Y5400000D01*
G75*
G02*
X7300000Y5325000I0J-75000D01*
G01*
G37*
G36*
G01*
X7300000Y4825000D02*
X7300000Y4675000D01*
G75*
G02*
X7225000Y4600000I-75000J0D01*
G01*
X5825000Y4600000D01*
G75*
G02*
X5750000Y4675000I0J75000D01*
G01*
X5750000Y4825000D01*
G75*
G02*
X5825000Y4900000I75000J0D01*
G01*
X7225000Y4900000D01*
G75*
G02*
X7300000Y4825000I0J-75000D01*
G01*
G37*
G36*
G01*
X7300000Y4325000D02*
X7300000Y4175000D01*
G75*
G02*
X7225000Y4100000I-75000J0D01*
G01*
X5825000Y4100000D01*
G75*
G02*
X5750000Y4175000I0J75000D01*
G01*
X5750000Y4325000D01*
G75*
G02*
X5825000Y4400000I75000J0D01*
G01*
X7225000Y4400000D01*
G75*
G02*
X7300000Y4325000I0J-75000D01*
G01*
G37*
G36*
G01*
X7300000Y3825000D02*
X7300000Y3675000D01*
G75*
G02*
X7225000Y3600000I-75000J0D01*
G01*
X5825000Y3600000D01*
G75*
G02*
X5750000Y3675000I0J75000D01*
G01*
X5750000Y3825000D01*
G75*
G02*
X5825000Y3900000I75000J0D01*
G01*
X7225000Y3900000D01*
G75*
G02*
X7300000Y3825000I0J-75000D01*
G01*
G37*
G36*
G01*
X7300000Y3325000D02*
X7300000Y3175000D01*
G75*
G02*
X7225000Y3100000I-75000J0D01*
G01*
X5825000Y3100000D01*
G75*
G02*
X5750000Y3175000I0J75000D01*
G01*
X5750000Y3325000D01*
G75*
G02*
X5825000Y3400000I75000J0D01*
G01*
X7225000Y3400000D01*
G75*
G02*
X7300000Y3325000I0J-75000D01*
G01*
G37*
G36*
G01*
X7300000Y2825000D02*
X7300000Y2675000D01*
G75*
G02*
X7225000Y2600000I-75000J0D01*
G01*
X5825000Y2600000D01*
G75*
G02*
X5750000Y2675000I0J75000D01*
G01*
X5750000Y2825000D01*
G75*
G02*
X5825000Y2900000I75000J0D01*
G01*
X7225000Y2900000D01*
G75*
G02*
X7300000Y2825000I0J-75000D01*
G01*
G37*
G36*
G01*
X7300000Y2325000D02*
X7300000Y2175000D01*
G75*
G02*
X7225000Y2100000I-75000J0D01*
G01*
X5825000Y2100000D01*
G75*
G02*
X5750000Y2175000I0J75000D01*
G01*
X5750000Y2325000D01*
G75*
G02*
X5825000Y2400000I75000J0D01*
G01*
X7225000Y2400000D01*
G75*
G02*
X7300000Y2325000I0J-75000D01*
G01*
G37*
G36*
G01*
X7300000Y1825000D02*
X7300000Y1675000D01*
G75*
G02*
X7225000Y1600000I-75000J0D01*
G01*
X5825000Y1600000D01*
G75*
G02*
X5750000Y1675000I0J75000D01*
G01*
X5750000Y1825000D01*
G75*
G02*
X5825000Y1900000I75000J0D01*
G01*
X7225000Y1900000D01*
G75*
G02*
X7300000Y1825000I0J-75000D01*
G01*
G37*
G36*
G01*
X7300000Y1325000D02*
X7300000Y1175000D01*
G75*
G02*
X7225000Y1100000I-75000J0D01*
G01*
X5825000Y1100000D01*
G75*
G02*
X5750000Y1175000I0J75000D01*
G01*
X5750000Y1325000D01*
G75*
G02*
X5825000Y1400000I75000J0D01*
G01*
X7225000Y1400000D01*
G75*
G02*
X7300000Y1325000I0J-75000D01*
G01*
G37*
G36*
G01*
X7300000Y825000D02*
X7300000Y675000D01*
G75*
G02*
X7225000Y600000I-75000J0D01*
G01*
X5825000Y600000D01*
G75*
G02*
X5750000Y675000I0J75000D01*
G01*
X5750000Y825000D01*
G75*
G02*
X5825000Y900000I75000J0D01*
G01*
X7225000Y900000D01*
G75*
G02*
X7300000Y825000I0J-75000D01*
G01*
G37*
G36*
G01*
X7300000Y325000D02*
X7300000Y175000D01*
G75*
G02*
X7225000Y100000I-75000J0D01*
G01*
X5825000Y100000D01*
G75*
G02*
X5750000Y175000I0J75000D01*
G01*
X5750000Y325000D01*
G75*
G02*
X5825000Y400000I75000J0D01*
G01*
X7225000Y400000D01*
G75*
G02*
X7300000Y325000I0J-75000D01*
G01*
G37*
G36*
G01*
X7300000Y-175000D02*
X7300000Y-325000D01*
G75*
G02*
X7225000Y-400000I-75000J0D01*
G01*
X5825000Y-400000D01*
G75*
G02*
X5750000Y-325000I0J75000D01*
G01*
X5750000Y-175000D01*
G75*
G02*
X5825000Y-100000I75000J0D01*
G01*
X7225000Y-100000D01*
G75*
G02*
X7300000Y-175000I0J-75000D01*
G01*
G37*
G36*
G01*
X7300000Y-675000D02*
X7300000Y-825000D01*
G75*
G02*
X7225000Y-900000I-75000J0D01*
G01*
X5825000Y-900000D01*
G75*
G02*
X5750000Y-825000I0J75000D01*
G01*
X5750000Y-675000D01*
G75*
G02*
X5825000Y-600000I75000J0D01*
G01*
X7225000Y-600000D01*
G75*
G02*
X7300000Y-675000I0J-75000D01*
G01*
G37*
G36*
G01*
X8600000Y-1975000D02*
X8600000Y-3375000D01*
G75*
G02*
X8525000Y-3450000I-75000J0D01*
G01*
X8375000Y-3450000D01*
G75*
G02*
X8300000Y-3375000I0J75000D01*
G01*
X8300000Y-1975000D01*
G75*
G02*
X8375000Y-1900000I75000J0D01*
G01*
X8525000Y-1900000D01*
G75*
G02*
X8600000Y-1975000I0J-75000D01*
G01*
G37*
G36*
G01*
X9100000Y-1975000D02*
X9100000Y-3375000D01*
G75*
G02*
X9025000Y-3450000I-75000J0D01*
G01*
X8875000Y-3450000D01*
G75*
G02*
X8800000Y-3375000I0J75000D01*
G01*
X8800000Y-1975000D01*
G75*
G02*
X8875000Y-1900000I75000J0D01*
G01*
X9025000Y-1900000D01*
G75*
G02*
X9100000Y-1975000I0J-75000D01*
G01*
G37*
G36*
G01*
X9600000Y-1975000D02*
X9600000Y-3375000D01*
G75*
G02*
X9525000Y-3450000I-75000J0D01*
G01*
X9375000Y-3450000D01*
G75*
G02*
X9300000Y-3375000I0J75000D01*
G01*
X9300000Y-1975000D01*
G75*
G02*
X9375000Y-1900000I75000J0D01*
G01*
X9525000Y-1900000D01*
G75*
G02*
X9600000Y-1975000I0J-75000D01*
G01*
G37*
G36*
G01*
X10100000Y-1975000D02*
X10100000Y-3375000D01*
G75*
G02*
X10025000Y-3450000I-75000J0D01*
G01*
X9875000Y-3450000D01*
G75*
G02*
X9800000Y-3375000I0J75000D01*
G01*
X9800000Y-1975000D01*
G75*
G02*
X9875000Y-1900000I75000J0D01*
G01*
X10025000Y-1900000D01*
G75*
G02*
X10100000Y-1975000I0J-75000D01*
G01*
G37*
G36*
G01*
X10600000Y-1975000D02*
X10600000Y-3375000D01*
G75*
G02*
X10525000Y-3450000I-75000J0D01*
G01*
X10375000Y-3450000D01*
G75*
G02*
X10300000Y-3375000I0J75000D01*
G01*
X10300000Y-1975000D01*
G75*
G02*
X10375000Y-1900000I75000J0D01*
G01*
X10525000Y-1900000D01*
G75*
G02*
X10600000Y-1975000I0J-75000D01*
G01*
G37*
G36*
G01*
X11100000Y-1975000D02*
X11100000Y-3375000D01*
G75*
G02*
X11025000Y-3450000I-75000J0D01*
G01*
X10875000Y-3450000D01*
G75*
G02*
X10800000Y-3375000I0J75000D01*
G01*
X10800000Y-1975000D01*
G75*
G02*
X10875000Y-1900000I75000J0D01*
G01*
X11025000Y-1900000D01*
G75*
G02*
X11100000Y-1975000I0J-75000D01*
G01*
G37*
G36*
G01*
X11600000Y-1975000D02*
X11600000Y-3375000D01*
G75*
G02*
X11525000Y-3450000I-75000J0D01*
G01*
X11375000Y-3450000D01*
G75*
G02*
X11300000Y-3375000I0J75000D01*
G01*
X11300000Y-1975000D01*
G75*
G02*
X11375000Y-1900000I75000J0D01*
G01*
X11525000Y-1900000D01*
G75*
G02*
X11600000Y-1975000I0J-75000D01*
G01*
G37*
G36*
G01*
X12100000Y-1975000D02*
X12100000Y-3375000D01*
G75*
G02*
X12025000Y-3450000I-75000J0D01*
G01*
X11875000Y-3450000D01*
G75*
G02*
X11800000Y-3375000I0J75000D01*
G01*
X11800000Y-1975000D01*
G75*
G02*
X11875000Y-1900000I75000J0D01*
G01*
X12025000Y-1900000D01*
G75*
G02*
X12100000Y-1975000I0J-75000D01*
G01*
G37*
G36*
G01*
X12600000Y-1975000D02*
X12600000Y-3375000D01*
G75*
G02*
X12525000Y-3450000I-75000J0D01*
G01*
X12375000Y-3450000D01*
G75*
G02*
X12300000Y-3375000I0J75000D01*
G01*
X12300000Y-1975000D01*
G75*
G02*
X12375000Y-1900000I75000J0D01*
G01*
X12525000Y-1900000D01*
G75*
G02*
X12600000Y-1975000I0J-75000D01*
G01*
G37*
G36*
G01*
X13100000Y-1975000D02*
X13100000Y-3375000D01*
G75*
G02*
X13025000Y-3450000I-75000J0D01*
G01*
X12875000Y-3450000D01*
G75*
G02*
X12800000Y-3375000I0J75000D01*
G01*
X12800000Y-1975000D01*
G75*
G02*
X12875000Y-1900000I75000J0D01*
G01*
X13025000Y-1900000D01*
G75*
G02*
X13100000Y-1975000I0J-75000D01*
G01*
G37*
G36*
G01*
X13600000Y-1975000D02*
X13600000Y-3375000D01*
G75*
G02*
X13525000Y-3450000I-75000J0D01*
G01*
X13375000Y-3450000D01*
G75*
G02*
X13300000Y-3375000I0J75000D01*
G01*
X13300000Y-1975000D01*
G75*
G02*
X13375000Y-1900000I75000J0D01*
G01*
X13525000Y-1900000D01*
G75*
G02*
X13600000Y-1975000I0J-75000D01*
G01*
G37*
G36*
G01*
X14100000Y-1975000D02*
X14100000Y-3375000D01*
G75*
G02*
X14025000Y-3450000I-75000J0D01*
G01*
X13875000Y-3450000D01*
G75*
G02*
X13800000Y-3375000I0J75000D01*
G01*
X13800000Y-1975000D01*
G75*
G02*
X13875000Y-1900000I75000J0D01*
G01*
X14025000Y-1900000D01*
G75*
G02*
X14100000Y-1975000I0J-75000D01*
G01*
G37*
G36*
G01*
X14600000Y-1975000D02*
X14600000Y-3375000D01*
G75*
G02*
X14525000Y-3450000I-75000J0D01*
G01*
X14375000Y-3450000D01*
G75*
G02*
X14300000Y-3375000I0J75000D01*
G01*
X14300000Y-1975000D01*
G75*
G02*
X14375000Y-1900000I75000J0D01*
G01*
X14525000Y-1900000D01*
G75*
G02*
X14600000Y-1975000I0J-75000D01*
G01*
G37*
G36*
G01*
X15100000Y-1975000D02*
X15100000Y-3375000D01*
G75*
G02*
X15025000Y-3450000I-75000J0D01*
G01*
X14875000Y-3450000D01*
G75*
G02*
X14800000Y-3375000I0J75000D01*
G01*
X14800000Y-1975000D01*
G75*
G02*
X14875000Y-1900000I75000J0D01*
G01*
X15025000Y-1900000D01*
G75*
G02*
X15100000Y-1975000I0J-75000D01*
G01*
G37*
G36*
G01*
X15600000Y-1975000D02*
X15600000Y-3375000D01*
G75*
G02*
X15525000Y-3450000I-75000J0D01*
G01*
X15375000Y-3450000D01*
G75*
G02*
X15300000Y-3375000I0J75000D01*
G01*
X15300000Y-1975000D01*
G75*
G02*
X15375000Y-1900000I75000J0D01*
G01*
X15525000Y-1900000D01*
G75*
G02*
X15600000Y-1975000I0J-75000D01*
G01*
G37*
G36*
G01*
X16100000Y-1975000D02*
X16100000Y-3375000D01*
G75*
G02*
X16025000Y-3450000I-75000J0D01*
G01*
X15875000Y-3450000D01*
G75*
G02*
X15800000Y-3375000I0J75000D01*
G01*
X15800000Y-1975000D01*
G75*
G02*
X15875000Y-1900000I75000J0D01*
G01*
X16025000Y-1900000D01*
G75*
G02*
X16100000Y-1975000I0J-75000D01*
G01*
G37*
G36*
G01*
X8584798Y51629684D02*
X8040840Y51710979D01*
G75*
G02*
X7872599Y51938344I29562J197803D01*
G01*
X7931723Y52333951D01*
G75*
G02*
X8159088Y52502192I197803J-29562D01*
G01*
X8703046Y52420897D01*
G75*
G02*
X8871287Y52193532I-29562J-197803D01*
G01*
X8812163Y51797925D01*
G75*
G02*
X8584798Y51629684I-197803J29562D01*
G01*
G37*
G36*
G01*
X8340912Y49997808D02*
X7796954Y50079103D01*
G75*
G02*
X7628713Y50306468I29562J197803D01*
G01*
X7687837Y50702075D01*
G75*
G02*
X7915202Y50870316I197803J-29562D01*
G01*
X8459160Y50789021D01*
G75*
G02*
X8627401Y50561656I-29562J-197803D01*
G01*
X8568277Y50166049D01*
G75*
G02*
X8340912Y49997808I-197803J29562D01*
G01*
G37*
D15*
X0Y0D03*
D16*
G36*
X-932196Y1874231D02*
G01*
X-924693Y1871955D01*
X-917777Y1868259D01*
X-911716Y1863284D01*
X-906741Y1857223D01*
X-903045Y1850307D01*
X-900769Y1842804D01*
X-900000Y1835000D01*
X-900000Y1165000D01*
X-900769Y1157196D01*
X-903045Y1149693D01*
X-906741Y1142777D01*
X-911716Y1136716D01*
X-917777Y1131741D01*
X-924693Y1128045D01*
X-932196Y1125769D01*
X-940000Y1125000D01*
X-963431Y1125000D01*
X-971235Y1125769D01*
X-978738Y1128045D01*
X-985654Y1131741D01*
X-991715Y1136716D01*
X-1088284Y1233285D01*
X-1093259Y1239346D01*
X-1096955Y1246262D01*
X-1099231Y1253765D01*
X-1100000Y1261569D01*
X-1100000Y1835000D01*
X-1099231Y1842804D01*
X-1096955Y1850307D01*
X-1093259Y1857223D01*
X-1088284Y1863284D01*
X-1082223Y1868259D01*
X-1075307Y1871955D01*
X-1067804Y1874231D01*
X-1060000Y1875000D01*
X-940000Y1875000D01*
X-932196Y1874231D01*
G37*
G36*
G01*
X-700000Y1175000D02*
X-700000Y1825000D01*
G75*
G02*
X-650000Y1875000I50000J0D01*
G01*
X-550000Y1875000D01*
G75*
G02*
X-500000Y1825000I0J-50000D01*
G01*
X-500000Y1175000D01*
G75*
G02*
X-550000Y1125000I-50000J0D01*
G01*
X-650000Y1125000D01*
G75*
G02*
X-700000Y1175000I0J50000D01*
G01*
G37*
G36*
G01*
X-300000Y1175000D02*
X-300000Y1825000D01*
G75*
G02*
X-250000Y1875000I50000J0D01*
G01*
X-150000Y1875000D01*
G75*
G02*
X-100000Y1825000I0J-50000D01*
G01*
X-100000Y1175000D01*
G75*
G02*
X-150000Y1125000I-50000J0D01*
G01*
X-250000Y1125000D01*
G75*
G02*
X-300000Y1175000I0J50000D01*
G01*
G37*
G36*
G01*
X100000Y1175000D02*
X100000Y1825000D01*
G75*
G02*
X150000Y1875000I50000J0D01*
G01*
X250000Y1875000D01*
G75*
G02*
X300000Y1825000I0J-50000D01*
G01*
X300000Y1175000D01*
G75*
G02*
X250000Y1125000I-50000J0D01*
G01*
X150000Y1125000D01*
G75*
G02*
X100000Y1175000I0J50000D01*
G01*
G37*
G36*
G01*
X500000Y1175000D02*
X500000Y1825000D01*
G75*
G02*
X550000Y1875000I50000J0D01*
G01*
X650000Y1875000D01*
G75*
G02*
X700000Y1825000I0J-50000D01*
G01*
X700000Y1175000D01*
G75*
G02*
X650000Y1125000I-50000J0D01*
G01*
X550000Y1125000D01*
G75*
G02*
X500000Y1175000I0J50000D01*
G01*
G37*
G36*
X1067804Y1874231D02*
G01*
X1075307Y1871955D01*
X1082223Y1868259D01*
X1088284Y1863284D01*
X1093259Y1857223D01*
X1096955Y1850307D01*
X1099231Y1842804D01*
X1100000Y1835000D01*
X1100000Y1261569D01*
X1099231Y1253765D01*
X1096955Y1246262D01*
X1093259Y1239346D01*
X1088284Y1233285D01*
X991715Y1136716D01*
X985654Y1131741D01*
X978738Y1128045D01*
X971235Y1125769D01*
X963431Y1125000D01*
X940000Y1125000D01*
X932196Y1125769D01*
X924693Y1128045D01*
X917777Y1131741D01*
X911716Y1136716D01*
X906741Y1142777D01*
X903045Y1149693D01*
X900769Y1157196D01*
X900000Y1165000D01*
X900000Y1835000D01*
X900769Y1842804D01*
X903045Y1850307D01*
X906741Y1857223D01*
X911716Y1863284D01*
X917777Y1868259D01*
X924693Y1871955D01*
X932196Y1874231D01*
X940000Y1875000D01*
X1060000Y1875000D01*
X1067804Y1874231D01*
G37*
G36*
X1842804Y1099231D02*
G01*
X1850307Y1096955D01*
X1857223Y1093259D01*
X1863284Y1088284D01*
X1868259Y1082223D01*
X1871955Y1075307D01*
X1874231Y1067804D01*
X1875000Y1060000D01*
X1875000Y940000D01*
X1874231Y932196D01*
X1871955Y924693D01*
X1868259Y917777D01*
X1863284Y911716D01*
X1857223Y906741D01*
X1850307Y903045D01*
X1842804Y900769D01*
X1835000Y900000D01*
X1165000Y900000D01*
X1157196Y900769D01*
X1149693Y903045D01*
X1142777Y906741D01*
X1136716Y911716D01*
X1131741Y917777D01*
X1128045Y924693D01*
X1125769Y932196D01*
X1125000Y940000D01*
X1125000Y963431D01*
X1125769Y971235D01*
X1128045Y978738D01*
X1131741Y985654D01*
X1136716Y991715D01*
X1233285Y1088284D01*
X1239346Y1093259D01*
X1246262Y1096955D01*
X1253765Y1099231D01*
X1261569Y1100000D01*
X1835000Y1100000D01*
X1842804Y1099231D01*
G37*
G36*
G01*
X1125000Y550000D02*
X1125000Y650000D01*
G75*
G02*
X1175000Y700000I50000J0D01*
G01*
X1825000Y700000D01*
G75*
G02*
X1875000Y650000I0J-50000D01*
G01*
X1875000Y550000D01*
G75*
G02*
X1825000Y500000I-50000J0D01*
G01*
X1175000Y500000D01*
G75*
G02*
X1125000Y550000I0J50000D01*
G01*
G37*
G36*
G01*
X1125000Y150000D02*
X1125000Y250000D01*
G75*
G02*
X1175000Y300000I50000J0D01*
G01*
X1825000Y300000D01*
G75*
G02*
X1875000Y250000I0J-50000D01*
G01*
X1875000Y150000D01*
G75*
G02*
X1825000Y100000I-50000J0D01*
G01*
X1175000Y100000D01*
G75*
G02*
X1125000Y150000I0J50000D01*
G01*
G37*
G36*
G01*
X1125000Y-250000D02*
X1125000Y-150000D01*
G75*
G02*
X1175000Y-100000I50000J0D01*
G01*
X1825000Y-100000D01*
G75*
G02*
X1875000Y-150000I0J-50000D01*
G01*
X1875000Y-250000D01*
G75*
G02*
X1825000Y-300000I-50000J0D01*
G01*
X1175000Y-300000D01*
G75*
G02*
X1125000Y-250000I0J50000D01*
G01*
G37*
G36*
G01*
X1125000Y-650000D02*
X1125000Y-550000D01*
G75*
G02*
X1175000Y-500000I50000J0D01*
G01*
X1825000Y-500000D01*
G75*
G02*
X1875000Y-550000I0J-50000D01*
G01*
X1875000Y-650000D01*
G75*
G02*
X1825000Y-700000I-50000J0D01*
G01*
X1175000Y-700000D01*
G75*
G02*
X1125000Y-650000I0J50000D01*
G01*
G37*
G36*
X1842804Y-900769D02*
G01*
X1850307Y-903045D01*
X1857223Y-906741D01*
X1863284Y-911716D01*
X1868259Y-917777D01*
X1871955Y-924693D01*
X1874231Y-932196D01*
X1875000Y-940000D01*
X1875000Y-1060000D01*
X1874231Y-1067804D01*
X1871955Y-1075307D01*
X1868259Y-1082223D01*
X1863284Y-1088284D01*
X1857223Y-1093259D01*
X1850307Y-1096955D01*
X1842804Y-1099231D01*
X1835000Y-1100000D01*
X1261569Y-1100000D01*
X1253765Y-1099231D01*
X1246262Y-1096955D01*
X1239346Y-1093259D01*
X1233285Y-1088284D01*
X1136716Y-991715D01*
X1131741Y-985654D01*
X1128045Y-978738D01*
X1125769Y-971235D01*
X1125000Y-963431D01*
X1125000Y-940000D01*
X1125769Y-932196D01*
X1128045Y-924693D01*
X1131741Y-917777D01*
X1136716Y-911716D01*
X1142777Y-906741D01*
X1149693Y-903045D01*
X1157196Y-900769D01*
X1165000Y-900000D01*
X1835000Y-900000D01*
X1842804Y-900769D01*
G37*
G36*
X971235Y-1125769D02*
G01*
X978738Y-1128045D01*
X985654Y-1131741D01*
X991715Y-1136716D01*
X1088284Y-1233285D01*
X1093259Y-1239346D01*
X1096955Y-1246262D01*
X1099231Y-1253765D01*
X1100000Y-1261569D01*
X1100000Y-1835000D01*
X1099231Y-1842804D01*
X1096955Y-1850307D01*
X1093259Y-1857223D01*
X1088284Y-1863284D01*
X1082223Y-1868259D01*
X1075307Y-1871955D01*
X1067804Y-1874231D01*
X1060000Y-1875000D01*
X940000Y-1875000D01*
X932196Y-1874231D01*
X924693Y-1871955D01*
X917777Y-1868259D01*
X911716Y-1863284D01*
X906741Y-1857223D01*
X903045Y-1850307D01*
X900769Y-1842804D01*
X900000Y-1835000D01*
X900000Y-1165000D01*
X900769Y-1157196D01*
X903045Y-1149693D01*
X906741Y-1142777D01*
X911716Y-1136716D01*
X917777Y-1131741D01*
X924693Y-1128045D01*
X932196Y-1125769D01*
X940000Y-1125000D01*
X963431Y-1125000D01*
X971235Y-1125769D01*
G37*
G36*
G01*
X500000Y-1825000D02*
X500000Y-1175000D01*
G75*
G02*
X550000Y-1125000I50000J0D01*
G01*
X650000Y-1125000D01*
G75*
G02*
X700000Y-1175000I0J-50000D01*
G01*
X700000Y-1825000D01*
G75*
G02*
X650000Y-1875000I-50000J0D01*
G01*
X550000Y-1875000D01*
G75*
G02*
X500000Y-1825000I0J50000D01*
G01*
G37*
G36*
G01*
X100000Y-1825000D02*
X100000Y-1175000D01*
G75*
G02*
X150000Y-1125000I50000J0D01*
G01*
X250000Y-1125000D01*
G75*
G02*
X300000Y-1175000I0J-50000D01*
G01*
X300000Y-1825000D01*
G75*
G02*
X250000Y-1875000I-50000J0D01*
G01*
X150000Y-1875000D01*
G75*
G02*
X100000Y-1825000I0J50000D01*
G01*
G37*
G36*
G01*
X-300000Y-1825000D02*
X-300000Y-1175000D01*
G75*
G02*
X-250000Y-1125000I50000J0D01*
G01*
X-150000Y-1125000D01*
G75*
G02*
X-100000Y-1175000I0J-50000D01*
G01*
X-100000Y-1825000D01*
G75*
G02*
X-150000Y-1875000I-50000J0D01*
G01*
X-250000Y-1875000D01*
G75*
G02*
X-300000Y-1825000I0J50000D01*
G01*
G37*
G36*
G01*
X-700000Y-1825000D02*
X-700000Y-1175000D01*
G75*
G02*
X-650000Y-1125000I50000J0D01*
G01*
X-550000Y-1125000D01*
G75*
G02*
X-500000Y-1175000I0J-50000D01*
G01*
X-500000Y-1825000D01*
G75*
G02*
X-550000Y-1875000I-50000J0D01*
G01*
X-650000Y-1875000D01*
G75*
G02*
X-700000Y-1825000I0J50000D01*
G01*
G37*
G36*
X-932196Y-1125769D02*
G01*
X-924693Y-1128045D01*
X-917777Y-1131741D01*
X-911716Y-1136716D01*
X-906741Y-1142777D01*
X-903045Y-1149693D01*
X-900769Y-1157196D01*
X-900000Y-1165000D01*
X-900000Y-1835000D01*
X-900769Y-1842804D01*
X-903045Y-1850307D01*
X-906741Y-1857223D01*
X-911716Y-1863284D01*
X-917777Y-1868259D01*
X-924693Y-1871955D01*
X-932196Y-1874231D01*
X-940000Y-1875000D01*
X-1060000Y-1875000D01*
X-1067804Y-1874231D01*
X-1075307Y-1871955D01*
X-1082223Y-1868259D01*
X-1088284Y-1863284D01*
X-1093259Y-1857223D01*
X-1096955Y-1850307D01*
X-1099231Y-1842804D01*
X-1100000Y-1835000D01*
X-1100000Y-1261569D01*
X-1099231Y-1253765D01*
X-1096955Y-1246262D01*
X-1093259Y-1239346D01*
X-1088284Y-1233285D01*
X-991715Y-1136716D01*
X-985654Y-1131741D01*
X-978738Y-1128045D01*
X-971235Y-1125769D01*
X-963431Y-1125000D01*
X-940000Y-1125000D01*
X-932196Y-1125769D01*
G37*
G36*
X-1157196Y-900769D02*
G01*
X-1149693Y-903045D01*
X-1142777Y-906741D01*
X-1136716Y-911716D01*
X-1131741Y-917777D01*
X-1128045Y-924693D01*
X-1125769Y-932196D01*
X-1125000Y-940000D01*
X-1125000Y-963431D01*
X-1125769Y-971235D01*
X-1128045Y-978738D01*
X-1131741Y-985654D01*
X-1136716Y-991715D01*
X-1233285Y-1088284D01*
X-1239346Y-1093259D01*
X-1246262Y-1096955D01*
X-1253765Y-1099231D01*
X-1261569Y-1100000D01*
X-1835000Y-1100000D01*
X-1842804Y-1099231D01*
X-1850307Y-1096955D01*
X-1857223Y-1093259D01*
X-1863284Y-1088284D01*
X-1868259Y-1082223D01*
X-1871955Y-1075307D01*
X-1874231Y-1067804D01*
X-1875000Y-1060000D01*
X-1875000Y-940000D01*
X-1874231Y-932196D01*
X-1871955Y-924693D01*
X-1868259Y-917777D01*
X-1863284Y-911716D01*
X-1857223Y-906741D01*
X-1850307Y-903045D01*
X-1842804Y-900769D01*
X-1835000Y-900000D01*
X-1165000Y-900000D01*
X-1157196Y-900769D01*
G37*
G36*
G01*
X-1875000Y-650000D02*
X-1875000Y-550000D01*
G75*
G02*
X-1825000Y-500000I50000J0D01*
G01*
X-1175000Y-500000D01*
G75*
G02*
X-1125000Y-550000I0J-50000D01*
G01*
X-1125000Y-650000D01*
G75*
G02*
X-1175000Y-700000I-50000J0D01*
G01*
X-1825000Y-700000D01*
G75*
G02*
X-1875000Y-650000I0J50000D01*
G01*
G37*
G36*
G01*
X-1875000Y-250000D02*
X-1875000Y-150000D01*
G75*
G02*
X-1825000Y-100000I50000J0D01*
G01*
X-1175000Y-100000D01*
G75*
G02*
X-1125000Y-150000I0J-50000D01*
G01*
X-1125000Y-250000D01*
G75*
G02*
X-1175000Y-300000I-50000J0D01*
G01*
X-1825000Y-300000D01*
G75*
G02*
X-1875000Y-250000I0J50000D01*
G01*
G37*
G36*
G01*
X-1875000Y150000D02*
X-1875000Y250000D01*
G75*
G02*
X-1825000Y300000I50000J0D01*
G01*
X-1175000Y300000D01*
G75*
G02*
X-1125000Y250000I0J-50000D01*
G01*
X-1125000Y150000D01*
G75*
G02*
X-1175000Y100000I-50000J0D01*
G01*
X-1825000Y100000D01*
G75*
G02*
X-1875000Y150000I0J50000D01*
G01*
G37*
G36*
G01*
X-1875000Y550000D02*
X-1875000Y650000D01*
G75*
G02*
X-1825000Y700000I50000J0D01*
G01*
X-1175000Y700000D01*
G75*
G02*
X-1125000Y650000I0J-50000D01*
G01*
X-1125000Y550000D01*
G75*
G02*
X-1175000Y500000I-50000J0D01*
G01*
X-1825000Y500000D01*
G75*
G02*
X-1875000Y550000I0J50000D01*
G01*
G37*
G36*
X-1253765Y1099231D02*
G01*
X-1246262Y1096955D01*
X-1239346Y1093259D01*
X-1233285Y1088284D01*
X-1136716Y991715D01*
X-1131741Y985654D01*
X-1128045Y978738D01*
X-1125769Y971235D01*
X-1125000Y963431D01*
X-1125000Y940000D01*
X-1125769Y932196D01*
X-1128045Y924693D01*
X-1131741Y917777D01*
X-1136716Y911716D01*
X-1142777Y906741D01*
X-1149693Y903045D01*
X-1157196Y900769D01*
X-1165000Y900000D01*
X-1835000Y900000D01*
X-1842804Y900769D01*
X-1850307Y903045D01*
X-1857223Y906741D01*
X-1863284Y911716D01*
X-1868259Y917777D01*
X-1871955Y924693D01*
X-1874231Y932196D01*
X-1875000Y940000D01*
X-1875000Y1060000D01*
X-1874231Y1067804D01*
X-1871955Y1075307D01*
X-1868259Y1082223D01*
X-1863284Y1088284D01*
X-1857223Y1093259D01*
X-1850307Y1096955D01*
X-1842804Y1099231D01*
X-1835000Y1100000D01*
X-1261569Y1100000D01*
X-1253765Y1099231D01*
G37*
D17*
X19600000Y-36800000D03*
X9600000Y-36800000D03*
D18*
X17350000Y-33350000D03*
X16850000Y-33350000D03*
X16350000Y-33350000D03*
X15850000Y-33350000D03*
X15350000Y-33350000D03*
X14850000Y-33350000D03*
X14350000Y-33350000D03*
X13850000Y-33350000D03*
X13350000Y-33350000D03*
X12850000Y-33350000D03*
X12350000Y-33350000D03*
X11850000Y-33350000D03*
G36*
G01*
X15750000Y12025000D02*
X15250000Y12025000D01*
G75*
G02*
X15025000Y12250000I0J225000D01*
G01*
X15025000Y12700000D01*
G75*
G02*
X15250000Y12925000I225000J0D01*
G01*
X15750000Y12925000D01*
G75*
G02*
X15975000Y12700000I0J-225000D01*
G01*
X15975000Y12250000D01*
G75*
G02*
X15750000Y12025000I-225000J0D01*
G01*
G37*
G36*
G01*
X15750000Y13575000D02*
X15250000Y13575000D01*
G75*
G02*
X15025000Y13800000I0J225000D01*
G01*
X15025000Y14250000D01*
G75*
G02*
X15250000Y14475000I225000J0D01*
G01*
X15750000Y14475000D01*
G75*
G02*
X15975000Y14250000I0J-225000D01*
G01*
X15975000Y13800000D01*
G75*
G02*
X15750000Y13575000I-225000J0D01*
G01*
G37*
G36*
G01*
X5675000Y11250000D02*
X5675000Y10750000D01*
G75*
G02*
X5450000Y10525000I-225000J0D01*
G01*
X5000000Y10525000D01*
G75*
G02*
X4775000Y10750000I0J225000D01*
G01*
X4775000Y11250000D01*
G75*
G02*
X5000000Y11475000I225000J0D01*
G01*
X5450000Y11475000D01*
G75*
G02*
X5675000Y11250000I0J-225000D01*
G01*
G37*
G36*
G01*
X7225000Y11250000D02*
X7225000Y10750000D01*
G75*
G02*
X7000000Y10525000I-225000J0D01*
G01*
X6550000Y10525000D01*
G75*
G02*
X6325000Y10750000I0J225000D01*
G01*
X6325000Y11250000D01*
G75*
G02*
X6550000Y11475000I225000J0D01*
G01*
X7000000Y11475000D01*
G75*
G02*
X7225000Y11250000I0J-225000D01*
G01*
G37*
G36*
G01*
X5950000Y-4725000D02*
X6450000Y-4725000D01*
G75*
G02*
X6675000Y-4950000I0J-225000D01*
G01*
X6675000Y-5400000D01*
G75*
G02*
X6450000Y-5625000I-225000J0D01*
G01*
X5950000Y-5625000D01*
G75*
G02*
X5725000Y-5400000I0J225000D01*
G01*
X5725000Y-4950000D01*
G75*
G02*
X5950000Y-4725000I225000J0D01*
G01*
G37*
G36*
G01*
X5950000Y-3175000D02*
X6450000Y-3175000D01*
G75*
G02*
X6675000Y-3400000I0J-225000D01*
G01*
X6675000Y-3850000D01*
G75*
G02*
X6450000Y-4075000I-225000J0D01*
G01*
X5950000Y-4075000D01*
G75*
G02*
X5725000Y-3850000I0J225000D01*
G01*
X5725000Y-3400000D01*
G75*
G02*
X5950000Y-3175000I225000J0D01*
G01*
G37*
G36*
G01*
X16875000Y-5750000D02*
X16875000Y-5250000D01*
G75*
G02*
X17100000Y-5025000I225000J0D01*
G01*
X17550000Y-5025000D01*
G75*
G02*
X17775000Y-5250000I0J-225000D01*
G01*
X17775000Y-5750000D01*
G75*
G02*
X17550000Y-5975000I-225000J0D01*
G01*
X17100000Y-5975000D01*
G75*
G02*
X16875000Y-5750000I0J225000D01*
G01*
G37*
G36*
G01*
X18425000Y-5750000D02*
X18425000Y-5250000D01*
G75*
G02*
X18650000Y-5025000I225000J0D01*
G01*
X19100000Y-5025000D01*
G75*
G02*
X19325000Y-5250000I0J-225000D01*
G01*
X19325000Y-5750000D01*
G75*
G02*
X19100000Y-5975000I-225000J0D01*
G01*
X18650000Y-5975000D01*
G75*
G02*
X18425000Y-5750000I0J225000D01*
G01*
G37*
G36*
G01*
X20950000Y-2025000D02*
X21450000Y-2025000D01*
G75*
G02*
X21675000Y-2250000I0J-225000D01*
G01*
X21675000Y-2700000D01*
G75*
G02*
X21450000Y-2925000I-225000J0D01*
G01*
X20950000Y-2925000D01*
G75*
G02*
X20725000Y-2700000I0J225000D01*
G01*
X20725000Y-2250000D01*
G75*
G02*
X20950000Y-2025000I225000J0D01*
G01*
G37*
G36*
G01*
X20950000Y-3575000D02*
X21450000Y-3575000D01*
G75*
G02*
X21675000Y-3800000I0J-225000D01*
G01*
X21675000Y-4250000D01*
G75*
G02*
X21450000Y-4475000I-225000J0D01*
G01*
X20950000Y-4475000D01*
G75*
G02*
X20725000Y-4250000I0J225000D01*
G01*
X20725000Y-3800000D01*
G75*
G02*
X20950000Y-3575000I225000J0D01*
G01*
G37*
G36*
G01*
X19450000Y-3575000D02*
X19950000Y-3575000D01*
G75*
G02*
X20175000Y-3800000I0J-225000D01*
G01*
X20175000Y-4250000D01*
G75*
G02*
X19950000Y-4475000I-225000J0D01*
G01*
X19450000Y-4475000D01*
G75*
G02*
X19225000Y-4250000I0J225000D01*
G01*
X19225000Y-3800000D01*
G75*
G02*
X19450000Y-3575000I225000J0D01*
G01*
G37*
G36*
G01*
X19450000Y-2025000D02*
X19950000Y-2025000D01*
G75*
G02*
X20175000Y-2250000I0J-225000D01*
G01*
X20175000Y-2700000D01*
G75*
G02*
X19950000Y-2925000I-225000J0D01*
G01*
X19450000Y-2925000D01*
G75*
G02*
X19225000Y-2700000I0J225000D01*
G01*
X19225000Y-2250000D01*
G75*
G02*
X19450000Y-2025000I225000J0D01*
G01*
G37*
G36*
G01*
X21000000Y7525000D02*
X20500000Y7525000D01*
G75*
G02*
X20275000Y7750000I0J225000D01*
G01*
X20275000Y8200000D01*
G75*
G02*
X20500000Y8425000I225000J0D01*
G01*
X21000000Y8425000D01*
G75*
G02*
X21225000Y8200000I0J-225000D01*
G01*
X21225000Y7750000D01*
G75*
G02*
X21000000Y7525000I-225000J0D01*
G01*
G37*
G36*
G01*
X21000000Y9075000D02*
X20500000Y9075000D01*
G75*
G02*
X20275000Y9300000I0J225000D01*
G01*
X20275000Y9750000D01*
G75*
G02*
X20500000Y9975000I225000J0D01*
G01*
X21000000Y9975000D01*
G75*
G02*
X21225000Y9750000I0J-225000D01*
G01*
X21225000Y9300000D01*
G75*
G02*
X21000000Y9075000I-225000J0D01*
G01*
G37*
G36*
G01*
X22500000Y9075000D02*
X22000000Y9075000D01*
G75*
G02*
X21775000Y9300000I0J225000D01*
G01*
X21775000Y9750000D01*
G75*
G02*
X22000000Y9975000I225000J0D01*
G01*
X22500000Y9975000D01*
G75*
G02*
X22725000Y9750000I0J-225000D01*
G01*
X22725000Y9300000D01*
G75*
G02*
X22500000Y9075000I-225000J0D01*
G01*
G37*
G36*
G01*
X22500000Y7525000D02*
X22000000Y7525000D01*
G75*
G02*
X21775000Y7750000I0J225000D01*
G01*
X21775000Y8200000D01*
G75*
G02*
X22000000Y8425000I225000J0D01*
G01*
X22500000Y8425000D01*
G75*
G02*
X22725000Y8200000I0J-225000D01*
G01*
X22725000Y7750000D01*
G75*
G02*
X22500000Y7525000I-225000J0D01*
G01*
G37*
G36*
G01*
X-3250000Y-42825000D02*
X-2750000Y-42825000D01*
G75*
G02*
X-2525000Y-43050000I0J-225000D01*
G01*
X-2525000Y-43500000D01*
G75*
G02*
X-2750000Y-43725000I-225000J0D01*
G01*
X-3250000Y-43725000D01*
G75*
G02*
X-3475000Y-43500000I0J225000D01*
G01*
X-3475000Y-43050000D01*
G75*
G02*
X-3250000Y-42825000I225000J0D01*
G01*
G37*
G36*
G01*
X-3250000Y-41275000D02*
X-2750000Y-41275000D01*
G75*
G02*
X-2525000Y-41500000I0J-225000D01*
G01*
X-2525000Y-41950000D01*
G75*
G02*
X-2750000Y-42175000I-225000J0D01*
G01*
X-3250000Y-42175000D01*
G75*
G02*
X-3475000Y-41950000I0J225000D01*
G01*
X-3475000Y-41500000D01*
G75*
G02*
X-3250000Y-41275000I225000J0D01*
G01*
G37*
G36*
G01*
X28050000Y-725000D02*
X27550000Y-725000D01*
G75*
G02*
X27325000Y-500000I0J225000D01*
G01*
X27325000Y-50000D01*
G75*
G02*
X27550000Y175000I225000J0D01*
G01*
X28050000Y175000D01*
G75*
G02*
X28275000Y-50000I0J-225000D01*
G01*
X28275000Y-500000D01*
G75*
G02*
X28050000Y-725000I-225000J0D01*
G01*
G37*
G36*
G01*
X28050000Y825000D02*
X27550000Y825000D01*
G75*
G02*
X27325000Y1050000I0J225000D01*
G01*
X27325000Y1500000D01*
G75*
G02*
X27550000Y1725000I225000J0D01*
G01*
X28050000Y1725000D01*
G75*
G02*
X28275000Y1500000I0J-225000D01*
G01*
X28275000Y1050000D01*
G75*
G02*
X28050000Y825000I-225000J0D01*
G01*
G37*
G36*
G01*
X3450000Y11425000D02*
X3950000Y11425000D01*
G75*
G02*
X4175000Y11200000I0J-225000D01*
G01*
X4175000Y10750000D01*
G75*
G02*
X3950000Y10525000I-225000J0D01*
G01*
X3450000Y10525000D01*
G75*
G02*
X3225000Y10750000I0J225000D01*
G01*
X3225000Y11200000D01*
G75*
G02*
X3450000Y11425000I225000J0D01*
G01*
G37*
G36*
G01*
X3450000Y12975000D02*
X3950000Y12975000D01*
G75*
G02*
X4175000Y12750000I0J-225000D01*
G01*
X4175000Y12300000D01*
G75*
G02*
X3950000Y12075000I-225000J0D01*
G01*
X3450000Y12075000D01*
G75*
G02*
X3225000Y12300000I0J225000D01*
G01*
X3225000Y12750000D01*
G75*
G02*
X3450000Y12975000I225000J0D01*
G01*
G37*
G36*
G01*
X4450000Y-4525000D02*
X4950000Y-4525000D01*
G75*
G02*
X5175000Y-4750000I0J-225000D01*
G01*
X5175000Y-5200000D01*
G75*
G02*
X4950000Y-5425000I-225000J0D01*
G01*
X4450000Y-5425000D01*
G75*
G02*
X4225000Y-5200000I0J225000D01*
G01*
X4225000Y-4750000D01*
G75*
G02*
X4450000Y-4525000I225000J0D01*
G01*
G37*
G36*
G01*
X4450000Y-6075000D02*
X4950000Y-6075000D01*
G75*
G02*
X5175000Y-6300000I0J-225000D01*
G01*
X5175000Y-6750000D01*
G75*
G02*
X4950000Y-6975000I-225000J0D01*
G01*
X4450000Y-6975000D01*
G75*
G02*
X4225000Y-6750000I0J225000D01*
G01*
X4225000Y-6300000D01*
G75*
G02*
X4450000Y-6075000I225000J0D01*
G01*
G37*
G36*
G01*
X-19225000Y-37250000D02*
X-19225000Y-36750000D01*
G75*
G02*
X-19000000Y-36525000I225000J0D01*
G01*
X-18550000Y-36525000D01*
G75*
G02*
X-18325000Y-36750000I0J-225000D01*
G01*
X-18325000Y-37250000D01*
G75*
G02*
X-18550000Y-37475000I-225000J0D01*
G01*
X-19000000Y-37475000D01*
G75*
G02*
X-19225000Y-37250000I0J225000D01*
G01*
G37*
G36*
G01*
X-17675000Y-37250000D02*
X-17675000Y-36750000D01*
G75*
G02*
X-17450000Y-36525000I225000J0D01*
G01*
X-17000000Y-36525000D01*
G75*
G02*
X-16775000Y-36750000I0J-225000D01*
G01*
X-16775000Y-37250000D01*
G75*
G02*
X-17000000Y-37475000I-225000J0D01*
G01*
X-17450000Y-37475000D01*
G75*
G02*
X-17675000Y-37250000I0J225000D01*
G01*
G37*
G36*
G01*
X-29225000Y-21250000D02*
X-29225000Y-20750000D01*
G75*
G02*
X-29000000Y-20525000I225000J0D01*
G01*
X-28550000Y-20525000D01*
G75*
G02*
X-28325000Y-20750000I0J-225000D01*
G01*
X-28325000Y-21250000D01*
G75*
G02*
X-28550000Y-21475000I-225000J0D01*
G01*
X-29000000Y-21475000D01*
G75*
G02*
X-29225000Y-21250000I0J225000D01*
G01*
G37*
G36*
G01*
X-27675000Y-21250000D02*
X-27675000Y-20750000D01*
G75*
G02*
X-27450000Y-20525000I225000J0D01*
G01*
X-27000000Y-20525000D01*
G75*
G02*
X-26775000Y-20750000I0J-225000D01*
G01*
X-26775000Y-21250000D01*
G75*
G02*
X-27000000Y-21475000I-225000J0D01*
G01*
X-27450000Y-21475000D01*
G75*
G02*
X-27675000Y-21250000I0J225000D01*
G01*
G37*
G36*
G01*
X-1550000Y-3175000D02*
X-1050000Y-3175000D01*
G75*
G02*
X-825000Y-3400000I0J-225000D01*
G01*
X-825000Y-3850000D01*
G75*
G02*
X-1050000Y-4075000I-225000J0D01*
G01*
X-1550000Y-4075000D01*
G75*
G02*
X-1775000Y-3850000I0J225000D01*
G01*
X-1775000Y-3400000D01*
G75*
G02*
X-1550000Y-3175000I225000J0D01*
G01*
G37*
G36*
G01*
X-1550000Y-4725000D02*
X-1050000Y-4725000D01*
G75*
G02*
X-825000Y-4950000I0J-225000D01*
G01*
X-825000Y-5400000D01*
G75*
G02*
X-1050000Y-5625000I-225000J0D01*
G01*
X-1550000Y-5625000D01*
G75*
G02*
X-1775000Y-5400000I0J225000D01*
G01*
X-1775000Y-4950000D01*
G75*
G02*
X-1550000Y-4725000I225000J0D01*
G01*
G37*
G36*
G01*
X21850000Y-40375000D02*
X21350000Y-40375000D01*
G75*
G02*
X21125000Y-40150000I0J225000D01*
G01*
X21125000Y-39700000D01*
G75*
G02*
X21350000Y-39475000I225000J0D01*
G01*
X21850000Y-39475000D01*
G75*
G02*
X22075000Y-39700000I0J-225000D01*
G01*
X22075000Y-40150000D01*
G75*
G02*
X21850000Y-40375000I-225000J0D01*
G01*
G37*
G36*
G01*
X21850000Y-41925000D02*
X21350000Y-41925000D01*
G75*
G02*
X21125000Y-41700000I0J225000D01*
G01*
X21125000Y-41250000D01*
G75*
G02*
X21350000Y-41025000I225000J0D01*
G01*
X21850000Y-41025000D01*
G75*
G02*
X22075000Y-41250000I0J-225000D01*
G01*
X22075000Y-41700000D01*
G75*
G02*
X21850000Y-41925000I-225000J0D01*
G01*
G37*
G36*
G01*
X-20675000Y-21250000D02*
X-20675000Y-20750000D01*
G75*
G02*
X-20450000Y-20525000I225000J0D01*
G01*
X-20000000Y-20525000D01*
G75*
G02*
X-19775000Y-20750000I0J-225000D01*
G01*
X-19775000Y-21250000D01*
G75*
G02*
X-20000000Y-21475000I-225000J0D01*
G01*
X-20450000Y-21475000D01*
G75*
G02*
X-20675000Y-21250000I0J225000D01*
G01*
G37*
G36*
G01*
X-22225000Y-21250000D02*
X-22225000Y-20750000D01*
G75*
G02*
X-22000000Y-20525000I225000J0D01*
G01*
X-21550000Y-20525000D01*
G75*
G02*
X-21325000Y-20750000I0J-225000D01*
G01*
X-21325000Y-21250000D01*
G75*
G02*
X-21550000Y-21475000I-225000J0D01*
G01*
X-22000000Y-21475000D01*
G75*
G02*
X-22225000Y-21250000I0J225000D01*
G01*
G37*
G36*
G01*
X-4950000Y-4725000D02*
X-4450000Y-4725000D01*
G75*
G02*
X-4225000Y-4950000I0J-225000D01*
G01*
X-4225000Y-5400000D01*
G75*
G02*
X-4450000Y-5625000I-225000J0D01*
G01*
X-4950000Y-5625000D01*
G75*
G02*
X-5175000Y-5400000I0J225000D01*
G01*
X-5175000Y-4950000D01*
G75*
G02*
X-4950000Y-4725000I225000J0D01*
G01*
G37*
G36*
G01*
X-4950000Y-3175000D02*
X-4450000Y-3175000D01*
G75*
G02*
X-4225000Y-3400000I0J-225000D01*
G01*
X-4225000Y-3850000D01*
G75*
G02*
X-4450000Y-4075000I-225000J0D01*
G01*
X-4950000Y-4075000D01*
G75*
G02*
X-5175000Y-3850000I0J225000D01*
G01*
X-5175000Y-3400000D01*
G75*
G02*
X-4950000Y-3175000I225000J0D01*
G01*
G37*
G36*
G01*
X-17675000Y-3050000D02*
X-17675000Y-2550000D01*
G75*
G02*
X-17450000Y-2325000I225000J0D01*
G01*
X-17000000Y-2325000D01*
G75*
G02*
X-16775000Y-2550000I0J-225000D01*
G01*
X-16775000Y-3050000D01*
G75*
G02*
X-17000000Y-3275000I-225000J0D01*
G01*
X-17450000Y-3275000D01*
G75*
G02*
X-17675000Y-3050000I0J225000D01*
G01*
G37*
G36*
G01*
X-19225000Y-3050000D02*
X-19225000Y-2550000D01*
G75*
G02*
X-19000000Y-2325000I225000J0D01*
G01*
X-18550000Y-2325000D01*
G75*
G02*
X-18325000Y-2550000I0J-225000D01*
G01*
X-18325000Y-3050000D01*
G75*
G02*
X-18550000Y-3275000I-225000J0D01*
G01*
X-19000000Y-3275000D01*
G75*
G02*
X-19225000Y-3050000I0J225000D01*
G01*
G37*
G36*
G01*
X1400000Y-4725000D02*
X1900000Y-4725000D01*
G75*
G02*
X2125000Y-4950000I0J-225000D01*
G01*
X2125000Y-5400000D01*
G75*
G02*
X1900000Y-5625000I-225000J0D01*
G01*
X1400000Y-5625000D01*
G75*
G02*
X1175000Y-5400000I0J225000D01*
G01*
X1175000Y-4950000D01*
G75*
G02*
X1400000Y-4725000I225000J0D01*
G01*
G37*
G36*
G01*
X1400000Y-3175000D02*
X1900000Y-3175000D01*
G75*
G02*
X2125000Y-3400000I0J-225000D01*
G01*
X2125000Y-3850000D01*
G75*
G02*
X1900000Y-4075000I-225000J0D01*
G01*
X1400000Y-4075000D01*
G75*
G02*
X1175000Y-3850000I0J225000D01*
G01*
X1175000Y-3400000D01*
G75*
G02*
X1400000Y-3175000I225000J0D01*
G01*
G37*
G36*
G01*
X-19750000Y7425000D02*
X-19250000Y7425000D01*
G75*
G02*
X-19025000Y7200000I0J-225000D01*
G01*
X-19025000Y6750000D01*
G75*
G02*
X-19250000Y6525000I-225000J0D01*
G01*
X-19750000Y6525000D01*
G75*
G02*
X-19975000Y6750000I0J225000D01*
G01*
X-19975000Y7200000D01*
G75*
G02*
X-19750000Y7425000I225000J0D01*
G01*
G37*
G36*
G01*
X-19750000Y5875000D02*
X-19250000Y5875000D01*
G75*
G02*
X-19025000Y5650000I0J-225000D01*
G01*
X-19025000Y5200000D01*
G75*
G02*
X-19250000Y4975000I-225000J0D01*
G01*
X-19750000Y4975000D01*
G75*
G02*
X-19975000Y5200000I0J225000D01*
G01*
X-19975000Y5650000D01*
G75*
G02*
X-19750000Y5875000I225000J0D01*
G01*
G37*
G36*
G01*
X-27225000Y-37250000D02*
X-27225000Y-36750000D01*
G75*
G02*
X-27000000Y-36525000I225000J0D01*
G01*
X-26550000Y-36525000D01*
G75*
G02*
X-26325000Y-36750000I0J-225000D01*
G01*
X-26325000Y-37250000D01*
G75*
G02*
X-26550000Y-37475000I-225000J0D01*
G01*
X-27000000Y-37475000D01*
G75*
G02*
X-27225000Y-37250000I0J225000D01*
G01*
G37*
G36*
G01*
X-25675000Y-37250000D02*
X-25675000Y-36750000D01*
G75*
G02*
X-25450000Y-36525000I225000J0D01*
G01*
X-25000000Y-36525000D01*
G75*
G02*
X-24775000Y-36750000I0J-225000D01*
G01*
X-24775000Y-37250000D01*
G75*
G02*
X-25000000Y-37475000I-225000J0D01*
G01*
X-25450000Y-37475000D01*
G75*
G02*
X-25675000Y-37250000I0J225000D01*
G01*
G37*
G36*
G01*
X-25150000Y9743750D02*
X-25150000Y10256250D01*
G75*
G02*
X-24931250Y10475000I218750J0D01*
G01*
X-24493750Y10475000D01*
G75*
G02*
X-24275000Y10256250I0J-218750D01*
G01*
X-24275000Y9743750D01*
G75*
G02*
X-24493750Y9525000I-218750J0D01*
G01*
X-24931250Y9525000D01*
G75*
G02*
X-25150000Y9743750I0J218750D01*
G01*
G37*
G36*
G01*
X-26725000Y9743750D02*
X-26725000Y10256250D01*
G75*
G02*
X-26506250Y10475000I218750J0D01*
G01*
X-26068750Y10475000D01*
G75*
G02*
X-25850000Y10256250I0J-218750D01*
G01*
X-25850000Y9743750D01*
G75*
G02*
X-26068750Y9525000I-218750J0D01*
G01*
X-26506250Y9525000D01*
G75*
G02*
X-26725000Y9743750I0J218750D01*
G01*
G37*
D19*
X24200000Y-18835000D03*
X24200000Y-17365000D03*
G36*
G01*
X23850000Y10743750D02*
X23850000Y11256250D01*
G75*
G02*
X24068750Y11475000I218750J0D01*
G01*
X24506250Y11475000D01*
G75*
G02*
X24725000Y11256250I0J-218750D01*
G01*
X24725000Y10743750D01*
G75*
G02*
X24506250Y10525000I-218750J0D01*
G01*
X24068750Y10525000D01*
G75*
G02*
X23850000Y10743750I0J218750D01*
G01*
G37*
G36*
G01*
X22275000Y10743750D02*
X22275000Y11256250D01*
G75*
G02*
X22493750Y11475000I218750J0D01*
G01*
X22931250Y11475000D01*
G75*
G02*
X23150000Y11256250I0J-218750D01*
G01*
X23150000Y10743750D01*
G75*
G02*
X22931250Y10525000I-218750J0D01*
G01*
X22493750Y10525000D01*
G75*
G02*
X22275000Y10743750I0J218750D01*
G01*
G37*
G36*
G01*
X25725000Y8256250D02*
X25725000Y7743750D01*
G75*
G02*
X25506250Y7525000I-218750J0D01*
G01*
X25068750Y7525000D01*
G75*
G02*
X24850000Y7743750I0J218750D01*
G01*
X24850000Y8256250D01*
G75*
G02*
X25068750Y8475000I218750J0D01*
G01*
X25506250Y8475000D01*
G75*
G02*
X25725000Y8256250I0J-218750D01*
G01*
G37*
G36*
G01*
X24150000Y8256250D02*
X24150000Y7743750D01*
G75*
G02*
X23931250Y7525000I-218750J0D01*
G01*
X23493750Y7525000D01*
G75*
G02*
X23275000Y7743750I0J218750D01*
G01*
X23275000Y8256250D01*
G75*
G02*
X23493750Y8475000I218750J0D01*
G01*
X23931250Y8475000D01*
G75*
G02*
X24150000Y8256250I0J-218750D01*
G01*
G37*
G36*
G01*
X-23225000Y-3056250D02*
X-23225000Y-2543750D01*
G75*
G02*
X-23006250Y-2325000I218750J0D01*
G01*
X-22568750Y-2325000D01*
G75*
G02*
X-22350000Y-2543750I0J-218750D01*
G01*
X-22350000Y-3056250D01*
G75*
G02*
X-22568750Y-3275000I-218750J0D01*
G01*
X-23006250Y-3275000D01*
G75*
G02*
X-23225000Y-3056250I0J218750D01*
G01*
G37*
G36*
G01*
X-21650000Y-3056250D02*
X-21650000Y-2543750D01*
G75*
G02*
X-21431250Y-2325000I218750J0D01*
G01*
X-20993750Y-2325000D01*
G75*
G02*
X-20775000Y-2543750I0J-218750D01*
G01*
X-20775000Y-3056250D01*
G75*
G02*
X-20993750Y-3275000I-218750J0D01*
G01*
X-21431250Y-3275000D01*
G75*
G02*
X-21650000Y-3056250I0J218750D01*
G01*
G37*
G36*
G01*
X-21743750Y6550000D02*
X-22256250Y6550000D01*
G75*
G02*
X-22475000Y6768750I0J218750D01*
G01*
X-22475000Y7206250D01*
G75*
G02*
X-22256250Y7425000I218750J0D01*
G01*
X-21743750Y7425000D01*
G75*
G02*
X-21525000Y7206250I0J-218750D01*
G01*
X-21525000Y6768750D01*
G75*
G02*
X-21743750Y6550000I-218750J0D01*
G01*
G37*
G36*
G01*
X-21743750Y4975000D02*
X-22256250Y4975000D01*
G75*
G02*
X-22475000Y5193750I0J218750D01*
G01*
X-22475000Y5631250D01*
G75*
G02*
X-22256250Y5850000I218750J0D01*
G01*
X-21743750Y5850000D01*
G75*
G02*
X-21525000Y5631250I0J-218750D01*
G01*
X-21525000Y5193750D01*
G75*
G02*
X-21743750Y4975000I-218750J0D01*
G01*
G37*
D20*
X-24500000Y14475000D03*
X-22500000Y14475000D03*
X-23500000Y14475000D03*
D21*
X-21200000Y17000000D03*
X-25800000Y17000000D03*
X22700000Y17000000D03*
X27300000Y17000000D03*
D20*
X25000000Y14475000D03*
X26000000Y14475000D03*
X24000000Y14475000D03*
D17*
X3525000Y45000000D03*
X-3525000Y45000000D03*
D18*
X1250000Y43000000D03*
X750000Y43000000D03*
X250000Y43000000D03*
X-250000Y43000000D03*
X-750000Y43000000D03*
X-1250000Y43000000D03*
D20*
X-18000000Y-41475000D03*
D21*
X-12700000Y-44000000D03*
D20*
X-19000000Y-41475000D03*
X-17000000Y-41475000D03*
D21*
X-20300000Y-44000000D03*
D20*
X-16000000Y-41475000D03*
X-15000000Y-41475000D03*
X-14000000Y-41475000D03*
D22*
X-28540000Y-18635000D03*
D23*
X-28540000Y-17365000D03*
X-27270000Y-18635000D03*
X-27270000Y-17365000D03*
X-26000000Y-18635000D03*
X-26000000Y-17365000D03*
X-24730000Y-18635000D03*
X-24730000Y-17365000D03*
X-23460000Y-18635000D03*
X-23460000Y-17365000D03*
D20*
X27500000Y-41475000D03*
X24500000Y-41475000D03*
X26500000Y-41475000D03*
X25500000Y-41475000D03*
D21*
X23200000Y-44000000D03*
X28800000Y-44000000D03*
D24*
X-4300000Y-35290000D03*
X4300000Y-35290000D03*
D25*
X-1500000Y-32590000D03*
X-500000Y-32590000D03*
X500000Y-32590000D03*
X1500000Y-32590000D03*
D23*
X-16460000Y-17365000D03*
X-16460000Y-18635000D03*
X-17730000Y-17365000D03*
X-17730000Y-18635000D03*
X-19000000Y-17365000D03*
X-19000000Y-18635000D03*
X-20270000Y-17365000D03*
X-20270000Y-18635000D03*
X-21540000Y-17365000D03*
D22*
X-21540000Y-18635000D03*
D26*
X-23400000Y1400000D03*
X-25900000Y1400000D03*
X-28400000Y1400000D03*
D21*
X-22200000Y-44000000D03*
X-27800000Y-44000000D03*
D20*
X-25500000Y-41475000D03*
X-24500000Y-41475000D03*
X-26500000Y-41475000D03*
X-23500000Y-41475000D03*
D27*
X17255000Y-16850000D03*
X18545000Y-17350000D03*
X17255000Y-17850000D03*
G36*
G01*
X-32823029Y41400916D02*
X-33236857Y41038636D01*
G75*
G02*
X-33519078Y41057381I-131738J150483D01*
G01*
X-33782554Y41358347D01*
G75*
G02*
X-33763809Y41640568I150483J131738D01*
G01*
X-33349981Y42002848D01*
G75*
G02*
X-33067760Y41984103I131738J-150483D01*
G01*
X-32804284Y41683137D01*
G75*
G02*
X-32823029Y41400916I-150483J-131738D01*
G01*
G37*
G36*
G01*
X-31736191Y40159432D02*
X-32150019Y39797152D01*
G75*
G02*
X-32432240Y39815897I-131738J150483D01*
G01*
X-32695716Y40116863D01*
G75*
G02*
X-32676971Y40399084I150483J131738D01*
G01*
X-32263143Y40761364D01*
G75*
G02*
X-31980922Y40742619I131738J-150483D01*
G01*
X-31717446Y40441653D01*
G75*
G02*
X-31736191Y40159432I-150483J-131738D01*
G01*
G37*
G36*
G01*
X-33973029Y40400916D02*
X-34386857Y40038636D01*
G75*
G02*
X-34669078Y40057381I-131738J150483D01*
G01*
X-34932554Y40358347D01*
G75*
G02*
X-34913809Y40640568I150483J131738D01*
G01*
X-34499981Y41002848D01*
G75*
G02*
X-34217760Y40984103I131738J-150483D01*
G01*
X-33954284Y40683137D01*
G75*
G02*
X-33973029Y40400916I-150483J-131738D01*
G01*
G37*
G36*
G01*
X-32886191Y39159432D02*
X-33300019Y38797152D01*
G75*
G02*
X-33582240Y38815897I-131738J150483D01*
G01*
X-33845716Y39116863D01*
G75*
G02*
X-33826971Y39399084I150483J131738D01*
G01*
X-33413143Y39761364D01*
G75*
G02*
X-33130922Y39742619I131738J-150483D01*
G01*
X-32867446Y39441653D01*
G75*
G02*
X-32886191Y39159432I-150483J-131738D01*
G01*
G37*
G36*
G01*
X-25841528Y43133438D02*
X-26299102Y42828274D01*
G75*
G02*
X-26576462Y42883696I-110969J166391D01*
G01*
X-26798400Y43216478D01*
G75*
G02*
X-26742978Y43493838I166391J110969D01*
G01*
X-26285404Y43799002D01*
G75*
G02*
X-26008044Y43743580I110969J-166391D01*
G01*
X-25786106Y43410798D01*
G75*
G02*
X-25841528Y43133438I-166391J-110969D01*
G01*
G37*
G36*
G01*
X-26757022Y44506162D02*
X-27214596Y44200998D01*
G75*
G02*
X-27491956Y44256420I-110969J166391D01*
G01*
X-27713894Y44589202D01*
G75*
G02*
X-27658472Y44866562I166391J110969D01*
G01*
X-27200898Y45171726D01*
G75*
G02*
X-26923538Y45116304I110969J-166391D01*
G01*
X-26701600Y44783522D01*
G75*
G02*
X-26757022Y44506162I-166391J-110969D01*
G01*
G37*
G36*
G01*
X-28507022Y43256162D02*
X-28964596Y42950998D01*
G75*
G02*
X-29241956Y43006420I-110969J166391D01*
G01*
X-29463894Y43339202D01*
G75*
G02*
X-29408472Y43616562I166391J110969D01*
G01*
X-28950898Y43921726D01*
G75*
G02*
X-28673538Y43866304I110969J-166391D01*
G01*
X-28451600Y43533522D01*
G75*
G02*
X-28507022Y43256162I-166391J-110969D01*
G01*
G37*
G36*
G01*
X-27591528Y41883438D02*
X-28049102Y41578274D01*
G75*
G02*
X-28326462Y41633696I-110969J166391D01*
G01*
X-28548400Y41966478D01*
G75*
G02*
X-28492978Y42243838I166391J110969D01*
G01*
X-28035404Y42549002D01*
G75*
G02*
X-27758044Y42493580I110969J-166391D01*
G01*
X-27536106Y42160798D01*
G75*
G02*
X-27591528Y41883438I-166391J-110969D01*
G01*
G37*
G36*
G01*
X-19962410Y46522272D02*
X-20455902Y46279444D01*
G75*
G02*
X-20723655Y46370595I-88301J179452D01*
G01*
X-20900257Y46729499D01*
G75*
G02*
X-20809106Y46997252I179452J88301D01*
G01*
X-20315614Y47240080D01*
G75*
G02*
X-20047861Y47148929I88301J-179452D01*
G01*
X-19871259Y46790025D01*
G75*
G02*
X-19962410Y46522272I-179452J-88301D01*
G01*
G37*
G36*
G01*
X-20690894Y48002748D02*
X-21184386Y47759920D01*
G75*
G02*
X-21452139Y47851071I-88301J179452D01*
G01*
X-21628741Y48209975D01*
G75*
G02*
X-21537590Y48477728I179452J88301D01*
G01*
X-21044098Y48720556D01*
G75*
G02*
X-20776345Y48629405I88301J-179452D01*
G01*
X-20599743Y48270501D01*
G75*
G02*
X-20690894Y48002748I-179452J-88301D01*
G01*
G37*
G36*
G01*
X-21962410Y45522272D02*
X-22455902Y45279444D01*
G75*
G02*
X-22723655Y45370595I-88301J179452D01*
G01*
X-22900257Y45729499D01*
G75*
G02*
X-22809106Y45997252I179452J88301D01*
G01*
X-22315614Y46240080D01*
G75*
G02*
X-22047861Y46148929I88301J-179452D01*
G01*
X-21871259Y45790025D01*
G75*
G02*
X-21962410Y45522272I-179452J-88301D01*
G01*
G37*
G36*
G01*
X-22690894Y47002748D02*
X-23184386Y46759920D01*
G75*
G02*
X-23452139Y46851071I-88301J179452D01*
G01*
X-23628741Y47209975D01*
G75*
G02*
X-23537590Y47477728I179452J88301D01*
G01*
X-23044098Y47720556D01*
G75*
G02*
X-22776345Y47629405I88301J-179452D01*
G01*
X-22599743Y47270501D01*
G75*
G02*
X-22690894Y47002748I-179452J-88301D01*
G01*
G37*
G36*
G01*
X-14096766Y48927837D02*
X-14617731Y48751499D01*
G75*
G02*
X-14871296Y48876818I-64123J189442D01*
G01*
X-14999541Y49255702D01*
G75*
G02*
X-14874222Y49509267I189442J64123D01*
G01*
X-14353257Y49685605D01*
G75*
G02*
X-14099692Y49560286I64123J-189442D01*
G01*
X-13971447Y49181402D01*
G75*
G02*
X-14096766Y48927837I-189442J-64123D01*
G01*
G37*
G36*
G01*
X-14625778Y50490733D02*
X-15146743Y50314395D01*
G75*
G02*
X-15400308Y50439714I-64123J189442D01*
G01*
X-15528553Y50818598D01*
G75*
G02*
X-15403234Y51072163I189442J64123D01*
G01*
X-14882269Y51248501D01*
G75*
G02*
X-14628704Y51123182I64123J-189442D01*
G01*
X-14500459Y50744298D01*
G75*
G02*
X-14625778Y50490733I-189442J-64123D01*
G01*
G37*
G36*
G01*
X-16390284Y49772181D02*
X-16911249Y49595843D01*
G75*
G02*
X-17164814Y49721162I-64123J189442D01*
G01*
X-17293059Y50100046D01*
G75*
G02*
X-17167740Y50353611I189442J64123D01*
G01*
X-16646775Y50529949D01*
G75*
G02*
X-16393210Y50404630I64123J-189442D01*
G01*
X-16264965Y50025746D01*
G75*
G02*
X-16390284Y49772181I-189442J-64123D01*
G01*
G37*
G36*
G01*
X-15861272Y48209285D02*
X-16382237Y48032947D01*
G75*
G02*
X-16635802Y48158266I-64123J189442D01*
G01*
X-16764047Y48537150D01*
G75*
G02*
X-16638728Y48790715I189442J64123D01*
G01*
X-16117763Y48967053D01*
G75*
G02*
X-15864198Y48841734I64123J-189442D01*
G01*
X-15735953Y48462850D01*
G75*
G02*
X-15861272Y48209285I-189442J-64123D01*
G01*
G37*
G36*
G01*
X-7492300Y50101744D02*
X-8031826Y49994916D01*
G75*
G02*
X-8266864Y50152260I-38847J196191D01*
G01*
X-8344558Y50544642D01*
G75*
G02*
X-8187214Y50779680I196191J38847D01*
G01*
X-7647688Y50886508D01*
G75*
G02*
X-7412650Y50729164I38847J-196191D01*
G01*
X-7334956Y50336782D01*
G75*
G02*
X-7492300Y50101744I-196191J-38847D01*
G01*
G37*
G36*
G01*
X-7812786Y51720320D02*
X-8352312Y51613492D01*
G75*
G02*
X-8587350Y51770836I-38847J196191D01*
G01*
X-8665044Y52163218D01*
G75*
G02*
X-8507700Y52398256I196191J38847D01*
G01*
X-7968174Y52505084D01*
G75*
G02*
X-7733136Y52347740I38847J-196191D01*
G01*
X-7655442Y51955358D01*
G75*
G02*
X-7812786Y51720320I-196191J-38847D01*
G01*
G37*
G36*
G01*
X-9492300Y49601744D02*
X-10031826Y49494916D01*
G75*
G02*
X-10266864Y49652260I-38847J196191D01*
G01*
X-10344558Y50044642D01*
G75*
G02*
X-10187214Y50279680I196191J38847D01*
G01*
X-9647688Y50386508D01*
G75*
G02*
X-9412650Y50229164I38847J-196191D01*
G01*
X-9334956Y49836782D01*
G75*
G02*
X-9492300Y49601744I-196191J-38847D01*
G01*
G37*
G36*
G01*
X-9812786Y51220320D02*
X-10352312Y51113492D01*
G75*
G02*
X-10587350Y51270836I-38847J196191D01*
G01*
X-10665044Y51663218D01*
G75*
G02*
X-10507700Y51898256I196191J38847D01*
G01*
X-9968174Y52005084D01*
G75*
G02*
X-9733136Y51847740I38847J-196191D01*
G01*
X-9655442Y51455358D01*
G75*
G02*
X-9812786Y51220320I-196191J-38847D01*
G01*
G37*
G36*
G01*
X-1146522Y50545300D02*
X-1695375Y50509807D01*
G75*
G02*
X-1907864Y50696484I-12906J199583D01*
G01*
X-1933677Y51095651D01*
G75*
G02*
X-1747000Y51308140I199583J12906D01*
G01*
X-1198147Y51343633D01*
G75*
G02*
X-985658Y51156956I12906J-199583D01*
G01*
X-959845Y50757789D01*
G75*
G02*
X-1146522Y50545300I-199583J-12906D01*
G01*
G37*
G36*
G01*
X-1253000Y52191860D02*
X-1801853Y52156367D01*
G75*
G02*
X-2014342Y52343044I-12906J199583D01*
G01*
X-2040155Y52742211D01*
G75*
G02*
X-1853478Y52954700I199583J12906D01*
G01*
X-1304625Y52990193D01*
G75*
G02*
X-1092136Y52803516I12906J-199583D01*
G01*
X-1066323Y52404349D01*
G75*
G02*
X-1253000Y52191860I-199583J-12906D01*
G01*
G37*
G36*
G01*
X-3003000Y52191860D02*
X-3551853Y52156367D01*
G75*
G02*
X-3764342Y52343044I-12906J199583D01*
G01*
X-3790155Y52742211D01*
G75*
G02*
X-3603478Y52954700I199583J12906D01*
G01*
X-3054625Y52990193D01*
G75*
G02*
X-2842136Y52803516I12906J-199583D01*
G01*
X-2816323Y52404349D01*
G75*
G02*
X-3003000Y52191860I-199583J-12906D01*
G01*
G37*
G36*
G01*
X-2896522Y50545300D02*
X-3445375Y50509807D01*
G75*
G02*
X-3657864Y50696484I-12906J199583D01*
G01*
X-3683677Y51095651D01*
G75*
G02*
X-3497000Y51308140I199583J12906D01*
G01*
X-2948147Y51343633D01*
G75*
G02*
X-2735658Y51156956I12906J-199583D01*
G01*
X-2709845Y50757789D01*
G75*
G02*
X-2896522Y50545300I-199583J-12906D01*
G01*
G37*
G36*
G01*
X-10575000Y-37275000D02*
X-10575000Y-36725000D01*
G75*
G02*
X-10375000Y-36525000I200000J0D01*
G01*
X-9975000Y-36525000D01*
G75*
G02*
X-9775000Y-36725000I0J-200000D01*
G01*
X-9775000Y-37275000D01*
G75*
G02*
X-9975000Y-37475000I-200000J0D01*
G01*
X-10375000Y-37475000D01*
G75*
G02*
X-10575000Y-37275000I0J200000D01*
G01*
G37*
G36*
G01*
X-12225000Y-37275000D02*
X-12225000Y-36725000D01*
G75*
G02*
X-12025000Y-36525000I200000J0D01*
G01*
X-11625000Y-36525000D01*
G75*
G02*
X-11425000Y-36725000I0J-200000D01*
G01*
X-11425000Y-37275000D01*
G75*
G02*
X-11625000Y-37475000I-200000J0D01*
G01*
X-12025000Y-37475000D01*
G75*
G02*
X-12225000Y-37275000I0J200000D01*
G01*
G37*
G36*
G01*
X2046149Y52160542D02*
X1496854Y52188368D01*
G75*
G02*
X1307229Y52398231I10119J199744D01*
G01*
X1327466Y52797719D01*
G75*
G02*
X1537329Y52987344I199744J-10119D01*
G01*
X2086624Y52959518D01*
G75*
G02*
X2276249Y52749655I-10119J-199744D01*
G01*
X2256012Y52350167D01*
G75*
G02*
X2046149Y52160542I-199744J10119D01*
G01*
G37*
G36*
G01*
X1962671Y50512656D02*
X1413376Y50540482D01*
G75*
G02*
X1223751Y50750345I10119J199744D01*
G01*
X1243988Y51149833D01*
G75*
G02*
X1453851Y51339458I199744J-10119D01*
G01*
X2003146Y51311632D01*
G75*
G02*
X2192771Y51101769I-10119J-199744D01*
G01*
X2172534Y50702281D01*
G75*
G02*
X1962671Y50512656I-199744J10119D01*
G01*
G37*
G36*
G01*
X3712671Y50512656D02*
X3163376Y50540482D01*
G75*
G02*
X2973751Y50750345I10119J199744D01*
G01*
X2993988Y51149833D01*
G75*
G02*
X3203851Y51339458I199744J-10119D01*
G01*
X3753146Y51311632D01*
G75*
G02*
X3942771Y51101769I-10119J-199744D01*
G01*
X3922534Y50702281D01*
G75*
G02*
X3712671Y50512656I-199744J10119D01*
G01*
G37*
G36*
G01*
X3796149Y52160542D02*
X3246854Y52188368D01*
G75*
G02*
X3057229Y52398231I10119J199744D01*
G01*
X3077466Y52797719D01*
G75*
G02*
X3287329Y52987344I199744J-10119D01*
G01*
X3836624Y52959518D01*
G75*
G02*
X4026249Y52749655I-10119J-199744D01*
G01*
X4006012Y52350167D01*
G75*
G02*
X3796149Y52160542I-199744J10119D01*
G01*
G37*
G36*
G01*
X10340912Y49497808D02*
X9796954Y49579103D01*
G75*
G02*
X9628713Y49806468I29562J197803D01*
G01*
X9687837Y50202075D01*
G75*
G02*
X9915202Y50370316I197803J-29562D01*
G01*
X10459160Y50289021D01*
G75*
G02*
X10627401Y50061656I-29562J-197803D01*
G01*
X10568277Y49666049D01*
G75*
G02*
X10340912Y49497808I-197803J29562D01*
G01*
G37*
G36*
G01*
X10584798Y51129684D02*
X10040840Y51210979D01*
G75*
G02*
X9872599Y51438344I29562J197803D01*
G01*
X9931723Y51833951D01*
G75*
G02*
X10159088Y52002192I197803J-29562D01*
G01*
X10703046Y51920897D01*
G75*
G02*
X10871287Y51693532I-29562J-197803D01*
G01*
X10812163Y51297925D01*
G75*
G02*
X10584798Y51129684I-197803J29562D01*
G01*
G37*
G36*
G01*
X14615553Y48501731D02*
X14094896Y48678977D01*
G75*
G02*
X13970019Y48932760I64453J189330D01*
G01*
X14098926Y49311420D01*
G75*
G02*
X14352709Y49436297I189330J-64453D01*
G01*
X14873366Y49259051D01*
G75*
G02*
X14998243Y49005268I-64453J-189330D01*
G01*
X14869336Y48626608D01*
G75*
G02*
X14615553Y48501731I-189330J64453D01*
G01*
G37*
G36*
G01*
X15147291Y50063703D02*
X14626634Y50240949D01*
G75*
G02*
X14501757Y50494732I64453J189330D01*
G01*
X14630664Y50873392D01*
G75*
G02*
X14884447Y50998269I189330J-64453D01*
G01*
X15405104Y50821023D01*
G75*
G02*
X15529981Y50567240I-64453J-189330D01*
G01*
X15401074Y50188580D01*
G75*
G02*
X15147291Y50063703I-189330J64453D01*
G01*
G37*
G36*
G01*
X16897291Y49313703D02*
X16376634Y49490949D01*
G75*
G02*
X16251757Y49744732I64453J189330D01*
G01*
X16380664Y50123392D01*
G75*
G02*
X16634447Y50248269I189330J-64453D01*
G01*
X17155104Y50071023D01*
G75*
G02*
X17279981Y49817240I-64453J-189330D01*
G01*
X17151074Y49438580D01*
G75*
G02*
X16897291Y49313703I-189330J64453D01*
G01*
G37*
G36*
G01*
X16365553Y47751731D02*
X15844896Y47928977D01*
G75*
G02*
X15720019Y48182760I64453J189330D01*
G01*
X15848926Y48561420D01*
G75*
G02*
X16102709Y48686297I189330J-64453D01*
G01*
X16623366Y48509051D01*
G75*
G02*
X16748243Y48255268I-64453J-189330D01*
G01*
X16619336Y47876608D01*
G75*
G02*
X16365553Y47751731I-189330J64453D01*
G01*
G37*
G36*
G01*
X-21925000Y10275000D02*
X-21925000Y9725000D01*
G75*
G02*
X-22125000Y9525000I-200000J0D01*
G01*
X-22525000Y9525000D01*
G75*
G02*
X-22725000Y9725000I0J200000D01*
G01*
X-22725000Y10275000D01*
G75*
G02*
X-22525000Y10475000I200000J0D01*
G01*
X-22125000Y10475000D01*
G75*
G02*
X-21925000Y10275000I0J-200000D01*
G01*
G37*
G36*
G01*
X-20275000Y10275000D02*
X-20275000Y9725000D01*
G75*
G02*
X-20475000Y9525000I-200000J0D01*
G01*
X-20875000Y9525000D01*
G75*
G02*
X-21075000Y9725000I0J200000D01*
G01*
X-21075000Y10275000D01*
G75*
G02*
X-20875000Y10475000I200000J0D01*
G01*
X-20475000Y10475000D01*
G75*
G02*
X-20275000Y10275000I0J-200000D01*
G01*
G37*
G36*
G01*
X-22275000Y11775000D02*
X-22275000Y11225000D01*
G75*
G02*
X-22475000Y11025000I-200000J0D01*
G01*
X-22875000Y11025000D01*
G75*
G02*
X-23075000Y11225000I0J200000D01*
G01*
X-23075000Y11775000D01*
G75*
G02*
X-22875000Y11975000I200000J0D01*
G01*
X-22475000Y11975000D01*
G75*
G02*
X-22275000Y11775000I0J-200000D01*
G01*
G37*
G36*
G01*
X-23925000Y11775000D02*
X-23925000Y11225000D01*
G75*
G02*
X-24125000Y11025000I-200000J0D01*
G01*
X-24525000Y11025000D01*
G75*
G02*
X-24725000Y11225000I0J200000D01*
G01*
X-24725000Y11775000D01*
G75*
G02*
X-24525000Y11975000I200000J0D01*
G01*
X-24125000Y11975000D01*
G75*
G02*
X-23925000Y11775000I0J-200000D01*
G01*
G37*
G36*
G01*
X18525000Y-7275000D02*
X18525000Y-6725000D01*
G75*
G02*
X18725000Y-6525000I200000J0D01*
G01*
X19125000Y-6525000D01*
G75*
G02*
X19325000Y-6725000I0J-200000D01*
G01*
X19325000Y-7275000D01*
G75*
G02*
X19125000Y-7475000I-200000J0D01*
G01*
X18725000Y-7475000D01*
G75*
G02*
X18525000Y-7275000I0J200000D01*
G01*
G37*
G36*
G01*
X16875000Y-7275000D02*
X16875000Y-6725000D01*
G75*
G02*
X17075000Y-6525000I200000J0D01*
G01*
X17475000Y-6525000D01*
G75*
G02*
X17675000Y-6725000I0J-200000D01*
G01*
X17675000Y-7275000D01*
G75*
G02*
X17475000Y-7475000I-200000J0D01*
G01*
X17075000Y-7475000D01*
G75*
G02*
X16875000Y-7275000I0J200000D01*
G01*
G37*
G36*
G01*
X8228338Y-8260571D02*
X7839429Y-7871662D01*
G75*
G02*
X7839429Y-7588820I141421J141421D01*
G01*
X8122272Y-7305977D01*
G75*
G02*
X8405114Y-7305977I141421J-141421D01*
G01*
X8794023Y-7694886D01*
G75*
G02*
X8794023Y-7977728I-141421J-141421D01*
G01*
X8511180Y-8260571D01*
G75*
G02*
X8228338Y-8260571I-141421J141421D01*
G01*
G37*
G36*
G01*
X7061612Y-9427297D02*
X6672703Y-9038388D01*
G75*
G02*
X6672703Y-8755546I141421J141421D01*
G01*
X6955546Y-8472703D01*
G75*
G02*
X7238388Y-8472703I141421J-141421D01*
G01*
X7627297Y-8861612D01*
G75*
G02*
X7627297Y-9144454I-141421J-141421D01*
G01*
X7344454Y-9427297D01*
G75*
G02*
X7061612Y-9427297I-141421J141421D01*
G01*
G37*
G36*
G01*
X27725000Y11275000D02*
X27725000Y10725000D01*
G75*
G02*
X27525000Y10525000I-200000J0D01*
G01*
X27125000Y10525000D01*
G75*
G02*
X26925000Y10725000I0J200000D01*
G01*
X26925000Y11275000D01*
G75*
G02*
X27125000Y11475000I200000J0D01*
G01*
X27525000Y11475000D01*
G75*
G02*
X27725000Y11275000I0J-200000D01*
G01*
G37*
G36*
G01*
X26075000Y11275000D02*
X26075000Y10725000D01*
G75*
G02*
X25875000Y10525000I-200000J0D01*
G01*
X25475000Y10525000D01*
G75*
G02*
X25275000Y10725000I0J200000D01*
G01*
X25275000Y11275000D01*
G75*
G02*
X25475000Y11475000I200000J0D01*
G01*
X25875000Y11475000D01*
G75*
G02*
X26075000Y11275000I0J-200000D01*
G01*
G37*
G36*
G01*
X20853772Y46879960D02*
X20360704Y47123649D01*
G75*
G02*
X20270021Y47391560I88614J179297D01*
G01*
X20447249Y47750155D01*
G75*
G02*
X20715160Y47840838I179297J-88614D01*
G01*
X21208228Y47597149D01*
G75*
G02*
X21298911Y47329238I-88614J-179297D01*
G01*
X21121683Y46970643D01*
G75*
G02*
X20853772Y46879960I-179297J88614D01*
G01*
G37*
G36*
G01*
X21584840Y48359162D02*
X21091772Y48602851D01*
G75*
G02*
X21001089Y48870762I88614J179297D01*
G01*
X21178317Y49229357D01*
G75*
G02*
X21446228Y49320040I179297J-88614D01*
G01*
X21939296Y49076351D01*
G75*
G02*
X22029979Y48808440I-88614J-179297D01*
G01*
X21852751Y48449845D01*
G75*
G02*
X21584840Y48359162I-179297J88614D01*
G01*
G37*
G36*
G01*
X22934840Y47709162D02*
X22441772Y47952851D01*
G75*
G02*
X22351089Y48220762I88614J179297D01*
G01*
X22528317Y48579357D01*
G75*
G02*
X22796228Y48670040I179297J-88614D01*
G01*
X23289296Y48426351D01*
G75*
G02*
X23379979Y48158440I-88614J-179297D01*
G01*
X23202751Y47799845D01*
G75*
G02*
X22934840Y47709162I-179297J88614D01*
G01*
G37*
G36*
G01*
X22203772Y46229960D02*
X21710704Y46473649D01*
G75*
G02*
X21620021Y46741560I88614J179297D01*
G01*
X21797249Y47100155D01*
G75*
G02*
X22065160Y47190838I179297J-88614D01*
G01*
X22558228Y46947149D01*
G75*
G02*
X22648911Y46679238I-88614J-179297D01*
G01*
X22471683Y46320643D01*
G75*
G02*
X22203772Y46229960I-179297J88614D01*
G01*
G37*
G36*
G01*
X27764947Y45100187D02*
X27307905Y45406149D01*
G75*
G02*
X27252967Y45683605I111259J166197D01*
G01*
X27475485Y46015999D01*
G75*
G02*
X27752941Y46070937I166197J-111259D01*
G01*
X28209983Y45764975D01*
G75*
G02*
X28264921Y45487519I-111259J-166197D01*
G01*
X28042403Y45155125D01*
G75*
G02*
X27764947Y45100187I-166197J111259D01*
G01*
G37*
G36*
G01*
X26847059Y43729063D02*
X26390017Y44035025D01*
G75*
G02*
X26335079Y44312481I111259J166197D01*
G01*
X26557597Y44644875D01*
G75*
G02*
X26835053Y44699813I166197J-111259D01*
G01*
X27292095Y44393851D01*
G75*
G02*
X27347033Y44116395I-111259J-166197D01*
G01*
X27124515Y43784001D01*
G75*
G02*
X26847059Y43729063I-166197J111259D01*
G01*
G37*
G36*
G01*
X28097059Y42879063D02*
X27640017Y43185025D01*
G75*
G02*
X27585079Y43462481I111259J166197D01*
G01*
X27807597Y43794875D01*
G75*
G02*
X28085053Y43849813I166197J-111259D01*
G01*
X28542095Y43543851D01*
G75*
G02*
X28597033Y43266395I-111259J-166197D01*
G01*
X28374515Y42934001D01*
G75*
G02*
X28097059Y42879063I-166197J111259D01*
G01*
G37*
G36*
G01*
X29014947Y44250187D02*
X28557905Y44556149D01*
G75*
G02*
X28502967Y44833605I111259J166197D01*
G01*
X28725485Y45165999D01*
G75*
G02*
X29002941Y45220937I166197J-111259D01*
G01*
X29459983Y44914975D01*
G75*
G02*
X29514921Y44637519I-111259J-166197D01*
G01*
X29292403Y44305125D01*
G75*
G02*
X29014947Y44250187I-166197J111259D01*
G01*
G37*
G36*
G01*
X33637098Y40762787D02*
X33223903Y41125788D01*
G75*
G02*
X33205650Y41408041I132000J150253D01*
G01*
X33469651Y41708546D01*
G75*
G02*
X33751904Y41726799I150253J-132000D01*
G01*
X34165099Y41363798D01*
G75*
G02*
X34183352Y41081545I-132000J-150253D01*
G01*
X33919351Y40781040D01*
G75*
G02*
X33637098Y40762787I-150253J132000D01*
G01*
G37*
G36*
G01*
X32548096Y39523201D02*
X32134901Y39886202D01*
G75*
G02*
X32116648Y40168455I132000J150253D01*
G01*
X32380649Y40468960D01*
G75*
G02*
X32662902Y40487213I150253J-132000D01*
G01*
X33076097Y40124212D01*
G75*
G02*
X33094350Y39841959I-132000J-150253D01*
G01*
X32830349Y39541454D01*
G75*
G02*
X32548096Y39523201I-150253J132000D01*
G01*
G37*
G36*
G01*
X33698096Y38548201D02*
X33284901Y38911202D01*
G75*
G02*
X33266648Y39193455I132000J150253D01*
G01*
X33530649Y39493960D01*
G75*
G02*
X33812902Y39512213I150253J-132000D01*
G01*
X34226097Y39149212D01*
G75*
G02*
X34244350Y38866959I-132000J-150253D01*
G01*
X33980349Y38566454D01*
G75*
G02*
X33698096Y38548201I-150253J132000D01*
G01*
G37*
G36*
G01*
X34787098Y39787787D02*
X34373903Y40150788D01*
G75*
G02*
X34355650Y40433041I132000J150253D01*
G01*
X34619651Y40733546D01*
G75*
G02*
X34901904Y40751799I150253J-132000D01*
G01*
X35315099Y40388798D01*
G75*
G02*
X35333352Y40106545I-132000J-150253D01*
G01*
X35069351Y39806040D01*
G75*
G02*
X34787098Y39787787I-150253J132000D01*
G01*
G37*
G36*
G01*
X24575000Y12775000D02*
X24575000Y12225000D01*
G75*
G02*
X24375000Y12025000I-200000J0D01*
G01*
X23975000Y12025000D01*
G75*
G02*
X23775000Y12225000I0J200000D01*
G01*
X23775000Y12775000D01*
G75*
G02*
X23975000Y12975000I200000J0D01*
G01*
X24375000Y12975000D01*
G75*
G02*
X24575000Y12775000I0J-200000D01*
G01*
G37*
G36*
G01*
X26225000Y12775000D02*
X26225000Y12225000D01*
G75*
G02*
X26025000Y12025000I-200000J0D01*
G01*
X25625000Y12025000D01*
G75*
G02*
X25425000Y12225000I0J200000D01*
G01*
X25425000Y12775000D01*
G75*
G02*
X25625000Y12975000I200000J0D01*
G01*
X26025000Y12975000D01*
G75*
G02*
X26225000Y12775000I0J-200000D01*
G01*
G37*
G36*
G01*
X13025000Y-16875000D02*
X13025000Y-16325000D01*
G75*
G02*
X13225000Y-16125000I200000J0D01*
G01*
X13625000Y-16125000D01*
G75*
G02*
X13825000Y-16325000I0J-200000D01*
G01*
X13825000Y-16875000D01*
G75*
G02*
X13625000Y-17075000I-200000J0D01*
G01*
X13225000Y-17075000D01*
G75*
G02*
X13025000Y-16875000I0J200000D01*
G01*
G37*
G36*
G01*
X14675000Y-16875000D02*
X14675000Y-16325000D01*
G75*
G02*
X14875000Y-16125000I200000J0D01*
G01*
X15275000Y-16125000D01*
G75*
G02*
X15475000Y-16325000I0J-200000D01*
G01*
X15475000Y-16875000D01*
G75*
G02*
X15275000Y-17075000I-200000J0D01*
G01*
X14875000Y-17075000D01*
G75*
G02*
X14675000Y-16875000I0J200000D01*
G01*
G37*
G36*
G01*
X14675000Y-18375000D02*
X14675000Y-17825000D01*
G75*
G02*
X14875000Y-17625000I200000J0D01*
G01*
X15275000Y-17625000D01*
G75*
G02*
X15475000Y-17825000I0J-200000D01*
G01*
X15475000Y-18375000D01*
G75*
G02*
X15275000Y-18575000I-200000J0D01*
G01*
X14875000Y-18575000D01*
G75*
G02*
X14675000Y-18375000I0J200000D01*
G01*
G37*
G36*
G01*
X13025000Y-18375000D02*
X13025000Y-17825000D01*
G75*
G02*
X13225000Y-17625000I200000J0D01*
G01*
X13625000Y-17625000D01*
G75*
G02*
X13825000Y-17825000I0J-200000D01*
G01*
X13825000Y-18375000D01*
G75*
G02*
X13625000Y-18575000I-200000J0D01*
G01*
X13225000Y-18575000D01*
G75*
G02*
X13025000Y-18375000I0J200000D01*
G01*
G37*
G36*
G01*
X-8855000Y9700000D02*
X-9155000Y9700000D01*
G75*
G02*
X-9305000Y9850000I0J150000D01*
G01*
X-9305000Y11500000D01*
G75*
G02*
X-9155000Y11650000I150000J0D01*
G01*
X-8855000Y11650000D01*
G75*
G02*
X-8705000Y11500000I0J-150000D01*
G01*
X-8705000Y9850000D01*
G75*
G02*
X-8855000Y9700000I-150000J0D01*
G01*
G37*
G36*
G01*
X-7585000Y9700000D02*
X-7885000Y9700000D01*
G75*
G02*
X-8035000Y9850000I0J150000D01*
G01*
X-8035000Y11500000D01*
G75*
G02*
X-7885000Y11650000I150000J0D01*
G01*
X-7585000Y11650000D01*
G75*
G02*
X-7435000Y11500000I0J-150000D01*
G01*
X-7435000Y9850000D01*
G75*
G02*
X-7585000Y9700000I-150000J0D01*
G01*
G37*
G36*
G01*
X-6315000Y9700000D02*
X-6615000Y9700000D01*
G75*
G02*
X-6765000Y9850000I0J150000D01*
G01*
X-6765000Y11500000D01*
G75*
G02*
X-6615000Y11650000I150000J0D01*
G01*
X-6315000Y11650000D01*
G75*
G02*
X-6165000Y11500000I0J-150000D01*
G01*
X-6165000Y9850000D01*
G75*
G02*
X-6315000Y9700000I-150000J0D01*
G01*
G37*
G36*
G01*
X-5045000Y9700000D02*
X-5345000Y9700000D01*
G75*
G02*
X-5495000Y9850000I0J150000D01*
G01*
X-5495000Y11500000D01*
G75*
G02*
X-5345000Y11650000I150000J0D01*
G01*
X-5045000Y11650000D01*
G75*
G02*
X-4895000Y11500000I0J-150000D01*
G01*
X-4895000Y9850000D01*
G75*
G02*
X-5045000Y9700000I-150000J0D01*
G01*
G37*
G36*
G01*
X-5045000Y4750000D02*
X-5345000Y4750000D01*
G75*
G02*
X-5495000Y4900000I0J150000D01*
G01*
X-5495000Y6550000D01*
G75*
G02*
X-5345000Y6700000I150000J0D01*
G01*
X-5045000Y6700000D01*
G75*
G02*
X-4895000Y6550000I0J-150000D01*
G01*
X-4895000Y4900000D01*
G75*
G02*
X-5045000Y4750000I-150000J0D01*
G01*
G37*
G36*
G01*
X-6315000Y4750000D02*
X-6615000Y4750000D01*
G75*
G02*
X-6765000Y4900000I0J150000D01*
G01*
X-6765000Y6550000D01*
G75*
G02*
X-6615000Y6700000I150000J0D01*
G01*
X-6315000Y6700000D01*
G75*
G02*
X-6165000Y6550000I0J-150000D01*
G01*
X-6165000Y4900000D01*
G75*
G02*
X-6315000Y4750000I-150000J0D01*
G01*
G37*
G36*
G01*
X-7585000Y4750000D02*
X-7885000Y4750000D01*
G75*
G02*
X-8035000Y4900000I0J150000D01*
G01*
X-8035000Y6550000D01*
G75*
G02*
X-7885000Y6700000I150000J0D01*
G01*
X-7585000Y6700000D01*
G75*
G02*
X-7435000Y6550000I0J-150000D01*
G01*
X-7435000Y4900000D01*
G75*
G02*
X-7585000Y4750000I-150000J0D01*
G01*
G37*
G36*
G01*
X-8855000Y4750000D02*
X-9155000Y4750000D01*
G75*
G02*
X-9305000Y4900000I0J150000D01*
G01*
X-9305000Y6550000D01*
G75*
G02*
X-9155000Y6700000I150000J0D01*
G01*
X-8855000Y6700000D01*
G75*
G02*
X-8705000Y6550000I0J-150000D01*
G01*
X-8705000Y4900000D01*
G75*
G02*
X-8855000Y4750000I-150000J0D01*
G01*
G37*
G36*
G01*
X-24255000Y-13450000D02*
X-24555000Y-13450000D01*
G75*
G02*
X-24705000Y-13300000I0J150000D01*
G01*
X-24705000Y-11650000D01*
G75*
G02*
X-24555000Y-11500000I150000J0D01*
G01*
X-24255000Y-11500000D01*
G75*
G02*
X-24105000Y-11650000I0J-150000D01*
G01*
X-24105000Y-13300000D01*
G75*
G02*
X-24255000Y-13450000I-150000J0D01*
G01*
G37*
G36*
G01*
X-22985000Y-13450000D02*
X-23285000Y-13450000D01*
G75*
G02*
X-23435000Y-13300000I0J150000D01*
G01*
X-23435000Y-11650000D01*
G75*
G02*
X-23285000Y-11500000I150000J0D01*
G01*
X-22985000Y-11500000D01*
G75*
G02*
X-22835000Y-11650000I0J-150000D01*
G01*
X-22835000Y-13300000D01*
G75*
G02*
X-22985000Y-13450000I-150000J0D01*
G01*
G37*
G36*
G01*
X-21715000Y-13450000D02*
X-22015000Y-13450000D01*
G75*
G02*
X-22165000Y-13300000I0J150000D01*
G01*
X-22165000Y-11650000D01*
G75*
G02*
X-22015000Y-11500000I150000J0D01*
G01*
X-21715000Y-11500000D01*
G75*
G02*
X-21565000Y-11650000I0J-150000D01*
G01*
X-21565000Y-13300000D01*
G75*
G02*
X-21715000Y-13450000I-150000J0D01*
G01*
G37*
G36*
G01*
X-20445000Y-13450000D02*
X-20745000Y-13450000D01*
G75*
G02*
X-20895000Y-13300000I0J150000D01*
G01*
X-20895000Y-11650000D01*
G75*
G02*
X-20745000Y-11500000I150000J0D01*
G01*
X-20445000Y-11500000D01*
G75*
G02*
X-20295000Y-11650000I0J-150000D01*
G01*
X-20295000Y-13300000D01*
G75*
G02*
X-20445000Y-13450000I-150000J0D01*
G01*
G37*
G36*
G01*
X-20445000Y-8500000D02*
X-20745000Y-8500000D01*
G75*
G02*
X-20895000Y-8350000I0J150000D01*
G01*
X-20895000Y-6700000D01*
G75*
G02*
X-20745000Y-6550000I150000J0D01*
G01*
X-20445000Y-6550000D01*
G75*
G02*
X-20295000Y-6700000I0J-150000D01*
G01*
X-20295000Y-8350000D01*
G75*
G02*
X-20445000Y-8500000I-150000J0D01*
G01*
G37*
G36*
G01*
X-21715000Y-8500000D02*
X-22015000Y-8500000D01*
G75*
G02*
X-22165000Y-8350000I0J150000D01*
G01*
X-22165000Y-6700000D01*
G75*
G02*
X-22015000Y-6550000I150000J0D01*
G01*
X-21715000Y-6550000D01*
G75*
G02*
X-21565000Y-6700000I0J-150000D01*
G01*
X-21565000Y-8350000D01*
G75*
G02*
X-21715000Y-8500000I-150000J0D01*
G01*
G37*
G36*
G01*
X-22985000Y-8500000D02*
X-23285000Y-8500000D01*
G75*
G02*
X-23435000Y-8350000I0J150000D01*
G01*
X-23435000Y-6700000D01*
G75*
G02*
X-23285000Y-6550000I150000J0D01*
G01*
X-22985000Y-6550000D01*
G75*
G02*
X-22835000Y-6700000I0J-150000D01*
G01*
X-22835000Y-8350000D01*
G75*
G02*
X-22985000Y-8500000I-150000J0D01*
G01*
G37*
G36*
G01*
X-24255000Y-8500000D02*
X-24555000Y-8500000D01*
G75*
G02*
X-24705000Y-8350000I0J150000D01*
G01*
X-24705000Y-6700000D01*
G75*
G02*
X-24555000Y-6550000I150000J0D01*
G01*
X-24255000Y-6550000D01*
G75*
G02*
X-24105000Y-6700000I0J-150000D01*
G01*
X-24105000Y-8350000D01*
G75*
G02*
X-24255000Y-8500000I-150000J0D01*
G01*
G37*
D28*
X-9732500Y-41500000D03*
X-6267500Y-41500000D03*
X-9732500Y-43600000D03*
X-6267500Y-43600000D03*
D29*
X26400000Y-250000D03*
X26400000Y1250000D03*
X25200000Y1250000D03*
X25200000Y-250000D03*
M02*
