%TF.GenerationSoftware,KiCad,Pcbnew,(5.1.10)-1*%
%TF.CreationDate,2022-02-04T19:34:50+09:00*%
%TF.ProjectId,SubSensor,53756253-656e-4736-9f72-2e6b69636164,rev?*%
%TF.SameCoordinates,Original*%
%TF.FileFunction,Copper,L2,Bot*%
%TF.FilePolarity,Positive*%
%FSLAX46Y46*%
G04 Gerber Fmt 4.6, Leading zero omitted, Abs format (unit mm)*
G04 Created by KiCad (PCBNEW (5.1.10)-1) date 2022-02-04 19:34:50*
%MOMM*%
%LPD*%
G01*
G04 APERTURE LIST*
%TA.AperFunction,SMDPad,CuDef*%
%ADD10R,1.800000X1.200000*%
%TD*%
%TA.AperFunction,ViaPad*%
%ADD11C,0.800000*%
%TD*%
%TA.AperFunction,Conductor*%
%ADD12C,0.250000*%
%TD*%
%TA.AperFunction,Conductor*%
%ADD13C,0.254000*%
%TD*%
%TA.AperFunction,Conductor*%
%ADD14C,0.100000*%
%TD*%
G04 APERTURE END LIST*
%TO.P,D1,1*%
%TO.N,Net-(D1-Pad1)*%
%TA.AperFunction,SMDPad,CuDef*%
G36*
G01*
X14725000Y-5743750D02*
X14725000Y-6256250D01*
G75*
G02*
X14506250Y-6475000I-218750J0D01*
G01*
X14068750Y-6475000D01*
G75*
G02*
X13850000Y-6256250I0J218750D01*
G01*
X13850000Y-5743750D01*
G75*
G02*
X14068750Y-5525000I218750J0D01*
G01*
X14506250Y-5525000D01*
G75*
G02*
X14725000Y-5743750I0J-218750D01*
G01*
G37*
%TD.AperFunction*%
%TO.P,D1,2*%
%TO.N,Net-(D1-Pad2)*%
%TA.AperFunction,SMDPad,CuDef*%
G36*
G01*
X13150000Y-5743750D02*
X13150000Y-6256250D01*
G75*
G02*
X12931250Y-6475000I-218750J0D01*
G01*
X12493750Y-6475000D01*
G75*
G02*
X12275000Y-6256250I0J218750D01*
G01*
X12275000Y-5743750D01*
G75*
G02*
X12493750Y-5525000I218750J0D01*
G01*
X12931250Y-5525000D01*
G75*
G02*
X13150000Y-5743750I0J-218750D01*
G01*
G37*
%TD.AperFunction*%
%TD*%
%TO.P,R1,1*%
%TO.N,+5V*%
%TA.AperFunction,SMDPad,CuDef*%
G36*
G01*
X14725000Y-3725000D02*
X14725000Y-4275000D01*
G75*
G02*
X14525000Y-4475000I-200000J0D01*
G01*
X14125000Y-4475000D01*
G75*
G02*
X13925000Y-4275000I0J200000D01*
G01*
X13925000Y-3725000D01*
G75*
G02*
X14125000Y-3525000I200000J0D01*
G01*
X14525000Y-3525000D01*
G75*
G02*
X14725000Y-3725000I0J-200000D01*
G01*
G37*
%TD.AperFunction*%
%TO.P,R1,2*%
%TO.N,Net-(D1-Pad2)*%
%TA.AperFunction,SMDPad,CuDef*%
G36*
G01*
X13075000Y-3725000D02*
X13075000Y-4275000D01*
G75*
G02*
X12875000Y-4475000I-200000J0D01*
G01*
X12475000Y-4475000D01*
G75*
G02*
X12275000Y-4275000I0J200000D01*
G01*
X12275000Y-3725000D01*
G75*
G02*
X12475000Y-3525000I200000J0D01*
G01*
X12875000Y-3525000D01*
G75*
G02*
X13075000Y-3725000I0J-200000D01*
G01*
G37*
%TD.AperFunction*%
%TD*%
D10*
%TO.P,U1,1*%
%TO.N,Net-(D1-Pad1)*%
X16150000Y-6270000D03*
%TO.P,U1,2*%
%TO.N,+5V*%
X16150000Y-3730000D03*
%TO.P,U1,3*%
%TO.N,Net-(J1-Pad2)*%
X22850000Y-3730000D03*
%TO.P,U1,4*%
%TO.N,GND*%
X22850000Y-6270000D03*
%TD*%
D11*
%TO.N,+5V*%
X17000000Y-5000000D03*
X10500000Y-3500000D03*
%TO.N,GND*%
X23000000Y-9000000D03*
X23000000Y-1000000D03*
X21000000Y-6250000D03*
%TO.N,Net-(J1-Pad2)*%
X19000000Y-3500000D03*
%TD*%
D12*
%TO.N,+5V*%
X15880000Y-4000000D02*
X16150000Y-3730000D01*
X17000000Y-5000000D02*
X14500000Y-2500000D01*
X11500000Y-2500000D02*
X10500000Y-3500000D01*
X13000000Y-2500000D02*
X13750000Y-2500000D01*
X14500000Y-2500000D02*
X13000000Y-2500000D01*
X13000000Y-2500000D02*
X11500000Y-2500000D01*
X14325000Y-3075000D02*
X14325000Y-4000000D01*
X13750000Y-2500000D02*
X14325000Y-3075000D01*
%TO.N,Net-(D1-Pad1)*%
X15880000Y-6000000D02*
X16150000Y-6270000D01*
X14287500Y-6000000D02*
X15880000Y-6000000D01*
%TO.N,Net-(D1-Pad2)*%
X12675000Y-5962500D02*
X12712500Y-6000000D01*
X12675000Y-4000000D02*
X12675000Y-5962500D01*
%TO.N,Net-(J1-Pad2)*%
X22620000Y-3500000D02*
X22850000Y-3730000D01*
X19000000Y-3500000D02*
X22620000Y-3500000D01*
%TD*%
D13*
%TO.N,GND*%
X23264999Y-1963902D02*
X23261444Y-2000000D01*
X23264999Y-2036095D01*
X23264999Y-2036104D01*
X23275634Y-2144084D01*
X23317662Y-2282632D01*
X23385912Y-2410319D01*
X23452887Y-2491928D01*
X21950000Y-2491928D01*
X21825518Y-2504188D01*
X21705820Y-2540498D01*
X21595506Y-2599463D01*
X21498815Y-2678815D01*
X21448602Y-2740000D01*
X19703711Y-2740000D01*
X19659774Y-2696063D01*
X19490256Y-2582795D01*
X19301898Y-2504774D01*
X19101939Y-2465000D01*
X18898061Y-2465000D01*
X18698102Y-2504774D01*
X18509744Y-2582795D01*
X18340226Y-2696063D01*
X18196063Y-2840226D01*
X18082795Y-3009744D01*
X18004774Y-3198102D01*
X17965000Y-3398061D01*
X17965000Y-3601939D01*
X18004774Y-3801898D01*
X18082795Y-3990256D01*
X18196063Y-4159774D01*
X18340226Y-4303937D01*
X18509744Y-4417205D01*
X18698102Y-4495226D01*
X18898061Y-4535000D01*
X19101939Y-4535000D01*
X19301898Y-4495226D01*
X19490256Y-4417205D01*
X19659774Y-4303937D01*
X19703711Y-4260000D01*
X21311928Y-4260000D01*
X21311928Y-4330000D01*
X21324188Y-4454482D01*
X21360498Y-4574180D01*
X21419463Y-4684494D01*
X21498815Y-4781185D01*
X21595506Y-4860537D01*
X21705820Y-4919502D01*
X21825518Y-4955812D01*
X21950000Y-4968072D01*
X22873000Y-4968072D01*
X22873000Y-5500000D01*
X22875440Y-5524776D01*
X22882667Y-5548601D01*
X22894403Y-5570557D01*
X22910197Y-5589803D01*
X22929443Y-5605597D01*
X22951399Y-5617333D01*
X22975224Y-5624560D01*
X22977000Y-5624735D01*
X22977000Y-6143000D01*
X22997000Y-6143000D01*
X22997000Y-6397000D01*
X22977000Y-6397000D01*
X22977000Y-7346250D01*
X23135750Y-7505000D01*
X23454100Y-7506592D01*
X23385912Y-7589679D01*
X23317662Y-7717366D01*
X23275634Y-7855914D01*
X23261443Y-7999999D01*
X23265000Y-8036114D01*
X23264999Y-9264999D01*
X3627000Y-9264999D01*
X3627000Y-6066984D01*
X3724156Y-5921580D01*
X3870818Y-5567506D01*
X3945586Y-5191623D01*
X3945586Y-4808375D01*
X3870818Y-4432492D01*
X3724156Y-4078418D01*
X3627000Y-3933014D01*
X3627000Y-3398061D01*
X9465000Y-3398061D01*
X9465000Y-3601939D01*
X9504774Y-3801898D01*
X9582795Y-3990256D01*
X9696063Y-4159774D01*
X9840226Y-4303937D01*
X10009744Y-4417205D01*
X10198102Y-4495226D01*
X10398061Y-4535000D01*
X10465451Y-4535000D01*
X11675664Y-5503170D01*
X11653392Y-5576592D01*
X11636928Y-5743750D01*
X11636928Y-6256250D01*
X11653392Y-6423408D01*
X11702150Y-6584142D01*
X11781329Y-6732275D01*
X11887885Y-6862115D01*
X12017725Y-6968671D01*
X12165858Y-7047850D01*
X12326592Y-7096608D01*
X12493750Y-7113072D01*
X12931250Y-7113072D01*
X13098408Y-7096608D01*
X13259142Y-7047850D01*
X13407275Y-6968671D01*
X13500000Y-6892574D01*
X13592725Y-6968671D01*
X13740858Y-7047850D01*
X13901592Y-7096608D01*
X14068750Y-7113072D01*
X14506250Y-7113072D01*
X14655697Y-7098352D01*
X14660498Y-7114180D01*
X14719463Y-7224494D01*
X14798815Y-7321185D01*
X14895506Y-7400537D01*
X15005820Y-7459502D01*
X15125518Y-7495812D01*
X15250000Y-7508072D01*
X17050000Y-7508072D01*
X17174482Y-7495812D01*
X17294180Y-7459502D01*
X17404494Y-7400537D01*
X17501185Y-7321185D01*
X17580537Y-7224494D01*
X17639502Y-7114180D01*
X17675812Y-6994482D01*
X17688072Y-6870000D01*
X21311928Y-6870000D01*
X21324188Y-6994482D01*
X21360498Y-7114180D01*
X21419463Y-7224494D01*
X21498815Y-7321185D01*
X21595506Y-7400537D01*
X21705820Y-7459502D01*
X21825518Y-7495812D01*
X21950000Y-7508072D01*
X22564250Y-7505000D01*
X22723000Y-7346250D01*
X22723000Y-6397000D01*
X21473750Y-6397000D01*
X21315000Y-6555750D01*
X21311928Y-6870000D01*
X17688072Y-6870000D01*
X17688072Y-5775639D01*
X17793711Y-5670000D01*
X21311928Y-5670000D01*
X21315000Y-5984250D01*
X21473750Y-6143000D01*
X22723000Y-6143000D01*
X22723000Y-5193750D01*
X22564250Y-5035000D01*
X21950000Y-5031928D01*
X21825518Y-5044188D01*
X21705820Y-5080498D01*
X21595506Y-5139463D01*
X21498815Y-5218815D01*
X21419463Y-5315506D01*
X21360498Y-5425820D01*
X21324188Y-5545518D01*
X21311928Y-5670000D01*
X17793711Y-5670000D01*
X17803937Y-5659774D01*
X17917205Y-5490256D01*
X17995226Y-5301898D01*
X18035000Y-5101939D01*
X18035000Y-4898061D01*
X17995226Y-4698102D01*
X17917205Y-4509744D01*
X17803937Y-4340226D01*
X17688072Y-4224361D01*
X17688072Y-3130000D01*
X17675812Y-3005518D01*
X17639502Y-2885820D01*
X17580537Y-2775506D01*
X17501185Y-2678815D01*
X17404494Y-2599463D01*
X17294180Y-2540498D01*
X17174482Y-2504188D01*
X17050000Y-2491928D01*
X15566729Y-2491928D01*
X15063804Y-1989003D01*
X15040001Y-1959999D01*
X14924276Y-1865026D01*
X14792247Y-1794454D01*
X14648986Y-1750997D01*
X14537333Y-1740000D01*
X14537322Y-1740000D01*
X14500000Y-1736324D01*
X14462678Y-1740000D01*
X13787322Y-1740000D01*
X13750000Y-1736324D01*
X13712678Y-1740000D01*
X11537333Y-1740000D01*
X11500000Y-1736323D01*
X11462667Y-1740000D01*
X11351014Y-1750997D01*
X11207753Y-1794454D01*
X11075724Y-1865026D01*
X10959999Y-1959999D01*
X10936201Y-1988997D01*
X10460199Y-2465000D01*
X10398061Y-2465000D01*
X10198102Y-2504774D01*
X10009744Y-2582795D01*
X9840226Y-2696063D01*
X9696063Y-2840226D01*
X9582795Y-3009744D01*
X9504774Y-3198102D01*
X9465000Y-3398061D01*
X3627000Y-3398061D01*
X3627000Y-735000D01*
X23265000Y-735000D01*
X23264999Y-1963902D01*
%TA.AperFunction,Conductor*%
D14*
G36*
X23264999Y-1963902D02*
G01*
X23261444Y-2000000D01*
X23264999Y-2036095D01*
X23264999Y-2036104D01*
X23275634Y-2144084D01*
X23317662Y-2282632D01*
X23385912Y-2410319D01*
X23452887Y-2491928D01*
X21950000Y-2491928D01*
X21825518Y-2504188D01*
X21705820Y-2540498D01*
X21595506Y-2599463D01*
X21498815Y-2678815D01*
X21448602Y-2740000D01*
X19703711Y-2740000D01*
X19659774Y-2696063D01*
X19490256Y-2582795D01*
X19301898Y-2504774D01*
X19101939Y-2465000D01*
X18898061Y-2465000D01*
X18698102Y-2504774D01*
X18509744Y-2582795D01*
X18340226Y-2696063D01*
X18196063Y-2840226D01*
X18082795Y-3009744D01*
X18004774Y-3198102D01*
X17965000Y-3398061D01*
X17965000Y-3601939D01*
X18004774Y-3801898D01*
X18082795Y-3990256D01*
X18196063Y-4159774D01*
X18340226Y-4303937D01*
X18509744Y-4417205D01*
X18698102Y-4495226D01*
X18898061Y-4535000D01*
X19101939Y-4535000D01*
X19301898Y-4495226D01*
X19490256Y-4417205D01*
X19659774Y-4303937D01*
X19703711Y-4260000D01*
X21311928Y-4260000D01*
X21311928Y-4330000D01*
X21324188Y-4454482D01*
X21360498Y-4574180D01*
X21419463Y-4684494D01*
X21498815Y-4781185D01*
X21595506Y-4860537D01*
X21705820Y-4919502D01*
X21825518Y-4955812D01*
X21950000Y-4968072D01*
X22873000Y-4968072D01*
X22873000Y-5500000D01*
X22875440Y-5524776D01*
X22882667Y-5548601D01*
X22894403Y-5570557D01*
X22910197Y-5589803D01*
X22929443Y-5605597D01*
X22951399Y-5617333D01*
X22975224Y-5624560D01*
X22977000Y-5624735D01*
X22977000Y-6143000D01*
X22997000Y-6143000D01*
X22997000Y-6397000D01*
X22977000Y-6397000D01*
X22977000Y-7346250D01*
X23135750Y-7505000D01*
X23454100Y-7506592D01*
X23385912Y-7589679D01*
X23317662Y-7717366D01*
X23275634Y-7855914D01*
X23261443Y-7999999D01*
X23265000Y-8036114D01*
X23264999Y-9264999D01*
X3627000Y-9264999D01*
X3627000Y-6066984D01*
X3724156Y-5921580D01*
X3870818Y-5567506D01*
X3945586Y-5191623D01*
X3945586Y-4808375D01*
X3870818Y-4432492D01*
X3724156Y-4078418D01*
X3627000Y-3933014D01*
X3627000Y-3398061D01*
X9465000Y-3398061D01*
X9465000Y-3601939D01*
X9504774Y-3801898D01*
X9582795Y-3990256D01*
X9696063Y-4159774D01*
X9840226Y-4303937D01*
X10009744Y-4417205D01*
X10198102Y-4495226D01*
X10398061Y-4535000D01*
X10465451Y-4535000D01*
X11675664Y-5503170D01*
X11653392Y-5576592D01*
X11636928Y-5743750D01*
X11636928Y-6256250D01*
X11653392Y-6423408D01*
X11702150Y-6584142D01*
X11781329Y-6732275D01*
X11887885Y-6862115D01*
X12017725Y-6968671D01*
X12165858Y-7047850D01*
X12326592Y-7096608D01*
X12493750Y-7113072D01*
X12931250Y-7113072D01*
X13098408Y-7096608D01*
X13259142Y-7047850D01*
X13407275Y-6968671D01*
X13500000Y-6892574D01*
X13592725Y-6968671D01*
X13740858Y-7047850D01*
X13901592Y-7096608D01*
X14068750Y-7113072D01*
X14506250Y-7113072D01*
X14655697Y-7098352D01*
X14660498Y-7114180D01*
X14719463Y-7224494D01*
X14798815Y-7321185D01*
X14895506Y-7400537D01*
X15005820Y-7459502D01*
X15125518Y-7495812D01*
X15250000Y-7508072D01*
X17050000Y-7508072D01*
X17174482Y-7495812D01*
X17294180Y-7459502D01*
X17404494Y-7400537D01*
X17501185Y-7321185D01*
X17580537Y-7224494D01*
X17639502Y-7114180D01*
X17675812Y-6994482D01*
X17688072Y-6870000D01*
X21311928Y-6870000D01*
X21324188Y-6994482D01*
X21360498Y-7114180D01*
X21419463Y-7224494D01*
X21498815Y-7321185D01*
X21595506Y-7400537D01*
X21705820Y-7459502D01*
X21825518Y-7495812D01*
X21950000Y-7508072D01*
X22564250Y-7505000D01*
X22723000Y-7346250D01*
X22723000Y-6397000D01*
X21473750Y-6397000D01*
X21315000Y-6555750D01*
X21311928Y-6870000D01*
X17688072Y-6870000D01*
X17688072Y-5775639D01*
X17793711Y-5670000D01*
X21311928Y-5670000D01*
X21315000Y-5984250D01*
X21473750Y-6143000D01*
X22723000Y-6143000D01*
X22723000Y-5193750D01*
X22564250Y-5035000D01*
X21950000Y-5031928D01*
X21825518Y-5044188D01*
X21705820Y-5080498D01*
X21595506Y-5139463D01*
X21498815Y-5218815D01*
X21419463Y-5315506D01*
X21360498Y-5425820D01*
X21324188Y-5545518D01*
X21311928Y-5670000D01*
X17793711Y-5670000D01*
X17803937Y-5659774D01*
X17917205Y-5490256D01*
X17995226Y-5301898D01*
X18035000Y-5101939D01*
X18035000Y-4898061D01*
X17995226Y-4698102D01*
X17917205Y-4509744D01*
X17803937Y-4340226D01*
X17688072Y-4224361D01*
X17688072Y-3130000D01*
X17675812Y-3005518D01*
X17639502Y-2885820D01*
X17580537Y-2775506D01*
X17501185Y-2678815D01*
X17404494Y-2599463D01*
X17294180Y-2540498D01*
X17174482Y-2504188D01*
X17050000Y-2491928D01*
X15566729Y-2491928D01*
X15063804Y-1989003D01*
X15040001Y-1959999D01*
X14924276Y-1865026D01*
X14792247Y-1794454D01*
X14648986Y-1750997D01*
X14537333Y-1740000D01*
X14537322Y-1740000D01*
X14500000Y-1736324D01*
X14462678Y-1740000D01*
X13787322Y-1740000D01*
X13750000Y-1736324D01*
X13712678Y-1740000D01*
X11537333Y-1740000D01*
X11500000Y-1736323D01*
X11462667Y-1740000D01*
X11351014Y-1750997D01*
X11207753Y-1794454D01*
X11075724Y-1865026D01*
X10959999Y-1959999D01*
X10936201Y-1988997D01*
X10460199Y-2465000D01*
X10398061Y-2465000D01*
X10198102Y-2504774D01*
X10009744Y-2582795D01*
X9840226Y-2696063D01*
X9696063Y-2840226D01*
X9582795Y-3009744D01*
X9504774Y-3198102D01*
X9465000Y-3398061D01*
X3627000Y-3398061D01*
X3627000Y-735000D01*
X23265000Y-735000D01*
X23264999Y-1963902D01*
G37*
%TD.AperFunction*%
%TD*%
M02*
