%TF.GenerationSoftware,KiCad,Pcbnew,(5.1.10)-1*%
%TF.CreationDate,2022-02-04T19:34:50+09:00*%
%TF.ProjectId,SubSensor,53756253-656e-4736-9f72-2e6b69636164,rev?*%
%TF.SameCoordinates,Original*%
%TF.FileFunction,Legend,Bot*%
%TF.FilePolarity,Positive*%
%FSLAX46Y46*%
G04 Gerber Fmt 4.6, Leading zero omitted, Abs format (unit mm)*
G04 Created by KiCad (PCBNEW (5.1.10)-1) date 2022-02-04 19:34:50*
%MOMM*%
%LPD*%
G01*
G04 APERTURE LIST*
%ADD10C,0.120000*%
%ADD11C,0.150000*%
G04 APERTURE END LIST*
D10*
%TO.C,D1*%
X14985000Y-6735000D02*
X12700000Y-6735000D01*
X14985000Y-5265000D02*
X14985000Y-6735000D01*
X12700000Y-5265000D02*
X14985000Y-5265000D01*
%TO.C,R1*%
X13737258Y-4522500D02*
X13262742Y-4522500D01*
X13737258Y-3477500D02*
X13262742Y-3477500D01*
%TO.C,U1*%
X19983334Y-6450002D02*
G75*
G03*
X19983334Y-6450002I-483334J0D01*
G01*
X17100000Y-7900000D02*
X21900000Y-7900000D01*
X17100000Y-2100000D02*
X17100000Y-7900000D01*
X21900000Y-2100000D02*
X17100000Y-2100000D01*
X21900000Y-7900000D02*
X21900000Y-2100000D01*
%TO.C,D1*%
D11*
X14238095Y-5022380D02*
X14238095Y-4022380D01*
X14000000Y-4022380D01*
X13857142Y-4070000D01*
X13761904Y-4165238D01*
X13714285Y-4260476D01*
X13666666Y-4450952D01*
X13666666Y-4593809D01*
X13714285Y-4784285D01*
X13761904Y-4879523D01*
X13857142Y-4974761D01*
X14000000Y-5022380D01*
X14238095Y-5022380D01*
X12714285Y-5022380D02*
X13285714Y-5022380D01*
X13000000Y-5022380D02*
X13000000Y-4022380D01*
X13095238Y-4165238D01*
X13190476Y-4260476D01*
X13285714Y-4308095D01*
%TO.C,R1*%
X13666666Y-3022380D02*
X14000000Y-2546190D01*
X14238095Y-3022380D02*
X14238095Y-2022380D01*
X13857142Y-2022380D01*
X13761904Y-2070000D01*
X13714285Y-2117619D01*
X13666666Y-2212857D01*
X13666666Y-2355714D01*
X13714285Y-2450952D01*
X13761904Y-2498571D01*
X13857142Y-2546190D01*
X14238095Y-2546190D01*
X12714285Y-3022380D02*
X13285714Y-3022380D01*
X13000000Y-3022380D02*
X13000000Y-2022380D01*
X13095238Y-2165238D01*
X13190476Y-2260476D01*
X13285714Y-2308095D01*
%TO.C,U1*%
X20261904Y-3002378D02*
X20261904Y-3811902D01*
X20214285Y-3907140D01*
X20166666Y-3954759D01*
X20071428Y-4002378D01*
X19880952Y-4002378D01*
X19785714Y-3954759D01*
X19738095Y-3907140D01*
X19690476Y-3811902D01*
X19690476Y-3002378D01*
X18690476Y-4002378D02*
X19261904Y-4002378D01*
X18976190Y-4002378D02*
X18976190Y-3002378D01*
X19071428Y-3145236D01*
X19166666Y-3240474D01*
X19261904Y-3288093D01*
%TD*%
M02*
