%TF.GenerationSoftware,KiCad,Pcbnew,(5.1.10)-1*%
%TF.CreationDate,2022-02-04T19:33:21+09:00*%
%TF.ProjectId,Power,506f7765-722e-46b6-9963-61645f706362,rev?*%
%TF.SameCoordinates,Original*%
%TF.FileFunction,Legend,Bot*%
%TF.FilePolarity,Positive*%
%FSLAX46Y46*%
G04 Gerber Fmt 4.6, Leading zero omitted, Abs format (unit mm)*
G04 Created by KiCad (PCBNEW (5.1.10)-1) date 2022-02-04 19:33:21*
%MOMM*%
%LPD*%
G01*
G04 APERTURE LIST*
%ADD10C,0.120000*%
%ADD11C,0.150000*%
G04 APERTURE END LIST*
D10*
%TO.C,C1*%
X-12950000Y25950000D02*
X-14600000Y25950000D01*
X-11300000Y24300000D02*
X-12950000Y25950000D01*
X-11300000Y21000000D02*
X-11300000Y24300000D01*
X-14600000Y19350000D02*
X-12950000Y19350000D01*
X-11300000Y21000000D02*
X-12950000Y19350000D01*
X-17900000Y25950000D02*
X-14600000Y25950000D01*
X-17900000Y22650000D02*
X-17900000Y25950000D01*
X-17900000Y19350000D02*
X-14600000Y19350000D01*
X-17900000Y22650000D02*
X-17900000Y19350000D01*
%TO.C,C2*%
X-14700000Y14150000D02*
X-18000000Y14150000D01*
X-14700000Y16400000D02*
X-15525000Y17150000D01*
X-17175000Y17150000D02*
X-18000000Y16400000D01*
X-14700000Y16400000D02*
X-14700000Y14150000D01*
X-15525000Y17150000D02*
X-17175000Y17150000D01*
X-18000000Y16400000D02*
X-18000000Y14150000D01*
%TO.C,C3*%
X16700000Y19450000D02*
X16700000Y21100000D01*
X15050000Y17800000D02*
X16700000Y19450000D01*
X11750000Y17800000D02*
X15050000Y17800000D01*
X10100000Y21100000D02*
X10100000Y19450000D01*
X11750000Y17800000D02*
X10100000Y19450000D01*
X16700000Y24400000D02*
X16700000Y21100000D01*
X13400000Y24400000D02*
X16700000Y24400000D01*
X10100000Y24400000D02*
X10100000Y21100000D01*
X13400000Y24400000D02*
X10100000Y24400000D01*
%TO.C,C4*%
X-4600000Y3500000D02*
X-2350000Y3500000D01*
X-5350000Y5975000D02*
X-5350000Y4325000D01*
X-4600000Y6800000D02*
X-2350000Y6800000D01*
X-5350000Y4325000D02*
X-4600000Y3500000D01*
X-4600000Y6800000D02*
X-5350000Y5975000D01*
X-2350000Y6800000D02*
X-2350000Y3500000D01*
%TO.C,C5*%
X-400000Y17700000D02*
X-400000Y23200000D01*
X700000Y16600000D02*
X-400000Y17700000D01*
X5100000Y16600000D02*
X700000Y16600000D01*
X6200000Y17700000D02*
X5100000Y16600000D01*
X6200000Y23200000D02*
X6200000Y17700000D01*
X-400000Y23200000D02*
X6200000Y23200000D01*
%TO.C,C6*%
X-2590000Y18259420D02*
X-2590000Y18540580D01*
X-3610000Y18259420D02*
X-3610000Y18540580D01*
%TO.C,C8*%
X-6359420Y-19310000D02*
X-6640580Y-19310000D01*
X-6359420Y-18290000D02*
X-6640580Y-18290000D01*
%TO.C,C9*%
X-9640580Y-19310000D02*
X-9359420Y-19310000D01*
X-9640580Y-18290000D02*
X-9359420Y-18290000D01*
%TO.C,C11*%
X7540580Y-12490000D02*
X7259420Y-12490000D01*
X7540580Y-13510000D02*
X7259420Y-13510000D01*
%TO.C,C12*%
X3740580Y-13510000D02*
X3459420Y-13510000D01*
X3740580Y-12490000D02*
X3459420Y-12490000D01*
%TO.C,C13*%
X-59420Y-13510000D02*
X-340580Y-13510000D01*
X-59420Y-12490000D02*
X-340580Y-12490000D01*
%TO.C,C20*%
X18609420Y1510000D02*
X18890580Y1510000D01*
X18609420Y490000D02*
X18890580Y490000D01*
%TO.C,C21*%
X359420Y490000D02*
X640580Y490000D01*
X359420Y1510000D02*
X640580Y1510000D01*
%TO.C,D1*%
X-6100000Y21000000D02*
X-6100000Y16837500D01*
X-6100000Y16837500D02*
X-8100000Y16837500D01*
X-8100000Y16837500D02*
X-8100000Y21000000D01*
%TO.C,FB1*%
X-8012779Y23160000D02*
X-7687221Y23160000D01*
X-8012779Y22140000D02*
X-7687221Y22140000D01*
%TO.C,R5*%
X7162742Y-11522500D02*
X7637258Y-11522500D01*
X7162742Y-10477500D02*
X7637258Y-10477500D01*
%TO.C,R6*%
X3362742Y-11522500D02*
X3837258Y-11522500D01*
X3362742Y-10477500D02*
X3837258Y-10477500D01*
%TO.C,R7*%
X-437258Y-11522500D02*
X37258Y-11522500D01*
X-437258Y-10477500D02*
X37258Y-10477500D01*
%TO.C,RN1*%
X-5440000Y-500000D02*
X-5440000Y-3950000D01*
X-5440000Y-500000D02*
X-5440000Y1450000D01*
X-10560000Y-500000D02*
X-10560000Y-2450000D01*
X-10560000Y-500000D02*
X-10560000Y1450000D01*
%TO.C,U1*%
X-12410000Y18760000D02*
X-12410000Y18530000D01*
X-12410000Y14040000D02*
X-12410000Y14270000D01*
X-12410000Y14040000D02*
X-9690000Y14040000D01*
X-9690000Y14040000D02*
X-9690000Y15350000D01*
X-13550000Y14270000D02*
X-12410000Y14270000D01*
X-9690000Y18760000D02*
X-12410000Y18760000D01*
X-9690000Y17450000D02*
X-9690000Y18760000D01*
%TO.C,C1*%
D11*
X-18542857Y20566666D02*
X-18495238Y20614285D01*
X-18447619Y20757142D01*
X-18447619Y20852380D01*
X-18495238Y20995238D01*
X-18590476Y21090476D01*
X-18685714Y21138095D01*
X-18876190Y21185714D01*
X-19019047Y21185714D01*
X-19209523Y21138095D01*
X-19304761Y21090476D01*
X-19400000Y20995238D01*
X-19447619Y20852380D01*
X-19447619Y20757142D01*
X-19400000Y20614285D01*
X-19352380Y20566666D01*
X-18447619Y19614285D02*
X-18447619Y20185714D01*
X-18447619Y19900000D02*
X-19447619Y19900000D01*
X-19304761Y19995238D01*
X-19209523Y20090476D01*
X-19161904Y20185714D01*
%TO.C,C2*%
X-19292857Y15816666D02*
X-19245238Y15864285D01*
X-19197619Y16007142D01*
X-19197619Y16102380D01*
X-19245238Y16245238D01*
X-19340476Y16340476D01*
X-19435714Y16388095D01*
X-19626190Y16435714D01*
X-19769047Y16435714D01*
X-19959523Y16388095D01*
X-20054761Y16340476D01*
X-20150000Y16245238D01*
X-20197619Y16102380D01*
X-20197619Y16007142D01*
X-20150000Y15864285D01*
X-20102380Y15816666D01*
X-20102380Y15435714D02*
X-20150000Y15388095D01*
X-20197619Y15292857D01*
X-20197619Y15054761D01*
X-20150000Y14959523D01*
X-20102380Y14911904D01*
X-20007142Y14864285D01*
X-19911904Y14864285D01*
X-19769047Y14911904D01*
X-19197619Y15483333D01*
X-19197619Y14864285D01*
%TO.C,C3*%
X11266666Y25042857D02*
X11314285Y24995238D01*
X11457142Y24947619D01*
X11552380Y24947619D01*
X11695238Y24995238D01*
X11790476Y25090476D01*
X11838095Y25185714D01*
X11885714Y25376190D01*
X11885714Y25519047D01*
X11838095Y25709523D01*
X11790476Y25804761D01*
X11695238Y25900000D01*
X11552380Y25947619D01*
X11457142Y25947619D01*
X11314285Y25900000D01*
X11266666Y25852380D01*
X10933333Y25947619D02*
X10314285Y25947619D01*
X10647619Y25566666D01*
X10504761Y25566666D01*
X10409523Y25519047D01*
X10361904Y25471428D01*
X10314285Y25376190D01*
X10314285Y25138095D01*
X10361904Y25042857D01*
X10409523Y24995238D01*
X10504761Y24947619D01*
X10790476Y24947619D01*
X10885714Y24995238D01*
X10933333Y25042857D01*
%TO.C,C4*%
X-3683333Y7292857D02*
X-3635714Y7245238D01*
X-3492857Y7197619D01*
X-3397619Y7197619D01*
X-3254761Y7245238D01*
X-3159523Y7340476D01*
X-3111904Y7435714D01*
X-3064285Y7626190D01*
X-3064285Y7769047D01*
X-3111904Y7959523D01*
X-3159523Y8054761D01*
X-3254761Y8150000D01*
X-3397619Y8197619D01*
X-3492857Y8197619D01*
X-3635714Y8150000D01*
X-3683333Y8102380D01*
X-4540476Y7864285D02*
X-4540476Y7197619D01*
X-4302380Y8245238D02*
X-4064285Y7530952D01*
X-4683333Y7530952D01*
%TO.C,C5*%
X516666Y23792857D02*
X564285Y23745238D01*
X707142Y23697619D01*
X802380Y23697619D01*
X945238Y23745238D01*
X1040476Y23840476D01*
X1088095Y23935714D01*
X1135714Y24126190D01*
X1135714Y24269047D01*
X1088095Y24459523D01*
X1040476Y24554761D01*
X945238Y24650000D01*
X802380Y24697619D01*
X707142Y24697619D01*
X564285Y24650000D01*
X516666Y24602380D01*
X-388095Y24697619D02*
X88095Y24697619D01*
X135714Y24221428D01*
X88095Y24269047D01*
X-7142Y24316666D01*
X-245238Y24316666D01*
X-340476Y24269047D01*
X-388095Y24221428D01*
X-435714Y24126190D01*
X-435714Y23888095D01*
X-388095Y23792857D01*
X-340476Y23745238D01*
X-245238Y23697619D01*
X-7142Y23697619D01*
X88095Y23745238D01*
X135714Y23792857D01*
%TO.C,C6*%
X-1312857Y18566666D02*
X-1265238Y18614285D01*
X-1217619Y18757142D01*
X-1217619Y18852380D01*
X-1265238Y18995238D01*
X-1360476Y19090476D01*
X-1455714Y19138095D01*
X-1646190Y19185714D01*
X-1789047Y19185714D01*
X-1979523Y19138095D01*
X-2074761Y19090476D01*
X-2170000Y18995238D01*
X-2217619Y18852380D01*
X-2217619Y18757142D01*
X-2170000Y18614285D01*
X-2122380Y18566666D01*
X-2217619Y17709523D02*
X-2217619Y17900000D01*
X-2170000Y17995238D01*
X-2122380Y18042857D01*
X-1979523Y18138095D01*
X-1789047Y18185714D01*
X-1408095Y18185714D01*
X-1312857Y18138095D01*
X-1265238Y18090476D01*
X-1217619Y17995238D01*
X-1217619Y17804761D01*
X-1265238Y17709523D01*
X-1312857Y17661904D01*
X-1408095Y17614285D01*
X-1646190Y17614285D01*
X-1741428Y17661904D01*
X-1789047Y17709523D01*
X-1836666Y17804761D01*
X-1836666Y17995238D01*
X-1789047Y18090476D01*
X-1741428Y18138095D01*
X-1646190Y18185714D01*
%TO.C,C8*%
X-6333333Y-20707142D02*
X-6285714Y-20754761D01*
X-6142857Y-20802380D01*
X-6047619Y-20802380D01*
X-5904761Y-20754761D01*
X-5809523Y-20659523D01*
X-5761904Y-20564285D01*
X-5714285Y-20373809D01*
X-5714285Y-20230952D01*
X-5761904Y-20040476D01*
X-5809523Y-19945238D01*
X-5904761Y-19850000D01*
X-6047619Y-19802380D01*
X-6142857Y-19802380D01*
X-6285714Y-19850000D01*
X-6333333Y-19897619D01*
X-6904761Y-20230952D02*
X-6809523Y-20183333D01*
X-6761904Y-20135714D01*
X-6714285Y-20040476D01*
X-6714285Y-19992857D01*
X-6761904Y-19897619D01*
X-6809523Y-19850000D01*
X-6904761Y-19802380D01*
X-7095238Y-19802380D01*
X-7190476Y-19850000D01*
X-7238095Y-19897619D01*
X-7285714Y-19992857D01*
X-7285714Y-20040476D01*
X-7238095Y-20135714D01*
X-7190476Y-20183333D01*
X-7095238Y-20230952D01*
X-6904761Y-20230952D01*
X-6809523Y-20278571D01*
X-6761904Y-20326190D01*
X-6714285Y-20421428D01*
X-6714285Y-20611904D01*
X-6761904Y-20707142D01*
X-6809523Y-20754761D01*
X-6904761Y-20802380D01*
X-7095238Y-20802380D01*
X-7190476Y-20754761D01*
X-7238095Y-20707142D01*
X-7285714Y-20611904D01*
X-7285714Y-20421428D01*
X-7238095Y-20326190D01*
X-7190476Y-20278571D01*
X-7095238Y-20230952D01*
%TO.C,C9*%
X-9333333Y-20707142D02*
X-9285714Y-20754761D01*
X-9142857Y-20802380D01*
X-9047619Y-20802380D01*
X-8904761Y-20754761D01*
X-8809523Y-20659523D01*
X-8761904Y-20564285D01*
X-8714285Y-20373809D01*
X-8714285Y-20230952D01*
X-8761904Y-20040476D01*
X-8809523Y-19945238D01*
X-8904761Y-19850000D01*
X-9047619Y-19802380D01*
X-9142857Y-19802380D01*
X-9285714Y-19850000D01*
X-9333333Y-19897619D01*
X-9809523Y-20802380D02*
X-10000000Y-20802380D01*
X-10095238Y-20754761D01*
X-10142857Y-20707142D01*
X-10238095Y-20564285D01*
X-10285714Y-20373809D01*
X-10285714Y-19992857D01*
X-10238095Y-19897619D01*
X-10190476Y-19850000D01*
X-10095238Y-19802380D01*
X-9904761Y-19802380D01*
X-9809523Y-19850000D01*
X-9761904Y-19897619D01*
X-9714285Y-19992857D01*
X-9714285Y-20230952D01*
X-9761904Y-20326190D01*
X-9809523Y-20373809D01*
X-9904761Y-20421428D01*
X-10095238Y-20421428D01*
X-10190476Y-20373809D01*
X-10238095Y-20326190D01*
X-10285714Y-20230952D01*
%TO.C,C11*%
X7992857Y-14957142D02*
X8040476Y-15004761D01*
X8183333Y-15052380D01*
X8278571Y-15052380D01*
X8421428Y-15004761D01*
X8516666Y-14909523D01*
X8564285Y-14814285D01*
X8611904Y-14623809D01*
X8611904Y-14480952D01*
X8564285Y-14290476D01*
X8516666Y-14195238D01*
X8421428Y-14100000D01*
X8278571Y-14052380D01*
X8183333Y-14052380D01*
X8040476Y-14100000D01*
X7992857Y-14147619D01*
X7040476Y-15052380D02*
X7611904Y-15052380D01*
X7326190Y-15052380D02*
X7326190Y-14052380D01*
X7421428Y-14195238D01*
X7516666Y-14290476D01*
X7611904Y-14338095D01*
X6088095Y-15052380D02*
X6659523Y-15052380D01*
X6373809Y-15052380D02*
X6373809Y-14052380D01*
X6469047Y-14195238D01*
X6564285Y-14290476D01*
X6659523Y-14338095D01*
%TO.C,C12*%
X4242857Y-14957142D02*
X4290476Y-15004761D01*
X4433333Y-15052380D01*
X4528571Y-15052380D01*
X4671428Y-15004761D01*
X4766666Y-14909523D01*
X4814285Y-14814285D01*
X4861904Y-14623809D01*
X4861904Y-14480952D01*
X4814285Y-14290476D01*
X4766666Y-14195238D01*
X4671428Y-14100000D01*
X4528571Y-14052380D01*
X4433333Y-14052380D01*
X4290476Y-14100000D01*
X4242857Y-14147619D01*
X3290476Y-15052380D02*
X3861904Y-15052380D01*
X3576190Y-15052380D02*
X3576190Y-14052380D01*
X3671428Y-14195238D01*
X3766666Y-14290476D01*
X3861904Y-14338095D01*
X2909523Y-14147619D02*
X2861904Y-14100000D01*
X2766666Y-14052380D01*
X2528571Y-14052380D01*
X2433333Y-14100000D01*
X2385714Y-14147619D01*
X2338095Y-14242857D01*
X2338095Y-14338095D01*
X2385714Y-14480952D01*
X2957142Y-15052380D01*
X2338095Y-15052380D01*
%TO.C,C13*%
X442857Y-14957142D02*
X490476Y-15004761D01*
X633333Y-15052380D01*
X728571Y-15052380D01*
X871428Y-15004761D01*
X966666Y-14909523D01*
X1014285Y-14814285D01*
X1061904Y-14623809D01*
X1061904Y-14480952D01*
X1014285Y-14290476D01*
X966666Y-14195238D01*
X871428Y-14100000D01*
X728571Y-14052380D01*
X633333Y-14052380D01*
X490476Y-14100000D01*
X442857Y-14147619D01*
X-509523Y-15052380D02*
X61904Y-15052380D01*
X-223809Y-15052380D02*
X-223809Y-14052380D01*
X-128571Y-14195238D01*
X-33333Y-14290476D01*
X61904Y-14338095D01*
X-842857Y-14052380D02*
X-1461904Y-14052380D01*
X-1128571Y-14433333D01*
X-1271428Y-14433333D01*
X-1366666Y-14480952D01*
X-1414285Y-14528571D01*
X-1461904Y-14623809D01*
X-1461904Y-14861904D01*
X-1414285Y-14957142D01*
X-1366666Y-15004761D01*
X-1271428Y-15052380D01*
X-985714Y-15052380D01*
X-890476Y-15004761D01*
X-842857Y-14957142D01*
%TO.C,C20*%
X19392857Y-787142D02*
X19440476Y-834761D01*
X19583333Y-882380D01*
X19678571Y-882380D01*
X19821428Y-834761D01*
X19916666Y-739523D01*
X19964285Y-644285D01*
X20011904Y-453809D01*
X20011904Y-310952D01*
X19964285Y-120476D01*
X19916666Y-25238D01*
X19821428Y70000D01*
X19678571Y117619D01*
X19583333Y117619D01*
X19440476Y70000D01*
X19392857Y22380D01*
X19011904Y22380D02*
X18964285Y70000D01*
X18869047Y117619D01*
X18630952Y117619D01*
X18535714Y70000D01*
X18488095Y22380D01*
X18440476Y-72857D01*
X18440476Y-168095D01*
X18488095Y-310952D01*
X19059523Y-882380D01*
X18440476Y-882380D01*
X17821428Y117619D02*
X17726190Y117619D01*
X17630952Y70000D01*
X17583333Y22380D01*
X17535714Y-72857D01*
X17488095Y-263333D01*
X17488095Y-501428D01*
X17535714Y-691904D01*
X17583333Y-787142D01*
X17630952Y-834761D01*
X17726190Y-882380D01*
X17821428Y-882380D01*
X17916666Y-834761D01*
X17964285Y-787142D01*
X18011904Y-691904D01*
X18059523Y-501428D01*
X18059523Y-263333D01*
X18011904Y-72857D01*
X17964285Y22380D01*
X17916666Y70000D01*
X17821428Y117619D01*
%TO.C,C21*%
X1142857Y-787142D02*
X1190476Y-834761D01*
X1333333Y-882380D01*
X1428571Y-882380D01*
X1571428Y-834761D01*
X1666666Y-739523D01*
X1714285Y-644285D01*
X1761904Y-453809D01*
X1761904Y-310952D01*
X1714285Y-120476D01*
X1666666Y-25238D01*
X1571428Y70000D01*
X1428571Y117619D01*
X1333333Y117619D01*
X1190476Y70000D01*
X1142857Y22380D01*
X761904Y22380D02*
X714285Y70000D01*
X619047Y117619D01*
X380952Y117619D01*
X285714Y70000D01*
X238095Y22380D01*
X190476Y-72857D01*
X190476Y-168095D01*
X238095Y-310952D01*
X809523Y-882380D01*
X190476Y-882380D01*
X-761904Y-882380D02*
X-190476Y-882380D01*
X-476190Y-882380D02*
X-476190Y117619D01*
X-380952Y-25238D01*
X-285714Y-120476D01*
X-190476Y-168095D01*
%TO.C,D1*%
X-4697619Y19888095D02*
X-5697619Y19888095D01*
X-5697619Y19650000D01*
X-5650000Y19507142D01*
X-5554761Y19411904D01*
X-5459523Y19364285D01*
X-5269047Y19316666D01*
X-5126190Y19316666D01*
X-4935714Y19364285D01*
X-4840476Y19411904D01*
X-4745238Y19507142D01*
X-4697619Y19650000D01*
X-4697619Y19888095D01*
X-4697619Y18364285D02*
X-4697619Y18935714D01*
X-4697619Y18650000D02*
X-5697619Y18650000D01*
X-5554761Y18745238D01*
X-5459523Y18840476D01*
X-5411904Y18935714D01*
%TO.C,FB1*%
X-7066666Y24221428D02*
X-6733333Y24221428D01*
X-6733333Y23697619D02*
X-6733333Y24697619D01*
X-7209523Y24697619D01*
X-7923809Y24221428D02*
X-8066666Y24173809D01*
X-8114285Y24126190D01*
X-8161904Y24030952D01*
X-8161904Y23888095D01*
X-8114285Y23792857D01*
X-8066666Y23745238D01*
X-7971428Y23697619D01*
X-7590476Y23697619D01*
X-7590476Y24697619D01*
X-7923809Y24697619D01*
X-8019047Y24650000D01*
X-8066666Y24602380D01*
X-8114285Y24507142D01*
X-8114285Y24411904D01*
X-8066666Y24316666D01*
X-8019047Y24269047D01*
X-7923809Y24221428D01*
X-7590476Y24221428D01*
X-9114285Y23697619D02*
X-8542857Y23697619D01*
X-8828571Y23697619D02*
X-8828571Y24697619D01*
X-8733333Y24554761D01*
X-8638095Y24459523D01*
X-8542857Y24411904D01*
%TO.C,R5*%
X7516666Y-10052380D02*
X7850000Y-9576190D01*
X8088095Y-10052380D02*
X8088095Y-9052380D01*
X7707142Y-9052380D01*
X7611904Y-9100000D01*
X7564285Y-9147619D01*
X7516666Y-9242857D01*
X7516666Y-9385714D01*
X7564285Y-9480952D01*
X7611904Y-9528571D01*
X7707142Y-9576190D01*
X8088095Y-9576190D01*
X6611904Y-9052380D02*
X7088095Y-9052380D01*
X7135714Y-9528571D01*
X7088095Y-9480952D01*
X6992857Y-9433333D01*
X6754761Y-9433333D01*
X6659523Y-9480952D01*
X6611904Y-9528571D01*
X6564285Y-9623809D01*
X6564285Y-9861904D01*
X6611904Y-9957142D01*
X6659523Y-10004761D01*
X6754761Y-10052380D01*
X6992857Y-10052380D01*
X7088095Y-10004761D01*
X7135714Y-9957142D01*
%TO.C,R6*%
X3766666Y-10052380D02*
X4100000Y-9576190D01*
X4338095Y-10052380D02*
X4338095Y-9052380D01*
X3957142Y-9052380D01*
X3861904Y-9100000D01*
X3814285Y-9147619D01*
X3766666Y-9242857D01*
X3766666Y-9385714D01*
X3814285Y-9480952D01*
X3861904Y-9528571D01*
X3957142Y-9576190D01*
X4338095Y-9576190D01*
X2909523Y-9052380D02*
X3100000Y-9052380D01*
X3195238Y-9100000D01*
X3242857Y-9147619D01*
X3338095Y-9290476D01*
X3385714Y-9480952D01*
X3385714Y-9861904D01*
X3338095Y-9957142D01*
X3290476Y-10004761D01*
X3195238Y-10052380D01*
X3004761Y-10052380D01*
X2909523Y-10004761D01*
X2861904Y-9957142D01*
X2814285Y-9861904D01*
X2814285Y-9623809D01*
X2861904Y-9528571D01*
X2909523Y-9480952D01*
X3004761Y-9433333D01*
X3195238Y-9433333D01*
X3290476Y-9480952D01*
X3338095Y-9528571D01*
X3385714Y-9623809D01*
%TO.C,R7*%
X-33333Y-10052380D02*
X300000Y-9576190D01*
X538095Y-10052380D02*
X538095Y-9052380D01*
X157142Y-9052380D01*
X61904Y-9100000D01*
X14285Y-9147619D01*
X-33333Y-9242857D01*
X-33333Y-9385714D01*
X14285Y-9480952D01*
X61904Y-9528571D01*
X157142Y-9576190D01*
X538095Y-9576190D01*
X-366666Y-9052380D02*
X-1033333Y-9052380D01*
X-604761Y-10052380D01*
%TO.C,RN1*%
X-5052380Y-1190476D02*
X-4576190Y-1523809D01*
X-5052380Y-1761904D02*
X-4052380Y-1761904D01*
X-4052380Y-1380952D01*
X-4100000Y-1285714D01*
X-4147619Y-1238095D01*
X-4242857Y-1190476D01*
X-4385714Y-1190476D01*
X-4480952Y-1238095D01*
X-4528571Y-1285714D01*
X-4576190Y-1380952D01*
X-4576190Y-1761904D01*
X-5052380Y-761904D02*
X-4052380Y-761904D01*
X-5052380Y-190476D01*
X-4052380Y-190476D01*
X-5052380Y809523D02*
X-5052380Y238095D01*
X-5052380Y523809D02*
X-4052380Y523809D01*
X-4195238Y428571D01*
X-4290476Y333333D01*
X-4338095Y238095D01*
%TO.C,U1*%
X-10288095Y13447619D02*
X-10288095Y12638095D01*
X-10335714Y12542857D01*
X-10383333Y12495238D01*
X-10478571Y12447619D01*
X-10669047Y12447619D01*
X-10764285Y12495238D01*
X-10811904Y12542857D01*
X-10859523Y12638095D01*
X-10859523Y13447619D01*
X-11859523Y12447619D02*
X-11288095Y12447619D01*
X-11573809Y12447619D02*
X-11573809Y13447619D01*
X-11478571Y13304761D01*
X-11383333Y13209523D01*
X-11288095Y13161904D01*
%TD*%
M02*
