%TF.GenerationSoftware,KiCad,Pcbnew,(5.1.10)-1*%
%TF.CreationDate,2022-02-04T19:35:20+09:00*%
%TF.ProjectId,Main,4d61696e-2e6b-4696-9361-645f70636258,rev?*%
%TF.SameCoordinates,Original*%
%TF.FileFunction,Legend,Bot*%
%TF.FilePolarity,Positive*%
%FSLAX46Y46*%
G04 Gerber Fmt 4.6, Leading zero omitted, Abs format (unit mm)*
G04 Created by KiCad (PCBNEW (5.1.10)-1) date 2022-02-04 19:35:20*
%MOMM*%
%LPD*%
G01*
G04 APERTURE LIST*
%ADD10C,0.120000*%
%ADD11C,0.150000*%
G04 APERTURE END LIST*
D10*
%TO.C,D1*%
X-35213931Y43723927D02*
X-36933199Y42218821D01*
X-36933199Y42218821D02*
X-37901473Y43324871D01*
X-37901473Y43324871D02*
X-36182205Y44829977D01*
%TO.C,D2*%
X-32393263Y47487542D02*
X-30492247Y48755362D01*
X-31577641Y46264570D02*
X-32393263Y47487542D01*
X-29676626Y47532389D02*
X-31577641Y46264570D01*
%TO.C,D3*%
X-26056935Y51303849D02*
X-24006700Y52312690D01*
X-25407922Y49984879D02*
X-26056935Y51303849D01*
X-23357687Y50993720D02*
X-25407922Y49984879D01*
%TO.C,D4*%
X-16356581Y53610291D02*
X-18520957Y52877690D01*
X-18520957Y52877690D02*
X-18992258Y54270089D01*
X-18992258Y54270089D02*
X-16827882Y55002690D01*
%TO.C,D5*%
X-11749481Y56332564D02*
X-9507998Y56776390D01*
X-11463956Y54890560D02*
X-11749481Y56332564D01*
X-9222474Y55334385D02*
X-11463956Y54890560D01*
%TO.C,D6*%
X-4379336Y57337638D02*
X-2099099Y57485094D01*
X-4284473Y55870702D02*
X-4379336Y57337638D01*
X-2004236Y56018158D02*
X-4284473Y55870702D01*
%TO.C,D7*%
X1950470Y57536403D02*
X4230446Y57384967D01*
X4230446Y57384967D02*
X4133024Y55918199D01*
X4133024Y55918199D02*
X1853048Y56069635D01*
%TO.C,D8*%
X9659529Y56777509D02*
X11900233Y56329772D01*
X11900233Y56329772D02*
X11612192Y54888268D01*
X11612192Y54888268D02*
X9371488Y55336005D01*
%TO.C,D9*%
X16879546Y54953600D02*
X19042639Y54217223D01*
X19042639Y54217223D02*
X18568909Y52825648D01*
X18568909Y52825648D02*
X16405815Y53562025D01*
%TO.C,D13*%
X23958468Y52413374D02*
X26006940Y51400957D01*
X26006940Y51400957D02*
X25355625Y50083122D01*
X25355625Y50083122D02*
X23307154Y51095539D01*
%TO.C,D14*%
X30294090Y48855810D02*
X32192889Y47584675D01*
X32192889Y47584675D02*
X31375135Y46363127D01*
X31375135Y46363127D02*
X29476335Y47634263D01*
%TO.C,D15*%
X36880526Y42267718D02*
X35163887Y43775822D01*
X37850728Y43372077D02*
X36880526Y42267718D01*
X36134090Y44880180D02*
X37850728Y43372077D01*
%TO.C,Q1*%
X-36411282Y42468259D02*
X-38057190Y41027376D01*
X-38057190Y41027376D02*
X-36822147Y39616598D01*
X-36822147Y39616598D02*
X-35176239Y41057481D01*
%TO.C,Q2*%
X-30556558Y46857564D02*
X-32376458Y45643842D01*
X-32376458Y45643842D02*
X-31336125Y44083928D01*
X-31336125Y44083928D02*
X-29516225Y45297650D01*
%TO.C,Q3*%
X-25313932Y47796968D02*
X-23351180Y48762762D01*
X-26141756Y49479328D02*
X-25313932Y47796968D01*
X-24179003Y50445122D02*
X-26141756Y49479328D01*
%TO.C,Q4*%
X-17387739Y53169550D02*
X-19459762Y52468209D01*
X-19459762Y52468209D02*
X-18858612Y50692190D01*
X-18858612Y50692190D02*
X-16786590Y51393530D01*
%TO.C,Q5*%
X-12080616Y52720053D02*
X-9934776Y53144941D01*
X-12444805Y54559344D02*
X-12080616Y52720053D01*
X-10298966Y54984232D02*
X-12444805Y54559344D01*
%TO.C,Q6*%
X-3033974Y55858120D02*
X-5216914Y55716955D01*
X-5216914Y55716955D02*
X-5095916Y53845863D01*
X-5095916Y53845863D02*
X-2912976Y53987028D01*
%TO.C,Q7*%
X5218369Y55714127D02*
X3035678Y55859101D01*
X5094105Y53843249D02*
X5218369Y55714127D01*
X2911414Y53988223D02*
X5094105Y53843249D01*
%TO.C,Q8*%
X9933384Y53146330D02*
X12078479Y52717698D01*
X12078479Y52717698D02*
X12445878Y54556350D01*
X12445878Y54556350D02*
X10300783Y54984983D01*
%TO.C,Q9*%
X19460435Y52465101D02*
X17389639Y53170057D01*
X18856186Y50690133D02*
X19460435Y52465101D01*
X16785391Y51395089D02*
X18856186Y50690133D01*
%TO.C,Q11*%
X23350195Y48764464D02*
X25311259Y47795246D01*
X25311259Y47795246D02*
X26142017Y49476158D01*
X26142017Y49476158D02*
X24180953Y50445377D01*
%TO.C,Q12*%
X32376303Y45640665D02*
X30558525Y46857562D01*
X31333249Y44082569D02*
X32376303Y45640665D01*
X29515471Y45299466D02*
X31333249Y44082569D01*
%TO.C,Q13*%
X35175728Y41059380D02*
X36819119Y39615626D01*
X36819119Y39615626D02*
X38056622Y41024247D01*
X38056622Y41024247D02*
X36413231Y42468000D01*
%TO.C,D1*%
D11*
X-34504741Y42819844D02*
X-35163431Y43572259D01*
X-35342577Y43415428D01*
X-35418699Y43285500D01*
X-35427625Y43151109D01*
X-35400722Y43048085D01*
X-35311086Y42873401D01*
X-35216988Y42765913D01*
X-35055694Y42653962D01*
X-34957132Y42613670D01*
X-34822741Y42604744D01*
X-34683887Y42663013D01*
X-34504741Y42819844D01*
X-35651278Y41816127D02*
X-35221327Y42192521D01*
X-35436302Y42004324D02*
X-36094992Y42756739D01*
X-35929235Y42711983D01*
X-35794844Y42703057D01*
X-35691819Y42729960D01*
%TO.C,D2*%
X-29091510Y46543472D02*
X-29646355Y47375426D01*
X-29844439Y47243321D01*
X-29936868Y47124440D01*
X-29963260Y46992364D01*
X-29950034Y46886709D01*
X-29883966Y46701821D01*
X-29804703Y46582970D01*
X-29659401Y46450924D01*
X-29566942Y46398111D01*
X-29434866Y46371720D01*
X-29289594Y46411367D01*
X-29091510Y46543472D01*
X-30385849Y46767769D02*
X-30451887Y46780965D01*
X-30557542Y46767740D01*
X-30755627Y46635634D01*
X-30808439Y46543175D01*
X-30821635Y46477137D01*
X-30808409Y46371482D01*
X-30755567Y46292248D01*
X-30636687Y46199819D01*
X-29844230Y46041470D01*
X-30359250Y45697995D01*
%TO.C,D3*%
X-22906656Y49936891D02*
X-23348161Y50834150D01*
X-23561794Y50729029D01*
X-23668950Y50623230D01*
X-23712355Y50495729D01*
X-23713033Y50389252D01*
X-23671664Y50197321D01*
X-23608591Y50069142D01*
X-23481768Y49919259D01*
X-23396994Y49854830D01*
X-23269492Y49811425D01*
X-23120288Y49831771D01*
X-22906656Y49936891D01*
X-24159967Y50434692D02*
X-24715412Y50161379D01*
X-24248133Y49966735D01*
X-24376313Y49903662D01*
X-24440742Y49818888D01*
X-24462445Y49755137D01*
X-24463123Y49648660D01*
X-24358003Y49435027D01*
X-24273228Y49370598D01*
X-24209477Y49348895D01*
X-24103000Y49348217D01*
X-23846640Y49474361D01*
X-23782211Y49559136D01*
X-23760509Y49622887D01*
%TO.C,D4*%
X-16047352Y52503632D02*
X-16367965Y53450842D01*
X-16593491Y53374505D01*
X-16713540Y53283598D01*
X-16773216Y53162853D01*
X-16787786Y53057375D01*
X-16771822Y52861687D01*
X-16726020Y52726371D01*
X-16619846Y52561218D01*
X-16544206Y52486274D01*
X-16423461Y52426599D01*
X-16272878Y52427295D01*
X-16047352Y52503632D01*
X-17614251Y52677086D02*
X-17400509Y52045613D01*
X-17510863Y53114265D02*
X-17056328Y52514023D01*
X-17642696Y52315548D01*
%TO.C,D5*%
X-9060338Y54196832D02*
X-9254573Y55177787D01*
X-9488133Y55131540D01*
X-9619021Y55057080D01*
X-9693946Y54945158D01*
X-9722160Y54842484D01*
X-9731875Y54646386D01*
X-9704127Y54506250D01*
X-9620418Y54328650D01*
X-9555208Y54244475D01*
X-9443285Y54169550D01*
X-9293899Y54150585D01*
X-9060338Y54196832D01*
X-10702649Y54891060D02*
X-10235528Y54983552D01*
X-10096323Y54525680D01*
X-10152284Y54563143D01*
X-10254958Y54591357D01*
X-10488519Y54545110D01*
X-10572694Y54479900D01*
X-10610157Y54423938D01*
X-10638370Y54321265D01*
X-10592124Y54087704D01*
X-10526913Y54003529D01*
X-10470952Y53966066D01*
X-10368278Y53937852D01*
X-10134718Y53984099D01*
X-10050543Y54049309D01*
X-10013080Y54105271D01*
%TO.C,D6*%
X-1991969Y54869173D02*
X-2056501Y55867089D01*
X-2294100Y55851724D01*
X-2433586Y55794986D01*
X-2522480Y55693800D01*
X-2563854Y55595687D01*
X-2599082Y55402535D01*
X-2589863Y55259976D01*
X-2530051Y55072970D01*
X-2476385Y54981003D01*
X-2375200Y54892110D01*
X-2229568Y54853809D01*
X-1991969Y54869173D01*
X-3482095Y55774900D02*
X-3292015Y55787192D01*
X-3193903Y55745818D01*
X-3143310Y55701371D01*
X-3039052Y55564958D01*
X-2979240Y55377952D01*
X-2954656Y54997793D01*
X-2996030Y54899681D01*
X-3040477Y54849088D01*
X-3132444Y54795422D01*
X-3322523Y54783130D01*
X-3420635Y54824504D01*
X-3471228Y54868951D01*
X-3524894Y54960918D01*
X-3540259Y55198517D01*
X-3498885Y55296629D01*
X-3454438Y55347222D01*
X-3362471Y55400888D01*
X-3172392Y55413180D01*
X-3074280Y55371806D01*
X-3023687Y55327359D01*
X-2970021Y55235392D01*
%TO.C,D7*%
X3501263Y57676553D02*
X3567537Y58674354D01*
X3329965Y58690134D01*
X3184266Y58652087D01*
X3082926Y58563370D01*
X3029099Y58471497D01*
X2968961Y58284596D01*
X2959494Y58142053D01*
X2994385Y57948839D01*
X3035587Y57850655D01*
X3124304Y57749314D01*
X3263691Y57692332D01*
X3501263Y57676553D01*
X2664764Y58734316D02*
X1999563Y58778499D01*
X2360918Y57752294D01*
%TO.C,D8*%
X11215347Y56714040D02*
X11411293Y57694655D01*
X11177814Y57741309D01*
X11028395Y57722605D01*
X10916342Y57647875D01*
X10850984Y57563814D01*
X10766965Y57386361D01*
X10738973Y57246273D01*
X10748346Y57050158D01*
X10776380Y56947436D01*
X10851110Y56835382D01*
X10981868Y56760694D01*
X11215347Y56714040D01*
X10206614Y57498330D02*
X10309337Y57526364D01*
X10365363Y57563729D01*
X10430721Y57647791D01*
X10440052Y57694486D01*
X10412017Y57797209D01*
X10374652Y57853236D01*
X10290591Y57918593D01*
X10103807Y57955916D01*
X10001084Y57927882D01*
X9945058Y57890517D01*
X9879700Y57806456D01*
X9870370Y57759760D01*
X9898404Y57657037D01*
X9935769Y57601010D01*
X10019830Y57535653D01*
X10206614Y57498330D01*
X10290675Y57432972D01*
X10328040Y57376946D01*
X10356075Y57274223D01*
X10318752Y57087439D01*
X10253394Y57003378D01*
X10197367Y56966013D01*
X10094645Y56937979D01*
X9907861Y56975302D01*
X9823800Y57040659D01*
X9786435Y57096686D01*
X9758400Y57199409D01*
X9795723Y57386192D01*
X9861081Y57470253D01*
X9917108Y57507619D01*
X10019830Y57535653D01*
%TO.C,D9*%
X18413770Y54687599D02*
X18736036Y55634248D01*
X18510643Y55710978D01*
X18360061Y55711937D01*
X18239212Y55652472D01*
X18163442Y55577661D01*
X18056979Y55412693D01*
X18010941Y55277457D01*
X17994636Y55081797D01*
X18009023Y54976294D01*
X18068488Y54855445D01*
X18188377Y54764329D01*
X18413770Y54687599D01*
X17422042Y55025210D02*
X17241728Y55086594D01*
X17166917Y55162365D01*
X17137184Y55222789D01*
X17093065Y55388717D01*
X17109371Y55584377D01*
X17232139Y55945005D01*
X17307909Y56019816D01*
X17368334Y56049549D01*
X17473837Y56063935D01*
X17654151Y56002552D01*
X17728962Y55926781D01*
X17758694Y55866357D01*
X17773081Y55760853D01*
X17696351Y55535461D01*
X17620581Y55460650D01*
X17560156Y55430917D01*
X17454653Y55416531D01*
X17274339Y55477915D01*
X17199528Y55553685D01*
X17169795Y55614110D01*
X17155409Y55719613D01*
%TO.C,D13*%
X25871745Y51738407D02*
X26314816Y52634894D01*
X26101367Y52740387D01*
X25952199Y52760993D01*
X25824622Y52717810D01*
X25739735Y52653529D01*
X25612651Y52503869D01*
X25549355Y52375799D01*
X25507650Y52183941D01*
X25508143Y52077463D01*
X25551325Y51949886D01*
X25658296Y51843900D01*
X25871745Y51738407D01*
X24505671Y52413563D02*
X25017949Y52160380D01*
X24761810Y52286971D02*
X25204881Y53183458D01*
X25226965Y53013191D01*
X25270147Y52885614D01*
X25334428Y52800727D01*
X24649913Y53457740D02*
X24094945Y53732022D01*
X24224985Y53242813D01*
X24096916Y53306109D01*
X23990437Y53305616D01*
X23926649Y53284025D01*
X23841762Y53219744D01*
X23736269Y53006295D01*
X23736761Y52899817D01*
X23758352Y52836028D01*
X23822633Y52751141D01*
X24078772Y52624549D01*
X24185251Y52625042D01*
X24249039Y52646633D01*
%TO.C,D14*%
X32102898Y47936884D02*
X32659193Y48767869D01*
X32461340Y48900320D01*
X32316137Y48940220D01*
X32184015Y48914059D01*
X32091464Y48861408D01*
X31945932Y48729616D01*
X31866462Y48610904D01*
X31800071Y48426131D01*
X31786661Y48320499D01*
X31812822Y48188377D01*
X31905044Y48069335D01*
X32102898Y47936884D01*
X30836635Y48784573D02*
X31311484Y48466689D01*
X31074060Y48625631D02*
X31630355Y49456616D01*
X31630026Y49284923D01*
X31656187Y49152801D01*
X31708838Y49060250D01*
X30495227Y49815387D02*
X30124363Y49261398D01*
X30905002Y49999501D02*
X30705502Y49273490D01*
X30191083Y49617863D01*
%TO.C,D15*%
X37807479Y43733019D02*
X38467480Y44484283D01*
X38288608Y44641427D01*
X38149856Y44699938D01*
X38015450Y44691247D01*
X37916818Y44651126D01*
X37755329Y44539457D01*
X37661043Y44432133D01*
X37571103Y44257607D01*
X37544020Y44154629D01*
X37552711Y44020223D01*
X37628606Y43890163D01*
X37807479Y43733019D01*
X36662695Y44738736D02*
X37091989Y44361592D01*
X36877342Y44550164D02*
X37537344Y45301428D01*
X37514607Y45131248D01*
X37523298Y44996841D01*
X37563419Y44898210D01*
X36642982Y46087145D02*
X37000727Y45772858D01*
X36722214Y45383685D01*
X36717869Y45450888D01*
X36677748Y45549520D01*
X36498876Y45706663D01*
X36395898Y45733746D01*
X36328695Y45729400D01*
X36230063Y45689280D01*
X36072920Y45510407D01*
X36045837Y45407429D01*
X36050183Y45340226D01*
X36090303Y45241595D01*
X36269176Y45084451D01*
X36372153Y45057368D01*
X36439357Y45061714D01*
%TO.C,Q1*%
X-34596607Y39591106D02*
X-34556315Y39689668D01*
X-34547388Y39824059D01*
X-34533999Y40025645D01*
X-34493707Y40124207D01*
X-34422048Y40186939D01*
X-34301047Y39976426D02*
X-34260754Y40074988D01*
X-34251828Y40209379D01*
X-34341463Y40384062D01*
X-34561026Y40634867D01*
X-34722320Y40746818D01*
X-34856711Y40755744D01*
X-34959736Y40728841D01*
X-35103053Y40603377D01*
X-35143346Y40504815D01*
X-35152272Y40370424D01*
X-35062636Y40195741D01*
X-34843073Y39944936D01*
X-34681779Y39832985D01*
X-34547388Y39824059D01*
X-34444364Y39850962D01*
X-34301047Y39976426D01*
X-35340096Y39066808D02*
X-34910144Y39443202D01*
X-35125120Y39255005D02*
X-35783809Y40007419D01*
X-35618052Y39962664D01*
X-35483662Y39953738D01*
X-35380637Y39980641D01*
%TO.C,Q2*%
X-29132952Y43768163D02*
X-29080140Y43860622D01*
X-29053748Y43992698D01*
X-29014161Y44190812D01*
X-28961349Y44283271D01*
X-28882115Y44336114D01*
X-28789626Y44111608D02*
X-28736814Y44204067D01*
X-28710422Y44336144D01*
X-28776490Y44521032D01*
X-28961438Y44798350D01*
X-29106740Y44930396D01*
X-29238816Y44956788D01*
X-29344471Y44943562D01*
X-29502938Y44837878D01*
X-29555751Y44745419D01*
X-29582142Y44613342D01*
X-29516074Y44428454D01*
X-29331126Y44151136D01*
X-29185824Y44019090D01*
X-29053748Y43992698D01*
X-28948094Y44005924D01*
X-28789626Y44111608D01*
X-29965115Y44415169D02*
X-30031153Y44428365D01*
X-30136808Y44415139D01*
X-30334892Y44283033D01*
X-30387705Y44190574D01*
X-30400900Y44124536D01*
X-30387675Y44018881D01*
X-30334833Y43939647D01*
X-30215952Y43847218D01*
X-29423496Y43688870D01*
X-29938515Y43345395D01*
%TO.C,Q3*%
X-23170824Y47196334D02*
X-23106395Y47281109D01*
X-23062990Y47408610D01*
X-22997883Y47599862D01*
X-22933454Y47684637D01*
X-22848000Y47726685D01*
X-22785607Y47492028D02*
X-22721178Y47576803D01*
X-22677773Y47704304D01*
X-22719142Y47896235D01*
X-22866311Y48195321D01*
X-22993134Y48345203D01*
X-23120635Y48388608D01*
X-23227112Y48389286D01*
X-23398019Y48305190D01*
X-23462448Y48220415D01*
X-23505853Y48092914D01*
X-23464483Y47900983D01*
X-23317315Y47601897D01*
X-23190492Y47452015D01*
X-23062990Y47408610D01*
X-22956513Y47407932D01*
X-22785607Y47492028D01*
X-23910738Y48052901D02*
X-24466184Y47779588D01*
X-23998905Y47584944D01*
X-24127084Y47521871D01*
X-24191514Y47437097D01*
X-24213216Y47373346D01*
X-24213894Y47266869D01*
X-24108774Y47053236D01*
X-24023999Y46988807D01*
X-23960249Y46967104D01*
X-23853771Y46966426D01*
X-23597412Y47092570D01*
X-23532983Y47177345D01*
X-23511280Y47241096D01*
%TO.C,Q4*%
X-16812237Y49816962D02*
X-16737294Y49892602D01*
X-16677618Y50013347D01*
X-16588104Y50194464D01*
X-16513161Y50270104D01*
X-16422950Y50300639D01*
X-16391719Y50059845D02*
X-16316776Y50135485D01*
X-16257100Y50256230D01*
X-16273064Y50451918D01*
X-16379935Y50767655D01*
X-16486109Y50932809D01*
X-16606854Y50992485D01*
X-16712332Y51007055D01*
X-16892753Y50945986D01*
X-16967696Y50870346D01*
X-17027372Y50749601D01*
X-17011409Y50553913D01*
X-16904538Y50238176D01*
X-16798363Y50073023D01*
X-16677618Y50013347D01*
X-16572140Y49998776D01*
X-16391719Y50059845D01*
X-17823303Y50279102D02*
X-17609561Y49647628D01*
X-17719915Y50716280D02*
X-17265380Y50116038D01*
X-17851748Y49917563D01*
%TO.C,Q5*%
X-10165988Y51585207D02*
X-10081813Y51650418D01*
X-10006887Y51762341D01*
X-9894498Y51930225D01*
X-9810323Y51995436D01*
X-9716899Y52013934D01*
X-9717365Y51771124D02*
X-9633190Y51836335D01*
X-9558264Y51948258D01*
X-9548549Y52144355D01*
X-9613294Y52471341D01*
X-9697003Y52648940D01*
X-9808926Y52723866D01*
X-9911599Y52752079D01*
X-10098448Y52715082D01*
X-10182623Y52649872D01*
X-10257549Y52537949D01*
X-10267264Y52341851D01*
X-10202519Y52014866D01*
X-10118810Y51837267D01*
X-10006887Y51762341D01*
X-9904213Y51734127D01*
X-9717365Y51771124D01*
X-11219539Y52493100D02*
X-10752418Y52585593D01*
X-10613213Y52127720D01*
X-10669175Y52165183D01*
X-10771848Y52193397D01*
X-11005409Y52147151D01*
X-11089584Y52081940D01*
X-11127047Y52025979D01*
X-11155260Y51923305D01*
X-11109014Y51689744D01*
X-11043803Y51605569D01*
X-10987842Y51568106D01*
X-10885169Y51539893D01*
X-10651608Y51586139D01*
X-10567433Y51651350D01*
X-10529970Y51707311D01*
%TO.C,Q6*%
X-3345795Y52470817D02*
X-3253828Y52524483D01*
X-3164935Y52625668D01*
X-3031594Y52777446D01*
X-2939627Y52831112D01*
X-2844588Y52837258D01*
X-2876743Y52596586D02*
X-2784776Y52650252D01*
X-2695883Y52751437D01*
X-2660655Y52944589D01*
X-2682165Y53277228D01*
X-2741977Y53464234D01*
X-2843163Y53553128D01*
X-2941275Y53594502D01*
X-3131354Y53582210D01*
X-3223321Y53528544D01*
X-3312215Y53427359D01*
X-3347442Y53234206D01*
X-3325932Y52901568D01*
X-3266120Y52714562D01*
X-3164935Y52625668D01*
X-3066822Y52584294D01*
X-2876743Y52596586D01*
X-4224309Y53511532D02*
X-4034230Y53523823D01*
X-3936118Y53482450D01*
X-3885525Y53438003D01*
X-3781267Y53301589D01*
X-3721455Y53114583D01*
X-3696871Y52734425D01*
X-3738245Y52636312D01*
X-3782692Y52585720D01*
X-3874658Y52532054D01*
X-4064738Y52519762D01*
X-4162850Y52561136D01*
X-4213443Y52605583D01*
X-4267109Y52697549D01*
X-4282473Y52935148D01*
X-4241100Y53033261D01*
X-4196653Y53083853D01*
X-4104686Y53137519D01*
X-3914607Y53149811D01*
X-3816494Y53108437D01*
X-3765902Y53063990D01*
X-3712236Y52972024D01*
%TO.C,Q7*%
X3780171Y56200392D02*
X3878356Y56241594D01*
X3979696Y56330311D01*
X4131707Y56463386D01*
X4229892Y56504589D01*
X4324921Y56498277D01*
X4261627Y56263861D02*
X4359811Y56305064D01*
X4461152Y56393781D01*
X4521290Y56580682D01*
X4543381Y56913283D01*
X4508490Y57106496D01*
X4419773Y57207837D01*
X4327901Y57261663D01*
X4137843Y57274286D01*
X4039659Y57233084D01*
X3938318Y57144367D01*
X3878180Y56957465D01*
X3856089Y56624865D01*
X3890980Y56431652D01*
X3979696Y56330311D01*
X4071569Y56276485D01*
X4261627Y56263861D01*
X3567671Y57312157D02*
X2902470Y57356340D01*
X3263825Y56330135D01*
%TO.C,Q8*%
X11083455Y55226177D02*
X11186177Y55254211D01*
X11298231Y55328941D01*
X11466311Y55441037D01*
X11569033Y55469071D01*
X11662425Y55450410D01*
X11569075Y55226261D02*
X11671798Y55254295D01*
X11783851Y55329026D01*
X11867870Y55506479D01*
X11933186Y55833350D01*
X11923813Y56029465D01*
X11849083Y56141518D01*
X11765022Y56206876D01*
X11578238Y56244199D01*
X11475515Y56216164D01*
X11363462Y56141434D01*
X11279443Y55963981D01*
X11214127Y55637109D01*
X11223500Y55440995D01*
X11298231Y55328941D01*
X11382292Y55263584D01*
X11569075Y55226261D01*
X10700430Y55982558D02*
X10803153Y56010593D01*
X10859179Y56047958D01*
X10924537Y56132019D01*
X10933868Y56178715D01*
X10905833Y56281438D01*
X10868468Y56337464D01*
X10784407Y56402822D01*
X10597623Y56440145D01*
X10494901Y56412110D01*
X10438874Y56374745D01*
X10373516Y56290684D01*
X10364186Y56243988D01*
X10392220Y56141266D01*
X10429585Y56085239D01*
X10513646Y56019881D01*
X10700430Y55982558D01*
X10784491Y55917201D01*
X10821856Y55861174D01*
X10849891Y55758451D01*
X10812568Y55571668D01*
X10747210Y55487607D01*
X10691183Y55450241D01*
X10588461Y55422207D01*
X10401677Y55459530D01*
X10317616Y55524888D01*
X10280251Y55580914D01*
X10252216Y55683637D01*
X10289539Y55870421D01*
X10354897Y55954482D01*
X10410924Y55991847D01*
X10513646Y56019881D01*
%TO.C,Q9*%
X18197097Y53307028D02*
X18302600Y53321415D01*
X18423449Y53380880D01*
X18604722Y53470078D01*
X18710225Y53484464D01*
X18800383Y53453772D01*
X18678574Y53243726D02*
X18784077Y53258112D01*
X18904926Y53317577D01*
X19011389Y53482545D01*
X19118811Y53798095D01*
X19135116Y53993755D01*
X19075651Y54114604D01*
X19000840Y54190375D01*
X18820526Y54251759D01*
X18715023Y54237372D01*
X18594174Y54177907D01*
X18487711Y54012939D01*
X18380289Y53697389D01*
X18363984Y53501729D01*
X18423449Y53380880D01*
X18498260Y53305110D01*
X18678574Y53243726D01*
X17822082Y53535299D02*
X17641768Y53596683D01*
X17566957Y53672454D01*
X17537224Y53732878D01*
X17493105Y53898806D01*
X17509410Y54094466D01*
X17632178Y54455094D01*
X17707949Y54529905D01*
X17768373Y54559638D01*
X17873876Y54574024D01*
X18054191Y54512641D01*
X18129002Y54436870D01*
X18158734Y54376446D01*
X18173121Y54270942D01*
X18096391Y54045550D01*
X18020620Y53970739D01*
X17960196Y53941006D01*
X17854693Y53926620D01*
X17674379Y53988004D01*
X17599567Y54063774D01*
X17569835Y54124199D01*
X17555448Y54229702D01*
%TO.C,Q11*%
X25426279Y50264796D02*
X25532758Y50265288D01*
X25660334Y50308471D01*
X25851700Y50373245D01*
X25958178Y50373737D01*
X26043558Y50331540D01*
X25895375Y50139189D02*
X26001853Y50139682D01*
X26129430Y50182864D01*
X26256514Y50332525D01*
X26404205Y50631354D01*
X26445909Y50823212D01*
X26402727Y50950789D01*
X26338446Y51035676D01*
X26167687Y51120070D01*
X26061208Y51119578D01*
X25933631Y51076395D01*
X25806547Y50926735D01*
X25658857Y50627906D01*
X25617152Y50436048D01*
X25660334Y50308471D01*
X25724615Y50223584D01*
X25895375Y50139189D01*
X24657370Y50751050D02*
X25169648Y50497866D01*
X24913509Y50624458D02*
X25356580Y51520944D01*
X25378664Y51350677D01*
X25421846Y51223101D01*
X25486127Y51138213D01*
X23803573Y51173022D02*
X24315851Y50919839D01*
X24059712Y51046430D02*
X24502783Y51942917D01*
X24524867Y51772650D01*
X24568049Y51645073D01*
X24632331Y51560186D01*
%TO.C,Q12*%
X31769627Y46515978D02*
X31875258Y46502569D01*
X32007380Y46528729D01*
X32205563Y46567971D01*
X32311195Y46554561D01*
X32390336Y46501580D01*
X32218314Y46330217D02*
X32323946Y46316807D01*
X32456068Y46342968D01*
X32601599Y46474761D01*
X32787031Y46751755D01*
X32853422Y46936528D01*
X32827261Y47068650D01*
X32774610Y47161202D01*
X32616327Y47267163D01*
X32510695Y47280572D01*
X32378573Y47254412D01*
X32233042Y47122619D01*
X32047610Y46845624D01*
X31981219Y46660851D01*
X32007380Y46528729D01*
X32060031Y46436178D01*
X32218314Y46330217D01*
X31070764Y47098435D02*
X31545612Y46780552D01*
X31308188Y46939493D02*
X31864484Y47770478D01*
X31864154Y47598785D01*
X31890315Y47466663D01*
X31942966Y47374112D01*
X31257514Y48062200D02*
X31244433Y48128261D01*
X31191782Y48220812D01*
X30993929Y48353264D01*
X30888297Y48366673D01*
X30822236Y48353593D01*
X30729685Y48300942D01*
X30676704Y48221801D01*
X30636804Y48076598D01*
X30793769Y47283867D01*
X30279350Y47628240D01*
%TO.C,Q13*%
X37569387Y41971258D02*
X37672364Y41944175D01*
X37806771Y41952867D01*
X38008380Y41965904D01*
X38111358Y41938822D01*
X38182907Y41875964D01*
X37989989Y41728521D02*
X38092967Y41701438D01*
X38227373Y41710129D01*
X38388862Y41821799D01*
X38608862Y42072220D01*
X38698803Y42246747D01*
X38690111Y42381153D01*
X38649991Y42479785D01*
X38506893Y42605499D01*
X38403915Y42632582D01*
X38269509Y42623890D01*
X38108020Y42512221D01*
X37888019Y42261800D01*
X37798079Y42087273D01*
X37806771Y41952867D01*
X37846891Y41854235D01*
X37989989Y41728521D01*
X36952529Y42639951D02*
X37381823Y42262808D01*
X37167176Y42451380D02*
X37827178Y43202644D01*
X37804441Y43032463D01*
X37813132Y42898057D01*
X37853252Y42799425D01*
X37362109Y43611216D02*
X36897041Y44019789D01*
X36896033Y43513592D01*
X36788710Y43607878D01*
X36685732Y43634961D01*
X36618529Y43630615D01*
X36519897Y43590495D01*
X36362754Y43411622D01*
X36335671Y43308645D01*
X36340017Y43241442D01*
X36380137Y43142810D01*
X36594784Y42954238D01*
X36697762Y42927155D01*
X36764965Y42931501D01*
%TD*%
M02*
