M48
; DRILL file {KiCad (5.1.10)-1} date 02/04/22 19:33:49
; FORMAT={-:-/ absolute / metric / decimal}
; #@! TF.CreationDate,2022-02-04T19:33:49+09:00
; #@! TF.GenerationSoftware,Kicad,Pcbnew,(5.1.10)-1
FMAT,2
METRIC
T1C0.300
T2C0.400
T3C0.500
T4C0.700
T5C1.100
T6C0.900
%
G90
G05
T1
X-28.75Y-4.0
X-14.25Y-13.0
X-13.0Y-8.6
X-11.25Y9.25
X-10.5Y5.5
X-10.5Y4.0
X-9.25Y4.0
X-9.25Y-12.5
X-8.0Y-10.25
X-7.75Y14.25
X-7.5Y4.0
X-6.75Y-12.5
X-4.9Y9.4
X-3.75Y-17.0
X-2.25Y-16.5
X-0.25Y-17.5
X0.6Y-14.1
X1.7Y-10.2
X2.0Y-16.75
X4.4Y-14.1
X5.0Y17.2
X5.75Y-16.75
X7.4Y-17.5
X8.3Y-14.0
X8.5Y0.8
X13.25Y-11.5
X14.9Y21.0
X17.3Y21.0
X19.0Y18.25
X20.5Y-21.75
X21.25Y18.25
X22.5Y-19.75
X26.75Y0.8
T2
X-18.65Y11.9
X-10.5Y-11.0
X-10.5Y-17.25
X-10.275Y-5.275
X-5.725Y-5.275
X-5.5Y-11.0
X-5.5Y-17.25
X1.975Y2.725
X3.0Y2.0
X3.0Y-6.75
X4.145Y-6.87
X10.25Y16.75
X11.5Y16.75
X14.75Y0.75
X15.0Y-2.0
X15.5Y5.25
X17.075Y-10.575
X18.455Y-15.795
X18.5Y-9.25
X19.25Y5.5
X19.25Y4.25
X19.75Y-8.0
X19.85Y-2.0
X20.225Y2.725
X21.25Y2.0
X21.825Y-10.575
X24.2Y16.7
X27.75Y4.45
T3
X-28.75Y-6.5
X-27.3Y-14.0
X-23.9Y-11.3
X-23.5Y-7.0
X-21.6Y-9.8
X-14.3Y-15.9
X-14.0Y20.0
X-12.7Y-14.925
X-10.4Y7.6
X-9.65Y18.75
X-9.4Y20.725
X-4.0Y-2.5
X-3.5Y13.4
X-3.5Y2.25
X-2.5Y-5.25
X-2.5Y-9.75
X-0.75Y-0.75
X1.5Y-5.0
X1.5Y-7.5
X1.6Y-2.0
X2.0Y11.5
X4.7Y15.6
X7.75Y25.0
X7.75Y19.5
X10.25Y22.25
X11.0Y-12.25
X13.25Y-7.5
X14.25Y-8.75
X15.0Y-5.25
X17.25Y-1.0
X17.25Y-3.25
X17.25Y-7.0
X19.25Y-5.25
T4
X-27.1Y20.1
X-24.6Y20.1
X-22.1Y20.1
X12.5Y-0.75
X12.5Y-3.25
X30.75Y-0.75
X30.75Y-3.25
T5
X25.05Y19.8
X27.55Y19.8
T6
X16.9Y24.6
X19.9Y24.6
T0
M30
