%TF.GenerationSoftware,KiCad,Pcbnew,(5.1.10)-1*%
%TF.CreationDate,2022-02-04T19:33:21+09:00*%
%TF.ProjectId,Power,506f7765-722e-46b6-9963-61645f706362,rev?*%
%TF.SameCoordinates,Original*%
%TF.FileFunction,Copper,L2,Bot*%
%TF.FilePolarity,Positive*%
%FSLAX46Y46*%
G04 Gerber Fmt 4.6, Leading zero omitted, Abs format (unit mm)*
G04 Created by KiCad (PCBNEW (5.1.10)-1) date 2022-02-04 19:33:21*
%MOMM*%
%LPD*%
G01*
G04 APERTURE LIST*
%TA.AperFunction,ComponentPad*%
%ADD10C,1.200000*%
%TD*%
%TA.AperFunction,WasherPad*%
%ADD11C,1.000000*%
%TD*%
%TA.AperFunction,SMDPad,CuDef*%
%ADD12R,3.500000X1.600000*%
%TD*%
%TA.AperFunction,SMDPad,CuDef*%
%ADD13R,1.600000X2.200000*%
%TD*%
%TA.AperFunction,SMDPad,CuDef*%
%ADD14R,1.600000X3.500000*%
%TD*%
%TA.AperFunction,SMDPad,CuDef*%
%ADD15R,2.200000X1.600000*%
%TD*%
%TA.AperFunction,SMDPad,CuDef*%
%ADD16R,1.000000X3.000000*%
%TD*%
%TA.AperFunction,SMDPad,CuDef*%
%ADD17R,1.220000X1.150000*%
%TD*%
%TA.AperFunction,ComponentPad*%
%ADD18C,1.650000*%
%TD*%
%TA.AperFunction,SMDPad,CuDef*%
%ADD19R,1.300000X0.900000*%
%TD*%
%TA.AperFunction,SMDPad,CuDef*%
%ADD20C,0.100000*%
%TD*%
%TA.AperFunction,ViaPad*%
%ADD21C,0.600000*%
%TD*%
%TA.AperFunction,ViaPad*%
%ADD22C,1.000000*%
%TD*%
%TA.AperFunction,ViaPad*%
%ADD23C,0.800000*%
%TD*%
%TA.AperFunction,Conductor*%
%ADD24C,1.000000*%
%TD*%
%TA.AperFunction,Conductor*%
%ADD25C,0.300000*%
%TD*%
%TA.AperFunction,Conductor*%
%ADD26C,0.250000*%
%TD*%
%TA.AperFunction,Conductor*%
%ADD27C,0.500000*%
%TD*%
%TA.AperFunction,Conductor*%
%ADD28C,0.254000*%
%TD*%
%TA.AperFunction,Conductor*%
%ADD29C,0.100000*%
%TD*%
G04 APERTURE END LIST*
D10*
%TO.P,J5,1*%
%TO.N,Net-(J5-Pad1)*%
X30750000Y-3250000D03*
%TO.P,J5,2*%
%TO.N,Net-(J5-Pad2)*%
X30750000Y-750000D03*
%TD*%
D11*
%TO.P,SW1,*%
%TO.N,*%
X19900000Y24600000D03*
X16900000Y24600000D03*
%TD*%
D12*
%TO.P,C1,2*%
%TO.N,GND*%
X-17300000Y22650000D03*
%TO.P,C1,1*%
%TO.N,Net-(C1-Pad1)*%
X-11900000Y22650000D03*
%TD*%
D13*
%TO.P,C2,1*%
%TO.N,+5V*%
X-16350000Y17150000D03*
%TO.P,C2,2*%
%TO.N,GND*%
X-16350000Y14150000D03*
%TD*%
D14*
%TO.P,C3,2*%
%TO.N,GND*%
X13400000Y23800000D03*
%TO.P,C3,1*%
%TO.N,+5V*%
X13400000Y18400000D03*
%TD*%
D15*
%TO.P,C4,2*%
%TO.N,GND*%
X-2350000Y5150000D03*
%TO.P,C4,1*%
%TO.N,+3V3*%
X-5350000Y5150000D03*
%TD*%
D16*
%TO.P,C5,1*%
%TO.N,+BATT*%
X2900000Y16900000D03*
%TO.P,C5,2*%
%TO.N,GND*%
X2900000Y22900000D03*
%TD*%
%TO.P,C6,2*%
%TO.N,GND*%
%TA.AperFunction,SMDPad,CuDef*%
G36*
G01*
X-2850000Y18725000D02*
X-3350000Y18725000D01*
G75*
G02*
X-3575000Y18950000I0J225000D01*
G01*
X-3575000Y19400000D01*
G75*
G02*
X-3350000Y19625000I225000J0D01*
G01*
X-2850000Y19625000D01*
G75*
G02*
X-2625000Y19400000I0J-225000D01*
G01*
X-2625000Y18950000D01*
G75*
G02*
X-2850000Y18725000I-225000J0D01*
G01*
G37*
%TD.AperFunction*%
%TO.P,C6,1*%
%TO.N,+BATT*%
%TA.AperFunction,SMDPad,CuDef*%
G36*
G01*
X-2850000Y17175000D02*
X-3350000Y17175000D01*
G75*
G02*
X-3575000Y17400000I0J225000D01*
G01*
X-3575000Y17850000D01*
G75*
G02*
X-3350000Y18075000I225000J0D01*
G01*
X-2850000Y18075000D01*
G75*
G02*
X-2625000Y17850000I0J-225000D01*
G01*
X-2625000Y17400000D01*
G75*
G02*
X-2850000Y17175000I-225000J0D01*
G01*
G37*
%TD.AperFunction*%
%TD*%
%TO.P,C8,1*%
%TO.N,/Rotary8*%
%TA.AperFunction,SMDPad,CuDef*%
G36*
G01*
X-5275000Y-18550000D02*
X-5275000Y-19050000D01*
G75*
G02*
X-5500000Y-19275000I-225000J0D01*
G01*
X-5950000Y-19275000D01*
G75*
G02*
X-6175000Y-19050000I0J225000D01*
G01*
X-6175000Y-18550000D01*
G75*
G02*
X-5950000Y-18325000I225000J0D01*
G01*
X-5500000Y-18325000D01*
G75*
G02*
X-5275000Y-18550000I0J-225000D01*
G01*
G37*
%TD.AperFunction*%
%TO.P,C8,2*%
%TO.N,GND*%
%TA.AperFunction,SMDPad,CuDef*%
G36*
G01*
X-6825000Y-18550000D02*
X-6825000Y-19050000D01*
G75*
G02*
X-7050000Y-19275000I-225000J0D01*
G01*
X-7500000Y-19275000D01*
G75*
G02*
X-7725000Y-19050000I0J225000D01*
G01*
X-7725000Y-18550000D01*
G75*
G02*
X-7500000Y-18325000I225000J0D01*
G01*
X-7050000Y-18325000D01*
G75*
G02*
X-6825000Y-18550000I0J-225000D01*
G01*
G37*
%TD.AperFunction*%
%TD*%
%TO.P,C9,2*%
%TO.N,GND*%
%TA.AperFunction,SMDPad,CuDef*%
G36*
G01*
X-9175000Y-19050000D02*
X-9175000Y-18550000D01*
G75*
G02*
X-8950000Y-18325000I225000J0D01*
G01*
X-8500000Y-18325000D01*
G75*
G02*
X-8275000Y-18550000I0J-225000D01*
G01*
X-8275000Y-19050000D01*
G75*
G02*
X-8500000Y-19275000I-225000J0D01*
G01*
X-8950000Y-19275000D01*
G75*
G02*
X-9175000Y-19050000I0J225000D01*
G01*
G37*
%TD.AperFunction*%
%TO.P,C9,1*%
%TO.N,/Rotary2*%
%TA.AperFunction,SMDPad,CuDef*%
G36*
G01*
X-10725000Y-19050000D02*
X-10725000Y-18550000D01*
G75*
G02*
X-10500000Y-18325000I225000J0D01*
G01*
X-10050000Y-18325000D01*
G75*
G02*
X-9825000Y-18550000I0J-225000D01*
G01*
X-9825000Y-19050000D01*
G75*
G02*
X-10050000Y-19275000I-225000J0D01*
G01*
X-10500000Y-19275000D01*
G75*
G02*
X-10725000Y-19050000I0J225000D01*
G01*
G37*
%TD.AperFunction*%
%TD*%
%TO.P,C11,2*%
%TO.N,GND*%
%TA.AperFunction,SMDPad,CuDef*%
G36*
G01*
X7075000Y-12750000D02*
X7075000Y-13250000D01*
G75*
G02*
X6850000Y-13475000I-225000J0D01*
G01*
X6400000Y-13475000D01*
G75*
G02*
X6175000Y-13250000I0J225000D01*
G01*
X6175000Y-12750000D01*
G75*
G02*
X6400000Y-12525000I225000J0D01*
G01*
X6850000Y-12525000D01*
G75*
G02*
X7075000Y-12750000I0J-225000D01*
G01*
G37*
%TD.AperFunction*%
%TO.P,C11,1*%
%TO.N,/SW3*%
%TA.AperFunction,SMDPad,CuDef*%
G36*
G01*
X8625000Y-12750000D02*
X8625000Y-13250000D01*
G75*
G02*
X8400000Y-13475000I-225000J0D01*
G01*
X7950000Y-13475000D01*
G75*
G02*
X7725000Y-13250000I0J225000D01*
G01*
X7725000Y-12750000D01*
G75*
G02*
X7950000Y-12525000I225000J0D01*
G01*
X8400000Y-12525000D01*
G75*
G02*
X8625000Y-12750000I0J-225000D01*
G01*
G37*
%TD.AperFunction*%
%TD*%
%TO.P,C12,1*%
%TO.N,/SW2*%
%TA.AperFunction,SMDPad,CuDef*%
G36*
G01*
X4825000Y-12750000D02*
X4825000Y-13250000D01*
G75*
G02*
X4600000Y-13475000I-225000J0D01*
G01*
X4150000Y-13475000D01*
G75*
G02*
X3925000Y-13250000I0J225000D01*
G01*
X3925000Y-12750000D01*
G75*
G02*
X4150000Y-12525000I225000J0D01*
G01*
X4600000Y-12525000D01*
G75*
G02*
X4825000Y-12750000I0J-225000D01*
G01*
G37*
%TD.AperFunction*%
%TO.P,C12,2*%
%TO.N,GND*%
%TA.AperFunction,SMDPad,CuDef*%
G36*
G01*
X3275000Y-12750000D02*
X3275000Y-13250000D01*
G75*
G02*
X3050000Y-13475000I-225000J0D01*
G01*
X2600000Y-13475000D01*
G75*
G02*
X2375000Y-13250000I0J225000D01*
G01*
X2375000Y-12750000D01*
G75*
G02*
X2600000Y-12525000I225000J0D01*
G01*
X3050000Y-12525000D01*
G75*
G02*
X3275000Y-12750000I0J-225000D01*
G01*
G37*
%TD.AperFunction*%
%TD*%
%TO.P,C13,1*%
%TO.N,/SW1*%
%TA.AperFunction,SMDPad,CuDef*%
G36*
G01*
X1025000Y-12750000D02*
X1025000Y-13250000D01*
G75*
G02*
X800000Y-13475000I-225000J0D01*
G01*
X350000Y-13475000D01*
G75*
G02*
X125000Y-13250000I0J225000D01*
G01*
X125000Y-12750000D01*
G75*
G02*
X350000Y-12525000I225000J0D01*
G01*
X800000Y-12525000D01*
G75*
G02*
X1025000Y-12750000I0J-225000D01*
G01*
G37*
%TD.AperFunction*%
%TO.P,C13,2*%
%TO.N,GND*%
%TA.AperFunction,SMDPad,CuDef*%
G36*
G01*
X-525000Y-12750000D02*
X-525000Y-13250000D01*
G75*
G02*
X-750000Y-13475000I-225000J0D01*
G01*
X-1200000Y-13475000D01*
G75*
G02*
X-1425000Y-13250000I0J225000D01*
G01*
X-1425000Y-12750000D01*
G75*
G02*
X-1200000Y-12525000I225000J0D01*
G01*
X-750000Y-12525000D01*
G75*
G02*
X-525000Y-12750000I0J-225000D01*
G01*
G37*
%TD.AperFunction*%
%TD*%
%TO.P,C20,1*%
%TO.N,Net-(C20-Pad1)*%
%TA.AperFunction,SMDPad,CuDef*%
G36*
G01*
X17525000Y750000D02*
X17525000Y1250000D01*
G75*
G02*
X17750000Y1475000I225000J0D01*
G01*
X18200000Y1475000D01*
G75*
G02*
X18425000Y1250000I0J-225000D01*
G01*
X18425000Y750000D01*
G75*
G02*
X18200000Y525000I-225000J0D01*
G01*
X17750000Y525000D01*
G75*
G02*
X17525000Y750000I0J225000D01*
G01*
G37*
%TD.AperFunction*%
%TO.P,C20,2*%
%TO.N,Net-(C20-Pad2)*%
%TA.AperFunction,SMDPad,CuDef*%
G36*
G01*
X19075000Y750000D02*
X19075000Y1250000D01*
G75*
G02*
X19300000Y1475000I225000J0D01*
G01*
X19750000Y1475000D01*
G75*
G02*
X19975000Y1250000I0J-225000D01*
G01*
X19975000Y750000D01*
G75*
G02*
X19750000Y525000I-225000J0D01*
G01*
X19300000Y525000D01*
G75*
G02*
X19075000Y750000I0J225000D01*
G01*
G37*
%TD.AperFunction*%
%TD*%
%TO.P,C21,2*%
%TO.N,Net-(C21-Pad2)*%
%TA.AperFunction,SMDPad,CuDef*%
G36*
G01*
X825000Y750000D02*
X825000Y1250000D01*
G75*
G02*
X1050000Y1475000I225000J0D01*
G01*
X1500000Y1475000D01*
G75*
G02*
X1725000Y1250000I0J-225000D01*
G01*
X1725000Y750000D01*
G75*
G02*
X1500000Y525000I-225000J0D01*
G01*
X1050000Y525000D01*
G75*
G02*
X825000Y750000I0J225000D01*
G01*
G37*
%TD.AperFunction*%
%TO.P,C21,1*%
%TO.N,Net-(C21-Pad1)*%
%TA.AperFunction,SMDPad,CuDef*%
G36*
G01*
X-725000Y750000D02*
X-725000Y1250000D01*
G75*
G02*
X-500000Y1475000I225000J0D01*
G01*
X-50000Y1475000D01*
G75*
G02*
X175000Y1250000I0J-225000D01*
G01*
X175000Y750000D01*
G75*
G02*
X-50000Y525000I-225000J0D01*
G01*
X-500000Y525000D01*
G75*
G02*
X-725000Y750000I0J225000D01*
G01*
G37*
%TD.AperFunction*%
%TD*%
D17*
%TO.P,D1,1*%
%TO.N,Net-(D1-Pad1)*%
X-7100000Y20700000D03*
%TO.P,D1,2*%
%TO.N,+BATT*%
X-7100000Y17600000D03*
%TD*%
%TO.P,FB1,1*%
%TO.N,Net-(C1-Pad1)*%
%TA.AperFunction,SMDPad,CuDef*%
G36*
G01*
X-9075000Y22393750D02*
X-9075000Y22906250D01*
G75*
G02*
X-8856250Y23125000I218750J0D01*
G01*
X-8418750Y23125000D01*
G75*
G02*
X-8200000Y22906250I0J-218750D01*
G01*
X-8200000Y22393750D01*
G75*
G02*
X-8418750Y22175000I-218750J0D01*
G01*
X-8856250Y22175000D01*
G75*
G02*
X-9075000Y22393750I0J218750D01*
G01*
G37*
%TD.AperFunction*%
%TO.P,FB1,2*%
%TO.N,Net-(D1-Pad1)*%
%TA.AperFunction,SMDPad,CuDef*%
G36*
G01*
X-7500000Y22393750D02*
X-7500000Y22906250D01*
G75*
G02*
X-7281250Y23125000I218750J0D01*
G01*
X-6843750Y23125000D01*
G75*
G02*
X-6625000Y22906250I0J-218750D01*
G01*
X-6625000Y22393750D01*
G75*
G02*
X-6843750Y22175000I-218750J0D01*
G01*
X-7281250Y22175000D01*
G75*
G02*
X-7500000Y22393750I0J218750D01*
G01*
G37*
%TD.AperFunction*%
%TD*%
D18*
%TO.P,J1,2*%
%TO.N,Net-(J1-Pad2)*%
X25050000Y19800000D03*
%TO.P,J1,1*%
%TO.N,GND*%
X27550000Y19800000D03*
%TD*%
D10*
%TO.P,J2,1*%
%TO.N,+5V*%
X-22100000Y20100000D03*
%TO.P,J2,2*%
%TO.N,+3V3*%
X-24600000Y20100000D03*
%TO.P,J2,3*%
%TO.N,GND*%
X-27100000Y20100000D03*
%TD*%
%TO.P,J6,2*%
%TO.N,Net-(J6-Pad2)*%
X12500000Y-750000D03*
%TO.P,J6,1*%
%TO.N,Net-(J6-Pad1)*%
X12500000Y-3250000D03*
%TD*%
%TO.P,R5,2*%
%TO.N,/SW3*%
%TA.AperFunction,SMDPad,CuDef*%
G36*
G01*
X7825000Y-11275000D02*
X7825000Y-10725000D01*
G75*
G02*
X8025000Y-10525000I200000J0D01*
G01*
X8425000Y-10525000D01*
G75*
G02*
X8625000Y-10725000I0J-200000D01*
G01*
X8625000Y-11275000D01*
G75*
G02*
X8425000Y-11475000I-200000J0D01*
G01*
X8025000Y-11475000D01*
G75*
G02*
X7825000Y-11275000I0J200000D01*
G01*
G37*
%TD.AperFunction*%
%TO.P,R5,1*%
%TO.N,+3V3*%
%TA.AperFunction,SMDPad,CuDef*%
G36*
G01*
X6175000Y-11275000D02*
X6175000Y-10725000D01*
G75*
G02*
X6375000Y-10525000I200000J0D01*
G01*
X6775000Y-10525000D01*
G75*
G02*
X6975000Y-10725000I0J-200000D01*
G01*
X6975000Y-11275000D01*
G75*
G02*
X6775000Y-11475000I-200000J0D01*
G01*
X6375000Y-11475000D01*
G75*
G02*
X6175000Y-11275000I0J200000D01*
G01*
G37*
%TD.AperFunction*%
%TD*%
%TO.P,R6,2*%
%TO.N,/SW2*%
%TA.AperFunction,SMDPad,CuDef*%
G36*
G01*
X4025000Y-11275000D02*
X4025000Y-10725000D01*
G75*
G02*
X4225000Y-10525000I200000J0D01*
G01*
X4625000Y-10525000D01*
G75*
G02*
X4825000Y-10725000I0J-200000D01*
G01*
X4825000Y-11275000D01*
G75*
G02*
X4625000Y-11475000I-200000J0D01*
G01*
X4225000Y-11475000D01*
G75*
G02*
X4025000Y-11275000I0J200000D01*
G01*
G37*
%TD.AperFunction*%
%TO.P,R6,1*%
%TO.N,+3V3*%
%TA.AperFunction,SMDPad,CuDef*%
G36*
G01*
X2375000Y-11275000D02*
X2375000Y-10725000D01*
G75*
G02*
X2575000Y-10525000I200000J0D01*
G01*
X2975000Y-10525000D01*
G75*
G02*
X3175000Y-10725000I0J-200000D01*
G01*
X3175000Y-11275000D01*
G75*
G02*
X2975000Y-11475000I-200000J0D01*
G01*
X2575000Y-11475000D01*
G75*
G02*
X2375000Y-11275000I0J200000D01*
G01*
G37*
%TD.AperFunction*%
%TD*%
%TO.P,R7,2*%
%TO.N,/SW1*%
%TA.AperFunction,SMDPad,CuDef*%
G36*
G01*
X225000Y-11275000D02*
X225000Y-10725000D01*
G75*
G02*
X425000Y-10525000I200000J0D01*
G01*
X825000Y-10525000D01*
G75*
G02*
X1025000Y-10725000I0J-200000D01*
G01*
X1025000Y-11275000D01*
G75*
G02*
X825000Y-11475000I-200000J0D01*
G01*
X425000Y-11475000D01*
G75*
G02*
X225000Y-11275000I0J200000D01*
G01*
G37*
%TD.AperFunction*%
%TO.P,R7,1*%
%TO.N,+3V3*%
%TA.AperFunction,SMDPad,CuDef*%
G36*
G01*
X-1425000Y-11275000D02*
X-1425000Y-10725000D01*
G75*
G02*
X-1225000Y-10525000I200000J0D01*
G01*
X-825000Y-10525000D01*
G75*
G02*
X-625000Y-10725000I0J-200000D01*
G01*
X-625000Y-11275000D01*
G75*
G02*
X-825000Y-11475000I-200000J0D01*
G01*
X-1225000Y-11475000D01*
G75*
G02*
X-1425000Y-11275000I0J200000D01*
G01*
G37*
%TD.AperFunction*%
%TD*%
%TO.P,RN1,1*%
%TO.N,/Rotary1*%
%TA.AperFunction,SMDPad,CuDef*%
G36*
G01*
X-5945000Y-3950000D02*
X-6245000Y-3950000D01*
G75*
G02*
X-6395000Y-3800000I0J150000D01*
G01*
X-6395000Y-2150000D01*
G75*
G02*
X-6245000Y-2000000I150000J0D01*
G01*
X-5945000Y-2000000D01*
G75*
G02*
X-5795000Y-2150000I0J-150000D01*
G01*
X-5795000Y-3800000D01*
G75*
G02*
X-5945000Y-3950000I-150000J0D01*
G01*
G37*
%TD.AperFunction*%
%TO.P,RN1,2*%
%TO.N,/Rotary8*%
%TA.AperFunction,SMDPad,CuDef*%
G36*
G01*
X-7215000Y-3950000D02*
X-7515000Y-3950000D01*
G75*
G02*
X-7665000Y-3800000I0J150000D01*
G01*
X-7665000Y-2150000D01*
G75*
G02*
X-7515000Y-2000000I150000J0D01*
G01*
X-7215000Y-2000000D01*
G75*
G02*
X-7065000Y-2150000I0J-150000D01*
G01*
X-7065000Y-3800000D01*
G75*
G02*
X-7215000Y-3950000I-150000J0D01*
G01*
G37*
%TD.AperFunction*%
%TO.P,RN1,3*%
%TO.N,/Rotary2*%
%TA.AperFunction,SMDPad,CuDef*%
G36*
G01*
X-8485000Y-3950000D02*
X-8785000Y-3950000D01*
G75*
G02*
X-8935000Y-3800000I0J150000D01*
G01*
X-8935000Y-2150000D01*
G75*
G02*
X-8785000Y-2000000I150000J0D01*
G01*
X-8485000Y-2000000D01*
G75*
G02*
X-8335000Y-2150000I0J-150000D01*
G01*
X-8335000Y-3800000D01*
G75*
G02*
X-8485000Y-3950000I-150000J0D01*
G01*
G37*
%TD.AperFunction*%
%TO.P,RN1,4*%
%TO.N,/Rotary4*%
%TA.AperFunction,SMDPad,CuDef*%
G36*
G01*
X-9755000Y-3950000D02*
X-10055000Y-3950000D01*
G75*
G02*
X-10205000Y-3800000I0J150000D01*
G01*
X-10205000Y-2150000D01*
G75*
G02*
X-10055000Y-2000000I150000J0D01*
G01*
X-9755000Y-2000000D01*
G75*
G02*
X-9605000Y-2150000I0J-150000D01*
G01*
X-9605000Y-3800000D01*
G75*
G02*
X-9755000Y-3950000I-150000J0D01*
G01*
G37*
%TD.AperFunction*%
%TO.P,RN1,5*%
%TO.N,+3V3*%
%TA.AperFunction,SMDPad,CuDef*%
G36*
G01*
X-9755000Y1000000D02*
X-10055000Y1000000D01*
G75*
G02*
X-10205000Y1150000I0J150000D01*
G01*
X-10205000Y2800000D01*
G75*
G02*
X-10055000Y2950000I150000J0D01*
G01*
X-9755000Y2950000D01*
G75*
G02*
X-9605000Y2800000I0J-150000D01*
G01*
X-9605000Y1150000D01*
G75*
G02*
X-9755000Y1000000I-150000J0D01*
G01*
G37*
%TD.AperFunction*%
%TO.P,RN1,6*%
%TA.AperFunction,SMDPad,CuDef*%
G36*
G01*
X-8485000Y1000000D02*
X-8785000Y1000000D01*
G75*
G02*
X-8935000Y1150000I0J150000D01*
G01*
X-8935000Y2800000D01*
G75*
G02*
X-8785000Y2950000I150000J0D01*
G01*
X-8485000Y2950000D01*
G75*
G02*
X-8335000Y2800000I0J-150000D01*
G01*
X-8335000Y1150000D01*
G75*
G02*
X-8485000Y1000000I-150000J0D01*
G01*
G37*
%TD.AperFunction*%
%TO.P,RN1,7*%
%TA.AperFunction,SMDPad,CuDef*%
G36*
G01*
X-7215000Y1000000D02*
X-7515000Y1000000D01*
G75*
G02*
X-7665000Y1150000I0J150000D01*
G01*
X-7665000Y2800000D01*
G75*
G02*
X-7515000Y2950000I150000J0D01*
G01*
X-7215000Y2950000D01*
G75*
G02*
X-7065000Y2800000I0J-150000D01*
G01*
X-7065000Y1150000D01*
G75*
G02*
X-7215000Y1000000I-150000J0D01*
G01*
G37*
%TD.AperFunction*%
%TO.P,RN1,8*%
%TA.AperFunction,SMDPad,CuDef*%
G36*
G01*
X-5945000Y1000000D02*
X-6245000Y1000000D01*
G75*
G02*
X-6395000Y1150000I0J150000D01*
G01*
X-6395000Y2800000D01*
G75*
G02*
X-6245000Y2950000I150000J0D01*
G01*
X-5945000Y2950000D01*
G75*
G02*
X-5795000Y2800000I0J-150000D01*
G01*
X-5795000Y1150000D01*
G75*
G02*
X-5945000Y1000000I-150000J0D01*
G01*
G37*
%TD.AperFunction*%
%TD*%
D19*
%TO.P,U1,1*%
%TO.N,GND*%
X-13000000Y14900000D03*
%TO.P,U1,3*%
%TO.N,Net-(C1-Pad1)*%
X-13000000Y17900000D03*
%TA.AperFunction,SMDPad,CuDef*%
D20*
%TO.P,U1,2*%
%TO.N,+5V*%
G36*
X-9050000Y15533500D02*
G01*
X-12175000Y15533500D01*
X-12175000Y15950000D01*
X-13650000Y15950000D01*
X-13650000Y16850000D01*
X-12175000Y16850000D01*
X-12175000Y17266500D01*
X-9050000Y17266500D01*
X-9050000Y15533500D01*
G37*
%TD.AperFunction*%
%TD*%
D21*
%TO.N,GND*%
X26750000Y800000D03*
D22*
X-9650000Y18750000D03*
X-9400000Y20725000D03*
D21*
X-8000000Y-10250000D03*
X-6750000Y-12500000D03*
X-9250000Y-12500000D03*
X-14250000Y-13000000D03*
X-28750000Y-4000000D03*
X-7500000Y4000000D03*
X-9250000Y4000000D03*
X-10500000Y4000000D03*
X-10500000Y5500000D03*
X-7750000Y14250000D03*
X-11250000Y9250000D03*
D22*
X-14000000Y20000000D03*
D21*
X-250000Y-17500000D03*
X2000000Y-16750000D03*
X5750000Y-16750000D03*
X-3750000Y-17000000D03*
X-2250000Y-16500000D03*
D23*
X10250000Y16750000D03*
X11500000Y16750000D03*
D21*
X19000000Y18250000D03*
X21250000Y18250000D03*
X20500000Y-21750000D03*
X22500000Y-19750000D03*
X7400000Y-17500000D03*
X-13000000Y-8600000D03*
X-4900000Y9400000D03*
X14900000Y21000000D03*
X17300000Y21000000D03*
X8500000Y800000D03*
D23*
X15500000Y5250000D03*
X19250000Y5500000D03*
X19250000Y4250000D03*
X14750000Y750000D03*
X19850000Y-2000000D03*
X15000000Y-2000000D03*
X18500000Y-9250000D03*
X19750000Y-8000000D03*
D22*
X13250000Y-7500000D03*
X14250000Y-8750000D03*
X15000000Y-5250000D03*
X17250000Y-3250000D03*
X17250000Y-1000000D03*
X17250000Y-7000000D03*
X19250000Y-5250000D03*
X-2500000Y-9750000D03*
X-2500000Y-5250000D03*
X-4000000Y-2500000D03*
X-750000Y-750000D03*
X1600000Y-2000000D03*
X1500000Y-5000000D03*
X1500000Y-7500000D03*
X11000000Y-12250000D03*
X-3500000Y2250000D03*
X2000000Y11500000D03*
X7750000Y19500000D03*
X7750000Y25000000D03*
X10250000Y22250000D03*
X-28750000Y-6500000D03*
X-27300000Y-14000000D03*
X-23500000Y-7000000D03*
X-23900000Y-11300000D03*
X-21600000Y-9800000D03*
D23*
X27750000Y4450000D03*
X24200000Y16700000D03*
D22*
%TO.N,+5V*%
X-3500000Y13400000D03*
D23*
X-18650000Y11900000D03*
D21*
%TO.N,+3V3*%
X1700010Y-10199990D03*
D22*
X-10400000Y7600000D03*
D23*
X17075000Y-10575000D03*
X21825000Y-10575000D03*
D21*
%TO.N,+BATT*%
X5000000Y17200000D03*
D22*
X4700000Y15600000D03*
D23*
%TO.N,/Rotary8*%
X-5500000Y-11000000D03*
X-5500000Y-17250000D03*
D22*
X-12700000Y-14925000D03*
D23*
%TO.N,/Rotary4*%
X-10275000Y-5275000D03*
%TO.N,/Rotary2*%
X-10500000Y-11000000D03*
X-10500000Y-17250000D03*
%TO.N,/Rotary1*%
X-5725000Y-5275000D03*
D22*
X-14300000Y-15900000D03*
D21*
%TO.N,/SW3*%
X8300000Y-14000000D03*
%TO.N,/SW2*%
X4400000Y-14100000D03*
%TO.N,/SW1*%
X600000Y-14100000D03*
D23*
%TO.N,Net-(C20-Pad2)*%
X21250000Y2000000D03*
%TO.N,Net-(C20-Pad1)*%
X20225001Y2725001D03*
%TO.N,Net-(C21-Pad1)*%
X1975001Y2725001D03*
%TO.N,Net-(C21-Pad2)*%
X3000000Y2000000D03*
%TO.N,/DRV2_EN*%
X3000000Y-6750000D03*
D21*
X13250000Y-11500000D03*
D23*
%TO.N,/DRV2_PN*%
X4145109Y-6869804D03*
X18455000Y-15795000D03*
%TD*%
D24*
%TO.N,Net-(C1-Pad1)*%
X-8637500Y22650000D02*
X-11900000Y22650000D01*
X-11900000Y19000000D02*
X-13000000Y17900000D01*
X-11900000Y22650000D02*
X-11900000Y19000000D01*
%TO.N,+5V*%
X-15600000Y16400000D02*
X-12912500Y16400000D01*
X-16350000Y17150000D02*
X-15600000Y16400000D01*
X-4597070Y13400000D02*
X-3500000Y13400000D01*
X-12837499Y16324999D02*
X-7522069Y16324999D01*
X-12912500Y16400000D02*
X-12837499Y16324999D01*
X9700000Y18400000D02*
X13400000Y18400000D01*
X4700000Y13400000D02*
X9700000Y18400000D01*
X-6648535Y15451465D02*
X-4597070Y13400000D01*
X-7522069Y16324999D02*
X-6648535Y15451465D01*
X-3500000Y13400000D02*
X4700000Y13400000D01*
X-19150000Y17150000D02*
X-22100000Y20100000D01*
X-16350000Y17150000D02*
X-19150000Y17150000D01*
D25*
X-18650000Y14850000D02*
X-16350000Y17150000D01*
X-18650000Y11900000D02*
X-18650000Y14850000D01*
D26*
%TO.N,+3V3*%
X1974990Y-10199990D02*
X2775000Y-11000000D01*
X-1025000Y-11000000D02*
X-224990Y-10199990D01*
X5774990Y-10199990D02*
X6575000Y-11000000D01*
X3650010Y-10199990D02*
X5774990Y-10199990D01*
X2850000Y-11000000D02*
X3650010Y-10199990D01*
X2775000Y-11000000D02*
X2850000Y-11000000D01*
X1700010Y-10199990D02*
X1974990Y-10199990D01*
X-224990Y-10199990D02*
X1700010Y-10199990D01*
D27*
X-5250000Y2820000D02*
X-6095000Y1975000D01*
X-5250000Y5250000D02*
X-5250000Y2820000D01*
X-9905000Y1975000D02*
X-6095000Y1975000D01*
X-224990Y-3895010D02*
X-224990Y-10199990D01*
X-6095000Y1975000D02*
X-224990Y-3895010D01*
X-10400000Y7600000D02*
X-11900000Y6100000D01*
X-11900000Y6100000D02*
X-11900000Y3400000D01*
X-10475000Y1975000D02*
X-9905000Y1975000D01*
X-11900000Y3400000D02*
X-10475000Y1975000D01*
D26*
X17075000Y-10575000D02*
X21825000Y-10575000D01*
D24*
%TO.N,+BATT*%
X-2375000Y16900000D02*
X-3100000Y17625000D01*
X2900000Y16900000D02*
X-2375000Y16900000D01*
X-6400000Y16900000D02*
X-7100000Y17600000D01*
X-2375000Y16900000D02*
X-6400000Y16900000D01*
D26*
X4700000Y16900000D02*
X5000000Y17200000D01*
X2900000Y16900000D02*
X4700000Y16900000D01*
D24*
X2900000Y16900000D02*
X3400000Y16900000D01*
X3400000Y16900000D02*
X4700000Y15600000D01*
D26*
%TO.N,/Rotary8*%
X-7365000Y-9135000D02*
X-5500000Y-11000000D01*
X-7365000Y-2975000D02*
X-7365000Y-9135000D01*
X-5500000Y-18575000D02*
X-5725000Y-18800000D01*
X-5500000Y-17250000D02*
X-5500000Y-18575000D01*
X-6000000Y-19075000D02*
X-5725000Y-18800000D01*
X-5500000Y-12900000D02*
X-5500000Y-11000000D01*
X-7525000Y-14925000D02*
X-5500000Y-12900000D01*
X-12700000Y-14925000D02*
X-7525000Y-14925000D01*
%TO.N,/Rotary4*%
X-9905000Y-4905000D02*
X-10275000Y-5275000D01*
X-9905000Y-2975000D02*
X-9905000Y-4905000D01*
%TO.N,/Rotary2*%
X-8635000Y-9135000D02*
X-10500000Y-11000000D01*
X-8635000Y-2975000D02*
X-8635000Y-9135000D01*
X-10500000Y-18575000D02*
X-10275000Y-18800000D01*
X-10500000Y-17250000D02*
X-10500000Y-18575000D01*
%TO.N,/Rotary1*%
X-6095000Y-4905000D02*
X-5725000Y-5275000D01*
X-6095000Y-2975000D02*
X-6095000Y-4905000D01*
X-14300000Y-15900000D02*
X-7500000Y-15900000D01*
X-7500000Y-15900000D02*
X-4200000Y-12600000D01*
X-4200000Y-6800000D02*
X-5725000Y-5275000D01*
X-4200000Y-12600000D02*
X-4200000Y-6800000D01*
%TO.N,/SW3*%
X8175000Y-11050000D02*
X8225000Y-11000000D01*
X8175000Y-13000000D02*
X8175000Y-11050000D01*
X8300000Y-13125000D02*
X8175000Y-13000000D01*
X8300000Y-14100000D02*
X8300000Y-14000000D01*
X8300000Y-14000000D02*
X8300000Y-13125000D01*
%TO.N,/SW2*%
X4425000Y-12950000D02*
X4375000Y-13000000D01*
X4425000Y-11000000D02*
X4425000Y-12950000D01*
X4400000Y-13025000D02*
X4375000Y-13000000D01*
X4400000Y-14100000D02*
X4400000Y-13025000D01*
%TO.N,/SW1*%
X575000Y-11050000D02*
X625000Y-11000000D01*
X575000Y-13000000D02*
X575000Y-11050000D01*
X600000Y-13025000D02*
X575000Y-13000000D01*
X600000Y-14100000D02*
X600000Y-13025000D01*
%TO.N,Net-(C20-Pad2)*%
X19525000Y1525000D02*
X19525000Y1000000D01*
X21250000Y2000000D02*
X20000000Y2000000D01*
X20000000Y2000000D02*
X19525000Y1525000D01*
%TO.N,Net-(C20-Pad1)*%
X18475001Y2725001D02*
X17975000Y2225000D01*
X20225001Y2725001D02*
X18475001Y2725001D01*
X17975000Y2225000D02*
X17975000Y1000000D01*
%TO.N,Net-(C21-Pad1)*%
X-275000Y2225000D02*
X-275000Y1000000D01*
X1975001Y2725001D02*
X225001Y2725001D01*
X225001Y2725001D02*
X-275000Y2225000D01*
%TO.N,Net-(C21-Pad2)*%
X1750000Y2000000D02*
X1275000Y1525000D01*
X3000000Y2000000D02*
X1750000Y2000000D01*
X1275000Y1525000D02*
X1275000Y1000000D01*
D24*
%TO.N,Net-(D1-Pad1)*%
X-7100000Y22612500D02*
X-7062500Y22650000D01*
X-7100000Y20700000D02*
X-7100000Y22612500D01*
D26*
%TO.N,/DRV2_EN*%
X4750000Y-8500000D02*
X10250000Y-8500000D01*
X3000000Y-6750000D02*
X4750000Y-8500000D01*
X10250000Y-8500000D02*
X13250000Y-11500000D01*
%TO.N,/DRV2_PN*%
X18455000Y-15795000D02*
X18500000Y-15840000D01*
X10660000Y-8000000D02*
X18455000Y-15795000D01*
X5275305Y-8000000D02*
X4145109Y-6869804D01*
X10660000Y-8000000D02*
X5275305Y-8000000D01*
%TD*%
D28*
%TO.N,GND*%
X38665000Y21684604D02*
X38661235Y21690238D01*
X38390239Y21961234D01*
X38071581Y22174155D01*
X37717507Y22320817D01*
X37341624Y22395585D01*
X36958376Y22395585D01*
X36582493Y22320817D01*
X36228419Y22174155D01*
X35909761Y21961234D01*
X35638765Y21690238D01*
X35425844Y21371580D01*
X35279182Y21017506D01*
X35204414Y20641623D01*
X35204414Y20258375D01*
X35279182Y19882492D01*
X35425844Y19528418D01*
X35638765Y19209760D01*
X35909761Y18938764D01*
X36228419Y18725843D01*
X36582493Y18579181D01*
X36958376Y18504413D01*
X37341624Y18504413D01*
X37717507Y18579181D01*
X38071581Y18725843D01*
X38390239Y18938764D01*
X38661235Y19209760D01*
X38665000Y19215395D01*
X38665001Y14235000D01*
X34936105Y14235000D01*
X34900000Y14238556D01*
X34863895Y14235000D01*
X34755915Y14224365D01*
X34617367Y14182337D01*
X34489680Y14114087D01*
X34377762Y14022238D01*
X34285913Y13910320D01*
X34217663Y13782633D01*
X34175635Y13644085D01*
X34161444Y13500000D01*
X34165001Y13463885D01*
X34165000Y-1463894D01*
X34161444Y-1499999D01*
X34175635Y-1644084D01*
X34217663Y-1782632D01*
X34285913Y-1910319D01*
X34377762Y-2022237D01*
X34426774Y-2062460D01*
X34489680Y-2114086D01*
X34617367Y-2182336D01*
X34755915Y-2224364D01*
X34900000Y-2238555D01*
X34936105Y-2234999D01*
X38665001Y-2234999D01*
X38665000Y-13215396D01*
X38661235Y-13209761D01*
X38390239Y-12938765D01*
X38071581Y-12725844D01*
X37717507Y-12579182D01*
X37341624Y-12504414D01*
X36958376Y-12504414D01*
X36582493Y-12579182D01*
X36228419Y-12725844D01*
X35909761Y-12938765D01*
X35638765Y-13209761D01*
X35425844Y-13528419D01*
X35279182Y-13882493D01*
X35204414Y-14258376D01*
X35204414Y-14641624D01*
X35279182Y-15017507D01*
X35425844Y-15371581D01*
X35638765Y-15690239D01*
X35909761Y-15961235D01*
X36228419Y-16174156D01*
X36582493Y-16320818D01*
X36958376Y-16395586D01*
X37341624Y-16395586D01*
X37717507Y-16320818D01*
X38071581Y-16174156D01*
X38390239Y-15961235D01*
X38661235Y-15690239D01*
X38665000Y-15684604D01*
X38664999Y-26664999D01*
X-38664999Y-26665001D01*
X-38665000Y-15684604D01*
X-38661235Y-15690239D01*
X-38390239Y-15961235D01*
X-38071581Y-16174156D01*
X-37717507Y-16320818D01*
X-37341624Y-16395586D01*
X-36958376Y-16395586D01*
X-36582493Y-16320818D01*
X-36228419Y-16174156D01*
X-35909761Y-15961235D01*
X-35736738Y-15788212D01*
X-15435000Y-15788212D01*
X-15435000Y-16011788D01*
X-15391383Y-16231067D01*
X-15305824Y-16437624D01*
X-15181612Y-16623520D01*
X-15023520Y-16781612D01*
X-14837624Y-16905824D01*
X-14631067Y-16991383D01*
X-14411788Y-17035000D01*
X-14188212Y-17035000D01*
X-13968933Y-16991383D01*
X-13762376Y-16905824D01*
X-13576480Y-16781612D01*
X-13454868Y-16660000D01*
X-11350558Y-16660000D01*
X-11417205Y-16759744D01*
X-11495226Y-16948102D01*
X-11535000Y-17148061D01*
X-11535000Y-17351939D01*
X-11495226Y-17551898D01*
X-11417205Y-17740256D01*
X-11303937Y-17909774D01*
X-11259999Y-17953712D01*
X-11259999Y-18149792D01*
X-11297375Y-18219717D01*
X-11346488Y-18381623D01*
X-11363072Y-18550000D01*
X-11363072Y-19050000D01*
X-11346488Y-19218377D01*
X-11297375Y-19380283D01*
X-11217618Y-19529497D01*
X-11110284Y-19660284D01*
X-10979497Y-19767618D01*
X-10830283Y-19847375D01*
X-10668377Y-19896488D01*
X-10500000Y-19913072D01*
X-10050000Y-19913072D01*
X-9881623Y-19896488D01*
X-9719717Y-19847375D01*
X-9573649Y-19769300D01*
X-9529494Y-19805537D01*
X-9419180Y-19864502D01*
X-9299482Y-19900812D01*
X-9175000Y-19913072D01*
X-9010750Y-19910000D01*
X-8852000Y-19751250D01*
X-8852000Y-18927000D01*
X-8598000Y-18927000D01*
X-8598000Y-19751250D01*
X-8439250Y-19910000D01*
X-8275000Y-19913072D01*
X-8150518Y-19900812D01*
X-8030820Y-19864502D01*
X-8000000Y-19848028D01*
X-7969180Y-19864502D01*
X-7849482Y-19900812D01*
X-7725000Y-19913072D01*
X-7560750Y-19910000D01*
X-7402000Y-19751250D01*
X-7402000Y-18927000D01*
X-8598000Y-18927000D01*
X-8852000Y-18927000D01*
X-8872000Y-18927000D01*
X-8872000Y-18673000D01*
X-8852000Y-18673000D01*
X-8852000Y-17848750D01*
X-8598000Y-17848750D01*
X-8598000Y-18673000D01*
X-7402000Y-18673000D01*
X-7402000Y-17848750D01*
X-7148000Y-17848750D01*
X-7148000Y-18673000D01*
X-7128000Y-18673000D01*
X-7128000Y-18927000D01*
X-7148000Y-18927000D01*
X-7148000Y-19751250D01*
X-6989250Y-19910000D01*
X-6825000Y-19913072D01*
X-6700518Y-19900812D01*
X-6580820Y-19864502D01*
X-6470506Y-19805537D01*
X-6426351Y-19769300D01*
X-6280283Y-19847375D01*
X-6118377Y-19896488D01*
X-5950000Y-19913072D01*
X-5500000Y-19913072D01*
X-5331623Y-19896488D01*
X-5169717Y-19847375D01*
X-5020503Y-19767618D01*
X-4889716Y-19660284D01*
X-4782382Y-19529497D01*
X-4702625Y-19380283D01*
X-4653512Y-19218377D01*
X-4636928Y-19050000D01*
X-4636928Y-18550000D01*
X-4653512Y-18381623D01*
X-4702625Y-18219717D01*
X-4740000Y-18149794D01*
X-4740000Y-17953711D01*
X-4696063Y-17909774D01*
X-4582795Y-17740256D01*
X-4504774Y-17551898D01*
X-4465000Y-17351939D01*
X-4465000Y-17148061D01*
X-4504774Y-16948102D01*
X-4582795Y-16759744D01*
X-4696063Y-16590226D01*
X-4840226Y-16446063D01*
X-5009744Y-16332795D01*
X-5198102Y-16254774D01*
X-5398061Y-16215000D01*
X-5601939Y-16215000D01*
X-5801898Y-16254774D01*
X-5990256Y-16332795D01*
X-6159774Y-16446063D01*
X-6303937Y-16590226D01*
X-6417205Y-16759744D01*
X-6495226Y-16948102D01*
X-6535000Y-17148061D01*
X-6535000Y-17351939D01*
X-6495226Y-17551898D01*
X-6417205Y-17740256D01*
X-6375083Y-17803297D01*
X-6426351Y-17830700D01*
X-6470506Y-17794463D01*
X-6580820Y-17735498D01*
X-6700518Y-17699188D01*
X-6825000Y-17686928D01*
X-6989250Y-17690000D01*
X-7148000Y-17848750D01*
X-7402000Y-17848750D01*
X-7560750Y-17690000D01*
X-7725000Y-17686928D01*
X-7849482Y-17699188D01*
X-7969180Y-17735498D01*
X-8000000Y-17751972D01*
X-8030820Y-17735498D01*
X-8150518Y-17699188D01*
X-8275000Y-17686928D01*
X-8439250Y-17690000D01*
X-8598000Y-17848750D01*
X-8852000Y-17848750D01*
X-9010750Y-17690000D01*
X-9175000Y-17686928D01*
X-9299482Y-17699188D01*
X-9419180Y-17735498D01*
X-9529494Y-17794463D01*
X-9573649Y-17830700D01*
X-9624917Y-17803297D01*
X-9582795Y-17740256D01*
X-9504774Y-17551898D01*
X-9465000Y-17351939D01*
X-9465000Y-17148061D01*
X-9504774Y-16948102D01*
X-9582795Y-16759744D01*
X-9649442Y-16660000D01*
X-7537322Y-16660000D01*
X-7500000Y-16663676D01*
X-7462678Y-16660000D01*
X-7462667Y-16660000D01*
X-7351014Y-16649003D01*
X-7207753Y-16605546D01*
X-7075724Y-16534974D01*
X-6959999Y-16440001D01*
X-6936196Y-16410997D01*
X-4000199Y-13475000D01*
X-2063072Y-13475000D01*
X-2050812Y-13599482D01*
X-2014502Y-13719180D01*
X-1955537Y-13829494D01*
X-1876185Y-13926185D01*
X-1779494Y-14005537D01*
X-1669180Y-14064502D01*
X-1549482Y-14100812D01*
X-1425000Y-14113072D01*
X-1260750Y-14110000D01*
X-1102000Y-13951250D01*
X-1102000Y-13127000D01*
X-1901250Y-13127000D01*
X-2060000Y-13285750D01*
X-2063072Y-13475000D01*
X-4000199Y-13475000D01*
X-3688996Y-13163798D01*
X-3659999Y-13140001D01*
X-3565026Y-13024276D01*
X-3494454Y-12892247D01*
X-3450997Y-12748986D01*
X-3440000Y-12637333D01*
X-3440000Y-12637325D01*
X-3436324Y-12600000D01*
X-3440000Y-12562675D01*
X-3440000Y-6837325D01*
X-3436324Y-6800000D01*
X-3440000Y-6762675D01*
X-3440000Y-6762667D01*
X-3450997Y-6651014D01*
X-3494454Y-6507753D01*
X-3565026Y-6375724D01*
X-3659999Y-6259999D01*
X-3688997Y-6236201D01*
X-4690000Y-5235199D01*
X-4690000Y-5173061D01*
X-4729774Y-4973102D01*
X-4807795Y-4784744D01*
X-4921063Y-4615226D01*
X-5065226Y-4471063D01*
X-5234744Y-4357795D01*
X-5335000Y-4316267D01*
X-5335000Y-4292976D01*
X-5289742Y-4237829D01*
X-5216916Y-4101582D01*
X-5172071Y-3953745D01*
X-5156928Y-3800000D01*
X-5156928Y-2150000D01*
X-5172071Y-1996255D01*
X-5216916Y-1848418D01*
X-5289742Y-1712171D01*
X-5387749Y-1592749D01*
X-5507171Y-1494742D01*
X-5643418Y-1421916D01*
X-5791255Y-1377071D01*
X-5945000Y-1361928D01*
X-6245000Y-1361928D01*
X-6398745Y-1377071D01*
X-6546582Y-1421916D01*
X-6682829Y-1494742D01*
X-6730000Y-1533454D01*
X-6777171Y-1494742D01*
X-6913418Y-1421916D01*
X-7061255Y-1377071D01*
X-7215000Y-1361928D01*
X-7515000Y-1361928D01*
X-7668745Y-1377071D01*
X-7816582Y-1421916D01*
X-7952829Y-1494742D01*
X-8000000Y-1533454D01*
X-8047171Y-1494742D01*
X-8183418Y-1421916D01*
X-8331255Y-1377071D01*
X-8485000Y-1361928D01*
X-8785000Y-1361928D01*
X-8938745Y-1377071D01*
X-9086582Y-1421916D01*
X-9222829Y-1494742D01*
X-9270000Y-1533454D01*
X-9317171Y-1494742D01*
X-9453418Y-1421916D01*
X-9601255Y-1377071D01*
X-9755000Y-1361928D01*
X-10055000Y-1361928D01*
X-10208745Y-1377071D01*
X-10356582Y-1421916D01*
X-10492829Y-1494742D01*
X-10612251Y-1592749D01*
X-10710258Y-1712171D01*
X-10783084Y-1848418D01*
X-10827929Y-1996255D01*
X-10843072Y-2150000D01*
X-10843072Y-3800000D01*
X-10827929Y-3953745D01*
X-10783084Y-4101582D01*
X-10710258Y-4237829D01*
X-10664999Y-4292977D01*
X-10664999Y-4316267D01*
X-10765256Y-4357795D01*
X-10934774Y-4471063D01*
X-11078937Y-4615226D01*
X-11192205Y-4784744D01*
X-11270226Y-4973102D01*
X-11310000Y-5173061D01*
X-11310000Y-5376939D01*
X-11270226Y-5576898D01*
X-11192205Y-5765256D01*
X-11127000Y-5862842D01*
X-11127000Y-10174164D01*
X-11159774Y-10196063D01*
X-11303937Y-10340226D01*
X-11417205Y-10509744D01*
X-11495226Y-10698102D01*
X-11535000Y-10898061D01*
X-11535000Y-11101939D01*
X-11495226Y-11301898D01*
X-11417205Y-11490256D01*
X-11303937Y-11659774D01*
X-11159774Y-11803937D01*
X-10990256Y-11917205D01*
X-10801898Y-11995226D01*
X-10601939Y-12035000D01*
X-10398061Y-12035000D01*
X-10198102Y-11995226D01*
X-10009744Y-11917205D01*
X-9840226Y-11803937D01*
X-9696063Y-11659774D01*
X-9582795Y-11490256D01*
X-9504774Y-11301898D01*
X-9465000Y-11101939D01*
X-9465000Y-11039801D01*
X-8123997Y-9698799D01*
X-8094999Y-9675001D01*
X-8000026Y-9559276D01*
X-8000000Y-9559227D01*
X-7999974Y-9559276D01*
X-7936851Y-9636191D01*
X-7905000Y-9675001D01*
X-7876002Y-9698799D01*
X-6535000Y-11039802D01*
X-6535000Y-11101939D01*
X-6495226Y-11301898D01*
X-6417205Y-11490256D01*
X-6303937Y-11659774D01*
X-6259999Y-11703712D01*
X-6260000Y-12585197D01*
X-7839801Y-14165000D01*
X-11854868Y-14165000D01*
X-11976480Y-14043388D01*
X-12162376Y-13919176D01*
X-12368933Y-13833617D01*
X-12588212Y-13790000D01*
X-12811788Y-13790000D01*
X-13031067Y-13833617D01*
X-13237624Y-13919176D01*
X-13423520Y-14043388D01*
X-13581612Y-14201480D01*
X-13705824Y-14387376D01*
X-13791383Y-14593933D01*
X-13835000Y-14813212D01*
X-13835000Y-14864094D01*
X-13968933Y-14808617D01*
X-14188212Y-14765000D01*
X-14411788Y-14765000D01*
X-14631067Y-14808617D01*
X-14837624Y-14894176D01*
X-15023520Y-15018388D01*
X-15181612Y-15176480D01*
X-15305824Y-15362376D01*
X-15391383Y-15568933D01*
X-15435000Y-15788212D01*
X-35736738Y-15788212D01*
X-35638765Y-15690239D01*
X-35425844Y-15371581D01*
X-35279182Y-15017507D01*
X-35204414Y-14641624D01*
X-35204414Y-14258376D01*
X-35279182Y-13882493D01*
X-35425844Y-13528419D01*
X-35638765Y-13209761D01*
X-35909761Y-12938765D01*
X-36228419Y-12725844D01*
X-36582493Y-12579182D01*
X-36958376Y-12504414D01*
X-37341624Y-12504414D01*
X-37717507Y-12579182D01*
X-38071581Y-12725844D01*
X-38390239Y-12938765D01*
X-38661235Y-13209761D01*
X-38665000Y-13215396D01*
X-38665001Y-2235000D01*
X-34936105Y-2235000D01*
X-34900000Y-2238556D01*
X-34863895Y-2235000D01*
X-34755915Y-2224365D01*
X-34617367Y-2182337D01*
X-34489680Y-2114087D01*
X-34377762Y-2022238D01*
X-34285913Y-1910320D01*
X-34217663Y-1782633D01*
X-34175635Y-1644085D01*
X-34161444Y-1500000D01*
X-34165000Y-1463894D01*
X-34165000Y11400000D01*
X-31138556Y11400000D01*
X-31134999Y11363885D01*
X-31135000Y3436105D01*
X-31138556Y3400000D01*
X-31124365Y3255915D01*
X-31082337Y3117367D01*
X-31014087Y2989680D01*
X-30922238Y2877762D01*
X-30833521Y2804954D01*
X-30810320Y2785913D01*
X-30682633Y2717663D01*
X-30544085Y2675635D01*
X-30400000Y2661444D01*
X-30363895Y2665000D01*
X-21436105Y2665000D01*
X-21400000Y2661444D01*
X-21363895Y2665000D01*
X-21255915Y2675635D01*
X-21117367Y2717663D01*
X-20989680Y2785913D01*
X-20877762Y2877762D01*
X-20785913Y2989680D01*
X-20717663Y3117367D01*
X-20675635Y3255915D01*
X-20661444Y3400000D01*
X-20665000Y3436105D01*
X-20665000Y6100000D01*
X-12789281Y6100000D01*
X-12785000Y6056531D01*
X-12784999Y3443479D01*
X-12789281Y3400000D01*
X-12772195Y3226510D01*
X-12721588Y3059687D01*
X-12639410Y2905941D01*
X-12556532Y2804954D01*
X-12556529Y2804951D01*
X-12528816Y2771183D01*
X-12495049Y2743471D01*
X-11131530Y1379951D01*
X-11103817Y1346183D01*
X-11070049Y1318470D01*
X-11070047Y1318468D01*
X-11040786Y1294454D01*
X-10969059Y1235589D01*
X-10843072Y1168248D01*
X-10843072Y1150000D01*
X-10827929Y996255D01*
X-10783084Y848418D01*
X-10710258Y712171D01*
X-10612251Y592749D01*
X-10492829Y494742D01*
X-10356582Y421916D01*
X-10208745Y377071D01*
X-10055000Y361928D01*
X-9755000Y361928D01*
X-9601255Y377071D01*
X-9453418Y421916D01*
X-9317171Y494742D01*
X-9270000Y533454D01*
X-9222829Y494742D01*
X-9086582Y421916D01*
X-8938745Y377071D01*
X-8785000Y361928D01*
X-8485000Y361928D01*
X-8331255Y377071D01*
X-8183418Y421916D01*
X-8047171Y494742D01*
X-8000000Y533454D01*
X-7952829Y494742D01*
X-7816582Y421916D01*
X-7668745Y377071D01*
X-7515000Y361928D01*
X-7215000Y361928D01*
X-7061255Y377071D01*
X-6913418Y421916D01*
X-6777171Y494742D01*
X-6730000Y533454D01*
X-6682829Y494742D01*
X-6546582Y421916D01*
X-6398745Y377071D01*
X-6245000Y361928D01*
X-5945000Y361928D01*
X-5791255Y377071D01*
X-5758565Y386987D01*
X-1109990Y-4261589D01*
X-1109989Y-9886928D01*
X-1225000Y-9886928D01*
X-1388500Y-9903031D01*
X-1545716Y-9950722D01*
X-1690608Y-10028169D01*
X-1817606Y-10132394D01*
X-1921831Y-10259392D01*
X-1999278Y-10404284D01*
X-2046969Y-10561500D01*
X-2063072Y-10725000D01*
X-2063072Y-11275000D01*
X-2046969Y-11438500D01*
X-1999278Y-11595716D01*
X-1921831Y-11740608D01*
X-1817606Y-11867606D01*
X-1708966Y-11956765D01*
X-1779494Y-11994463D01*
X-1876185Y-12073815D01*
X-1955537Y-12170506D01*
X-2014502Y-12280820D01*
X-2050812Y-12400518D01*
X-2063072Y-12525000D01*
X-2060000Y-12714250D01*
X-1901250Y-12873000D01*
X-1102000Y-12873000D01*
X-1102000Y-12853000D01*
X-848000Y-12853000D01*
X-848000Y-12873000D01*
X-828000Y-12873000D01*
X-828000Y-13127000D01*
X-848000Y-13127000D01*
X-848000Y-13951250D01*
X-689250Y-14110000D01*
X-525000Y-14113072D01*
X-400518Y-14100812D01*
X-335000Y-14080937D01*
X-335000Y-14192089D01*
X-299068Y-14372729D01*
X-228586Y-14542889D01*
X-126262Y-14696028D01*
X3972Y-14826262D01*
X157111Y-14928586D01*
X327271Y-14999068D01*
X507911Y-15035000D01*
X692089Y-15035000D01*
X872729Y-14999068D01*
X1042889Y-14928586D01*
X1196028Y-14826262D01*
X1326262Y-14696028D01*
X1428586Y-14542889D01*
X1499068Y-14372729D01*
X1535000Y-14192089D01*
X1535000Y-14007911D01*
X1499068Y-13827271D01*
X1478375Y-13777314D01*
X1517618Y-13729497D01*
X1597375Y-13580283D01*
X1629311Y-13475000D01*
X1736928Y-13475000D01*
X1749188Y-13599482D01*
X1785498Y-13719180D01*
X1844463Y-13829494D01*
X1923815Y-13926185D01*
X2020506Y-14005537D01*
X2130820Y-14064502D01*
X2250518Y-14100812D01*
X2375000Y-14113072D01*
X2539250Y-14110000D01*
X2698000Y-13951250D01*
X2698000Y-13127000D01*
X1898750Y-13127000D01*
X1740000Y-13285750D01*
X1736928Y-13475000D01*
X1629311Y-13475000D01*
X1646488Y-13418377D01*
X1663072Y-13250000D01*
X1663072Y-12750000D01*
X1650957Y-12627000D01*
X1738584Y-12627000D01*
X1740000Y-12714250D01*
X1898750Y-12873000D01*
X2698000Y-12873000D01*
X2698000Y-12853000D01*
X2952000Y-12853000D01*
X2952000Y-12873000D01*
X2972000Y-12873000D01*
X2972000Y-13127000D01*
X2952000Y-13127000D01*
X2952000Y-13951250D01*
X3110750Y-14110000D01*
X3275000Y-14113072D01*
X3399482Y-14100812D01*
X3465000Y-14080937D01*
X3465000Y-14192089D01*
X3500932Y-14372729D01*
X3571414Y-14542889D01*
X3673738Y-14696028D01*
X3803972Y-14826262D01*
X3957111Y-14928586D01*
X4127271Y-14999068D01*
X4307911Y-15035000D01*
X4492089Y-15035000D01*
X4672729Y-14999068D01*
X4842889Y-14928586D01*
X4996028Y-14826262D01*
X5126262Y-14696028D01*
X5228586Y-14542889D01*
X5299068Y-14372729D01*
X5335000Y-14192089D01*
X5335000Y-14007911D01*
X5299068Y-13827271D01*
X5278375Y-13777314D01*
X5317618Y-13729497D01*
X5397375Y-13580283D01*
X5429311Y-13475000D01*
X5536928Y-13475000D01*
X5549188Y-13599482D01*
X5585498Y-13719180D01*
X5644463Y-13829494D01*
X5723815Y-13926185D01*
X5820506Y-14005537D01*
X5930820Y-14064502D01*
X6050518Y-14100812D01*
X6175000Y-14113072D01*
X6339250Y-14110000D01*
X6498000Y-13951250D01*
X6498000Y-13127000D01*
X5698750Y-13127000D01*
X5540000Y-13285750D01*
X5536928Y-13475000D01*
X5429311Y-13475000D01*
X5446488Y-13418377D01*
X5463072Y-13250000D01*
X5463072Y-12750000D01*
X5450957Y-12627000D01*
X5538584Y-12627000D01*
X5540000Y-12714250D01*
X5698750Y-12873000D01*
X6498000Y-12873000D01*
X6498000Y-12853000D01*
X6752000Y-12853000D01*
X6752000Y-12873000D01*
X6772000Y-12873000D01*
X6772000Y-13127000D01*
X6752000Y-13127000D01*
X6752000Y-13951250D01*
X6910750Y-14110000D01*
X7075000Y-14113072D01*
X7199482Y-14100812D01*
X7319180Y-14064502D01*
X7365000Y-14040010D01*
X7365000Y-14092089D01*
X7400932Y-14272729D01*
X7471414Y-14442889D01*
X7573738Y-14596028D01*
X7703972Y-14726262D01*
X7857111Y-14828586D01*
X8027271Y-14899068D01*
X8207911Y-14935000D01*
X8392089Y-14935000D01*
X8572729Y-14899068D01*
X8742889Y-14828586D01*
X8896028Y-14726262D01*
X9026262Y-14596028D01*
X9128586Y-14442889D01*
X9199068Y-14272729D01*
X9235000Y-14092089D01*
X9235000Y-13907911D01*
X9199068Y-13727271D01*
X9164027Y-13642673D01*
X9197375Y-13580283D01*
X9246488Y-13418377D01*
X9263072Y-13250000D01*
X9263072Y-12750000D01*
X9246488Y-12581623D01*
X9197375Y-12419717D01*
X9117618Y-12270503D01*
X9010284Y-12139716D01*
X8935000Y-12077932D01*
X8935000Y-11935399D01*
X9017606Y-11867606D01*
X9121831Y-11740608D01*
X9199278Y-11595716D01*
X9246969Y-11438500D01*
X9263072Y-11275000D01*
X9263072Y-10725000D01*
X9246969Y-10561500D01*
X9199278Y-10404284D01*
X9121831Y-10259392D01*
X9017606Y-10132394D01*
X8890608Y-10028169D01*
X8745716Y-9950722D01*
X8588500Y-9903031D01*
X8425000Y-9886928D01*
X8025000Y-9886928D01*
X7861500Y-9903031D01*
X7704284Y-9950722D01*
X7559392Y-10028169D01*
X7432394Y-10132394D01*
X7400000Y-10171866D01*
X7367606Y-10132394D01*
X7240608Y-10028169D01*
X7095716Y-9950722D01*
X6938500Y-9903031D01*
X6775000Y-9886928D01*
X6536729Y-9886928D01*
X6338793Y-9688992D01*
X6314991Y-9659989D01*
X6199266Y-9565016D01*
X6067237Y-9494444D01*
X5923976Y-9450987D01*
X5812323Y-9439990D01*
X5812312Y-9439990D01*
X5774990Y-9436314D01*
X5737668Y-9439990D01*
X3687332Y-9439990D01*
X3650010Y-9436314D01*
X3612687Y-9439990D01*
X3612677Y-9439990D01*
X3501024Y-9450987D01*
X3357763Y-9494444D01*
X3225733Y-9565016D01*
X3207751Y-9579774D01*
X3110009Y-9659989D01*
X3086211Y-9688988D01*
X2888270Y-9886928D01*
X2736729Y-9886928D01*
X2538793Y-9688992D01*
X2514991Y-9659989D01*
X2399266Y-9565016D01*
X2373615Y-9551305D01*
X2296038Y-9473728D01*
X2142899Y-9371404D01*
X1972739Y-9300922D01*
X1792099Y-9264990D01*
X1607921Y-9264990D01*
X1427281Y-9300922D01*
X1257121Y-9371404D01*
X1154475Y-9439990D01*
X660010Y-9439990D01*
X660010Y-6648061D01*
X1965000Y-6648061D01*
X1965000Y-6851939D01*
X2004774Y-7051898D01*
X2082795Y-7240256D01*
X2196063Y-7409774D01*
X2340226Y-7553937D01*
X2509744Y-7667205D01*
X2698102Y-7745226D01*
X2898061Y-7785000D01*
X2960199Y-7785000D01*
X4186200Y-9011002D01*
X4209999Y-9040001D01*
X4325724Y-9134974D01*
X4457753Y-9205546D01*
X4601014Y-9249003D01*
X4712667Y-9260000D01*
X4712675Y-9260000D01*
X4750000Y-9263676D01*
X4787325Y-9260000D01*
X9935199Y-9260000D01*
X12326847Y-11651649D01*
X12350932Y-11772729D01*
X12421414Y-11942889D01*
X12523738Y-12096028D01*
X12653972Y-12226262D01*
X12807111Y-12328586D01*
X12977271Y-12399068D01*
X13157911Y-12435000D01*
X13342089Y-12435000D01*
X13522729Y-12399068D01*
X13692889Y-12328586D01*
X13825306Y-12240108D01*
X17420000Y-15834802D01*
X17420000Y-15896939D01*
X17459774Y-16096898D01*
X17537795Y-16285256D01*
X17651063Y-16454774D01*
X17795226Y-16598937D01*
X17964744Y-16712205D01*
X18153102Y-16790226D01*
X18353061Y-16830000D01*
X18556939Y-16830000D01*
X18756898Y-16790226D01*
X18945256Y-16712205D01*
X19114774Y-16598937D01*
X19258937Y-16454774D01*
X19372205Y-16285256D01*
X19450226Y-16096898D01*
X19490000Y-15896939D01*
X19490000Y-15693061D01*
X19450226Y-15493102D01*
X19372205Y-15304744D01*
X19258937Y-15135226D01*
X19114774Y-14991063D01*
X18945256Y-14877795D01*
X18756898Y-14799774D01*
X18556939Y-14760000D01*
X18494802Y-14760000D01*
X14207863Y-10473061D01*
X16040000Y-10473061D01*
X16040000Y-10676939D01*
X16079774Y-10876898D01*
X16157795Y-11065256D01*
X16271063Y-11234774D01*
X16415226Y-11378937D01*
X16584744Y-11492205D01*
X16773102Y-11570226D01*
X16973061Y-11610000D01*
X17176939Y-11610000D01*
X17376898Y-11570226D01*
X17565256Y-11492205D01*
X17734774Y-11378937D01*
X17778711Y-11335000D01*
X21121289Y-11335000D01*
X21165226Y-11378937D01*
X21334744Y-11492205D01*
X21523102Y-11570226D01*
X21723061Y-11610000D01*
X21926939Y-11610000D01*
X22126898Y-11570226D01*
X22315256Y-11492205D01*
X22484774Y-11378937D01*
X22628937Y-11234774D01*
X22742205Y-11065256D01*
X22820226Y-10876898D01*
X22860000Y-10676939D01*
X22860000Y-10473061D01*
X22820226Y-10273102D01*
X22742205Y-10084744D01*
X22628937Y-9915226D01*
X22484774Y-9771063D01*
X22315256Y-9657795D01*
X22126898Y-9579774D01*
X21926939Y-9540000D01*
X21723061Y-9540000D01*
X21523102Y-9579774D01*
X21334744Y-9657795D01*
X21165226Y-9771063D01*
X21121289Y-9815000D01*
X17778711Y-9815000D01*
X17734774Y-9771063D01*
X17565256Y-9657795D01*
X17376898Y-9579774D01*
X17176939Y-9540000D01*
X16973061Y-9540000D01*
X16773102Y-9579774D01*
X16584744Y-9657795D01*
X16415226Y-9771063D01*
X16271063Y-9915226D01*
X16157795Y-10084744D01*
X16079774Y-10273102D01*
X16040000Y-10473061D01*
X14207863Y-10473061D01*
X11223804Y-7489003D01*
X11200001Y-7459999D01*
X11084276Y-7365026D01*
X10952247Y-7294454D01*
X10808986Y-7250997D01*
X10697333Y-7240000D01*
X10697322Y-7240000D01*
X10660000Y-7236324D01*
X10622678Y-7240000D01*
X5590107Y-7240000D01*
X5180109Y-6830003D01*
X5180109Y-6767865D01*
X5140335Y-6567906D01*
X5062314Y-6379548D01*
X4949046Y-6210030D01*
X4804883Y-6065867D01*
X4635365Y-5952599D01*
X4447007Y-5874578D01*
X4247048Y-5834804D01*
X4043170Y-5834804D01*
X3843211Y-5874578D01*
X3662954Y-5949243D01*
X3659774Y-5946063D01*
X3490256Y-5832795D01*
X3301898Y-5754774D01*
X3101939Y-5715000D01*
X2898061Y-5715000D01*
X2698102Y-5754774D01*
X2509744Y-5832795D01*
X2340226Y-5946063D01*
X2196063Y-6090226D01*
X2082795Y-6259744D01*
X2004774Y-6448102D01*
X1965000Y-6648061D01*
X660010Y-6648061D01*
X660010Y-3938479D01*
X664291Y-3895010D01*
X660010Y-3851541D01*
X660010Y-3851533D01*
X647205Y-3721520D01*
X596599Y-3554697D01*
X514421Y-3400951D01*
X431542Y-3299963D01*
X431540Y-3299961D01*
X403827Y-3266193D01*
X370061Y-3238482D01*
X259942Y-3128363D01*
X11265000Y-3128363D01*
X11265000Y-3371637D01*
X11312460Y-3610236D01*
X11405557Y-3834992D01*
X11540713Y-4037267D01*
X11712733Y-4209287D01*
X11915008Y-4344443D01*
X12139764Y-4437540D01*
X12378363Y-4485000D01*
X12621637Y-4485000D01*
X12860236Y-4437540D01*
X13084992Y-4344443D01*
X13287267Y-4209287D01*
X13459287Y-4037267D01*
X13594443Y-3834992D01*
X13687540Y-3610236D01*
X13735000Y-3371637D01*
X13735000Y-3128363D01*
X29515000Y-3128363D01*
X29515000Y-3371637D01*
X29562460Y-3610236D01*
X29655557Y-3834992D01*
X29790713Y-4037267D01*
X29962733Y-4209287D01*
X30165008Y-4344443D01*
X30389764Y-4437540D01*
X30628363Y-4485000D01*
X30871637Y-4485000D01*
X31110236Y-4437540D01*
X31334992Y-4344443D01*
X31537267Y-4209287D01*
X31709287Y-4037267D01*
X31844443Y-3834992D01*
X31937540Y-3610236D01*
X31985000Y-3371637D01*
X31985000Y-3128363D01*
X31937540Y-2889764D01*
X31844443Y-2665008D01*
X31709287Y-2462733D01*
X31537267Y-2290713D01*
X31334992Y-2155557D01*
X31110236Y-2062460D01*
X30871637Y-2015000D01*
X30628363Y-2015000D01*
X30389764Y-2062460D01*
X30165008Y-2155557D01*
X29962733Y-2290713D01*
X29790713Y-2462733D01*
X29655557Y-2665008D01*
X29562460Y-2889764D01*
X29515000Y-3128363D01*
X13735000Y-3128363D01*
X13687540Y-2889764D01*
X13594443Y-2665008D01*
X13459287Y-2462733D01*
X13287267Y-2290713D01*
X13084992Y-2155557D01*
X12860236Y-2062460D01*
X12621637Y-2015000D01*
X12378363Y-2015000D01*
X12139764Y-2062460D01*
X11915008Y-2155557D01*
X11712733Y-2290713D01*
X11540713Y-2462733D01*
X11405557Y-2665008D01*
X11312460Y-2889764D01*
X11265000Y-3128363D01*
X259942Y-3128363D01*
X-2240058Y-628363D01*
X11265000Y-628363D01*
X11265000Y-871637D01*
X11312460Y-1110236D01*
X11405557Y-1334992D01*
X11540713Y-1537267D01*
X11712733Y-1709287D01*
X11915008Y-1844443D01*
X12139764Y-1937540D01*
X12378363Y-1985000D01*
X12621637Y-1985000D01*
X12860236Y-1937540D01*
X13084992Y-1844443D01*
X13287267Y-1709287D01*
X13459287Y-1537267D01*
X13594443Y-1334992D01*
X13687540Y-1110236D01*
X13735000Y-871637D01*
X13735000Y-628363D01*
X29515000Y-628363D01*
X29515000Y-871637D01*
X29562460Y-1110236D01*
X29655557Y-1334992D01*
X29790713Y-1537267D01*
X29962733Y-1709287D01*
X30165008Y-1844443D01*
X30389764Y-1937540D01*
X30628363Y-1985000D01*
X30871637Y-1985000D01*
X31110236Y-1937540D01*
X31334992Y-1844443D01*
X31537267Y-1709287D01*
X31709287Y-1537267D01*
X31844443Y-1334992D01*
X31937540Y-1110236D01*
X31985000Y-871637D01*
X31985000Y-628363D01*
X31937540Y-389764D01*
X31844443Y-165008D01*
X31709287Y37267D01*
X31537267Y209287D01*
X31334992Y344443D01*
X31110236Y437540D01*
X30871637Y485000D01*
X30628363Y485000D01*
X30389764Y437540D01*
X30165008Y344443D01*
X29962733Y209287D01*
X29790713Y37267D01*
X29655557Y-165008D01*
X29562460Y-389764D01*
X29515000Y-628363D01*
X13735000Y-628363D01*
X13687540Y-389764D01*
X13594443Y-165008D01*
X13459287Y37267D01*
X13287267Y209287D01*
X13084992Y344443D01*
X12860236Y437540D01*
X12621637Y485000D01*
X12378363Y485000D01*
X12139764Y437540D01*
X11915008Y344443D01*
X11712733Y209287D01*
X11540713Y37267D01*
X11405557Y-165008D01*
X11312460Y-389764D01*
X11265000Y-628363D01*
X-2240058Y-628363D01*
X-4118421Y1250000D01*
X-1363072Y1250000D01*
X-1363072Y750000D01*
X-1346488Y581623D01*
X-1297375Y419717D01*
X-1217618Y270503D01*
X-1110284Y139716D01*
X-979497Y32382D01*
X-830283Y-47375D01*
X-668377Y-96488D01*
X-500000Y-113072D01*
X-50000Y-113072D01*
X118377Y-96488D01*
X280283Y-47375D01*
X429497Y32382D01*
X500000Y90242D01*
X570503Y32382D01*
X719717Y-47375D01*
X881623Y-96488D01*
X1050000Y-113072D01*
X1500000Y-113072D01*
X1668377Y-96488D01*
X1830283Y-47375D01*
X1979497Y32382D01*
X2110284Y139716D01*
X2217618Y270503D01*
X2297375Y419717D01*
X2346488Y581623D01*
X2363072Y750000D01*
X2363072Y1180798D01*
X2509744Y1082795D01*
X2698102Y1004774D01*
X2898061Y965000D01*
X3101939Y965000D01*
X3301898Y1004774D01*
X3490256Y1082795D01*
X3659774Y1196063D01*
X3713711Y1250000D01*
X16886928Y1250000D01*
X16886928Y750000D01*
X16903512Y581623D01*
X16952625Y419717D01*
X17032382Y270503D01*
X17139716Y139716D01*
X17270503Y32382D01*
X17419717Y-47375D01*
X17581623Y-96488D01*
X17750000Y-113072D01*
X18200000Y-113072D01*
X18368377Y-96488D01*
X18530283Y-47375D01*
X18679497Y32382D01*
X18750000Y90242D01*
X18820503Y32382D01*
X18969717Y-47375D01*
X19131623Y-96488D01*
X19300000Y-113072D01*
X19750000Y-113072D01*
X19918377Y-96488D01*
X20080283Y-47375D01*
X20229497Y32382D01*
X20360284Y139716D01*
X20467618Y270503D01*
X20547375Y419717D01*
X20596488Y581623D01*
X20613072Y750000D01*
X20613072Y1180798D01*
X20759744Y1082795D01*
X20948102Y1004774D01*
X21148061Y965000D01*
X21351939Y965000D01*
X21551898Y1004774D01*
X21740256Y1082795D01*
X21909774Y1196063D01*
X22053937Y1340226D01*
X22167205Y1509744D01*
X22245226Y1698102D01*
X22285000Y1898061D01*
X22285000Y2101939D01*
X22245226Y2301898D01*
X22167205Y2490256D01*
X22053937Y2659774D01*
X21909774Y2803937D01*
X21740256Y2917205D01*
X21551898Y2995226D01*
X21351939Y3035000D01*
X21216871Y3035000D01*
X21142206Y3215257D01*
X21028938Y3384775D01*
X20884775Y3528938D01*
X20715257Y3642206D01*
X20526899Y3720227D01*
X20326940Y3760001D01*
X20123062Y3760001D01*
X19923103Y3720227D01*
X19734745Y3642206D01*
X19565227Y3528938D01*
X19521290Y3485001D01*
X18512323Y3485001D01*
X18475000Y3488677D01*
X18437677Y3485001D01*
X18437668Y3485001D01*
X18326015Y3474004D01*
X18182754Y3430547D01*
X18050725Y3359975D01*
X17935000Y3265002D01*
X17911197Y3235998D01*
X17464003Y2788804D01*
X17434999Y2765001D01*
X17386206Y2705546D01*
X17340026Y2649276D01*
X17294337Y2563799D01*
X17269454Y2517246D01*
X17225997Y2373985D01*
X17215000Y2262332D01*
X17215000Y2262322D01*
X17211324Y2225000D01*
X17215000Y2187677D01*
X17215000Y1922068D01*
X17139716Y1860284D01*
X17032382Y1729497D01*
X16952625Y1580283D01*
X16903512Y1418377D01*
X16886928Y1250000D01*
X3713711Y1250000D01*
X3803937Y1340226D01*
X3917205Y1509744D01*
X3995226Y1698102D01*
X4035000Y1898061D01*
X4035000Y2101939D01*
X3995226Y2301898D01*
X3917205Y2490256D01*
X3803937Y2659774D01*
X3659774Y2803937D01*
X3490256Y2917205D01*
X3301898Y2995226D01*
X3101939Y3035000D01*
X2966871Y3035000D01*
X2892206Y3215257D01*
X2778938Y3384775D01*
X2634775Y3528938D01*
X2465257Y3642206D01*
X2276899Y3720227D01*
X2076940Y3760001D01*
X1873062Y3760001D01*
X1673103Y3720227D01*
X1484745Y3642206D01*
X1315227Y3528938D01*
X1271290Y3485001D01*
X262323Y3485001D01*
X225000Y3488677D01*
X187677Y3485001D01*
X187668Y3485001D01*
X76015Y3474004D01*
X-67246Y3430547D01*
X-199275Y3359975D01*
X-315000Y3265002D01*
X-338803Y3235998D01*
X-785997Y2788804D01*
X-815001Y2765001D01*
X-863794Y2705546D01*
X-909974Y2649276D01*
X-955663Y2563799D01*
X-980546Y2517246D01*
X-1024003Y2373985D01*
X-1035000Y2262332D01*
X-1035000Y2262322D01*
X-1038676Y2225000D01*
X-1035000Y2187677D01*
X-1035000Y1922068D01*
X-1110284Y1860284D01*
X-1217618Y1729497D01*
X-1297375Y1580283D01*
X-1346488Y1418377D01*
X-1363072Y1250000D01*
X-4118421Y1250000D01*
X-4843422Y1975000D01*
X-4654951Y2163470D01*
X-4621183Y2191183D01*
X-4593429Y2225000D01*
X-4519311Y2315313D01*
X-4510589Y2325941D01*
X-4428411Y2479687D01*
X-4377805Y2646510D01*
X-4365000Y2776523D01*
X-4365000Y2776533D01*
X-4360719Y2819999D01*
X-4365000Y2863465D01*
X-4365000Y3711928D01*
X-4250000Y3711928D01*
X-4125518Y3724188D01*
X-4005820Y3760498D01*
X-3895506Y3819463D01*
X-3850000Y3856809D01*
X-3804494Y3819463D01*
X-3694180Y3760498D01*
X-3574482Y3724188D01*
X-3450000Y3711928D01*
X-2635750Y3715000D01*
X-2477000Y3873750D01*
X-2477000Y5023000D01*
X-2223000Y5023000D01*
X-2223000Y3873750D01*
X-2064250Y3715000D01*
X-1250000Y3711928D01*
X-1125518Y3724188D01*
X-1005820Y3760498D01*
X-895506Y3819463D01*
X-798815Y3898815D01*
X-719463Y3995506D01*
X-660498Y4105820D01*
X-624188Y4225518D01*
X-611928Y4350000D01*
X-615000Y4864250D01*
X-773750Y5023000D01*
X-2223000Y5023000D01*
X-2477000Y5023000D01*
X-2497000Y5023000D01*
X-2497000Y5277000D01*
X-2477000Y5277000D01*
X-2477000Y6426250D01*
X-2223000Y6426250D01*
X-2223000Y5277000D01*
X-773750Y5277000D01*
X-615000Y5435750D01*
X-611928Y5950000D01*
X-624188Y6074482D01*
X-660498Y6194180D01*
X-719463Y6304494D01*
X-798815Y6401185D01*
X-895506Y6480537D01*
X-1005820Y6539502D01*
X-1125518Y6575812D01*
X-1250000Y6588072D01*
X-2064250Y6585000D01*
X-2223000Y6426250D01*
X-2477000Y6426250D01*
X-2635750Y6585000D01*
X-3450000Y6588072D01*
X-3574482Y6575812D01*
X-3694180Y6539502D01*
X-3804494Y6480537D01*
X-3850000Y6443191D01*
X-3895506Y6480537D01*
X-4005820Y6539502D01*
X-4125518Y6575812D01*
X-4250000Y6588072D01*
X-6450000Y6588072D01*
X-6574482Y6575812D01*
X-6694180Y6539502D01*
X-6804494Y6480537D01*
X-6901185Y6401185D01*
X-6980537Y6304494D01*
X-7039502Y6194180D01*
X-7075812Y6074482D01*
X-7088072Y5950000D01*
X-7088072Y4350000D01*
X-7075812Y4225518D01*
X-7039502Y4105820D01*
X-6980537Y3995506D01*
X-6901185Y3898815D01*
X-6804494Y3819463D01*
X-6694180Y3760498D01*
X-6574482Y3724188D01*
X-6450000Y3711928D01*
X-6134999Y3711928D01*
X-6134999Y3588072D01*
X-6245000Y3588072D01*
X-6398745Y3572929D01*
X-6546582Y3528084D01*
X-6682829Y3455258D01*
X-6730000Y3416546D01*
X-6777171Y3455258D01*
X-6913418Y3528084D01*
X-7061255Y3572929D01*
X-7215000Y3588072D01*
X-7515000Y3588072D01*
X-7668745Y3572929D01*
X-7816582Y3528084D01*
X-7952829Y3455258D01*
X-8000000Y3416546D01*
X-8047171Y3455258D01*
X-8183418Y3528084D01*
X-8331255Y3572929D01*
X-8485000Y3588072D01*
X-8785000Y3588072D01*
X-8938745Y3572929D01*
X-9086582Y3528084D01*
X-9222829Y3455258D01*
X-9270000Y3416546D01*
X-9317171Y3455258D01*
X-9453418Y3528084D01*
X-9601255Y3572929D01*
X-9755000Y3588072D01*
X-10055000Y3588072D01*
X-10208745Y3572929D01*
X-10356582Y3528084D01*
X-10492829Y3455258D01*
X-10608638Y3360216D01*
X-11015000Y3766578D01*
X-11015000Y5733422D01*
X-10282232Y6466190D01*
X-10068933Y6508617D01*
X-9862376Y6594176D01*
X-9676480Y6718388D01*
X-9518388Y6876480D01*
X-9394176Y7062376D01*
X-9308617Y7268933D01*
X-9265000Y7488212D01*
X-9265000Y7711788D01*
X-9308617Y7931067D01*
X-9394176Y8137624D01*
X-9518388Y8323520D01*
X-9676480Y8481612D01*
X-9862376Y8605824D01*
X-10068933Y8691383D01*
X-10288212Y8735000D01*
X-10511788Y8735000D01*
X-10731067Y8691383D01*
X-10937624Y8605824D01*
X-11123520Y8481612D01*
X-11281612Y8323520D01*
X-11405824Y8137624D01*
X-11491383Y7931067D01*
X-11533810Y7717768D01*
X-12495044Y6756534D01*
X-12528817Y6728817D01*
X-12639411Y6594058D01*
X-12721589Y6440312D01*
X-12772195Y6273489D01*
X-12785000Y6143476D01*
X-12785000Y6143469D01*
X-12789281Y6100000D01*
X-20665000Y6100000D01*
X-20665000Y11363895D01*
X-20661444Y11400000D01*
X-20675635Y11544085D01*
X-20717663Y11682633D01*
X-20785913Y11810320D01*
X-20877762Y11922238D01*
X-20989680Y12014087D01*
X-21117367Y12082337D01*
X-21255915Y12124365D01*
X-21363895Y12135000D01*
X-21400000Y12138556D01*
X-21436105Y12135000D01*
X-30363895Y12135000D01*
X-30400000Y12138556D01*
X-30436105Y12135000D01*
X-30544085Y12124365D01*
X-30682633Y12082337D01*
X-30810320Y12014087D01*
X-30922238Y11922238D01*
X-31014087Y11810320D01*
X-31082337Y11682633D01*
X-31124365Y11544085D01*
X-31138556Y11400000D01*
X-34165000Y11400000D01*
X-34165000Y13463896D01*
X-34161444Y13499999D01*
X-34175635Y13644084D01*
X-34217663Y13782632D01*
X-34285913Y13910319D01*
X-34377762Y14022237D01*
X-34489680Y14114086D01*
X-34617367Y14182336D01*
X-34755915Y14224364D01*
X-34863895Y14234999D01*
X-34900000Y14238555D01*
X-34936105Y14234999D01*
X-38665001Y14234999D01*
X-38665000Y19215395D01*
X-38661235Y19209760D01*
X-38390239Y18938764D01*
X-38071581Y18725843D01*
X-37717507Y18579181D01*
X-37341624Y18504413D01*
X-36958376Y18504413D01*
X-36582493Y18579181D01*
X-36228419Y18725843D01*
X-35909761Y18938764D01*
X-35638765Y19209760D01*
X-35611720Y19250236D01*
X-27770159Y19250236D01*
X-27722852Y19026652D01*
X-27501484Y18925763D01*
X-27264687Y18870000D01*
X-27021562Y18861505D01*
X-26781451Y18900605D01*
X-26553582Y18985798D01*
X-26477148Y19026652D01*
X-26429841Y19250236D01*
X-27100000Y19920395D01*
X-27770159Y19250236D01*
X-35611720Y19250236D01*
X-35425844Y19528418D01*
X-35279182Y19882492D01*
X-35251520Y20021562D01*
X-28338495Y20021562D01*
X-28299395Y19781451D01*
X-28214202Y19553582D01*
X-28173348Y19477148D01*
X-27949764Y19429841D01*
X-27279605Y20100000D01*
X-26920395Y20100000D01*
X-26250236Y19429841D01*
X-26026652Y19477148D01*
X-25925763Y19698516D01*
X-25870000Y19935313D01*
X-25861505Y20178438D01*
X-25868539Y20221637D01*
X-25835000Y20221637D01*
X-25835000Y19978363D01*
X-25787540Y19739764D01*
X-25694443Y19515008D01*
X-25559287Y19312733D01*
X-25387267Y19140713D01*
X-25184992Y19005557D01*
X-24960236Y18912460D01*
X-24721637Y18865000D01*
X-24478363Y18865000D01*
X-24239764Y18912460D01*
X-24015008Y19005557D01*
X-23812733Y19140713D01*
X-23640713Y19312733D01*
X-23505557Y19515008D01*
X-23412460Y19739764D01*
X-23365000Y19978363D01*
X-23365000Y20221637D01*
X-23335000Y20221637D01*
X-23335000Y19978363D01*
X-23287540Y19739764D01*
X-23194443Y19515008D01*
X-23059287Y19312733D01*
X-22887267Y19140713D01*
X-22684992Y19005557D01*
X-22558147Y18953016D01*
X-19991991Y16386859D01*
X-19956449Y16343551D01*
X-19783623Y16201716D01*
X-19724973Y16170367D01*
X-19082382Y15527776D01*
X-19177815Y15432342D01*
X-19207763Y15407764D01*
X-19232341Y15377816D01*
X-19232345Y15377812D01*
X-19258186Y15346324D01*
X-19305861Y15288233D01*
X-19337539Y15228967D01*
X-19378754Y15151859D01*
X-19423641Y15003886D01*
X-19438797Y14850000D01*
X-19434999Y14811437D01*
X-19435000Y12578711D01*
X-19453937Y12559774D01*
X-19567205Y12390256D01*
X-19645226Y12201898D01*
X-19685000Y12001939D01*
X-19685000Y11798061D01*
X-19645226Y11598102D01*
X-19567205Y11409744D01*
X-19453937Y11240226D01*
X-19309774Y11096063D01*
X-19140256Y10982795D01*
X-18951898Y10904774D01*
X-18751939Y10865000D01*
X-18548061Y10865000D01*
X-18348102Y10904774D01*
X-18159744Y10982795D01*
X-17990226Y11096063D01*
X-17846063Y11240226D01*
X-17732795Y11409744D01*
X-17654774Y11598102D01*
X-17615000Y11798061D01*
X-17615000Y12001939D01*
X-17654774Y12201898D01*
X-17732795Y12390256D01*
X-17846063Y12559774D01*
X-17865000Y12578711D01*
X-17865000Y13050000D01*
X-17788072Y13050000D01*
X-17775812Y12925518D01*
X-17739502Y12805820D01*
X-17680537Y12695506D01*
X-17601185Y12598815D01*
X-17504494Y12519463D01*
X-17394180Y12460498D01*
X-17274482Y12424188D01*
X-17150000Y12411928D01*
X-16635750Y12415000D01*
X-16477000Y12573750D01*
X-16477000Y14023000D01*
X-16223000Y14023000D01*
X-16223000Y12573750D01*
X-16064250Y12415000D01*
X-15550000Y12411928D01*
X-15425518Y12424188D01*
X-15305820Y12460498D01*
X-15195506Y12519463D01*
X-15098815Y12598815D01*
X-15019463Y12695506D01*
X-14960498Y12805820D01*
X-14924188Y12925518D01*
X-14911928Y13050000D01*
X-14915000Y13864250D01*
X-15073750Y14023000D01*
X-16223000Y14023000D01*
X-16477000Y14023000D01*
X-17626250Y14023000D01*
X-17785000Y13864250D01*
X-17788072Y13050000D01*
X-17865000Y13050000D01*
X-17865000Y14524843D01*
X-17785636Y14604207D01*
X-17785000Y14435750D01*
X-17626250Y14277000D01*
X-16477000Y14277000D01*
X-16477000Y14297000D01*
X-16223000Y14297000D01*
X-16223000Y14277000D01*
X-15073750Y14277000D01*
X-14915000Y14435750D01*
X-14914947Y14450000D01*
X-14288072Y14450000D01*
X-14275812Y14325518D01*
X-14239502Y14205820D01*
X-14180537Y14095506D01*
X-14101185Y13998815D01*
X-14004494Y13919463D01*
X-13894180Y13860498D01*
X-13774482Y13824188D01*
X-13650000Y13811928D01*
X-13285750Y13815000D01*
X-13127000Y13973750D01*
X-13127000Y14773000D01*
X-14126250Y14773000D01*
X-14285000Y14614250D01*
X-14288072Y14450000D01*
X-14914947Y14450000D01*
X-14911928Y15250000D01*
X-14913405Y15265000D01*
X-14286482Y15265000D01*
X-14285000Y15185750D01*
X-14126250Y15027000D01*
X-13127000Y15027000D01*
X-13127000Y15047000D01*
X-12873000Y15047000D01*
X-12873000Y15027000D01*
X-12853000Y15027000D01*
X-12853000Y14773000D01*
X-12873000Y14773000D01*
X-12873000Y13973750D01*
X-12714250Y13815000D01*
X-12350000Y13811928D01*
X-12225518Y13824188D01*
X-12105820Y13860498D01*
X-11995506Y13919463D01*
X-11898815Y13998815D01*
X-11819463Y14095506D01*
X-11760498Y14205820D01*
X-11724188Y14325518D01*
X-11711928Y14450000D01*
X-11715000Y14614250D01*
X-11873748Y14772998D01*
X-11715000Y14772998D01*
X-11715000Y14895428D01*
X-9050000Y14895428D01*
X-8925518Y14907688D01*
X-8805820Y14943998D01*
X-8695506Y15002963D01*
X-8598815Y15082315D01*
X-8519463Y15179006D01*
X-8513587Y15189999D01*
X-7992201Y15189999D01*
X-7411679Y14609476D01*
X-7411668Y14609467D01*
X-5439057Y12636854D01*
X-5403519Y12593551D01*
X-5360216Y12558013D01*
X-5360214Y12558011D01*
X-5230693Y12451716D01*
X-5033517Y12346324D01*
X-4819569Y12281423D01*
X-4597070Y12259509D01*
X-4541318Y12265000D01*
X4644249Y12265000D01*
X4700000Y12259509D01*
X4755751Y12265000D01*
X4755752Y12265000D01*
X4922499Y12281423D01*
X5136447Y12346324D01*
X5333623Y12451716D01*
X5506449Y12593551D01*
X5541996Y12636865D01*
X10170132Y17265000D01*
X11961928Y17265000D01*
X11961928Y16650000D01*
X11974188Y16525518D01*
X12010498Y16405820D01*
X12069463Y16295506D01*
X12148815Y16198815D01*
X12245506Y16119463D01*
X12355820Y16060498D01*
X12475518Y16024188D01*
X12600000Y16011928D01*
X14200000Y16011928D01*
X14324482Y16024188D01*
X14444180Y16060498D01*
X14554494Y16119463D01*
X14651185Y16198815D01*
X14730537Y16295506D01*
X14789502Y16405820D01*
X14825812Y16525518D01*
X14838072Y16650000D01*
X14838072Y19943797D01*
X23590000Y19943797D01*
X23590000Y19656203D01*
X23646107Y19374134D01*
X23756165Y19108431D01*
X23915944Y18869304D01*
X24119304Y18665944D01*
X24358431Y18506165D01*
X24624134Y18396107D01*
X24906203Y18340000D01*
X25193797Y18340000D01*
X25475866Y18396107D01*
X25741569Y18506165D01*
X25980696Y18665944D01*
X26104201Y18789449D01*
X26719054Y18789449D01*
X26793663Y18542927D01*
X27053439Y18419527D01*
X27332297Y18349177D01*
X27619521Y18334583D01*
X27904074Y18376303D01*
X28175020Y18472735D01*
X28306337Y18542927D01*
X28380946Y18789449D01*
X27550000Y19620395D01*
X26719054Y18789449D01*
X26104201Y18789449D01*
X26184056Y18869304D01*
X26299275Y19041742D01*
X26539449Y18969054D01*
X27370395Y19800000D01*
X27729605Y19800000D01*
X28560551Y18969054D01*
X28807073Y19043663D01*
X28930473Y19303439D01*
X29000823Y19582297D01*
X29015417Y19869521D01*
X28973697Y20154074D01*
X28877265Y20425020D01*
X28807073Y20556337D01*
X28560551Y20630946D01*
X27729605Y19800000D01*
X27370395Y19800000D01*
X26539449Y20630946D01*
X26299275Y20558258D01*
X26184056Y20730696D01*
X26104201Y20810551D01*
X26719054Y20810551D01*
X27550000Y19979605D01*
X28380946Y20810551D01*
X28306337Y21057073D01*
X28046561Y21180473D01*
X27767703Y21250823D01*
X27480479Y21265417D01*
X27195926Y21223697D01*
X26924980Y21127265D01*
X26793663Y21057073D01*
X26719054Y20810551D01*
X26104201Y20810551D01*
X25980696Y20934056D01*
X25741569Y21093835D01*
X25475866Y21203893D01*
X25193797Y21260000D01*
X24906203Y21260000D01*
X24624134Y21203893D01*
X24358431Y21093835D01*
X24119304Y20934056D01*
X23915944Y20730696D01*
X23756165Y20491569D01*
X23646107Y20225866D01*
X23590000Y19943797D01*
X14838072Y19943797D01*
X14838072Y20150000D01*
X14825812Y20274482D01*
X14789502Y20394180D01*
X14730537Y20504494D01*
X14651185Y20601185D01*
X14554494Y20680537D01*
X14444180Y20739502D01*
X14324482Y20775812D01*
X14200000Y20788072D01*
X12600000Y20788072D01*
X12475518Y20775812D01*
X12355820Y20739502D01*
X12245506Y20680537D01*
X12148815Y20601185D01*
X12069463Y20504494D01*
X12010498Y20394180D01*
X11974188Y20274482D01*
X11961928Y20150000D01*
X11961928Y19535000D01*
X9755752Y19535000D01*
X9700000Y19540491D01*
X9644248Y19535000D01*
X9477501Y19518577D01*
X9263553Y19453676D01*
X9066377Y19348284D01*
X8893551Y19206449D01*
X8858009Y19163141D01*
X6821868Y17127000D01*
X5935000Y17127000D01*
X5935000Y17292089D01*
X5899068Y17472729D01*
X5828586Y17642889D01*
X5726262Y17796028D01*
X5596028Y17926262D01*
X5442889Y18028586D01*
X5272729Y18099068D01*
X5092089Y18135000D01*
X4907911Y18135000D01*
X4727271Y18099068D01*
X4557111Y18028586D01*
X4403972Y17926262D01*
X4273738Y17796028D01*
X4210547Y17701456D01*
X4206449Y17706449D01*
X4038072Y17844633D01*
X4038072Y18400000D01*
X4025812Y18524482D01*
X3989502Y18644180D01*
X3930537Y18754494D01*
X3851185Y18851185D01*
X3754494Y18930537D01*
X3644180Y18989502D01*
X3524482Y19025812D01*
X3400000Y19038072D01*
X2400000Y19038072D01*
X2275518Y19025812D01*
X2155820Y18989502D01*
X2045506Y18930537D01*
X1948815Y18851185D01*
X1869463Y18754494D01*
X1810498Y18644180D01*
X1774188Y18524482D01*
X1761928Y18400000D01*
X1761928Y18035000D01*
X-1904869Y18035000D01*
X-2055465Y18185596D01*
X-2130700Y18326351D01*
X-2094463Y18370506D01*
X-2035498Y18480820D01*
X-1999188Y18600518D01*
X-1986928Y18725000D01*
X-1990000Y18889250D01*
X-2148750Y19048000D01*
X-2973000Y19048000D01*
X-2973000Y19028000D01*
X-3227000Y19028000D01*
X-3227000Y19048000D01*
X-4051250Y19048000D01*
X-4210000Y18889250D01*
X-4213072Y18725000D01*
X-4200812Y18600518D01*
X-4164502Y18480820D01*
X-4105537Y18370506D01*
X-4069300Y18326351D01*
X-4147375Y18180283D01*
X-4191446Y18035000D01*
X-5851928Y18035000D01*
X-5851928Y18175000D01*
X-5864188Y18299482D01*
X-5900498Y18419180D01*
X-5959463Y18529494D01*
X-6038815Y18626185D01*
X-6135506Y18705537D01*
X-6245820Y18764502D01*
X-6365518Y18800812D01*
X-6490000Y18813072D01*
X-7710000Y18813072D01*
X-7834482Y18800812D01*
X-7954180Y18764502D01*
X-8064494Y18705537D01*
X-8161185Y18626185D01*
X-8240537Y18529494D01*
X-8299502Y18419180D01*
X-8335812Y18299482D01*
X-8348072Y18175000D01*
X-8348072Y17459999D01*
X-8445124Y17459999D01*
X-8460498Y17510680D01*
X-8519463Y17620994D01*
X-8598815Y17717685D01*
X-8695506Y17797037D01*
X-8805820Y17856002D01*
X-8925518Y17892312D01*
X-9050000Y17904572D01*
X-11390296Y17904572D01*
X-11136860Y18158008D01*
X-11093551Y18193551D01*
X-10951716Y18366377D01*
X-10846324Y18563553D01*
X-10781423Y18777501D01*
X-10765000Y18944248D01*
X-10759509Y19000000D01*
X-10765000Y19055751D01*
X-10765000Y21211928D01*
X-10150000Y21211928D01*
X-10025518Y21224188D01*
X-9905820Y21260498D01*
X-9795506Y21319463D01*
X-9698815Y21398815D01*
X-9619463Y21495506D01*
X-9609043Y21515000D01*
X-8581748Y21515000D01*
X-8415001Y21531423D01*
X-8386326Y21540122D01*
X-8282861Y21550312D01*
X-8299502Y21519180D01*
X-8335812Y21399482D01*
X-8348072Y21275000D01*
X-8348072Y20125000D01*
X-8335812Y20000518D01*
X-8299502Y19880820D01*
X-8240537Y19770506D01*
X-8161185Y19673815D01*
X-8064494Y19594463D01*
X-7954180Y19535498D01*
X-7834482Y19499188D01*
X-7710000Y19486928D01*
X-6490000Y19486928D01*
X-6365518Y19499188D01*
X-6245820Y19535498D01*
X-6135506Y19594463D01*
X-6098297Y19625000D01*
X-4213072Y19625000D01*
X-4210000Y19460750D01*
X-4051250Y19302000D01*
X-3227000Y19302000D01*
X-3227000Y20101250D01*
X-2973000Y20101250D01*
X-2973000Y19302000D01*
X-2148750Y19302000D01*
X-1990000Y19460750D01*
X-1986928Y19625000D01*
X-1999188Y19749482D01*
X-2035498Y19869180D01*
X-2094463Y19979494D01*
X-2173815Y20076185D01*
X-2270506Y20155537D01*
X-2380820Y20214502D01*
X-2500518Y20250812D01*
X-2625000Y20263072D01*
X-2814250Y20260000D01*
X-2973000Y20101250D01*
X-3227000Y20101250D01*
X-3385750Y20260000D01*
X-3575000Y20263072D01*
X-3699482Y20250812D01*
X-3819180Y20214502D01*
X-3929494Y20155537D01*
X-4026185Y20076185D01*
X-4105537Y19979494D01*
X-4164502Y19869180D01*
X-4200812Y19749482D01*
X-4213072Y19625000D01*
X-6098297Y19625000D01*
X-6038815Y19673815D01*
X-5959463Y19770506D01*
X-5900498Y19880820D01*
X-5864188Y20000518D01*
X-5851928Y20125000D01*
X-5851928Y21275000D01*
X-5864188Y21399482D01*
X-5864345Y21400000D01*
X1761928Y21400000D01*
X1774188Y21275518D01*
X1810498Y21155820D01*
X1869463Y21045506D01*
X1948815Y20948815D01*
X2045506Y20869463D01*
X2155820Y20810498D01*
X2275518Y20774188D01*
X2400000Y20761928D01*
X2614250Y20765000D01*
X2773000Y20923750D01*
X2773000Y22773000D01*
X3027000Y22773000D01*
X3027000Y20923750D01*
X3185750Y20765000D01*
X3400000Y20761928D01*
X3524482Y20774188D01*
X3644180Y20810498D01*
X3754494Y20869463D01*
X3851185Y20948815D01*
X3930537Y21045506D01*
X3989502Y21155820D01*
X4025812Y21275518D01*
X4038072Y21400000D01*
X4036428Y22050000D01*
X11961928Y22050000D01*
X11974188Y21925518D01*
X12010498Y21805820D01*
X12069463Y21695506D01*
X12148815Y21598815D01*
X12245506Y21519463D01*
X12355820Y21460498D01*
X12475518Y21424188D01*
X12600000Y21411928D01*
X13114250Y21415000D01*
X13273000Y21573750D01*
X13273000Y23673000D01*
X13527000Y23673000D01*
X13527000Y21573750D01*
X13685750Y21415000D01*
X14200000Y21411928D01*
X14324482Y21424188D01*
X14444180Y21460498D01*
X14554494Y21519463D01*
X14651185Y21598815D01*
X14730537Y21695506D01*
X14789502Y21805820D01*
X14825812Y21925518D01*
X14838072Y22050000D01*
X14835000Y23514250D01*
X14676250Y23673000D01*
X13527000Y23673000D01*
X13273000Y23673000D01*
X12123750Y23673000D01*
X11965000Y23514250D01*
X11961928Y22050000D01*
X4036428Y22050000D01*
X4035000Y22614250D01*
X3876250Y22773000D01*
X3027000Y22773000D01*
X2773000Y22773000D01*
X1923750Y22773000D01*
X1765000Y22614250D01*
X1761928Y21400000D01*
X-5864345Y21400000D01*
X-5900498Y21519180D01*
X-5959463Y21629494D01*
X-5965000Y21636241D01*
X-5965000Y22358021D01*
X-5943923Y22427502D01*
X-5922009Y22649999D01*
X-5943923Y22872498D01*
X-6002682Y23066198D01*
X-6003392Y23073408D01*
X-6052150Y23234142D01*
X-6131329Y23382275D01*
X-6237885Y23512115D01*
X-6367725Y23618671D01*
X-6515858Y23697850D01*
X-6676592Y23746608D01*
X-6811327Y23759879D01*
X-6840002Y23768577D01*
X-7062501Y23790491D01*
X-7284998Y23768577D01*
X-7313673Y23759879D01*
X-7448408Y23746608D01*
X-7609142Y23697850D01*
X-7757275Y23618671D01*
X-7850000Y23542574D01*
X-7942725Y23618671D01*
X-8090858Y23697850D01*
X-8251592Y23746608D01*
X-8386326Y23759878D01*
X-8415001Y23768577D01*
X-8581748Y23785000D01*
X-9609043Y23785000D01*
X-9619463Y23804494D01*
X-9698815Y23901185D01*
X-9795506Y23980537D01*
X-9905820Y24039502D01*
X-10025518Y24075812D01*
X-10150000Y24088072D01*
X-13650000Y24088072D01*
X-13774482Y24075812D01*
X-13894180Y24039502D01*
X-14004494Y23980537D01*
X-14101185Y23901185D01*
X-14180537Y23804494D01*
X-14239502Y23694180D01*
X-14275812Y23574482D01*
X-14288072Y23450000D01*
X-14288072Y21850000D01*
X-14275812Y21725518D01*
X-14239502Y21605820D01*
X-14180537Y21495506D01*
X-14101185Y21398815D01*
X-14004494Y21319463D01*
X-13894180Y21260498D01*
X-13774482Y21224188D01*
X-13650000Y21211928D01*
X-13035000Y21211928D01*
X-13034999Y19470133D01*
X-13517059Y18988072D01*
X-13650000Y18988072D01*
X-13774482Y18975812D01*
X-13894180Y18939502D01*
X-14004494Y18880537D01*
X-14101185Y18801185D01*
X-14180537Y18704494D01*
X-14221959Y18627000D01*
X-15037933Y18627000D01*
X-15098815Y18701185D01*
X-15195506Y18780537D01*
X-15305820Y18839502D01*
X-15425518Y18875812D01*
X-15550000Y18888072D01*
X-17150000Y18888072D01*
X-17274482Y18875812D01*
X-17394180Y18839502D01*
X-17504494Y18780537D01*
X-17601185Y18701185D01*
X-17680537Y18604494D01*
X-17739502Y18494180D01*
X-17775812Y18374482D01*
X-17784625Y18285000D01*
X-18679868Y18285000D01*
X-20953016Y20558147D01*
X-21005557Y20684992D01*
X-21140713Y20887267D01*
X-21312733Y21059287D01*
X-21515008Y21194443D01*
X-21739764Y21287540D01*
X-21978363Y21335000D01*
X-22221637Y21335000D01*
X-22460236Y21287540D01*
X-22684992Y21194443D01*
X-22887267Y21059287D01*
X-23059287Y20887267D01*
X-23194443Y20684992D01*
X-23287540Y20460236D01*
X-23335000Y20221637D01*
X-23365000Y20221637D01*
X-23412460Y20460236D01*
X-23505557Y20684992D01*
X-23640713Y20887267D01*
X-23812733Y21059287D01*
X-24015008Y21194443D01*
X-24239764Y21287540D01*
X-24478363Y21335000D01*
X-24721637Y21335000D01*
X-24960236Y21287540D01*
X-25184992Y21194443D01*
X-25387267Y21059287D01*
X-25559287Y20887267D01*
X-25694443Y20684992D01*
X-25787540Y20460236D01*
X-25835000Y20221637D01*
X-25868539Y20221637D01*
X-25900605Y20418549D01*
X-25985798Y20646418D01*
X-26026652Y20722852D01*
X-26250236Y20770159D01*
X-26920395Y20100000D01*
X-27279605Y20100000D01*
X-27949764Y20770159D01*
X-28173348Y20722852D01*
X-28274237Y20501484D01*
X-28330000Y20264687D01*
X-28338495Y20021562D01*
X-35251520Y20021562D01*
X-35204414Y20258375D01*
X-35204414Y20641623D01*
X-35265707Y20949764D01*
X-27770159Y20949764D01*
X-27100000Y20279605D01*
X-26429841Y20949764D01*
X-26477148Y21173348D01*
X-26698516Y21274237D01*
X-26935313Y21330000D01*
X-27178438Y21338495D01*
X-27418549Y21299395D01*
X-27646418Y21214202D01*
X-27722852Y21173348D01*
X-27770159Y20949764D01*
X-35265707Y20949764D01*
X-35279182Y21017506D01*
X-35425844Y21371580D01*
X-35638765Y21690238D01*
X-35798527Y21850000D01*
X-19688072Y21850000D01*
X-19675812Y21725518D01*
X-19639502Y21605820D01*
X-19580537Y21495506D01*
X-19501185Y21398815D01*
X-19404494Y21319463D01*
X-19294180Y21260498D01*
X-19174482Y21224188D01*
X-19050000Y21211928D01*
X-17585750Y21215000D01*
X-17427000Y21373750D01*
X-17427000Y22523000D01*
X-17173000Y22523000D01*
X-17173000Y21373750D01*
X-17014250Y21215000D01*
X-15550000Y21211928D01*
X-15425518Y21224188D01*
X-15305820Y21260498D01*
X-15195506Y21319463D01*
X-15098815Y21398815D01*
X-15019463Y21495506D01*
X-14960498Y21605820D01*
X-14924188Y21725518D01*
X-14911928Y21850000D01*
X-14915000Y22364250D01*
X-15073750Y22523000D01*
X-17173000Y22523000D01*
X-17427000Y22523000D01*
X-19526250Y22523000D01*
X-19685000Y22364250D01*
X-19688072Y21850000D01*
X-35798527Y21850000D01*
X-35909761Y21961234D01*
X-36228419Y22174155D01*
X-36582493Y22320817D01*
X-36958376Y22395585D01*
X-37341624Y22395585D01*
X-37717507Y22320817D01*
X-38071581Y22174155D01*
X-38390239Y21961234D01*
X-38661235Y21690238D01*
X-38665000Y21684604D01*
X-38665000Y23450000D01*
X-19688072Y23450000D01*
X-19685000Y22935750D01*
X-19526250Y22777000D01*
X-17427000Y22777000D01*
X-17427000Y23926250D01*
X-17173000Y23926250D01*
X-17173000Y22777000D01*
X-15073750Y22777000D01*
X-14915000Y22935750D01*
X-14911928Y23450000D01*
X-14924188Y23574482D01*
X-14960498Y23694180D01*
X-15019463Y23804494D01*
X-15098815Y23901185D01*
X-15195506Y23980537D01*
X-15305820Y24039502D01*
X-15425518Y24075812D01*
X-15550000Y24088072D01*
X-17014250Y24085000D01*
X-17173000Y23926250D01*
X-17427000Y23926250D01*
X-17585750Y24085000D01*
X-19050000Y24088072D01*
X-19174482Y24075812D01*
X-19294180Y24039502D01*
X-19404494Y23980537D01*
X-19501185Y23901185D01*
X-19580537Y23804494D01*
X-19639502Y23694180D01*
X-19675812Y23574482D01*
X-19688072Y23450000D01*
X-38665000Y23450000D01*
X-38665000Y24400000D01*
X1761928Y24400000D01*
X1765000Y23185750D01*
X1923750Y23027000D01*
X2773000Y23027000D01*
X2773000Y24876250D01*
X3027000Y24876250D01*
X3027000Y23027000D01*
X3876250Y23027000D01*
X4035000Y23185750D01*
X4038072Y24400000D01*
X4025812Y24524482D01*
X3989502Y24644180D01*
X3930537Y24754494D01*
X3851185Y24851185D01*
X3754494Y24930537D01*
X3644180Y24989502D01*
X3524482Y25025812D01*
X3400000Y25038072D01*
X3185750Y25035000D01*
X3027000Y24876250D01*
X2773000Y24876250D01*
X2614250Y25035000D01*
X2400000Y25038072D01*
X2275518Y25025812D01*
X2155820Y24989502D01*
X2045506Y24930537D01*
X1948815Y24851185D01*
X1869463Y24754494D01*
X1810498Y24644180D01*
X1774188Y24524482D01*
X1761928Y24400000D01*
X-38665000Y24400000D01*
X-38665000Y25550000D01*
X11961928Y25550000D01*
X11965000Y24085750D01*
X12123750Y23927000D01*
X13273000Y23927000D01*
X13273000Y26026250D01*
X13527000Y26026250D01*
X13527000Y23927000D01*
X14676250Y23927000D01*
X14835000Y24085750D01*
X14836313Y24711788D01*
X15765000Y24711788D01*
X15765000Y24488212D01*
X15808617Y24268933D01*
X15894176Y24062376D01*
X16018388Y23876480D01*
X16176480Y23718388D01*
X16362376Y23594176D01*
X16568933Y23508617D01*
X16788212Y23465000D01*
X17011788Y23465000D01*
X17231067Y23508617D01*
X17437624Y23594176D01*
X17623520Y23718388D01*
X17781612Y23876480D01*
X17905824Y24062376D01*
X17991383Y24268933D01*
X18035000Y24488212D01*
X18035000Y24711788D01*
X18765000Y24711788D01*
X18765000Y24488212D01*
X18808617Y24268933D01*
X18894176Y24062376D01*
X19018388Y23876480D01*
X19176480Y23718388D01*
X19362376Y23594176D01*
X19568933Y23508617D01*
X19788212Y23465000D01*
X20011788Y23465000D01*
X20231067Y23508617D01*
X20437624Y23594176D01*
X20623520Y23718388D01*
X20781612Y23876480D01*
X20905824Y24062376D01*
X20991383Y24268933D01*
X21035000Y24488212D01*
X21035000Y24711788D01*
X20991383Y24931067D01*
X20905824Y25137624D01*
X20781612Y25323520D01*
X20623520Y25481612D01*
X20437624Y25605824D01*
X20231067Y25691383D01*
X20011788Y25735000D01*
X19788212Y25735000D01*
X19568933Y25691383D01*
X19362376Y25605824D01*
X19176480Y25481612D01*
X19018388Y25323520D01*
X18894176Y25137624D01*
X18808617Y24931067D01*
X18765000Y24711788D01*
X18035000Y24711788D01*
X17991383Y24931067D01*
X17905824Y25137624D01*
X17781612Y25323520D01*
X17623520Y25481612D01*
X17437624Y25605824D01*
X17231067Y25691383D01*
X17011788Y25735000D01*
X16788212Y25735000D01*
X16568933Y25691383D01*
X16362376Y25605824D01*
X16176480Y25481612D01*
X16018388Y25323520D01*
X15894176Y25137624D01*
X15808617Y24931067D01*
X15765000Y24711788D01*
X14836313Y24711788D01*
X14838072Y25550000D01*
X14825812Y25674482D01*
X14789502Y25794180D01*
X14730537Y25904494D01*
X14651185Y26001185D01*
X14554494Y26080537D01*
X14444180Y26139502D01*
X14324482Y26175812D01*
X14200000Y26188072D01*
X13685750Y26185000D01*
X13527000Y26026250D01*
X13273000Y26026250D01*
X13114250Y26185000D01*
X12600000Y26188072D01*
X12475518Y26175812D01*
X12355820Y26139502D01*
X12245506Y26080537D01*
X12148815Y26001185D01*
X12069463Y25904494D01*
X12010498Y25794180D01*
X11974188Y25674482D01*
X11961928Y25550000D01*
X-38665000Y25550000D01*
X-38664999Y26664999D01*
X38664999Y26665001D01*
X38665000Y21684604D01*
%TA.AperFunction,Conductor*%
D29*
G36*
X38665000Y21684604D02*
G01*
X38661235Y21690238D01*
X38390239Y21961234D01*
X38071581Y22174155D01*
X37717507Y22320817D01*
X37341624Y22395585D01*
X36958376Y22395585D01*
X36582493Y22320817D01*
X36228419Y22174155D01*
X35909761Y21961234D01*
X35638765Y21690238D01*
X35425844Y21371580D01*
X35279182Y21017506D01*
X35204414Y20641623D01*
X35204414Y20258375D01*
X35279182Y19882492D01*
X35425844Y19528418D01*
X35638765Y19209760D01*
X35909761Y18938764D01*
X36228419Y18725843D01*
X36582493Y18579181D01*
X36958376Y18504413D01*
X37341624Y18504413D01*
X37717507Y18579181D01*
X38071581Y18725843D01*
X38390239Y18938764D01*
X38661235Y19209760D01*
X38665000Y19215395D01*
X38665001Y14235000D01*
X34936105Y14235000D01*
X34900000Y14238556D01*
X34863895Y14235000D01*
X34755915Y14224365D01*
X34617367Y14182337D01*
X34489680Y14114087D01*
X34377762Y14022238D01*
X34285913Y13910320D01*
X34217663Y13782633D01*
X34175635Y13644085D01*
X34161444Y13500000D01*
X34165001Y13463885D01*
X34165000Y-1463894D01*
X34161444Y-1499999D01*
X34175635Y-1644084D01*
X34217663Y-1782632D01*
X34285913Y-1910319D01*
X34377762Y-2022237D01*
X34426774Y-2062460D01*
X34489680Y-2114086D01*
X34617367Y-2182336D01*
X34755915Y-2224364D01*
X34900000Y-2238555D01*
X34936105Y-2234999D01*
X38665001Y-2234999D01*
X38665000Y-13215396D01*
X38661235Y-13209761D01*
X38390239Y-12938765D01*
X38071581Y-12725844D01*
X37717507Y-12579182D01*
X37341624Y-12504414D01*
X36958376Y-12504414D01*
X36582493Y-12579182D01*
X36228419Y-12725844D01*
X35909761Y-12938765D01*
X35638765Y-13209761D01*
X35425844Y-13528419D01*
X35279182Y-13882493D01*
X35204414Y-14258376D01*
X35204414Y-14641624D01*
X35279182Y-15017507D01*
X35425844Y-15371581D01*
X35638765Y-15690239D01*
X35909761Y-15961235D01*
X36228419Y-16174156D01*
X36582493Y-16320818D01*
X36958376Y-16395586D01*
X37341624Y-16395586D01*
X37717507Y-16320818D01*
X38071581Y-16174156D01*
X38390239Y-15961235D01*
X38661235Y-15690239D01*
X38665000Y-15684604D01*
X38664999Y-26664999D01*
X-38664999Y-26665001D01*
X-38665000Y-15684604D01*
X-38661235Y-15690239D01*
X-38390239Y-15961235D01*
X-38071581Y-16174156D01*
X-37717507Y-16320818D01*
X-37341624Y-16395586D01*
X-36958376Y-16395586D01*
X-36582493Y-16320818D01*
X-36228419Y-16174156D01*
X-35909761Y-15961235D01*
X-35736738Y-15788212D01*
X-15435000Y-15788212D01*
X-15435000Y-16011788D01*
X-15391383Y-16231067D01*
X-15305824Y-16437624D01*
X-15181612Y-16623520D01*
X-15023520Y-16781612D01*
X-14837624Y-16905824D01*
X-14631067Y-16991383D01*
X-14411788Y-17035000D01*
X-14188212Y-17035000D01*
X-13968933Y-16991383D01*
X-13762376Y-16905824D01*
X-13576480Y-16781612D01*
X-13454868Y-16660000D01*
X-11350558Y-16660000D01*
X-11417205Y-16759744D01*
X-11495226Y-16948102D01*
X-11535000Y-17148061D01*
X-11535000Y-17351939D01*
X-11495226Y-17551898D01*
X-11417205Y-17740256D01*
X-11303937Y-17909774D01*
X-11259999Y-17953712D01*
X-11259999Y-18149792D01*
X-11297375Y-18219717D01*
X-11346488Y-18381623D01*
X-11363072Y-18550000D01*
X-11363072Y-19050000D01*
X-11346488Y-19218377D01*
X-11297375Y-19380283D01*
X-11217618Y-19529497D01*
X-11110284Y-19660284D01*
X-10979497Y-19767618D01*
X-10830283Y-19847375D01*
X-10668377Y-19896488D01*
X-10500000Y-19913072D01*
X-10050000Y-19913072D01*
X-9881623Y-19896488D01*
X-9719717Y-19847375D01*
X-9573649Y-19769300D01*
X-9529494Y-19805537D01*
X-9419180Y-19864502D01*
X-9299482Y-19900812D01*
X-9175000Y-19913072D01*
X-9010750Y-19910000D01*
X-8852000Y-19751250D01*
X-8852000Y-18927000D01*
X-8598000Y-18927000D01*
X-8598000Y-19751250D01*
X-8439250Y-19910000D01*
X-8275000Y-19913072D01*
X-8150518Y-19900812D01*
X-8030820Y-19864502D01*
X-8000000Y-19848028D01*
X-7969180Y-19864502D01*
X-7849482Y-19900812D01*
X-7725000Y-19913072D01*
X-7560750Y-19910000D01*
X-7402000Y-19751250D01*
X-7402000Y-18927000D01*
X-8598000Y-18927000D01*
X-8852000Y-18927000D01*
X-8872000Y-18927000D01*
X-8872000Y-18673000D01*
X-8852000Y-18673000D01*
X-8852000Y-17848750D01*
X-8598000Y-17848750D01*
X-8598000Y-18673000D01*
X-7402000Y-18673000D01*
X-7402000Y-17848750D01*
X-7148000Y-17848750D01*
X-7148000Y-18673000D01*
X-7128000Y-18673000D01*
X-7128000Y-18927000D01*
X-7148000Y-18927000D01*
X-7148000Y-19751250D01*
X-6989250Y-19910000D01*
X-6825000Y-19913072D01*
X-6700518Y-19900812D01*
X-6580820Y-19864502D01*
X-6470506Y-19805537D01*
X-6426351Y-19769300D01*
X-6280283Y-19847375D01*
X-6118377Y-19896488D01*
X-5950000Y-19913072D01*
X-5500000Y-19913072D01*
X-5331623Y-19896488D01*
X-5169717Y-19847375D01*
X-5020503Y-19767618D01*
X-4889716Y-19660284D01*
X-4782382Y-19529497D01*
X-4702625Y-19380283D01*
X-4653512Y-19218377D01*
X-4636928Y-19050000D01*
X-4636928Y-18550000D01*
X-4653512Y-18381623D01*
X-4702625Y-18219717D01*
X-4740000Y-18149794D01*
X-4740000Y-17953711D01*
X-4696063Y-17909774D01*
X-4582795Y-17740256D01*
X-4504774Y-17551898D01*
X-4465000Y-17351939D01*
X-4465000Y-17148061D01*
X-4504774Y-16948102D01*
X-4582795Y-16759744D01*
X-4696063Y-16590226D01*
X-4840226Y-16446063D01*
X-5009744Y-16332795D01*
X-5198102Y-16254774D01*
X-5398061Y-16215000D01*
X-5601939Y-16215000D01*
X-5801898Y-16254774D01*
X-5990256Y-16332795D01*
X-6159774Y-16446063D01*
X-6303937Y-16590226D01*
X-6417205Y-16759744D01*
X-6495226Y-16948102D01*
X-6535000Y-17148061D01*
X-6535000Y-17351939D01*
X-6495226Y-17551898D01*
X-6417205Y-17740256D01*
X-6375083Y-17803297D01*
X-6426351Y-17830700D01*
X-6470506Y-17794463D01*
X-6580820Y-17735498D01*
X-6700518Y-17699188D01*
X-6825000Y-17686928D01*
X-6989250Y-17690000D01*
X-7148000Y-17848750D01*
X-7402000Y-17848750D01*
X-7560750Y-17690000D01*
X-7725000Y-17686928D01*
X-7849482Y-17699188D01*
X-7969180Y-17735498D01*
X-8000000Y-17751972D01*
X-8030820Y-17735498D01*
X-8150518Y-17699188D01*
X-8275000Y-17686928D01*
X-8439250Y-17690000D01*
X-8598000Y-17848750D01*
X-8852000Y-17848750D01*
X-9010750Y-17690000D01*
X-9175000Y-17686928D01*
X-9299482Y-17699188D01*
X-9419180Y-17735498D01*
X-9529494Y-17794463D01*
X-9573649Y-17830700D01*
X-9624917Y-17803297D01*
X-9582795Y-17740256D01*
X-9504774Y-17551898D01*
X-9465000Y-17351939D01*
X-9465000Y-17148061D01*
X-9504774Y-16948102D01*
X-9582795Y-16759744D01*
X-9649442Y-16660000D01*
X-7537322Y-16660000D01*
X-7500000Y-16663676D01*
X-7462678Y-16660000D01*
X-7462667Y-16660000D01*
X-7351014Y-16649003D01*
X-7207753Y-16605546D01*
X-7075724Y-16534974D01*
X-6959999Y-16440001D01*
X-6936196Y-16410997D01*
X-4000199Y-13475000D01*
X-2063072Y-13475000D01*
X-2050812Y-13599482D01*
X-2014502Y-13719180D01*
X-1955537Y-13829494D01*
X-1876185Y-13926185D01*
X-1779494Y-14005537D01*
X-1669180Y-14064502D01*
X-1549482Y-14100812D01*
X-1425000Y-14113072D01*
X-1260750Y-14110000D01*
X-1102000Y-13951250D01*
X-1102000Y-13127000D01*
X-1901250Y-13127000D01*
X-2060000Y-13285750D01*
X-2063072Y-13475000D01*
X-4000199Y-13475000D01*
X-3688996Y-13163798D01*
X-3659999Y-13140001D01*
X-3565026Y-13024276D01*
X-3494454Y-12892247D01*
X-3450997Y-12748986D01*
X-3440000Y-12637333D01*
X-3440000Y-12637325D01*
X-3436324Y-12600000D01*
X-3440000Y-12562675D01*
X-3440000Y-6837325D01*
X-3436324Y-6800000D01*
X-3440000Y-6762675D01*
X-3440000Y-6762667D01*
X-3450997Y-6651014D01*
X-3494454Y-6507753D01*
X-3565026Y-6375724D01*
X-3659999Y-6259999D01*
X-3688997Y-6236201D01*
X-4690000Y-5235199D01*
X-4690000Y-5173061D01*
X-4729774Y-4973102D01*
X-4807795Y-4784744D01*
X-4921063Y-4615226D01*
X-5065226Y-4471063D01*
X-5234744Y-4357795D01*
X-5335000Y-4316267D01*
X-5335000Y-4292976D01*
X-5289742Y-4237829D01*
X-5216916Y-4101582D01*
X-5172071Y-3953745D01*
X-5156928Y-3800000D01*
X-5156928Y-2150000D01*
X-5172071Y-1996255D01*
X-5216916Y-1848418D01*
X-5289742Y-1712171D01*
X-5387749Y-1592749D01*
X-5507171Y-1494742D01*
X-5643418Y-1421916D01*
X-5791255Y-1377071D01*
X-5945000Y-1361928D01*
X-6245000Y-1361928D01*
X-6398745Y-1377071D01*
X-6546582Y-1421916D01*
X-6682829Y-1494742D01*
X-6730000Y-1533454D01*
X-6777171Y-1494742D01*
X-6913418Y-1421916D01*
X-7061255Y-1377071D01*
X-7215000Y-1361928D01*
X-7515000Y-1361928D01*
X-7668745Y-1377071D01*
X-7816582Y-1421916D01*
X-7952829Y-1494742D01*
X-8000000Y-1533454D01*
X-8047171Y-1494742D01*
X-8183418Y-1421916D01*
X-8331255Y-1377071D01*
X-8485000Y-1361928D01*
X-8785000Y-1361928D01*
X-8938745Y-1377071D01*
X-9086582Y-1421916D01*
X-9222829Y-1494742D01*
X-9270000Y-1533454D01*
X-9317171Y-1494742D01*
X-9453418Y-1421916D01*
X-9601255Y-1377071D01*
X-9755000Y-1361928D01*
X-10055000Y-1361928D01*
X-10208745Y-1377071D01*
X-10356582Y-1421916D01*
X-10492829Y-1494742D01*
X-10612251Y-1592749D01*
X-10710258Y-1712171D01*
X-10783084Y-1848418D01*
X-10827929Y-1996255D01*
X-10843072Y-2150000D01*
X-10843072Y-3800000D01*
X-10827929Y-3953745D01*
X-10783084Y-4101582D01*
X-10710258Y-4237829D01*
X-10664999Y-4292977D01*
X-10664999Y-4316267D01*
X-10765256Y-4357795D01*
X-10934774Y-4471063D01*
X-11078937Y-4615226D01*
X-11192205Y-4784744D01*
X-11270226Y-4973102D01*
X-11310000Y-5173061D01*
X-11310000Y-5376939D01*
X-11270226Y-5576898D01*
X-11192205Y-5765256D01*
X-11127000Y-5862842D01*
X-11127000Y-10174164D01*
X-11159774Y-10196063D01*
X-11303937Y-10340226D01*
X-11417205Y-10509744D01*
X-11495226Y-10698102D01*
X-11535000Y-10898061D01*
X-11535000Y-11101939D01*
X-11495226Y-11301898D01*
X-11417205Y-11490256D01*
X-11303937Y-11659774D01*
X-11159774Y-11803937D01*
X-10990256Y-11917205D01*
X-10801898Y-11995226D01*
X-10601939Y-12035000D01*
X-10398061Y-12035000D01*
X-10198102Y-11995226D01*
X-10009744Y-11917205D01*
X-9840226Y-11803937D01*
X-9696063Y-11659774D01*
X-9582795Y-11490256D01*
X-9504774Y-11301898D01*
X-9465000Y-11101939D01*
X-9465000Y-11039801D01*
X-8123997Y-9698799D01*
X-8094999Y-9675001D01*
X-8000026Y-9559276D01*
X-8000000Y-9559227D01*
X-7999974Y-9559276D01*
X-7936851Y-9636191D01*
X-7905000Y-9675001D01*
X-7876002Y-9698799D01*
X-6535000Y-11039802D01*
X-6535000Y-11101939D01*
X-6495226Y-11301898D01*
X-6417205Y-11490256D01*
X-6303937Y-11659774D01*
X-6259999Y-11703712D01*
X-6260000Y-12585197D01*
X-7839801Y-14165000D01*
X-11854868Y-14165000D01*
X-11976480Y-14043388D01*
X-12162376Y-13919176D01*
X-12368933Y-13833617D01*
X-12588212Y-13790000D01*
X-12811788Y-13790000D01*
X-13031067Y-13833617D01*
X-13237624Y-13919176D01*
X-13423520Y-14043388D01*
X-13581612Y-14201480D01*
X-13705824Y-14387376D01*
X-13791383Y-14593933D01*
X-13835000Y-14813212D01*
X-13835000Y-14864094D01*
X-13968933Y-14808617D01*
X-14188212Y-14765000D01*
X-14411788Y-14765000D01*
X-14631067Y-14808617D01*
X-14837624Y-14894176D01*
X-15023520Y-15018388D01*
X-15181612Y-15176480D01*
X-15305824Y-15362376D01*
X-15391383Y-15568933D01*
X-15435000Y-15788212D01*
X-35736738Y-15788212D01*
X-35638765Y-15690239D01*
X-35425844Y-15371581D01*
X-35279182Y-15017507D01*
X-35204414Y-14641624D01*
X-35204414Y-14258376D01*
X-35279182Y-13882493D01*
X-35425844Y-13528419D01*
X-35638765Y-13209761D01*
X-35909761Y-12938765D01*
X-36228419Y-12725844D01*
X-36582493Y-12579182D01*
X-36958376Y-12504414D01*
X-37341624Y-12504414D01*
X-37717507Y-12579182D01*
X-38071581Y-12725844D01*
X-38390239Y-12938765D01*
X-38661235Y-13209761D01*
X-38665000Y-13215396D01*
X-38665001Y-2235000D01*
X-34936105Y-2235000D01*
X-34900000Y-2238556D01*
X-34863895Y-2235000D01*
X-34755915Y-2224365D01*
X-34617367Y-2182337D01*
X-34489680Y-2114087D01*
X-34377762Y-2022238D01*
X-34285913Y-1910320D01*
X-34217663Y-1782633D01*
X-34175635Y-1644085D01*
X-34161444Y-1500000D01*
X-34165000Y-1463894D01*
X-34165000Y11400000D01*
X-31138556Y11400000D01*
X-31134999Y11363885D01*
X-31135000Y3436105D01*
X-31138556Y3400000D01*
X-31124365Y3255915D01*
X-31082337Y3117367D01*
X-31014087Y2989680D01*
X-30922238Y2877762D01*
X-30833521Y2804954D01*
X-30810320Y2785913D01*
X-30682633Y2717663D01*
X-30544085Y2675635D01*
X-30400000Y2661444D01*
X-30363895Y2665000D01*
X-21436105Y2665000D01*
X-21400000Y2661444D01*
X-21363895Y2665000D01*
X-21255915Y2675635D01*
X-21117367Y2717663D01*
X-20989680Y2785913D01*
X-20877762Y2877762D01*
X-20785913Y2989680D01*
X-20717663Y3117367D01*
X-20675635Y3255915D01*
X-20661444Y3400000D01*
X-20665000Y3436105D01*
X-20665000Y6100000D01*
X-12789281Y6100000D01*
X-12785000Y6056531D01*
X-12784999Y3443479D01*
X-12789281Y3400000D01*
X-12772195Y3226510D01*
X-12721588Y3059687D01*
X-12639410Y2905941D01*
X-12556532Y2804954D01*
X-12556529Y2804951D01*
X-12528816Y2771183D01*
X-12495049Y2743471D01*
X-11131530Y1379951D01*
X-11103817Y1346183D01*
X-11070049Y1318470D01*
X-11070047Y1318468D01*
X-11040786Y1294454D01*
X-10969059Y1235589D01*
X-10843072Y1168248D01*
X-10843072Y1150000D01*
X-10827929Y996255D01*
X-10783084Y848418D01*
X-10710258Y712171D01*
X-10612251Y592749D01*
X-10492829Y494742D01*
X-10356582Y421916D01*
X-10208745Y377071D01*
X-10055000Y361928D01*
X-9755000Y361928D01*
X-9601255Y377071D01*
X-9453418Y421916D01*
X-9317171Y494742D01*
X-9270000Y533454D01*
X-9222829Y494742D01*
X-9086582Y421916D01*
X-8938745Y377071D01*
X-8785000Y361928D01*
X-8485000Y361928D01*
X-8331255Y377071D01*
X-8183418Y421916D01*
X-8047171Y494742D01*
X-8000000Y533454D01*
X-7952829Y494742D01*
X-7816582Y421916D01*
X-7668745Y377071D01*
X-7515000Y361928D01*
X-7215000Y361928D01*
X-7061255Y377071D01*
X-6913418Y421916D01*
X-6777171Y494742D01*
X-6730000Y533454D01*
X-6682829Y494742D01*
X-6546582Y421916D01*
X-6398745Y377071D01*
X-6245000Y361928D01*
X-5945000Y361928D01*
X-5791255Y377071D01*
X-5758565Y386987D01*
X-1109990Y-4261589D01*
X-1109989Y-9886928D01*
X-1225000Y-9886928D01*
X-1388500Y-9903031D01*
X-1545716Y-9950722D01*
X-1690608Y-10028169D01*
X-1817606Y-10132394D01*
X-1921831Y-10259392D01*
X-1999278Y-10404284D01*
X-2046969Y-10561500D01*
X-2063072Y-10725000D01*
X-2063072Y-11275000D01*
X-2046969Y-11438500D01*
X-1999278Y-11595716D01*
X-1921831Y-11740608D01*
X-1817606Y-11867606D01*
X-1708966Y-11956765D01*
X-1779494Y-11994463D01*
X-1876185Y-12073815D01*
X-1955537Y-12170506D01*
X-2014502Y-12280820D01*
X-2050812Y-12400518D01*
X-2063072Y-12525000D01*
X-2060000Y-12714250D01*
X-1901250Y-12873000D01*
X-1102000Y-12873000D01*
X-1102000Y-12853000D01*
X-848000Y-12853000D01*
X-848000Y-12873000D01*
X-828000Y-12873000D01*
X-828000Y-13127000D01*
X-848000Y-13127000D01*
X-848000Y-13951250D01*
X-689250Y-14110000D01*
X-525000Y-14113072D01*
X-400518Y-14100812D01*
X-335000Y-14080937D01*
X-335000Y-14192089D01*
X-299068Y-14372729D01*
X-228586Y-14542889D01*
X-126262Y-14696028D01*
X3972Y-14826262D01*
X157111Y-14928586D01*
X327271Y-14999068D01*
X507911Y-15035000D01*
X692089Y-15035000D01*
X872729Y-14999068D01*
X1042889Y-14928586D01*
X1196028Y-14826262D01*
X1326262Y-14696028D01*
X1428586Y-14542889D01*
X1499068Y-14372729D01*
X1535000Y-14192089D01*
X1535000Y-14007911D01*
X1499068Y-13827271D01*
X1478375Y-13777314D01*
X1517618Y-13729497D01*
X1597375Y-13580283D01*
X1629311Y-13475000D01*
X1736928Y-13475000D01*
X1749188Y-13599482D01*
X1785498Y-13719180D01*
X1844463Y-13829494D01*
X1923815Y-13926185D01*
X2020506Y-14005537D01*
X2130820Y-14064502D01*
X2250518Y-14100812D01*
X2375000Y-14113072D01*
X2539250Y-14110000D01*
X2698000Y-13951250D01*
X2698000Y-13127000D01*
X1898750Y-13127000D01*
X1740000Y-13285750D01*
X1736928Y-13475000D01*
X1629311Y-13475000D01*
X1646488Y-13418377D01*
X1663072Y-13250000D01*
X1663072Y-12750000D01*
X1650957Y-12627000D01*
X1738584Y-12627000D01*
X1740000Y-12714250D01*
X1898750Y-12873000D01*
X2698000Y-12873000D01*
X2698000Y-12853000D01*
X2952000Y-12853000D01*
X2952000Y-12873000D01*
X2972000Y-12873000D01*
X2972000Y-13127000D01*
X2952000Y-13127000D01*
X2952000Y-13951250D01*
X3110750Y-14110000D01*
X3275000Y-14113072D01*
X3399482Y-14100812D01*
X3465000Y-14080937D01*
X3465000Y-14192089D01*
X3500932Y-14372729D01*
X3571414Y-14542889D01*
X3673738Y-14696028D01*
X3803972Y-14826262D01*
X3957111Y-14928586D01*
X4127271Y-14999068D01*
X4307911Y-15035000D01*
X4492089Y-15035000D01*
X4672729Y-14999068D01*
X4842889Y-14928586D01*
X4996028Y-14826262D01*
X5126262Y-14696028D01*
X5228586Y-14542889D01*
X5299068Y-14372729D01*
X5335000Y-14192089D01*
X5335000Y-14007911D01*
X5299068Y-13827271D01*
X5278375Y-13777314D01*
X5317618Y-13729497D01*
X5397375Y-13580283D01*
X5429311Y-13475000D01*
X5536928Y-13475000D01*
X5549188Y-13599482D01*
X5585498Y-13719180D01*
X5644463Y-13829494D01*
X5723815Y-13926185D01*
X5820506Y-14005537D01*
X5930820Y-14064502D01*
X6050518Y-14100812D01*
X6175000Y-14113072D01*
X6339250Y-14110000D01*
X6498000Y-13951250D01*
X6498000Y-13127000D01*
X5698750Y-13127000D01*
X5540000Y-13285750D01*
X5536928Y-13475000D01*
X5429311Y-13475000D01*
X5446488Y-13418377D01*
X5463072Y-13250000D01*
X5463072Y-12750000D01*
X5450957Y-12627000D01*
X5538584Y-12627000D01*
X5540000Y-12714250D01*
X5698750Y-12873000D01*
X6498000Y-12873000D01*
X6498000Y-12853000D01*
X6752000Y-12853000D01*
X6752000Y-12873000D01*
X6772000Y-12873000D01*
X6772000Y-13127000D01*
X6752000Y-13127000D01*
X6752000Y-13951250D01*
X6910750Y-14110000D01*
X7075000Y-14113072D01*
X7199482Y-14100812D01*
X7319180Y-14064502D01*
X7365000Y-14040010D01*
X7365000Y-14092089D01*
X7400932Y-14272729D01*
X7471414Y-14442889D01*
X7573738Y-14596028D01*
X7703972Y-14726262D01*
X7857111Y-14828586D01*
X8027271Y-14899068D01*
X8207911Y-14935000D01*
X8392089Y-14935000D01*
X8572729Y-14899068D01*
X8742889Y-14828586D01*
X8896028Y-14726262D01*
X9026262Y-14596028D01*
X9128586Y-14442889D01*
X9199068Y-14272729D01*
X9235000Y-14092089D01*
X9235000Y-13907911D01*
X9199068Y-13727271D01*
X9164027Y-13642673D01*
X9197375Y-13580283D01*
X9246488Y-13418377D01*
X9263072Y-13250000D01*
X9263072Y-12750000D01*
X9246488Y-12581623D01*
X9197375Y-12419717D01*
X9117618Y-12270503D01*
X9010284Y-12139716D01*
X8935000Y-12077932D01*
X8935000Y-11935399D01*
X9017606Y-11867606D01*
X9121831Y-11740608D01*
X9199278Y-11595716D01*
X9246969Y-11438500D01*
X9263072Y-11275000D01*
X9263072Y-10725000D01*
X9246969Y-10561500D01*
X9199278Y-10404284D01*
X9121831Y-10259392D01*
X9017606Y-10132394D01*
X8890608Y-10028169D01*
X8745716Y-9950722D01*
X8588500Y-9903031D01*
X8425000Y-9886928D01*
X8025000Y-9886928D01*
X7861500Y-9903031D01*
X7704284Y-9950722D01*
X7559392Y-10028169D01*
X7432394Y-10132394D01*
X7400000Y-10171866D01*
X7367606Y-10132394D01*
X7240608Y-10028169D01*
X7095716Y-9950722D01*
X6938500Y-9903031D01*
X6775000Y-9886928D01*
X6536729Y-9886928D01*
X6338793Y-9688992D01*
X6314991Y-9659989D01*
X6199266Y-9565016D01*
X6067237Y-9494444D01*
X5923976Y-9450987D01*
X5812323Y-9439990D01*
X5812312Y-9439990D01*
X5774990Y-9436314D01*
X5737668Y-9439990D01*
X3687332Y-9439990D01*
X3650010Y-9436314D01*
X3612687Y-9439990D01*
X3612677Y-9439990D01*
X3501024Y-9450987D01*
X3357763Y-9494444D01*
X3225733Y-9565016D01*
X3207751Y-9579774D01*
X3110009Y-9659989D01*
X3086211Y-9688988D01*
X2888270Y-9886928D01*
X2736729Y-9886928D01*
X2538793Y-9688992D01*
X2514991Y-9659989D01*
X2399266Y-9565016D01*
X2373615Y-9551305D01*
X2296038Y-9473728D01*
X2142899Y-9371404D01*
X1972739Y-9300922D01*
X1792099Y-9264990D01*
X1607921Y-9264990D01*
X1427281Y-9300922D01*
X1257121Y-9371404D01*
X1154475Y-9439990D01*
X660010Y-9439990D01*
X660010Y-6648061D01*
X1965000Y-6648061D01*
X1965000Y-6851939D01*
X2004774Y-7051898D01*
X2082795Y-7240256D01*
X2196063Y-7409774D01*
X2340226Y-7553937D01*
X2509744Y-7667205D01*
X2698102Y-7745226D01*
X2898061Y-7785000D01*
X2960199Y-7785000D01*
X4186200Y-9011002D01*
X4209999Y-9040001D01*
X4325724Y-9134974D01*
X4457753Y-9205546D01*
X4601014Y-9249003D01*
X4712667Y-9260000D01*
X4712675Y-9260000D01*
X4750000Y-9263676D01*
X4787325Y-9260000D01*
X9935199Y-9260000D01*
X12326847Y-11651649D01*
X12350932Y-11772729D01*
X12421414Y-11942889D01*
X12523738Y-12096028D01*
X12653972Y-12226262D01*
X12807111Y-12328586D01*
X12977271Y-12399068D01*
X13157911Y-12435000D01*
X13342089Y-12435000D01*
X13522729Y-12399068D01*
X13692889Y-12328586D01*
X13825306Y-12240108D01*
X17420000Y-15834802D01*
X17420000Y-15896939D01*
X17459774Y-16096898D01*
X17537795Y-16285256D01*
X17651063Y-16454774D01*
X17795226Y-16598937D01*
X17964744Y-16712205D01*
X18153102Y-16790226D01*
X18353061Y-16830000D01*
X18556939Y-16830000D01*
X18756898Y-16790226D01*
X18945256Y-16712205D01*
X19114774Y-16598937D01*
X19258937Y-16454774D01*
X19372205Y-16285256D01*
X19450226Y-16096898D01*
X19490000Y-15896939D01*
X19490000Y-15693061D01*
X19450226Y-15493102D01*
X19372205Y-15304744D01*
X19258937Y-15135226D01*
X19114774Y-14991063D01*
X18945256Y-14877795D01*
X18756898Y-14799774D01*
X18556939Y-14760000D01*
X18494802Y-14760000D01*
X14207863Y-10473061D01*
X16040000Y-10473061D01*
X16040000Y-10676939D01*
X16079774Y-10876898D01*
X16157795Y-11065256D01*
X16271063Y-11234774D01*
X16415226Y-11378937D01*
X16584744Y-11492205D01*
X16773102Y-11570226D01*
X16973061Y-11610000D01*
X17176939Y-11610000D01*
X17376898Y-11570226D01*
X17565256Y-11492205D01*
X17734774Y-11378937D01*
X17778711Y-11335000D01*
X21121289Y-11335000D01*
X21165226Y-11378937D01*
X21334744Y-11492205D01*
X21523102Y-11570226D01*
X21723061Y-11610000D01*
X21926939Y-11610000D01*
X22126898Y-11570226D01*
X22315256Y-11492205D01*
X22484774Y-11378937D01*
X22628937Y-11234774D01*
X22742205Y-11065256D01*
X22820226Y-10876898D01*
X22860000Y-10676939D01*
X22860000Y-10473061D01*
X22820226Y-10273102D01*
X22742205Y-10084744D01*
X22628937Y-9915226D01*
X22484774Y-9771063D01*
X22315256Y-9657795D01*
X22126898Y-9579774D01*
X21926939Y-9540000D01*
X21723061Y-9540000D01*
X21523102Y-9579774D01*
X21334744Y-9657795D01*
X21165226Y-9771063D01*
X21121289Y-9815000D01*
X17778711Y-9815000D01*
X17734774Y-9771063D01*
X17565256Y-9657795D01*
X17376898Y-9579774D01*
X17176939Y-9540000D01*
X16973061Y-9540000D01*
X16773102Y-9579774D01*
X16584744Y-9657795D01*
X16415226Y-9771063D01*
X16271063Y-9915226D01*
X16157795Y-10084744D01*
X16079774Y-10273102D01*
X16040000Y-10473061D01*
X14207863Y-10473061D01*
X11223804Y-7489003D01*
X11200001Y-7459999D01*
X11084276Y-7365026D01*
X10952247Y-7294454D01*
X10808986Y-7250997D01*
X10697333Y-7240000D01*
X10697322Y-7240000D01*
X10660000Y-7236324D01*
X10622678Y-7240000D01*
X5590107Y-7240000D01*
X5180109Y-6830003D01*
X5180109Y-6767865D01*
X5140335Y-6567906D01*
X5062314Y-6379548D01*
X4949046Y-6210030D01*
X4804883Y-6065867D01*
X4635365Y-5952599D01*
X4447007Y-5874578D01*
X4247048Y-5834804D01*
X4043170Y-5834804D01*
X3843211Y-5874578D01*
X3662954Y-5949243D01*
X3659774Y-5946063D01*
X3490256Y-5832795D01*
X3301898Y-5754774D01*
X3101939Y-5715000D01*
X2898061Y-5715000D01*
X2698102Y-5754774D01*
X2509744Y-5832795D01*
X2340226Y-5946063D01*
X2196063Y-6090226D01*
X2082795Y-6259744D01*
X2004774Y-6448102D01*
X1965000Y-6648061D01*
X660010Y-6648061D01*
X660010Y-3938479D01*
X664291Y-3895010D01*
X660010Y-3851541D01*
X660010Y-3851533D01*
X647205Y-3721520D01*
X596599Y-3554697D01*
X514421Y-3400951D01*
X431542Y-3299963D01*
X431540Y-3299961D01*
X403827Y-3266193D01*
X370061Y-3238482D01*
X259942Y-3128363D01*
X11265000Y-3128363D01*
X11265000Y-3371637D01*
X11312460Y-3610236D01*
X11405557Y-3834992D01*
X11540713Y-4037267D01*
X11712733Y-4209287D01*
X11915008Y-4344443D01*
X12139764Y-4437540D01*
X12378363Y-4485000D01*
X12621637Y-4485000D01*
X12860236Y-4437540D01*
X13084992Y-4344443D01*
X13287267Y-4209287D01*
X13459287Y-4037267D01*
X13594443Y-3834992D01*
X13687540Y-3610236D01*
X13735000Y-3371637D01*
X13735000Y-3128363D01*
X29515000Y-3128363D01*
X29515000Y-3371637D01*
X29562460Y-3610236D01*
X29655557Y-3834992D01*
X29790713Y-4037267D01*
X29962733Y-4209287D01*
X30165008Y-4344443D01*
X30389764Y-4437540D01*
X30628363Y-4485000D01*
X30871637Y-4485000D01*
X31110236Y-4437540D01*
X31334992Y-4344443D01*
X31537267Y-4209287D01*
X31709287Y-4037267D01*
X31844443Y-3834992D01*
X31937540Y-3610236D01*
X31985000Y-3371637D01*
X31985000Y-3128363D01*
X31937540Y-2889764D01*
X31844443Y-2665008D01*
X31709287Y-2462733D01*
X31537267Y-2290713D01*
X31334992Y-2155557D01*
X31110236Y-2062460D01*
X30871637Y-2015000D01*
X30628363Y-2015000D01*
X30389764Y-2062460D01*
X30165008Y-2155557D01*
X29962733Y-2290713D01*
X29790713Y-2462733D01*
X29655557Y-2665008D01*
X29562460Y-2889764D01*
X29515000Y-3128363D01*
X13735000Y-3128363D01*
X13687540Y-2889764D01*
X13594443Y-2665008D01*
X13459287Y-2462733D01*
X13287267Y-2290713D01*
X13084992Y-2155557D01*
X12860236Y-2062460D01*
X12621637Y-2015000D01*
X12378363Y-2015000D01*
X12139764Y-2062460D01*
X11915008Y-2155557D01*
X11712733Y-2290713D01*
X11540713Y-2462733D01*
X11405557Y-2665008D01*
X11312460Y-2889764D01*
X11265000Y-3128363D01*
X259942Y-3128363D01*
X-2240058Y-628363D01*
X11265000Y-628363D01*
X11265000Y-871637D01*
X11312460Y-1110236D01*
X11405557Y-1334992D01*
X11540713Y-1537267D01*
X11712733Y-1709287D01*
X11915008Y-1844443D01*
X12139764Y-1937540D01*
X12378363Y-1985000D01*
X12621637Y-1985000D01*
X12860236Y-1937540D01*
X13084992Y-1844443D01*
X13287267Y-1709287D01*
X13459287Y-1537267D01*
X13594443Y-1334992D01*
X13687540Y-1110236D01*
X13735000Y-871637D01*
X13735000Y-628363D01*
X29515000Y-628363D01*
X29515000Y-871637D01*
X29562460Y-1110236D01*
X29655557Y-1334992D01*
X29790713Y-1537267D01*
X29962733Y-1709287D01*
X30165008Y-1844443D01*
X30389764Y-1937540D01*
X30628363Y-1985000D01*
X30871637Y-1985000D01*
X31110236Y-1937540D01*
X31334992Y-1844443D01*
X31537267Y-1709287D01*
X31709287Y-1537267D01*
X31844443Y-1334992D01*
X31937540Y-1110236D01*
X31985000Y-871637D01*
X31985000Y-628363D01*
X31937540Y-389764D01*
X31844443Y-165008D01*
X31709287Y37267D01*
X31537267Y209287D01*
X31334992Y344443D01*
X31110236Y437540D01*
X30871637Y485000D01*
X30628363Y485000D01*
X30389764Y437540D01*
X30165008Y344443D01*
X29962733Y209287D01*
X29790713Y37267D01*
X29655557Y-165008D01*
X29562460Y-389764D01*
X29515000Y-628363D01*
X13735000Y-628363D01*
X13687540Y-389764D01*
X13594443Y-165008D01*
X13459287Y37267D01*
X13287267Y209287D01*
X13084992Y344443D01*
X12860236Y437540D01*
X12621637Y485000D01*
X12378363Y485000D01*
X12139764Y437540D01*
X11915008Y344443D01*
X11712733Y209287D01*
X11540713Y37267D01*
X11405557Y-165008D01*
X11312460Y-389764D01*
X11265000Y-628363D01*
X-2240058Y-628363D01*
X-4118421Y1250000D01*
X-1363072Y1250000D01*
X-1363072Y750000D01*
X-1346488Y581623D01*
X-1297375Y419717D01*
X-1217618Y270503D01*
X-1110284Y139716D01*
X-979497Y32382D01*
X-830283Y-47375D01*
X-668377Y-96488D01*
X-500000Y-113072D01*
X-50000Y-113072D01*
X118377Y-96488D01*
X280283Y-47375D01*
X429497Y32382D01*
X500000Y90242D01*
X570503Y32382D01*
X719717Y-47375D01*
X881623Y-96488D01*
X1050000Y-113072D01*
X1500000Y-113072D01*
X1668377Y-96488D01*
X1830283Y-47375D01*
X1979497Y32382D01*
X2110284Y139716D01*
X2217618Y270503D01*
X2297375Y419717D01*
X2346488Y581623D01*
X2363072Y750000D01*
X2363072Y1180798D01*
X2509744Y1082795D01*
X2698102Y1004774D01*
X2898061Y965000D01*
X3101939Y965000D01*
X3301898Y1004774D01*
X3490256Y1082795D01*
X3659774Y1196063D01*
X3713711Y1250000D01*
X16886928Y1250000D01*
X16886928Y750000D01*
X16903512Y581623D01*
X16952625Y419717D01*
X17032382Y270503D01*
X17139716Y139716D01*
X17270503Y32382D01*
X17419717Y-47375D01*
X17581623Y-96488D01*
X17750000Y-113072D01*
X18200000Y-113072D01*
X18368377Y-96488D01*
X18530283Y-47375D01*
X18679497Y32382D01*
X18750000Y90242D01*
X18820503Y32382D01*
X18969717Y-47375D01*
X19131623Y-96488D01*
X19300000Y-113072D01*
X19750000Y-113072D01*
X19918377Y-96488D01*
X20080283Y-47375D01*
X20229497Y32382D01*
X20360284Y139716D01*
X20467618Y270503D01*
X20547375Y419717D01*
X20596488Y581623D01*
X20613072Y750000D01*
X20613072Y1180798D01*
X20759744Y1082795D01*
X20948102Y1004774D01*
X21148061Y965000D01*
X21351939Y965000D01*
X21551898Y1004774D01*
X21740256Y1082795D01*
X21909774Y1196063D01*
X22053937Y1340226D01*
X22167205Y1509744D01*
X22245226Y1698102D01*
X22285000Y1898061D01*
X22285000Y2101939D01*
X22245226Y2301898D01*
X22167205Y2490256D01*
X22053937Y2659774D01*
X21909774Y2803937D01*
X21740256Y2917205D01*
X21551898Y2995226D01*
X21351939Y3035000D01*
X21216871Y3035000D01*
X21142206Y3215257D01*
X21028938Y3384775D01*
X20884775Y3528938D01*
X20715257Y3642206D01*
X20526899Y3720227D01*
X20326940Y3760001D01*
X20123062Y3760001D01*
X19923103Y3720227D01*
X19734745Y3642206D01*
X19565227Y3528938D01*
X19521290Y3485001D01*
X18512323Y3485001D01*
X18475000Y3488677D01*
X18437677Y3485001D01*
X18437668Y3485001D01*
X18326015Y3474004D01*
X18182754Y3430547D01*
X18050725Y3359975D01*
X17935000Y3265002D01*
X17911197Y3235998D01*
X17464003Y2788804D01*
X17434999Y2765001D01*
X17386206Y2705546D01*
X17340026Y2649276D01*
X17294337Y2563799D01*
X17269454Y2517246D01*
X17225997Y2373985D01*
X17215000Y2262332D01*
X17215000Y2262322D01*
X17211324Y2225000D01*
X17215000Y2187677D01*
X17215000Y1922068D01*
X17139716Y1860284D01*
X17032382Y1729497D01*
X16952625Y1580283D01*
X16903512Y1418377D01*
X16886928Y1250000D01*
X3713711Y1250000D01*
X3803937Y1340226D01*
X3917205Y1509744D01*
X3995226Y1698102D01*
X4035000Y1898061D01*
X4035000Y2101939D01*
X3995226Y2301898D01*
X3917205Y2490256D01*
X3803937Y2659774D01*
X3659774Y2803937D01*
X3490256Y2917205D01*
X3301898Y2995226D01*
X3101939Y3035000D01*
X2966871Y3035000D01*
X2892206Y3215257D01*
X2778938Y3384775D01*
X2634775Y3528938D01*
X2465257Y3642206D01*
X2276899Y3720227D01*
X2076940Y3760001D01*
X1873062Y3760001D01*
X1673103Y3720227D01*
X1484745Y3642206D01*
X1315227Y3528938D01*
X1271290Y3485001D01*
X262323Y3485001D01*
X225000Y3488677D01*
X187677Y3485001D01*
X187668Y3485001D01*
X76015Y3474004D01*
X-67246Y3430547D01*
X-199275Y3359975D01*
X-315000Y3265002D01*
X-338803Y3235998D01*
X-785997Y2788804D01*
X-815001Y2765001D01*
X-863794Y2705546D01*
X-909974Y2649276D01*
X-955663Y2563799D01*
X-980546Y2517246D01*
X-1024003Y2373985D01*
X-1035000Y2262332D01*
X-1035000Y2262322D01*
X-1038676Y2225000D01*
X-1035000Y2187677D01*
X-1035000Y1922068D01*
X-1110284Y1860284D01*
X-1217618Y1729497D01*
X-1297375Y1580283D01*
X-1346488Y1418377D01*
X-1363072Y1250000D01*
X-4118421Y1250000D01*
X-4843422Y1975000D01*
X-4654951Y2163470D01*
X-4621183Y2191183D01*
X-4593429Y2225000D01*
X-4519311Y2315313D01*
X-4510589Y2325941D01*
X-4428411Y2479687D01*
X-4377805Y2646510D01*
X-4365000Y2776523D01*
X-4365000Y2776533D01*
X-4360719Y2819999D01*
X-4365000Y2863465D01*
X-4365000Y3711928D01*
X-4250000Y3711928D01*
X-4125518Y3724188D01*
X-4005820Y3760498D01*
X-3895506Y3819463D01*
X-3850000Y3856809D01*
X-3804494Y3819463D01*
X-3694180Y3760498D01*
X-3574482Y3724188D01*
X-3450000Y3711928D01*
X-2635750Y3715000D01*
X-2477000Y3873750D01*
X-2477000Y5023000D01*
X-2223000Y5023000D01*
X-2223000Y3873750D01*
X-2064250Y3715000D01*
X-1250000Y3711928D01*
X-1125518Y3724188D01*
X-1005820Y3760498D01*
X-895506Y3819463D01*
X-798815Y3898815D01*
X-719463Y3995506D01*
X-660498Y4105820D01*
X-624188Y4225518D01*
X-611928Y4350000D01*
X-615000Y4864250D01*
X-773750Y5023000D01*
X-2223000Y5023000D01*
X-2477000Y5023000D01*
X-2497000Y5023000D01*
X-2497000Y5277000D01*
X-2477000Y5277000D01*
X-2477000Y6426250D01*
X-2223000Y6426250D01*
X-2223000Y5277000D01*
X-773750Y5277000D01*
X-615000Y5435750D01*
X-611928Y5950000D01*
X-624188Y6074482D01*
X-660498Y6194180D01*
X-719463Y6304494D01*
X-798815Y6401185D01*
X-895506Y6480537D01*
X-1005820Y6539502D01*
X-1125518Y6575812D01*
X-1250000Y6588072D01*
X-2064250Y6585000D01*
X-2223000Y6426250D01*
X-2477000Y6426250D01*
X-2635750Y6585000D01*
X-3450000Y6588072D01*
X-3574482Y6575812D01*
X-3694180Y6539502D01*
X-3804494Y6480537D01*
X-3850000Y6443191D01*
X-3895506Y6480537D01*
X-4005820Y6539502D01*
X-4125518Y6575812D01*
X-4250000Y6588072D01*
X-6450000Y6588072D01*
X-6574482Y6575812D01*
X-6694180Y6539502D01*
X-6804494Y6480537D01*
X-6901185Y6401185D01*
X-6980537Y6304494D01*
X-7039502Y6194180D01*
X-7075812Y6074482D01*
X-7088072Y5950000D01*
X-7088072Y4350000D01*
X-7075812Y4225518D01*
X-7039502Y4105820D01*
X-6980537Y3995506D01*
X-6901185Y3898815D01*
X-6804494Y3819463D01*
X-6694180Y3760498D01*
X-6574482Y3724188D01*
X-6450000Y3711928D01*
X-6134999Y3711928D01*
X-6134999Y3588072D01*
X-6245000Y3588072D01*
X-6398745Y3572929D01*
X-6546582Y3528084D01*
X-6682829Y3455258D01*
X-6730000Y3416546D01*
X-6777171Y3455258D01*
X-6913418Y3528084D01*
X-7061255Y3572929D01*
X-7215000Y3588072D01*
X-7515000Y3588072D01*
X-7668745Y3572929D01*
X-7816582Y3528084D01*
X-7952829Y3455258D01*
X-8000000Y3416546D01*
X-8047171Y3455258D01*
X-8183418Y3528084D01*
X-8331255Y3572929D01*
X-8485000Y3588072D01*
X-8785000Y3588072D01*
X-8938745Y3572929D01*
X-9086582Y3528084D01*
X-9222829Y3455258D01*
X-9270000Y3416546D01*
X-9317171Y3455258D01*
X-9453418Y3528084D01*
X-9601255Y3572929D01*
X-9755000Y3588072D01*
X-10055000Y3588072D01*
X-10208745Y3572929D01*
X-10356582Y3528084D01*
X-10492829Y3455258D01*
X-10608638Y3360216D01*
X-11015000Y3766578D01*
X-11015000Y5733422D01*
X-10282232Y6466190D01*
X-10068933Y6508617D01*
X-9862376Y6594176D01*
X-9676480Y6718388D01*
X-9518388Y6876480D01*
X-9394176Y7062376D01*
X-9308617Y7268933D01*
X-9265000Y7488212D01*
X-9265000Y7711788D01*
X-9308617Y7931067D01*
X-9394176Y8137624D01*
X-9518388Y8323520D01*
X-9676480Y8481612D01*
X-9862376Y8605824D01*
X-10068933Y8691383D01*
X-10288212Y8735000D01*
X-10511788Y8735000D01*
X-10731067Y8691383D01*
X-10937624Y8605824D01*
X-11123520Y8481612D01*
X-11281612Y8323520D01*
X-11405824Y8137624D01*
X-11491383Y7931067D01*
X-11533810Y7717768D01*
X-12495044Y6756534D01*
X-12528817Y6728817D01*
X-12639411Y6594058D01*
X-12721589Y6440312D01*
X-12772195Y6273489D01*
X-12785000Y6143476D01*
X-12785000Y6143469D01*
X-12789281Y6100000D01*
X-20665000Y6100000D01*
X-20665000Y11363895D01*
X-20661444Y11400000D01*
X-20675635Y11544085D01*
X-20717663Y11682633D01*
X-20785913Y11810320D01*
X-20877762Y11922238D01*
X-20989680Y12014087D01*
X-21117367Y12082337D01*
X-21255915Y12124365D01*
X-21363895Y12135000D01*
X-21400000Y12138556D01*
X-21436105Y12135000D01*
X-30363895Y12135000D01*
X-30400000Y12138556D01*
X-30436105Y12135000D01*
X-30544085Y12124365D01*
X-30682633Y12082337D01*
X-30810320Y12014087D01*
X-30922238Y11922238D01*
X-31014087Y11810320D01*
X-31082337Y11682633D01*
X-31124365Y11544085D01*
X-31138556Y11400000D01*
X-34165000Y11400000D01*
X-34165000Y13463896D01*
X-34161444Y13499999D01*
X-34175635Y13644084D01*
X-34217663Y13782632D01*
X-34285913Y13910319D01*
X-34377762Y14022237D01*
X-34489680Y14114086D01*
X-34617367Y14182336D01*
X-34755915Y14224364D01*
X-34863895Y14234999D01*
X-34900000Y14238555D01*
X-34936105Y14234999D01*
X-38665001Y14234999D01*
X-38665000Y19215395D01*
X-38661235Y19209760D01*
X-38390239Y18938764D01*
X-38071581Y18725843D01*
X-37717507Y18579181D01*
X-37341624Y18504413D01*
X-36958376Y18504413D01*
X-36582493Y18579181D01*
X-36228419Y18725843D01*
X-35909761Y18938764D01*
X-35638765Y19209760D01*
X-35611720Y19250236D01*
X-27770159Y19250236D01*
X-27722852Y19026652D01*
X-27501484Y18925763D01*
X-27264687Y18870000D01*
X-27021562Y18861505D01*
X-26781451Y18900605D01*
X-26553582Y18985798D01*
X-26477148Y19026652D01*
X-26429841Y19250236D01*
X-27100000Y19920395D01*
X-27770159Y19250236D01*
X-35611720Y19250236D01*
X-35425844Y19528418D01*
X-35279182Y19882492D01*
X-35251520Y20021562D01*
X-28338495Y20021562D01*
X-28299395Y19781451D01*
X-28214202Y19553582D01*
X-28173348Y19477148D01*
X-27949764Y19429841D01*
X-27279605Y20100000D01*
X-26920395Y20100000D01*
X-26250236Y19429841D01*
X-26026652Y19477148D01*
X-25925763Y19698516D01*
X-25870000Y19935313D01*
X-25861505Y20178438D01*
X-25868539Y20221637D01*
X-25835000Y20221637D01*
X-25835000Y19978363D01*
X-25787540Y19739764D01*
X-25694443Y19515008D01*
X-25559287Y19312733D01*
X-25387267Y19140713D01*
X-25184992Y19005557D01*
X-24960236Y18912460D01*
X-24721637Y18865000D01*
X-24478363Y18865000D01*
X-24239764Y18912460D01*
X-24015008Y19005557D01*
X-23812733Y19140713D01*
X-23640713Y19312733D01*
X-23505557Y19515008D01*
X-23412460Y19739764D01*
X-23365000Y19978363D01*
X-23365000Y20221637D01*
X-23335000Y20221637D01*
X-23335000Y19978363D01*
X-23287540Y19739764D01*
X-23194443Y19515008D01*
X-23059287Y19312733D01*
X-22887267Y19140713D01*
X-22684992Y19005557D01*
X-22558147Y18953016D01*
X-19991991Y16386859D01*
X-19956449Y16343551D01*
X-19783623Y16201716D01*
X-19724973Y16170367D01*
X-19082382Y15527776D01*
X-19177815Y15432342D01*
X-19207763Y15407764D01*
X-19232341Y15377816D01*
X-19232345Y15377812D01*
X-19258186Y15346324D01*
X-19305861Y15288233D01*
X-19337539Y15228967D01*
X-19378754Y15151859D01*
X-19423641Y15003886D01*
X-19438797Y14850000D01*
X-19434999Y14811437D01*
X-19435000Y12578711D01*
X-19453937Y12559774D01*
X-19567205Y12390256D01*
X-19645226Y12201898D01*
X-19685000Y12001939D01*
X-19685000Y11798061D01*
X-19645226Y11598102D01*
X-19567205Y11409744D01*
X-19453937Y11240226D01*
X-19309774Y11096063D01*
X-19140256Y10982795D01*
X-18951898Y10904774D01*
X-18751939Y10865000D01*
X-18548061Y10865000D01*
X-18348102Y10904774D01*
X-18159744Y10982795D01*
X-17990226Y11096063D01*
X-17846063Y11240226D01*
X-17732795Y11409744D01*
X-17654774Y11598102D01*
X-17615000Y11798061D01*
X-17615000Y12001939D01*
X-17654774Y12201898D01*
X-17732795Y12390256D01*
X-17846063Y12559774D01*
X-17865000Y12578711D01*
X-17865000Y13050000D01*
X-17788072Y13050000D01*
X-17775812Y12925518D01*
X-17739502Y12805820D01*
X-17680537Y12695506D01*
X-17601185Y12598815D01*
X-17504494Y12519463D01*
X-17394180Y12460498D01*
X-17274482Y12424188D01*
X-17150000Y12411928D01*
X-16635750Y12415000D01*
X-16477000Y12573750D01*
X-16477000Y14023000D01*
X-16223000Y14023000D01*
X-16223000Y12573750D01*
X-16064250Y12415000D01*
X-15550000Y12411928D01*
X-15425518Y12424188D01*
X-15305820Y12460498D01*
X-15195506Y12519463D01*
X-15098815Y12598815D01*
X-15019463Y12695506D01*
X-14960498Y12805820D01*
X-14924188Y12925518D01*
X-14911928Y13050000D01*
X-14915000Y13864250D01*
X-15073750Y14023000D01*
X-16223000Y14023000D01*
X-16477000Y14023000D01*
X-17626250Y14023000D01*
X-17785000Y13864250D01*
X-17788072Y13050000D01*
X-17865000Y13050000D01*
X-17865000Y14524843D01*
X-17785636Y14604207D01*
X-17785000Y14435750D01*
X-17626250Y14277000D01*
X-16477000Y14277000D01*
X-16477000Y14297000D01*
X-16223000Y14297000D01*
X-16223000Y14277000D01*
X-15073750Y14277000D01*
X-14915000Y14435750D01*
X-14914947Y14450000D01*
X-14288072Y14450000D01*
X-14275812Y14325518D01*
X-14239502Y14205820D01*
X-14180537Y14095506D01*
X-14101185Y13998815D01*
X-14004494Y13919463D01*
X-13894180Y13860498D01*
X-13774482Y13824188D01*
X-13650000Y13811928D01*
X-13285750Y13815000D01*
X-13127000Y13973750D01*
X-13127000Y14773000D01*
X-14126250Y14773000D01*
X-14285000Y14614250D01*
X-14288072Y14450000D01*
X-14914947Y14450000D01*
X-14911928Y15250000D01*
X-14913405Y15265000D01*
X-14286482Y15265000D01*
X-14285000Y15185750D01*
X-14126250Y15027000D01*
X-13127000Y15027000D01*
X-13127000Y15047000D01*
X-12873000Y15047000D01*
X-12873000Y15027000D01*
X-12853000Y15027000D01*
X-12853000Y14773000D01*
X-12873000Y14773000D01*
X-12873000Y13973750D01*
X-12714250Y13815000D01*
X-12350000Y13811928D01*
X-12225518Y13824188D01*
X-12105820Y13860498D01*
X-11995506Y13919463D01*
X-11898815Y13998815D01*
X-11819463Y14095506D01*
X-11760498Y14205820D01*
X-11724188Y14325518D01*
X-11711928Y14450000D01*
X-11715000Y14614250D01*
X-11873748Y14772998D01*
X-11715000Y14772998D01*
X-11715000Y14895428D01*
X-9050000Y14895428D01*
X-8925518Y14907688D01*
X-8805820Y14943998D01*
X-8695506Y15002963D01*
X-8598815Y15082315D01*
X-8519463Y15179006D01*
X-8513587Y15189999D01*
X-7992201Y15189999D01*
X-7411679Y14609476D01*
X-7411668Y14609467D01*
X-5439057Y12636854D01*
X-5403519Y12593551D01*
X-5360216Y12558013D01*
X-5360214Y12558011D01*
X-5230693Y12451716D01*
X-5033517Y12346324D01*
X-4819569Y12281423D01*
X-4597070Y12259509D01*
X-4541318Y12265000D01*
X4644249Y12265000D01*
X4700000Y12259509D01*
X4755751Y12265000D01*
X4755752Y12265000D01*
X4922499Y12281423D01*
X5136447Y12346324D01*
X5333623Y12451716D01*
X5506449Y12593551D01*
X5541996Y12636865D01*
X10170132Y17265000D01*
X11961928Y17265000D01*
X11961928Y16650000D01*
X11974188Y16525518D01*
X12010498Y16405820D01*
X12069463Y16295506D01*
X12148815Y16198815D01*
X12245506Y16119463D01*
X12355820Y16060498D01*
X12475518Y16024188D01*
X12600000Y16011928D01*
X14200000Y16011928D01*
X14324482Y16024188D01*
X14444180Y16060498D01*
X14554494Y16119463D01*
X14651185Y16198815D01*
X14730537Y16295506D01*
X14789502Y16405820D01*
X14825812Y16525518D01*
X14838072Y16650000D01*
X14838072Y19943797D01*
X23590000Y19943797D01*
X23590000Y19656203D01*
X23646107Y19374134D01*
X23756165Y19108431D01*
X23915944Y18869304D01*
X24119304Y18665944D01*
X24358431Y18506165D01*
X24624134Y18396107D01*
X24906203Y18340000D01*
X25193797Y18340000D01*
X25475866Y18396107D01*
X25741569Y18506165D01*
X25980696Y18665944D01*
X26104201Y18789449D01*
X26719054Y18789449D01*
X26793663Y18542927D01*
X27053439Y18419527D01*
X27332297Y18349177D01*
X27619521Y18334583D01*
X27904074Y18376303D01*
X28175020Y18472735D01*
X28306337Y18542927D01*
X28380946Y18789449D01*
X27550000Y19620395D01*
X26719054Y18789449D01*
X26104201Y18789449D01*
X26184056Y18869304D01*
X26299275Y19041742D01*
X26539449Y18969054D01*
X27370395Y19800000D01*
X27729605Y19800000D01*
X28560551Y18969054D01*
X28807073Y19043663D01*
X28930473Y19303439D01*
X29000823Y19582297D01*
X29015417Y19869521D01*
X28973697Y20154074D01*
X28877265Y20425020D01*
X28807073Y20556337D01*
X28560551Y20630946D01*
X27729605Y19800000D01*
X27370395Y19800000D01*
X26539449Y20630946D01*
X26299275Y20558258D01*
X26184056Y20730696D01*
X26104201Y20810551D01*
X26719054Y20810551D01*
X27550000Y19979605D01*
X28380946Y20810551D01*
X28306337Y21057073D01*
X28046561Y21180473D01*
X27767703Y21250823D01*
X27480479Y21265417D01*
X27195926Y21223697D01*
X26924980Y21127265D01*
X26793663Y21057073D01*
X26719054Y20810551D01*
X26104201Y20810551D01*
X25980696Y20934056D01*
X25741569Y21093835D01*
X25475866Y21203893D01*
X25193797Y21260000D01*
X24906203Y21260000D01*
X24624134Y21203893D01*
X24358431Y21093835D01*
X24119304Y20934056D01*
X23915944Y20730696D01*
X23756165Y20491569D01*
X23646107Y20225866D01*
X23590000Y19943797D01*
X14838072Y19943797D01*
X14838072Y20150000D01*
X14825812Y20274482D01*
X14789502Y20394180D01*
X14730537Y20504494D01*
X14651185Y20601185D01*
X14554494Y20680537D01*
X14444180Y20739502D01*
X14324482Y20775812D01*
X14200000Y20788072D01*
X12600000Y20788072D01*
X12475518Y20775812D01*
X12355820Y20739502D01*
X12245506Y20680537D01*
X12148815Y20601185D01*
X12069463Y20504494D01*
X12010498Y20394180D01*
X11974188Y20274482D01*
X11961928Y20150000D01*
X11961928Y19535000D01*
X9755752Y19535000D01*
X9700000Y19540491D01*
X9644248Y19535000D01*
X9477501Y19518577D01*
X9263553Y19453676D01*
X9066377Y19348284D01*
X8893551Y19206449D01*
X8858009Y19163141D01*
X6821868Y17127000D01*
X5935000Y17127000D01*
X5935000Y17292089D01*
X5899068Y17472729D01*
X5828586Y17642889D01*
X5726262Y17796028D01*
X5596028Y17926262D01*
X5442889Y18028586D01*
X5272729Y18099068D01*
X5092089Y18135000D01*
X4907911Y18135000D01*
X4727271Y18099068D01*
X4557111Y18028586D01*
X4403972Y17926262D01*
X4273738Y17796028D01*
X4210547Y17701456D01*
X4206449Y17706449D01*
X4038072Y17844633D01*
X4038072Y18400000D01*
X4025812Y18524482D01*
X3989502Y18644180D01*
X3930537Y18754494D01*
X3851185Y18851185D01*
X3754494Y18930537D01*
X3644180Y18989502D01*
X3524482Y19025812D01*
X3400000Y19038072D01*
X2400000Y19038072D01*
X2275518Y19025812D01*
X2155820Y18989502D01*
X2045506Y18930537D01*
X1948815Y18851185D01*
X1869463Y18754494D01*
X1810498Y18644180D01*
X1774188Y18524482D01*
X1761928Y18400000D01*
X1761928Y18035000D01*
X-1904869Y18035000D01*
X-2055465Y18185596D01*
X-2130700Y18326351D01*
X-2094463Y18370506D01*
X-2035498Y18480820D01*
X-1999188Y18600518D01*
X-1986928Y18725000D01*
X-1990000Y18889250D01*
X-2148750Y19048000D01*
X-2973000Y19048000D01*
X-2973000Y19028000D01*
X-3227000Y19028000D01*
X-3227000Y19048000D01*
X-4051250Y19048000D01*
X-4210000Y18889250D01*
X-4213072Y18725000D01*
X-4200812Y18600518D01*
X-4164502Y18480820D01*
X-4105537Y18370506D01*
X-4069300Y18326351D01*
X-4147375Y18180283D01*
X-4191446Y18035000D01*
X-5851928Y18035000D01*
X-5851928Y18175000D01*
X-5864188Y18299482D01*
X-5900498Y18419180D01*
X-5959463Y18529494D01*
X-6038815Y18626185D01*
X-6135506Y18705537D01*
X-6245820Y18764502D01*
X-6365518Y18800812D01*
X-6490000Y18813072D01*
X-7710000Y18813072D01*
X-7834482Y18800812D01*
X-7954180Y18764502D01*
X-8064494Y18705537D01*
X-8161185Y18626185D01*
X-8240537Y18529494D01*
X-8299502Y18419180D01*
X-8335812Y18299482D01*
X-8348072Y18175000D01*
X-8348072Y17459999D01*
X-8445124Y17459999D01*
X-8460498Y17510680D01*
X-8519463Y17620994D01*
X-8598815Y17717685D01*
X-8695506Y17797037D01*
X-8805820Y17856002D01*
X-8925518Y17892312D01*
X-9050000Y17904572D01*
X-11390296Y17904572D01*
X-11136860Y18158008D01*
X-11093551Y18193551D01*
X-10951716Y18366377D01*
X-10846324Y18563553D01*
X-10781423Y18777501D01*
X-10765000Y18944248D01*
X-10759509Y19000000D01*
X-10765000Y19055751D01*
X-10765000Y21211928D01*
X-10150000Y21211928D01*
X-10025518Y21224188D01*
X-9905820Y21260498D01*
X-9795506Y21319463D01*
X-9698815Y21398815D01*
X-9619463Y21495506D01*
X-9609043Y21515000D01*
X-8581748Y21515000D01*
X-8415001Y21531423D01*
X-8386326Y21540122D01*
X-8282861Y21550312D01*
X-8299502Y21519180D01*
X-8335812Y21399482D01*
X-8348072Y21275000D01*
X-8348072Y20125000D01*
X-8335812Y20000518D01*
X-8299502Y19880820D01*
X-8240537Y19770506D01*
X-8161185Y19673815D01*
X-8064494Y19594463D01*
X-7954180Y19535498D01*
X-7834482Y19499188D01*
X-7710000Y19486928D01*
X-6490000Y19486928D01*
X-6365518Y19499188D01*
X-6245820Y19535498D01*
X-6135506Y19594463D01*
X-6098297Y19625000D01*
X-4213072Y19625000D01*
X-4210000Y19460750D01*
X-4051250Y19302000D01*
X-3227000Y19302000D01*
X-3227000Y20101250D01*
X-2973000Y20101250D01*
X-2973000Y19302000D01*
X-2148750Y19302000D01*
X-1990000Y19460750D01*
X-1986928Y19625000D01*
X-1999188Y19749482D01*
X-2035498Y19869180D01*
X-2094463Y19979494D01*
X-2173815Y20076185D01*
X-2270506Y20155537D01*
X-2380820Y20214502D01*
X-2500518Y20250812D01*
X-2625000Y20263072D01*
X-2814250Y20260000D01*
X-2973000Y20101250D01*
X-3227000Y20101250D01*
X-3385750Y20260000D01*
X-3575000Y20263072D01*
X-3699482Y20250812D01*
X-3819180Y20214502D01*
X-3929494Y20155537D01*
X-4026185Y20076185D01*
X-4105537Y19979494D01*
X-4164502Y19869180D01*
X-4200812Y19749482D01*
X-4213072Y19625000D01*
X-6098297Y19625000D01*
X-6038815Y19673815D01*
X-5959463Y19770506D01*
X-5900498Y19880820D01*
X-5864188Y20000518D01*
X-5851928Y20125000D01*
X-5851928Y21275000D01*
X-5864188Y21399482D01*
X-5864345Y21400000D01*
X1761928Y21400000D01*
X1774188Y21275518D01*
X1810498Y21155820D01*
X1869463Y21045506D01*
X1948815Y20948815D01*
X2045506Y20869463D01*
X2155820Y20810498D01*
X2275518Y20774188D01*
X2400000Y20761928D01*
X2614250Y20765000D01*
X2773000Y20923750D01*
X2773000Y22773000D01*
X3027000Y22773000D01*
X3027000Y20923750D01*
X3185750Y20765000D01*
X3400000Y20761928D01*
X3524482Y20774188D01*
X3644180Y20810498D01*
X3754494Y20869463D01*
X3851185Y20948815D01*
X3930537Y21045506D01*
X3989502Y21155820D01*
X4025812Y21275518D01*
X4038072Y21400000D01*
X4036428Y22050000D01*
X11961928Y22050000D01*
X11974188Y21925518D01*
X12010498Y21805820D01*
X12069463Y21695506D01*
X12148815Y21598815D01*
X12245506Y21519463D01*
X12355820Y21460498D01*
X12475518Y21424188D01*
X12600000Y21411928D01*
X13114250Y21415000D01*
X13273000Y21573750D01*
X13273000Y23673000D01*
X13527000Y23673000D01*
X13527000Y21573750D01*
X13685750Y21415000D01*
X14200000Y21411928D01*
X14324482Y21424188D01*
X14444180Y21460498D01*
X14554494Y21519463D01*
X14651185Y21598815D01*
X14730537Y21695506D01*
X14789502Y21805820D01*
X14825812Y21925518D01*
X14838072Y22050000D01*
X14835000Y23514250D01*
X14676250Y23673000D01*
X13527000Y23673000D01*
X13273000Y23673000D01*
X12123750Y23673000D01*
X11965000Y23514250D01*
X11961928Y22050000D01*
X4036428Y22050000D01*
X4035000Y22614250D01*
X3876250Y22773000D01*
X3027000Y22773000D01*
X2773000Y22773000D01*
X1923750Y22773000D01*
X1765000Y22614250D01*
X1761928Y21400000D01*
X-5864345Y21400000D01*
X-5900498Y21519180D01*
X-5959463Y21629494D01*
X-5965000Y21636241D01*
X-5965000Y22358021D01*
X-5943923Y22427502D01*
X-5922009Y22649999D01*
X-5943923Y22872498D01*
X-6002682Y23066198D01*
X-6003392Y23073408D01*
X-6052150Y23234142D01*
X-6131329Y23382275D01*
X-6237885Y23512115D01*
X-6367725Y23618671D01*
X-6515858Y23697850D01*
X-6676592Y23746608D01*
X-6811327Y23759879D01*
X-6840002Y23768577D01*
X-7062501Y23790491D01*
X-7284998Y23768577D01*
X-7313673Y23759879D01*
X-7448408Y23746608D01*
X-7609142Y23697850D01*
X-7757275Y23618671D01*
X-7850000Y23542574D01*
X-7942725Y23618671D01*
X-8090858Y23697850D01*
X-8251592Y23746608D01*
X-8386326Y23759878D01*
X-8415001Y23768577D01*
X-8581748Y23785000D01*
X-9609043Y23785000D01*
X-9619463Y23804494D01*
X-9698815Y23901185D01*
X-9795506Y23980537D01*
X-9905820Y24039502D01*
X-10025518Y24075812D01*
X-10150000Y24088072D01*
X-13650000Y24088072D01*
X-13774482Y24075812D01*
X-13894180Y24039502D01*
X-14004494Y23980537D01*
X-14101185Y23901185D01*
X-14180537Y23804494D01*
X-14239502Y23694180D01*
X-14275812Y23574482D01*
X-14288072Y23450000D01*
X-14288072Y21850000D01*
X-14275812Y21725518D01*
X-14239502Y21605820D01*
X-14180537Y21495506D01*
X-14101185Y21398815D01*
X-14004494Y21319463D01*
X-13894180Y21260498D01*
X-13774482Y21224188D01*
X-13650000Y21211928D01*
X-13035000Y21211928D01*
X-13034999Y19470133D01*
X-13517059Y18988072D01*
X-13650000Y18988072D01*
X-13774482Y18975812D01*
X-13894180Y18939502D01*
X-14004494Y18880537D01*
X-14101185Y18801185D01*
X-14180537Y18704494D01*
X-14221959Y18627000D01*
X-15037933Y18627000D01*
X-15098815Y18701185D01*
X-15195506Y18780537D01*
X-15305820Y18839502D01*
X-15425518Y18875812D01*
X-15550000Y18888072D01*
X-17150000Y18888072D01*
X-17274482Y18875812D01*
X-17394180Y18839502D01*
X-17504494Y18780537D01*
X-17601185Y18701185D01*
X-17680537Y18604494D01*
X-17739502Y18494180D01*
X-17775812Y18374482D01*
X-17784625Y18285000D01*
X-18679868Y18285000D01*
X-20953016Y20558147D01*
X-21005557Y20684992D01*
X-21140713Y20887267D01*
X-21312733Y21059287D01*
X-21515008Y21194443D01*
X-21739764Y21287540D01*
X-21978363Y21335000D01*
X-22221637Y21335000D01*
X-22460236Y21287540D01*
X-22684992Y21194443D01*
X-22887267Y21059287D01*
X-23059287Y20887267D01*
X-23194443Y20684992D01*
X-23287540Y20460236D01*
X-23335000Y20221637D01*
X-23365000Y20221637D01*
X-23412460Y20460236D01*
X-23505557Y20684992D01*
X-23640713Y20887267D01*
X-23812733Y21059287D01*
X-24015008Y21194443D01*
X-24239764Y21287540D01*
X-24478363Y21335000D01*
X-24721637Y21335000D01*
X-24960236Y21287540D01*
X-25184992Y21194443D01*
X-25387267Y21059287D01*
X-25559287Y20887267D01*
X-25694443Y20684992D01*
X-25787540Y20460236D01*
X-25835000Y20221637D01*
X-25868539Y20221637D01*
X-25900605Y20418549D01*
X-25985798Y20646418D01*
X-26026652Y20722852D01*
X-26250236Y20770159D01*
X-26920395Y20100000D01*
X-27279605Y20100000D01*
X-27949764Y20770159D01*
X-28173348Y20722852D01*
X-28274237Y20501484D01*
X-28330000Y20264687D01*
X-28338495Y20021562D01*
X-35251520Y20021562D01*
X-35204414Y20258375D01*
X-35204414Y20641623D01*
X-35265707Y20949764D01*
X-27770159Y20949764D01*
X-27100000Y20279605D01*
X-26429841Y20949764D01*
X-26477148Y21173348D01*
X-26698516Y21274237D01*
X-26935313Y21330000D01*
X-27178438Y21338495D01*
X-27418549Y21299395D01*
X-27646418Y21214202D01*
X-27722852Y21173348D01*
X-27770159Y20949764D01*
X-35265707Y20949764D01*
X-35279182Y21017506D01*
X-35425844Y21371580D01*
X-35638765Y21690238D01*
X-35798527Y21850000D01*
X-19688072Y21850000D01*
X-19675812Y21725518D01*
X-19639502Y21605820D01*
X-19580537Y21495506D01*
X-19501185Y21398815D01*
X-19404494Y21319463D01*
X-19294180Y21260498D01*
X-19174482Y21224188D01*
X-19050000Y21211928D01*
X-17585750Y21215000D01*
X-17427000Y21373750D01*
X-17427000Y22523000D01*
X-17173000Y22523000D01*
X-17173000Y21373750D01*
X-17014250Y21215000D01*
X-15550000Y21211928D01*
X-15425518Y21224188D01*
X-15305820Y21260498D01*
X-15195506Y21319463D01*
X-15098815Y21398815D01*
X-15019463Y21495506D01*
X-14960498Y21605820D01*
X-14924188Y21725518D01*
X-14911928Y21850000D01*
X-14915000Y22364250D01*
X-15073750Y22523000D01*
X-17173000Y22523000D01*
X-17427000Y22523000D01*
X-19526250Y22523000D01*
X-19685000Y22364250D01*
X-19688072Y21850000D01*
X-35798527Y21850000D01*
X-35909761Y21961234D01*
X-36228419Y22174155D01*
X-36582493Y22320817D01*
X-36958376Y22395585D01*
X-37341624Y22395585D01*
X-37717507Y22320817D01*
X-38071581Y22174155D01*
X-38390239Y21961234D01*
X-38661235Y21690238D01*
X-38665000Y21684604D01*
X-38665000Y23450000D01*
X-19688072Y23450000D01*
X-19685000Y22935750D01*
X-19526250Y22777000D01*
X-17427000Y22777000D01*
X-17427000Y23926250D01*
X-17173000Y23926250D01*
X-17173000Y22777000D01*
X-15073750Y22777000D01*
X-14915000Y22935750D01*
X-14911928Y23450000D01*
X-14924188Y23574482D01*
X-14960498Y23694180D01*
X-15019463Y23804494D01*
X-15098815Y23901185D01*
X-15195506Y23980537D01*
X-15305820Y24039502D01*
X-15425518Y24075812D01*
X-15550000Y24088072D01*
X-17014250Y24085000D01*
X-17173000Y23926250D01*
X-17427000Y23926250D01*
X-17585750Y24085000D01*
X-19050000Y24088072D01*
X-19174482Y24075812D01*
X-19294180Y24039502D01*
X-19404494Y23980537D01*
X-19501185Y23901185D01*
X-19580537Y23804494D01*
X-19639502Y23694180D01*
X-19675812Y23574482D01*
X-19688072Y23450000D01*
X-38665000Y23450000D01*
X-38665000Y24400000D01*
X1761928Y24400000D01*
X1765000Y23185750D01*
X1923750Y23027000D01*
X2773000Y23027000D01*
X2773000Y24876250D01*
X3027000Y24876250D01*
X3027000Y23027000D01*
X3876250Y23027000D01*
X4035000Y23185750D01*
X4038072Y24400000D01*
X4025812Y24524482D01*
X3989502Y24644180D01*
X3930537Y24754494D01*
X3851185Y24851185D01*
X3754494Y24930537D01*
X3644180Y24989502D01*
X3524482Y25025812D01*
X3400000Y25038072D01*
X3185750Y25035000D01*
X3027000Y24876250D01*
X2773000Y24876250D01*
X2614250Y25035000D01*
X2400000Y25038072D01*
X2275518Y25025812D01*
X2155820Y24989502D01*
X2045506Y24930537D01*
X1948815Y24851185D01*
X1869463Y24754494D01*
X1810498Y24644180D01*
X1774188Y24524482D01*
X1761928Y24400000D01*
X-38665000Y24400000D01*
X-38665000Y25550000D01*
X11961928Y25550000D01*
X11965000Y24085750D01*
X12123750Y23927000D01*
X13273000Y23927000D01*
X13273000Y26026250D01*
X13527000Y26026250D01*
X13527000Y23927000D01*
X14676250Y23927000D01*
X14835000Y24085750D01*
X14836313Y24711788D01*
X15765000Y24711788D01*
X15765000Y24488212D01*
X15808617Y24268933D01*
X15894176Y24062376D01*
X16018388Y23876480D01*
X16176480Y23718388D01*
X16362376Y23594176D01*
X16568933Y23508617D01*
X16788212Y23465000D01*
X17011788Y23465000D01*
X17231067Y23508617D01*
X17437624Y23594176D01*
X17623520Y23718388D01*
X17781612Y23876480D01*
X17905824Y24062376D01*
X17991383Y24268933D01*
X18035000Y24488212D01*
X18035000Y24711788D01*
X18765000Y24711788D01*
X18765000Y24488212D01*
X18808617Y24268933D01*
X18894176Y24062376D01*
X19018388Y23876480D01*
X19176480Y23718388D01*
X19362376Y23594176D01*
X19568933Y23508617D01*
X19788212Y23465000D01*
X20011788Y23465000D01*
X20231067Y23508617D01*
X20437624Y23594176D01*
X20623520Y23718388D01*
X20781612Y23876480D01*
X20905824Y24062376D01*
X20991383Y24268933D01*
X21035000Y24488212D01*
X21035000Y24711788D01*
X20991383Y24931067D01*
X20905824Y25137624D01*
X20781612Y25323520D01*
X20623520Y25481612D01*
X20437624Y25605824D01*
X20231067Y25691383D01*
X20011788Y25735000D01*
X19788212Y25735000D01*
X19568933Y25691383D01*
X19362376Y25605824D01*
X19176480Y25481612D01*
X19018388Y25323520D01*
X18894176Y25137624D01*
X18808617Y24931067D01*
X18765000Y24711788D01*
X18035000Y24711788D01*
X17991383Y24931067D01*
X17905824Y25137624D01*
X17781612Y25323520D01*
X17623520Y25481612D01*
X17437624Y25605824D01*
X17231067Y25691383D01*
X17011788Y25735000D01*
X16788212Y25735000D01*
X16568933Y25691383D01*
X16362376Y25605824D01*
X16176480Y25481612D01*
X16018388Y25323520D01*
X15894176Y25137624D01*
X15808617Y24931067D01*
X15765000Y24711788D01*
X14836313Y24711788D01*
X14838072Y25550000D01*
X14825812Y25674482D01*
X14789502Y25794180D01*
X14730537Y25904494D01*
X14651185Y26001185D01*
X14554494Y26080537D01*
X14444180Y26139502D01*
X14324482Y26175812D01*
X14200000Y26188072D01*
X13685750Y26185000D01*
X13527000Y26026250D01*
X13273000Y26026250D01*
X13114250Y26185000D01*
X12600000Y26188072D01*
X12475518Y26175812D01*
X12355820Y26139502D01*
X12245506Y26080537D01*
X12148815Y26001185D01*
X12069463Y25904494D01*
X12010498Y25794180D01*
X11974188Y25674482D01*
X11961928Y25550000D01*
X-38665000Y25550000D01*
X-38664999Y26664999D01*
X38664999Y26665001D01*
X38665000Y21684604D01*
G37*
%TD.AperFunction*%
%TD*%
M02*
