G04 #@! TF.GenerationSoftware,KiCad,Pcbnew,(5.1.10)-1*
G04 #@! TF.CreationDate,2022-02-06T13:52:41+09:00*
G04 #@! TF.ProjectId,FrontSensor,46726f6e-7453-4656-9e73-6f722e6b6963,rev?*
G04 #@! TF.SameCoordinates,Original*
G04 #@! TF.FileFunction,Copper,L1,Top*
G04 #@! TF.FilePolarity,Positive*
%FSLAX46Y46*%
G04 Gerber Fmt 4.6, Leading zero omitted, Abs format (unit mm)*
G04 Created by KiCad (PCBNEW (5.1.10)-1) date 2022-02-06 13:52:41*
%MOMM*%
%LPD*%
G01*
G04 APERTURE LIST*
G04 #@! TA.AperFunction,SMDPad,CuDef*
%ADD10R,0.300000X1.000000*%
G04 #@! TD*
G04 #@! TA.AperFunction,SMDPad,CuDef*
%ADD11R,1.650000X1.300000*%
G04 #@! TD*
G04 #@! TA.AperFunction,ViaPad*
%ADD12C,0.800000*%
G04 #@! TD*
G04 #@! TA.AperFunction,Conductor*
%ADD13C,0.250000*%
G04 #@! TD*
G04 #@! TA.AperFunction,Conductor*
%ADD14C,0.300000*%
G04 #@! TD*
G04 #@! TA.AperFunction,Conductor*
%ADD15C,0.254000*%
G04 #@! TD*
G04 #@! TA.AperFunction,Conductor*
%ADD16C,0.100000*%
G04 #@! TD*
G04 APERTURE END LIST*
G04 #@! TA.AperFunction,SMDPad,CuDef*
G36*
G01*
X-4600000Y141250000D02*
X-4600000Y140750000D01*
G75*
G02*
X-4825000Y140525000I-225000J0D01*
G01*
X-5275000Y140525000D01*
G75*
G02*
X-5500000Y140750000I0J225000D01*
G01*
X-5500000Y141250000D01*
G75*
G02*
X-5275000Y141475000I225000J0D01*
G01*
X-4825000Y141475000D01*
G75*
G02*
X-4600000Y141250000I0J-225000D01*
G01*
G37*
G04 #@! TD.AperFunction*
G04 #@! TA.AperFunction,SMDPad,CuDef*
G36*
G01*
X-3050000Y141250000D02*
X-3050000Y140750000D01*
G75*
G02*
X-3275000Y140525000I-225000J0D01*
G01*
X-3725000Y140525000D01*
G75*
G02*
X-3950000Y140750000I0J225000D01*
G01*
X-3950000Y141250000D01*
G75*
G02*
X-3725000Y141475000I225000J0D01*
G01*
X-3275000Y141475000D01*
G75*
G02*
X-3050000Y141250000I0J-225000D01*
G01*
G37*
G04 #@! TD.AperFunction*
D10*
X1250000Y140000000D03*
X750000Y140000000D03*
X250000Y140000000D03*
X-250000Y140000000D03*
X-750000Y140000000D03*
X-1250000Y140000000D03*
D11*
X3525000Y138000000D03*
X-3525000Y138000000D03*
G04 #@! TA.AperFunction,SMDPad,CuDef*
G36*
G01*
X-16546600Y148808879D02*
X-16608862Y149355344D01*
G75*
G02*
X-16432789Y149576699I198714J22641D01*
G01*
X-16035361Y149621980D01*
G75*
G02*
X-15814006Y149445907I22641J-198714D01*
G01*
X-15751744Y148899442D01*
G75*
G02*
X-15927817Y148678087I-198714J-22641D01*
G01*
X-16325245Y148632806D01*
G75*
G02*
X-16546600Y148808879I-22641J198714D01*
G01*
G37*
G04 #@! TD.AperFunction*
G04 #@! TA.AperFunction,SMDPad,CuDef*
G36*
G01*
X-18185994Y148622093D02*
X-18248256Y149168558D01*
G75*
G02*
X-18072183Y149389913I198714J22641D01*
G01*
X-17674755Y149435194D01*
G75*
G02*
X-17453400Y149259121I22641J-198714D01*
G01*
X-17391138Y148712656D01*
G75*
G02*
X-17567211Y148491301I-198714J-22641D01*
G01*
X-17964639Y148446020D01*
G75*
G02*
X-18185994Y148622093I-22641J198714D01*
G01*
G37*
G04 #@! TD.AperFunction*
G04 #@! TA.AperFunction,SMDPad,CuDef*
G36*
G01*
X-2428328Y150256787D02*
X-2421608Y149706828D01*
G75*
G02*
X-2619150Y149504400I-199985J-2443D01*
G01*
X-3019120Y149499513D01*
G75*
G02*
X-3221548Y149697055I-2443J199985D01*
G01*
X-3228268Y150247014D01*
G75*
G02*
X-3030726Y150449442I199985J2443D01*
G01*
X-2630756Y150454329D01*
G75*
G02*
X-2428328Y150256787I2443J-199985D01*
G01*
G37*
G04 #@! TD.AperFunction*
G04 #@! TA.AperFunction,SMDPad,CuDef*
G36*
G01*
X-778452Y150276945D02*
X-771732Y149726986D01*
G75*
G02*
X-969274Y149524558I-199985J-2443D01*
G01*
X-1369244Y149519671D01*
G75*
G02*
X-1571672Y149717213I-2443J199985D01*
G01*
X-1578392Y150267172D01*
G75*
G02*
X-1380850Y150469600I199985J2443D01*
G01*
X-980880Y150474487D01*
G75*
G02*
X-778452Y150276945I2443J-199985D01*
G01*
G37*
G04 #@! TD.AperFunction*
G04 #@! TA.AperFunction,SMDPad,CuDef*
G36*
G01*
X771279Y149729130D02*
X778958Y150279077D01*
G75*
G02*
X981731Y150476266I199981J-2792D01*
G01*
X1381692Y150470681D01*
G75*
G02*
X1578881Y150267908I-2792J-199981D01*
G01*
X1571202Y149717961D01*
G75*
G02*
X1368429Y149520772I-199981J2792D01*
G01*
X968468Y149526357D01*
G75*
G02*
X771279Y149729130I2792J199981D01*
G01*
G37*
G04 #@! TD.AperFunction*
G04 #@! TA.AperFunction,SMDPad,CuDef*
G36*
G01*
X2421119Y149706092D02*
X2428798Y150256039D01*
G75*
G02*
X2631571Y150453228I199981J-2792D01*
G01*
X3031532Y150447643D01*
G75*
G02*
X3228721Y150244870I-2792J-199981D01*
G01*
X3221042Y149694923D01*
G75*
G02*
X3018269Y149497734I-199981J2792D01*
G01*
X2618308Y149503319D01*
G75*
G02*
X2421119Y149706092I2792J199981D01*
G01*
G37*
G04 #@! TD.AperFunction*
G04 #@! TA.AperFunction,SMDPad,CuDef*
G36*
G01*
X16609424Y149356026D02*
X16546209Y148809671D01*
G75*
G02*
X16324547Y148633983I-198675J22987D01*
G01*
X15927198Y148679958D01*
G75*
G02*
X15751510Y148901620I22987J198675D01*
G01*
X15814725Y149447975D01*
G75*
G02*
X16036387Y149623663I198675J-22987D01*
G01*
X16433736Y149577688D01*
G75*
G02*
X16609424Y149356026I-22987J-198675D01*
G01*
G37*
G04 #@! TD.AperFunction*
G04 #@! TA.AperFunction,SMDPad,CuDef*
G36*
G01*
X18248490Y149166380D02*
X18185275Y148620025D01*
G75*
G02*
X17963613Y148444337I-198675J22987D01*
G01*
X17566264Y148490312D01*
G75*
G02*
X17390576Y148711974I22987J198675D01*
G01*
X17453791Y149258329D01*
G75*
G02*
X17675453Y149434017I198675J-22987D01*
G01*
X18072802Y149388042D01*
G75*
G02*
X18248490Y149166380I-22987J-198675D01*
G01*
G37*
G04 #@! TD.AperFunction*
G04 #@! TA.AperFunction,SMDPad,CuDef*
G36*
G01*
X-16546995Y150820088D02*
X-16608303Y151366660D01*
G75*
G02*
X-16431843Y151587708I198754J22294D01*
G01*
X-16034335Y151632296D01*
G75*
G02*
X-15813287Y151455836I22294J-198754D01*
G01*
X-15751979Y150909264D01*
G75*
G02*
X-15928439Y150688216I-198754J-22294D01*
G01*
X-16325947Y150643628D01*
G75*
G02*
X-16546995Y150820088I-22294J198754D01*
G01*
G37*
G04 #@! TD.AperFunction*
G04 #@! TA.AperFunction,SMDPad,CuDef*
G36*
G01*
X-18186713Y150636164D02*
X-18248021Y151182736D01*
G75*
G02*
X-18071561Y151403784I198754J22294D01*
G01*
X-17674053Y151448372D01*
G75*
G02*
X-17453005Y151271912I22294J-198754D01*
G01*
X-17391697Y150725340D01*
G75*
G02*
X-17568157Y150504292I-198754J-22294D01*
G01*
X-17965665Y150459704D01*
G75*
G02*
X-18186713Y150636164I-22294J198754D01*
G01*
G37*
G04 #@! TD.AperFunction*
G04 #@! TA.AperFunction,SMDPad,CuDef*
G36*
G01*
X-771279Y152244870D02*
X-778958Y151694923D01*
G75*
G02*
X-981731Y151497734I-199981J2792D01*
G01*
X-1381692Y151503319D01*
G75*
G02*
X-1578881Y151706092I2792J199981D01*
G01*
X-1571202Y152256039D01*
G75*
G02*
X-1368429Y152453228I199981J-2792D01*
G01*
X-968468Y152447643D01*
G75*
G02*
X-771279Y152244870I-2792J-199981D01*
G01*
G37*
G04 #@! TD.AperFunction*
G04 #@! TA.AperFunction,SMDPad,CuDef*
G36*
G01*
X-2421119Y152267908D02*
X-2428798Y151717961D01*
G75*
G02*
X-2631571Y151520772I-199981J2792D01*
G01*
X-3031532Y151526357D01*
G75*
G02*
X-3228721Y151729130I2792J199981D01*
G01*
X-3221042Y152279077D01*
G75*
G02*
X-3018269Y152476266I199981J-2792D01*
G01*
X-2618308Y152470681D01*
G75*
G02*
X-2421119Y152267908I-2792J-199981D01*
G01*
G37*
G04 #@! TD.AperFunction*
G04 #@! TA.AperFunction,SMDPad,CuDef*
G36*
G01*
X2421119Y151706092D02*
X2428798Y152256039D01*
G75*
G02*
X2631571Y152453228I199981J-2792D01*
G01*
X3031532Y152447643D01*
G75*
G02*
X3228721Y152244870I-2792J-199981D01*
G01*
X3221042Y151694923D01*
G75*
G02*
X3018269Y151497734I-199981J2792D01*
G01*
X2618308Y151503319D01*
G75*
G02*
X2421119Y151706092I2792J199981D01*
G01*
G37*
G04 #@! TD.AperFunction*
G04 #@! TA.AperFunction,SMDPad,CuDef*
G36*
G01*
X771279Y151729130D02*
X778958Y152279077D01*
G75*
G02*
X981731Y152476266I199981J-2792D01*
G01*
X1381692Y152470681D01*
G75*
G02*
X1578881Y152267908I-2792J-199981D01*
G01*
X1571202Y151717961D01*
G75*
G02*
X1368429Y151520772I-199981J2792D01*
G01*
X968468Y151526357D01*
G75*
G02*
X771279Y151729130I2792J199981D01*
G01*
G37*
G04 #@! TD.AperFunction*
G04 #@! TA.AperFunction,SMDPad,CuDef*
G36*
G01*
X18248256Y151180558D02*
X18185994Y150634093D01*
G75*
G02*
X17964639Y150458020I-198714J22641D01*
G01*
X17567211Y150503301D01*
G75*
G02*
X17391138Y150724656I22641J198714D01*
G01*
X17453400Y151271121D01*
G75*
G02*
X17674755Y151447194I198714J-22641D01*
G01*
X18072183Y151401913D01*
G75*
G02*
X18248256Y151180558I-22641J-198714D01*
G01*
G37*
G04 #@! TD.AperFunction*
G04 #@! TA.AperFunction,SMDPad,CuDef*
G36*
G01*
X16608862Y151367344D02*
X16546600Y150820879D01*
G75*
G02*
X16325245Y150644806I-198714J22641D01*
G01*
X15927817Y150690087D01*
G75*
G02*
X15751744Y150911442I22641J198714D01*
G01*
X15814006Y151457907D01*
G75*
G02*
X16035361Y151633980I198714J-22641D01*
G01*
X16432789Y151588699D01*
G75*
G02*
X16608862Y151367344I-22641J-198714D01*
G01*
G37*
G04 #@! TD.AperFunction*
D12*
X-4625000Y142125000D03*
X0Y146750000D03*
X9000000Y144500000D03*
X-15100000Y148000000D03*
X4000000Y146100000D03*
X-4000000Y146100000D03*
X-1500000Y148500000D03*
X1500000Y148500000D03*
X0Y143000000D03*
X0Y151000000D03*
X15000000Y148000000D03*
X3250000Y141250000D03*
X0Y137750000D03*
X-14250000Y151250000D03*
X-4750000Y152000000D03*
X4750000Y152000000D03*
X14250000Y151500000D03*
X-14250000Y149250000D03*
X-6500000Y147000000D03*
X-4750000Y150000000D03*
X4750000Y149750000D03*
X14250000Y149500000D03*
X6500000Y147000000D03*
D13*
X17819533Y150952443D02*
X17819697Y150952607D01*
X17819533Y148939177D02*
X17819533Y150952443D01*
X1175080Y151998519D02*
X1175080Y149998519D01*
X-1175080Y149997097D02*
X-1175062Y149997079D01*
X-1175080Y151975481D02*
X-1175080Y149997097D01*
X-17819859Y148940769D02*
X-17819697Y148940607D01*
X-17819859Y150954038D02*
X-17819859Y148940769D01*
X-13379090Y144500000D02*
X-7000000Y144500000D01*
X-17819697Y148940607D02*
X-13379090Y144500000D01*
X-7000000Y144500000D02*
X-4625000Y142125000D01*
X-4625000Y142125000D02*
X-2500000Y140000000D01*
X-1175062Y149997079D02*
X-997079Y149997079D01*
X0Y149000000D02*
X0Y146750000D01*
X-997079Y149997079D02*
X0Y149000000D01*
X998519Y149998519D02*
X0Y149000000D01*
X1175080Y149998519D02*
X998519Y149998519D01*
X13380356Y144500000D02*
X9000000Y144500000D01*
X17819533Y148939177D02*
X13380356Y144500000D01*
X-2500000Y140000000D02*
X-1225001Y140000000D01*
D14*
X1250000Y140000000D02*
X2250000Y140000000D01*
D13*
X-16068103Y151250000D02*
X-16180141Y151137962D01*
X-14250000Y151250000D02*
X-16068103Y151250000D01*
X-4748519Y151998519D02*
X-4750000Y152000000D01*
X-2824920Y151998519D02*
X-4748519Y151998519D01*
X4725481Y151975481D02*
X4750000Y152000000D01*
X2824920Y151975481D02*
X4725481Y151975481D01*
X15819696Y151500000D02*
X16180303Y151139393D01*
X14250000Y151500000D02*
X15819696Y151500000D01*
X-16057696Y149250000D02*
X-16180303Y149127393D01*
X-14250000Y149250000D02*
X-16057696Y149250000D01*
X-750000Y141250000D02*
X-2000000Y142500000D01*
X-750000Y140000000D02*
X-750000Y141250000D01*
X-2000000Y142500000D02*
X-3250000Y143750000D01*
X-3250000Y143750000D02*
X-6500000Y147000000D01*
X-2824938Y149976921D02*
X-4726921Y149976921D01*
X-4726921Y149976921D02*
X-4750000Y150000000D01*
X-2824938Y144074938D02*
X-2824938Y149976921D01*
X-250000Y141500000D02*
X-2824938Y144074938D01*
X-250000Y140000000D02*
X-250000Y141500000D01*
X2824920Y149975481D02*
X4524519Y149975481D01*
X4524519Y149975481D02*
X4750000Y149750000D01*
X2824920Y144074920D02*
X2824920Y149975481D01*
X250000Y141500000D02*
X2824920Y144074920D01*
X250000Y140000000D02*
X250000Y141500000D01*
X15809290Y149500000D02*
X16180467Y149128823D01*
X14250000Y149500000D02*
X15809290Y149500000D01*
X6100001Y146588590D02*
X6100001Y146600001D01*
X750000Y140000000D02*
X750000Y141238590D01*
X750000Y141238590D02*
X6100001Y146588590D01*
X6100001Y146600001D02*
X6500000Y147000000D01*
D15*
X4087179Y154210755D02*
X8929016Y154006282D01*
X13762084Y153649820D01*
X18581542Y153141727D01*
X23386604Y152481960D01*
X24155489Y152360180D01*
X22779262Y143939284D01*
X21021125Y144211252D01*
X21002913Y144212260D01*
X20204128Y144295547D01*
X20165985Y144297114D01*
X20127905Y144299510D01*
X18872095Y144299510D01*
X18779975Y144293714D01*
X17534069Y144136320D01*
X17534067Y144136320D01*
X17443400Y144119025D01*
X16227043Y143806717D01*
X16189303Y143794454D01*
X16139259Y143778194D01*
X14971636Y143315900D01*
X14901485Y143282889D01*
X14888118Y143276599D01*
X13787643Y142671607D01*
X13777234Y142665001D01*
X13709710Y142622150D01*
X12693738Y141884002D01*
X12622618Y141825167D01*
X11707172Y140965506D01*
X11643987Y140898221D01*
X10843504Y139930604D01*
X10843503Y139930603D01*
X10789249Y139855929D01*
X10116352Y138795613D01*
X10091276Y138750000D01*
X10071885Y138714728D01*
X9537187Y137578437D01*
X9517307Y137528224D01*
X9503209Y137492617D01*
X9115141Y136298270D01*
X9092187Y136208868D01*
X9092187Y136208867D01*
X8856872Y134975300D01*
X8845303Y134883726D01*
X8767264Y133643340D01*
X8765000Y133620348D01*
X8764999Y123235000D01*
X-8765000Y123235000D01*
X-8765000Y127691624D01*
X-8278919Y127691624D01*
X-8278919Y127308376D01*
X-8204151Y126932493D01*
X-8057489Y126578419D01*
X-7844568Y126259761D01*
X-7573572Y125988765D01*
X-7254914Y125775844D01*
X-6900840Y125629182D01*
X-6524957Y125554414D01*
X-6141709Y125554414D01*
X-5765826Y125629182D01*
X-5411752Y125775844D01*
X-5093094Y125988765D01*
X-4822098Y126259761D01*
X-4685700Y126463896D01*
X-3901666Y126463896D01*
X-3898539Y126432152D01*
X-3898604Y126422914D01*
X-3897603Y126412701D01*
X-3867003Y126121556D01*
X-3853600Y126056262D01*
X-3841124Y125990862D01*
X-3838159Y125981038D01*
X-3751591Y125701382D01*
X-3725768Y125639952D01*
X-3700820Y125578203D01*
X-3696002Y125569142D01*
X-3556763Y125311626D01*
X-3519493Y125256371D01*
X-3483035Y125200658D01*
X-3476550Y125192705D01*
X-3289944Y124967138D01*
X-3242657Y124920179D01*
X-3196066Y124872602D01*
X-3188159Y124866060D01*
X-2961295Y124681034D01*
X-2905787Y124644155D01*
X-2850842Y124606533D01*
X-2841815Y124601652D01*
X-2583334Y124464215D01*
X-2521728Y124438822D01*
X-2460514Y124412586D01*
X-2450711Y124409551D01*
X-2170457Y124324937D01*
X-2105067Y124311990D01*
X-2039947Y124298148D01*
X-2029743Y124297075D01*
X-2029741Y124297075D01*
X-1738389Y124268508D01*
X-1702771Y124265000D01*
X1702771Y124265000D01*
X1734515Y124268127D01*
X1743752Y124268062D01*
X1753965Y124269063D01*
X2045110Y124299663D01*
X2110404Y124313066D01*
X2175804Y124325542D01*
X2185628Y124328507D01*
X2465284Y124415075D01*
X2526714Y124440898D01*
X2588463Y124465846D01*
X2597524Y124470664D01*
X2855040Y124609903D01*
X2910295Y124647173D01*
X2966008Y124683631D01*
X2973961Y124690116D01*
X3199528Y124876722D01*
X3246487Y124924009D01*
X3294064Y124970600D01*
X3300606Y124978507D01*
X3485632Y125205371D01*
X3522511Y125260879D01*
X3560133Y125315824D01*
X3565014Y125324851D01*
X3702451Y125583332D01*
X3727844Y125644938D01*
X3754080Y125706152D01*
X3757115Y125715955D01*
X3841729Y125996209D01*
X3854676Y126061599D01*
X3868518Y126126719D01*
X3869591Y126136925D01*
X3898158Y126428277D01*
X3901666Y126463895D01*
X3901666Y127691624D01*
X4387747Y127691624D01*
X4387747Y127308376D01*
X4462515Y126932493D01*
X4609177Y126578419D01*
X4822098Y126259761D01*
X5093094Y125988765D01*
X5411752Y125775844D01*
X5765826Y125629182D01*
X6141709Y125554414D01*
X6524957Y125554414D01*
X6900840Y125629182D01*
X7254914Y125775844D01*
X7573572Y125988765D01*
X7844568Y126259761D01*
X8057489Y126578419D01*
X8204151Y126932493D01*
X8278919Y127308376D01*
X8278919Y127691624D01*
X8204151Y128067507D01*
X8057489Y128421581D01*
X7844568Y128740239D01*
X7573572Y129011235D01*
X7254914Y129224156D01*
X6900840Y129370818D01*
X6524957Y129445586D01*
X6141709Y129445586D01*
X5765826Y129370818D01*
X5411752Y129224156D01*
X5093094Y129011235D01*
X4822098Y128740239D01*
X4609177Y128421581D01*
X4462515Y128067507D01*
X4387747Y127691624D01*
X3901666Y127691624D01*
X3901666Y128536105D01*
X3898539Y128567849D01*
X3898604Y128577085D01*
X3897603Y128587299D01*
X3867003Y128878444D01*
X3853593Y128943770D01*
X3841124Y129009138D01*
X3838159Y129018963D01*
X3751591Y129298618D01*
X3725763Y129360060D01*
X3700820Y129421797D01*
X3696002Y129430858D01*
X3556763Y129688374D01*
X3519508Y129743606D01*
X3483035Y129799342D01*
X3476550Y129807295D01*
X3289945Y130032862D01*
X3242638Y130079840D01*
X3196066Y130127398D01*
X3188159Y130133940D01*
X2961295Y130318966D01*
X2905787Y130355845D01*
X2850842Y130393467D01*
X2841815Y130398348D01*
X2583334Y130535785D01*
X2521754Y130561167D01*
X2460515Y130587414D01*
X2450711Y130590449D01*
X2170457Y130675063D01*
X2105067Y130688010D01*
X2039947Y130701852D01*
X2029743Y130702925D01*
X2029741Y130702925D01*
X1738389Y130731492D01*
X1702771Y130735000D01*
X-1702771Y130735000D01*
X-1734515Y130731873D01*
X-1743751Y130731938D01*
X-1753965Y130730937D01*
X-2045110Y130700337D01*
X-2110436Y130686927D01*
X-2175804Y130674458D01*
X-2185629Y130671493D01*
X-2465284Y130584925D01*
X-2526726Y130559097D01*
X-2588463Y130534154D01*
X-2597519Y130529339D01*
X-2597523Y130529337D01*
X-2597524Y130529336D01*
X-2855040Y130390097D01*
X-2910272Y130352842D01*
X-2966008Y130316369D01*
X-2973961Y130309884D01*
X-3199528Y130123279D01*
X-3246506Y130075972D01*
X-3294064Y130029400D01*
X-3300606Y130021493D01*
X-3485632Y129794629D01*
X-3522511Y129739121D01*
X-3560133Y129684176D01*
X-3565014Y129675149D01*
X-3702451Y129416668D01*
X-3727833Y129355088D01*
X-3754080Y129293849D01*
X-3757115Y129284045D01*
X-3841729Y129003791D01*
X-3854676Y128938401D01*
X-3868518Y128873281D01*
X-3869591Y128863075D01*
X-3898158Y128571723D01*
X-3898158Y128571713D01*
X-3901665Y128536105D01*
X-3901666Y126463896D01*
X-4685700Y126463896D01*
X-4609177Y126578419D01*
X-4462515Y126932493D01*
X-4387747Y127308376D01*
X-4387747Y127691624D01*
X-4462515Y128067507D01*
X-4609177Y128421581D01*
X-4822098Y128740239D01*
X-5093094Y129011235D01*
X-5411752Y129224156D01*
X-5765826Y129370818D01*
X-6141709Y129445586D01*
X-6524957Y129445586D01*
X-6900840Y129370818D01*
X-7254914Y129224156D01*
X-7573572Y129011235D01*
X-7844568Y128740239D01*
X-8057489Y128421581D01*
X-8204151Y128067507D01*
X-8278919Y127691624D01*
X-8765000Y127691624D01*
X-8765000Y133620348D01*
X-8766480Y133635378D01*
X-8799318Y134434686D01*
X-8803277Y134472657D01*
X-8806407Y134510683D01*
X-8987802Y135753324D01*
X-9006843Y135843640D01*
X-9006843Y135843641D01*
X-9342552Y137053748D01*
X-9372763Y137140966D01*
X-9372766Y137140972D01*
X-9460226Y137350000D01*
X-4988072Y137350000D01*
X-4975812Y137225518D01*
X-4939502Y137105820D01*
X-4880537Y136995506D01*
X-4801185Y136898815D01*
X-4704494Y136819463D01*
X-4594180Y136760498D01*
X-4474482Y136724188D01*
X-4350000Y136711928D01*
X-3810750Y136715000D01*
X-3652000Y136873750D01*
X-3652000Y137873000D01*
X-3398000Y137873000D01*
X-3398000Y136873750D01*
X-3239250Y136715000D01*
X-2700000Y136711928D01*
X-2575518Y136724188D01*
X-2455820Y136760498D01*
X-2345506Y136819463D01*
X-2248815Y136898815D01*
X-2169463Y136995506D01*
X-2110498Y137105820D01*
X-2074188Y137225518D01*
X-2061928Y137350000D01*
X2061928Y137350000D01*
X2074188Y137225518D01*
X2110498Y137105820D01*
X2169463Y136995506D01*
X2248815Y136898815D01*
X2345506Y136819463D01*
X2455820Y136760498D01*
X2575518Y136724188D01*
X2700000Y136711928D01*
X3239250Y136715000D01*
X3398000Y136873750D01*
X3398000Y137873000D01*
X3652000Y137873000D01*
X3652000Y136873750D01*
X3810750Y136715000D01*
X4350000Y136711928D01*
X4474482Y136724188D01*
X4594180Y136760498D01*
X4704494Y136819463D01*
X4801185Y136898815D01*
X4880537Y136995506D01*
X4939502Y137105820D01*
X4975812Y137225518D01*
X4988072Y137350000D01*
X4985000Y137714250D01*
X4826250Y137873000D01*
X3652000Y137873000D01*
X3398000Y137873000D01*
X2223750Y137873000D01*
X2065000Y137714250D01*
X2061928Y137350000D01*
X-2061928Y137350000D01*
X-2065000Y137714250D01*
X-2223750Y137873000D01*
X-3398000Y137873000D01*
X-3652000Y137873000D01*
X-4826250Y137873000D01*
X-4985000Y137714250D01*
X-4988072Y137350000D01*
X-9460226Y137350000D01*
X-9857491Y138299455D01*
X-9898395Y138382199D01*
X-10052419Y138650000D01*
X-4988072Y138650000D01*
X-4985000Y138285750D01*
X-4826250Y138127000D01*
X-3652000Y138127000D01*
X-3652000Y139126250D01*
X-3810750Y139285000D01*
X-4350000Y139288072D01*
X-4474482Y139275812D01*
X-4594180Y139239502D01*
X-4704494Y139180537D01*
X-4801185Y139101185D01*
X-4880537Y139004494D01*
X-4939502Y138894180D01*
X-4975812Y138774482D01*
X-4988072Y138650000D01*
X-10052419Y138650000D01*
X-10524491Y139470789D01*
X-10524497Y139470801D01*
X-10575449Y139547766D01*
X-11314661Y140525000D01*
X-6138072Y140525000D01*
X-6125812Y140400518D01*
X-6089502Y140280820D01*
X-6030537Y140170506D01*
X-5951185Y140073815D01*
X-5854494Y139994463D01*
X-5744180Y139935498D01*
X-5624482Y139899188D01*
X-5500000Y139886928D01*
X-5335750Y139890000D01*
X-5177000Y140048750D01*
X-5177000Y140873000D01*
X-5976250Y140873000D01*
X-6135000Y140714250D01*
X-6138072Y140525000D01*
X-11314661Y140525000D01*
X-11333053Y140549313D01*
X-11393250Y140619285D01*
X-12270407Y141517981D01*
X-12338898Y141579857D01*
X-13321775Y142361530D01*
X-13353980Y142383992D01*
X-13397482Y142414334D01*
X-14470579Y143066655D01*
X-14526492Y143096003D01*
X-14552306Y143109553D01*
X-15698698Y143622237D01*
X-15785157Y143654554D01*
X-15785162Y143654555D01*
X-16986766Y144019514D01*
X-17076595Y144040740D01*
X-18314471Y144252220D01*
X-18324988Y144253343D01*
X-18406251Y144262020D01*
X-19660871Y144316686D01*
X-19753156Y144314906D01*
X-20994925Y144212702D01*
X-21021125Y144211252D01*
X-22779262Y143939284D01*
X-23648925Y149260598D01*
X-18884736Y149260598D01*
X-18882227Y149096326D01*
X-18819965Y148549861D01*
X-18785456Y148389236D01*
X-18720274Y148238429D01*
X-18626924Y148103236D01*
X-18508992Y147988852D01*
X-18371012Y147899674D01*
X-18218284Y147839128D01*
X-18056680Y147809540D01*
X-17892408Y147812049D01*
X-17778875Y147824984D01*
X-13942890Y143988998D01*
X-13919091Y143959999D01*
X-13803366Y143865026D01*
X-13671337Y143794454D01*
X-13528076Y143750997D01*
X-13416423Y143740000D01*
X-13416415Y143740000D01*
X-13379090Y143736324D01*
X-13341765Y143740000D01*
X-7314801Y143740000D01*
X-5663713Y142088911D01*
X-5744180Y142064502D01*
X-5854494Y142005537D01*
X-5951185Y141926185D01*
X-6030537Y141829494D01*
X-6089502Y141719180D01*
X-6125812Y141599482D01*
X-6138072Y141475000D01*
X-6135000Y141285750D01*
X-5976250Y141127000D01*
X-5177000Y141127000D01*
X-5177000Y141147000D01*
X-4968485Y141147000D01*
X-4926898Y141129774D01*
X-4923000Y141128999D01*
X-4923000Y141127000D01*
X-4912952Y141127000D01*
X-4903000Y141125020D01*
X-4903000Y140873000D01*
X-4923000Y140873000D01*
X-4923000Y140048750D01*
X-4764250Y139890000D01*
X-4600000Y139886928D01*
X-4475518Y139899188D01*
X-4355820Y139935498D01*
X-4245506Y139994463D01*
X-4201351Y140030700D01*
X-4055283Y139952625D01*
X-3893377Y139903512D01*
X-3725000Y139886928D01*
X-3461730Y139886928D01*
X-3127000Y139552198D01*
X-3127000Y139285639D01*
X-3239250Y139285000D01*
X-3398000Y139126250D01*
X-3398000Y138127000D01*
X-2223750Y138127000D01*
X-2065000Y138285750D01*
X-2061928Y138650000D01*
X2061928Y138650000D01*
X2065000Y138285750D01*
X2223750Y138127000D01*
X3398000Y138127000D01*
X3398000Y139126250D01*
X3652000Y139126250D01*
X3652000Y138127000D01*
X4826250Y138127000D01*
X4985000Y138285750D01*
X4988072Y138650000D01*
X4975812Y138774482D01*
X4939502Y138894180D01*
X4880537Y139004494D01*
X4801185Y139101185D01*
X4704494Y139180537D01*
X4594180Y139239502D01*
X4474482Y139275812D01*
X4350000Y139288072D01*
X3810750Y139285000D01*
X3652000Y139126250D01*
X3398000Y139126250D01*
X3239250Y139285000D01*
X2700000Y139288072D01*
X2575518Y139275812D01*
X2455820Y139239502D01*
X2345506Y139180537D01*
X2248815Y139101185D01*
X2169463Y139004494D01*
X2110498Y138894180D01*
X2074188Y138774482D01*
X2061928Y138650000D01*
X-2061928Y138650000D01*
X-2074188Y138774482D01*
X-2110498Y138894180D01*
X-2123000Y138917569D01*
X-2123000Y139240000D01*
X-1981046Y139240000D01*
X-1930537Y139145506D01*
X-1851185Y139048815D01*
X-1754494Y138969463D01*
X-1644180Y138910498D01*
X-1524482Y138874188D01*
X-1400000Y138861928D01*
X-1100000Y138861928D01*
X-1000000Y138871777D01*
X-900000Y138861928D01*
X-600000Y138861928D01*
X-500000Y138871777D01*
X-400000Y138861928D01*
X-100000Y138861928D01*
X0Y138871777D01*
X100000Y138861928D01*
X400000Y138861928D01*
X500000Y138871777D01*
X600000Y138861928D01*
X900000Y138861928D01*
X1004058Y138872176D01*
X1068250Y138865000D01*
X1100497Y138897247D01*
X1144180Y138910498D01*
X1254494Y138969463D01*
X1294475Y139002275D01*
X1431750Y138865000D01*
X1536609Y138876723D01*
X1655579Y138915350D01*
X1764728Y138976445D01*
X1859860Y139057660D01*
X1937320Y139155874D01*
X1994131Y139267312D01*
X2028111Y139387692D01*
X2037952Y139512388D01*
X2035000Y139714250D01*
X1876250Y139873000D01*
X1538072Y139873000D01*
X1538072Y140127000D01*
X1876250Y140127000D01*
X2035000Y140285750D01*
X2037952Y140487612D01*
X2028111Y140612308D01*
X1994131Y140732688D01*
X1937320Y140844126D01*
X1859860Y140942340D01*
X1764728Y141023555D01*
X1665377Y141079166D01*
X5188151Y144601939D01*
X7965000Y144601939D01*
X7965000Y144398061D01*
X8004774Y144198102D01*
X8082795Y144009744D01*
X8196063Y143840226D01*
X8340226Y143696063D01*
X8509744Y143582795D01*
X8698102Y143504774D01*
X8898061Y143465000D01*
X9101939Y143465000D01*
X9301898Y143504774D01*
X9490256Y143582795D01*
X9659774Y143696063D01*
X9703711Y143740000D01*
X13343034Y143740000D01*
X13380356Y143736324D01*
X13417678Y143740000D01*
X13417689Y143740000D01*
X13529342Y143750997D01*
X13672603Y143794454D01*
X13804632Y143865026D01*
X13920357Y143959999D01*
X13944160Y143989003D01*
X17778576Y147823418D01*
X17890274Y147810494D01*
X18054542Y147807699D01*
X18216198Y147837004D01*
X18369031Y147897283D01*
X18507167Y147986221D01*
X18625298Y148100399D01*
X18718884Y148235429D01*
X18784329Y148386122D01*
X18819118Y148546687D01*
X18882333Y149093042D01*
X18885129Y149257308D01*
X18855824Y149418964D01*
X18795544Y149571797D01*
X18706607Y149709933D01*
X18592429Y149828064D01*
X18579533Y149837002D01*
X18579533Y150069270D01*
X18626924Y150115235D01*
X18720274Y150250428D01*
X18785456Y150401236D01*
X18819965Y150561861D01*
X18882227Y151108326D01*
X18884736Y151272599D01*
X18855148Y151434203D01*
X18794602Y151586931D01*
X18705424Y151724911D01*
X18591040Y151842843D01*
X18455847Y151936193D01*
X18305040Y152001375D01*
X18144414Y152035884D01*
X17746986Y152081165D01*
X17582715Y152083674D01*
X17421110Y152054087D01*
X17268383Y151993540D01*
X17130402Y151904362D01*
X17093748Y151868811D01*
X17066030Y151911697D01*
X16951646Y152029629D01*
X16816453Y152122979D01*
X16665646Y152188161D01*
X16505020Y152222670D01*
X16107592Y152267951D01*
X15943321Y152270460D01*
X15875989Y152258133D01*
X15857029Y152260000D01*
X15857018Y152260000D01*
X15819696Y152263676D01*
X15782374Y152260000D01*
X14953711Y152260000D01*
X14909774Y152303937D01*
X14740256Y152417205D01*
X14551898Y152495226D01*
X14351939Y152535000D01*
X14148061Y152535000D01*
X13948102Y152495226D01*
X13759744Y152417205D01*
X13590226Y152303937D01*
X13446063Y152159774D01*
X13332795Y151990256D01*
X13254774Y151801898D01*
X13215000Y151601939D01*
X13215000Y151398061D01*
X13254774Y151198102D01*
X13332795Y151009744D01*
X13446063Y150840226D01*
X13590226Y150696063D01*
X13759744Y150582795D01*
X13948102Y150504774D01*
X13972103Y150500000D01*
X13948102Y150495226D01*
X13759744Y150417205D01*
X13590226Y150303937D01*
X13446063Y150159774D01*
X13332795Y149990256D01*
X13254774Y149801898D01*
X13215000Y149601939D01*
X13215000Y149398061D01*
X13254774Y149198102D01*
X13332795Y149009744D01*
X13446063Y148840226D01*
X13590226Y148696063D01*
X13759744Y148582795D01*
X13948102Y148504774D01*
X14148061Y148465000D01*
X14351939Y148465000D01*
X14551898Y148504774D01*
X14740256Y148582795D01*
X14909774Y148696063D01*
X14953711Y148740000D01*
X15127686Y148740000D01*
X15144176Y148649036D01*
X15204456Y148496203D01*
X15293393Y148358067D01*
X15407571Y148239936D01*
X15542601Y148146349D01*
X15693294Y148080904D01*
X15852059Y148046505D01*
X13065555Y145260000D01*
X9703711Y145260000D01*
X9659774Y145303937D01*
X9490256Y145417205D01*
X9301898Y145495226D01*
X9101939Y145535000D01*
X8898061Y145535000D01*
X8698102Y145495226D01*
X8509744Y145417205D01*
X8340226Y145303937D01*
X8196063Y145159774D01*
X8082795Y144990256D01*
X8004774Y144801898D01*
X7965000Y144601939D01*
X5188151Y144601939D01*
X6551213Y145965000D01*
X6601939Y145965000D01*
X6801898Y146004774D01*
X6990256Y146082795D01*
X7159774Y146196063D01*
X7303937Y146340226D01*
X7417205Y146509744D01*
X7495226Y146698102D01*
X7535000Y146898061D01*
X7535000Y147101939D01*
X7495226Y147301898D01*
X7417205Y147490256D01*
X7303937Y147659774D01*
X7159774Y147803937D01*
X6990256Y147917205D01*
X6801898Y147995226D01*
X6601939Y148035000D01*
X6398061Y148035000D01*
X6198102Y147995226D01*
X6009744Y147917205D01*
X5840226Y147803937D01*
X5696063Y147659774D01*
X5582795Y147490256D01*
X5504774Y147301898D01*
X5465000Y147101939D01*
X5465000Y147028391D01*
X3584920Y145148311D01*
X3584920Y147655314D01*
X4645179Y148715573D01*
X4648061Y148715000D01*
X4851939Y148715000D01*
X5051898Y148754774D01*
X5240256Y148832795D01*
X5409774Y148946063D01*
X5553937Y149090226D01*
X5667205Y149259744D01*
X5745226Y149448102D01*
X5785000Y149648061D01*
X5785000Y149851939D01*
X5745226Y150051898D01*
X5667205Y150240256D01*
X5553937Y150409774D01*
X5409774Y150553937D01*
X5240256Y150667205D01*
X5051898Y150745226D01*
X4877000Y150780015D01*
X4877000Y150969985D01*
X5051898Y151004774D01*
X5240256Y151082795D01*
X5409774Y151196063D01*
X5553937Y151340226D01*
X5667205Y151509744D01*
X5745226Y151698102D01*
X5785000Y151898061D01*
X5785000Y152101939D01*
X5745226Y152301898D01*
X5667205Y152490256D01*
X5553937Y152659774D01*
X5409774Y152803937D01*
X5240256Y152917205D01*
X5051898Y152995226D01*
X4851939Y153035000D01*
X4648061Y153035000D01*
X4448102Y152995226D01*
X4259744Y152917205D01*
X4090226Y152803937D01*
X4021770Y152735481D01*
X3706494Y152735481D01*
X3629563Y152831936D01*
X3504032Y152937924D01*
X3360236Y153017386D01*
X3203701Y153067268D01*
X3040442Y153085652D01*
X2640481Y153091237D01*
X2476771Y153077418D01*
X2318904Y153031927D01*
X2172946Y152956511D01*
X2044504Y152854069D01*
X2011563Y152815054D01*
X1979723Y152854974D01*
X1854192Y152960962D01*
X1710396Y153040424D01*
X1553861Y153090306D01*
X1390602Y153108690D01*
X990641Y153114275D01*
X826931Y153100456D01*
X669064Y153054965D01*
X523106Y152979549D01*
X394664Y152877107D01*
X288676Y152751576D01*
X209215Y152607780D01*
X159333Y152451245D01*
X140949Y152287986D01*
X133270Y151738039D01*
X147089Y151574331D01*
X192580Y151416464D01*
X267995Y151270505D01*
X370437Y151142064D01*
X415080Y151104371D01*
X415081Y150893391D01*
X394664Y150877107D01*
X288676Y150751576D01*
X209215Y150607780D01*
X159333Y150451245D01*
X140949Y150287986D01*
X139926Y150214728D01*
X0Y150074801D01*
X-139568Y150214369D01*
X-140428Y150284742D01*
X-158527Y150448032D01*
X-208136Y150604654D01*
X-287346Y150748589D01*
X-393115Y150874304D01*
X-415080Y150891886D01*
X-415080Y151080610D01*
X-394664Y151096893D01*
X-288676Y151222424D01*
X-209215Y151366220D01*
X-159333Y151522755D01*
X-140949Y151686014D01*
X-133270Y152235961D01*
X-147089Y152399669D01*
X-192580Y152557536D01*
X-267995Y152703495D01*
X-370437Y152831936D01*
X-495968Y152937924D01*
X-639764Y153017386D01*
X-796299Y153067268D01*
X-959558Y153085652D01*
X-1359519Y153091237D01*
X-1523229Y153077418D01*
X-1681096Y153031927D01*
X-1827054Y152956511D01*
X-1955496Y152854069D01*
X-1988437Y152815054D01*
X-2020277Y152854974D01*
X-2145808Y152960962D01*
X-2289604Y153040424D01*
X-2446139Y153090306D01*
X-2609398Y153108690D01*
X-3009359Y153114275D01*
X-3173069Y153100456D01*
X-3330936Y153054965D01*
X-3476894Y152979549D01*
X-3605336Y152877107D01*
X-3705462Y152758519D01*
X-4044808Y152758519D01*
X-4090226Y152803937D01*
X-4259744Y152917205D01*
X-4448102Y152995226D01*
X-4648061Y153035000D01*
X-4851939Y153035000D01*
X-5051898Y152995226D01*
X-5240256Y152917205D01*
X-5409774Y152803937D01*
X-5553937Y152659774D01*
X-5667205Y152490256D01*
X-5745226Y152301898D01*
X-5785000Y152101939D01*
X-5785000Y151898061D01*
X-5745226Y151698102D01*
X-5667205Y151509744D01*
X-5553937Y151340226D01*
X-5409774Y151196063D01*
X-5240256Y151082795D01*
X-5051898Y151004774D01*
X-5027897Y151000000D01*
X-5051898Y150995226D01*
X-5240256Y150917205D01*
X-5409774Y150803937D01*
X-5553937Y150659774D01*
X-5667205Y150490256D01*
X-5745226Y150301898D01*
X-5785000Y150101939D01*
X-5785000Y149898061D01*
X-5745226Y149698102D01*
X-5667205Y149509744D01*
X-5553937Y149340226D01*
X-5409774Y149196063D01*
X-5240256Y149082795D01*
X-5051898Y149004774D01*
X-4851939Y148965000D01*
X-4648061Y148965000D01*
X-4448102Y149004774D01*
X-4259744Y149082795D01*
X-4090226Y149196063D01*
X-4069368Y149216921D01*
X-3705511Y149216921D01*
X-3606885Y149099696D01*
X-3584937Y149082128D01*
X-3584938Y145159740D01*
X-5465000Y147039801D01*
X-5465000Y147101939D01*
X-5504774Y147301898D01*
X-5582795Y147490256D01*
X-5696063Y147659774D01*
X-5840226Y147803937D01*
X-6009744Y147917205D01*
X-6198102Y147995226D01*
X-6398061Y148035000D01*
X-6601939Y148035000D01*
X-6801898Y147995226D01*
X-6990256Y147917205D01*
X-7159774Y147803937D01*
X-7303937Y147659774D01*
X-7417205Y147490256D01*
X-7495226Y147301898D01*
X-7535000Y147101939D01*
X-7535000Y146898061D01*
X-7495226Y146698102D01*
X-7417205Y146509744D01*
X-7377000Y146449573D01*
X-7377000Y145260000D01*
X-13064288Y145260000D01*
X-15849675Y148045386D01*
X-15694960Y148078625D01*
X-15544152Y148143807D01*
X-15408959Y148237157D01*
X-15294576Y148355089D01*
X-15207382Y148490000D01*
X-14953711Y148490000D01*
X-14909774Y148446063D01*
X-14740256Y148332795D01*
X-14551898Y148254774D01*
X-14351939Y148215000D01*
X-14148061Y148215000D01*
X-13948102Y148254774D01*
X-13759744Y148332795D01*
X-13590226Y148446063D01*
X-13446063Y148590226D01*
X-13332795Y148759744D01*
X-13254774Y148948102D01*
X-13215000Y149148061D01*
X-13215000Y149351939D01*
X-13254774Y149551898D01*
X-13332795Y149740256D01*
X-13446063Y149909774D01*
X-13590226Y150053937D01*
X-13759744Y150167205D01*
X-13948102Y150245226D01*
X-13972103Y150250000D01*
X-13948102Y150254774D01*
X-13759744Y150332795D01*
X-13590226Y150446063D01*
X-13446063Y150590226D01*
X-13332795Y150759744D01*
X-13254774Y150948102D01*
X-13215000Y151148061D01*
X-13215000Y151351939D01*
X-13254774Y151551898D01*
X-13332795Y151740256D01*
X-13446063Y151909774D01*
X-13590226Y152053937D01*
X-13759744Y152167205D01*
X-13948102Y152245226D01*
X-14148061Y152285000D01*
X-14351939Y152285000D01*
X-14551898Y152245226D01*
X-14740256Y152167205D01*
X-14909774Y152053937D01*
X-14953711Y152010000D01*
X-15408520Y152010000D01*
X-15489186Y152088513D01*
X-15627011Y152177932D01*
X-15779632Y152238744D01*
X-15941185Y152268613D01*
X-16105461Y152266391D01*
X-16502969Y152221803D01*
X-16663654Y152187575D01*
X-16814575Y152122656D01*
X-16949930Y152029542D01*
X-17064520Y151911810D01*
X-17092312Y151868974D01*
X-17128904Y151904589D01*
X-17266729Y151994008D01*
X-17419350Y152054820D01*
X-17580903Y152084689D01*
X-17745179Y152082467D01*
X-18142687Y152037879D01*
X-18303372Y152003651D01*
X-18454293Y151938732D01*
X-18589648Y151845618D01*
X-18704238Y151727886D01*
X-18793657Y151590061D01*
X-18854469Y151437439D01*
X-18884338Y151275887D01*
X-18882116Y151111611D01*
X-18820808Y150565039D01*
X-18786580Y150404353D01*
X-18721661Y150253432D01*
X-18628546Y150118076D01*
X-18579859Y150070688D01*
X-18579858Y149838564D01*
X-18591041Y149830843D01*
X-18705424Y149712911D01*
X-18794602Y149574930D01*
X-18855149Y149422203D01*
X-18884736Y149260598D01*
X-23648925Y149260598D01*
X-24154198Y152352272D01*
X-20087041Y152951538D01*
X-15272789Y153507017D01*
X-10443479Y153911000D01*
X-5603875Y154163091D01*
X-758704Y154263043D01*
X4087179Y154210755D01*
G04 #@! TA.AperFunction,Conductor*
D16*
G36*
X4087179Y154210755D02*
G01*
X8929016Y154006282D01*
X13762084Y153649820D01*
X18581542Y153141727D01*
X23386604Y152481960D01*
X24155489Y152360180D01*
X22779262Y143939284D01*
X21021125Y144211252D01*
X21002913Y144212260D01*
X20204128Y144295547D01*
X20165985Y144297114D01*
X20127905Y144299510D01*
X18872095Y144299510D01*
X18779975Y144293714D01*
X17534069Y144136320D01*
X17534067Y144136320D01*
X17443400Y144119025D01*
X16227043Y143806717D01*
X16189303Y143794454D01*
X16139259Y143778194D01*
X14971636Y143315900D01*
X14901485Y143282889D01*
X14888118Y143276599D01*
X13787643Y142671607D01*
X13777234Y142665001D01*
X13709710Y142622150D01*
X12693738Y141884002D01*
X12622618Y141825167D01*
X11707172Y140965506D01*
X11643987Y140898221D01*
X10843504Y139930604D01*
X10843503Y139930603D01*
X10789249Y139855929D01*
X10116352Y138795613D01*
X10091276Y138750000D01*
X10071885Y138714728D01*
X9537187Y137578437D01*
X9517307Y137528224D01*
X9503209Y137492617D01*
X9115141Y136298270D01*
X9092187Y136208868D01*
X9092187Y136208867D01*
X8856872Y134975300D01*
X8845303Y134883726D01*
X8767264Y133643340D01*
X8765000Y133620348D01*
X8764999Y123235000D01*
X-8765000Y123235000D01*
X-8765000Y127691624D01*
X-8278919Y127691624D01*
X-8278919Y127308376D01*
X-8204151Y126932493D01*
X-8057489Y126578419D01*
X-7844568Y126259761D01*
X-7573572Y125988765D01*
X-7254914Y125775844D01*
X-6900840Y125629182D01*
X-6524957Y125554414D01*
X-6141709Y125554414D01*
X-5765826Y125629182D01*
X-5411752Y125775844D01*
X-5093094Y125988765D01*
X-4822098Y126259761D01*
X-4685700Y126463896D01*
X-3901666Y126463896D01*
X-3898539Y126432152D01*
X-3898604Y126422914D01*
X-3897603Y126412701D01*
X-3867003Y126121556D01*
X-3853600Y126056262D01*
X-3841124Y125990862D01*
X-3838159Y125981038D01*
X-3751591Y125701382D01*
X-3725768Y125639952D01*
X-3700820Y125578203D01*
X-3696002Y125569142D01*
X-3556763Y125311626D01*
X-3519493Y125256371D01*
X-3483035Y125200658D01*
X-3476550Y125192705D01*
X-3289944Y124967138D01*
X-3242657Y124920179D01*
X-3196066Y124872602D01*
X-3188159Y124866060D01*
X-2961295Y124681034D01*
X-2905787Y124644155D01*
X-2850842Y124606533D01*
X-2841815Y124601652D01*
X-2583334Y124464215D01*
X-2521728Y124438822D01*
X-2460514Y124412586D01*
X-2450711Y124409551D01*
X-2170457Y124324937D01*
X-2105067Y124311990D01*
X-2039947Y124298148D01*
X-2029743Y124297075D01*
X-2029741Y124297075D01*
X-1738389Y124268508D01*
X-1702771Y124265000D01*
X1702771Y124265000D01*
X1734515Y124268127D01*
X1743752Y124268062D01*
X1753965Y124269063D01*
X2045110Y124299663D01*
X2110404Y124313066D01*
X2175804Y124325542D01*
X2185628Y124328507D01*
X2465284Y124415075D01*
X2526714Y124440898D01*
X2588463Y124465846D01*
X2597524Y124470664D01*
X2855040Y124609903D01*
X2910295Y124647173D01*
X2966008Y124683631D01*
X2973961Y124690116D01*
X3199528Y124876722D01*
X3246487Y124924009D01*
X3294064Y124970600D01*
X3300606Y124978507D01*
X3485632Y125205371D01*
X3522511Y125260879D01*
X3560133Y125315824D01*
X3565014Y125324851D01*
X3702451Y125583332D01*
X3727844Y125644938D01*
X3754080Y125706152D01*
X3757115Y125715955D01*
X3841729Y125996209D01*
X3854676Y126061599D01*
X3868518Y126126719D01*
X3869591Y126136925D01*
X3898158Y126428277D01*
X3901666Y126463895D01*
X3901666Y127691624D01*
X4387747Y127691624D01*
X4387747Y127308376D01*
X4462515Y126932493D01*
X4609177Y126578419D01*
X4822098Y126259761D01*
X5093094Y125988765D01*
X5411752Y125775844D01*
X5765826Y125629182D01*
X6141709Y125554414D01*
X6524957Y125554414D01*
X6900840Y125629182D01*
X7254914Y125775844D01*
X7573572Y125988765D01*
X7844568Y126259761D01*
X8057489Y126578419D01*
X8204151Y126932493D01*
X8278919Y127308376D01*
X8278919Y127691624D01*
X8204151Y128067507D01*
X8057489Y128421581D01*
X7844568Y128740239D01*
X7573572Y129011235D01*
X7254914Y129224156D01*
X6900840Y129370818D01*
X6524957Y129445586D01*
X6141709Y129445586D01*
X5765826Y129370818D01*
X5411752Y129224156D01*
X5093094Y129011235D01*
X4822098Y128740239D01*
X4609177Y128421581D01*
X4462515Y128067507D01*
X4387747Y127691624D01*
X3901666Y127691624D01*
X3901666Y128536105D01*
X3898539Y128567849D01*
X3898604Y128577085D01*
X3897603Y128587299D01*
X3867003Y128878444D01*
X3853593Y128943770D01*
X3841124Y129009138D01*
X3838159Y129018963D01*
X3751591Y129298618D01*
X3725763Y129360060D01*
X3700820Y129421797D01*
X3696002Y129430858D01*
X3556763Y129688374D01*
X3519508Y129743606D01*
X3483035Y129799342D01*
X3476550Y129807295D01*
X3289945Y130032862D01*
X3242638Y130079840D01*
X3196066Y130127398D01*
X3188159Y130133940D01*
X2961295Y130318966D01*
X2905787Y130355845D01*
X2850842Y130393467D01*
X2841815Y130398348D01*
X2583334Y130535785D01*
X2521754Y130561167D01*
X2460515Y130587414D01*
X2450711Y130590449D01*
X2170457Y130675063D01*
X2105067Y130688010D01*
X2039947Y130701852D01*
X2029743Y130702925D01*
X2029741Y130702925D01*
X1738389Y130731492D01*
X1702771Y130735000D01*
X-1702771Y130735000D01*
X-1734515Y130731873D01*
X-1743751Y130731938D01*
X-1753965Y130730937D01*
X-2045110Y130700337D01*
X-2110436Y130686927D01*
X-2175804Y130674458D01*
X-2185629Y130671493D01*
X-2465284Y130584925D01*
X-2526726Y130559097D01*
X-2588463Y130534154D01*
X-2597519Y130529339D01*
X-2597523Y130529337D01*
X-2597524Y130529336D01*
X-2855040Y130390097D01*
X-2910272Y130352842D01*
X-2966008Y130316369D01*
X-2973961Y130309884D01*
X-3199528Y130123279D01*
X-3246506Y130075972D01*
X-3294064Y130029400D01*
X-3300606Y130021493D01*
X-3485632Y129794629D01*
X-3522511Y129739121D01*
X-3560133Y129684176D01*
X-3565014Y129675149D01*
X-3702451Y129416668D01*
X-3727833Y129355088D01*
X-3754080Y129293849D01*
X-3757115Y129284045D01*
X-3841729Y129003791D01*
X-3854676Y128938401D01*
X-3868518Y128873281D01*
X-3869591Y128863075D01*
X-3898158Y128571723D01*
X-3898158Y128571713D01*
X-3901665Y128536105D01*
X-3901666Y126463896D01*
X-4685700Y126463896D01*
X-4609177Y126578419D01*
X-4462515Y126932493D01*
X-4387747Y127308376D01*
X-4387747Y127691624D01*
X-4462515Y128067507D01*
X-4609177Y128421581D01*
X-4822098Y128740239D01*
X-5093094Y129011235D01*
X-5411752Y129224156D01*
X-5765826Y129370818D01*
X-6141709Y129445586D01*
X-6524957Y129445586D01*
X-6900840Y129370818D01*
X-7254914Y129224156D01*
X-7573572Y129011235D01*
X-7844568Y128740239D01*
X-8057489Y128421581D01*
X-8204151Y128067507D01*
X-8278919Y127691624D01*
X-8765000Y127691624D01*
X-8765000Y133620348D01*
X-8766480Y133635378D01*
X-8799318Y134434686D01*
X-8803277Y134472657D01*
X-8806407Y134510683D01*
X-8987802Y135753324D01*
X-9006843Y135843640D01*
X-9006843Y135843641D01*
X-9342552Y137053748D01*
X-9372763Y137140966D01*
X-9372766Y137140972D01*
X-9460226Y137350000D01*
X-4988072Y137350000D01*
X-4975812Y137225518D01*
X-4939502Y137105820D01*
X-4880537Y136995506D01*
X-4801185Y136898815D01*
X-4704494Y136819463D01*
X-4594180Y136760498D01*
X-4474482Y136724188D01*
X-4350000Y136711928D01*
X-3810750Y136715000D01*
X-3652000Y136873750D01*
X-3652000Y137873000D01*
X-3398000Y137873000D01*
X-3398000Y136873750D01*
X-3239250Y136715000D01*
X-2700000Y136711928D01*
X-2575518Y136724188D01*
X-2455820Y136760498D01*
X-2345506Y136819463D01*
X-2248815Y136898815D01*
X-2169463Y136995506D01*
X-2110498Y137105820D01*
X-2074188Y137225518D01*
X-2061928Y137350000D01*
X2061928Y137350000D01*
X2074188Y137225518D01*
X2110498Y137105820D01*
X2169463Y136995506D01*
X2248815Y136898815D01*
X2345506Y136819463D01*
X2455820Y136760498D01*
X2575518Y136724188D01*
X2700000Y136711928D01*
X3239250Y136715000D01*
X3398000Y136873750D01*
X3398000Y137873000D01*
X3652000Y137873000D01*
X3652000Y136873750D01*
X3810750Y136715000D01*
X4350000Y136711928D01*
X4474482Y136724188D01*
X4594180Y136760498D01*
X4704494Y136819463D01*
X4801185Y136898815D01*
X4880537Y136995506D01*
X4939502Y137105820D01*
X4975812Y137225518D01*
X4988072Y137350000D01*
X4985000Y137714250D01*
X4826250Y137873000D01*
X3652000Y137873000D01*
X3398000Y137873000D01*
X2223750Y137873000D01*
X2065000Y137714250D01*
X2061928Y137350000D01*
X-2061928Y137350000D01*
X-2065000Y137714250D01*
X-2223750Y137873000D01*
X-3398000Y137873000D01*
X-3652000Y137873000D01*
X-4826250Y137873000D01*
X-4985000Y137714250D01*
X-4988072Y137350000D01*
X-9460226Y137350000D01*
X-9857491Y138299455D01*
X-9898395Y138382199D01*
X-10052419Y138650000D01*
X-4988072Y138650000D01*
X-4985000Y138285750D01*
X-4826250Y138127000D01*
X-3652000Y138127000D01*
X-3652000Y139126250D01*
X-3810750Y139285000D01*
X-4350000Y139288072D01*
X-4474482Y139275812D01*
X-4594180Y139239502D01*
X-4704494Y139180537D01*
X-4801185Y139101185D01*
X-4880537Y139004494D01*
X-4939502Y138894180D01*
X-4975812Y138774482D01*
X-4988072Y138650000D01*
X-10052419Y138650000D01*
X-10524491Y139470789D01*
X-10524497Y139470801D01*
X-10575449Y139547766D01*
X-11314661Y140525000D01*
X-6138072Y140525000D01*
X-6125812Y140400518D01*
X-6089502Y140280820D01*
X-6030537Y140170506D01*
X-5951185Y140073815D01*
X-5854494Y139994463D01*
X-5744180Y139935498D01*
X-5624482Y139899188D01*
X-5500000Y139886928D01*
X-5335750Y139890000D01*
X-5177000Y140048750D01*
X-5177000Y140873000D01*
X-5976250Y140873000D01*
X-6135000Y140714250D01*
X-6138072Y140525000D01*
X-11314661Y140525000D01*
X-11333053Y140549313D01*
X-11393250Y140619285D01*
X-12270407Y141517981D01*
X-12338898Y141579857D01*
X-13321775Y142361530D01*
X-13353980Y142383992D01*
X-13397482Y142414334D01*
X-14470579Y143066655D01*
X-14526492Y143096003D01*
X-14552306Y143109553D01*
X-15698698Y143622237D01*
X-15785157Y143654554D01*
X-15785162Y143654555D01*
X-16986766Y144019514D01*
X-17076595Y144040740D01*
X-18314471Y144252220D01*
X-18324988Y144253343D01*
X-18406251Y144262020D01*
X-19660871Y144316686D01*
X-19753156Y144314906D01*
X-20994925Y144212702D01*
X-21021125Y144211252D01*
X-22779262Y143939284D01*
X-23648925Y149260598D01*
X-18884736Y149260598D01*
X-18882227Y149096326D01*
X-18819965Y148549861D01*
X-18785456Y148389236D01*
X-18720274Y148238429D01*
X-18626924Y148103236D01*
X-18508992Y147988852D01*
X-18371012Y147899674D01*
X-18218284Y147839128D01*
X-18056680Y147809540D01*
X-17892408Y147812049D01*
X-17778875Y147824984D01*
X-13942890Y143988998D01*
X-13919091Y143959999D01*
X-13803366Y143865026D01*
X-13671337Y143794454D01*
X-13528076Y143750997D01*
X-13416423Y143740000D01*
X-13416415Y143740000D01*
X-13379090Y143736324D01*
X-13341765Y143740000D01*
X-7314801Y143740000D01*
X-5663713Y142088911D01*
X-5744180Y142064502D01*
X-5854494Y142005537D01*
X-5951185Y141926185D01*
X-6030537Y141829494D01*
X-6089502Y141719180D01*
X-6125812Y141599482D01*
X-6138072Y141475000D01*
X-6135000Y141285750D01*
X-5976250Y141127000D01*
X-5177000Y141127000D01*
X-5177000Y141147000D01*
X-4968485Y141147000D01*
X-4926898Y141129774D01*
X-4923000Y141128999D01*
X-4923000Y141127000D01*
X-4912952Y141127000D01*
X-4903000Y141125020D01*
X-4903000Y140873000D01*
X-4923000Y140873000D01*
X-4923000Y140048750D01*
X-4764250Y139890000D01*
X-4600000Y139886928D01*
X-4475518Y139899188D01*
X-4355820Y139935498D01*
X-4245506Y139994463D01*
X-4201351Y140030700D01*
X-4055283Y139952625D01*
X-3893377Y139903512D01*
X-3725000Y139886928D01*
X-3461730Y139886928D01*
X-3127000Y139552198D01*
X-3127000Y139285639D01*
X-3239250Y139285000D01*
X-3398000Y139126250D01*
X-3398000Y138127000D01*
X-2223750Y138127000D01*
X-2065000Y138285750D01*
X-2061928Y138650000D01*
X2061928Y138650000D01*
X2065000Y138285750D01*
X2223750Y138127000D01*
X3398000Y138127000D01*
X3398000Y139126250D01*
X3652000Y139126250D01*
X3652000Y138127000D01*
X4826250Y138127000D01*
X4985000Y138285750D01*
X4988072Y138650000D01*
X4975812Y138774482D01*
X4939502Y138894180D01*
X4880537Y139004494D01*
X4801185Y139101185D01*
X4704494Y139180537D01*
X4594180Y139239502D01*
X4474482Y139275812D01*
X4350000Y139288072D01*
X3810750Y139285000D01*
X3652000Y139126250D01*
X3398000Y139126250D01*
X3239250Y139285000D01*
X2700000Y139288072D01*
X2575518Y139275812D01*
X2455820Y139239502D01*
X2345506Y139180537D01*
X2248815Y139101185D01*
X2169463Y139004494D01*
X2110498Y138894180D01*
X2074188Y138774482D01*
X2061928Y138650000D01*
X-2061928Y138650000D01*
X-2074188Y138774482D01*
X-2110498Y138894180D01*
X-2123000Y138917569D01*
X-2123000Y139240000D01*
X-1981046Y139240000D01*
X-1930537Y139145506D01*
X-1851185Y139048815D01*
X-1754494Y138969463D01*
X-1644180Y138910498D01*
X-1524482Y138874188D01*
X-1400000Y138861928D01*
X-1100000Y138861928D01*
X-1000000Y138871777D01*
X-900000Y138861928D01*
X-600000Y138861928D01*
X-500000Y138871777D01*
X-400000Y138861928D01*
X-100000Y138861928D01*
X0Y138871777D01*
X100000Y138861928D01*
X400000Y138861928D01*
X500000Y138871777D01*
X600000Y138861928D01*
X900000Y138861928D01*
X1004058Y138872176D01*
X1068250Y138865000D01*
X1100497Y138897247D01*
X1144180Y138910498D01*
X1254494Y138969463D01*
X1294475Y139002275D01*
X1431750Y138865000D01*
X1536609Y138876723D01*
X1655579Y138915350D01*
X1764728Y138976445D01*
X1859860Y139057660D01*
X1937320Y139155874D01*
X1994131Y139267312D01*
X2028111Y139387692D01*
X2037952Y139512388D01*
X2035000Y139714250D01*
X1876250Y139873000D01*
X1538072Y139873000D01*
X1538072Y140127000D01*
X1876250Y140127000D01*
X2035000Y140285750D01*
X2037952Y140487612D01*
X2028111Y140612308D01*
X1994131Y140732688D01*
X1937320Y140844126D01*
X1859860Y140942340D01*
X1764728Y141023555D01*
X1665377Y141079166D01*
X5188151Y144601939D01*
X7965000Y144601939D01*
X7965000Y144398061D01*
X8004774Y144198102D01*
X8082795Y144009744D01*
X8196063Y143840226D01*
X8340226Y143696063D01*
X8509744Y143582795D01*
X8698102Y143504774D01*
X8898061Y143465000D01*
X9101939Y143465000D01*
X9301898Y143504774D01*
X9490256Y143582795D01*
X9659774Y143696063D01*
X9703711Y143740000D01*
X13343034Y143740000D01*
X13380356Y143736324D01*
X13417678Y143740000D01*
X13417689Y143740000D01*
X13529342Y143750997D01*
X13672603Y143794454D01*
X13804632Y143865026D01*
X13920357Y143959999D01*
X13944160Y143989003D01*
X17778576Y147823418D01*
X17890274Y147810494D01*
X18054542Y147807699D01*
X18216198Y147837004D01*
X18369031Y147897283D01*
X18507167Y147986221D01*
X18625298Y148100399D01*
X18718884Y148235429D01*
X18784329Y148386122D01*
X18819118Y148546687D01*
X18882333Y149093042D01*
X18885129Y149257308D01*
X18855824Y149418964D01*
X18795544Y149571797D01*
X18706607Y149709933D01*
X18592429Y149828064D01*
X18579533Y149837002D01*
X18579533Y150069270D01*
X18626924Y150115235D01*
X18720274Y150250428D01*
X18785456Y150401236D01*
X18819965Y150561861D01*
X18882227Y151108326D01*
X18884736Y151272599D01*
X18855148Y151434203D01*
X18794602Y151586931D01*
X18705424Y151724911D01*
X18591040Y151842843D01*
X18455847Y151936193D01*
X18305040Y152001375D01*
X18144414Y152035884D01*
X17746986Y152081165D01*
X17582715Y152083674D01*
X17421110Y152054087D01*
X17268383Y151993540D01*
X17130402Y151904362D01*
X17093748Y151868811D01*
X17066030Y151911697D01*
X16951646Y152029629D01*
X16816453Y152122979D01*
X16665646Y152188161D01*
X16505020Y152222670D01*
X16107592Y152267951D01*
X15943321Y152270460D01*
X15875989Y152258133D01*
X15857029Y152260000D01*
X15857018Y152260000D01*
X15819696Y152263676D01*
X15782374Y152260000D01*
X14953711Y152260000D01*
X14909774Y152303937D01*
X14740256Y152417205D01*
X14551898Y152495226D01*
X14351939Y152535000D01*
X14148061Y152535000D01*
X13948102Y152495226D01*
X13759744Y152417205D01*
X13590226Y152303937D01*
X13446063Y152159774D01*
X13332795Y151990256D01*
X13254774Y151801898D01*
X13215000Y151601939D01*
X13215000Y151398061D01*
X13254774Y151198102D01*
X13332795Y151009744D01*
X13446063Y150840226D01*
X13590226Y150696063D01*
X13759744Y150582795D01*
X13948102Y150504774D01*
X13972103Y150500000D01*
X13948102Y150495226D01*
X13759744Y150417205D01*
X13590226Y150303937D01*
X13446063Y150159774D01*
X13332795Y149990256D01*
X13254774Y149801898D01*
X13215000Y149601939D01*
X13215000Y149398061D01*
X13254774Y149198102D01*
X13332795Y149009744D01*
X13446063Y148840226D01*
X13590226Y148696063D01*
X13759744Y148582795D01*
X13948102Y148504774D01*
X14148061Y148465000D01*
X14351939Y148465000D01*
X14551898Y148504774D01*
X14740256Y148582795D01*
X14909774Y148696063D01*
X14953711Y148740000D01*
X15127686Y148740000D01*
X15144176Y148649036D01*
X15204456Y148496203D01*
X15293393Y148358067D01*
X15407571Y148239936D01*
X15542601Y148146349D01*
X15693294Y148080904D01*
X15852059Y148046505D01*
X13065555Y145260000D01*
X9703711Y145260000D01*
X9659774Y145303937D01*
X9490256Y145417205D01*
X9301898Y145495226D01*
X9101939Y145535000D01*
X8898061Y145535000D01*
X8698102Y145495226D01*
X8509744Y145417205D01*
X8340226Y145303937D01*
X8196063Y145159774D01*
X8082795Y144990256D01*
X8004774Y144801898D01*
X7965000Y144601939D01*
X5188151Y144601939D01*
X6551213Y145965000D01*
X6601939Y145965000D01*
X6801898Y146004774D01*
X6990256Y146082795D01*
X7159774Y146196063D01*
X7303937Y146340226D01*
X7417205Y146509744D01*
X7495226Y146698102D01*
X7535000Y146898061D01*
X7535000Y147101939D01*
X7495226Y147301898D01*
X7417205Y147490256D01*
X7303937Y147659774D01*
X7159774Y147803937D01*
X6990256Y147917205D01*
X6801898Y147995226D01*
X6601939Y148035000D01*
X6398061Y148035000D01*
X6198102Y147995226D01*
X6009744Y147917205D01*
X5840226Y147803937D01*
X5696063Y147659774D01*
X5582795Y147490256D01*
X5504774Y147301898D01*
X5465000Y147101939D01*
X5465000Y147028391D01*
X3584920Y145148311D01*
X3584920Y147655314D01*
X4645179Y148715573D01*
X4648061Y148715000D01*
X4851939Y148715000D01*
X5051898Y148754774D01*
X5240256Y148832795D01*
X5409774Y148946063D01*
X5553937Y149090226D01*
X5667205Y149259744D01*
X5745226Y149448102D01*
X5785000Y149648061D01*
X5785000Y149851939D01*
X5745226Y150051898D01*
X5667205Y150240256D01*
X5553937Y150409774D01*
X5409774Y150553937D01*
X5240256Y150667205D01*
X5051898Y150745226D01*
X4877000Y150780015D01*
X4877000Y150969985D01*
X5051898Y151004774D01*
X5240256Y151082795D01*
X5409774Y151196063D01*
X5553937Y151340226D01*
X5667205Y151509744D01*
X5745226Y151698102D01*
X5785000Y151898061D01*
X5785000Y152101939D01*
X5745226Y152301898D01*
X5667205Y152490256D01*
X5553937Y152659774D01*
X5409774Y152803937D01*
X5240256Y152917205D01*
X5051898Y152995226D01*
X4851939Y153035000D01*
X4648061Y153035000D01*
X4448102Y152995226D01*
X4259744Y152917205D01*
X4090226Y152803937D01*
X4021770Y152735481D01*
X3706494Y152735481D01*
X3629563Y152831936D01*
X3504032Y152937924D01*
X3360236Y153017386D01*
X3203701Y153067268D01*
X3040442Y153085652D01*
X2640481Y153091237D01*
X2476771Y153077418D01*
X2318904Y153031927D01*
X2172946Y152956511D01*
X2044504Y152854069D01*
X2011563Y152815054D01*
X1979723Y152854974D01*
X1854192Y152960962D01*
X1710396Y153040424D01*
X1553861Y153090306D01*
X1390602Y153108690D01*
X990641Y153114275D01*
X826931Y153100456D01*
X669064Y153054965D01*
X523106Y152979549D01*
X394664Y152877107D01*
X288676Y152751576D01*
X209215Y152607780D01*
X159333Y152451245D01*
X140949Y152287986D01*
X133270Y151738039D01*
X147089Y151574331D01*
X192580Y151416464D01*
X267995Y151270505D01*
X370437Y151142064D01*
X415080Y151104371D01*
X415081Y150893391D01*
X394664Y150877107D01*
X288676Y150751576D01*
X209215Y150607780D01*
X159333Y150451245D01*
X140949Y150287986D01*
X139926Y150214728D01*
X0Y150074801D01*
X-139568Y150214369D01*
X-140428Y150284742D01*
X-158527Y150448032D01*
X-208136Y150604654D01*
X-287346Y150748589D01*
X-393115Y150874304D01*
X-415080Y150891886D01*
X-415080Y151080610D01*
X-394664Y151096893D01*
X-288676Y151222424D01*
X-209215Y151366220D01*
X-159333Y151522755D01*
X-140949Y151686014D01*
X-133270Y152235961D01*
X-147089Y152399669D01*
X-192580Y152557536D01*
X-267995Y152703495D01*
X-370437Y152831936D01*
X-495968Y152937924D01*
X-639764Y153017386D01*
X-796299Y153067268D01*
X-959558Y153085652D01*
X-1359519Y153091237D01*
X-1523229Y153077418D01*
X-1681096Y153031927D01*
X-1827054Y152956511D01*
X-1955496Y152854069D01*
X-1988437Y152815054D01*
X-2020277Y152854974D01*
X-2145808Y152960962D01*
X-2289604Y153040424D01*
X-2446139Y153090306D01*
X-2609398Y153108690D01*
X-3009359Y153114275D01*
X-3173069Y153100456D01*
X-3330936Y153054965D01*
X-3476894Y152979549D01*
X-3605336Y152877107D01*
X-3705462Y152758519D01*
X-4044808Y152758519D01*
X-4090226Y152803937D01*
X-4259744Y152917205D01*
X-4448102Y152995226D01*
X-4648061Y153035000D01*
X-4851939Y153035000D01*
X-5051898Y152995226D01*
X-5240256Y152917205D01*
X-5409774Y152803937D01*
X-5553937Y152659774D01*
X-5667205Y152490256D01*
X-5745226Y152301898D01*
X-5785000Y152101939D01*
X-5785000Y151898061D01*
X-5745226Y151698102D01*
X-5667205Y151509744D01*
X-5553937Y151340226D01*
X-5409774Y151196063D01*
X-5240256Y151082795D01*
X-5051898Y151004774D01*
X-5027897Y151000000D01*
X-5051898Y150995226D01*
X-5240256Y150917205D01*
X-5409774Y150803937D01*
X-5553937Y150659774D01*
X-5667205Y150490256D01*
X-5745226Y150301898D01*
X-5785000Y150101939D01*
X-5785000Y149898061D01*
X-5745226Y149698102D01*
X-5667205Y149509744D01*
X-5553937Y149340226D01*
X-5409774Y149196063D01*
X-5240256Y149082795D01*
X-5051898Y149004774D01*
X-4851939Y148965000D01*
X-4648061Y148965000D01*
X-4448102Y149004774D01*
X-4259744Y149082795D01*
X-4090226Y149196063D01*
X-4069368Y149216921D01*
X-3705511Y149216921D01*
X-3606885Y149099696D01*
X-3584937Y149082128D01*
X-3584938Y145159740D01*
X-5465000Y147039801D01*
X-5465000Y147101939D01*
X-5504774Y147301898D01*
X-5582795Y147490256D01*
X-5696063Y147659774D01*
X-5840226Y147803937D01*
X-6009744Y147917205D01*
X-6198102Y147995226D01*
X-6398061Y148035000D01*
X-6601939Y148035000D01*
X-6801898Y147995226D01*
X-6990256Y147917205D01*
X-7159774Y147803937D01*
X-7303937Y147659774D01*
X-7417205Y147490256D01*
X-7495226Y147301898D01*
X-7535000Y147101939D01*
X-7535000Y146898061D01*
X-7495226Y146698102D01*
X-7417205Y146509744D01*
X-7377000Y146449573D01*
X-7377000Y145260000D01*
X-13064288Y145260000D01*
X-15849675Y148045386D01*
X-15694960Y148078625D01*
X-15544152Y148143807D01*
X-15408959Y148237157D01*
X-15294576Y148355089D01*
X-15207382Y148490000D01*
X-14953711Y148490000D01*
X-14909774Y148446063D01*
X-14740256Y148332795D01*
X-14551898Y148254774D01*
X-14351939Y148215000D01*
X-14148061Y148215000D01*
X-13948102Y148254774D01*
X-13759744Y148332795D01*
X-13590226Y148446063D01*
X-13446063Y148590226D01*
X-13332795Y148759744D01*
X-13254774Y148948102D01*
X-13215000Y149148061D01*
X-13215000Y149351939D01*
X-13254774Y149551898D01*
X-13332795Y149740256D01*
X-13446063Y149909774D01*
X-13590226Y150053937D01*
X-13759744Y150167205D01*
X-13948102Y150245226D01*
X-13972103Y150250000D01*
X-13948102Y150254774D01*
X-13759744Y150332795D01*
X-13590226Y150446063D01*
X-13446063Y150590226D01*
X-13332795Y150759744D01*
X-13254774Y150948102D01*
X-13215000Y151148061D01*
X-13215000Y151351939D01*
X-13254774Y151551898D01*
X-13332795Y151740256D01*
X-13446063Y151909774D01*
X-13590226Y152053937D01*
X-13759744Y152167205D01*
X-13948102Y152245226D01*
X-14148061Y152285000D01*
X-14351939Y152285000D01*
X-14551898Y152245226D01*
X-14740256Y152167205D01*
X-14909774Y152053937D01*
X-14953711Y152010000D01*
X-15408520Y152010000D01*
X-15489186Y152088513D01*
X-15627011Y152177932D01*
X-15779632Y152238744D01*
X-15941185Y152268613D01*
X-16105461Y152266391D01*
X-16502969Y152221803D01*
X-16663654Y152187575D01*
X-16814575Y152122656D01*
X-16949930Y152029542D01*
X-17064520Y151911810D01*
X-17092312Y151868974D01*
X-17128904Y151904589D01*
X-17266729Y151994008D01*
X-17419350Y152054820D01*
X-17580903Y152084689D01*
X-17745179Y152082467D01*
X-18142687Y152037879D01*
X-18303372Y152003651D01*
X-18454293Y151938732D01*
X-18589648Y151845618D01*
X-18704238Y151727886D01*
X-18793657Y151590061D01*
X-18854469Y151437439D01*
X-18884338Y151275887D01*
X-18882116Y151111611D01*
X-18820808Y150565039D01*
X-18786580Y150404353D01*
X-18721661Y150253432D01*
X-18628546Y150118076D01*
X-18579859Y150070688D01*
X-18579858Y149838564D01*
X-18591041Y149830843D01*
X-18705424Y149712911D01*
X-18794602Y149574930D01*
X-18855149Y149422203D01*
X-18884736Y149260598D01*
X-23648925Y149260598D01*
X-24154198Y152352272D01*
X-20087041Y152951538D01*
X-15272789Y153507017D01*
X-10443479Y153911000D01*
X-5603875Y154163091D01*
X-758704Y154263043D01*
X4087179Y154210755D01*
G37*
G04 #@! TD.AperFunction*
D15*
X2020277Y149119026D02*
X2064921Y149081332D01*
X2064920Y144389722D01*
X0Y142324802D01*
X-2064938Y144389739D01*
X-2064938Y149082761D01*
X-2021790Y149119063D01*
X-1989882Y149158926D01*
X-1957009Y149119854D01*
X-1828747Y149017188D01*
X-1682920Y148941518D01*
X-1525132Y148895751D01*
X-1361448Y148881647D01*
X-961478Y148886534D01*
X-961350Y148886548D01*
X-760000Y148685198D01*
X-759999Y147453712D01*
X-803937Y147409774D01*
X-917205Y147240256D01*
X-995226Y147051898D01*
X-1035000Y146851939D01*
X-1035000Y146648061D01*
X-995226Y146448102D01*
X-917205Y146259744D01*
X-803937Y146090226D01*
X-659774Y145946063D01*
X-490256Y145832795D01*
X-301898Y145754774D01*
X-101939Y145715000D01*
X101939Y145715000D01*
X301898Y145754774D01*
X490256Y145832795D01*
X659774Y145946063D01*
X803937Y146090226D01*
X917205Y146259744D01*
X995226Y146448102D01*
X1035000Y146648061D01*
X1035000Y146851939D01*
X995226Y147051898D01*
X917205Y147240256D01*
X803937Y147409774D01*
X760000Y147453711D01*
X760000Y148685199D01*
X963100Y148888299D01*
X1359519Y148882763D01*
X1523229Y148896582D01*
X1681096Y148942073D01*
X1827054Y149017489D01*
X1955496Y149119931D01*
X1988437Y149158946D01*
X2020277Y149119026D01*
G04 #@! TA.AperFunction,Conductor*
D16*
G36*
X2020277Y149119026D02*
G01*
X2064921Y149081332D01*
X2064920Y144389722D01*
X0Y142324802D01*
X-2064938Y144389739D01*
X-2064938Y149082761D01*
X-2021790Y149119063D01*
X-1989882Y149158926D01*
X-1957009Y149119854D01*
X-1828747Y149017188D01*
X-1682920Y148941518D01*
X-1525132Y148895751D01*
X-1361448Y148881647D01*
X-961478Y148886534D01*
X-961350Y148886548D01*
X-760000Y148685198D01*
X-759999Y147453712D01*
X-803937Y147409774D01*
X-917205Y147240256D01*
X-995226Y147051898D01*
X-1035000Y146851939D01*
X-1035000Y146648061D01*
X-995226Y146448102D01*
X-917205Y146259744D01*
X-803937Y146090226D01*
X-659774Y145946063D01*
X-490256Y145832795D01*
X-301898Y145754774D01*
X-101939Y145715000D01*
X101939Y145715000D01*
X301898Y145754774D01*
X490256Y145832795D01*
X659774Y145946063D01*
X803937Y146090226D01*
X917205Y146259744D01*
X995226Y146448102D01*
X1035000Y146648061D01*
X1035000Y146851939D01*
X995226Y147051898D01*
X917205Y147240256D01*
X803937Y147409774D01*
X760000Y147453711D01*
X760000Y148685199D01*
X963100Y148888299D01*
X1359519Y148882763D01*
X1523229Y148896582D01*
X1681096Y148942073D01*
X1827054Y149017489D01*
X1955496Y149119931D01*
X1988437Y149158946D01*
X2020277Y149119026D01*
G37*
G04 #@! TD.AperFunction*
M02*
