G04 #@! TF.GenerationSoftware,KiCad,Pcbnew,(5.1.10)-1*
G04 #@! TF.CreationDate,2022-02-06T13:52:41+09:00*
G04 #@! TF.ProjectId,FrontSensor,46726f6e-7453-4656-9e73-6f722e6b6963,rev?*
G04 #@! TF.SameCoordinates,Original*
G04 #@! TF.FileFunction,Legend,Top*
G04 #@! TF.FilePolarity,Positive*
%FSLAX46Y46*%
G04 Gerber Fmt 4.6, Leading zero omitted, Abs format (unit mm)*
G04 Created by KiCad (PCBNEW (5.1.10)-1) date 2022-02-06 13:52:41*
%MOMM*%
%LPD*%
G01*
G04 APERTURE LIST*
%ADD10C,0.120000*%
%ADD11C,0.150000*%
%ADD12R,0.300000X1.000000*%
%ADD13R,1.650000X1.300000*%
G04 APERTURE END LIST*
D10*
X-4134420Y140490000D02*
X-4415580Y140490000D01*
X-4134420Y141510000D02*
X-4415580Y141510000D01*
X4000000Y138750000D02*
X4000000Y139750000D01*
X4000000Y139750000D02*
X-4000000Y139750000D01*
X-4000000Y139750000D02*
X-4000000Y138750000D01*
X-17294882Y149526283D02*
X-16823416Y149580000D01*
X-17176584Y148488000D02*
X-16705118Y148541717D01*
X-1756376Y149467438D02*
X-2230857Y149461640D01*
X-1769143Y150512360D02*
X-2243624Y150506562D01*
X1755470Y149467864D02*
X2229940Y149461238D01*
X1770060Y150512762D02*
X2244530Y150506136D01*
X17175631Y148487693D02*
X16704260Y148542232D01*
X17295740Y149525768D02*
X16824369Y149580307D01*
X-17294022Y151538797D02*
X-16822463Y151591691D01*
X-17177537Y150500309D02*
X-16705978Y150553203D01*
X-1755470Y152506136D02*
X-2229940Y152512762D01*
X-1770060Y151461238D02*
X-2244530Y151467864D01*
X1770060Y152512762D02*
X2244530Y152506136D01*
X1755470Y151467864D02*
X2229940Y151461238D01*
X17294882Y151538283D02*
X16823416Y151592000D01*
X17176584Y150500000D02*
X16705118Y150553717D01*
D11*
X-4416666Y142142857D02*
X-4464285Y142095238D01*
X-4607142Y142047619D01*
X-4702380Y142047619D01*
X-4845238Y142095238D01*
X-4940476Y142190476D01*
X-4988095Y142285714D01*
X-5035714Y142476190D01*
X-5035714Y142619047D01*
X-4988095Y142809523D01*
X-4940476Y142904761D01*
X-4845238Y143000000D01*
X-4702380Y143047619D01*
X-4607142Y143047619D01*
X-4464285Y143000000D01*
X-4416666Y142952380D01*
X-3464285Y142047619D02*
X-4035714Y142047619D01*
X-3749999Y142047619D02*
X-3749999Y143047619D01*
X-3845238Y142904761D01*
X-3940476Y142809523D01*
X-4035714Y142761904D01*
X-333333Y141714289D02*
X-333333Y141000003D01*
X-380952Y140857146D01*
X-476190Y140761908D01*
X-619047Y140714289D01*
X-714285Y140714289D01*
X666666Y140714289D02*
X95238Y140714289D01*
X380952Y140714289D02*
X380952Y141714289D01*
X285714Y141571431D01*
X190476Y141476193D01*
X95238Y141428574D01*
X-16864384Y147031659D02*
X-17249481Y147467054D01*
X-17432139Y146966972D02*
X-17545342Y147960544D01*
X-17166839Y148003669D01*
X-17066822Y147967137D01*
X-17014119Y147925215D01*
X-16956025Y147835979D01*
X-16939853Y147694041D01*
X-16976384Y147594024D01*
X-17018307Y147541320D01*
X-17107542Y147483226D01*
X-17486045Y147440101D01*
X-15918125Y147139472D02*
X-16485880Y147074784D01*
X-16202003Y147107128D02*
X-16315206Y148100700D01*
X-16393660Y147947980D01*
X-16477504Y147842573D01*
X-16566740Y147784479D01*
X-2143657Y148102723D02*
X-2482783Y148574806D01*
X-2715043Y148095742D02*
X-2727260Y149095667D01*
X-2346336Y149100321D01*
X-2250523Y149053869D01*
X-2202326Y149006836D01*
X-2153547Y148912187D01*
X-2151802Y148769340D01*
X-2198254Y148673527D01*
X-2245287Y148625330D01*
X-2339937Y148576551D01*
X-2720861Y148571897D01*
X-1773787Y149012072D02*
X-1726753Y149060269D01*
X-1632104Y149109048D01*
X-1394026Y149111957D01*
X-1298213Y149065505D01*
X-1250016Y149018471D01*
X-1201237Y148923822D01*
X-1200074Y148828591D01*
X-1245944Y148685163D01*
X-1810349Y148106795D01*
X-1191347Y148114358D01*
X1827033Y148049990D02*
X1500381Y148530788D01*
X1255660Y148057968D02*
X1269622Y149057871D01*
X1650537Y149052552D01*
X1745101Y149003608D01*
X1792051Y148955328D01*
X1838336Y148859435D01*
X1836341Y148716591D01*
X1787397Y148622027D01*
X1739118Y148575078D01*
X1643224Y148528793D01*
X1262309Y148534112D01*
X2174296Y149045238D02*
X2793283Y149036595D01*
X2454663Y148660334D01*
X2597507Y148658339D01*
X2692071Y148609395D01*
X2739020Y148561116D01*
X2785305Y148465222D01*
X2781980Y148227150D01*
X2733036Y148132586D01*
X2684757Y148085636D01*
X2588863Y148039352D01*
X2303177Y148043341D01*
X2208613Y148092285D01*
X2161663Y148140564D01*
X16618082Y147183250D02*
X16341690Y147694597D01*
X16050440Y147248928D02*
X16165378Y148242301D01*
X16543805Y148198515D01*
X16632939Y148140265D01*
X16674769Y148087489D01*
X16711126Y147987409D01*
X16694707Y147845498D01*
X16636457Y147756365D01*
X16583680Y147714534D01*
X16483600Y147678177D01*
X16105172Y147721963D01*
X17546169Y147746981D02*
X17469544Y147084732D01*
X17353437Y148152774D02*
X17034822Y147470588D01*
X17649767Y147399437D01*
X-17274602Y151998948D02*
X-17658938Y152435014D01*
X-17842469Y151935251D02*
X-17953938Y152929019D01*
X-17575360Y152971483D01*
X-17475408Y152934777D01*
X-17422777Y152892763D01*
X-17364839Y152803426D01*
X-17348915Y152661460D01*
X-17385621Y152561507D01*
X-17427635Y152508877D01*
X-17516972Y152450938D01*
X-17895550Y152408474D01*
X-16486948Y153093568D02*
X-16960170Y153040488D01*
X-16954412Y152561957D01*
X-16912398Y152614587D01*
X-16823062Y152672526D01*
X-16586450Y152699066D01*
X-16486498Y152662360D01*
X-16433867Y152620346D01*
X-16375929Y152531009D01*
X-16349389Y152294398D01*
X-16386095Y152194445D01*
X-16428109Y152141815D01*
X-16517446Y152083876D01*
X-16754057Y152057336D01*
X-16854010Y152094042D01*
X-16906640Y152136057D01*
X-2172966Y153049990D02*
X-2499618Y153530788D01*
X-2744339Y153057968D02*
X-2730377Y154057871D01*
X-2349462Y154052552D01*
X-2254898Y154003608D01*
X-2207948Y153955328D01*
X-2161663Y153859435D01*
X-2163658Y153716591D01*
X-2212602Y153622027D01*
X-2260881Y153575078D01*
X-2356775Y153528793D01*
X-2737690Y153534112D01*
X-1301945Y154037925D02*
X-1492402Y154040584D01*
X-1588296Y153994299D01*
X-1636575Y153947350D01*
X-1733799Y153805836D01*
X-1784073Y153616044D01*
X-1789391Y153235128D01*
X-1743107Y153139235D01*
X-1696157Y153090955D01*
X-1601593Y153042011D01*
X-1411136Y153039352D01*
X-1315242Y153085636D01*
X-1266963Y153132586D01*
X-1218019Y153227150D01*
X-1214694Y153465222D01*
X-1260979Y153561116D01*
X-1307928Y153609395D01*
X-1402492Y153658339D01*
X-1592950Y153660999D01*
X-1688844Y153614714D01*
X-1737123Y153567764D01*
X-1786067Y153473200D01*
X1846999Y152966851D02*
X1520347Y153447649D01*
X1275626Y152974829D02*
X1289588Y153974732D01*
X1670503Y153969413D01*
X1765067Y153920469D01*
X1812017Y153872189D01*
X1858302Y153776296D01*
X1856307Y153633452D01*
X1807363Y153538888D01*
X1759084Y153491939D01*
X1663190Y153445654D01*
X1282275Y153450973D01*
X2194262Y153962099D02*
X2860864Y153952791D01*
X2418372Y152958872D01*
X17033193Y151819394D02*
X16755909Y152330258D01*
X16465438Y151884081D02*
X16578641Y152877653D01*
X16957145Y152834528D01*
X17046380Y152776434D01*
X17088302Y152723730D01*
X17124834Y152623714D01*
X17108662Y152481775D01*
X17050568Y152392540D01*
X16997864Y152350617D01*
X16897848Y152314086D01*
X16519344Y152357211D01*
X17665636Y152322462D02*
X17576401Y152380556D01*
X17534479Y152433259D01*
X17497947Y152533276D01*
X17503337Y152580589D01*
X17561432Y152669824D01*
X17614135Y152711746D01*
X17714152Y152748278D01*
X17903404Y152726716D01*
X17992639Y152668621D01*
X18034561Y152615918D01*
X18071093Y152515901D01*
X18065702Y152468588D01*
X18007608Y152379353D01*
X17954904Y152337431D01*
X17854888Y152300899D01*
X17665636Y152322462D01*
X17565620Y152285930D01*
X17512916Y152244008D01*
X17454822Y152154772D01*
X17433259Y151965520D01*
X17469791Y151865504D01*
X17511713Y151812800D01*
X17600949Y151754706D01*
X17790200Y151733144D01*
X17890217Y151769675D01*
X17942920Y151811598D01*
X18001015Y151900833D01*
X18022577Y152090085D01*
X17986045Y152190101D01*
X17944123Y152242805D01*
X17854888Y152300899D01*
%LPC*%
G36*
G01*
X-4600000Y141250000D02*
X-4600000Y140750000D01*
G75*
G02*
X-4825000Y140525000I-225000J0D01*
G01*
X-5275000Y140525000D01*
G75*
G02*
X-5500000Y140750000I0J225000D01*
G01*
X-5500000Y141250000D01*
G75*
G02*
X-5275000Y141475000I225000J0D01*
G01*
X-4825000Y141475000D01*
G75*
G02*
X-4600000Y141250000I0J-225000D01*
G01*
G37*
G36*
G01*
X-3050000Y141250000D02*
X-3050000Y140750000D01*
G75*
G02*
X-3275000Y140525000I-225000J0D01*
G01*
X-3725000Y140525000D01*
G75*
G02*
X-3950000Y140750000I0J225000D01*
G01*
X-3950000Y141250000D01*
G75*
G02*
X-3725000Y141475000I225000J0D01*
G01*
X-3275000Y141475000D01*
G75*
G02*
X-3050000Y141250000I0J-225000D01*
G01*
G37*
D12*
X1250000Y140000000D03*
X750000Y140000000D03*
X250000Y140000000D03*
X-250000Y140000000D03*
X-750000Y140000000D03*
X-1250000Y140000000D03*
D13*
X3525000Y138000000D03*
X-3525000Y138000000D03*
G36*
G01*
X-16546600Y148808879D02*
X-16608862Y149355344D01*
G75*
G02*
X-16432789Y149576699I198714J22641D01*
G01*
X-16035361Y149621980D01*
G75*
G02*
X-15814006Y149445907I22641J-198714D01*
G01*
X-15751744Y148899442D01*
G75*
G02*
X-15927817Y148678087I-198714J-22641D01*
G01*
X-16325245Y148632806D01*
G75*
G02*
X-16546600Y148808879I-22641J198714D01*
G01*
G37*
G36*
G01*
X-18185994Y148622093D02*
X-18248256Y149168558D01*
G75*
G02*
X-18072183Y149389913I198714J22641D01*
G01*
X-17674755Y149435194D01*
G75*
G02*
X-17453400Y149259121I22641J-198714D01*
G01*
X-17391138Y148712656D01*
G75*
G02*
X-17567211Y148491301I-198714J-22641D01*
G01*
X-17964639Y148446020D01*
G75*
G02*
X-18185994Y148622093I-22641J198714D01*
G01*
G37*
G36*
G01*
X-2428328Y150256787D02*
X-2421608Y149706828D01*
G75*
G02*
X-2619150Y149504400I-199985J-2443D01*
G01*
X-3019120Y149499513D01*
G75*
G02*
X-3221548Y149697055I-2443J199985D01*
G01*
X-3228268Y150247014D01*
G75*
G02*
X-3030726Y150449442I199985J2443D01*
G01*
X-2630756Y150454329D01*
G75*
G02*
X-2428328Y150256787I2443J-199985D01*
G01*
G37*
G36*
G01*
X-778452Y150276945D02*
X-771732Y149726986D01*
G75*
G02*
X-969274Y149524558I-199985J-2443D01*
G01*
X-1369244Y149519671D01*
G75*
G02*
X-1571672Y149717213I-2443J199985D01*
G01*
X-1578392Y150267172D01*
G75*
G02*
X-1380850Y150469600I199985J2443D01*
G01*
X-980880Y150474487D01*
G75*
G02*
X-778452Y150276945I2443J-199985D01*
G01*
G37*
G36*
G01*
X771279Y149729130D02*
X778958Y150279077D01*
G75*
G02*
X981731Y150476266I199981J-2792D01*
G01*
X1381692Y150470681D01*
G75*
G02*
X1578881Y150267908I-2792J-199981D01*
G01*
X1571202Y149717961D01*
G75*
G02*
X1368429Y149520772I-199981J2792D01*
G01*
X968468Y149526357D01*
G75*
G02*
X771279Y149729130I2792J199981D01*
G01*
G37*
G36*
G01*
X2421119Y149706092D02*
X2428798Y150256039D01*
G75*
G02*
X2631571Y150453228I199981J-2792D01*
G01*
X3031532Y150447643D01*
G75*
G02*
X3228721Y150244870I-2792J-199981D01*
G01*
X3221042Y149694923D01*
G75*
G02*
X3018269Y149497734I-199981J2792D01*
G01*
X2618308Y149503319D01*
G75*
G02*
X2421119Y149706092I2792J199981D01*
G01*
G37*
G36*
G01*
X16609424Y149356026D02*
X16546209Y148809671D01*
G75*
G02*
X16324547Y148633983I-198675J22987D01*
G01*
X15927198Y148679958D01*
G75*
G02*
X15751510Y148901620I22987J198675D01*
G01*
X15814725Y149447975D01*
G75*
G02*
X16036387Y149623663I198675J-22987D01*
G01*
X16433736Y149577688D01*
G75*
G02*
X16609424Y149356026I-22987J-198675D01*
G01*
G37*
G36*
G01*
X18248490Y149166380D02*
X18185275Y148620025D01*
G75*
G02*
X17963613Y148444337I-198675J22987D01*
G01*
X17566264Y148490312D01*
G75*
G02*
X17390576Y148711974I22987J198675D01*
G01*
X17453791Y149258329D01*
G75*
G02*
X17675453Y149434017I198675J-22987D01*
G01*
X18072802Y149388042D01*
G75*
G02*
X18248490Y149166380I-22987J-198675D01*
G01*
G37*
G36*
G01*
X-16546995Y150820088D02*
X-16608303Y151366660D01*
G75*
G02*
X-16431843Y151587708I198754J22294D01*
G01*
X-16034335Y151632296D01*
G75*
G02*
X-15813287Y151455836I22294J-198754D01*
G01*
X-15751979Y150909264D01*
G75*
G02*
X-15928439Y150688216I-198754J-22294D01*
G01*
X-16325947Y150643628D01*
G75*
G02*
X-16546995Y150820088I-22294J198754D01*
G01*
G37*
G36*
G01*
X-18186713Y150636164D02*
X-18248021Y151182736D01*
G75*
G02*
X-18071561Y151403784I198754J22294D01*
G01*
X-17674053Y151448372D01*
G75*
G02*
X-17453005Y151271912I22294J-198754D01*
G01*
X-17391697Y150725340D01*
G75*
G02*
X-17568157Y150504292I-198754J-22294D01*
G01*
X-17965665Y150459704D01*
G75*
G02*
X-18186713Y150636164I-22294J198754D01*
G01*
G37*
G36*
G01*
X-771279Y152244870D02*
X-778958Y151694923D01*
G75*
G02*
X-981731Y151497734I-199981J2792D01*
G01*
X-1381692Y151503319D01*
G75*
G02*
X-1578881Y151706092I2792J199981D01*
G01*
X-1571202Y152256039D01*
G75*
G02*
X-1368429Y152453228I199981J-2792D01*
G01*
X-968468Y152447643D01*
G75*
G02*
X-771279Y152244870I-2792J-199981D01*
G01*
G37*
G36*
G01*
X-2421119Y152267908D02*
X-2428798Y151717961D01*
G75*
G02*
X-2631571Y151520772I-199981J2792D01*
G01*
X-3031532Y151526357D01*
G75*
G02*
X-3228721Y151729130I2792J199981D01*
G01*
X-3221042Y152279077D01*
G75*
G02*
X-3018269Y152476266I199981J-2792D01*
G01*
X-2618308Y152470681D01*
G75*
G02*
X-2421119Y152267908I-2792J-199981D01*
G01*
G37*
G36*
G01*
X2421119Y151706092D02*
X2428798Y152256039D01*
G75*
G02*
X2631571Y152453228I199981J-2792D01*
G01*
X3031532Y152447643D01*
G75*
G02*
X3228721Y152244870I-2792J-199981D01*
G01*
X3221042Y151694923D01*
G75*
G02*
X3018269Y151497734I-199981J2792D01*
G01*
X2618308Y151503319D01*
G75*
G02*
X2421119Y151706092I2792J199981D01*
G01*
G37*
G36*
G01*
X771279Y151729130D02*
X778958Y152279077D01*
G75*
G02*
X981731Y152476266I199981J-2792D01*
G01*
X1381692Y152470681D01*
G75*
G02*
X1578881Y152267908I-2792J-199981D01*
G01*
X1571202Y151717961D01*
G75*
G02*
X1368429Y151520772I-199981J2792D01*
G01*
X968468Y151526357D01*
G75*
G02*
X771279Y151729130I2792J199981D01*
G01*
G37*
G36*
G01*
X18248256Y151180558D02*
X18185994Y150634093D01*
G75*
G02*
X17964639Y150458020I-198714J22641D01*
G01*
X17567211Y150503301D01*
G75*
G02*
X17391138Y150724656I22641J198714D01*
G01*
X17453400Y151271121D01*
G75*
G02*
X17674755Y151447194I198714J-22641D01*
G01*
X18072183Y151401913D01*
G75*
G02*
X18248256Y151180558I-22641J-198714D01*
G01*
G37*
G36*
G01*
X16608862Y151367344D02*
X16546600Y150820879D01*
G75*
G02*
X16325245Y150644806I-198714J22641D01*
G01*
X15927817Y150690087D01*
G75*
G02*
X15751744Y150911442I22641J198714D01*
G01*
X15814006Y151457907D01*
G75*
G02*
X16035361Y151633980I198714J-22641D01*
G01*
X16432789Y151588699D01*
G75*
G02*
X16608862Y151367344I-22641J-198714D01*
G01*
G37*
M02*
