M48
; DRILL file {KiCad (5.1.10)-1} date 02/06/22 13:52:45
; FORMAT={-:-/ absolute / metric / decimal}
; #@! TF.CreationDate,2022-02-06T13:52:45+09:00
; #@! TF.GenerationSoftware,Kicad,Pcbnew,(5.1.10)-1
FMAT,2
METRIC
T1C0.400
%
G90
G05
T1
X-15.1Y148.0
X-14.25Y151.25
X-14.25Y149.25
X-6.5Y147.0
X-4.75Y152.0
X-4.75Y150.0
X-4.625Y142.125
X-4.0Y146.1
X-1.5Y148.5
X0.0Y151.0
X0.0Y146.75
X0.0Y143.0
X0.0Y137.75
X1.5Y148.5
X3.25Y141.25
X4.0Y146.1
X4.75Y152.0
X4.75Y149.75
X6.5Y147.0
X9.0Y144.5
X14.25Y151.5
X14.25Y149.5
X15.0Y148.0
T0
M30
