%TF.GenerationSoftware,KiCad,Pcbnew,(5.1.10)-1*%
%TF.CreationDate,2022-02-04T19:34:21+09:00*%
%TF.ProjectId,FrontSensor,46726f6e-7453-4656-9e73-6f722e6b6963,rev?*%
%TF.SameCoordinates,Original*%
%TF.FileFunction,Legend,Top*%
%TF.FilePolarity,Positive*%
%FSLAX46Y46*%
G04 Gerber Fmt 4.6, Leading zero omitted, Abs format (unit mm)*
G04 Created by KiCad (PCBNEW (5.1.10)-1) date 2022-02-04 19:34:21*
%MOMM*%
%LPD*%
G01*
G04 APERTURE LIST*
%ADD10C,0.120000*%
%ADD11C,0.150000*%
G04 APERTURE END LIST*
D10*
%TO.C,C1*%
X-4134420Y140490000D02*
X-4415580Y140490000D01*
X-4134420Y141510000D02*
X-4415580Y141510000D01*
%TO.C,J1*%
X4000000Y138750000D02*
X4000000Y139750000D01*
X4000000Y139750000D02*
X-4000000Y139750000D01*
X-4000000Y139750000D02*
X-4000000Y138750000D01*
%TO.C,R1*%
X-17294882Y149526283D02*
X-16823416Y149580000D01*
X-17176584Y148488000D02*
X-16705118Y148541717D01*
%TO.C,R2*%
X-1756376Y149467438D02*
X-2230857Y149461640D01*
X-1769143Y150512360D02*
X-2243624Y150506562D01*
%TO.C,R3*%
X1755470Y149467864D02*
X2229940Y149461238D01*
X1770060Y150512762D02*
X2244530Y150506136D01*
%TO.C,R4*%
X17175631Y148487693D02*
X16704260Y148542232D01*
X17295740Y149525768D02*
X16824369Y149580307D01*
%TO.C,R5*%
X-17294022Y151538797D02*
X-16822463Y151591691D01*
X-17177537Y150500309D02*
X-16705978Y150553203D01*
%TO.C,R6*%
X-1755470Y152506136D02*
X-2229940Y152512762D01*
X-1770060Y151461238D02*
X-2244530Y151467864D01*
%TO.C,R7*%
X1770060Y152512762D02*
X2244530Y152506136D01*
X1755470Y151467864D02*
X2229940Y151461238D01*
%TO.C,R8*%
X17294882Y151538283D02*
X16823416Y151592000D01*
X17176584Y150500000D02*
X16705118Y150553717D01*
%TO.C,C1*%
D11*
X-4441666Y139212857D02*
X-4489285Y139165238D01*
X-4632142Y139117619D01*
X-4727380Y139117619D01*
X-4870238Y139165238D01*
X-4965476Y139260476D01*
X-5013095Y139355714D01*
X-5060714Y139546190D01*
X-5060714Y139689047D01*
X-5013095Y139879523D01*
X-4965476Y139974761D01*
X-4870238Y140070000D01*
X-4727380Y140117619D01*
X-4632142Y140117619D01*
X-4489285Y140070000D01*
X-4441666Y140022380D01*
X-3489285Y139117619D02*
X-4060714Y139117619D01*
X-3774999Y139117619D02*
X-3774999Y140117619D01*
X-3870238Y139974761D01*
X-3965476Y139879523D01*
X-4060714Y139831904D01*
%TO.C,J1*%
X-333333Y141714289D02*
X-333333Y141000003D01*
X-380952Y140857146D01*
X-476190Y140761908D01*
X-619047Y140714289D01*
X-714285Y140714289D01*
X666666Y140714289D02*
X95238Y140714289D01*
X380952Y140714289D02*
X380952Y141714289D01*
X285714Y141571431D01*
X190476Y141476193D01*
X95238Y141428574D01*
%TO.C,R1*%
X-17276265Y149986467D02*
X-17661362Y150421862D01*
X-17844020Y149921780D02*
X-17957223Y150915352D01*
X-17578720Y150958477D01*
X-17478703Y150921945D01*
X-17426000Y150880023D01*
X-17367906Y150790787D01*
X-17351734Y150648849D01*
X-17388265Y150548832D01*
X-17430188Y150496128D01*
X-17519423Y150438034D01*
X-17897926Y150394909D01*
X-16330006Y150094280D02*
X-16897761Y150029592D01*
X-16613884Y150061936D02*
X-16727087Y151055508D01*
X-16805541Y150902788D01*
X-16889385Y150797381D01*
X-16978621Y150739287D01*
%TO.C,R2*%
X-2143657Y148102723D02*
X-2482783Y148574806D01*
X-2715043Y148095742D02*
X-2727260Y149095667D01*
X-2346336Y149100321D01*
X-2250523Y149053869D01*
X-2202326Y149006836D01*
X-2153547Y148912187D01*
X-2151802Y148769340D01*
X-2198254Y148673527D01*
X-2245287Y148625330D01*
X-2339937Y148576551D01*
X-2720861Y148571897D01*
X-1773787Y149012072D02*
X-1726753Y149060269D01*
X-1632104Y149109048D01*
X-1394026Y149111957D01*
X-1298213Y149065505D01*
X-1250016Y149018471D01*
X-1201237Y148923822D01*
X-1200074Y148828591D01*
X-1245944Y148685163D01*
X-1810349Y148106795D01*
X-1191347Y148114358D01*
%TO.C,R3*%
X1846999Y150966851D02*
X1520347Y151447649D01*
X1275626Y150974829D02*
X1289588Y151974732D01*
X1670503Y151969413D01*
X1765067Y151920469D01*
X1812017Y151872189D01*
X1858302Y151776296D01*
X1856307Y151633452D01*
X1807363Y151538888D01*
X1759084Y151491939D01*
X1663190Y151445654D01*
X1282275Y151450973D01*
X2194262Y151962099D02*
X2813249Y151953456D01*
X2474629Y151577195D01*
X2617473Y151575200D01*
X2712037Y151526256D01*
X2758986Y151477977D01*
X2805271Y151382083D01*
X2801946Y151144011D01*
X2753002Y151049447D01*
X2704723Y151002497D01*
X2608829Y150956213D01*
X2323143Y150960202D01*
X2228579Y151009146D01*
X2181629Y151057425D01*
%TO.C,R4*%
X16618082Y147183250D02*
X16341690Y147694597D01*
X16050440Y147248928D02*
X16165378Y148242301D01*
X16543805Y148198515D01*
X16632939Y148140265D01*
X16674769Y148087489D01*
X16711126Y147987409D01*
X16694707Y147845498D01*
X16636457Y147756365D01*
X16583680Y147714534D01*
X16483600Y147678177D01*
X16105172Y147721963D01*
X17546169Y147746981D02*
X17469544Y147084732D01*
X17353437Y148152774D02*
X17034822Y147470588D01*
X17649767Y147399437D01*
%TO.C,R5*%
X-17274602Y151998948D02*
X-17658938Y152435014D01*
X-17842469Y151935251D02*
X-17953938Y152929019D01*
X-17575360Y152971483D01*
X-17475408Y152934777D01*
X-17422777Y152892763D01*
X-17364839Y152803426D01*
X-17348915Y152661460D01*
X-17385621Y152561507D01*
X-17427635Y152508877D01*
X-17516972Y152450938D01*
X-17895550Y152408474D01*
X-16486948Y153093568D02*
X-16960170Y153040488D01*
X-16954412Y152561957D01*
X-16912398Y152614587D01*
X-16823062Y152672526D01*
X-16586450Y152699066D01*
X-16486498Y152662360D01*
X-16433867Y152620346D01*
X-16375929Y152531009D01*
X-16349389Y152294398D01*
X-16386095Y152194445D01*
X-16428109Y152141815D01*
X-16517446Y152083876D01*
X-16754057Y152057336D01*
X-16854010Y152094042D01*
X-16906640Y152136057D01*
%TO.C,R6*%
X-2192932Y150107129D02*
X-2519584Y150587927D01*
X-2764305Y150115107D02*
X-2750343Y151115010D01*
X-2369428Y151109691D01*
X-2274864Y151060747D01*
X-2227914Y151012467D01*
X-2181629Y150916574D01*
X-2183624Y150773730D01*
X-2232568Y150679166D01*
X-2280847Y150632217D01*
X-2376741Y150585932D01*
X-2757656Y150591251D01*
X-1321911Y151095064D02*
X-1512368Y151097723D01*
X-1608262Y151051438D01*
X-1656541Y151004489D01*
X-1753765Y150862975D01*
X-1804039Y150673183D01*
X-1809357Y150292267D01*
X-1763073Y150196374D01*
X-1716123Y150148094D01*
X-1621559Y150099150D01*
X-1431102Y150096491D01*
X-1335208Y150142775D01*
X-1286929Y150189725D01*
X-1237985Y150284289D01*
X-1234660Y150522361D01*
X-1280945Y150618255D01*
X-1327894Y150666534D01*
X-1422458Y150715478D01*
X-1612916Y150718138D01*
X-1708810Y150671853D01*
X-1757089Y150624903D01*
X-1806033Y150530339D01*
%TO.C,R7*%
X1846999Y152966851D02*
X1520347Y153447649D01*
X1275626Y152974829D02*
X1289588Y153974732D01*
X1670503Y153969413D01*
X1765067Y153920469D01*
X1812017Y153872189D01*
X1858302Y153776296D01*
X1856307Y153633452D01*
X1807363Y153538888D01*
X1759084Y153491939D01*
X1663190Y153445654D01*
X1282275Y153450973D01*
X2194262Y153962099D02*
X2860864Y153952791D01*
X2418372Y152958872D01*
%TO.C,R8*%
X16621312Y149194586D02*
X16344028Y149705450D01*
X16053557Y149259273D02*
X16166760Y150252845D01*
X16545264Y150209720D01*
X16634499Y150151626D01*
X16676421Y150098922D01*
X16712953Y149998906D01*
X16696781Y149856967D01*
X16638687Y149767732D01*
X16585983Y149725809D01*
X16485967Y149689278D01*
X16107463Y149732403D01*
X17253755Y149697654D02*
X17164520Y149755748D01*
X17122598Y149808451D01*
X17086066Y149908468D01*
X17091456Y149955781D01*
X17149551Y150045016D01*
X17202254Y150086938D01*
X17302271Y150123470D01*
X17491523Y150101908D01*
X17580758Y150043813D01*
X17622680Y149991110D01*
X17659212Y149891093D01*
X17653821Y149843780D01*
X17595727Y149754545D01*
X17543023Y149712623D01*
X17443007Y149676091D01*
X17253755Y149697654D01*
X17153739Y149661122D01*
X17101035Y149619200D01*
X17042941Y149529964D01*
X17021378Y149340712D01*
X17057910Y149240696D01*
X17099832Y149187992D01*
X17189068Y149129898D01*
X17378319Y149108336D01*
X17478336Y149144867D01*
X17531039Y149186790D01*
X17589134Y149276025D01*
X17610696Y149465277D01*
X17574164Y149565293D01*
X17532242Y149617997D01*
X17443007Y149676091D01*
%TD*%
M02*
