%TF.GenerationSoftware,KiCad,Pcbnew,(5.1.10)-1*%
%TF.CreationDate,2022-02-04T19:34:21+09:00*%
%TF.ProjectId,FrontSensor,46726f6e-7453-4656-9e73-6f722e6b6963,rev?*%
%TF.SameCoordinates,Original*%
%TF.FileFunction,Profile,NP*%
%FSLAX46Y46*%
G04 Gerber Fmt 4.6, Leading zero omitted, Abs format (unit mm)*
G04 Created by KiCad (PCBNEW (5.1.10)-1) date 2022-02-04 19:34:21*
%MOMM*%
%LPD*%
G01*
G04 APERTURE LIST*
%TA.AperFunction,Profile*%
%ADD10C,0.200000*%
%TD*%
G04 APERTURE END LIST*
D10*
X-5133333Y127500000D02*
G75*
G03*
X-5133333Y127500000I-1200000J0D01*
G01*
X7533333Y127500000D02*
G75*
G03*
X7533333Y127500000I-1200000J0D01*
G01*
X3166666Y126500000D02*
G75*
G02*
X1666666Y125000000I-1500000J0D01*
G01*
X3166666Y128500000D02*
X3166666Y126500000D01*
X1666666Y130000000D02*
G75*
G02*
X3166666Y128500000I0J-1500000D01*
G01*
X-1666666Y130000000D02*
X1666666Y130000000D01*
X-3166666Y128500000D02*
G75*
G02*
X-1666666Y130000000I1500000J0D01*
G01*
X-3166666Y126500000D02*
X-3166666Y128500000D01*
X-1666666Y125000000D02*
G75*
G02*
X-3166666Y126500000I0J1500000D01*
G01*
X1666666Y125000000D02*
X-1666666Y125000000D01*
X-9500000Y122500000D02*
X9499999Y122500000D01*
X-9500000Y133584243D02*
X-9500000Y122500000D01*
X-20944444Y143479372D02*
G75*
G02*
X-9500000Y133584243I1444444J-9895129D01*
G01*
X-23387096Y143101515D02*
X-20944444Y143479372D01*
X-25000000Y152970585D02*
X-23387096Y143101515D01*
X-25000001Y152970584D02*
G75*
G02*
X24999999Y152970585I25000001J-152970584D01*
G01*
X23387096Y143101515D02*
X24999999Y152970585D01*
X20944444Y143479372D02*
X23387096Y143101515D01*
X9500000Y133584243D02*
G75*
G02*
X20944444Y143479372I10000000J0D01*
G01*
X9499999Y122500000D02*
X9499999Y133584243D01*
M02*
