%TF.GenerationSoftware,KiCad,Pcbnew,(5.1.10)-1*%
%TF.CreationDate,2022-02-04T19:34:21+09:00*%
%TF.ProjectId,FrontSensor,46726f6e-7453-4656-9e73-6f722e6b6963,rev?*%
%TF.SameCoordinates,Original*%
%TF.FileFunction,Legend,Bot*%
%TF.FilePolarity,Positive*%
%FSLAX46Y46*%
G04 Gerber Fmt 4.6, Leading zero omitted, Abs format (unit mm)*
G04 Created by KiCad (PCBNEW (5.1.10)-1) date 2022-02-04 19:34:21*
%MOMM*%
%LPD*%
G01*
G04 APERTURE LIST*
%ADD10C,0.120000*%
%ADD11C,0.150000*%
G04 APERTURE END LIST*
D10*
%TO.C,D1*%
X-12352857Y152236948D02*
X-10074289Y152408274D01*
X-10074289Y152408274D02*
X-9964071Y150942412D01*
X-9964071Y150942412D02*
X-12242639Y150771086D01*
%TO.C,D2*%
X-9019132Y152476581D02*
X-6736860Y152588202D01*
X-8947323Y151008336D02*
X-9019132Y152476581D01*
X-6665051Y151119957D02*
X-8947323Y151008336D01*
%TO.C,D3*%
X6738210Y152589533D02*
X9020284Y152473928D01*
X9020284Y152473928D02*
X8945912Y151005811D01*
X8945912Y151005811D02*
X6663839Y151121416D01*
%TO.C,D4*%
X10075765Y152410762D02*
X12354031Y152235459D01*
X9962988Y150945094D02*
X10075765Y152410762D01*
X12241254Y150769791D02*
X9962988Y150945094D01*
%TO.C,Q1*%
X-12052948Y148577277D02*
X-9871606Y148741293D01*
X-9871606Y148741293D02*
X-10012191Y150611015D01*
X-10012191Y150611015D02*
X-12193533Y150446999D01*
%TO.C,Q2*%
X-9014838Y148799291D02*
X-6829950Y148906150D01*
X-9106431Y150672053D02*
X-9014838Y148799291D01*
X-6921543Y150778912D02*
X-9106431Y150672053D01*
%TO.C,Q3*%
X6828370Y148907321D02*
X9013068Y148796649D01*
X9013068Y148796649D02*
X9107930Y150669248D01*
X9107930Y150669248D02*
X6923231Y150779920D01*
%TO.C,Q4*%
X9870181Y148744137D02*
X12051234Y148576314D01*
X10014029Y150613610D02*
X9870181Y148744137D01*
X12195082Y150445788D02*
X10014029Y150613610D01*
%TO.C,D1*%
D11*
X-10837283Y152594208D02*
X-10912262Y153591394D01*
X-11149687Y153573541D01*
X-11288571Y153515345D01*
X-11376400Y153413234D01*
X-11416745Y153314694D01*
X-11449948Y153121183D01*
X-11439237Y152978728D01*
X-11377470Y152792359D01*
X-11322844Y152700959D01*
X-11220733Y152613130D01*
X-11074708Y152576356D01*
X-10837283Y152594208D01*
X-12356803Y152479955D02*
X-11786983Y152522800D01*
X-12071893Y152501378D02*
X-12146872Y153498563D01*
X-12041191Y153363249D01*
X-11939080Y153275419D01*
X-11840539Y153235075D01*
%TO.C,D2*%
X-6670832Y149970921D02*
X-6719682Y150969728D01*
X-6957492Y150958097D01*
X-7097853Y150903556D01*
X-7188325Y150803779D01*
X-7231235Y150706329D01*
X-7269492Y150513754D01*
X-7262514Y150371067D01*
X-7205647Y150183144D01*
X-7153432Y150090346D01*
X-7053655Y149999874D01*
X-6908643Y149959291D01*
X-6670832Y149970921D01*
X-7666273Y150828080D02*
X-7716161Y150873316D01*
X-7813612Y150916225D01*
X-8051423Y150904595D01*
X-8144221Y150852380D01*
X-8189457Y150802492D01*
X-8232367Y150705041D01*
X-8227715Y150609917D01*
X-8173174Y150469556D01*
X-7574513Y149926724D01*
X-8192822Y149896484D01*
%TO.C,D3*%
X8286610Y152754024D02*
X8337203Y153752744D01*
X8099413Y153764790D01*
X7954329Y153724459D01*
X7854395Y153634162D01*
X7802019Y153541455D01*
X7744824Y153353632D01*
X7737596Y153210957D01*
X7775517Y153018316D01*
X7818257Y152920791D01*
X7908555Y152820856D01*
X8048820Y152766070D01*
X8286610Y152754024D01*
X7433600Y153798518D02*
X6815345Y153829838D01*
X7128978Y153432509D01*
X6986304Y153439737D01*
X6888779Y153396997D01*
X6838811Y153351848D01*
X6786435Y153259141D01*
X6774389Y153021351D01*
X6817129Y152923825D01*
X6862277Y152873858D01*
X6954984Y152821482D01*
X7240333Y152807027D01*
X7337858Y152849766D01*
X7387825Y152894915D01*
%TO.C,D4*%
X12091505Y149630541D02*
X12168224Y150627594D01*
X11930831Y150645860D01*
X11784741Y150609341D01*
X11682477Y150521690D01*
X11627692Y150430386D01*
X11565600Y150244125D01*
X11554640Y150101689D01*
X11587506Y149908121D01*
X11627678Y149809510D01*
X11715329Y149707246D01*
X11854112Y149648807D01*
X12091505Y149630541D01*
X10718290Y150404841D02*
X10667144Y149740139D01*
X10984910Y150766405D02*
X11167504Y150035958D01*
X10550281Y150083450D01*
%TO.C,Q1*%
X-11504555Y150889785D02*
X-11413155Y150944411D01*
X-11325326Y151046521D01*
X-11193582Y151199688D01*
X-11102183Y151254314D01*
X-11007213Y151261454D01*
X-11036845Y151020459D02*
X-10945446Y151075085D01*
X-10857617Y151177196D01*
X-10824413Y151370706D01*
X-10849406Y151703101D01*
X-10911173Y151889471D01*
X-11013284Y151977300D01*
X-11111824Y152017644D01*
X-11301764Y152003362D01*
X-11393164Y151948737D01*
X-11480993Y151846626D01*
X-11514196Y151653115D01*
X-11489203Y151320720D01*
X-11427437Y151134351D01*
X-11325326Y151046521D01*
X-11226786Y151006177D01*
X-11036845Y151020459D01*
X-12413911Y150916917D02*
X-11844091Y150959762D01*
X-12129001Y150938339D02*
X-12203979Y151935525D01*
X-12098298Y151800210D01*
X-11996187Y151712381D01*
X-11897647Y151672037D01*
%TO.C,Q2*%
X-7286531Y147396925D02*
X-7193733Y147449139D01*
X-7103261Y147548916D01*
X-6967553Y147698581D01*
X-6874755Y147750796D01*
X-6779630Y147755448D01*
X-6815561Y147515311D02*
X-6722763Y147567525D01*
X-6632291Y147667302D01*
X-6594034Y147859877D01*
X-6610317Y148192812D01*
X-6667184Y148380735D01*
X-6766961Y148471207D01*
X-6864411Y148514117D01*
X-7054660Y148504812D01*
X-7147458Y148452598D01*
X-7237930Y148352821D01*
X-7276188Y148160246D01*
X-7259904Y147827311D01*
X-7203038Y147639388D01*
X-7103261Y147548916D01*
X-7005810Y147506006D01*
X-6815561Y147515311D01*
X-7668316Y148379447D02*
X-7718205Y148424683D01*
X-7815655Y148467593D01*
X-8053466Y148455962D01*
X-8146264Y148403748D01*
X-8191500Y148353859D01*
X-8234410Y148256409D01*
X-8229758Y148161285D01*
X-8175217Y148020924D01*
X-7576557Y147478092D01*
X-8194865Y147447852D01*
%TO.C,Q3*%
X7662272Y151132862D02*
X7759797Y151175602D01*
X7859732Y151265900D01*
X8009634Y151401346D01*
X8107159Y151444086D01*
X8202275Y151439268D01*
X8142671Y151203887D02*
X8240196Y151246626D01*
X8340131Y151336924D01*
X8397326Y151524747D01*
X8414190Y151857654D01*
X8376269Y152050295D01*
X8285971Y152150230D01*
X8193264Y152202606D01*
X8003032Y152212243D01*
X7905506Y152169503D01*
X7805572Y152079205D01*
X7748377Y151891382D01*
X7731513Y151558476D01*
X7769434Y151365834D01*
X7859732Y151265900D01*
X7952439Y151213523D01*
X8142671Y151203887D01*
X7432335Y152241153D02*
X6814080Y152272472D01*
X7127713Y151875144D01*
X6985039Y151882371D01*
X6887513Y151839631D01*
X6837546Y151794483D01*
X6785170Y151701776D01*
X6773124Y151463985D01*
X6815864Y151366460D01*
X6861012Y151316493D01*
X6953719Y151264116D01*
X7239068Y151249661D01*
X7336593Y151292401D01*
X7386560Y151337550D01*
%TO.C,Q4*%
X11409096Y147136214D02*
X11507707Y147176386D01*
X11609971Y147264037D01*
X11763367Y147395513D01*
X11861977Y147435685D01*
X11956935Y147428379D01*
X11891190Y147194638D02*
X11989800Y147234811D01*
X12092064Y147322461D01*
X12154156Y147508723D01*
X12179729Y147841074D01*
X12146864Y148034642D01*
X12059213Y148136906D01*
X11967909Y148191691D01*
X11777994Y148206304D01*
X11679383Y148166132D01*
X11577119Y148078481D01*
X11515027Y147892220D01*
X11489454Y147559869D01*
X11522320Y147366301D01*
X11609971Y147264037D01*
X11701275Y147209252D01*
X11891190Y147194638D01*
X10660411Y147957979D02*
X10609265Y147293277D01*
X10927031Y148319542D02*
X11109625Y147589095D01*
X10492402Y147636588D01*
%TD*%
M02*
