%TF.GenerationSoftware,KiCad,Pcbnew,(5.1.10)-1*%
%TF.CreationDate,2022-02-04T19:34:21+09:00*%
%TF.ProjectId,FrontSensor,46726f6e-7453-4656-9e73-6f722e6b6963,rev?*%
%TF.SameCoordinates,Original*%
%TF.FileFunction,Soldermask,Top*%
%TF.FilePolarity,Negative*%
%FSLAX46Y46*%
G04 Gerber Fmt 4.6, Leading zero omitted, Abs format (unit mm)*
G04 Created by KiCad (PCBNEW (5.1.10)-1) date 2022-02-04 19:34:21*
%MOMM*%
%LPD*%
G01*
G04 APERTURE LIST*
%ADD10R,0.300000X1.000000*%
%ADD11R,1.650000X1.300000*%
G04 APERTURE END LIST*
%TO.C,C1*%
G36*
G01*
X-4600000Y141250000D02*
X-4600000Y140750000D01*
G75*
G02*
X-4825000Y140525000I-225000J0D01*
G01*
X-5275000Y140525000D01*
G75*
G02*
X-5500000Y140750000I0J225000D01*
G01*
X-5500000Y141250000D01*
G75*
G02*
X-5275000Y141475000I225000J0D01*
G01*
X-4825000Y141475000D01*
G75*
G02*
X-4600000Y141250000I0J-225000D01*
G01*
G37*
G36*
G01*
X-3050000Y141250000D02*
X-3050000Y140750000D01*
G75*
G02*
X-3275000Y140525000I-225000J0D01*
G01*
X-3725000Y140525000D01*
G75*
G02*
X-3950000Y140750000I0J225000D01*
G01*
X-3950000Y141250000D01*
G75*
G02*
X-3725000Y141475000I225000J0D01*
G01*
X-3275000Y141475000D01*
G75*
G02*
X-3050000Y141250000I0J-225000D01*
G01*
G37*
%TD*%
D10*
%TO.C,J1*%
X1250000Y140000000D03*
X750000Y140000000D03*
X250000Y140000000D03*
X-250000Y140000000D03*
X-750000Y140000000D03*
X-1250000Y140000000D03*
D11*
X3525000Y138000000D03*
X-3525000Y138000000D03*
%TD*%
%TO.C,R1*%
G36*
G01*
X-16546600Y148808879D02*
X-16608862Y149355344D01*
G75*
G02*
X-16432789Y149576699I198714J22641D01*
G01*
X-16035361Y149621980D01*
G75*
G02*
X-15814006Y149445907I22641J-198714D01*
G01*
X-15751744Y148899442D01*
G75*
G02*
X-15927817Y148678087I-198714J-22641D01*
G01*
X-16325245Y148632806D01*
G75*
G02*
X-16546600Y148808879I-22641J198714D01*
G01*
G37*
G36*
G01*
X-18185994Y148622093D02*
X-18248256Y149168558D01*
G75*
G02*
X-18072183Y149389913I198714J22641D01*
G01*
X-17674755Y149435194D01*
G75*
G02*
X-17453400Y149259121I22641J-198714D01*
G01*
X-17391138Y148712656D01*
G75*
G02*
X-17567211Y148491301I-198714J-22641D01*
G01*
X-17964639Y148446020D01*
G75*
G02*
X-18185994Y148622093I-22641J198714D01*
G01*
G37*
%TD*%
%TO.C,R2*%
G36*
G01*
X-2428328Y150256787D02*
X-2421608Y149706828D01*
G75*
G02*
X-2619150Y149504400I-199985J-2443D01*
G01*
X-3019120Y149499513D01*
G75*
G02*
X-3221548Y149697055I-2443J199985D01*
G01*
X-3228268Y150247014D01*
G75*
G02*
X-3030726Y150449442I199985J2443D01*
G01*
X-2630756Y150454329D01*
G75*
G02*
X-2428328Y150256787I2443J-199985D01*
G01*
G37*
G36*
G01*
X-778452Y150276945D02*
X-771732Y149726986D01*
G75*
G02*
X-969274Y149524558I-199985J-2443D01*
G01*
X-1369244Y149519671D01*
G75*
G02*
X-1571672Y149717213I-2443J199985D01*
G01*
X-1578392Y150267172D01*
G75*
G02*
X-1380850Y150469600I199985J2443D01*
G01*
X-980880Y150474487D01*
G75*
G02*
X-778452Y150276945I2443J-199985D01*
G01*
G37*
%TD*%
%TO.C,R3*%
G36*
G01*
X771279Y149729130D02*
X778958Y150279077D01*
G75*
G02*
X981731Y150476266I199981J-2792D01*
G01*
X1381692Y150470681D01*
G75*
G02*
X1578881Y150267908I-2792J-199981D01*
G01*
X1571202Y149717961D01*
G75*
G02*
X1368429Y149520772I-199981J2792D01*
G01*
X968468Y149526357D01*
G75*
G02*
X771279Y149729130I2792J199981D01*
G01*
G37*
G36*
G01*
X2421119Y149706092D02*
X2428798Y150256039D01*
G75*
G02*
X2631571Y150453228I199981J-2792D01*
G01*
X3031532Y150447643D01*
G75*
G02*
X3228721Y150244870I-2792J-199981D01*
G01*
X3221042Y149694923D01*
G75*
G02*
X3018269Y149497734I-199981J2792D01*
G01*
X2618308Y149503319D01*
G75*
G02*
X2421119Y149706092I2792J199981D01*
G01*
G37*
%TD*%
%TO.C,R4*%
G36*
G01*
X16609424Y149356026D02*
X16546209Y148809671D01*
G75*
G02*
X16324547Y148633983I-198675J22987D01*
G01*
X15927198Y148679958D01*
G75*
G02*
X15751510Y148901620I22987J198675D01*
G01*
X15814725Y149447975D01*
G75*
G02*
X16036387Y149623663I198675J-22987D01*
G01*
X16433736Y149577688D01*
G75*
G02*
X16609424Y149356026I-22987J-198675D01*
G01*
G37*
G36*
G01*
X18248490Y149166380D02*
X18185275Y148620025D01*
G75*
G02*
X17963613Y148444337I-198675J22987D01*
G01*
X17566264Y148490312D01*
G75*
G02*
X17390576Y148711974I22987J198675D01*
G01*
X17453791Y149258329D01*
G75*
G02*
X17675453Y149434017I198675J-22987D01*
G01*
X18072802Y149388042D01*
G75*
G02*
X18248490Y149166380I-22987J-198675D01*
G01*
G37*
%TD*%
%TO.C,R5*%
G36*
G01*
X-16546995Y150820088D02*
X-16608303Y151366660D01*
G75*
G02*
X-16431843Y151587708I198754J22294D01*
G01*
X-16034335Y151632296D01*
G75*
G02*
X-15813287Y151455836I22294J-198754D01*
G01*
X-15751979Y150909264D01*
G75*
G02*
X-15928439Y150688216I-198754J-22294D01*
G01*
X-16325947Y150643628D01*
G75*
G02*
X-16546995Y150820088I-22294J198754D01*
G01*
G37*
G36*
G01*
X-18186713Y150636164D02*
X-18248021Y151182736D01*
G75*
G02*
X-18071561Y151403784I198754J22294D01*
G01*
X-17674053Y151448372D01*
G75*
G02*
X-17453005Y151271912I22294J-198754D01*
G01*
X-17391697Y150725340D01*
G75*
G02*
X-17568157Y150504292I-198754J-22294D01*
G01*
X-17965665Y150459704D01*
G75*
G02*
X-18186713Y150636164I-22294J198754D01*
G01*
G37*
%TD*%
%TO.C,R6*%
G36*
G01*
X-771279Y152244870D02*
X-778958Y151694923D01*
G75*
G02*
X-981731Y151497734I-199981J2792D01*
G01*
X-1381692Y151503319D01*
G75*
G02*
X-1578881Y151706092I2792J199981D01*
G01*
X-1571202Y152256039D01*
G75*
G02*
X-1368429Y152453228I199981J-2792D01*
G01*
X-968468Y152447643D01*
G75*
G02*
X-771279Y152244870I-2792J-199981D01*
G01*
G37*
G36*
G01*
X-2421119Y152267908D02*
X-2428798Y151717961D01*
G75*
G02*
X-2631571Y151520772I-199981J2792D01*
G01*
X-3031532Y151526357D01*
G75*
G02*
X-3228721Y151729130I2792J199981D01*
G01*
X-3221042Y152279077D01*
G75*
G02*
X-3018269Y152476266I199981J-2792D01*
G01*
X-2618308Y152470681D01*
G75*
G02*
X-2421119Y152267908I-2792J-199981D01*
G01*
G37*
%TD*%
%TO.C,R7*%
G36*
G01*
X2421119Y151706092D02*
X2428798Y152256039D01*
G75*
G02*
X2631571Y152453228I199981J-2792D01*
G01*
X3031532Y152447643D01*
G75*
G02*
X3228721Y152244870I-2792J-199981D01*
G01*
X3221042Y151694923D01*
G75*
G02*
X3018269Y151497734I-199981J2792D01*
G01*
X2618308Y151503319D01*
G75*
G02*
X2421119Y151706092I2792J199981D01*
G01*
G37*
G36*
G01*
X771279Y151729130D02*
X778958Y152279077D01*
G75*
G02*
X981731Y152476266I199981J-2792D01*
G01*
X1381692Y152470681D01*
G75*
G02*
X1578881Y152267908I-2792J-199981D01*
G01*
X1571202Y151717961D01*
G75*
G02*
X1368429Y151520772I-199981J2792D01*
G01*
X968468Y151526357D01*
G75*
G02*
X771279Y151729130I2792J199981D01*
G01*
G37*
%TD*%
%TO.C,R8*%
G36*
G01*
X18248256Y151180558D02*
X18185994Y150634093D01*
G75*
G02*
X17964639Y150458020I-198714J22641D01*
G01*
X17567211Y150503301D01*
G75*
G02*
X17391138Y150724656I22641J198714D01*
G01*
X17453400Y151271121D01*
G75*
G02*
X17674755Y151447194I198714J-22641D01*
G01*
X18072183Y151401913D01*
G75*
G02*
X18248256Y151180558I-22641J-198714D01*
G01*
G37*
G36*
G01*
X16608862Y151367344D02*
X16546600Y150820879D01*
G75*
G02*
X16325245Y150644806I-198714J22641D01*
G01*
X15927817Y150690087D01*
G75*
G02*
X15751744Y150911442I22641J198714D01*
G01*
X15814006Y151457907D01*
G75*
G02*
X16035361Y151633980I198714J-22641D01*
G01*
X16432789Y151588699D01*
G75*
G02*
X16608862Y151367344I-22641J-198714D01*
G01*
G37*
%TD*%
M02*
