G04 #@! TF.GenerationSoftware,KiCad,Pcbnew,(5.1.10)-1*
G04 #@! TF.CreationDate,2022-02-06T13:41:47+09:00*
G04 #@! TF.ProjectId,Power,506f7765-722e-46b6-9963-61645f706362,rev?*
G04 #@! TF.SameCoordinates,Original*
G04 #@! TF.FileFunction,Profile,NP*
%FSLAX46Y46*%
G04 Gerber Fmt 4.6, Leading zero omitted, Abs format (unit mm)*
G04 Created by KiCad (PCBNEW (5.1.10)-1) date 2022-02-06 13:41:47*
%MOMM*%
%LPD*%
G01*
G04 APERTURE LIST*
G04 #@! TA.AperFunction,Profile*
%ADD10C,0.200000*%
G04 #@! TD*
G04 APERTURE END LIST*
D10*
X-21400000Y11400000D02*
X-21400000Y3400000D01*
X-30400000Y11400000D02*
X-21400000Y11400000D01*
X-30400000Y3400000D02*
X-30400000Y11400000D01*
X-21400000Y3400000D02*
X-30400000Y3400000D01*
X-35950000Y-14450000D02*
G75*
G03*
X-35950000Y-14450000I-1200000J0D01*
G01*
X-35950000Y20449999D02*
G75*
G03*
X-35950000Y20449999I-1200000J0D01*
G01*
X38350000Y-14450000D02*
G75*
G03*
X38350000Y-14450000I-1200000J0D01*
G01*
X38350000Y20449999D02*
G75*
G03*
X38350000Y20449999I-1200000J0D01*
G01*
X39399999Y27400000D02*
X-39399999Y27399999D01*
X39400000Y13500000D02*
X39399999Y27400000D01*
X34900000Y13500000D02*
X39400000Y13500000D01*
X34900000Y-1499999D02*
X34900000Y13500000D01*
X39400000Y-1499999D02*
X34900000Y-1499999D01*
X39399999Y-27399999D02*
X39400000Y-1499999D01*
X-39399999Y-27400000D02*
X39399999Y-27399999D01*
X-39400000Y-1500000D02*
X-39399999Y-27400000D01*
X-34900000Y-1500000D02*
X-39400000Y-1500000D01*
X-34900000Y13499999D02*
X-34900000Y-1500000D01*
X-39400000Y13499999D02*
X-34900000Y13499999D01*
X-39399999Y27399999D02*
X-39400000Y13499999D01*
M02*
