G04 #@! TF.GenerationSoftware,KiCad,Pcbnew,(5.1.10)-1*
G04 #@! TF.CreationDate,2022-02-06T13:41:47+09:00*
G04 #@! TF.ProjectId,Power,506f7765-722e-46b6-9963-61645f706362,rev?*
G04 #@! TF.SameCoordinates,Original*
G04 #@! TF.FileFunction,Soldermask,Bot*
G04 #@! TF.FilePolarity,Negative*
%FSLAX46Y46*%
G04 Gerber Fmt 4.6, Leading zero omitted, Abs format (unit mm)*
G04 Created by KiCad (PCBNEW (5.1.10)-1) date 2022-02-06 13:41:47*
%MOMM*%
%LPD*%
G01*
G04 APERTURE LIST*
%ADD10C,1.000000*%
%ADD11R,1.000000X2.000000*%
%ADD12R,2.000000X1.000000*%
%ADD13C,1.200000*%
%ADD14R,1.600000X2.200000*%
%ADD15R,1.000000X3.000000*%
%ADD16R,1.220000X1.150000*%
%ADD17C,1.650000*%
%ADD18C,0.100000*%
%ADD19R,0.900000X1.300000*%
G04 APERTURE END LIST*
D10*
X19900000Y24600000D03*
X16900000Y24600000D03*
D11*
X-6500000Y12200000D03*
X-6500000Y9400000D03*
D12*
X-12000000Y22650000D03*
X-14800000Y22650000D03*
D13*
X30750000Y-3250000D03*
X30750000Y-750000D03*
D14*
X-13500000Y9500000D03*
X-13500000Y12500000D03*
D15*
X5000000Y22900000D03*
X5000000Y16900000D03*
G36*
G01*
X-250000Y18325000D02*
X-750000Y18325000D01*
G75*
G02*
X-975000Y18550000I0J225000D01*
G01*
X-975000Y19000000D01*
G75*
G02*
X-750000Y19225000I225000J0D01*
G01*
X-250000Y19225000D01*
G75*
G02*
X-25000Y19000000I0J-225000D01*
G01*
X-25000Y18550000D01*
G75*
G02*
X-250000Y18325000I-225000J0D01*
G01*
G37*
G36*
G01*
X-250000Y16775000D02*
X-750000Y16775000D01*
G75*
G02*
X-975000Y17000000I0J225000D01*
G01*
X-975000Y17450000D01*
G75*
G02*
X-750000Y17675000I225000J0D01*
G01*
X-250000Y17675000D01*
G75*
G02*
X-25000Y17450000I0J-225000D01*
G01*
X-25000Y17000000D01*
G75*
G02*
X-250000Y16775000I-225000J0D01*
G01*
G37*
G36*
G01*
X-6825000Y-18550000D02*
X-6825000Y-19050000D01*
G75*
G02*
X-7050000Y-19275000I-225000J0D01*
G01*
X-7500000Y-19275000D01*
G75*
G02*
X-7725000Y-19050000I0J225000D01*
G01*
X-7725000Y-18550000D01*
G75*
G02*
X-7500000Y-18325000I225000J0D01*
G01*
X-7050000Y-18325000D01*
G75*
G02*
X-6825000Y-18550000I0J-225000D01*
G01*
G37*
G36*
G01*
X-5275000Y-18550000D02*
X-5275000Y-19050000D01*
G75*
G02*
X-5500000Y-19275000I-225000J0D01*
G01*
X-5950000Y-19275000D01*
G75*
G02*
X-6175000Y-19050000I0J225000D01*
G01*
X-6175000Y-18550000D01*
G75*
G02*
X-5950000Y-18325000I225000J0D01*
G01*
X-5500000Y-18325000D01*
G75*
G02*
X-5275000Y-18550000I0J-225000D01*
G01*
G37*
G36*
G01*
X-9175000Y-19050000D02*
X-9175000Y-18550000D01*
G75*
G02*
X-8950000Y-18325000I225000J0D01*
G01*
X-8500000Y-18325000D01*
G75*
G02*
X-8275000Y-18550000I0J-225000D01*
G01*
X-8275000Y-19050000D01*
G75*
G02*
X-8500000Y-19275000I-225000J0D01*
G01*
X-8950000Y-19275000D01*
G75*
G02*
X-9175000Y-19050000I0J225000D01*
G01*
G37*
G36*
G01*
X-10725000Y-19050000D02*
X-10725000Y-18550000D01*
G75*
G02*
X-10500000Y-18325000I225000J0D01*
G01*
X-10050000Y-18325000D01*
G75*
G02*
X-9825000Y-18550000I0J-225000D01*
G01*
X-9825000Y-19050000D01*
G75*
G02*
X-10050000Y-19275000I-225000J0D01*
G01*
X-10500000Y-19275000D01*
G75*
G02*
X-10725000Y-19050000I0J225000D01*
G01*
G37*
G36*
G01*
X7075000Y-12750000D02*
X7075000Y-13250000D01*
G75*
G02*
X6850000Y-13475000I-225000J0D01*
G01*
X6400000Y-13475000D01*
G75*
G02*
X6175000Y-13250000I0J225000D01*
G01*
X6175000Y-12750000D01*
G75*
G02*
X6400000Y-12525000I225000J0D01*
G01*
X6850000Y-12525000D01*
G75*
G02*
X7075000Y-12750000I0J-225000D01*
G01*
G37*
G36*
G01*
X8625000Y-12750000D02*
X8625000Y-13250000D01*
G75*
G02*
X8400000Y-13475000I-225000J0D01*
G01*
X7950000Y-13475000D01*
G75*
G02*
X7725000Y-13250000I0J225000D01*
G01*
X7725000Y-12750000D01*
G75*
G02*
X7950000Y-12525000I225000J0D01*
G01*
X8400000Y-12525000D01*
G75*
G02*
X8625000Y-12750000I0J-225000D01*
G01*
G37*
G36*
G01*
X3275000Y-12750000D02*
X3275000Y-13250000D01*
G75*
G02*
X3050000Y-13475000I-225000J0D01*
G01*
X2600000Y-13475000D01*
G75*
G02*
X2375000Y-13250000I0J225000D01*
G01*
X2375000Y-12750000D01*
G75*
G02*
X2600000Y-12525000I225000J0D01*
G01*
X3050000Y-12525000D01*
G75*
G02*
X3275000Y-12750000I0J-225000D01*
G01*
G37*
G36*
G01*
X4825000Y-12750000D02*
X4825000Y-13250000D01*
G75*
G02*
X4600000Y-13475000I-225000J0D01*
G01*
X4150000Y-13475000D01*
G75*
G02*
X3925000Y-13250000I0J225000D01*
G01*
X3925000Y-12750000D01*
G75*
G02*
X4150000Y-12525000I225000J0D01*
G01*
X4600000Y-12525000D01*
G75*
G02*
X4825000Y-12750000I0J-225000D01*
G01*
G37*
G36*
G01*
X-525000Y-12750000D02*
X-525000Y-13250000D01*
G75*
G02*
X-750000Y-13475000I-225000J0D01*
G01*
X-1200000Y-13475000D01*
G75*
G02*
X-1425000Y-13250000I0J225000D01*
G01*
X-1425000Y-12750000D01*
G75*
G02*
X-1200000Y-12525000I225000J0D01*
G01*
X-750000Y-12525000D01*
G75*
G02*
X-525000Y-12750000I0J-225000D01*
G01*
G37*
G36*
G01*
X1025000Y-12750000D02*
X1025000Y-13250000D01*
G75*
G02*
X800000Y-13475000I-225000J0D01*
G01*
X350000Y-13475000D01*
G75*
G02*
X125000Y-13250000I0J225000D01*
G01*
X125000Y-12750000D01*
G75*
G02*
X350000Y-12525000I225000J0D01*
G01*
X800000Y-12525000D01*
G75*
G02*
X1025000Y-12750000I0J-225000D01*
G01*
G37*
G36*
G01*
X19075000Y750000D02*
X19075000Y1250000D01*
G75*
G02*
X19300000Y1475000I225000J0D01*
G01*
X19750000Y1475000D01*
G75*
G02*
X19975000Y1250000I0J-225000D01*
G01*
X19975000Y750000D01*
G75*
G02*
X19750000Y525000I-225000J0D01*
G01*
X19300000Y525000D01*
G75*
G02*
X19075000Y750000I0J225000D01*
G01*
G37*
G36*
G01*
X17525000Y750000D02*
X17525000Y1250000D01*
G75*
G02*
X17750000Y1475000I225000J0D01*
G01*
X18200000Y1475000D01*
G75*
G02*
X18425000Y1250000I0J-225000D01*
G01*
X18425000Y750000D01*
G75*
G02*
X18200000Y525000I-225000J0D01*
G01*
X17750000Y525000D01*
G75*
G02*
X17525000Y750000I0J225000D01*
G01*
G37*
G36*
G01*
X825000Y750000D02*
X825000Y1250000D01*
G75*
G02*
X1050000Y1475000I225000J0D01*
G01*
X1500000Y1475000D01*
G75*
G02*
X1725000Y1250000I0J-225000D01*
G01*
X1725000Y750000D01*
G75*
G02*
X1500000Y525000I-225000J0D01*
G01*
X1050000Y525000D01*
G75*
G02*
X825000Y750000I0J225000D01*
G01*
G37*
G36*
G01*
X-725000Y750000D02*
X-725000Y1250000D01*
G75*
G02*
X-500000Y1475000I225000J0D01*
G01*
X-50000Y1475000D01*
G75*
G02*
X175000Y1250000I0J-225000D01*
G01*
X175000Y750000D01*
G75*
G02*
X-50000Y525000I-225000J0D01*
G01*
X-500000Y525000D01*
G75*
G02*
X-725000Y750000I0J225000D01*
G01*
G37*
D16*
X-7100000Y17600000D03*
X-7100000Y20700000D03*
G36*
G01*
X-7500000Y22393750D02*
X-7500000Y22906250D01*
G75*
G02*
X-7281250Y23125000I218750J0D01*
G01*
X-6843750Y23125000D01*
G75*
G02*
X-6625000Y22906250I0J-218750D01*
G01*
X-6625000Y22393750D01*
G75*
G02*
X-6843750Y22175000I-218750J0D01*
G01*
X-7281250Y22175000D01*
G75*
G02*
X-7500000Y22393750I0J218750D01*
G01*
G37*
G36*
G01*
X-9075000Y22393750D02*
X-9075000Y22906250D01*
G75*
G02*
X-8856250Y23125000I218750J0D01*
G01*
X-8418750Y23125000D01*
G75*
G02*
X-8200000Y22906250I0J-218750D01*
G01*
X-8200000Y22393750D01*
G75*
G02*
X-8418750Y22175000I-218750J0D01*
G01*
X-8856250Y22175000D01*
G75*
G02*
X-9075000Y22393750I0J218750D01*
G01*
G37*
D17*
X27550000Y19800000D03*
X25050000Y19800000D03*
D13*
X-23400000Y15000000D03*
X-25900000Y15000000D03*
X-28400000Y15000000D03*
X12500000Y-3250000D03*
X12500000Y-750000D03*
G36*
G01*
X7825000Y-11275000D02*
X7825000Y-10725000D01*
G75*
G02*
X8025000Y-10525000I200000J0D01*
G01*
X8425000Y-10525000D01*
G75*
G02*
X8625000Y-10725000I0J-200000D01*
G01*
X8625000Y-11275000D01*
G75*
G02*
X8425000Y-11475000I-200000J0D01*
G01*
X8025000Y-11475000D01*
G75*
G02*
X7825000Y-11275000I0J200000D01*
G01*
G37*
G36*
G01*
X6175000Y-11275000D02*
X6175000Y-10725000D01*
G75*
G02*
X6375000Y-10525000I200000J0D01*
G01*
X6775000Y-10525000D01*
G75*
G02*
X6975000Y-10725000I0J-200000D01*
G01*
X6975000Y-11275000D01*
G75*
G02*
X6775000Y-11475000I-200000J0D01*
G01*
X6375000Y-11475000D01*
G75*
G02*
X6175000Y-11275000I0J200000D01*
G01*
G37*
G36*
G01*
X4025000Y-11275000D02*
X4025000Y-10725000D01*
G75*
G02*
X4225000Y-10525000I200000J0D01*
G01*
X4625000Y-10525000D01*
G75*
G02*
X4825000Y-10725000I0J-200000D01*
G01*
X4825000Y-11275000D01*
G75*
G02*
X4625000Y-11475000I-200000J0D01*
G01*
X4225000Y-11475000D01*
G75*
G02*
X4025000Y-11275000I0J200000D01*
G01*
G37*
G36*
G01*
X2375000Y-11275000D02*
X2375000Y-10725000D01*
G75*
G02*
X2575000Y-10525000I200000J0D01*
G01*
X2975000Y-10525000D01*
G75*
G02*
X3175000Y-10725000I0J-200000D01*
G01*
X3175000Y-11275000D01*
G75*
G02*
X2975000Y-11475000I-200000J0D01*
G01*
X2575000Y-11475000D01*
G75*
G02*
X2375000Y-11275000I0J200000D01*
G01*
G37*
G36*
G01*
X225000Y-11275000D02*
X225000Y-10725000D01*
G75*
G02*
X425000Y-10525000I200000J0D01*
G01*
X825000Y-10525000D01*
G75*
G02*
X1025000Y-10725000I0J-200000D01*
G01*
X1025000Y-11275000D01*
G75*
G02*
X825000Y-11475000I-200000J0D01*
G01*
X425000Y-11475000D01*
G75*
G02*
X225000Y-11275000I0J200000D01*
G01*
G37*
G36*
G01*
X-1425000Y-11275000D02*
X-1425000Y-10725000D01*
G75*
G02*
X-1225000Y-10525000I200000J0D01*
G01*
X-825000Y-10525000D01*
G75*
G02*
X-625000Y-10725000I0J-200000D01*
G01*
X-625000Y-11275000D01*
G75*
G02*
X-825000Y-11475000I-200000J0D01*
G01*
X-1225000Y-11475000D01*
G75*
G02*
X-1425000Y-11275000I0J200000D01*
G01*
G37*
G36*
G01*
X-5945000Y1000000D02*
X-6245000Y1000000D01*
G75*
G02*
X-6395000Y1150000I0J150000D01*
G01*
X-6395000Y2800000D01*
G75*
G02*
X-6245000Y2950000I150000J0D01*
G01*
X-5945000Y2950000D01*
G75*
G02*
X-5795000Y2800000I0J-150000D01*
G01*
X-5795000Y1150000D01*
G75*
G02*
X-5945000Y1000000I-150000J0D01*
G01*
G37*
G36*
G01*
X-7215000Y1000000D02*
X-7515000Y1000000D01*
G75*
G02*
X-7665000Y1150000I0J150000D01*
G01*
X-7665000Y2800000D01*
G75*
G02*
X-7515000Y2950000I150000J0D01*
G01*
X-7215000Y2950000D01*
G75*
G02*
X-7065000Y2800000I0J-150000D01*
G01*
X-7065000Y1150000D01*
G75*
G02*
X-7215000Y1000000I-150000J0D01*
G01*
G37*
G36*
G01*
X-8485000Y1000000D02*
X-8785000Y1000000D01*
G75*
G02*
X-8935000Y1150000I0J150000D01*
G01*
X-8935000Y2800000D01*
G75*
G02*
X-8785000Y2950000I150000J0D01*
G01*
X-8485000Y2950000D01*
G75*
G02*
X-8335000Y2800000I0J-150000D01*
G01*
X-8335000Y1150000D01*
G75*
G02*
X-8485000Y1000000I-150000J0D01*
G01*
G37*
G36*
G01*
X-9755000Y1000000D02*
X-10055000Y1000000D01*
G75*
G02*
X-10205000Y1150000I0J150000D01*
G01*
X-10205000Y2800000D01*
G75*
G02*
X-10055000Y2950000I150000J0D01*
G01*
X-9755000Y2950000D01*
G75*
G02*
X-9605000Y2800000I0J-150000D01*
G01*
X-9605000Y1150000D01*
G75*
G02*
X-9755000Y1000000I-150000J0D01*
G01*
G37*
G36*
G01*
X-9755000Y-3950000D02*
X-10055000Y-3950000D01*
G75*
G02*
X-10205000Y-3800000I0J150000D01*
G01*
X-10205000Y-2150000D01*
G75*
G02*
X-10055000Y-2000000I150000J0D01*
G01*
X-9755000Y-2000000D01*
G75*
G02*
X-9605000Y-2150000I0J-150000D01*
G01*
X-9605000Y-3800000D01*
G75*
G02*
X-9755000Y-3950000I-150000J0D01*
G01*
G37*
G36*
G01*
X-8485000Y-3950000D02*
X-8785000Y-3950000D01*
G75*
G02*
X-8935000Y-3800000I0J150000D01*
G01*
X-8935000Y-2150000D01*
G75*
G02*
X-8785000Y-2000000I150000J0D01*
G01*
X-8485000Y-2000000D01*
G75*
G02*
X-8335000Y-2150000I0J-150000D01*
G01*
X-8335000Y-3800000D01*
G75*
G02*
X-8485000Y-3950000I-150000J0D01*
G01*
G37*
G36*
G01*
X-7215000Y-3950000D02*
X-7515000Y-3950000D01*
G75*
G02*
X-7665000Y-3800000I0J150000D01*
G01*
X-7665000Y-2150000D01*
G75*
G02*
X-7515000Y-2000000I150000J0D01*
G01*
X-7215000Y-2000000D01*
G75*
G02*
X-7065000Y-2150000I0J-150000D01*
G01*
X-7065000Y-3800000D01*
G75*
G02*
X-7215000Y-3950000I-150000J0D01*
G01*
G37*
G36*
G01*
X-5945000Y-3950000D02*
X-6245000Y-3950000D01*
G75*
G02*
X-6395000Y-3800000I0J150000D01*
G01*
X-6395000Y-2150000D01*
G75*
G02*
X-6245000Y-2000000I150000J0D01*
G01*
X-5945000Y-2000000D01*
G75*
G02*
X-5795000Y-2150000I0J-150000D01*
G01*
X-5795000Y-3800000D01*
G75*
G02*
X-5945000Y-3950000I-150000J0D01*
G01*
G37*
D18*
G36*
X-14366500Y14100000D02*
G01*
X-14366500Y17225000D01*
X-13950000Y17225000D01*
X-13950000Y18700000D01*
X-13050000Y18700000D01*
X-13050000Y17225000D01*
X-12633500Y17225000D01*
X-12633500Y14100000D01*
X-14366500Y14100000D01*
G37*
D19*
X-12000000Y18050000D03*
X-15000000Y18050000D03*
M02*
