%TF.GenerationSoftware,KiCad,Pcbnew,(5.1.10)-1*%
%TF.CreationDate,2022-02-04T19:34:50+09:00*%
%TF.ProjectId,SubSensor,53756253-656e-4736-9f72-2e6b69636164,rev?*%
%TF.SameCoordinates,Original*%
%TF.FileFunction,Copper,L1,Top*%
%TF.FilePolarity,Positive*%
%FSLAX46Y46*%
G04 Gerber Fmt 4.6, Leading zero omitted, Abs format (unit mm)*
G04 Created by KiCad (PCBNEW (5.1.10)-1) date 2022-02-04 19:34:50*
%MOMM*%
%LPD*%
G01*
G04 APERTURE LIST*
%TA.AperFunction,SMDPad,CuDef*%
%ADD10R,1.550000X0.600000*%
%TD*%
%TA.AperFunction,SMDPad,CuDef*%
%ADD11R,1.800000X1.200000*%
%TD*%
%TA.AperFunction,ViaPad*%
%ADD12C,0.800000*%
%TD*%
%TA.AperFunction,Conductor*%
%ADD13C,0.250000*%
%TD*%
%TA.AperFunction,Conductor*%
%ADD14C,0.254000*%
%TD*%
%TA.AperFunction,Conductor*%
%ADD15C,0.100000*%
%TD*%
G04 APERTURE END LIST*
%TO.P,C1,1*%
%TO.N,+5V*%
%TA.AperFunction,SMDPad,CuDef*%
G36*
G01*
X17775000Y-5250000D02*
X17775000Y-4750000D01*
G75*
G02*
X18000000Y-4525000I225000J0D01*
G01*
X18450000Y-4525000D01*
G75*
G02*
X18675000Y-4750000I0J-225000D01*
G01*
X18675000Y-5250000D01*
G75*
G02*
X18450000Y-5475000I-225000J0D01*
G01*
X18000000Y-5475000D01*
G75*
G02*
X17775000Y-5250000I0J225000D01*
G01*
G37*
%TD.AperFunction*%
%TO.P,C1,2*%
%TO.N,GND*%
%TA.AperFunction,SMDPad,CuDef*%
G36*
G01*
X19325000Y-5250000D02*
X19325000Y-4750000D01*
G75*
G02*
X19550000Y-4525000I225000J0D01*
G01*
X20000000Y-4525000D01*
G75*
G02*
X20225000Y-4750000I0J-225000D01*
G01*
X20225000Y-5250000D01*
G75*
G02*
X20000000Y-5475000I-225000J0D01*
G01*
X19550000Y-5475000D01*
G75*
G02*
X19325000Y-5250000I0J225000D01*
G01*
G37*
%TD.AperFunction*%
%TD*%
D10*
%TO.P,J1,3*%
%TO.N,+5V*%
X5475000Y-4000000D03*
%TO.P,J1,1*%
%TO.N,GND*%
X5475000Y-6000000D03*
%TO.P,J1,2*%
%TO.N,Net-(J1-Pad2)*%
X5475000Y-5000000D03*
D11*
%TO.P,J1,MP*%
%TO.N,GND*%
X8000000Y-7300000D03*
X8000000Y-2700000D03*
%TD*%
D12*
%TO.N,+5V*%
X17000000Y-5000000D03*
X10500000Y-3500000D03*
%TO.N,GND*%
X23000000Y-9000000D03*
X23000000Y-1000000D03*
X21000000Y-6250000D03*
%TO.N,Net-(J1-Pad2)*%
X19000000Y-3500000D03*
%TD*%
D13*
%TO.N,+5V*%
X18225000Y-5000000D02*
X17000000Y-5000000D01*
X10000000Y-4000000D02*
X5475000Y-4000000D01*
X10500000Y-3500000D02*
X10000000Y-4000000D01*
%TO.N,Net-(J1-Pad2)*%
X5475000Y-5000000D02*
X14000000Y-5000000D01*
X15500000Y-3500000D02*
X19000000Y-3500000D01*
X14000000Y-5000000D02*
X15500000Y-3500000D01*
%TD*%
D14*
%TO.N,GND*%
X23264999Y-1963902D02*
X23261444Y-2000000D01*
X23264999Y-2036095D01*
X23264999Y-2036104D01*
X23275634Y-2144084D01*
X23317662Y-2282632D01*
X23385912Y-2410319D01*
X23477761Y-2522237D01*
X23589679Y-2614087D01*
X23717366Y-2682337D01*
X23855914Y-2724365D01*
X23873000Y-2726048D01*
X23873000Y-7273951D01*
X23855914Y-7275634D01*
X23717366Y-7317662D01*
X23589679Y-7385912D01*
X23477761Y-7477761D01*
X23385912Y-7589679D01*
X23317662Y-7717366D01*
X23275634Y-7855914D01*
X23261443Y-7999999D01*
X23265000Y-8036114D01*
X23264999Y-9264999D01*
X3627000Y-9264999D01*
X3627000Y-7900000D01*
X6461928Y-7900000D01*
X6474188Y-8024482D01*
X6510498Y-8144180D01*
X6569463Y-8254494D01*
X6648815Y-8351185D01*
X6745506Y-8430537D01*
X6855820Y-8489502D01*
X6975518Y-8525812D01*
X7100000Y-8538072D01*
X7714250Y-8535000D01*
X7873000Y-8376250D01*
X7873000Y-7427000D01*
X8127000Y-7427000D01*
X8127000Y-8376250D01*
X8285750Y-8535000D01*
X8900000Y-8538072D01*
X9024482Y-8525812D01*
X9144180Y-8489502D01*
X9254494Y-8430537D01*
X9351185Y-8351185D01*
X9430537Y-8254494D01*
X9489502Y-8144180D01*
X9525812Y-8024482D01*
X9538072Y-7900000D01*
X9535000Y-7585750D01*
X9376250Y-7427000D01*
X8127000Y-7427000D01*
X7873000Y-7427000D01*
X6623750Y-7427000D01*
X6465000Y-7585750D01*
X6461928Y-7900000D01*
X3627000Y-7900000D01*
X3627000Y-6300000D01*
X4061928Y-6300000D01*
X4074188Y-6424482D01*
X4110498Y-6544180D01*
X4169463Y-6654494D01*
X4248815Y-6751185D01*
X4345506Y-6830537D01*
X4455820Y-6889502D01*
X4575518Y-6925812D01*
X4700000Y-6938072D01*
X5189250Y-6935000D01*
X5348000Y-6776250D01*
X5348000Y-6127000D01*
X5602000Y-6127000D01*
X5602000Y-6776250D01*
X5760750Y-6935000D01*
X6250000Y-6938072D01*
X6374482Y-6925812D01*
X6463870Y-6898696D01*
X6465000Y-7014250D01*
X6623750Y-7173000D01*
X7873000Y-7173000D01*
X7873000Y-6223750D01*
X8127000Y-6223750D01*
X8127000Y-7173000D01*
X9376250Y-7173000D01*
X9535000Y-7014250D01*
X9538072Y-6700000D01*
X9525812Y-6575518D01*
X9489502Y-6455820D01*
X9430537Y-6345506D01*
X9351185Y-6248815D01*
X9254494Y-6169463D01*
X9144180Y-6110498D01*
X9024482Y-6074188D01*
X8900000Y-6061928D01*
X8285750Y-6065000D01*
X8127000Y-6223750D01*
X7873000Y-6223750D01*
X7714250Y-6065000D01*
X7100000Y-6061928D01*
X6975518Y-6074188D01*
X6855820Y-6110498D01*
X6760629Y-6161379D01*
X6726250Y-6127000D01*
X5602000Y-6127000D01*
X5348000Y-6127000D01*
X4223750Y-6127000D01*
X4065000Y-6285750D01*
X4061928Y-6300000D01*
X3627000Y-6300000D01*
X3627000Y-6066984D01*
X3724156Y-5921580D01*
X3870818Y-5567506D01*
X3945586Y-5191623D01*
X3945586Y-4808375D01*
X3870818Y-4432492D01*
X3724156Y-4078418D01*
X3627000Y-3933014D01*
X3627000Y-3700000D01*
X4061928Y-3700000D01*
X4061928Y-4300000D01*
X4074188Y-4424482D01*
X4097096Y-4500000D01*
X4074188Y-4575518D01*
X4061928Y-4700000D01*
X4061928Y-5300000D01*
X4074188Y-5424482D01*
X4097096Y-5500000D01*
X4074188Y-5575518D01*
X4061928Y-5700000D01*
X4065000Y-5714250D01*
X4223750Y-5873000D01*
X4424947Y-5873000D01*
X4455820Y-5889502D01*
X4575518Y-5925812D01*
X4700000Y-5938072D01*
X6250000Y-5938072D01*
X6374482Y-5925812D01*
X6494180Y-5889502D01*
X6525053Y-5873000D01*
X6726250Y-5873000D01*
X6839250Y-5760000D01*
X13962678Y-5760000D01*
X14000000Y-5763676D01*
X14037322Y-5760000D01*
X14037333Y-5760000D01*
X14148986Y-5749003D01*
X14292247Y-5705546D01*
X14424276Y-5634974D01*
X14433992Y-5627000D01*
X16174164Y-5627000D01*
X16196063Y-5659774D01*
X16340226Y-5803937D01*
X16509744Y-5917205D01*
X16698102Y-5995226D01*
X16898061Y-6035000D01*
X17101939Y-6035000D01*
X17301898Y-5995226D01*
X17469534Y-5925789D01*
X17520503Y-5967618D01*
X17669717Y-6047375D01*
X17831623Y-6096488D01*
X18000000Y-6113072D01*
X18450000Y-6113072D01*
X18618377Y-6096488D01*
X18780283Y-6047375D01*
X18926351Y-5969300D01*
X18970506Y-6005537D01*
X19080820Y-6064502D01*
X19200518Y-6100812D01*
X19325000Y-6113072D01*
X19489250Y-6110000D01*
X19648000Y-5951250D01*
X19648000Y-5127000D01*
X19902000Y-5127000D01*
X19902000Y-5951250D01*
X20060750Y-6110000D01*
X20225000Y-6113072D01*
X20349482Y-6100812D01*
X20469180Y-6064502D01*
X20579494Y-6005537D01*
X20676185Y-5926185D01*
X20755537Y-5829494D01*
X20814502Y-5719180D01*
X20850812Y-5599482D01*
X20863072Y-5475000D01*
X20860000Y-5285750D01*
X20701250Y-5127000D01*
X19902000Y-5127000D01*
X19648000Y-5127000D01*
X19628000Y-5127000D01*
X19628000Y-4873000D01*
X19648000Y-4873000D01*
X19648000Y-4853000D01*
X19902000Y-4853000D01*
X19902000Y-4873000D01*
X20701250Y-4873000D01*
X20860000Y-4714250D01*
X20863072Y-4525000D01*
X20850812Y-4400518D01*
X20814502Y-4280820D01*
X20755537Y-4170506D01*
X20676185Y-4073815D01*
X20579494Y-3994463D01*
X20469180Y-3935498D01*
X20349482Y-3899188D01*
X20225000Y-3886928D01*
X20060750Y-3890000D01*
X19902002Y-4048748D01*
X19902002Y-4013009D01*
X19917205Y-3990256D01*
X19995226Y-3801898D01*
X20035000Y-3601939D01*
X20035000Y-3398061D01*
X19995226Y-3198102D01*
X19917205Y-3009744D01*
X19803937Y-2840226D01*
X19659774Y-2696063D01*
X19490256Y-2582795D01*
X19301898Y-2504774D01*
X19101939Y-2465000D01*
X18898061Y-2465000D01*
X18698102Y-2504774D01*
X18509744Y-2582795D01*
X18340226Y-2696063D01*
X18296289Y-2740000D01*
X15537322Y-2740000D01*
X15499999Y-2736324D01*
X15462676Y-2740000D01*
X15462667Y-2740000D01*
X15351014Y-2750997D01*
X15207753Y-2794454D01*
X15075724Y-2865026D01*
X14959999Y-2959999D01*
X14936201Y-2988997D01*
X13685199Y-4240000D01*
X11223711Y-4240000D01*
X11303937Y-4159774D01*
X11417205Y-3990256D01*
X11495226Y-3801898D01*
X11535000Y-3601939D01*
X11535000Y-3398061D01*
X11495226Y-3198102D01*
X11417205Y-3009744D01*
X11303937Y-2840226D01*
X11159774Y-2696063D01*
X10990256Y-2582795D01*
X10801898Y-2504774D01*
X10601939Y-2465000D01*
X10398061Y-2465000D01*
X10198102Y-2504774D01*
X10009744Y-2582795D01*
X9840226Y-2696063D01*
X9696063Y-2840226D01*
X9582795Y-3009744D01*
X9536331Y-3121917D01*
X9535000Y-2985750D01*
X9376250Y-2827000D01*
X8127000Y-2827000D01*
X8127000Y-2847000D01*
X7873000Y-2847000D01*
X7873000Y-2827000D01*
X6623750Y-2827000D01*
X6465000Y-2985750D01*
X6463870Y-3101304D01*
X6374482Y-3074188D01*
X6250000Y-3061928D01*
X4700000Y-3061928D01*
X4575518Y-3074188D01*
X4455820Y-3110498D01*
X4345506Y-3169463D01*
X4248815Y-3248815D01*
X4169463Y-3345506D01*
X4110498Y-3455820D01*
X4074188Y-3575518D01*
X4061928Y-3700000D01*
X3627000Y-3700000D01*
X3627000Y-2100000D01*
X6461928Y-2100000D01*
X6465000Y-2414250D01*
X6623750Y-2573000D01*
X7873000Y-2573000D01*
X7873000Y-1623750D01*
X8127000Y-1623750D01*
X8127000Y-2573000D01*
X9376250Y-2573000D01*
X9535000Y-2414250D01*
X9538072Y-2100000D01*
X9525812Y-1975518D01*
X9489502Y-1855820D01*
X9430537Y-1745506D01*
X9351185Y-1648815D01*
X9254494Y-1569463D01*
X9144180Y-1510498D01*
X9024482Y-1474188D01*
X8900000Y-1461928D01*
X8285750Y-1465000D01*
X8127000Y-1623750D01*
X7873000Y-1623750D01*
X7714250Y-1465000D01*
X7100000Y-1461928D01*
X6975518Y-1474188D01*
X6855820Y-1510498D01*
X6745506Y-1569463D01*
X6648815Y-1648815D01*
X6569463Y-1745506D01*
X6510498Y-1855820D01*
X6474188Y-1975518D01*
X6461928Y-2100000D01*
X3627000Y-2100000D01*
X3627000Y-735000D01*
X23265000Y-735000D01*
X23264999Y-1963902D01*
%TA.AperFunction,Conductor*%
D15*
G36*
X23264999Y-1963902D02*
G01*
X23261444Y-2000000D01*
X23264999Y-2036095D01*
X23264999Y-2036104D01*
X23275634Y-2144084D01*
X23317662Y-2282632D01*
X23385912Y-2410319D01*
X23477761Y-2522237D01*
X23589679Y-2614087D01*
X23717366Y-2682337D01*
X23855914Y-2724365D01*
X23873000Y-2726048D01*
X23873000Y-7273951D01*
X23855914Y-7275634D01*
X23717366Y-7317662D01*
X23589679Y-7385912D01*
X23477761Y-7477761D01*
X23385912Y-7589679D01*
X23317662Y-7717366D01*
X23275634Y-7855914D01*
X23261443Y-7999999D01*
X23265000Y-8036114D01*
X23264999Y-9264999D01*
X3627000Y-9264999D01*
X3627000Y-7900000D01*
X6461928Y-7900000D01*
X6474188Y-8024482D01*
X6510498Y-8144180D01*
X6569463Y-8254494D01*
X6648815Y-8351185D01*
X6745506Y-8430537D01*
X6855820Y-8489502D01*
X6975518Y-8525812D01*
X7100000Y-8538072D01*
X7714250Y-8535000D01*
X7873000Y-8376250D01*
X7873000Y-7427000D01*
X8127000Y-7427000D01*
X8127000Y-8376250D01*
X8285750Y-8535000D01*
X8900000Y-8538072D01*
X9024482Y-8525812D01*
X9144180Y-8489502D01*
X9254494Y-8430537D01*
X9351185Y-8351185D01*
X9430537Y-8254494D01*
X9489502Y-8144180D01*
X9525812Y-8024482D01*
X9538072Y-7900000D01*
X9535000Y-7585750D01*
X9376250Y-7427000D01*
X8127000Y-7427000D01*
X7873000Y-7427000D01*
X6623750Y-7427000D01*
X6465000Y-7585750D01*
X6461928Y-7900000D01*
X3627000Y-7900000D01*
X3627000Y-6300000D01*
X4061928Y-6300000D01*
X4074188Y-6424482D01*
X4110498Y-6544180D01*
X4169463Y-6654494D01*
X4248815Y-6751185D01*
X4345506Y-6830537D01*
X4455820Y-6889502D01*
X4575518Y-6925812D01*
X4700000Y-6938072D01*
X5189250Y-6935000D01*
X5348000Y-6776250D01*
X5348000Y-6127000D01*
X5602000Y-6127000D01*
X5602000Y-6776250D01*
X5760750Y-6935000D01*
X6250000Y-6938072D01*
X6374482Y-6925812D01*
X6463870Y-6898696D01*
X6465000Y-7014250D01*
X6623750Y-7173000D01*
X7873000Y-7173000D01*
X7873000Y-6223750D01*
X8127000Y-6223750D01*
X8127000Y-7173000D01*
X9376250Y-7173000D01*
X9535000Y-7014250D01*
X9538072Y-6700000D01*
X9525812Y-6575518D01*
X9489502Y-6455820D01*
X9430537Y-6345506D01*
X9351185Y-6248815D01*
X9254494Y-6169463D01*
X9144180Y-6110498D01*
X9024482Y-6074188D01*
X8900000Y-6061928D01*
X8285750Y-6065000D01*
X8127000Y-6223750D01*
X7873000Y-6223750D01*
X7714250Y-6065000D01*
X7100000Y-6061928D01*
X6975518Y-6074188D01*
X6855820Y-6110498D01*
X6760629Y-6161379D01*
X6726250Y-6127000D01*
X5602000Y-6127000D01*
X5348000Y-6127000D01*
X4223750Y-6127000D01*
X4065000Y-6285750D01*
X4061928Y-6300000D01*
X3627000Y-6300000D01*
X3627000Y-6066984D01*
X3724156Y-5921580D01*
X3870818Y-5567506D01*
X3945586Y-5191623D01*
X3945586Y-4808375D01*
X3870818Y-4432492D01*
X3724156Y-4078418D01*
X3627000Y-3933014D01*
X3627000Y-3700000D01*
X4061928Y-3700000D01*
X4061928Y-4300000D01*
X4074188Y-4424482D01*
X4097096Y-4500000D01*
X4074188Y-4575518D01*
X4061928Y-4700000D01*
X4061928Y-5300000D01*
X4074188Y-5424482D01*
X4097096Y-5500000D01*
X4074188Y-5575518D01*
X4061928Y-5700000D01*
X4065000Y-5714250D01*
X4223750Y-5873000D01*
X4424947Y-5873000D01*
X4455820Y-5889502D01*
X4575518Y-5925812D01*
X4700000Y-5938072D01*
X6250000Y-5938072D01*
X6374482Y-5925812D01*
X6494180Y-5889502D01*
X6525053Y-5873000D01*
X6726250Y-5873000D01*
X6839250Y-5760000D01*
X13962678Y-5760000D01*
X14000000Y-5763676D01*
X14037322Y-5760000D01*
X14037333Y-5760000D01*
X14148986Y-5749003D01*
X14292247Y-5705546D01*
X14424276Y-5634974D01*
X14433992Y-5627000D01*
X16174164Y-5627000D01*
X16196063Y-5659774D01*
X16340226Y-5803937D01*
X16509744Y-5917205D01*
X16698102Y-5995226D01*
X16898061Y-6035000D01*
X17101939Y-6035000D01*
X17301898Y-5995226D01*
X17469534Y-5925789D01*
X17520503Y-5967618D01*
X17669717Y-6047375D01*
X17831623Y-6096488D01*
X18000000Y-6113072D01*
X18450000Y-6113072D01*
X18618377Y-6096488D01*
X18780283Y-6047375D01*
X18926351Y-5969300D01*
X18970506Y-6005537D01*
X19080820Y-6064502D01*
X19200518Y-6100812D01*
X19325000Y-6113072D01*
X19489250Y-6110000D01*
X19648000Y-5951250D01*
X19648000Y-5127000D01*
X19902000Y-5127000D01*
X19902000Y-5951250D01*
X20060750Y-6110000D01*
X20225000Y-6113072D01*
X20349482Y-6100812D01*
X20469180Y-6064502D01*
X20579494Y-6005537D01*
X20676185Y-5926185D01*
X20755537Y-5829494D01*
X20814502Y-5719180D01*
X20850812Y-5599482D01*
X20863072Y-5475000D01*
X20860000Y-5285750D01*
X20701250Y-5127000D01*
X19902000Y-5127000D01*
X19648000Y-5127000D01*
X19628000Y-5127000D01*
X19628000Y-4873000D01*
X19648000Y-4873000D01*
X19648000Y-4853000D01*
X19902000Y-4853000D01*
X19902000Y-4873000D01*
X20701250Y-4873000D01*
X20860000Y-4714250D01*
X20863072Y-4525000D01*
X20850812Y-4400518D01*
X20814502Y-4280820D01*
X20755537Y-4170506D01*
X20676185Y-4073815D01*
X20579494Y-3994463D01*
X20469180Y-3935498D01*
X20349482Y-3899188D01*
X20225000Y-3886928D01*
X20060750Y-3890000D01*
X19902002Y-4048748D01*
X19902002Y-4013009D01*
X19917205Y-3990256D01*
X19995226Y-3801898D01*
X20035000Y-3601939D01*
X20035000Y-3398061D01*
X19995226Y-3198102D01*
X19917205Y-3009744D01*
X19803937Y-2840226D01*
X19659774Y-2696063D01*
X19490256Y-2582795D01*
X19301898Y-2504774D01*
X19101939Y-2465000D01*
X18898061Y-2465000D01*
X18698102Y-2504774D01*
X18509744Y-2582795D01*
X18340226Y-2696063D01*
X18296289Y-2740000D01*
X15537322Y-2740000D01*
X15499999Y-2736324D01*
X15462676Y-2740000D01*
X15462667Y-2740000D01*
X15351014Y-2750997D01*
X15207753Y-2794454D01*
X15075724Y-2865026D01*
X14959999Y-2959999D01*
X14936201Y-2988997D01*
X13685199Y-4240000D01*
X11223711Y-4240000D01*
X11303937Y-4159774D01*
X11417205Y-3990256D01*
X11495226Y-3801898D01*
X11535000Y-3601939D01*
X11535000Y-3398061D01*
X11495226Y-3198102D01*
X11417205Y-3009744D01*
X11303937Y-2840226D01*
X11159774Y-2696063D01*
X10990256Y-2582795D01*
X10801898Y-2504774D01*
X10601939Y-2465000D01*
X10398061Y-2465000D01*
X10198102Y-2504774D01*
X10009744Y-2582795D01*
X9840226Y-2696063D01*
X9696063Y-2840226D01*
X9582795Y-3009744D01*
X9536331Y-3121917D01*
X9535000Y-2985750D01*
X9376250Y-2827000D01*
X8127000Y-2827000D01*
X8127000Y-2847000D01*
X7873000Y-2847000D01*
X7873000Y-2827000D01*
X6623750Y-2827000D01*
X6465000Y-2985750D01*
X6463870Y-3101304D01*
X6374482Y-3074188D01*
X6250000Y-3061928D01*
X4700000Y-3061928D01*
X4575518Y-3074188D01*
X4455820Y-3110498D01*
X4345506Y-3169463D01*
X4248815Y-3248815D01*
X4169463Y-3345506D01*
X4110498Y-3455820D01*
X4074188Y-3575518D01*
X4061928Y-3700000D01*
X3627000Y-3700000D01*
X3627000Y-2100000D01*
X6461928Y-2100000D01*
X6465000Y-2414250D01*
X6623750Y-2573000D01*
X7873000Y-2573000D01*
X7873000Y-1623750D01*
X8127000Y-1623750D01*
X8127000Y-2573000D01*
X9376250Y-2573000D01*
X9535000Y-2414250D01*
X9538072Y-2100000D01*
X9525812Y-1975518D01*
X9489502Y-1855820D01*
X9430537Y-1745506D01*
X9351185Y-1648815D01*
X9254494Y-1569463D01*
X9144180Y-1510498D01*
X9024482Y-1474188D01*
X8900000Y-1461928D01*
X8285750Y-1465000D01*
X8127000Y-1623750D01*
X7873000Y-1623750D01*
X7714250Y-1465000D01*
X7100000Y-1461928D01*
X6975518Y-1474188D01*
X6855820Y-1510498D01*
X6745506Y-1569463D01*
X6648815Y-1648815D01*
X6569463Y-1745506D01*
X6510498Y-1855820D01*
X6474188Y-1975518D01*
X6461928Y-2100000D01*
X3627000Y-2100000D01*
X3627000Y-735000D01*
X23265000Y-735000D01*
X23264999Y-1963902D01*
G37*
%TD.AperFunction*%
%TD*%
M02*
