%TF.GenerationSoftware,KiCad,Pcbnew,(5.1.10)-1*%
%TF.CreationDate,2022-02-04T19:34:50+09:00*%
%TF.ProjectId,SubSensor,53756253-656e-4736-9f72-2e6b69636164,rev?*%
%TF.SameCoordinates,Original*%
%TF.FileFunction,Legend,Top*%
%TF.FilePolarity,Positive*%
%FSLAX46Y46*%
G04 Gerber Fmt 4.6, Leading zero omitted, Abs format (unit mm)*
G04 Created by KiCad (PCBNEW (5.1.10)-1) date 2022-02-04 19:34:50*
%MOMM*%
%LPD*%
G01*
G04 APERTURE LIST*
%ADD10C,0.120000*%
%ADD11C,0.150000*%
G04 APERTURE END LIST*
D10*
%TO.C,C1*%
X18859420Y-5510000D02*
X19140580Y-5510000D01*
X18859420Y-4490000D02*
X19140580Y-4490000D01*
%TO.C,J1*%
X5800000Y-7500000D02*
X5800000Y-2500000D01*
X5800000Y-7500000D02*
X7000000Y-7500000D01*
X5800000Y-2500000D02*
X7000000Y-2500000D01*
%TO.C,C1*%
D11*
X18833333Y-3927142D02*
X18785714Y-3974761D01*
X18642857Y-4022380D01*
X18547619Y-4022380D01*
X18404761Y-3974761D01*
X18309523Y-3879523D01*
X18261904Y-3784285D01*
X18214285Y-3593809D01*
X18214285Y-3450952D01*
X18261904Y-3260476D01*
X18309523Y-3165238D01*
X18404761Y-3070000D01*
X18547619Y-3022380D01*
X18642857Y-3022380D01*
X18785714Y-3070000D01*
X18833333Y-3117619D01*
X19785714Y-4022380D02*
X19214285Y-4022380D01*
X19500000Y-4022380D02*
X19500000Y-3022380D01*
X19404761Y-3165238D01*
X19309523Y-3260476D01*
X19214285Y-3308095D01*
%TO.C,J1*%
X3452380Y-5333333D02*
X4166666Y-5333333D01*
X4309523Y-5380952D01*
X4404761Y-5476190D01*
X4452380Y-5619047D01*
X4452380Y-5714285D01*
X4452380Y-4333333D02*
X4452380Y-4904761D01*
X4452380Y-4619047D02*
X3452380Y-4619047D01*
X3595238Y-4714285D01*
X3690476Y-4809523D01*
X3738095Y-4904761D01*
%TD*%
M02*
