G04 #@! TF.GenerationSoftware,KiCad,Pcbnew,(5.1.10)-1*
G04 #@! TF.CreationDate,2022-02-06T13:45:13+09:00*
G04 #@! TF.ProjectId,SubSensor,53756253-656e-4736-9f72-2e6b69636164,rev?*
G04 #@! TF.SameCoordinates,Original*
G04 #@! TF.FileFunction,Copper,L1,Top*
G04 #@! TF.FilePolarity,Positive*
%FSLAX46Y46*%
G04 Gerber Fmt 4.6, Leading zero omitted, Abs format (unit mm)*
G04 Created by KiCad (PCBNEW (5.1.10)-1) date 2022-02-06 13:45:13*
%MOMM*%
%LPD*%
G01*
G04 APERTURE LIST*
G04 #@! TA.AperFunction,SMDPad,CuDef*
%ADD10R,1.550000X0.600000*%
G04 #@! TD*
G04 #@! TA.AperFunction,SMDPad,CuDef*
%ADD11R,1.800000X1.200000*%
G04 #@! TD*
G04 #@! TA.AperFunction,ViaPad*
%ADD12C,0.800000*%
G04 #@! TD*
G04 #@! TA.AperFunction,ViaPad*
%ADD13C,0.600000*%
G04 #@! TD*
G04 #@! TA.AperFunction,Conductor*
%ADD14C,0.250000*%
G04 #@! TD*
G04 #@! TA.AperFunction,Conductor*
%ADD15C,0.254000*%
G04 #@! TD*
G04 #@! TA.AperFunction,Conductor*
%ADD16C,0.100000*%
G04 #@! TD*
G04 APERTURE END LIST*
G04 #@! TA.AperFunction,SMDPad,CuDef*
G36*
G01*
X19250000Y-3775000D02*
X19750000Y-3775000D01*
G75*
G02*
X19975000Y-4000000I0J-225000D01*
G01*
X19975000Y-4450000D01*
G75*
G02*
X19750000Y-4675000I-225000J0D01*
G01*
X19250000Y-4675000D01*
G75*
G02*
X19025000Y-4450000I0J225000D01*
G01*
X19025000Y-4000000D01*
G75*
G02*
X19250000Y-3775000I225000J0D01*
G01*
G37*
G04 #@! TD.AperFunction*
G04 #@! TA.AperFunction,SMDPad,CuDef*
G36*
G01*
X19250000Y-5325000D02*
X19750000Y-5325000D01*
G75*
G02*
X19975000Y-5550000I0J-225000D01*
G01*
X19975000Y-6000000D01*
G75*
G02*
X19750000Y-6225000I-225000J0D01*
G01*
X19250000Y-6225000D01*
G75*
G02*
X19025000Y-6000000I0J225000D01*
G01*
X19025000Y-5550000D01*
G75*
G02*
X19250000Y-5325000I225000J0D01*
G01*
G37*
G04 #@! TD.AperFunction*
D10*
X5475000Y-4000000D03*
X5475000Y-6000000D03*
X5475000Y-5000000D03*
D11*
X8000000Y-7300000D03*
X8000000Y-2700000D03*
G04 #@! TA.AperFunction,SMDPad,CuDef*
G36*
G01*
X11125000Y-3775000D02*
X11675000Y-3775000D01*
G75*
G02*
X11875000Y-3975000I0J-200000D01*
G01*
X11875000Y-4375000D01*
G75*
G02*
X11675000Y-4575000I-200000J0D01*
G01*
X11125000Y-4575000D01*
G75*
G02*
X10925000Y-4375000I0J200000D01*
G01*
X10925000Y-3975000D01*
G75*
G02*
X11125000Y-3775000I200000J0D01*
G01*
G37*
G04 #@! TD.AperFunction*
G04 #@! TA.AperFunction,SMDPad,CuDef*
G36*
G01*
X11125000Y-5425000D02*
X11675000Y-5425000D01*
G75*
G02*
X11875000Y-5625000I0J-200000D01*
G01*
X11875000Y-6025000D01*
G75*
G02*
X11675000Y-6225000I-200000J0D01*
G01*
X11125000Y-6225000D01*
G75*
G02*
X10925000Y-6025000I0J200000D01*
G01*
X10925000Y-5625000D01*
G75*
G02*
X11125000Y-5425000I200000J0D01*
G01*
G37*
G04 #@! TD.AperFunction*
D12*
X17899994Y-1900000D03*
X23000000Y-9000000D03*
X23000000Y-1000000D03*
X21000000Y-6250000D03*
X4000000Y-8900000D03*
X4000000Y-1100000D03*
D13*
X18500000Y-3000000D03*
D12*
X12800000Y-5725000D03*
X21400000Y-5000000D03*
D14*
X18800000Y-1900000D02*
X17899994Y-1900000D01*
X19500000Y-2600000D02*
X18800000Y-1900000D01*
X19500000Y-4225000D02*
X19500000Y-2600000D01*
X19275000Y-4000000D02*
X19500000Y-4225000D01*
X11400000Y-4100000D02*
X11300000Y-4000000D01*
X11400000Y-4175000D02*
X11400000Y-4100000D01*
X11300000Y-4000000D02*
X19275000Y-4000000D01*
X5475000Y-4000000D02*
X11300000Y-4000000D01*
X11400000Y-5825000D02*
X12575000Y-5825000D01*
X12675000Y-5725000D02*
X12800000Y-5725000D01*
X12575000Y-5825000D02*
X12675000Y-5725000D01*
X5475000Y-5000000D02*
X21400000Y-5000000D01*
D15*
X23264999Y-1963902D02*
X23261444Y-2000000D01*
X23264999Y-2036095D01*
X23264999Y-2036104D01*
X23275634Y-2144084D01*
X23317662Y-2282632D01*
X23385912Y-2410319D01*
X23477761Y-2522237D01*
X23589679Y-2614087D01*
X23717366Y-2682337D01*
X23855914Y-2724365D01*
X23873000Y-2726048D01*
X23873000Y-7273951D01*
X23855914Y-7275634D01*
X23717366Y-7317662D01*
X23589679Y-7385912D01*
X23477761Y-7477761D01*
X23385912Y-7589679D01*
X23317662Y-7717366D01*
X23275634Y-7855914D01*
X23261443Y-7999999D01*
X23265000Y-8036114D01*
X23264999Y-9264999D01*
X3627000Y-9264999D01*
X3627000Y-7900000D01*
X6461928Y-7900000D01*
X6474188Y-8024482D01*
X6510498Y-8144180D01*
X6569463Y-8254494D01*
X6648815Y-8351185D01*
X6745506Y-8430537D01*
X6855820Y-8489502D01*
X6975518Y-8525812D01*
X7100000Y-8538072D01*
X7714250Y-8535000D01*
X7873000Y-8376250D01*
X7873000Y-7427000D01*
X8127000Y-7427000D01*
X8127000Y-8376250D01*
X8285750Y-8535000D01*
X8900000Y-8538072D01*
X9024482Y-8525812D01*
X9144180Y-8489502D01*
X9254494Y-8430537D01*
X9351185Y-8351185D01*
X9430537Y-8254494D01*
X9489502Y-8144180D01*
X9525812Y-8024482D01*
X9538072Y-7900000D01*
X9535000Y-7585750D01*
X9376250Y-7427000D01*
X8127000Y-7427000D01*
X7873000Y-7427000D01*
X6623750Y-7427000D01*
X6465000Y-7585750D01*
X6461928Y-7900000D01*
X3627000Y-7900000D01*
X3627000Y-6300000D01*
X4061928Y-6300000D01*
X4074188Y-6424482D01*
X4110498Y-6544180D01*
X4169463Y-6654494D01*
X4248815Y-6751185D01*
X4345506Y-6830537D01*
X4455820Y-6889502D01*
X4575518Y-6925812D01*
X4700000Y-6938072D01*
X5189250Y-6935000D01*
X5348000Y-6776250D01*
X5348000Y-6127000D01*
X5602000Y-6127000D01*
X5602000Y-6776250D01*
X5760750Y-6935000D01*
X6250000Y-6938072D01*
X6374482Y-6925812D01*
X6463870Y-6898696D01*
X6465000Y-7014250D01*
X6623750Y-7173000D01*
X7873000Y-7173000D01*
X7873000Y-6223750D01*
X8127000Y-6223750D01*
X8127000Y-7173000D01*
X9376250Y-7173000D01*
X9535000Y-7014250D01*
X9538072Y-6700000D01*
X9525812Y-6575518D01*
X9489502Y-6455820D01*
X9430537Y-6345506D01*
X9351185Y-6248815D01*
X9254494Y-6169463D01*
X9144180Y-6110498D01*
X9024482Y-6074188D01*
X8900000Y-6061928D01*
X8285750Y-6065000D01*
X8127000Y-6223750D01*
X7873000Y-6223750D01*
X7714250Y-6065000D01*
X7100000Y-6061928D01*
X6975518Y-6074188D01*
X6855820Y-6110498D01*
X6760629Y-6161379D01*
X6726250Y-6127000D01*
X5602000Y-6127000D01*
X5348000Y-6127000D01*
X4223750Y-6127000D01*
X4065000Y-6285750D01*
X4061928Y-6300000D01*
X3627000Y-6300000D01*
X3627000Y-6066984D01*
X3724156Y-5921580D01*
X3870818Y-5567506D01*
X3945586Y-5191623D01*
X3945586Y-4808375D01*
X3870818Y-4432492D01*
X3724156Y-4078418D01*
X3627000Y-3933014D01*
X3627000Y-3700000D01*
X4061928Y-3700000D01*
X4061928Y-4300000D01*
X4074188Y-4424482D01*
X4097096Y-4500000D01*
X4074188Y-4575518D01*
X4061928Y-4700000D01*
X4061928Y-5300000D01*
X4074188Y-5424482D01*
X4097096Y-5500000D01*
X4074188Y-5575518D01*
X4061928Y-5700000D01*
X4065000Y-5714250D01*
X4223750Y-5873000D01*
X4424947Y-5873000D01*
X4455820Y-5889502D01*
X4575518Y-5925812D01*
X4700000Y-5938072D01*
X6250000Y-5938072D01*
X6374482Y-5925812D01*
X6494180Y-5889502D01*
X6525053Y-5873000D01*
X6726250Y-5873000D01*
X6839250Y-5760000D01*
X10286928Y-5760000D01*
X10286928Y-6025000D01*
X10303031Y-6188500D01*
X10350722Y-6345716D01*
X10428169Y-6490608D01*
X10532394Y-6617606D01*
X10659392Y-6721831D01*
X10804284Y-6799278D01*
X10961500Y-6846969D01*
X11125000Y-6863072D01*
X11675000Y-6863072D01*
X11838500Y-6846969D01*
X11995716Y-6799278D01*
X12140608Y-6721831D01*
X12267606Y-6617606D01*
X12269491Y-6615309D01*
X12309744Y-6642205D01*
X12498102Y-6720226D01*
X12698061Y-6760000D01*
X12901939Y-6760000D01*
X13101898Y-6720226D01*
X13290256Y-6642205D01*
X13459774Y-6528937D01*
X13603937Y-6384774D01*
X13710694Y-6225000D01*
X18386928Y-6225000D01*
X18399188Y-6349482D01*
X18435498Y-6469180D01*
X18494463Y-6579494D01*
X18573815Y-6676185D01*
X18670506Y-6755537D01*
X18780820Y-6814502D01*
X18900518Y-6850812D01*
X19025000Y-6863072D01*
X19214250Y-6860000D01*
X19373000Y-6701250D01*
X19373000Y-5902000D01*
X19627000Y-5902000D01*
X19627000Y-6701250D01*
X19785750Y-6860000D01*
X19975000Y-6863072D01*
X20099482Y-6850812D01*
X20219180Y-6814502D01*
X20329494Y-6755537D01*
X20426185Y-6676185D01*
X20505537Y-6579494D01*
X20564502Y-6469180D01*
X20600812Y-6349482D01*
X20613072Y-6225000D01*
X20610000Y-6060750D01*
X20451250Y-5902000D01*
X19627000Y-5902000D01*
X19373000Y-5902000D01*
X18548750Y-5902000D01*
X18390000Y-6060750D01*
X18386928Y-6225000D01*
X13710694Y-6225000D01*
X13717205Y-6215256D01*
X13795226Y-6026898D01*
X13835000Y-5826939D01*
X13835000Y-5760000D01*
X20696289Y-5760000D01*
X20740226Y-5803937D01*
X20909744Y-5917205D01*
X21098102Y-5995226D01*
X21298061Y-6035000D01*
X21501939Y-6035000D01*
X21701898Y-5995226D01*
X21890256Y-5917205D01*
X22059774Y-5803937D01*
X22203937Y-5659774D01*
X22317205Y-5490256D01*
X22395226Y-5301898D01*
X22435000Y-5101939D01*
X22435000Y-4898061D01*
X22395226Y-4698102D01*
X22317205Y-4509744D01*
X22203937Y-4340226D01*
X22059774Y-4196063D01*
X21890256Y-4082795D01*
X21701898Y-4004774D01*
X21501939Y-3965000D01*
X21298061Y-3965000D01*
X21098102Y-4004774D01*
X20909744Y-4082795D01*
X20740226Y-4196063D01*
X20696289Y-4240000D01*
X20613072Y-4240000D01*
X20613072Y-4000000D01*
X20596488Y-3831623D01*
X20547375Y-3669717D01*
X20467618Y-3520503D01*
X20360284Y-3389716D01*
X20260000Y-3307415D01*
X20260000Y-2637322D01*
X20263676Y-2599999D01*
X20260000Y-2562676D01*
X20260000Y-2562667D01*
X20249003Y-2451014D01*
X20205546Y-2307753D01*
X20134974Y-2175724D01*
X20109007Y-2144083D01*
X20063799Y-2088996D01*
X20063795Y-2088992D01*
X20040001Y-2059999D01*
X20011008Y-2036205D01*
X19363803Y-1389002D01*
X19340001Y-1359999D01*
X19224276Y-1265026D01*
X19092247Y-1194454D01*
X18948986Y-1150997D01*
X18837333Y-1140000D01*
X18837322Y-1140000D01*
X18800000Y-1136324D01*
X18762678Y-1140000D01*
X18603705Y-1140000D01*
X18559768Y-1096063D01*
X18390250Y-982795D01*
X18201892Y-904774D01*
X18001933Y-865000D01*
X17798055Y-865000D01*
X17598096Y-904774D01*
X17409738Y-982795D01*
X17240220Y-1096063D01*
X17096057Y-1240226D01*
X16982789Y-1409744D01*
X16904768Y-1598102D01*
X16864994Y-1798061D01*
X16864994Y-2001939D01*
X16904768Y-2201898D01*
X16982789Y-2390256D01*
X17096057Y-2559774D01*
X17240220Y-2703937D01*
X17409738Y-2817205D01*
X17598096Y-2895226D01*
X17798055Y-2935000D01*
X18001933Y-2935000D01*
X18201892Y-2895226D01*
X18390250Y-2817205D01*
X18541405Y-2716207D01*
X18740001Y-2914803D01*
X18740001Y-3240000D01*
X12069199Y-3240000D01*
X11995716Y-3200722D01*
X11838500Y-3153031D01*
X11675000Y-3136928D01*
X11125000Y-3136928D01*
X10961500Y-3153031D01*
X10804284Y-3200722D01*
X10730801Y-3240000D01*
X9537485Y-3240000D01*
X9535000Y-2985750D01*
X9376250Y-2827000D01*
X8127000Y-2827000D01*
X8127000Y-2847000D01*
X7873000Y-2847000D01*
X7873000Y-2827000D01*
X6623750Y-2827000D01*
X6465000Y-2985750D01*
X6463870Y-3101304D01*
X6374482Y-3074188D01*
X6250000Y-3061928D01*
X4700000Y-3061928D01*
X4575518Y-3074188D01*
X4455820Y-3110498D01*
X4345506Y-3169463D01*
X4248815Y-3248815D01*
X4169463Y-3345506D01*
X4110498Y-3455820D01*
X4074188Y-3575518D01*
X4061928Y-3700000D01*
X3627000Y-3700000D01*
X3627000Y-2100000D01*
X6461928Y-2100000D01*
X6465000Y-2414250D01*
X6623750Y-2573000D01*
X7873000Y-2573000D01*
X7873000Y-1623750D01*
X8127000Y-1623750D01*
X8127000Y-2573000D01*
X9376250Y-2573000D01*
X9535000Y-2414250D01*
X9538072Y-2100000D01*
X9525812Y-1975518D01*
X9489502Y-1855820D01*
X9430537Y-1745506D01*
X9351185Y-1648815D01*
X9254494Y-1569463D01*
X9144180Y-1510498D01*
X9024482Y-1474188D01*
X8900000Y-1461928D01*
X8285750Y-1465000D01*
X8127000Y-1623750D01*
X7873000Y-1623750D01*
X7714250Y-1465000D01*
X7100000Y-1461928D01*
X6975518Y-1474188D01*
X6855820Y-1510498D01*
X6745506Y-1569463D01*
X6648815Y-1648815D01*
X6569463Y-1745506D01*
X6510498Y-1855820D01*
X6474188Y-1975518D01*
X6461928Y-2100000D01*
X3627000Y-2100000D01*
X3627000Y-735000D01*
X23265000Y-735000D01*
X23264999Y-1963902D01*
G04 #@! TA.AperFunction,Conductor*
D16*
G36*
X23264999Y-1963902D02*
G01*
X23261444Y-2000000D01*
X23264999Y-2036095D01*
X23264999Y-2036104D01*
X23275634Y-2144084D01*
X23317662Y-2282632D01*
X23385912Y-2410319D01*
X23477761Y-2522237D01*
X23589679Y-2614087D01*
X23717366Y-2682337D01*
X23855914Y-2724365D01*
X23873000Y-2726048D01*
X23873000Y-7273951D01*
X23855914Y-7275634D01*
X23717366Y-7317662D01*
X23589679Y-7385912D01*
X23477761Y-7477761D01*
X23385912Y-7589679D01*
X23317662Y-7717366D01*
X23275634Y-7855914D01*
X23261443Y-7999999D01*
X23265000Y-8036114D01*
X23264999Y-9264999D01*
X3627000Y-9264999D01*
X3627000Y-7900000D01*
X6461928Y-7900000D01*
X6474188Y-8024482D01*
X6510498Y-8144180D01*
X6569463Y-8254494D01*
X6648815Y-8351185D01*
X6745506Y-8430537D01*
X6855820Y-8489502D01*
X6975518Y-8525812D01*
X7100000Y-8538072D01*
X7714250Y-8535000D01*
X7873000Y-8376250D01*
X7873000Y-7427000D01*
X8127000Y-7427000D01*
X8127000Y-8376250D01*
X8285750Y-8535000D01*
X8900000Y-8538072D01*
X9024482Y-8525812D01*
X9144180Y-8489502D01*
X9254494Y-8430537D01*
X9351185Y-8351185D01*
X9430537Y-8254494D01*
X9489502Y-8144180D01*
X9525812Y-8024482D01*
X9538072Y-7900000D01*
X9535000Y-7585750D01*
X9376250Y-7427000D01*
X8127000Y-7427000D01*
X7873000Y-7427000D01*
X6623750Y-7427000D01*
X6465000Y-7585750D01*
X6461928Y-7900000D01*
X3627000Y-7900000D01*
X3627000Y-6300000D01*
X4061928Y-6300000D01*
X4074188Y-6424482D01*
X4110498Y-6544180D01*
X4169463Y-6654494D01*
X4248815Y-6751185D01*
X4345506Y-6830537D01*
X4455820Y-6889502D01*
X4575518Y-6925812D01*
X4700000Y-6938072D01*
X5189250Y-6935000D01*
X5348000Y-6776250D01*
X5348000Y-6127000D01*
X5602000Y-6127000D01*
X5602000Y-6776250D01*
X5760750Y-6935000D01*
X6250000Y-6938072D01*
X6374482Y-6925812D01*
X6463870Y-6898696D01*
X6465000Y-7014250D01*
X6623750Y-7173000D01*
X7873000Y-7173000D01*
X7873000Y-6223750D01*
X8127000Y-6223750D01*
X8127000Y-7173000D01*
X9376250Y-7173000D01*
X9535000Y-7014250D01*
X9538072Y-6700000D01*
X9525812Y-6575518D01*
X9489502Y-6455820D01*
X9430537Y-6345506D01*
X9351185Y-6248815D01*
X9254494Y-6169463D01*
X9144180Y-6110498D01*
X9024482Y-6074188D01*
X8900000Y-6061928D01*
X8285750Y-6065000D01*
X8127000Y-6223750D01*
X7873000Y-6223750D01*
X7714250Y-6065000D01*
X7100000Y-6061928D01*
X6975518Y-6074188D01*
X6855820Y-6110498D01*
X6760629Y-6161379D01*
X6726250Y-6127000D01*
X5602000Y-6127000D01*
X5348000Y-6127000D01*
X4223750Y-6127000D01*
X4065000Y-6285750D01*
X4061928Y-6300000D01*
X3627000Y-6300000D01*
X3627000Y-6066984D01*
X3724156Y-5921580D01*
X3870818Y-5567506D01*
X3945586Y-5191623D01*
X3945586Y-4808375D01*
X3870818Y-4432492D01*
X3724156Y-4078418D01*
X3627000Y-3933014D01*
X3627000Y-3700000D01*
X4061928Y-3700000D01*
X4061928Y-4300000D01*
X4074188Y-4424482D01*
X4097096Y-4500000D01*
X4074188Y-4575518D01*
X4061928Y-4700000D01*
X4061928Y-5300000D01*
X4074188Y-5424482D01*
X4097096Y-5500000D01*
X4074188Y-5575518D01*
X4061928Y-5700000D01*
X4065000Y-5714250D01*
X4223750Y-5873000D01*
X4424947Y-5873000D01*
X4455820Y-5889502D01*
X4575518Y-5925812D01*
X4700000Y-5938072D01*
X6250000Y-5938072D01*
X6374482Y-5925812D01*
X6494180Y-5889502D01*
X6525053Y-5873000D01*
X6726250Y-5873000D01*
X6839250Y-5760000D01*
X10286928Y-5760000D01*
X10286928Y-6025000D01*
X10303031Y-6188500D01*
X10350722Y-6345716D01*
X10428169Y-6490608D01*
X10532394Y-6617606D01*
X10659392Y-6721831D01*
X10804284Y-6799278D01*
X10961500Y-6846969D01*
X11125000Y-6863072D01*
X11675000Y-6863072D01*
X11838500Y-6846969D01*
X11995716Y-6799278D01*
X12140608Y-6721831D01*
X12267606Y-6617606D01*
X12269491Y-6615309D01*
X12309744Y-6642205D01*
X12498102Y-6720226D01*
X12698061Y-6760000D01*
X12901939Y-6760000D01*
X13101898Y-6720226D01*
X13290256Y-6642205D01*
X13459774Y-6528937D01*
X13603937Y-6384774D01*
X13710694Y-6225000D01*
X18386928Y-6225000D01*
X18399188Y-6349482D01*
X18435498Y-6469180D01*
X18494463Y-6579494D01*
X18573815Y-6676185D01*
X18670506Y-6755537D01*
X18780820Y-6814502D01*
X18900518Y-6850812D01*
X19025000Y-6863072D01*
X19214250Y-6860000D01*
X19373000Y-6701250D01*
X19373000Y-5902000D01*
X19627000Y-5902000D01*
X19627000Y-6701250D01*
X19785750Y-6860000D01*
X19975000Y-6863072D01*
X20099482Y-6850812D01*
X20219180Y-6814502D01*
X20329494Y-6755537D01*
X20426185Y-6676185D01*
X20505537Y-6579494D01*
X20564502Y-6469180D01*
X20600812Y-6349482D01*
X20613072Y-6225000D01*
X20610000Y-6060750D01*
X20451250Y-5902000D01*
X19627000Y-5902000D01*
X19373000Y-5902000D01*
X18548750Y-5902000D01*
X18390000Y-6060750D01*
X18386928Y-6225000D01*
X13710694Y-6225000D01*
X13717205Y-6215256D01*
X13795226Y-6026898D01*
X13835000Y-5826939D01*
X13835000Y-5760000D01*
X20696289Y-5760000D01*
X20740226Y-5803937D01*
X20909744Y-5917205D01*
X21098102Y-5995226D01*
X21298061Y-6035000D01*
X21501939Y-6035000D01*
X21701898Y-5995226D01*
X21890256Y-5917205D01*
X22059774Y-5803937D01*
X22203937Y-5659774D01*
X22317205Y-5490256D01*
X22395226Y-5301898D01*
X22435000Y-5101939D01*
X22435000Y-4898061D01*
X22395226Y-4698102D01*
X22317205Y-4509744D01*
X22203937Y-4340226D01*
X22059774Y-4196063D01*
X21890256Y-4082795D01*
X21701898Y-4004774D01*
X21501939Y-3965000D01*
X21298061Y-3965000D01*
X21098102Y-4004774D01*
X20909744Y-4082795D01*
X20740226Y-4196063D01*
X20696289Y-4240000D01*
X20613072Y-4240000D01*
X20613072Y-4000000D01*
X20596488Y-3831623D01*
X20547375Y-3669717D01*
X20467618Y-3520503D01*
X20360284Y-3389716D01*
X20260000Y-3307415D01*
X20260000Y-2637322D01*
X20263676Y-2599999D01*
X20260000Y-2562676D01*
X20260000Y-2562667D01*
X20249003Y-2451014D01*
X20205546Y-2307753D01*
X20134974Y-2175724D01*
X20109007Y-2144083D01*
X20063799Y-2088996D01*
X20063795Y-2088992D01*
X20040001Y-2059999D01*
X20011008Y-2036205D01*
X19363803Y-1389002D01*
X19340001Y-1359999D01*
X19224276Y-1265026D01*
X19092247Y-1194454D01*
X18948986Y-1150997D01*
X18837333Y-1140000D01*
X18837322Y-1140000D01*
X18800000Y-1136324D01*
X18762678Y-1140000D01*
X18603705Y-1140000D01*
X18559768Y-1096063D01*
X18390250Y-982795D01*
X18201892Y-904774D01*
X18001933Y-865000D01*
X17798055Y-865000D01*
X17598096Y-904774D01*
X17409738Y-982795D01*
X17240220Y-1096063D01*
X17096057Y-1240226D01*
X16982789Y-1409744D01*
X16904768Y-1598102D01*
X16864994Y-1798061D01*
X16864994Y-2001939D01*
X16904768Y-2201898D01*
X16982789Y-2390256D01*
X17096057Y-2559774D01*
X17240220Y-2703937D01*
X17409738Y-2817205D01*
X17598096Y-2895226D01*
X17798055Y-2935000D01*
X18001933Y-2935000D01*
X18201892Y-2895226D01*
X18390250Y-2817205D01*
X18541405Y-2716207D01*
X18740001Y-2914803D01*
X18740001Y-3240000D01*
X12069199Y-3240000D01*
X11995716Y-3200722D01*
X11838500Y-3153031D01*
X11675000Y-3136928D01*
X11125000Y-3136928D01*
X10961500Y-3153031D01*
X10804284Y-3200722D01*
X10730801Y-3240000D01*
X9537485Y-3240000D01*
X9535000Y-2985750D01*
X9376250Y-2827000D01*
X8127000Y-2827000D01*
X8127000Y-2847000D01*
X7873000Y-2847000D01*
X7873000Y-2827000D01*
X6623750Y-2827000D01*
X6465000Y-2985750D01*
X6463870Y-3101304D01*
X6374482Y-3074188D01*
X6250000Y-3061928D01*
X4700000Y-3061928D01*
X4575518Y-3074188D01*
X4455820Y-3110498D01*
X4345506Y-3169463D01*
X4248815Y-3248815D01*
X4169463Y-3345506D01*
X4110498Y-3455820D01*
X4074188Y-3575518D01*
X4061928Y-3700000D01*
X3627000Y-3700000D01*
X3627000Y-2100000D01*
X6461928Y-2100000D01*
X6465000Y-2414250D01*
X6623750Y-2573000D01*
X7873000Y-2573000D01*
X7873000Y-1623750D01*
X8127000Y-1623750D01*
X8127000Y-2573000D01*
X9376250Y-2573000D01*
X9535000Y-2414250D01*
X9538072Y-2100000D01*
X9525812Y-1975518D01*
X9489502Y-1855820D01*
X9430537Y-1745506D01*
X9351185Y-1648815D01*
X9254494Y-1569463D01*
X9144180Y-1510498D01*
X9024482Y-1474188D01*
X8900000Y-1461928D01*
X8285750Y-1465000D01*
X8127000Y-1623750D01*
X7873000Y-1623750D01*
X7714250Y-1465000D01*
X7100000Y-1461928D01*
X6975518Y-1474188D01*
X6855820Y-1510498D01*
X6745506Y-1569463D01*
X6648815Y-1648815D01*
X6569463Y-1745506D01*
X6510498Y-1855820D01*
X6474188Y-1975518D01*
X6461928Y-2100000D01*
X3627000Y-2100000D01*
X3627000Y-735000D01*
X23265000Y-735000D01*
X23264999Y-1963902D01*
G37*
G04 #@! TD.AperFunction*
M02*
