G04 #@! TF.GenerationSoftware,KiCad,Pcbnew,(5.1.10)-1*
G04 #@! TF.CreationDate,2022-02-06T13:45:14+09:00*
G04 #@! TF.ProjectId,SubSensor,53756253-656e-4736-9f72-2e6b69636164,rev?*
G04 #@! TF.SameCoordinates,Original*
G04 #@! TF.FileFunction,Legend,Bot*
G04 #@! TF.FilePolarity,Positive*
%FSLAX46Y46*%
G04 Gerber Fmt 4.6, Leading zero omitted, Abs format (unit mm)*
G04 Created by KiCad (PCBNEW (5.1.10)-1) date 2022-02-06 13:45:14*
%MOMM*%
%LPD*%
G01*
G04 APERTURE LIST*
%ADD10C,0.120000*%
%ADD11C,0.150000*%
%ADD12R,1.800000X1.200000*%
G04 APERTURE END LIST*
D10*
X14935000Y-4200000D02*
X14935000Y-6485000D01*
X14935000Y-6485000D02*
X13465000Y-6485000D01*
X13465000Y-6485000D02*
X13465000Y-4200000D01*
X21900000Y-7900000D02*
X21900000Y-2100000D01*
X21900000Y-2100000D02*
X17100000Y-2100000D01*
X17100000Y-2100000D02*
X17100000Y-7900000D01*
X17100000Y-7900000D02*
X21900000Y-7900000D01*
X19983334Y-6450002D02*
G75*
G03*
X19983334Y-6450002I-483334J0D01*
G01*
D11*
X12902380Y-4261904D02*
X11902380Y-4261904D01*
X11902380Y-4500000D01*
X11950000Y-4642857D01*
X12045238Y-4738095D01*
X12140476Y-4785714D01*
X12330952Y-4833333D01*
X12473809Y-4833333D01*
X12664285Y-4785714D01*
X12759523Y-4738095D01*
X12854761Y-4642857D01*
X12902380Y-4500000D01*
X12902380Y-4261904D01*
X12902380Y-5785714D02*
X12902380Y-5214285D01*
X12902380Y-5500000D02*
X11902380Y-5500000D01*
X12045238Y-5404761D01*
X12140476Y-5309523D01*
X12188095Y-5214285D01*
X20261904Y-702380D02*
X20261904Y-1511904D01*
X20214285Y-1607142D01*
X20166666Y-1654761D01*
X20071428Y-1702380D01*
X19880952Y-1702380D01*
X19785714Y-1654761D01*
X19738095Y-1607142D01*
X19690476Y-1511904D01*
X19690476Y-702380D01*
X18690476Y-1702380D02*
X19261904Y-1702380D01*
X18976190Y-1702380D02*
X18976190Y-702380D01*
X19071428Y-845238D01*
X19166666Y-940476D01*
X19261904Y-988095D01*
%LPC*%
G36*
G01*
X14456250Y-6225000D02*
X13943750Y-6225000D01*
G75*
G02*
X13725000Y-6006250I0J218750D01*
G01*
X13725000Y-5568750D01*
G75*
G02*
X13943750Y-5350000I218750J0D01*
G01*
X14456250Y-5350000D01*
G75*
G02*
X14675000Y-5568750I0J-218750D01*
G01*
X14675000Y-6006250D01*
G75*
G02*
X14456250Y-6225000I-218750J0D01*
G01*
G37*
G36*
G01*
X14456250Y-4650000D02*
X13943750Y-4650000D01*
G75*
G02*
X13725000Y-4431250I0J218750D01*
G01*
X13725000Y-3993750D01*
G75*
G02*
X13943750Y-3775000I218750J0D01*
G01*
X14456250Y-3775000D01*
G75*
G02*
X14675000Y-3993750I0J-218750D01*
G01*
X14675000Y-4431250D01*
G75*
G02*
X14456250Y-4650000I-218750J0D01*
G01*
G37*
D12*
X16150000Y-6270000D03*
X16150000Y-3730000D03*
X22850000Y-3730000D03*
X22850000Y-6270000D03*
M02*
