%TF.GenerationSoftware,KiCad,Pcbnew,(5.1.10)-1*%
%TF.CreationDate,2022-02-04T19:34:50+09:00*%
%TF.ProjectId,SubSensor,53756253-656e-4736-9f72-2e6b69636164,rev?*%
%TF.SameCoordinates,Original*%
%TF.FileFunction,Paste,Bot*%
%TF.FilePolarity,Positive*%
%FSLAX46Y46*%
G04 Gerber Fmt 4.6, Leading zero omitted, Abs format (unit mm)*
G04 Created by KiCad (PCBNEW (5.1.10)-1) date 2022-02-04 19:34:50*
%MOMM*%
%LPD*%
G01*
G04 APERTURE LIST*
%ADD10R,1.800000X1.200000*%
G04 APERTURE END LIST*
%TO.C,D1*%
G36*
G01*
X14725000Y-5743750D02*
X14725000Y-6256250D01*
G75*
G02*
X14506250Y-6475000I-218750J0D01*
G01*
X14068750Y-6475000D01*
G75*
G02*
X13850000Y-6256250I0J218750D01*
G01*
X13850000Y-5743750D01*
G75*
G02*
X14068750Y-5525000I218750J0D01*
G01*
X14506250Y-5525000D01*
G75*
G02*
X14725000Y-5743750I0J-218750D01*
G01*
G37*
G36*
G01*
X13150000Y-5743750D02*
X13150000Y-6256250D01*
G75*
G02*
X12931250Y-6475000I-218750J0D01*
G01*
X12493750Y-6475000D01*
G75*
G02*
X12275000Y-6256250I0J218750D01*
G01*
X12275000Y-5743750D01*
G75*
G02*
X12493750Y-5525000I218750J0D01*
G01*
X12931250Y-5525000D01*
G75*
G02*
X13150000Y-5743750I0J-218750D01*
G01*
G37*
%TD*%
%TO.C,R1*%
G36*
G01*
X14725000Y-3725000D02*
X14725000Y-4275000D01*
G75*
G02*
X14525000Y-4475000I-200000J0D01*
G01*
X14125000Y-4475000D01*
G75*
G02*
X13925000Y-4275000I0J200000D01*
G01*
X13925000Y-3725000D01*
G75*
G02*
X14125000Y-3525000I200000J0D01*
G01*
X14525000Y-3525000D01*
G75*
G02*
X14725000Y-3725000I0J-200000D01*
G01*
G37*
G36*
G01*
X13075000Y-3725000D02*
X13075000Y-4275000D01*
G75*
G02*
X12875000Y-4475000I-200000J0D01*
G01*
X12475000Y-4475000D01*
G75*
G02*
X12275000Y-4275000I0J200000D01*
G01*
X12275000Y-3725000D01*
G75*
G02*
X12475000Y-3525000I200000J0D01*
G01*
X12875000Y-3525000D01*
G75*
G02*
X13075000Y-3725000I0J-200000D01*
G01*
G37*
%TD*%
D10*
%TO.C,U1*%
X16150000Y-6270000D03*
X16150000Y-3730000D03*
X22850000Y-3730000D03*
X22850000Y-6270000D03*
%TD*%
M02*
