G04 #@! TF.GenerationSoftware,KiCad,Pcbnew,(5.1.10)-1*
G04 #@! TF.CreationDate,2022-02-06T13:45:14+09:00*
G04 #@! TF.ProjectId,SubSensor,53756253-656e-4736-9f72-2e6b69636164,rev?*
G04 #@! TF.SameCoordinates,Original*
G04 #@! TF.FileFunction,Legend,Top*
G04 #@! TF.FilePolarity,Positive*
%FSLAX46Y46*%
G04 Gerber Fmt 4.6, Leading zero omitted, Abs format (unit mm)*
G04 Created by KiCad (PCBNEW (5.1.10)-1) date 2022-02-06 13:45:14*
%MOMM*%
%LPD*%
G01*
G04 APERTURE LIST*
%ADD10C,0.120000*%
%ADD11C,0.150000*%
%ADD12R,1.550000X0.600000*%
%ADD13R,1.800000X1.200000*%
G04 APERTURE END LIST*
D10*
X20010000Y-4859420D02*
X20010000Y-5140580D01*
X18990000Y-4859420D02*
X18990000Y-5140580D01*
X5800000Y-2500000D02*
X7000000Y-2500000D01*
X5800000Y-7500000D02*
X7000000Y-7500000D01*
X5800000Y-7500000D02*
X5800000Y-2500000D01*
X11922500Y-4762742D02*
X11922500Y-5237258D01*
X10877500Y-4762742D02*
X10877500Y-5237258D01*
D11*
X21287142Y-5166666D02*
X21334761Y-5214285D01*
X21382380Y-5357142D01*
X21382380Y-5452380D01*
X21334761Y-5595238D01*
X21239523Y-5690476D01*
X21144285Y-5738095D01*
X20953809Y-5785714D01*
X20810952Y-5785714D01*
X20620476Y-5738095D01*
X20525238Y-5690476D01*
X20430000Y-5595238D01*
X20382380Y-5452380D01*
X20382380Y-5357142D01*
X20430000Y-5214285D01*
X20477619Y-5166666D01*
X21382380Y-4214285D02*
X21382380Y-4785714D01*
X21382380Y-4500000D02*
X20382380Y-4500000D01*
X20525238Y-4595238D01*
X20620476Y-4690476D01*
X20668095Y-4785714D01*
X5416666Y-702380D02*
X5416666Y-1416666D01*
X5369047Y-1559523D01*
X5273809Y-1654761D01*
X5130952Y-1702380D01*
X5035714Y-1702380D01*
X6416666Y-1702380D02*
X5845238Y-1702380D01*
X6130952Y-1702380D02*
X6130952Y-702380D01*
X6035714Y-845238D01*
X5940476Y-940476D01*
X5845238Y-988095D01*
X13282380Y-5166666D02*
X12806190Y-5500000D01*
X13282380Y-5738095D02*
X12282380Y-5738095D01*
X12282380Y-5357142D01*
X12330000Y-5261904D01*
X12377619Y-5214285D01*
X12472857Y-5166666D01*
X12615714Y-5166666D01*
X12710952Y-5214285D01*
X12758571Y-5261904D01*
X12806190Y-5357142D01*
X12806190Y-5738095D01*
X13282380Y-4214285D02*
X13282380Y-4785714D01*
X13282380Y-4500000D02*
X12282380Y-4500000D01*
X12425238Y-4595238D01*
X12520476Y-4690476D01*
X12568095Y-4785714D01*
%LPC*%
G36*
G01*
X19250000Y-3775000D02*
X19750000Y-3775000D01*
G75*
G02*
X19975000Y-4000000I0J-225000D01*
G01*
X19975000Y-4450000D01*
G75*
G02*
X19750000Y-4675000I-225000J0D01*
G01*
X19250000Y-4675000D01*
G75*
G02*
X19025000Y-4450000I0J225000D01*
G01*
X19025000Y-4000000D01*
G75*
G02*
X19250000Y-3775000I225000J0D01*
G01*
G37*
G36*
G01*
X19250000Y-5325000D02*
X19750000Y-5325000D01*
G75*
G02*
X19975000Y-5550000I0J-225000D01*
G01*
X19975000Y-6000000D01*
G75*
G02*
X19750000Y-6225000I-225000J0D01*
G01*
X19250000Y-6225000D01*
G75*
G02*
X19025000Y-6000000I0J225000D01*
G01*
X19025000Y-5550000D01*
G75*
G02*
X19250000Y-5325000I225000J0D01*
G01*
G37*
D12*
X5475000Y-4000000D03*
X5475000Y-6000000D03*
X5475000Y-5000000D03*
D13*
X8000000Y-7300000D03*
X8000000Y-2700000D03*
G36*
G01*
X11125000Y-3775000D02*
X11675000Y-3775000D01*
G75*
G02*
X11875000Y-3975000I0J-200000D01*
G01*
X11875000Y-4375000D01*
G75*
G02*
X11675000Y-4575000I-200000J0D01*
G01*
X11125000Y-4575000D01*
G75*
G02*
X10925000Y-4375000I0J200000D01*
G01*
X10925000Y-3975000D01*
G75*
G02*
X11125000Y-3775000I200000J0D01*
G01*
G37*
G36*
G01*
X11125000Y-5425000D02*
X11675000Y-5425000D01*
G75*
G02*
X11875000Y-5625000I0J-200000D01*
G01*
X11875000Y-6025000D01*
G75*
G02*
X11675000Y-6225000I-200000J0D01*
G01*
X11125000Y-6225000D01*
G75*
G02*
X10925000Y-6025000I0J200000D01*
G01*
X10925000Y-5625000D01*
G75*
G02*
X11125000Y-5425000I200000J0D01*
G01*
G37*
M02*
