%FSLAX45Y45*%
G04 Gerber Fmt 4.5, Leading zero omitted, Abs format (unit mm)*
G04 Created by KiCad (PCBNEW (5.1.10)-1) date 2022-02-06 01:46:55*
%MOMM*%
%LPD*%
G01*
G04 APERTURE LIST*
%TA.AperFunction,Profile*%
%ADD10C,0.200000*%
%TD*%
%ADD11C,0.200000*%
%ADD12C,0.300000*%
G04 APERTURE END LIST*
D10*
X-2140000Y1140000D02*
X-2140000Y340000D01*
X-3040000Y1140000D02*
X-2140000Y1140000D01*
X-3040000Y340000D02*
X-3040000Y1140000D01*
X-2140000Y340000D02*
X-3040000Y340000D01*
X-3595000Y-1445000D02*
G75*
G03*
X-3595000Y-1445000I-120000J0D01*
G01*
X-3595000Y2045000D02*
G75*
G03*
X-3595000Y2045000I-120000J0D01*
G01*
X3835000Y-1445000D02*
G75*
G03*
X3835000Y-1445000I-120000J0D01*
G01*
X3835000Y2045000D02*
G75*
G03*
X3835000Y2045000I-120000J0D01*
G01*
X3940000Y2740000D02*
X-3940000Y2740000D01*
X3940000Y1350000D02*
X3940000Y2740000D01*
X3490000Y1350000D02*
X3940000Y1350000D01*
X3490000Y-150000D02*
X3490000Y1350000D01*
X3940000Y-150000D02*
X3490000Y-150000D01*
X3940000Y-2740000D02*
X3940000Y-150000D01*
X-3940000Y-2740000D02*
X3940000Y-2740000D01*
X-3940000Y-150000D02*
X-3940000Y-2740000D01*
X-3490000Y-150000D02*
X-3940000Y-150000D01*
X-3490000Y1350000D02*
X-3490000Y-150000D01*
X-3940000Y1350000D02*
X-3490000Y1350000D01*
X-3940000Y2740000D02*
X-3940000Y1350000D01*
D11*
X-2545000Y1255000D02*
X-2515000Y1225000D01*
X-2515000Y1255000D02*
X-2545000Y1225000D01*
X-1545000Y1655000D02*
X-1515000Y1625000D01*
X-1515000Y1655000D02*
X-1545000Y1625000D01*
X-1440000Y-1285000D02*
X-1410000Y-1315000D01*
X-1410000Y-1285000D02*
X-1440000Y-1315000D01*
X-1315000Y-845000D02*
X-1285000Y-875000D01*
X-1285000Y-845000D02*
X-1315000Y-875000D01*
X-1000000Y800000D02*
X-970000Y770000D01*
X-970000Y800000D02*
X-1000000Y770000D01*
X-940000Y-1235000D02*
X-910000Y-1265000D01*
X-910000Y-1235000D02*
X-940000Y-1265000D01*
X-815000Y-1010000D02*
X-785000Y-1040000D01*
X-785000Y-1010000D02*
X-815000Y-1040000D01*
X-690000Y-1235000D02*
X-660000Y-1265000D01*
X-660000Y-1235000D02*
X-690000Y-1265000D01*
X-390000Y-1685000D02*
X-360000Y-1715000D01*
X-360000Y-1685000D02*
X-390000Y-1715000D01*
X-252500Y1705000D02*
X-222500Y1675000D01*
X-222500Y1705000D02*
X-252500Y1675000D01*
X-240000Y-1635000D02*
X-210000Y-1665000D01*
X-210000Y-1635000D02*
X-240000Y-1665000D01*
X-40000Y-1735000D02*
X-10000Y-1765000D01*
X-10000Y-1735000D02*
X-40000Y-1765000D01*
X45000Y-1395000D02*
X75000Y-1425000D01*
X75000Y-1395000D02*
X45000Y-1425000D01*
X155001Y-1004999D02*
X185001Y-1034999D01*
X185001Y-1004999D02*
X155001Y-1034999D01*
X185000Y-1660000D02*
X215000Y-1690000D01*
X215000Y-1660000D02*
X185000Y-1690000D01*
X367500Y805000D02*
X397500Y775000D01*
X397500Y805000D02*
X367500Y775000D01*
X425000Y-1395000D02*
X455000Y-1425000D01*
X455000Y-1395000D02*
X425000Y-1425000D01*
X560000Y-1660000D02*
X590000Y-1690000D01*
X590000Y-1660000D02*
X560000Y-1690000D01*
X725000Y-1735000D02*
X755000Y-1765000D01*
X755000Y-1735000D02*
X725000Y-1765000D01*
X815000Y-1385000D02*
X845000Y-1415000D01*
X845000Y-1385000D02*
X815000Y-1415000D01*
X835000Y95000D02*
X865000Y65000D01*
X865000Y95000D02*
X835000Y65000D01*
X1310000Y-1135000D02*
X1340000Y-1165000D01*
X1340000Y-1135000D02*
X1310000Y-1165000D01*
X1402000Y2109000D02*
X1432000Y2079000D01*
X1432000Y2109000D02*
X1402000Y2079000D01*
X1635000Y2135000D02*
X1665000Y2105000D01*
X1665000Y2135000D02*
X1635000Y2105000D01*
X2660000Y95000D02*
X2690000Y65000D01*
X2690000Y95000D02*
X2660000Y65000D01*
X-2095000Y-535000D02*
G75*
G03*
X-2095000Y-535000I-20000J0D01*
G01*
X-1340000Y2080000D02*
G75*
G03*
X-1340000Y2080000I-20000J0D01*
G01*
X-1340000Y1980000D02*
G75*
G03*
X-1340000Y1980000I-20000J0D01*
G01*
X-1120000Y1620000D02*
G75*
G03*
X-1120000Y1620000I-20000J0D01*
G01*
X-1120000Y1420000D02*
G75*
G03*
X-1120000Y1420000I-20000J0D01*
G01*
X-1030000Y-1100000D02*
G75*
G03*
X-1030000Y-1100000I-20000J0D01*
G01*
X-1030000Y-1725000D02*
G75*
G03*
X-1030000Y-1725000I-20000J0D01*
G01*
X-1020000Y2080000D02*
G75*
G03*
X-1020000Y2080000I-20000J0D01*
G01*
X-1007500Y-527500D02*
G75*
G03*
X-1007500Y-527500I-20000J0D01*
G01*
X-860000Y2100000D02*
G75*
G03*
X-860000Y2100000I-20000J0D01*
G01*
X-840000Y1420000D02*
G75*
G03*
X-840000Y1420000I-20000J0D01*
G01*
X-552500Y-527500D02*
G75*
G03*
X-552500Y-527500I-20000J0D01*
G01*
X-530000Y-1100000D02*
G75*
G03*
X-530000Y-1100000I-20000J0D01*
G01*
X-530000Y-1725000D02*
G75*
G03*
X-530000Y-1725000I-20000J0D01*
G01*
X-320000Y1540000D02*
G75*
G03*
X-320000Y1540000I-20000J0D01*
G01*
X-200000Y1840000D02*
G75*
G03*
X-200000Y1840000I-20000J0D01*
G01*
X-110000Y1200000D02*
G75*
G03*
X-110000Y1200000I-20000J0D01*
G01*
X-110000Y1000000D02*
G75*
G03*
X-110000Y1000000I-20000J0D01*
G01*
X80000Y2000000D02*
G75*
G03*
X80000Y2000000I-20000J0D01*
G01*
X217500Y272500D02*
G75*
G03*
X217500Y272500I-20000J0D01*
G01*
X320000Y200000D02*
G75*
G03*
X320000Y200000I-20000J0D01*
G01*
X320000Y-675000D02*
G75*
G03*
X320000Y-675000I-20000J0D01*
G01*
X434511Y-686980D02*
G75*
G03*
X434511Y-686980I-20000J0D01*
G01*
X1370000Y1680000D02*
G75*
G03*
X1370000Y1680000I-20000J0D01*
G01*
X1495000Y75000D02*
G75*
G03*
X1495000Y75000I-20000J0D01*
G01*
X1520000Y-200000D02*
G75*
G03*
X1520000Y-200000I-20000J0D01*
G01*
X1570000Y525000D02*
G75*
G03*
X1570000Y525000I-20000J0D01*
G01*
X1727500Y-1057500D02*
G75*
G03*
X1727500Y-1057500I-20000J0D01*
G01*
X1865500Y-1579500D02*
G75*
G03*
X1865500Y-1579500I-20000J0D01*
G01*
X1870000Y-925000D02*
G75*
G03*
X1870000Y-925000I-20000J0D01*
G01*
X1940000Y2200000D02*
G75*
G03*
X1940000Y2200000I-20000J0D01*
G01*
X1945000Y550000D02*
G75*
G03*
X1945000Y550000I-20000J0D01*
G01*
X1945000Y425000D02*
G75*
G03*
X1945000Y425000I-20000J0D01*
G01*
X1995000Y-800000D02*
G75*
G03*
X1995000Y-800000I-20000J0D01*
G01*
X2005000Y-200000D02*
G75*
G03*
X2005000Y-200000I-20000J0D01*
G01*
X2005000Y-1285000D02*
G75*
G03*
X2005000Y-1285000I-20000J0D01*
G01*
X2042500Y272500D02*
G75*
G03*
X2042500Y272500I-20000J0D01*
G01*
X2145000Y200000D02*
G75*
G03*
X2145000Y200000I-20000J0D01*
G01*
X2202500Y-1057500D02*
G75*
G03*
X2202500Y-1057500I-20000J0D01*
G01*
X2580000Y1540000D02*
G75*
G03*
X2580000Y1540000I-20000J0D01*
G01*
X2608000Y450000D02*
G75*
G03*
X2608000Y450000I-20000J0D01*
G01*
X-2875000Y-625000D02*
X-2875000Y-675000D01*
X-2900000Y-650000D02*
X-2850000Y-650000D01*
X-2730000Y-1375000D02*
X-2730000Y-1425000D01*
X-2755000Y-1400000D02*
X-2705000Y-1400000D01*
X-2390000Y-1105000D02*
X-2390000Y-1155000D01*
X-2415000Y-1130000D02*
X-2365000Y-1130000D01*
X-2350000Y-675000D02*
X-2350000Y-725000D01*
X-2375000Y-700000D02*
X-2325000Y-700000D01*
X-1954000Y-962000D02*
X-1954000Y-1012000D01*
X-1979000Y-987000D02*
X-1929000Y-987000D01*
X-1430000Y-1565000D02*
X-1430000Y-1615000D01*
X-1455000Y-1590000D02*
X-1405000Y-1590000D01*
X-1270000Y-1467500D02*
X-1270000Y-1517500D01*
X-1295000Y-1492500D02*
X-1245000Y-1492500D01*
X-400000Y-225000D02*
X-400000Y-275000D01*
X-425000Y-250000D02*
X-375000Y-250000D01*
X-335001Y1339999D02*
X-335001Y1289999D01*
X-360001Y1314999D02*
X-310001Y1314999D01*
X-250000Y-500000D02*
X-250000Y-550000D01*
X-275000Y-525000D02*
X-225000Y-525000D01*
X-250000Y-950000D02*
X-250000Y-1000000D01*
X-275000Y-975000D02*
X-225000Y-975000D01*
X-75000Y-50000D02*
X-75000Y-100000D01*
X-100000Y-75000D02*
X-50000Y-75000D01*
X150000Y-475000D02*
X150000Y-525000D01*
X125000Y-500000D02*
X175000Y-500000D01*
X150000Y-725000D02*
X150000Y-775000D01*
X125000Y-750000D02*
X175000Y-750000D01*
X160000Y-175000D02*
X160000Y-225000D01*
X135000Y-200000D02*
X185000Y-200000D01*
X330000Y1225000D02*
X330000Y1175000D01*
X305000Y1200000D02*
X355000Y1200000D01*
X330000Y1035000D02*
X330000Y985000D01*
X305000Y1010000D02*
X355000Y1010000D01*
X650000Y1460000D02*
X650000Y1410000D01*
X625000Y1435000D02*
X675000Y1435000D01*
X655000Y997500D02*
X655000Y947500D01*
X630000Y972500D02*
X680000Y972500D01*
X700000Y1675002D02*
X700000Y1625002D01*
X675000Y1650002D02*
X725000Y1650002D01*
X1100000Y-1200000D02*
X1100000Y-1250000D01*
X1075000Y-1225000D02*
X1125000Y-1225000D01*
X1325000Y-725000D02*
X1325000Y-775000D01*
X1300000Y-750000D02*
X1350000Y-750000D01*
X1425000Y-850000D02*
X1425000Y-900000D01*
X1400000Y-875000D02*
X1450000Y-875000D01*
X1500000Y-500000D02*
X1500000Y-550000D01*
X1475000Y-525000D02*
X1525000Y-525000D01*
X1725000Y-75000D02*
X1725000Y-125000D01*
X1700000Y-100000D02*
X1750000Y-100000D01*
X1725000Y-300000D02*
X1725000Y-350000D01*
X1700000Y-325000D02*
X1750000Y-325000D01*
X1725000Y-675000D02*
X1725000Y-725000D01*
X1700000Y-700000D02*
X1750000Y-700000D01*
X1925000Y-500000D02*
X1925000Y-550000D01*
X1900000Y-525000D02*
X1950000Y-525000D01*
X-2815251Y1475251D02*
X-2815251Y1524749D01*
X-2864749Y1524749D01*
X-2864749Y1475251D01*
X-2815251Y1475251D01*
X-2565251Y1475251D02*
X-2565251Y1524749D01*
X-2614749Y1524749D01*
X-2614749Y1475251D01*
X-2565251Y1475251D01*
X-2315251Y1475251D02*
X-2315251Y1524749D01*
X-2364749Y1524749D01*
X-2364749Y1475251D01*
X-2315251Y1475251D01*
X1274749Y-99749D02*
X1274749Y-50251D01*
X1225251Y-50251D01*
X1225251Y-99749D01*
X1274749Y-99749D01*
X1274749Y-349749D02*
X1274749Y-300251D01*
X1225251Y-300251D01*
X1225251Y-349749D01*
X1274749Y-349749D01*
X3099749Y-99749D02*
X3099749Y-50251D01*
X3050251Y-50251D01*
X3050251Y-99749D01*
X3099749Y-99749D01*
X3099749Y-349749D02*
X3099749Y-300251D01*
X3050251Y-300251D01*
X3050251Y-349749D01*
X3099749Y-349749D01*
X2505000Y1925000D02*
X2560000Y1980000D01*
X2505000Y2035000D01*
X2450000Y1980000D01*
X2505000Y1925000D01*
X2755000Y1925000D02*
X2810000Y1980000D01*
X2755000Y2035000D01*
X2700000Y1980000D01*
X2755000Y1925000D01*
X1645000Y2505000D02*
X1735000Y2415000D01*
X1735000Y2505000D02*
X1645000Y2415000D01*
X1735000Y2460000D02*
G75*
G03*
X1735000Y2460000I-45000J0D01*
G01*
X1945000Y2505000D02*
X2035000Y2415000D01*
X2035000Y2505000D02*
X1945000Y2415000D01*
X2035000Y2460000D02*
G75*
G03*
X2035000Y2460000I-45000J0D01*
G01*
D12*
X-3663571Y-3215714D02*
X-3663571Y-2915714D01*
X-3592143Y-2915714D01*
X-3549286Y-2930000D01*
X-3520714Y-2958571D01*
X-3506429Y-2987143D01*
X-3492143Y-3044286D01*
X-3492143Y-3087143D01*
X-3506429Y-3144286D01*
X-3520714Y-3172857D01*
X-3549286Y-3201429D01*
X-3592143Y-3215714D01*
X-3663571Y-3215714D01*
X-3363571Y-3215714D02*
X-3363571Y-3015714D01*
X-3363571Y-3072857D02*
X-3349286Y-3044286D01*
X-3335000Y-3030000D01*
X-3306429Y-3015714D01*
X-3277857Y-3015714D01*
X-3177857Y-3215714D02*
X-3177857Y-3015714D01*
X-3177857Y-2915714D02*
X-3192143Y-2930000D01*
X-3177857Y-2944286D01*
X-3163571Y-2930000D01*
X-3177857Y-2915714D01*
X-3177857Y-2944286D01*
X-2992143Y-3215714D02*
X-3020714Y-3201429D01*
X-3035000Y-3172857D01*
X-3035000Y-2915714D01*
X-2835000Y-3215714D02*
X-2863571Y-3201429D01*
X-2877857Y-3172857D01*
X-2877857Y-2915714D01*
X-2492143Y-3215714D02*
X-2492143Y-2915714D01*
X-2392143Y-3130000D01*
X-2292143Y-2915714D01*
X-2292143Y-3215714D01*
X-2020714Y-3215714D02*
X-2020714Y-3058571D01*
X-2035000Y-3030000D01*
X-2063571Y-3015714D01*
X-2120714Y-3015714D01*
X-2149286Y-3030000D01*
X-2020714Y-3201429D02*
X-2049286Y-3215714D01*
X-2120714Y-3215714D01*
X-2149286Y-3201429D01*
X-2163572Y-3172857D01*
X-2163572Y-3144286D01*
X-2149286Y-3115714D01*
X-2120714Y-3101429D01*
X-2049286Y-3101429D01*
X-2020714Y-3087143D01*
X-1877857Y-3015714D02*
X-1877857Y-3315714D01*
X-1877857Y-3030000D02*
X-1849286Y-3015714D01*
X-1792143Y-3015714D01*
X-1763571Y-3030000D01*
X-1749286Y-3044286D01*
X-1735000Y-3072857D01*
X-1735000Y-3158571D01*
X-1749286Y-3187143D01*
X-1763571Y-3201429D01*
X-1792143Y-3215714D01*
X-1849286Y-3215714D01*
X-1877857Y-3201429D01*
X-1606429Y-3187143D02*
X-1592143Y-3201429D01*
X-1606429Y-3215714D01*
X-1620714Y-3201429D01*
X-1606429Y-3187143D01*
X-1606429Y-3215714D01*
X-1606429Y-3030000D02*
X-1592143Y-3044286D01*
X-1606429Y-3058571D01*
X-1620714Y-3044286D01*
X-1606429Y-3030000D01*
X-1606429Y-3058571D01*
X-3980000Y-3695000D02*
X-3950000Y-3725000D01*
X-3950000Y-3695000D02*
X-3980000Y-3725000D01*
X-3606429Y-3545714D02*
X-3577857Y-3545714D01*
X-3549286Y-3560000D01*
X-3535000Y-3574286D01*
X-3520714Y-3602857D01*
X-3506429Y-3660000D01*
X-3506429Y-3731429D01*
X-3520714Y-3788571D01*
X-3535000Y-3817143D01*
X-3549286Y-3831429D01*
X-3577857Y-3845714D01*
X-3606429Y-3845714D01*
X-3635000Y-3831429D01*
X-3649286Y-3817143D01*
X-3663571Y-3788571D01*
X-3677857Y-3731429D01*
X-3677857Y-3660000D01*
X-3663571Y-3602857D01*
X-3649286Y-3574286D01*
X-3635000Y-3560000D01*
X-3606429Y-3545714D01*
X-3377857Y-3817143D02*
X-3363571Y-3831429D01*
X-3377857Y-3845714D01*
X-3392143Y-3831429D01*
X-3377857Y-3817143D01*
X-3377857Y-3845714D01*
X-3263571Y-3545714D02*
X-3077857Y-3545714D01*
X-3177857Y-3660000D01*
X-3135000Y-3660000D01*
X-3106429Y-3674286D01*
X-3092143Y-3688571D01*
X-3077857Y-3717143D01*
X-3077857Y-3788571D01*
X-3092143Y-3817143D01*
X-3106429Y-3831429D01*
X-3135000Y-3845714D01*
X-3220714Y-3845714D01*
X-3249286Y-3831429D01*
X-3263571Y-3817143D01*
X-2892143Y-3545714D02*
X-2863571Y-3545714D01*
X-2835000Y-3560000D01*
X-2820714Y-3574286D01*
X-2806429Y-3602857D01*
X-2792143Y-3660000D01*
X-2792143Y-3731429D01*
X-2806429Y-3788571D01*
X-2820714Y-3817143D01*
X-2835000Y-3831429D01*
X-2863571Y-3845714D01*
X-2892143Y-3845714D01*
X-2920714Y-3831429D01*
X-2935000Y-3817143D01*
X-2949286Y-3788571D01*
X-2963571Y-3731429D01*
X-2963571Y-3660000D01*
X-2949286Y-3602857D01*
X-2935000Y-3574286D01*
X-2920714Y-3560000D01*
X-2892143Y-3545714D01*
X-2606429Y-3545714D02*
X-2577857Y-3545714D01*
X-2549286Y-3560000D01*
X-2535000Y-3574286D01*
X-2520714Y-3602857D01*
X-2506429Y-3660000D01*
X-2506429Y-3731429D01*
X-2520714Y-3788571D01*
X-2535000Y-3817143D01*
X-2549286Y-3831429D01*
X-2577857Y-3845714D01*
X-2606429Y-3845714D01*
X-2635000Y-3831429D01*
X-2649286Y-3817143D01*
X-2663572Y-3788571D01*
X-2677857Y-3731429D01*
X-2677857Y-3660000D01*
X-2663572Y-3602857D01*
X-2649286Y-3574286D01*
X-2635000Y-3560000D01*
X-2606429Y-3545714D01*
X-2377857Y-3845714D02*
X-2377857Y-3645714D01*
X-2377857Y-3674286D02*
X-2363572Y-3660000D01*
X-2335000Y-3645714D01*
X-2292143Y-3645714D01*
X-2263572Y-3660000D01*
X-2249286Y-3688571D01*
X-2249286Y-3845714D01*
X-2249286Y-3688571D02*
X-2235000Y-3660000D01*
X-2206429Y-3645714D01*
X-2163572Y-3645714D01*
X-2135000Y-3660000D01*
X-2120714Y-3688571D01*
X-2120714Y-3845714D01*
X-1977857Y-3845714D02*
X-1977857Y-3645714D01*
X-1977857Y-3674286D02*
X-1963571Y-3660000D01*
X-1935000Y-3645714D01*
X-1892143Y-3645714D01*
X-1863571Y-3660000D01*
X-1849286Y-3688571D01*
X-1849286Y-3845714D01*
X-1849286Y-3688571D02*
X-1835000Y-3660000D01*
X-1806429Y-3645714D01*
X-1763571Y-3645714D01*
X-1735000Y-3660000D01*
X-1720714Y-3688571D01*
X-1720714Y-3845714D01*
X-1135000Y-3531429D02*
X-1392143Y-3917143D01*
X-749286Y-3545714D02*
X-720714Y-3545714D01*
X-692143Y-3560000D01*
X-677857Y-3574286D01*
X-663572Y-3602857D01*
X-649286Y-3660000D01*
X-649286Y-3731429D01*
X-663572Y-3788571D01*
X-677857Y-3817143D01*
X-692143Y-3831429D01*
X-720714Y-3845714D01*
X-749286Y-3845714D01*
X-777857Y-3831429D01*
X-792143Y-3817143D01*
X-806429Y-3788571D01*
X-820714Y-3731429D01*
X-820714Y-3660000D01*
X-806429Y-3602857D01*
X-792143Y-3574286D01*
X-777857Y-3560000D01*
X-749286Y-3545714D01*
X-520714Y-3817143D02*
X-506429Y-3831429D01*
X-520714Y-3845714D01*
X-535000Y-3831429D01*
X-520714Y-3817143D01*
X-520714Y-3845714D01*
X-320714Y-3545714D02*
X-292143Y-3545714D01*
X-263572Y-3560000D01*
X-249286Y-3574286D01*
X-235000Y-3602857D01*
X-220714Y-3660000D01*
X-220714Y-3731429D01*
X-235000Y-3788571D01*
X-249286Y-3817143D01*
X-263572Y-3831429D01*
X-292143Y-3845714D01*
X-320714Y-3845714D01*
X-349286Y-3831429D01*
X-363571Y-3817143D01*
X-377857Y-3788571D01*
X-392143Y-3731429D01*
X-392143Y-3660000D01*
X-377857Y-3602857D01*
X-363571Y-3574286D01*
X-349286Y-3560000D01*
X-320714Y-3545714D01*
X65000Y-3845714D02*
X-106429Y-3845714D01*
X-20714Y-3845714D02*
X-20714Y-3545714D01*
X-49286Y-3588571D01*
X-77857Y-3617143D01*
X-106429Y-3631429D01*
X350714Y-3845714D02*
X179286Y-3845714D01*
X265000Y-3845714D02*
X265000Y-3545714D01*
X236428Y-3588571D01*
X207857Y-3617143D01*
X179286Y-3631429D01*
X522143Y-3674286D02*
X493571Y-3660000D01*
X479286Y-3645714D01*
X465000Y-3617143D01*
X465000Y-3602857D01*
X479286Y-3574286D01*
X493571Y-3560000D01*
X522143Y-3545714D01*
X579286Y-3545714D01*
X607857Y-3560000D01*
X622143Y-3574286D01*
X636428Y-3602857D01*
X636428Y-3617143D01*
X622143Y-3645714D01*
X607857Y-3660000D01*
X579286Y-3674286D01*
X522143Y-3674286D01*
X493571Y-3688571D01*
X479286Y-3702857D01*
X465000Y-3731429D01*
X465000Y-3788571D01*
X479286Y-3817143D01*
X493571Y-3831429D01*
X522143Y-3845714D01*
X579286Y-3845714D01*
X607857Y-3831429D01*
X622143Y-3817143D01*
X636428Y-3788571D01*
X636428Y-3731429D01*
X622143Y-3702857D01*
X607857Y-3688571D01*
X579286Y-3674286D01*
X750714Y-3545714D02*
X750714Y-3602857D01*
X865000Y-3545714D02*
X865000Y-3602857D01*
X1307857Y-3960000D02*
X1293571Y-3945714D01*
X1265000Y-3902857D01*
X1250714Y-3874286D01*
X1236428Y-3831429D01*
X1222143Y-3760000D01*
X1222143Y-3702857D01*
X1236428Y-3631429D01*
X1250714Y-3588571D01*
X1265000Y-3560000D01*
X1293571Y-3517143D01*
X1307857Y-3502857D01*
X1407857Y-3574286D02*
X1422143Y-3560000D01*
X1450714Y-3545714D01*
X1522143Y-3545714D01*
X1550714Y-3560000D01*
X1565000Y-3574286D01*
X1579286Y-3602857D01*
X1579286Y-3631429D01*
X1565000Y-3674286D01*
X1393571Y-3845714D01*
X1579286Y-3845714D01*
X1850714Y-3545714D02*
X1707857Y-3545714D01*
X1693571Y-3688571D01*
X1707857Y-3674286D01*
X1736428Y-3660000D01*
X1807857Y-3660000D01*
X1836428Y-3674286D01*
X1850714Y-3688571D01*
X1865000Y-3717143D01*
X1865000Y-3788571D01*
X1850714Y-3817143D01*
X1836428Y-3831429D01*
X1807857Y-3845714D01*
X1736428Y-3845714D01*
X1707857Y-3831429D01*
X1693571Y-3817143D01*
X2222143Y-3845714D02*
X2222143Y-3545714D01*
X2350714Y-3845714D02*
X2350714Y-3688571D01*
X2336428Y-3660000D01*
X2307857Y-3645714D01*
X2265000Y-3645714D01*
X2236428Y-3660000D01*
X2222143Y-3674286D01*
X2536428Y-3845714D02*
X2507857Y-3831429D01*
X2493571Y-3817143D01*
X2479286Y-3788571D01*
X2479286Y-3702857D01*
X2493571Y-3674286D01*
X2507857Y-3660000D01*
X2536428Y-3645714D01*
X2579286Y-3645714D01*
X2607857Y-3660000D01*
X2622143Y-3674286D01*
X2636428Y-3702857D01*
X2636428Y-3788571D01*
X2622143Y-3817143D01*
X2607857Y-3831429D01*
X2579286Y-3845714D01*
X2536428Y-3845714D01*
X2807857Y-3845714D02*
X2779286Y-3831429D01*
X2765000Y-3802857D01*
X2765000Y-3545714D01*
X3036428Y-3831429D02*
X3007857Y-3845714D01*
X2950714Y-3845714D01*
X2922143Y-3831429D01*
X2907857Y-3802857D01*
X2907857Y-3688571D01*
X2922143Y-3660000D01*
X2950714Y-3645714D01*
X3007857Y-3645714D01*
X3036428Y-3660000D01*
X3050714Y-3688571D01*
X3050714Y-3717143D01*
X2907857Y-3745714D01*
X3165000Y-3831429D02*
X3193571Y-3845714D01*
X3250714Y-3845714D01*
X3279286Y-3831429D01*
X3293571Y-3802857D01*
X3293571Y-3788571D01*
X3279286Y-3760000D01*
X3250714Y-3745714D01*
X3207857Y-3745714D01*
X3179286Y-3731429D01*
X3165000Y-3702857D01*
X3165000Y-3688571D01*
X3179286Y-3660000D01*
X3207857Y-3645714D01*
X3250714Y-3645714D01*
X3279286Y-3660000D01*
X3393571Y-3960000D02*
X3407857Y-3945714D01*
X3436428Y-3902857D01*
X3450714Y-3874286D01*
X3465000Y-3831429D01*
X3479286Y-3760000D01*
X3479286Y-3702857D01*
X3465000Y-3631429D01*
X3450714Y-3588571D01*
X3436428Y-3560000D01*
X3407857Y-3517143D01*
X3393571Y-3502857D01*
X-3950000Y-4106000D02*
G75*
G03*
X-3950000Y-4106000I-20000J0D01*
G01*
X-3606429Y-3941714D02*
X-3577857Y-3941714D01*
X-3549286Y-3956000D01*
X-3535000Y-3970286D01*
X-3520714Y-3998857D01*
X-3506429Y-4056000D01*
X-3506429Y-4127429D01*
X-3520714Y-4184571D01*
X-3535000Y-4213143D01*
X-3549286Y-4227429D01*
X-3577857Y-4241714D01*
X-3606429Y-4241714D01*
X-3635000Y-4227429D01*
X-3649286Y-4213143D01*
X-3663571Y-4184571D01*
X-3677857Y-4127429D01*
X-3677857Y-4056000D01*
X-3663571Y-3998857D01*
X-3649286Y-3970286D01*
X-3635000Y-3956000D01*
X-3606429Y-3941714D01*
X-3377857Y-4213143D02*
X-3363571Y-4227429D01*
X-3377857Y-4241714D01*
X-3392143Y-4227429D01*
X-3377857Y-4213143D01*
X-3377857Y-4241714D01*
X-3106429Y-4041714D02*
X-3106429Y-4241714D01*
X-3177857Y-3927429D02*
X-3249286Y-4141714D01*
X-3063571Y-4141714D01*
X-2892143Y-3941714D02*
X-2863571Y-3941714D01*
X-2835000Y-3956000D01*
X-2820714Y-3970286D01*
X-2806429Y-3998857D01*
X-2792143Y-4056000D01*
X-2792143Y-4127429D01*
X-2806429Y-4184571D01*
X-2820714Y-4213143D01*
X-2835000Y-4227429D01*
X-2863571Y-4241714D01*
X-2892143Y-4241714D01*
X-2920714Y-4227429D01*
X-2935000Y-4213143D01*
X-2949286Y-4184571D01*
X-2963571Y-4127429D01*
X-2963571Y-4056000D01*
X-2949286Y-3998857D01*
X-2935000Y-3970286D01*
X-2920714Y-3956000D01*
X-2892143Y-3941714D01*
X-2606429Y-3941714D02*
X-2577857Y-3941714D01*
X-2549286Y-3956000D01*
X-2535000Y-3970286D01*
X-2520714Y-3998857D01*
X-2506429Y-4056000D01*
X-2506429Y-4127429D01*
X-2520714Y-4184571D01*
X-2535000Y-4213143D01*
X-2549286Y-4227429D01*
X-2577857Y-4241714D01*
X-2606429Y-4241714D01*
X-2635000Y-4227429D01*
X-2649286Y-4213143D01*
X-2663572Y-4184571D01*
X-2677857Y-4127429D01*
X-2677857Y-4056000D01*
X-2663572Y-3998857D01*
X-2649286Y-3970286D01*
X-2635000Y-3956000D01*
X-2606429Y-3941714D01*
X-2377857Y-4241714D02*
X-2377857Y-4041714D01*
X-2377857Y-4070286D02*
X-2363572Y-4056000D01*
X-2335000Y-4041714D01*
X-2292143Y-4041714D01*
X-2263572Y-4056000D01*
X-2249286Y-4084571D01*
X-2249286Y-4241714D01*
X-2249286Y-4084571D02*
X-2235000Y-4056000D01*
X-2206429Y-4041714D01*
X-2163572Y-4041714D01*
X-2135000Y-4056000D01*
X-2120714Y-4084571D01*
X-2120714Y-4241714D01*
X-1977857Y-4241714D02*
X-1977857Y-4041714D01*
X-1977857Y-4070286D02*
X-1963571Y-4056000D01*
X-1935000Y-4041714D01*
X-1892143Y-4041714D01*
X-1863571Y-4056000D01*
X-1849286Y-4084571D01*
X-1849286Y-4241714D01*
X-1849286Y-4084571D02*
X-1835000Y-4056000D01*
X-1806429Y-4041714D01*
X-1763571Y-4041714D01*
X-1735000Y-4056000D01*
X-1720714Y-4084571D01*
X-1720714Y-4241714D01*
X-1135000Y-3927429D02*
X-1392143Y-4313143D01*
X-749286Y-3941714D02*
X-720714Y-3941714D01*
X-692143Y-3956000D01*
X-677857Y-3970286D01*
X-663572Y-3998857D01*
X-649286Y-4056000D01*
X-649286Y-4127429D01*
X-663572Y-4184571D01*
X-677857Y-4213143D01*
X-692143Y-4227429D01*
X-720714Y-4241714D01*
X-749286Y-4241714D01*
X-777857Y-4227429D01*
X-792143Y-4213143D01*
X-806429Y-4184571D01*
X-820714Y-4127429D01*
X-820714Y-4056000D01*
X-806429Y-3998857D01*
X-792143Y-3970286D01*
X-777857Y-3956000D01*
X-749286Y-3941714D01*
X-520714Y-4213143D02*
X-506429Y-4227429D01*
X-520714Y-4241714D01*
X-535000Y-4227429D01*
X-520714Y-4213143D01*
X-520714Y-4241714D01*
X-320714Y-3941714D02*
X-292143Y-3941714D01*
X-263572Y-3956000D01*
X-249286Y-3970286D01*
X-235000Y-3998857D01*
X-220714Y-4056000D01*
X-220714Y-4127429D01*
X-235000Y-4184571D01*
X-249286Y-4213143D01*
X-263572Y-4227429D01*
X-292143Y-4241714D01*
X-320714Y-4241714D01*
X-349286Y-4227429D01*
X-363571Y-4213143D01*
X-377857Y-4184571D01*
X-392143Y-4127429D01*
X-392143Y-4056000D01*
X-377857Y-3998857D01*
X-363571Y-3970286D01*
X-349286Y-3956000D01*
X-320714Y-3941714D01*
X65000Y-4241714D02*
X-106429Y-4241714D01*
X-20714Y-4241714D02*
X-20714Y-3941714D01*
X-49286Y-3984571D01*
X-77857Y-4013143D01*
X-106429Y-4027429D01*
X336428Y-3941714D02*
X193571Y-3941714D01*
X179286Y-4084571D01*
X193571Y-4070286D01*
X222143Y-4056000D01*
X293571Y-4056000D01*
X322143Y-4070286D01*
X336428Y-4084571D01*
X350714Y-4113143D01*
X350714Y-4184571D01*
X336428Y-4213143D01*
X322143Y-4227429D01*
X293571Y-4241714D01*
X222143Y-4241714D01*
X193571Y-4227429D01*
X179286Y-4213143D01*
X450714Y-3941714D02*
X650714Y-3941714D01*
X522143Y-4241714D01*
X750714Y-3941714D02*
X750714Y-3998857D01*
X865000Y-3941714D02*
X865000Y-3998857D01*
X1307857Y-4356000D02*
X1293571Y-4341714D01*
X1265000Y-4298857D01*
X1250714Y-4270286D01*
X1236428Y-4227429D01*
X1222143Y-4156000D01*
X1222143Y-4098857D01*
X1236428Y-4027429D01*
X1250714Y-3984571D01*
X1265000Y-3956000D01*
X1293571Y-3913143D01*
X1307857Y-3898857D01*
X1550714Y-4041714D02*
X1550714Y-4241714D01*
X1479286Y-3927429D02*
X1407857Y-4141714D01*
X1593571Y-4141714D01*
X1865000Y-4241714D02*
X1693571Y-4241714D01*
X1779286Y-4241714D02*
X1779286Y-3941714D01*
X1750714Y-3984571D01*
X1722143Y-4013143D01*
X1693571Y-4027429D01*
X2222143Y-4241714D02*
X2222143Y-3941714D01*
X2350714Y-4241714D02*
X2350714Y-4084571D01*
X2336428Y-4056000D01*
X2307857Y-4041714D01*
X2265000Y-4041714D01*
X2236428Y-4056000D01*
X2222143Y-4070286D01*
X2536428Y-4241714D02*
X2507857Y-4227429D01*
X2493571Y-4213143D01*
X2479286Y-4184571D01*
X2479286Y-4098857D01*
X2493571Y-4070286D01*
X2507857Y-4056000D01*
X2536428Y-4041714D01*
X2579286Y-4041714D01*
X2607857Y-4056000D01*
X2622143Y-4070286D01*
X2636428Y-4098857D01*
X2636428Y-4184571D01*
X2622143Y-4213143D01*
X2607857Y-4227429D01*
X2579286Y-4241714D01*
X2536428Y-4241714D01*
X2807857Y-4241714D02*
X2779286Y-4227429D01*
X2765000Y-4198857D01*
X2765000Y-3941714D01*
X3036428Y-4227429D02*
X3007857Y-4241714D01*
X2950714Y-4241714D01*
X2922143Y-4227429D01*
X2907857Y-4198857D01*
X2907857Y-4084571D01*
X2922143Y-4056000D01*
X2950714Y-4041714D01*
X3007857Y-4041714D01*
X3036428Y-4056000D01*
X3050714Y-4084571D01*
X3050714Y-4113143D01*
X2907857Y-4141714D01*
X3165000Y-4227429D02*
X3193571Y-4241714D01*
X3250714Y-4241714D01*
X3279286Y-4227429D01*
X3293571Y-4198857D01*
X3293571Y-4184571D01*
X3279286Y-4156000D01*
X3250714Y-4141714D01*
X3207857Y-4141714D01*
X3179286Y-4127429D01*
X3165000Y-4098857D01*
X3165000Y-4084571D01*
X3179286Y-4056000D01*
X3207857Y-4041714D01*
X3250714Y-4041714D01*
X3279286Y-4056000D01*
X3393571Y-4356000D02*
X3407857Y-4341714D01*
X3436428Y-4298857D01*
X3450714Y-4270286D01*
X3465000Y-4227429D01*
X3479286Y-4156000D01*
X3479286Y-4098857D01*
X3465000Y-4027429D01*
X3450714Y-3984571D01*
X3436428Y-3956000D01*
X3407857Y-3913143D01*
X3393571Y-3898857D01*
X-3975000Y-4477000D02*
X-3975000Y-4527000D01*
X-4000000Y-4502000D02*
X-3950000Y-4502000D01*
X-3606429Y-4337714D02*
X-3577857Y-4337714D01*
X-3549286Y-4352000D01*
X-3535000Y-4366286D01*
X-3520714Y-4394857D01*
X-3506429Y-4452000D01*
X-3506429Y-4523429D01*
X-3520714Y-4580572D01*
X-3535000Y-4609143D01*
X-3549286Y-4623429D01*
X-3577857Y-4637714D01*
X-3606429Y-4637714D01*
X-3635000Y-4623429D01*
X-3649286Y-4609143D01*
X-3663571Y-4580572D01*
X-3677857Y-4523429D01*
X-3677857Y-4452000D01*
X-3663571Y-4394857D01*
X-3649286Y-4366286D01*
X-3635000Y-4352000D01*
X-3606429Y-4337714D01*
X-3377857Y-4609143D02*
X-3363571Y-4623429D01*
X-3377857Y-4637714D01*
X-3392143Y-4623429D01*
X-3377857Y-4609143D01*
X-3377857Y-4637714D01*
X-3092143Y-4337714D02*
X-3235000Y-4337714D01*
X-3249286Y-4480572D01*
X-3235000Y-4466286D01*
X-3206429Y-4452000D01*
X-3135000Y-4452000D01*
X-3106429Y-4466286D01*
X-3092143Y-4480572D01*
X-3077857Y-4509143D01*
X-3077857Y-4580572D01*
X-3092143Y-4609143D01*
X-3106429Y-4623429D01*
X-3135000Y-4637714D01*
X-3206429Y-4637714D01*
X-3235000Y-4623429D01*
X-3249286Y-4609143D01*
X-2892143Y-4337714D02*
X-2863571Y-4337714D01*
X-2835000Y-4352000D01*
X-2820714Y-4366286D01*
X-2806429Y-4394857D01*
X-2792143Y-4452000D01*
X-2792143Y-4523429D01*
X-2806429Y-4580572D01*
X-2820714Y-4609143D01*
X-2835000Y-4623429D01*
X-2863571Y-4637714D01*
X-2892143Y-4637714D01*
X-2920714Y-4623429D01*
X-2935000Y-4609143D01*
X-2949286Y-4580572D01*
X-2963571Y-4523429D01*
X-2963571Y-4452000D01*
X-2949286Y-4394857D01*
X-2935000Y-4366286D01*
X-2920714Y-4352000D01*
X-2892143Y-4337714D01*
X-2606429Y-4337714D02*
X-2577857Y-4337714D01*
X-2549286Y-4352000D01*
X-2535000Y-4366286D01*
X-2520714Y-4394857D01*
X-2506429Y-4452000D01*
X-2506429Y-4523429D01*
X-2520714Y-4580572D01*
X-2535000Y-4609143D01*
X-2549286Y-4623429D01*
X-2577857Y-4637714D01*
X-2606429Y-4637714D01*
X-2635000Y-4623429D01*
X-2649286Y-4609143D01*
X-2663572Y-4580572D01*
X-2677857Y-4523429D01*
X-2677857Y-4452000D01*
X-2663572Y-4394857D01*
X-2649286Y-4366286D01*
X-2635000Y-4352000D01*
X-2606429Y-4337714D01*
X-2377857Y-4637714D02*
X-2377857Y-4437714D01*
X-2377857Y-4466286D02*
X-2363572Y-4452000D01*
X-2335000Y-4437714D01*
X-2292143Y-4437714D01*
X-2263572Y-4452000D01*
X-2249286Y-4480572D01*
X-2249286Y-4637714D01*
X-2249286Y-4480572D02*
X-2235000Y-4452000D01*
X-2206429Y-4437714D01*
X-2163572Y-4437714D01*
X-2135000Y-4452000D01*
X-2120714Y-4480572D01*
X-2120714Y-4637714D01*
X-1977857Y-4637714D02*
X-1977857Y-4437714D01*
X-1977857Y-4466286D02*
X-1963571Y-4452000D01*
X-1935000Y-4437714D01*
X-1892143Y-4437714D01*
X-1863571Y-4452000D01*
X-1849286Y-4480572D01*
X-1849286Y-4637714D01*
X-1849286Y-4480572D02*
X-1835000Y-4452000D01*
X-1806429Y-4437714D01*
X-1763571Y-4437714D01*
X-1735000Y-4452000D01*
X-1720714Y-4480572D01*
X-1720714Y-4637714D01*
X-1135000Y-4323429D02*
X-1392143Y-4709143D01*
X-749286Y-4337714D02*
X-720714Y-4337714D01*
X-692143Y-4352000D01*
X-677857Y-4366286D01*
X-663572Y-4394857D01*
X-649286Y-4452000D01*
X-649286Y-4523429D01*
X-663572Y-4580572D01*
X-677857Y-4609143D01*
X-692143Y-4623429D01*
X-720714Y-4637714D01*
X-749286Y-4637714D01*
X-777857Y-4623429D01*
X-792143Y-4609143D01*
X-806429Y-4580572D01*
X-820714Y-4523429D01*
X-820714Y-4452000D01*
X-806429Y-4394857D01*
X-792143Y-4366286D01*
X-777857Y-4352000D01*
X-749286Y-4337714D01*
X-520714Y-4609143D02*
X-506429Y-4623429D01*
X-520714Y-4637714D01*
X-535000Y-4623429D01*
X-520714Y-4609143D01*
X-520714Y-4637714D01*
X-320714Y-4337714D02*
X-292143Y-4337714D01*
X-263572Y-4352000D01*
X-249286Y-4366286D01*
X-235000Y-4394857D01*
X-220714Y-4452000D01*
X-220714Y-4523429D01*
X-235000Y-4580572D01*
X-249286Y-4609143D01*
X-263572Y-4623429D01*
X-292143Y-4637714D01*
X-320714Y-4637714D01*
X-349286Y-4623429D01*
X-363571Y-4609143D01*
X-377857Y-4580572D01*
X-392143Y-4523429D01*
X-392143Y-4452000D01*
X-377857Y-4394857D01*
X-363571Y-4366286D01*
X-349286Y-4352000D01*
X-320714Y-4337714D01*
X65000Y-4637714D02*
X-106429Y-4637714D01*
X-20714Y-4637714D02*
X-20714Y-4337714D01*
X-49286Y-4380572D01*
X-77857Y-4409143D01*
X-106429Y-4423429D01*
X207857Y-4637714D02*
X265000Y-4637714D01*
X293571Y-4623429D01*
X307857Y-4609143D01*
X336428Y-4566286D01*
X350714Y-4509143D01*
X350714Y-4394857D01*
X336428Y-4366286D01*
X322143Y-4352000D01*
X293571Y-4337714D01*
X236428Y-4337714D01*
X207857Y-4352000D01*
X193571Y-4366286D01*
X179286Y-4394857D01*
X179286Y-4466286D01*
X193571Y-4494857D01*
X207857Y-4509143D01*
X236428Y-4523429D01*
X293571Y-4523429D01*
X322143Y-4509143D01*
X336428Y-4494857D01*
X350714Y-4466286D01*
X450714Y-4337714D02*
X650714Y-4337714D01*
X522143Y-4637714D01*
X750714Y-4337714D02*
X750714Y-4394857D01*
X865000Y-4337714D02*
X865000Y-4394857D01*
X1307857Y-4752000D02*
X1293571Y-4737714D01*
X1265000Y-4694857D01*
X1250714Y-4666286D01*
X1236428Y-4623429D01*
X1222143Y-4552000D01*
X1222143Y-4494857D01*
X1236428Y-4423429D01*
X1250714Y-4380572D01*
X1265000Y-4352000D01*
X1293571Y-4309143D01*
X1307857Y-4294857D01*
X1407857Y-4366286D02*
X1422143Y-4352000D01*
X1450714Y-4337714D01*
X1522143Y-4337714D01*
X1550714Y-4352000D01*
X1565000Y-4366286D01*
X1579286Y-4394857D01*
X1579286Y-4423429D01*
X1565000Y-4466286D01*
X1393571Y-4637714D01*
X1579286Y-4637714D01*
X1750714Y-4466286D02*
X1722143Y-4452000D01*
X1707857Y-4437714D01*
X1693571Y-4409143D01*
X1693571Y-4394857D01*
X1707857Y-4366286D01*
X1722143Y-4352000D01*
X1750714Y-4337714D01*
X1807857Y-4337714D01*
X1836428Y-4352000D01*
X1850714Y-4366286D01*
X1865000Y-4394857D01*
X1865000Y-4409143D01*
X1850714Y-4437714D01*
X1836428Y-4452000D01*
X1807857Y-4466286D01*
X1750714Y-4466286D01*
X1722143Y-4480572D01*
X1707857Y-4494857D01*
X1693571Y-4523429D01*
X1693571Y-4580572D01*
X1707857Y-4609143D01*
X1722143Y-4623429D01*
X1750714Y-4637714D01*
X1807857Y-4637714D01*
X1836428Y-4623429D01*
X1850714Y-4609143D01*
X1865000Y-4580572D01*
X1865000Y-4523429D01*
X1850714Y-4494857D01*
X1836428Y-4480572D01*
X1807857Y-4466286D01*
X2222143Y-4637714D02*
X2222143Y-4337714D01*
X2350714Y-4637714D02*
X2350714Y-4480572D01*
X2336428Y-4452000D01*
X2307857Y-4437714D01*
X2265000Y-4437714D01*
X2236428Y-4452000D01*
X2222143Y-4466286D01*
X2536428Y-4637714D02*
X2507857Y-4623429D01*
X2493571Y-4609143D01*
X2479286Y-4580572D01*
X2479286Y-4494857D01*
X2493571Y-4466286D01*
X2507857Y-4452000D01*
X2536428Y-4437714D01*
X2579286Y-4437714D01*
X2607857Y-4452000D01*
X2622143Y-4466286D01*
X2636428Y-4494857D01*
X2636428Y-4580572D01*
X2622143Y-4609143D01*
X2607857Y-4623429D01*
X2579286Y-4637714D01*
X2536428Y-4637714D01*
X2807857Y-4637714D02*
X2779286Y-4623429D01*
X2765000Y-4594857D01*
X2765000Y-4337714D01*
X3036428Y-4623429D02*
X3007857Y-4637714D01*
X2950714Y-4637714D01*
X2922143Y-4623429D01*
X2907857Y-4594857D01*
X2907857Y-4480572D01*
X2922143Y-4452000D01*
X2950714Y-4437714D01*
X3007857Y-4437714D01*
X3036428Y-4452000D01*
X3050714Y-4480572D01*
X3050714Y-4509143D01*
X2907857Y-4537714D01*
X3165000Y-4623429D02*
X3193571Y-4637714D01*
X3250714Y-4637714D01*
X3279286Y-4623429D01*
X3293571Y-4594857D01*
X3293571Y-4580572D01*
X3279286Y-4552000D01*
X3250714Y-4537714D01*
X3207857Y-4537714D01*
X3179286Y-4523429D01*
X3165000Y-4494857D01*
X3165000Y-4480572D01*
X3179286Y-4452000D01*
X3207857Y-4437714D01*
X3250714Y-4437714D01*
X3279286Y-4452000D01*
X3393571Y-4752000D02*
X3407857Y-4737714D01*
X3436428Y-4694857D01*
X3450714Y-4666286D01*
X3465000Y-4623429D01*
X3479286Y-4552000D01*
X3479286Y-4494857D01*
X3465000Y-4423429D01*
X3450714Y-4380572D01*
X3436428Y-4352000D01*
X3407857Y-4309143D01*
X3393571Y-4294857D01*
X-3960251Y-4922749D02*
X-3960251Y-4873251D01*
X-4009749Y-4873251D01*
X-4009749Y-4922749D01*
X-3960251Y-4922749D01*
X-3606429Y-4733714D02*
X-3577857Y-4733714D01*
X-3549286Y-4748000D01*
X-3535000Y-4762286D01*
X-3520714Y-4790857D01*
X-3506429Y-4848000D01*
X-3506429Y-4919429D01*
X-3520714Y-4976572D01*
X-3535000Y-5005143D01*
X-3549286Y-5019429D01*
X-3577857Y-5033714D01*
X-3606429Y-5033714D01*
X-3635000Y-5019429D01*
X-3649286Y-5005143D01*
X-3663571Y-4976572D01*
X-3677857Y-4919429D01*
X-3677857Y-4848000D01*
X-3663571Y-4790857D01*
X-3649286Y-4762286D01*
X-3635000Y-4748000D01*
X-3606429Y-4733714D01*
X-3377857Y-5005143D02*
X-3363571Y-5019429D01*
X-3377857Y-5033714D01*
X-3392143Y-5019429D01*
X-3377857Y-5005143D01*
X-3377857Y-5033714D01*
X-3263571Y-4733714D02*
X-3063571Y-4733714D01*
X-3192143Y-5033714D01*
X-2892143Y-4733714D02*
X-2863571Y-4733714D01*
X-2835000Y-4748000D01*
X-2820714Y-4762286D01*
X-2806429Y-4790857D01*
X-2792143Y-4848000D01*
X-2792143Y-4919429D01*
X-2806429Y-4976572D01*
X-2820714Y-5005143D01*
X-2835000Y-5019429D01*
X-2863571Y-5033714D01*
X-2892143Y-5033714D01*
X-2920714Y-5019429D01*
X-2935000Y-5005143D01*
X-2949286Y-4976572D01*
X-2963571Y-4919429D01*
X-2963571Y-4848000D01*
X-2949286Y-4790857D01*
X-2935000Y-4762286D01*
X-2920714Y-4748000D01*
X-2892143Y-4733714D01*
X-2606429Y-4733714D02*
X-2577857Y-4733714D01*
X-2549286Y-4748000D01*
X-2535000Y-4762286D01*
X-2520714Y-4790857D01*
X-2506429Y-4848000D01*
X-2506429Y-4919429D01*
X-2520714Y-4976572D01*
X-2535000Y-5005143D01*
X-2549286Y-5019429D01*
X-2577857Y-5033714D01*
X-2606429Y-5033714D01*
X-2635000Y-5019429D01*
X-2649286Y-5005143D01*
X-2663572Y-4976572D01*
X-2677857Y-4919429D01*
X-2677857Y-4848000D01*
X-2663572Y-4790857D01*
X-2649286Y-4762286D01*
X-2635000Y-4748000D01*
X-2606429Y-4733714D01*
X-2377857Y-5033714D02*
X-2377857Y-4833714D01*
X-2377857Y-4862286D02*
X-2363572Y-4848000D01*
X-2335000Y-4833714D01*
X-2292143Y-4833714D01*
X-2263572Y-4848000D01*
X-2249286Y-4876572D01*
X-2249286Y-5033714D01*
X-2249286Y-4876572D02*
X-2235000Y-4848000D01*
X-2206429Y-4833714D01*
X-2163572Y-4833714D01*
X-2135000Y-4848000D01*
X-2120714Y-4876572D01*
X-2120714Y-5033714D01*
X-1977857Y-5033714D02*
X-1977857Y-4833714D01*
X-1977857Y-4862286D02*
X-1963571Y-4848000D01*
X-1935000Y-4833714D01*
X-1892143Y-4833714D01*
X-1863571Y-4848000D01*
X-1849286Y-4876572D01*
X-1849286Y-5033714D01*
X-1849286Y-4876572D02*
X-1835000Y-4848000D01*
X-1806429Y-4833714D01*
X-1763571Y-4833714D01*
X-1735000Y-4848000D01*
X-1720714Y-4876572D01*
X-1720714Y-5033714D01*
X-1135000Y-4719429D02*
X-1392143Y-5105143D01*
X-749286Y-4733714D02*
X-720714Y-4733714D01*
X-692143Y-4748000D01*
X-677857Y-4762286D01*
X-663572Y-4790857D01*
X-649286Y-4848000D01*
X-649286Y-4919429D01*
X-663572Y-4976572D01*
X-677857Y-5005143D01*
X-692143Y-5019429D01*
X-720714Y-5033714D01*
X-749286Y-5033714D01*
X-777857Y-5019429D01*
X-792143Y-5005143D01*
X-806429Y-4976572D01*
X-820714Y-4919429D01*
X-820714Y-4848000D01*
X-806429Y-4790857D01*
X-792143Y-4762286D01*
X-777857Y-4748000D01*
X-749286Y-4733714D01*
X-520714Y-5005143D02*
X-506429Y-5019429D01*
X-520714Y-5033714D01*
X-535000Y-5019429D01*
X-520714Y-5005143D01*
X-520714Y-5033714D01*
X-320714Y-4733714D02*
X-292143Y-4733714D01*
X-263572Y-4748000D01*
X-249286Y-4762286D01*
X-235000Y-4790857D01*
X-220714Y-4848000D01*
X-220714Y-4919429D01*
X-235000Y-4976572D01*
X-249286Y-5005143D01*
X-263572Y-5019429D01*
X-292143Y-5033714D01*
X-320714Y-5033714D01*
X-349286Y-5019429D01*
X-363571Y-5005143D01*
X-377857Y-4976572D01*
X-392143Y-4919429D01*
X-392143Y-4848000D01*
X-377857Y-4790857D01*
X-363571Y-4762286D01*
X-349286Y-4748000D01*
X-320714Y-4733714D01*
X-106429Y-4762286D02*
X-92143Y-4748000D01*
X-63571Y-4733714D01*
X7857Y-4733714D01*
X36428Y-4748000D01*
X50714Y-4762286D01*
X65000Y-4790857D01*
X65000Y-4819429D01*
X50714Y-4862286D01*
X-120714Y-5033714D01*
X65000Y-5033714D01*
X165000Y-4733714D02*
X365000Y-4733714D01*
X236428Y-5033714D01*
X607857Y-4733714D02*
X550714Y-4733714D01*
X522143Y-4748000D01*
X507857Y-4762286D01*
X479286Y-4805143D01*
X465000Y-4862286D01*
X465000Y-4976572D01*
X479286Y-5005143D01*
X493571Y-5019429D01*
X522143Y-5033714D01*
X579286Y-5033714D01*
X607857Y-5019429D01*
X622143Y-5005143D01*
X636428Y-4976572D01*
X636428Y-4905143D01*
X622143Y-4876572D01*
X607857Y-4862286D01*
X579286Y-4848000D01*
X522143Y-4848000D01*
X493571Y-4862286D01*
X479286Y-4876572D01*
X465000Y-4905143D01*
X750714Y-4733714D02*
X750714Y-4790857D01*
X865000Y-4733714D02*
X865000Y-4790857D01*
X1307857Y-5148000D02*
X1293571Y-5133714D01*
X1265000Y-5090857D01*
X1250714Y-5062286D01*
X1236428Y-5019429D01*
X1222143Y-4948000D01*
X1222143Y-4890857D01*
X1236428Y-4819429D01*
X1250714Y-4776572D01*
X1265000Y-4748000D01*
X1293571Y-4705143D01*
X1307857Y-4690857D01*
X1393571Y-4733714D02*
X1593571Y-4733714D01*
X1465000Y-5033714D01*
X1936428Y-5033714D02*
X1936428Y-4733714D01*
X2065000Y-5033714D02*
X2065000Y-4876572D01*
X2050714Y-4848000D01*
X2022143Y-4833714D01*
X1979286Y-4833714D01*
X1950714Y-4848000D01*
X1936428Y-4862286D01*
X2250714Y-5033714D02*
X2222143Y-5019429D01*
X2207857Y-5005143D01*
X2193571Y-4976572D01*
X2193571Y-4890857D01*
X2207857Y-4862286D01*
X2222143Y-4848000D01*
X2250714Y-4833714D01*
X2293571Y-4833714D01*
X2322143Y-4848000D01*
X2336428Y-4862286D01*
X2350714Y-4890857D01*
X2350714Y-4976572D01*
X2336428Y-5005143D01*
X2322143Y-5019429D01*
X2293571Y-5033714D01*
X2250714Y-5033714D01*
X2522143Y-5033714D02*
X2493571Y-5019429D01*
X2479286Y-4990857D01*
X2479286Y-4733714D01*
X2750714Y-5019429D02*
X2722143Y-5033714D01*
X2665000Y-5033714D01*
X2636428Y-5019429D01*
X2622143Y-4990857D01*
X2622143Y-4876572D01*
X2636428Y-4848000D01*
X2665000Y-4833714D01*
X2722143Y-4833714D01*
X2750714Y-4848000D01*
X2765000Y-4876572D01*
X2765000Y-4905143D01*
X2622143Y-4933714D01*
X2879286Y-5019429D02*
X2907857Y-5033714D01*
X2965000Y-5033714D01*
X2993571Y-5019429D01*
X3007857Y-4990857D01*
X3007857Y-4976572D01*
X2993571Y-4948000D01*
X2965000Y-4933714D01*
X2922143Y-4933714D01*
X2893571Y-4919429D01*
X2879286Y-4890857D01*
X2879286Y-4876572D01*
X2893571Y-4848000D01*
X2922143Y-4833714D01*
X2965000Y-4833714D01*
X2993571Y-4848000D01*
X3107857Y-5148000D02*
X3122143Y-5133714D01*
X3150714Y-5090857D01*
X3165000Y-5062286D01*
X3179286Y-5019429D01*
X3193571Y-4948000D01*
X3193571Y-4890857D01*
X3179286Y-4819429D01*
X3165000Y-4776572D01*
X3150714Y-4748000D01*
X3122143Y-4705143D01*
X3107857Y-4690857D01*
X-4005000Y-5349000D02*
X-3950000Y-5294000D01*
X-4005000Y-5239000D01*
X-4060000Y-5294000D01*
X-4005000Y-5349000D01*
X-3506429Y-5429714D02*
X-3677857Y-5429714D01*
X-3592143Y-5429714D02*
X-3592143Y-5129714D01*
X-3620714Y-5172572D01*
X-3649286Y-5201143D01*
X-3677857Y-5215429D01*
X-3377857Y-5401143D02*
X-3363571Y-5415429D01*
X-3377857Y-5429714D01*
X-3392143Y-5415429D01*
X-3377857Y-5401143D01*
X-3377857Y-5429714D01*
X-3077857Y-5429714D02*
X-3249286Y-5429714D01*
X-3163571Y-5429714D02*
X-3163571Y-5129714D01*
X-3192143Y-5172572D01*
X-3220714Y-5201143D01*
X-3249286Y-5215429D01*
X-2892143Y-5129714D02*
X-2863571Y-5129714D01*
X-2835000Y-5144000D01*
X-2820714Y-5158286D01*
X-2806429Y-5186857D01*
X-2792143Y-5244000D01*
X-2792143Y-5315429D01*
X-2806429Y-5372572D01*
X-2820714Y-5401143D01*
X-2835000Y-5415429D01*
X-2863571Y-5429714D01*
X-2892143Y-5429714D01*
X-2920714Y-5415429D01*
X-2935000Y-5401143D01*
X-2949286Y-5372572D01*
X-2963571Y-5315429D01*
X-2963571Y-5244000D01*
X-2949286Y-5186857D01*
X-2935000Y-5158286D01*
X-2920714Y-5144000D01*
X-2892143Y-5129714D01*
X-2606429Y-5129714D02*
X-2577857Y-5129714D01*
X-2549286Y-5144000D01*
X-2535000Y-5158286D01*
X-2520714Y-5186857D01*
X-2506429Y-5244000D01*
X-2506429Y-5315429D01*
X-2520714Y-5372572D01*
X-2535000Y-5401143D01*
X-2549286Y-5415429D01*
X-2577857Y-5429714D01*
X-2606429Y-5429714D01*
X-2635000Y-5415429D01*
X-2649286Y-5401143D01*
X-2663572Y-5372572D01*
X-2677857Y-5315429D01*
X-2677857Y-5244000D01*
X-2663572Y-5186857D01*
X-2649286Y-5158286D01*
X-2635000Y-5144000D01*
X-2606429Y-5129714D01*
X-2377857Y-5429714D02*
X-2377857Y-5229714D01*
X-2377857Y-5258286D02*
X-2363572Y-5244000D01*
X-2335000Y-5229714D01*
X-2292143Y-5229714D01*
X-2263572Y-5244000D01*
X-2249286Y-5272572D01*
X-2249286Y-5429714D01*
X-2249286Y-5272572D02*
X-2235000Y-5244000D01*
X-2206429Y-5229714D01*
X-2163572Y-5229714D01*
X-2135000Y-5244000D01*
X-2120714Y-5272572D01*
X-2120714Y-5429714D01*
X-1977857Y-5429714D02*
X-1977857Y-5229714D01*
X-1977857Y-5258286D02*
X-1963571Y-5244000D01*
X-1935000Y-5229714D01*
X-1892143Y-5229714D01*
X-1863571Y-5244000D01*
X-1849286Y-5272572D01*
X-1849286Y-5429714D01*
X-1849286Y-5272572D02*
X-1835000Y-5244000D01*
X-1806429Y-5229714D01*
X-1763571Y-5229714D01*
X-1735000Y-5244000D01*
X-1720714Y-5272572D01*
X-1720714Y-5429714D01*
X-1135000Y-5115429D02*
X-1392143Y-5501143D01*
X-749286Y-5129714D02*
X-720714Y-5129714D01*
X-692143Y-5144000D01*
X-677857Y-5158286D01*
X-663572Y-5186857D01*
X-649286Y-5244000D01*
X-649286Y-5315429D01*
X-663572Y-5372572D01*
X-677857Y-5401143D01*
X-692143Y-5415429D01*
X-720714Y-5429714D01*
X-749286Y-5429714D01*
X-777857Y-5415429D01*
X-792143Y-5401143D01*
X-806429Y-5372572D01*
X-820714Y-5315429D01*
X-820714Y-5244000D01*
X-806429Y-5186857D01*
X-792143Y-5158286D01*
X-777857Y-5144000D01*
X-749286Y-5129714D01*
X-520714Y-5401143D02*
X-506429Y-5415429D01*
X-520714Y-5429714D01*
X-535000Y-5415429D01*
X-520714Y-5401143D01*
X-520714Y-5429714D01*
X-320714Y-5129714D02*
X-292143Y-5129714D01*
X-263572Y-5144000D01*
X-249286Y-5158286D01*
X-235000Y-5186857D01*
X-220714Y-5244000D01*
X-220714Y-5315429D01*
X-235000Y-5372572D01*
X-249286Y-5401143D01*
X-263572Y-5415429D01*
X-292143Y-5429714D01*
X-320714Y-5429714D01*
X-349286Y-5415429D01*
X-363571Y-5401143D01*
X-377857Y-5372572D01*
X-392143Y-5315429D01*
X-392143Y-5244000D01*
X-377857Y-5186857D01*
X-363571Y-5158286D01*
X-349286Y-5144000D01*
X-320714Y-5129714D01*
X36428Y-5229714D02*
X36428Y-5429714D01*
X-35000Y-5115429D02*
X-106429Y-5329714D01*
X79286Y-5329714D01*
X165000Y-5129714D02*
X350714Y-5129714D01*
X250714Y-5244000D01*
X293571Y-5244000D01*
X322143Y-5258286D01*
X336428Y-5272572D01*
X350714Y-5301143D01*
X350714Y-5372572D01*
X336428Y-5401143D01*
X322143Y-5415429D01*
X293571Y-5429714D01*
X207857Y-5429714D01*
X179286Y-5415429D01*
X165000Y-5401143D01*
X450714Y-5129714D02*
X636428Y-5129714D01*
X536428Y-5244000D01*
X579286Y-5244000D01*
X607857Y-5258286D01*
X622143Y-5272572D01*
X636428Y-5301143D01*
X636428Y-5372572D01*
X622143Y-5401143D01*
X607857Y-5415429D01*
X579286Y-5429714D01*
X493571Y-5429714D01*
X465000Y-5415429D01*
X450714Y-5401143D01*
X750714Y-5129714D02*
X750714Y-5186857D01*
X865000Y-5129714D02*
X865000Y-5186857D01*
X1307857Y-5544000D02*
X1293571Y-5529714D01*
X1265000Y-5486857D01*
X1250714Y-5458286D01*
X1236428Y-5415429D01*
X1222143Y-5344000D01*
X1222143Y-5286857D01*
X1236428Y-5215429D01*
X1250714Y-5172572D01*
X1265000Y-5144000D01*
X1293571Y-5101143D01*
X1307857Y-5086857D01*
X1407857Y-5158286D02*
X1422143Y-5144000D01*
X1450714Y-5129714D01*
X1522143Y-5129714D01*
X1550714Y-5144000D01*
X1565000Y-5158286D01*
X1579286Y-5186857D01*
X1579286Y-5215429D01*
X1565000Y-5258286D01*
X1393571Y-5429714D01*
X1579286Y-5429714D01*
X1936428Y-5429714D02*
X1936428Y-5129714D01*
X2065000Y-5429714D02*
X2065000Y-5272572D01*
X2050714Y-5244000D01*
X2022143Y-5229714D01*
X1979286Y-5229714D01*
X1950714Y-5244000D01*
X1936428Y-5258286D01*
X2250714Y-5429714D02*
X2222143Y-5415429D01*
X2207857Y-5401143D01*
X2193571Y-5372572D01*
X2193571Y-5286857D01*
X2207857Y-5258286D01*
X2222143Y-5244000D01*
X2250714Y-5229714D01*
X2293571Y-5229714D01*
X2322143Y-5244000D01*
X2336428Y-5258286D01*
X2350714Y-5286857D01*
X2350714Y-5372572D01*
X2336428Y-5401143D01*
X2322143Y-5415429D01*
X2293571Y-5429714D01*
X2250714Y-5429714D01*
X2522143Y-5429714D02*
X2493571Y-5415429D01*
X2479286Y-5386857D01*
X2479286Y-5129714D01*
X2750714Y-5415429D02*
X2722143Y-5429714D01*
X2665000Y-5429714D01*
X2636428Y-5415429D01*
X2622143Y-5386857D01*
X2622143Y-5272572D01*
X2636428Y-5244000D01*
X2665000Y-5229714D01*
X2722143Y-5229714D01*
X2750714Y-5244000D01*
X2765000Y-5272572D01*
X2765000Y-5301143D01*
X2622143Y-5329714D01*
X2879286Y-5415429D02*
X2907857Y-5429714D01*
X2965000Y-5429714D01*
X2993571Y-5415429D01*
X3007857Y-5386857D01*
X3007857Y-5372572D01*
X2993571Y-5344000D01*
X2965000Y-5329714D01*
X2922143Y-5329714D01*
X2893571Y-5315429D01*
X2879286Y-5286857D01*
X2879286Y-5272572D01*
X2893571Y-5244000D01*
X2922143Y-5229714D01*
X2965000Y-5229714D01*
X2993571Y-5244000D01*
X3107857Y-5544000D02*
X3122143Y-5529714D01*
X3150714Y-5486857D01*
X3165000Y-5458286D01*
X3179286Y-5415429D01*
X3193571Y-5344000D01*
X3193571Y-5286857D01*
X3179286Y-5215429D01*
X3165000Y-5172572D01*
X3150714Y-5144000D01*
X3122143Y-5101143D01*
X3107857Y-5086857D01*
X-4040000Y-5645000D02*
X-3950000Y-5735000D01*
X-3950000Y-5645000D02*
X-4040000Y-5735000D01*
X-3950000Y-5690000D02*
G75*
G03*
X-3950000Y-5690000I-45000J0D01*
G01*
X-3606429Y-5525714D02*
X-3577857Y-5525714D01*
X-3549286Y-5540000D01*
X-3535000Y-5554286D01*
X-3520714Y-5582857D01*
X-3506429Y-5640000D01*
X-3506429Y-5711429D01*
X-3520714Y-5768571D01*
X-3535000Y-5797143D01*
X-3549286Y-5811429D01*
X-3577857Y-5825714D01*
X-3606429Y-5825714D01*
X-3635000Y-5811429D01*
X-3649286Y-5797143D01*
X-3663571Y-5768571D01*
X-3677857Y-5711429D01*
X-3677857Y-5640000D01*
X-3663571Y-5582857D01*
X-3649286Y-5554286D01*
X-3635000Y-5540000D01*
X-3606429Y-5525714D01*
X-3377857Y-5797143D02*
X-3363571Y-5811429D01*
X-3377857Y-5825714D01*
X-3392143Y-5811429D01*
X-3377857Y-5797143D01*
X-3377857Y-5825714D01*
X-3220714Y-5825714D02*
X-3163571Y-5825714D01*
X-3135000Y-5811429D01*
X-3120714Y-5797143D01*
X-3092143Y-5754286D01*
X-3077857Y-5697143D01*
X-3077857Y-5582857D01*
X-3092143Y-5554286D01*
X-3106429Y-5540000D01*
X-3135000Y-5525714D01*
X-3192143Y-5525714D01*
X-3220714Y-5540000D01*
X-3235000Y-5554286D01*
X-3249286Y-5582857D01*
X-3249286Y-5654286D01*
X-3235000Y-5682857D01*
X-3220714Y-5697143D01*
X-3192143Y-5711429D01*
X-3135000Y-5711429D01*
X-3106429Y-5697143D01*
X-3092143Y-5682857D01*
X-3077857Y-5654286D01*
X-2892143Y-5525714D02*
X-2863571Y-5525714D01*
X-2835000Y-5540000D01*
X-2820714Y-5554286D01*
X-2806429Y-5582857D01*
X-2792143Y-5640000D01*
X-2792143Y-5711429D01*
X-2806429Y-5768571D01*
X-2820714Y-5797143D01*
X-2835000Y-5811429D01*
X-2863571Y-5825714D01*
X-2892143Y-5825714D01*
X-2920714Y-5811429D01*
X-2935000Y-5797143D01*
X-2949286Y-5768571D01*
X-2963571Y-5711429D01*
X-2963571Y-5640000D01*
X-2949286Y-5582857D01*
X-2935000Y-5554286D01*
X-2920714Y-5540000D01*
X-2892143Y-5525714D01*
X-2606429Y-5525714D02*
X-2577857Y-5525714D01*
X-2549286Y-5540000D01*
X-2535000Y-5554286D01*
X-2520714Y-5582857D01*
X-2506429Y-5640000D01*
X-2506429Y-5711429D01*
X-2520714Y-5768571D01*
X-2535000Y-5797143D01*
X-2549286Y-5811429D01*
X-2577857Y-5825714D01*
X-2606429Y-5825714D01*
X-2635000Y-5811429D01*
X-2649286Y-5797143D01*
X-2663572Y-5768571D01*
X-2677857Y-5711429D01*
X-2677857Y-5640000D01*
X-2663572Y-5582857D01*
X-2649286Y-5554286D01*
X-2635000Y-5540000D01*
X-2606429Y-5525714D01*
X-2377857Y-5825714D02*
X-2377857Y-5625714D01*
X-2377857Y-5654286D02*
X-2363572Y-5640000D01*
X-2335000Y-5625714D01*
X-2292143Y-5625714D01*
X-2263572Y-5640000D01*
X-2249286Y-5668571D01*
X-2249286Y-5825714D01*
X-2249286Y-5668571D02*
X-2235000Y-5640000D01*
X-2206429Y-5625714D01*
X-2163572Y-5625714D01*
X-2135000Y-5640000D01*
X-2120714Y-5668571D01*
X-2120714Y-5825714D01*
X-1977857Y-5825714D02*
X-1977857Y-5625714D01*
X-1977857Y-5654286D02*
X-1963571Y-5640000D01*
X-1935000Y-5625714D01*
X-1892143Y-5625714D01*
X-1863571Y-5640000D01*
X-1849286Y-5668571D01*
X-1849286Y-5825714D01*
X-1849286Y-5668571D02*
X-1835000Y-5640000D01*
X-1806429Y-5625714D01*
X-1763571Y-5625714D01*
X-1735000Y-5640000D01*
X-1720714Y-5668571D01*
X-1720714Y-5825714D01*
X-1135000Y-5511429D02*
X-1392143Y-5897143D01*
X-749286Y-5525714D02*
X-720714Y-5525714D01*
X-692143Y-5540000D01*
X-677857Y-5554286D01*
X-663572Y-5582857D01*
X-649286Y-5640000D01*
X-649286Y-5711429D01*
X-663572Y-5768571D01*
X-677857Y-5797143D01*
X-692143Y-5811429D01*
X-720714Y-5825714D01*
X-749286Y-5825714D01*
X-777857Y-5811429D01*
X-792143Y-5797143D01*
X-806429Y-5768571D01*
X-820714Y-5711429D01*
X-820714Y-5640000D01*
X-806429Y-5582857D01*
X-792143Y-5554286D01*
X-777857Y-5540000D01*
X-749286Y-5525714D01*
X-520714Y-5797143D02*
X-506429Y-5811429D01*
X-520714Y-5825714D01*
X-535000Y-5811429D01*
X-520714Y-5797143D01*
X-520714Y-5825714D01*
X-320714Y-5525714D02*
X-292143Y-5525714D01*
X-263572Y-5540000D01*
X-249286Y-5554286D01*
X-235000Y-5582857D01*
X-220714Y-5640000D01*
X-220714Y-5711429D01*
X-235000Y-5768571D01*
X-249286Y-5797143D01*
X-263572Y-5811429D01*
X-292143Y-5825714D01*
X-320714Y-5825714D01*
X-349286Y-5811429D01*
X-363571Y-5797143D01*
X-377857Y-5768571D01*
X-392143Y-5711429D01*
X-392143Y-5640000D01*
X-377857Y-5582857D01*
X-363571Y-5554286D01*
X-349286Y-5540000D01*
X-320714Y-5525714D01*
X-120714Y-5525714D02*
X65000Y-5525714D01*
X-35000Y-5640000D01*
X7857Y-5640000D01*
X36428Y-5654286D01*
X50714Y-5668571D01*
X65000Y-5697143D01*
X65000Y-5768571D01*
X50714Y-5797143D01*
X36428Y-5811429D01*
X7857Y-5825714D01*
X-77857Y-5825714D01*
X-106429Y-5811429D01*
X-120714Y-5797143D01*
X336428Y-5525714D02*
X193571Y-5525714D01*
X179286Y-5668571D01*
X193571Y-5654286D01*
X222143Y-5640000D01*
X293571Y-5640000D01*
X322143Y-5654286D01*
X336428Y-5668571D01*
X350714Y-5697143D01*
X350714Y-5768571D01*
X336428Y-5797143D01*
X322143Y-5811429D01*
X293571Y-5825714D01*
X222143Y-5825714D01*
X193571Y-5811429D01*
X179286Y-5797143D01*
X607857Y-5625714D02*
X607857Y-5825714D01*
X536428Y-5511429D02*
X465000Y-5725714D01*
X650714Y-5725714D01*
X750714Y-5525714D02*
X750714Y-5582857D01*
X865000Y-5525714D02*
X865000Y-5582857D01*
X1307857Y-5940000D02*
X1293571Y-5925714D01*
X1265000Y-5882857D01*
X1250714Y-5854286D01*
X1236428Y-5811429D01*
X1222143Y-5740000D01*
X1222143Y-5682857D01*
X1236428Y-5611429D01*
X1250714Y-5568572D01*
X1265000Y-5540000D01*
X1293571Y-5497143D01*
X1307857Y-5482857D01*
X1407857Y-5554286D02*
X1422143Y-5540000D01*
X1450714Y-5525714D01*
X1522143Y-5525714D01*
X1550714Y-5540000D01*
X1565000Y-5554286D01*
X1579286Y-5582857D01*
X1579286Y-5611429D01*
X1565000Y-5654286D01*
X1393571Y-5825714D01*
X1579286Y-5825714D01*
X1936428Y-5825714D02*
X1936428Y-5525714D01*
X2065000Y-5825714D02*
X2065000Y-5668571D01*
X2050714Y-5640000D01*
X2022143Y-5625714D01*
X1979286Y-5625714D01*
X1950714Y-5640000D01*
X1936428Y-5654286D01*
X2250714Y-5825714D02*
X2222143Y-5811429D01*
X2207857Y-5797143D01*
X2193571Y-5768571D01*
X2193571Y-5682857D01*
X2207857Y-5654286D01*
X2222143Y-5640000D01*
X2250714Y-5625714D01*
X2293571Y-5625714D01*
X2322143Y-5640000D01*
X2336428Y-5654286D01*
X2350714Y-5682857D01*
X2350714Y-5768571D01*
X2336428Y-5797143D01*
X2322143Y-5811429D01*
X2293571Y-5825714D01*
X2250714Y-5825714D01*
X2522143Y-5825714D02*
X2493571Y-5811429D01*
X2479286Y-5782857D01*
X2479286Y-5525714D01*
X2750714Y-5811429D02*
X2722143Y-5825714D01*
X2665000Y-5825714D01*
X2636428Y-5811429D01*
X2622143Y-5782857D01*
X2622143Y-5668571D01*
X2636428Y-5640000D01*
X2665000Y-5625714D01*
X2722143Y-5625714D01*
X2750714Y-5640000D01*
X2765000Y-5668571D01*
X2765000Y-5697143D01*
X2622143Y-5725714D01*
X2879286Y-5811429D02*
X2907857Y-5825714D01*
X2965000Y-5825714D01*
X2993571Y-5811429D01*
X3007857Y-5782857D01*
X3007857Y-5768571D01*
X2993571Y-5740000D01*
X2965000Y-5725714D01*
X2922143Y-5725714D01*
X2893571Y-5711429D01*
X2879286Y-5682857D01*
X2879286Y-5668571D01*
X2893571Y-5640000D01*
X2922143Y-5625714D01*
X2965000Y-5625714D01*
X2993571Y-5640000D01*
X3107857Y-5940000D02*
X3122143Y-5925714D01*
X3150714Y-5882857D01*
X3165000Y-5854286D01*
X3179286Y-5811429D01*
X3193571Y-5740000D01*
X3193571Y-5682857D01*
X3179286Y-5611429D01*
X3165000Y-5568572D01*
X3150714Y-5540000D01*
X3122143Y-5497143D01*
X3107857Y-5482857D01*
X3650714Y-5940000D02*
X3636428Y-5925714D01*
X3607857Y-5882857D01*
X3593571Y-5854286D01*
X3579286Y-5811429D01*
X3565000Y-5740000D01*
X3565000Y-5682857D01*
X3579286Y-5611429D01*
X3593571Y-5568572D01*
X3607857Y-5540000D01*
X3636428Y-5497143D01*
X3650714Y-5482857D01*
X3765000Y-5625714D02*
X3765000Y-5825714D01*
X3765000Y-5654286D02*
X3779286Y-5640000D01*
X3807857Y-5625714D01*
X3850714Y-5625714D01*
X3879286Y-5640000D01*
X3893571Y-5668571D01*
X3893571Y-5825714D01*
X4079286Y-5825714D02*
X4050714Y-5811429D01*
X4036428Y-5797143D01*
X4022143Y-5768571D01*
X4022143Y-5682857D01*
X4036428Y-5654286D01*
X4050714Y-5640000D01*
X4079286Y-5625714D01*
X4122143Y-5625714D01*
X4150714Y-5640000D01*
X4165000Y-5654286D01*
X4179286Y-5682857D01*
X4179286Y-5768571D01*
X4165000Y-5797143D01*
X4150714Y-5811429D01*
X4122143Y-5825714D01*
X4079286Y-5825714D01*
X4265000Y-5625714D02*
X4379286Y-5625714D01*
X4307857Y-5525714D02*
X4307857Y-5782857D01*
X4322143Y-5811429D01*
X4350714Y-5825714D01*
X4379286Y-5825714D01*
X4707857Y-5625714D02*
X4707857Y-5925714D01*
X4707857Y-5640000D02*
X4736428Y-5625714D01*
X4793571Y-5625714D01*
X4822143Y-5640000D01*
X4836428Y-5654286D01*
X4850714Y-5682857D01*
X4850714Y-5768571D01*
X4836428Y-5797143D01*
X4822143Y-5811429D01*
X4793571Y-5825714D01*
X4736428Y-5825714D01*
X4707857Y-5811429D01*
X5022143Y-5825714D02*
X4993571Y-5811429D01*
X4979286Y-5782857D01*
X4979286Y-5525714D01*
X5265000Y-5825714D02*
X5265000Y-5668571D01*
X5250714Y-5640000D01*
X5222143Y-5625714D01*
X5165000Y-5625714D01*
X5136428Y-5640000D01*
X5265000Y-5811429D02*
X5236428Y-5825714D01*
X5165000Y-5825714D01*
X5136428Y-5811429D01*
X5122143Y-5782857D01*
X5122143Y-5754286D01*
X5136428Y-5725714D01*
X5165000Y-5711429D01*
X5236428Y-5711429D01*
X5265000Y-5697143D01*
X5365000Y-5625714D02*
X5479286Y-5625714D01*
X5407857Y-5525714D02*
X5407857Y-5782857D01*
X5422143Y-5811429D01*
X5450714Y-5825714D01*
X5479286Y-5825714D01*
X5693571Y-5811429D02*
X5665000Y-5825714D01*
X5607857Y-5825714D01*
X5579286Y-5811429D01*
X5565000Y-5782857D01*
X5565000Y-5668571D01*
X5579286Y-5640000D01*
X5607857Y-5625714D01*
X5665000Y-5625714D01*
X5693571Y-5640000D01*
X5707857Y-5668571D01*
X5707857Y-5697143D01*
X5565000Y-5725714D01*
X5965000Y-5825714D02*
X5965000Y-5525714D01*
X5965000Y-5811429D02*
X5936428Y-5825714D01*
X5879286Y-5825714D01*
X5850714Y-5811429D01*
X5836428Y-5797143D01*
X5822143Y-5768571D01*
X5822143Y-5682857D01*
X5836428Y-5654286D01*
X5850714Y-5640000D01*
X5879286Y-5625714D01*
X5936428Y-5625714D01*
X5965000Y-5640000D01*
X6079286Y-5940000D02*
X6093571Y-5925714D01*
X6122143Y-5882857D01*
X6136428Y-5854286D01*
X6150714Y-5811429D01*
X6165000Y-5740000D01*
X6165000Y-5682857D01*
X6150714Y-5611429D01*
X6136428Y-5568572D01*
X6122143Y-5540000D01*
X6093571Y-5497143D01*
X6079286Y-5482857D01*
M02*
