M48
; DRILL file {KiCad (5.1.10)-1} date 02/06/22 01:46:58
; FORMAT={-:-/ absolute / metric / decimal}
; #@! TF.CreationDate,2022-02-06T01:46:58+09:00
; #@! TF.GenerationSoftware,Kicad,Pcbnew,(5.1.10)-1
FMAT,2
METRIC
T1C0.300
T2C0.400
T3C0.500
T4C0.700
T5C1.100
T6C0.900
%
G90
G05
T1
X-25.3Y12.4
X-15.3Y16.4
X-14.25Y-13.0
X-13.0Y-8.6
X-9.85Y7.85
X-9.25Y-12.5
X-8.0Y-10.25
X-6.75Y-12.5
X-3.75Y-17.0
X-2.375Y16.9
X-2.25Y-16.5
X-0.25Y-17.5
X0.6Y-14.1
X1.7Y-10.2
X2.0Y-16.75
X3.825Y7.9
X4.4Y-14.1
X5.75Y-16.75
X7.4Y-17.5
X8.3Y-14.0
X8.5Y0.8
X13.25Y-11.5
X14.17Y20.94
X16.5Y21.2
X26.75Y0.8
T2
X-21.15Y-5.35
X-13.6Y20.8
X-13.6Y19.8
X-11.4Y16.2
X-11.4Y14.2
X-10.5Y-11.0
X-10.5Y-17.25
X-10.4Y20.8
X-10.275Y-5.275
X-8.8Y21.0
X-8.6Y14.2
X-5.725Y-5.275
X-5.5Y-11.0
X-5.5Y-17.25
X-3.4Y15.4
X-2.2Y18.4
X-1.3Y12.0
X-1.3Y10.0
X0.6Y20.0
X1.975Y2.725
X3.0Y2.0
X3.0Y-6.75
X4.145Y-6.87
X13.5Y16.8
X14.75Y0.75
X15.0Y-2.0
X15.5Y5.25
X17.075Y-10.575
X18.455Y-15.795
X18.5Y-9.25
X19.2Y22.0
X19.25Y5.5
X19.25Y4.25
X19.75Y-8.0
X19.85Y-2.0
X19.85Y-12.85
X20.225Y2.725
X21.25Y2.0
X21.825Y-10.575
X25.6Y15.4
X25.88Y4.5
T3
X-28.75Y-6.5
X-27.3Y-14.0
X-23.9Y-11.3
X-23.5Y-7.0
X-19.54Y-9.87
X-14.3Y-15.9
X-12.7Y-14.925
X-4.0Y-2.5
X-3.35Y13.15
X-2.5Y-5.25
X-2.5Y-9.75
X-0.75Y-0.75
X1.5Y-5.0
X1.5Y-7.5
X1.6Y-2.0
X3.3Y12.0
X3.3Y10.1
X6.5Y14.35
X6.55Y9.725
X7.0Y16.5
X11.0Y-12.25
X13.25Y-7.5
X14.25Y-8.75
X15.0Y-5.25
X17.25Y-1.0
X17.25Y-3.25
X17.25Y-7.0
X19.25Y-5.25
T4
X-28.4Y15.0
X-25.9Y15.0
X-23.4Y15.0
X12.5Y-0.75
X12.5Y-3.25
X30.75Y-0.75
X30.75Y-3.25
T5
X25.05Y19.8
X27.55Y19.8
T6
X16.9Y24.6
X19.9Y24.6
T0
M30
